<?xml version="1.0" encoding="utf-8" standalone="no"?>
<!DOCTYPE svg PUBLIC "-//W3C//DTD SVG 1.1//EN"
  "http://www.w3.org/Graphics/SVG/1.1/DTD/svg11.dtd">
<svg xmlns:xlink="http://www.w3.org/1999/xlink" width="864pt" height="360pt" viewBox="0 0 864 360" xmlns="http://www.w3.org/2000/svg" version="1.1">
 <metadata>
  <rdf:RDF xmlns:dc="http://purl.org/dc/elements/1.1/" xmlns:cc="http://creativecommons.org/ns#" xmlns:rdf="http://www.w3.org/1999/02/22-rdf-syntax-ns#">
   <cc:Work>
    <dc:type rdf:resource="http://purl.org/dc/dcmitype/StillImage"/>
    <dc:date>2024-09-18T08:13:08.745668</dc:date>
    <dc:format>image/svg+xml</dc:format>
    <dc:creator>
     <cc:Agent>
      <dc:title>Matplotlib v3.9.2, https://matplotlib.org/</dc:title>
     </cc:Agent>
    </dc:creator>
   </cc:Work>
  </rdf:RDF>
 </metadata>
 <defs>
  <style type="text/css">*{stroke-linejoin: round; stroke-linecap: butt}</style>
 </defs>
 <g id="figure_1">
  <g id="patch_1">
   <path d="M 0 360 
L 864 360 
L 864 0 
L 0 0 
L 0 360 
z
" style="fill: none; opacity: 0"/>
  </g>
  <g id="axes_1">
   <g id="patch_2">
    <path d="M 108 320.4 
L 777.6 320.4 
L 777.6 43.2 
L 108 43.2 
L 108 320.4 
z
" style="fill: none; opacity: 0"/>
   </g>
   <g id="matplotlib.axis_1">
    <g id="xtick_1">
     <g id="line2d_1">
      <path d="M 159.044318 320.4 
L 159.044318 43.2 
" clip-path="url(#pc6d118cc67)" style="fill: none; stroke-dasharray: 5.12,1.28,0.8,1.28; stroke-dashoffset: 0; stroke: #b0b0b0; stroke-width: 0.8"/>
     </g>
     <g id="line2d_2">
      <defs>
       <path id="m7e9d0a9e4c" d="M 0 0 
L 0 3.5 
" style="stroke: #a9a9a9; stroke-width: 0.8"/>
      </defs>
      <g>
       <use xlink:href="#m7e9d0a9e4c" x="159.044318" y="320.4" style="fill: #a9a9a9; stroke: #a9a9a9; stroke-width: 0.8"/>
      </g>
     </g>
     <g id="text_1">
      <!-- 2021-09 -->
      <g style="fill: #a9a9a9" transform="translate(138.152912 334.998438) scale(0.1 -0.1)">
       <defs>
        <path id="DejaVuSans-32" d="M 1228 531 
L 3431 531 
L 3431 0 
L 469 0 
L 469 531 
Q 828 903 1448 1529 
Q 2069 2156 2228 2338 
Q 2531 2678 2651 2914 
Q 2772 3150 2772 3378 
Q 2772 3750 2511 3984 
Q 2250 4219 1831 4219 
Q 1534 4219 1204 4116 
Q 875 4013 500 3803 
L 500 4441 
Q 881 4594 1212 4672 
Q 1544 4750 1819 4750 
Q 2544 4750 2975 4387 
Q 3406 4025 3406 3419 
Q 3406 3131 3298 2873 
Q 3191 2616 2906 2266 
Q 2828 2175 2409 1742 
Q 1991 1309 1228 531 
z
" transform="scale(0.015625)"/>
        <path id="DejaVuSans-30" d="M 2034 4250 
Q 1547 4250 1301 3770 
Q 1056 3291 1056 2328 
Q 1056 1369 1301 889 
Q 1547 409 2034 409 
Q 2525 409 2770 889 
Q 3016 1369 3016 2328 
Q 3016 3291 2770 3770 
Q 2525 4250 2034 4250 
z
M 2034 4750 
Q 2819 4750 3233 4129 
Q 3647 3509 3647 2328 
Q 3647 1150 3233 529 
Q 2819 -91 2034 -91 
Q 1250 -91 836 529 
Q 422 1150 422 2328 
Q 422 3509 836 4129 
Q 1250 4750 2034 4750 
z
" transform="scale(0.015625)"/>
        <path id="DejaVuSans-31" d="M 794 531 
L 1825 531 
L 1825 4091 
L 703 3866 
L 703 4441 
L 1819 4666 
L 2450 4666 
L 2450 531 
L 3481 531 
L 3481 0 
L 794 0 
L 794 531 
z
" transform="scale(0.015625)"/>
        <path id="DejaVuSans-2d" d="M 313 2009 
L 1997 2009 
L 1997 1497 
L 313 1497 
L 313 2009 
z
" transform="scale(0.015625)"/>
        <path id="DejaVuSans-39" d="M 703 97 
L 703 672 
Q 941 559 1184 500 
Q 1428 441 1663 441 
Q 2288 441 2617 861 
Q 2947 1281 2994 2138 
Q 2813 1869 2534 1725 
Q 2256 1581 1919 1581 
Q 1219 1581 811 2004 
Q 403 2428 403 3163 
Q 403 3881 828 4315 
Q 1253 4750 1959 4750 
Q 2769 4750 3195 4129 
Q 3622 3509 3622 2328 
Q 3622 1225 3098 567 
Q 2575 -91 1691 -91 
Q 1453 -91 1209 -44 
Q 966 3 703 97 
z
M 1959 2075 
Q 2384 2075 2632 2365 
Q 2881 2656 2881 3163 
Q 2881 3666 2632 3958 
Q 2384 4250 1959 4250 
Q 1534 4250 1286 3958 
Q 1038 3666 1038 3163 
Q 1038 2656 1286 2365 
Q 1534 2075 1959 2075 
z
" transform="scale(0.015625)"/>
       </defs>
       <use xlink:href="#DejaVuSans-32"/>
       <use xlink:href="#DejaVuSans-30" x="63.623047"/>
       <use xlink:href="#DejaVuSans-32" x="127.246094"/>
       <use xlink:href="#DejaVuSans-31" x="190.869141"/>
       <use xlink:href="#DejaVuSans-2d" x="254.492188"/>
       <use xlink:href="#DejaVuSans-30" x="290.576172"/>
       <use xlink:href="#DejaVuSans-39" x="354.199219"/>
      </g>
     </g>
    </g>
    <g id="xtick_2">
     <g id="line2d_3">
      <path d="M 223.510227 320.4 
L 223.510227 43.2 
" clip-path="url(#pc6d118cc67)" style="fill: none; stroke-dasharray: 5.12,1.28,0.8,1.28; stroke-dashoffset: 0; stroke: #b0b0b0; stroke-width: 0.8"/>
     </g>
     <g id="line2d_4">
      <g>
       <use xlink:href="#m7e9d0a9e4c" x="223.510227" y="320.4" style="fill: #a9a9a9; stroke: #a9a9a9; stroke-width: 0.8"/>
      </g>
     </g>
     <g id="text_2">
      <!-- 2022-01 -->
      <g style="fill: #a9a9a9" transform="translate(202.618821 334.998438) scale(0.1 -0.1)">
       <use xlink:href="#DejaVuSans-32"/>
       <use xlink:href="#DejaVuSans-30" x="63.623047"/>
       <use xlink:href="#DejaVuSans-32" x="127.246094"/>
       <use xlink:href="#DejaVuSans-32" x="190.869141"/>
       <use xlink:href="#DejaVuSans-2d" x="254.492188"/>
       <use xlink:href="#DejaVuSans-30" x="290.576172"/>
       <use xlink:href="#DejaVuSans-31" x="354.199219"/>
      </g>
     </g>
    </g>
    <g id="xtick_3">
     <g id="line2d_5">
      <path d="M 286.919318 320.4 
L 286.919318 43.2 
" clip-path="url(#pc6d118cc67)" style="fill: none; stroke-dasharray: 5.12,1.28,0.8,1.28; stroke-dashoffset: 0; stroke: #b0b0b0; stroke-width: 0.8"/>
     </g>
     <g id="line2d_6">
      <g>
       <use xlink:href="#m7e9d0a9e4c" x="286.919318" y="320.4" style="fill: #a9a9a9; stroke: #a9a9a9; stroke-width: 0.8"/>
      </g>
     </g>
     <g id="text_3">
      <!-- 2022-05 -->
      <g style="fill: #a9a9a9" transform="translate(266.027912 334.998438) scale(0.1 -0.1)">
       <defs>
        <path id="DejaVuSans-35" d="M 691 4666 
L 3169 4666 
L 3169 4134 
L 1269 4134 
L 1269 2991 
Q 1406 3038 1543 3061 
Q 1681 3084 1819 3084 
Q 2600 3084 3056 2656 
Q 3513 2228 3513 1497 
Q 3513 744 3044 326 
Q 2575 -91 1722 -91 
Q 1428 -91 1123 -41 
Q 819 9 494 109 
L 494 744 
Q 775 591 1075 516 
Q 1375 441 1709 441 
Q 2250 441 2565 725 
Q 2881 1009 2881 1497 
Q 2881 1984 2565 2268 
Q 2250 2553 1709 2553 
Q 1456 2553 1204 2497 
Q 953 2441 691 2322 
L 691 4666 
z
" transform="scale(0.015625)"/>
       </defs>
       <use xlink:href="#DejaVuSans-32"/>
       <use xlink:href="#DejaVuSans-30" x="63.623047"/>
       <use xlink:href="#DejaVuSans-32" x="127.246094"/>
       <use xlink:href="#DejaVuSans-32" x="190.869141"/>
       <use xlink:href="#DejaVuSans-2d" x="254.492188"/>
       <use xlink:href="#DejaVuSans-30" x="290.576172"/>
       <use xlink:href="#DejaVuSans-35" x="354.199219"/>
      </g>
     </g>
    </g>
    <g id="xtick_4">
     <g id="line2d_7">
      <path d="M 351.913636 320.4 
L 351.913636 43.2 
" clip-path="url(#pc6d118cc67)" style="fill: none; stroke-dasharray: 5.12,1.28,0.8,1.28; stroke-dashoffset: 0; stroke: #b0b0b0; stroke-width: 0.8"/>
     </g>
     <g id="line2d_8">
      <g>
       <use xlink:href="#m7e9d0a9e4c" x="351.913636" y="320.4" style="fill: #a9a9a9; stroke: #a9a9a9; stroke-width: 0.8"/>
      </g>
     </g>
     <g id="text_4">
      <!-- 2022-09 -->
      <g style="fill: #a9a9a9" transform="translate(331.02223 334.998438) scale(0.1 -0.1)">
       <use xlink:href="#DejaVuSans-32"/>
       <use xlink:href="#DejaVuSans-30" x="63.623047"/>
       <use xlink:href="#DejaVuSans-32" x="127.246094"/>
       <use xlink:href="#DejaVuSans-32" x="190.869141"/>
       <use xlink:href="#DejaVuSans-2d" x="254.492188"/>
       <use xlink:href="#DejaVuSans-30" x="290.576172"/>
       <use xlink:href="#DejaVuSans-39" x="354.199219"/>
      </g>
     </g>
    </g>
    <g id="xtick_5">
     <g id="line2d_9">
      <path d="M 416.379545 320.4 
L 416.379545 43.2 
" clip-path="url(#pc6d118cc67)" style="fill: none; stroke-dasharray: 5.12,1.28,0.8,1.28; stroke-dashoffset: 0; stroke: #b0b0b0; stroke-width: 0.8"/>
     </g>
     <g id="line2d_10">
      <g>
       <use xlink:href="#m7e9d0a9e4c" x="416.379545" y="320.4" style="fill: #a9a9a9; stroke: #a9a9a9; stroke-width: 0.8"/>
      </g>
     </g>
     <g id="text_5">
      <!-- 2023-01 -->
      <g style="fill: #a9a9a9" transform="translate(395.488139 334.998438) scale(0.1 -0.1)">
       <defs>
        <path id="DejaVuSans-33" d="M 2597 2516 
Q 3050 2419 3304 2112 
Q 3559 1806 3559 1356 
Q 3559 666 3084 287 
Q 2609 -91 1734 -91 
Q 1441 -91 1130 -33 
Q 819 25 488 141 
L 488 750 
Q 750 597 1062 519 
Q 1375 441 1716 441 
Q 2309 441 2620 675 
Q 2931 909 2931 1356 
Q 2931 1769 2642 2001 
Q 2353 2234 1838 2234 
L 1294 2234 
L 1294 2753 
L 1863 2753 
Q 2328 2753 2575 2939 
Q 2822 3125 2822 3475 
Q 2822 3834 2567 4026 
Q 2313 4219 1838 4219 
Q 1578 4219 1281 4162 
Q 984 4106 628 3988 
L 628 4550 
Q 988 4650 1302 4700 
Q 1616 4750 1894 4750 
Q 2613 4750 3031 4423 
Q 3450 4097 3450 3541 
Q 3450 3153 3228 2886 
Q 3006 2619 2597 2516 
z
" transform="scale(0.015625)"/>
       </defs>
       <use xlink:href="#DejaVuSans-32"/>
       <use xlink:href="#DejaVuSans-30" x="63.623047"/>
       <use xlink:href="#DejaVuSans-32" x="127.246094"/>
       <use xlink:href="#DejaVuSans-33" x="190.869141"/>
       <use xlink:href="#DejaVuSans-2d" x="254.492188"/>
       <use xlink:href="#DejaVuSans-30" x="290.576172"/>
       <use xlink:href="#DejaVuSans-31" x="354.199219"/>
      </g>
     </g>
    </g>
    <g id="xtick_6">
     <g id="line2d_11">
      <path d="M 479.788636 320.4 
L 479.788636 43.2 
" clip-path="url(#pc6d118cc67)" style="fill: none; stroke-dasharray: 5.12,1.28,0.8,1.28; stroke-dashoffset: 0; stroke: #b0b0b0; stroke-width: 0.8"/>
     </g>
     <g id="line2d_12">
      <g>
       <use xlink:href="#m7e9d0a9e4c" x="479.788636" y="320.4" style="fill: #a9a9a9; stroke: #a9a9a9; stroke-width: 0.8"/>
      </g>
     </g>
     <g id="text_6">
      <!-- 2023-05 -->
      <g style="fill: #a9a9a9" transform="translate(458.89723 334.998438) scale(0.1 -0.1)">
       <use xlink:href="#DejaVuSans-32"/>
       <use xlink:href="#DejaVuSans-30" x="63.623047"/>
       <use xlink:href="#DejaVuSans-32" x="127.246094"/>
       <use xlink:href="#DejaVuSans-33" x="190.869141"/>
       <use xlink:href="#DejaVuSans-2d" x="254.492188"/>
       <use xlink:href="#DejaVuSans-30" x="290.576172"/>
       <use xlink:href="#DejaVuSans-35" x="354.199219"/>
      </g>
     </g>
    </g>
    <g id="xtick_7">
     <g id="line2d_13">
      <path d="M 544.782955 320.4 
L 544.782955 43.2 
" clip-path="url(#pc6d118cc67)" style="fill: none; stroke-dasharray: 5.12,1.28,0.8,1.28; stroke-dashoffset: 0; stroke: #b0b0b0; stroke-width: 0.8"/>
     </g>
     <g id="line2d_14">
      <g>
       <use xlink:href="#m7e9d0a9e4c" x="544.782955" y="320.4" style="fill: #a9a9a9; stroke: #a9a9a9; stroke-width: 0.8"/>
      </g>
     </g>
     <g id="text_7">
      <!-- 2023-09 -->
      <g style="fill: #a9a9a9" transform="translate(523.891548 334.998438) scale(0.1 -0.1)">
       <use xlink:href="#DejaVuSans-32"/>
       <use xlink:href="#DejaVuSans-30" x="63.623047"/>
       <use xlink:href="#DejaVuSans-32" x="127.246094"/>
       <use xlink:href="#DejaVuSans-33" x="190.869141"/>
       <use xlink:href="#DejaVuSans-2d" x="254.492188"/>
       <use xlink:href="#DejaVuSans-30" x="290.576172"/>
       <use xlink:href="#DejaVuSans-39" x="354.199219"/>
      </g>
     </g>
    </g>
    <g id="xtick_8">
     <g id="line2d_15">
      <path d="M 609.248864 320.4 
L 609.248864 43.2 
" clip-path="url(#pc6d118cc67)" style="fill: none; stroke-dasharray: 5.12,1.28,0.8,1.28; stroke-dashoffset: 0; stroke: #b0b0b0; stroke-width: 0.8"/>
     </g>
     <g id="line2d_16">
      <g>
       <use xlink:href="#m7e9d0a9e4c" x="609.248864" y="320.4" style="fill: #a9a9a9; stroke: #a9a9a9; stroke-width: 0.8"/>
      </g>
     </g>
     <g id="text_8">
      <!-- 2024-01 -->
      <g style="fill: #a9a9a9" transform="translate(588.357457 334.998438) scale(0.1 -0.1)">
       <defs>
        <path id="DejaVuSans-34" d="M 2419 4116 
L 825 1625 
L 2419 1625 
L 2419 4116 
z
M 2253 4666 
L 3047 4666 
L 3047 1625 
L 3713 1625 
L 3713 1100 
L 3047 1100 
L 3047 0 
L 2419 0 
L 2419 1100 
L 313 1100 
L 313 1709 
L 2253 4666 
z
" transform="scale(0.015625)"/>
       </defs>
       <use xlink:href="#DejaVuSans-32"/>
       <use xlink:href="#DejaVuSans-30" x="63.623047"/>
       <use xlink:href="#DejaVuSans-32" x="127.246094"/>
       <use xlink:href="#DejaVuSans-34" x="190.869141"/>
       <use xlink:href="#DejaVuSans-2d" x="254.492188"/>
       <use xlink:href="#DejaVuSans-30" x="290.576172"/>
       <use xlink:href="#DejaVuSans-31" x="354.199219"/>
      </g>
     </g>
    </g>
    <g id="xtick_9">
     <g id="line2d_17">
      <path d="M 673.186364 320.4 
L 673.186364 43.2 
" clip-path="url(#pc6d118cc67)" style="fill: none; stroke-dasharray: 5.12,1.28,0.8,1.28; stroke-dashoffset: 0; stroke: #b0b0b0; stroke-width: 0.8"/>
     </g>
     <g id="line2d_18">
      <g>
       <use xlink:href="#m7e9d0a9e4c" x="673.186364" y="320.4" style="fill: #a9a9a9; stroke: #a9a9a9; stroke-width: 0.8"/>
      </g>
     </g>
     <g id="text_9">
      <!-- 2024-05 -->
      <g style="fill: #a9a9a9" transform="translate(652.294957 334.998438) scale(0.1 -0.1)">
       <use xlink:href="#DejaVuSans-32"/>
       <use xlink:href="#DejaVuSans-30" x="63.623047"/>
       <use xlink:href="#DejaVuSans-32" x="127.246094"/>
       <use xlink:href="#DejaVuSans-34" x="190.869141"/>
       <use xlink:href="#DejaVuSans-2d" x="254.492188"/>
       <use xlink:href="#DejaVuSans-30" x="290.576172"/>
       <use xlink:href="#DejaVuSans-35" x="354.199219"/>
      </g>
     </g>
    </g>
    <g id="xtick_10">
     <g id="line2d_19">
      <path d="M 738.180682 320.4 
L 738.180682 43.2 
" clip-path="url(#pc6d118cc67)" style="fill: none; stroke-dasharray: 5.12,1.28,0.8,1.28; stroke-dashoffset: 0; stroke: #b0b0b0; stroke-width: 0.8"/>
     </g>
     <g id="line2d_20">
      <g>
       <use xlink:href="#m7e9d0a9e4c" x="738.180682" y="320.4" style="fill: #a9a9a9; stroke: #a9a9a9; stroke-width: 0.8"/>
      </g>
     </g>
     <g id="text_10">
      <!-- 2024-09 -->
      <g style="fill: #a9a9a9" transform="translate(717.289276 334.998438) scale(0.1 -0.1)">
       <use xlink:href="#DejaVuSans-32"/>
       <use xlink:href="#DejaVuSans-30" x="63.623047"/>
       <use xlink:href="#DejaVuSans-32" x="127.246094"/>
       <use xlink:href="#DejaVuSans-34" x="190.869141"/>
       <use xlink:href="#DejaVuSans-2d" x="254.492188"/>
       <use xlink:href="#DejaVuSans-30" x="290.576172"/>
       <use xlink:href="#DejaVuSans-39" x="354.199219"/>
      </g>
     </g>
    </g>
   </g>
   <g id="matplotlib.axis_2">
    <g id="ytick_1">
     <g id="line2d_21">
      <path d="M 108 307.837691 
L 777.6 307.837691 
" clip-path="url(#pc6d118cc67)" style="fill: none; stroke-dasharray: 5.12,1.28,0.8,1.28; stroke-dashoffset: 0; stroke: #b0b0b0; stroke-width: 0.8"/>
     </g>
     <g id="line2d_22">
      <defs>
       <path id="mc130ed55de" d="M 0 0 
L -3.5 0 
" style="stroke: #a9a9a9; stroke-width: 0.8"/>
      </defs>
      <g>
       <use xlink:href="#mc130ed55de" x="108" y="307.837691" style="fill: #a9a9a9; stroke: #a9a9a9; stroke-width: 0.8"/>
      </g>
     </g>
     <g id="text_11">
      <!-- 0 -->
      <g style="fill: #a9a9a9" transform="translate(94.6375 311.636909) scale(0.1 -0.1)">
       <use xlink:href="#DejaVuSans-30"/>
      </g>
     </g>
    </g>
    <g id="ytick_2">
     <g id="line2d_23">
      <path d="M 108 277.685133 
L 777.6 277.685133 
" clip-path="url(#pc6d118cc67)" style="fill: none; stroke-dasharray: 5.12,1.28,0.8,1.28; stroke-dashoffset: 0; stroke: #b0b0b0; stroke-width: 0.8"/>
     </g>
     <g id="line2d_24">
      <g>
       <use xlink:href="#mc130ed55de" x="108" y="277.685133" style="fill: #a9a9a9; stroke: #a9a9a9; stroke-width: 0.8"/>
      </g>
     </g>
     <g id="text_12">
      <!-- 800 -->
      <g style="fill: #a9a9a9" transform="translate(81.9125 281.484352) scale(0.1 -0.1)">
       <defs>
        <path id="DejaVuSans-38" d="M 2034 2216 
Q 1584 2216 1326 1975 
Q 1069 1734 1069 1313 
Q 1069 891 1326 650 
Q 1584 409 2034 409 
Q 2484 409 2743 651 
Q 3003 894 3003 1313 
Q 3003 1734 2745 1975 
Q 2488 2216 2034 2216 
z
M 1403 2484 
Q 997 2584 770 2862 
Q 544 3141 544 3541 
Q 544 4100 942 4425 
Q 1341 4750 2034 4750 
Q 2731 4750 3128 4425 
Q 3525 4100 3525 3541 
Q 3525 3141 3298 2862 
Q 3072 2584 2669 2484 
Q 3125 2378 3379 2068 
Q 3634 1759 3634 1313 
Q 3634 634 3220 271 
Q 2806 -91 2034 -91 
Q 1263 -91 848 271 
Q 434 634 434 1313 
Q 434 1759 690 2068 
Q 947 2378 1403 2484 
z
M 1172 3481 
Q 1172 3119 1398 2916 
Q 1625 2713 2034 2713 
Q 2441 2713 2670 2916 
Q 2900 3119 2900 3481 
Q 2900 3844 2670 4047 
Q 2441 4250 2034 4250 
Q 1625 4250 1398 4047 
Q 1172 3844 1172 3481 
z
" transform="scale(0.015625)"/>
       </defs>
       <use xlink:href="#DejaVuSans-38"/>
       <use xlink:href="#DejaVuSans-30" x="63.623047"/>
       <use xlink:href="#DejaVuSans-30" x="127.246094"/>
      </g>
     </g>
    </g>
    <g id="ytick_3">
     <g id="line2d_25">
      <path d="M 108 247.532576 
L 777.6 247.532576 
" clip-path="url(#pc6d118cc67)" style="fill: none; stroke-dasharray: 5.12,1.28,0.8,1.28; stroke-dashoffset: 0; stroke: #b0b0b0; stroke-width: 0.8"/>
     </g>
     <g id="line2d_26">
      <g>
       <use xlink:href="#mc130ed55de" x="108" y="247.532576" style="fill: #a9a9a9; stroke: #a9a9a9; stroke-width: 0.8"/>
      </g>
     </g>
     <g id="text_13">
      <!-- 1600 -->
      <g style="fill: #a9a9a9" transform="translate(75.55 251.331794) scale(0.1 -0.1)">
       <defs>
        <path id="DejaVuSans-36" d="M 2113 2584 
Q 1688 2584 1439 2293 
Q 1191 2003 1191 1497 
Q 1191 994 1439 701 
Q 1688 409 2113 409 
Q 2538 409 2786 701 
Q 3034 994 3034 1497 
Q 3034 2003 2786 2293 
Q 2538 2584 2113 2584 
z
M 3366 4563 
L 3366 3988 
Q 3128 4100 2886 4159 
Q 2644 4219 2406 4219 
Q 1781 4219 1451 3797 
Q 1122 3375 1075 2522 
Q 1259 2794 1537 2939 
Q 1816 3084 2150 3084 
Q 2853 3084 3261 2657 
Q 3669 2231 3669 1497 
Q 3669 778 3244 343 
Q 2819 -91 2113 -91 
Q 1303 -91 875 529 
Q 447 1150 447 2328 
Q 447 3434 972 4092 
Q 1497 4750 2381 4750 
Q 2619 4750 2861 4703 
Q 3103 4656 3366 4563 
z
" transform="scale(0.015625)"/>
       </defs>
       <use xlink:href="#DejaVuSans-31"/>
       <use xlink:href="#DejaVuSans-36" x="63.623047"/>
       <use xlink:href="#DejaVuSans-30" x="127.246094"/>
       <use xlink:href="#DejaVuSans-30" x="190.869141"/>
      </g>
     </g>
    </g>
    <g id="ytick_4">
     <g id="line2d_27">
      <path d="M 108 217.380018 
L 777.6 217.380018 
" clip-path="url(#pc6d118cc67)" style="fill: none; stroke-dasharray: 5.12,1.28,0.8,1.28; stroke-dashoffset: 0; stroke: #b0b0b0; stroke-width: 0.8"/>
     </g>
     <g id="line2d_28">
      <g>
       <use xlink:href="#mc130ed55de" x="108" y="217.380018" style="fill: #a9a9a9; stroke: #a9a9a9; stroke-width: 0.8"/>
      </g>
     </g>
     <g id="text_14">
      <!-- 2400 -->
      <g style="fill: #a9a9a9" transform="translate(75.55 221.179237) scale(0.1 -0.1)">
       <use xlink:href="#DejaVuSans-32"/>
       <use xlink:href="#DejaVuSans-34" x="63.623047"/>
       <use xlink:href="#DejaVuSans-30" x="127.246094"/>
       <use xlink:href="#DejaVuSans-30" x="190.869141"/>
      </g>
     </g>
    </g>
    <g id="ytick_5">
     <g id="line2d_29">
      <path d="M 108 187.22746 
L 777.6 187.22746 
" clip-path="url(#pc6d118cc67)" style="fill: none; stroke-dasharray: 5.12,1.28,0.8,1.28; stroke-dashoffset: 0; stroke: #b0b0b0; stroke-width: 0.8"/>
     </g>
     <g id="line2d_30">
      <g>
       <use xlink:href="#mc130ed55de" x="108" y="187.22746" style="fill: #a9a9a9; stroke: #a9a9a9; stroke-width: 0.8"/>
      </g>
     </g>
     <g id="text_15">
      <!-- 3200 -->
      <g style="fill: #a9a9a9" transform="translate(75.55 191.026679) scale(0.1 -0.1)">
       <use xlink:href="#DejaVuSans-33"/>
       <use xlink:href="#DejaVuSans-32" x="63.623047"/>
       <use xlink:href="#DejaVuSans-30" x="127.246094"/>
       <use xlink:href="#DejaVuSans-30" x="190.869141"/>
      </g>
     </g>
    </g>
    <g id="ytick_6">
     <g id="line2d_31">
      <path d="M 108 157.074903 
L 777.6 157.074903 
" clip-path="url(#pc6d118cc67)" style="fill: none; stroke-dasharray: 5.12,1.28,0.8,1.28; stroke-dashoffset: 0; stroke: #b0b0b0; stroke-width: 0.8"/>
     </g>
     <g id="line2d_32">
      <g>
       <use xlink:href="#mc130ed55de" x="108" y="157.074903" style="fill: #a9a9a9; stroke: #a9a9a9; stroke-width: 0.8"/>
      </g>
     </g>
     <g id="text_16">
      <!-- 4000 -->
      <g style="fill: #a9a9a9" transform="translate(75.55 160.874122) scale(0.1 -0.1)">
       <use xlink:href="#DejaVuSans-34"/>
       <use xlink:href="#DejaVuSans-30" x="63.623047"/>
       <use xlink:href="#DejaVuSans-30" x="127.246094"/>
       <use xlink:href="#DejaVuSans-30" x="190.869141"/>
      </g>
     </g>
    </g>
    <g id="ytick_7">
     <g id="line2d_33">
      <path d="M 108 126.922345 
L 777.6 126.922345 
" clip-path="url(#pc6d118cc67)" style="fill: none; stroke-dasharray: 5.12,1.28,0.8,1.28; stroke-dashoffset: 0; stroke: #b0b0b0; stroke-width: 0.8"/>
     </g>
     <g id="line2d_34">
      <g>
       <use xlink:href="#mc130ed55de" x="108" y="126.922345" style="fill: #a9a9a9; stroke: #a9a9a9; stroke-width: 0.8"/>
      </g>
     </g>
     <g id="text_17">
      <!-- 4800 -->
      <g style="fill: #a9a9a9" transform="translate(75.55 130.721564) scale(0.1 -0.1)">
       <use xlink:href="#DejaVuSans-34"/>
       <use xlink:href="#DejaVuSans-38" x="63.623047"/>
       <use xlink:href="#DejaVuSans-30" x="127.246094"/>
       <use xlink:href="#DejaVuSans-30" x="190.869141"/>
      </g>
     </g>
    </g>
    <g id="ytick_8">
     <g id="line2d_35">
      <path d="M 108 96.769788 
L 777.6 96.769788 
" clip-path="url(#pc6d118cc67)" style="fill: none; stroke-dasharray: 5.12,1.28,0.8,1.28; stroke-dashoffset: 0; stroke: #b0b0b0; stroke-width: 0.8"/>
     </g>
     <g id="line2d_36">
      <g>
       <use xlink:href="#mc130ed55de" x="108" y="96.769788" style="fill: #a9a9a9; stroke: #a9a9a9; stroke-width: 0.8"/>
      </g>
     </g>
     <g id="text_18">
      <!-- 5600 -->
      <g style="fill: #a9a9a9" transform="translate(75.55 100.569006) scale(0.1 -0.1)">
       <use xlink:href="#DejaVuSans-35"/>
       <use xlink:href="#DejaVuSans-36" x="63.623047"/>
       <use xlink:href="#DejaVuSans-30" x="127.246094"/>
       <use xlink:href="#DejaVuSans-30" x="190.869141"/>
      </g>
     </g>
    </g>
    <g id="ytick_9">
     <g id="line2d_37">
      <path d="M 108 66.61723 
L 777.6 66.61723 
" clip-path="url(#pc6d118cc67)" style="fill: none; stroke-dasharray: 5.12,1.28,0.8,1.28; stroke-dashoffset: 0; stroke: #b0b0b0; stroke-width: 0.8"/>
     </g>
     <g id="line2d_38">
      <g>
       <use xlink:href="#mc130ed55de" x="108" y="66.61723" style="fill: #a9a9a9; stroke: #a9a9a9; stroke-width: 0.8"/>
      </g>
     </g>
     <g id="text_19">
      <!-- 6400 -->
      <g style="fill: #a9a9a9" transform="translate(75.55 70.416449) scale(0.1 -0.1)">
       <use xlink:href="#DejaVuSans-36"/>
       <use xlink:href="#DejaVuSans-34" x="63.623047"/>
       <use xlink:href="#DejaVuSans-30" x="127.246094"/>
       <use xlink:href="#DejaVuSans-30" x="190.869141"/>
      </g>
     </g>
    </g>
   </g>
   <g id="line2d_39">
    <path d="M 138.436364 307.724619 
L 141.606818 307.460784 
L 142.135227 307.23464 
L 143.720455 307.083877 
L 147.419318 306.405444 
L 150.061364 306.1793 
L 151.118182 305.764702 
L 151.646591 305.08627 
L 152.175 304.709363 
L 152.703409 303.540951 
L 153.231818 303.46557 
L 153.760227 303.050972 
L 154.817045 302.523302 
L 156.930682 300.864912 
L 159.044318 299.847263 
L 160.629545 299.13114 
L 161.157955 298.301944 
L 162.214773 297.54813 
L 162.743182 297.321986 
L 168.027273 296.568172 
L 168.555682 296.342028 
L 172.254545 296.040503 
L 174.368182 295.550523 
L 178.595455 294.985163 
L 179.123864 294.683637 
L 179.652273 294.608256 
L 180.709091 294.26904 
L 184.407955 293.665989 
L 185.464773 293.364463 
L 187.05 293.2137 
L 188.106818 293.100628 
L 190.748864 292.422196 
L 191.805682 292.346814 
L 192.8625 292.196051 
L 193.919318 291.969907 
L 194.447727 291.819144 
L 194.976136 291.103021 
L 196.561364 290.49997 
L 198.146591 290.085372 
L 198.675 289.821538 
L 199.203409 289.783847 
L 201.845455 289.030033 
L 202.902273 288.954652 
L 203.430682 288.87927 
L 205.015909 288.389291 
L 207.129545 287.861621 
L 207.657955 287.635477 
L 208.186364 287.560096 
L 208.714773 287.296261 
L 213.998864 286.504756 
L 216.640909 285.750942 
L 217.169318 285.411726 
L 219.811364 284.54484 
L 220.868182 283.828717 
L 222.453409 283.527191 
L 232.493182 280.625007 
L 233.55 280.21041 
L 234.606818 280.135028 
L 236.192045 279.68274 
L 236.720455 279.68274 
L 237.248864 279.456596 
L 238.305682 279.343524 
L 238.834091 279.15507 
L 239.890909 279.11738 
L 242.004545 278.853545 
L 243.061364 278.325875 
L 249.402273 275.499073 
L 249.930682 274.933712 
L 250.9875 273.350703 
L 251.515909 273.19994 
L 252.044318 273.19994 
L 253.101136 272.408436 
L 254.686364 271.880766 
L 255.214773 271.390787 
L 256.271591 270.976189 
L 257.328409 270.48621 
L 258.385227 268.978582 
L 258.913636 268.639366 
L 259.442045 267.734789 
L 259.970455 267.169429 
L 263.140909 265.511038 
L 264.197727 264.681843 
L 264.726136 264.342626 
L 265.254545 263.551122 
L 265.782955 262.38271 
L 266.311364 261.591206 
L 266.839773 261.176608 
L 267.368182 260.950464 
L 269.481818 259.14131 
L 270.538636 258.274424 
L 271.067045 257.822136 
L 271.595455 257.106013 
L 272.652273 256.163745 
L 274.765909 254.769189 
L 275.294318 254.316901 
L 276.351136 253.977685 
L 277.936364 253.073108 
L 279.521591 252.055459 
L 281.635227 250.170924 
L 282.692045 249.756327 
L 283.748864 249.040203 
L 284.277273 248.738678 
L 284.805682 248.663296 
L 288.504545 246.364164 
L 290.618182 245.233443 
L 291.146591 244.743464 
L 299.601136 241.80359 
L 300.657955 240.861322 
L 301.714773 240.371343 
L 302.771591 239.805983 
L 303.3 239.504457 
L 304.356818 239.202931 
L 304.885227 238.863715 
L 305.413636 238.712952 
L 306.998864 237.695304 
L 309.640909 237.092252 
L 311.226136 236.187676 
L 311.754545 236.112294 
L 312.811364 235.848459 
L 313.339773 235.697697 
L 314.925 234.491594 
L 317.038636 233.926234 
L 317.567045 233.511636 
L 320.7375 232.456297 
L 321.265909 232.418606 
L 322.851136 231.853246 
L 326.55 230.534071 
L 327.606818 230.383308 
L 329.192045 229.855639 
L 331.834091 228.611846 
L 333.947727 227.481125 
L 338.175 225.785043 
L 338.703409 225.709662 
L 339.760227 225.06892 
L 340.288636 224.993539 
L 342.402273 224.126653 
L 344.515909 223.825127 
L 345.572727 223.297457 
L 346.101136 222.845169 
L 346.629545 221.902902 
L 348.743182 221.337541 
L 350.328409 220.546036 
L 350.856818 220.432964 
L 355.084091 218.435357 
L 356.669318 218.096141 
L 357.726136 217.568471 
L 358.254545 217.342327 
L 358.782955 217.266946 
L 360.896591 216.324678 
L 362.481818 215.34472 
L 363.010227 215.269339 
L 363.538636 215.080885 
L 364.067045 215.043195 
L 366.709091 214.402453 
L 367.2375 213.987855 
L 368.822727 213.422495 
L 370.936364 212.593299 
L 371.464773 212.216392 
L 371.993182 212.027939 
L 373.05 211.462579 
L 375.692045 210.595692 
L 377.277273 209.351899 
L 377.805682 209.238827 
L 378.8625 208.409632 
L 379.390909 208.334251 
L 379.919318 207.505055 
L 380.447727 207.278911 
L 380.976136 206.864313 
L 381.504545 206.788932 
L 382.561364 206.14819 
L 383.618182 205.808974 
L 384.146591 205.394376 
L 384.675 205.205923 
L 386.260227 204.112893 
L 388.373864 203.019862 
L 388.902273 202.944481 
L 390.4875 202.152976 
L 391.015909 201.28609 
L 391.544318 200.833802 
L 392.072727 200.532276 
L 392.601136 200.419204 
L 393.657955 199.740772 
L 394.186364 199.6277 
L 395.243182 199.10003 
L 396.828409 198.421597 
L 397.885227 197.667783 
L 399.470455 196.235537 
L 400.527273 195.632486 
L 401.055682 195.067125 
L 403.169318 193.634879 
L 403.697727 193.031828 
L 404.226136 192.61723 
L 405.282955 192.240323 
L 406.339773 191.5242 
L 407.925 190.732695 
L 408.453409 190.657314 
L 410.038636 189.828118 
L 411.095455 189.187377 
L 416.379545 187.302842 
L 416.907955 186.888244 
L 419.021591 186.096739 
L 419.55 185.945977 
L 420.078409 185.531379 
L 422.720455 184.099133 
L 423.777273 182.026144 
L 424.834091 180.820042 
L 425.890909 180.1793 
L 427.476136 179.538558 
L 428.004545 179.463177 
L 428.532955 179.161651 
L 431.175 178.332456 
L 431.703409 178.106312 
L 432.760227 177.390188 
L 434.345455 176.711756 
L 435.402273 176.146395 
L 435.930682 175.769488 
L 436.459091 175.543344 
L 436.9875 175.166437 
L 437.515909 174.601077 
L 438.572727 174.035716 
L 441.214773 172.641161 
L 444.385227 171.095842 
L 445.442045 170.756626 
L 447.027273 170.266647 
L 449.140909 169.324379 
L 450.197727 168.909782 
L 450.726136 168.495184 
L 451.782955 168.155968 
L 454.953409 166.535268 
L 456.010227 165.706072 
L 457.067045 165.329165 
L 457.595455 164.876877 
L 458.123864 164.801496 
L 459.180682 164.009991 
L 460.2375 163.482321 
L 460.765909 163.256177 
L 461.294318 162.728507 
L 464.993182 161.296261 
L 466.05 160.843972 
L 467.635227 160.353993 
L 468.692045 160.203231 
L 469.220455 159.977086 
L 469.748864 159.901705 
L 470.805682 159.449417 
L 471.334091 159.411726 
L 473.447727 158.620221 
L 475.032955 157.527191 
L 477.675 156.283398 
L 480.317045 154.851152 
L 480.845455 154.73808 
L 482.430682 153.833503 
L 484.015909 153.305833 
L 485.072727 152.966617 
L 487.186364 152.288184 
L 488.243182 151.948968 
L 489.828409 151.685133 
L 491.942045 151.006701 
L 492.470455 150.780556 
L 492.998864 150.705175 
L 493.527273 150.44134 
L 494.584091 150.252887 
L 496.169318 149.687526 
L 497.226136 149.574454 
L 498.811364 149.235238 
L 499.868182 149.046784 
L 500.925 148.858331 
L 501.981818 148.632187 
L 505.152273 147.840682 
L 505.680682 147.539156 
L 508.322727 146.898415 
L 509.379545 146.559198 
L 515.192045 144.863117 
L 515.720455 144.335447 
L 516.777273 143.92085 
L 519.947727 142.790129 
L 520.476136 142.450912 
L 521.004545 142.33784 
L 521.532955 142.036315 
L 523.118182 141.584026 
L 524.175 141.320191 
L 524.703409 140.980975 
L 525.231818 140.867903 
L 525.760227 140.415615 
L 527.345455 140.114089 
L 528.402273 139.62411 
L 528.930682 139.021059 
L 531.044318 138.53108 
L 534.743182 137.777266 
L 535.271591 137.777266 
L 535.8 137.551122 
L 537.913636 137.174215 
L 538.442045 136.948071 
L 540.555682 136.571164 
L 541.6125 136.118875 
L 542.140909 136.081185 
L 551.123864 133.405145 
L 551.652273 133.179001 
L 552.180682 132.802094 
L 553.2375 132.500568 
L 554.294318 132.161352 
L 555.351136 131.746754 
L 556.936364 131.068322 
L 558.521591 130.95525 
L 560.635227 130.352199 
L 561.163636 130.012982 
L 562.220455 129.711457 
L 564.8625 128.543045 
L 565.390909 128.505354 
L 571.203409 126.507748 
L 573.845455 125.829315 
L 574.902273 125.339336 
L 575.959091 125.113192 
L 576.4875 125.00012 
L 577.015909 124.585522 
L 577.544318 124.321687 
L 578.072727 123.680945 
L 578.601136 123.304038 
L 579.657955 123.002513 
L 580.186364 122.587915 
L 582.828409 121.494885 
L 583.356818 121.381813 
L 583.885227 121.042596 
L 584.942045 120.741071 
L 585.470455 120.401855 
L 588.1125 119.534969 
L 589.697727 118.630392 
L 590.226136 118.51732 
L 591.282955 117.914269 
L 591.811364 117.688124 
L 592.868182 117.047383 
L 594.453409 116.293569 
L 594.981818 115.916662 
L 596.038636 115.577445 
L 597.095455 114.974394 
L 597.623864 114.785941 
L 598.152273 114.409034 
L 605.021591 112.03452 
L 605.55 111.921448 
L 606.078409 111.582232 
L 606.606818 111.50685 
L 607.663636 111.243015 
L 608.720455 111.016871 
L 612.419318 109.207718 
L 612.947727 109.132336 
L 614.532955 108.26545 
L 617.703409 107.021657 
L 619.817045 106.192462 
L 620.345455 106.041699 
L 620.873864 105.702483 
L 621.930682 105.55172 
L 622.459091 105.212504 
L 622.9875 105.174813 
L 624.044318 104.835597 
L 625.101136 104.307927 
L 625.629545 104.232546 
L 628.271591 103.177206 
L 629.856818 102.724918 
L 630.913636 102.461083 
L 632.498864 102.008794 
L 633.555682 101.594197 
L 635.669318 100.463476 
L 636.726136 100.048878 
L 637.254545 99.709662 
L 638.311364 99.483518 
L 638.839773 99.181992 
L 639.368182 99.06892 
L 640.953409 98.239725 
L 642.010227 97.825127 
L 643.595455 97.109004 
L 645.180682 96.694406 
L 648.351136 95.450613 
L 649.936364 94.922943 
L 657.8625 91.530781 
L 658.390909 91.455399 
L 660.504545 90.626204 
L 662.089773 89.759318 
L 662.618182 89.646246 
L 663.675 89.231648 
L 664.203409 89.231648 
L 665.260227 88.77936 
L 666.317045 87.837092 
L 666.845455 87.384804 
L 668.430682 86.63099 
L 668.959091 86.517918 
L 669.4875 86.254083 
L 670.015909 86.178702 
L 670.544318 85.801795 
L 671.072727 85.688723 
L 672.129545 85.047981 
L 673.714773 84.256476 
L 674.771591 83.841879 
L 675.3 83.578044 
L 677.942045 82.937302 
L 678.470455 82.673467 
L 680.055682 82.221179 
L 682.169318 81.20353 
L 683.226136 80.713551 
L 684.282955 80.449716 
L 687.981818 78.715944 
L 690.623864 77.773676 
L 692.209091 76.831409 
L 692.7375 76.718337 
L 693.794318 76.190667 
L 694.851136 75.81376 
L 695.379545 75.361472 
L 695.907955 75.059946 
L 697.493182 74.569967 
L 698.55 73.853844 
L 699.078409 73.816153 
L 700.135227 73.514628 
L 701.192045 73.175411 
L 701.720455 72.911576 
L 702.248864 72.836195 
L 703.834091 72.270835 
L 705.419318 71.705474 
L 706.476136 71.290876 
L 707.004545 70.876279 
L 708.589773 70.461681 
L 709.118182 70.160156 
L 710.175 69.896321 
L 711.760227 69.029435 
L 712.288636 68.991744 
L 713.873864 68.501765 
L 714.930682 68.388693 
L 715.9875 67.974095 
L 719.157955 67.069518 
L 720.214773 67.031828 
L 723.385227 66.014179 
L 723.913636 65.938797 
L 725.498864 65.109602 
L 726.027273 64.657314 
L 727.084091 64.054263 
L 728.669318 63.036614 
L 731.839773 61.943584 
L 732.368182 61.528986 
L 733.953409 60.812863 
L 734.481818 60.699791 
L 735.538636 60.209812 
L 737.123864 59.795214 
L 738.709091 59.116781 
L 739.765909 58.626802 
L 741.351136 57.98606 
L 741.879545 57.872988 
L 743.464773 57.119174 
L 743.993182 56.968412 
L 745.05 56.252288 
L 746.635227 55.8 
L 747.163636 55.8 
L 747.163636 55.8 
" clip-path="url(#pc6d118cc67)" style="fill: none; stroke: #1f77b4; stroke-width: 1.5; stroke-linecap: square"/>
   </g>
   <g id="line2d_40">
    <path d="M 138.964773 307.8 
L 140.55 307.724619 
L 142.135227 307.686928 
L 145.305682 307.611547 
L 147.947727 307.498474 
L 150.061364 307.498474 
L 150.589773 307.347712 
L 152.703409 307.27233 
L 154.288636 307.083877 
L 155.873864 306.933114 
L 159.044318 306.782351 
L 159.572727 306.782351 
L 160.629545 306.669279 
L 163.8 306.518516 
L 167.498864 306.443135 
L 170.140909 306.330063 
L 176.481818 306.254681 
L 179.123864 306.141609 
L 182.294318 306.066228 
L 184.407955 305.990847 
L 189.163636 305.915465 
L 190.748864 305.877774 
L 192.334091 305.840084 
L 193.919318 305.65163 
L 197.089773 305.61394 
L 198.146591 305.538558 
L 202.373864 305.463177 
L 207.657955 305.161651 
L 211.356818 305.08627 
L 212.413636 305.010888 
L 213.998864 304.935507 
L 217.169318 304.784744 
L 219.282955 304.747054 
L 220.868182 304.596291 
L 227.7375 304.181693 
L 230.379545 304.106312 
L 235.135227 303.842477 
L 236.720455 303.767095 
L 242.004545 303.46557 
L 247.817045 303.390188 
L 249.930682 303.164044 
L 250.9875 303.088663 
L 257.856818 302.523302 
L 261.027273 302.108705 
L 263.140909 302.033323 
L 267.368182 301.467963 
L 270.538636 301.392582 
L 272.123864 301.241819 
L 273.180682 301.204128 
L 274.2375 301.091056 
L 275.822727 301.015675 
L 277.407955 300.78953 
L 277.936364 300.78953 
L 279.521591 300.563386 
L 281.635227 300.488005 
L 282.692045 300.412623 
L 284.805682 300.337242 
L 285.8625 300.261861 
L 288.504545 299.998026 
L 289.561364 299.809572 
L 291.146591 299.771882 
L 292.203409 299.6965 
L 294.845455 299.621119 
L 301.714773 299.206521 
L 303.3 299.13114 
L 310.169318 298.716542 
L 313.868182 298.641161 
L 314.925 298.528089 
L 318.623864 298.452707 
L 322.322727 298.264254 
L 328.135227 298.188872 
L 331.834091 298.000419 
L 336.061364 297.925037 
L 340.288636 297.698893 
L 343.9875 297.623512 
L 354.027273 296.98277 
L 359.311364 296.907389 
L 361.425 296.681244 
L 363.010227 296.643554 
L 364.595455 296.605863 
L 366.709091 296.379719 
L 371.993182 296.078193 
L 375.163636 296.002812 
L 376.748864 295.965121 
L 378.334091 295.92743 
L 379.919318 295.776668 
L 384.146591 295.701286 
L 385.203409 295.550523 
L 386.260227 295.475142 
L 388.902273 295.36207 
L 389.959091 295.286689 
L 391.015909 295.211307 
L 395.771591 295.135926 
L 396.828409 295.022854 
L 398.942045 294.985163 
L 399.998864 294.872091 
L 401.584091 294.683637 
L 402.640909 294.608256 
L 407.396591 294.344421 
L 408.453409 294.30673 
L 410.038636 294.155968 
L 411.623864 294.118277 
L 413.209091 294.042896 
L 415.851136 293.929824 
L 423.248864 293.854442 
L 426.947727 293.665989 
L 431.175 293.590607 
L 433.288636 293.515226 
L 435.402273 293.477535 
L 436.459091 293.364463 
L 438.572727 293.289082 
L 443.856818 292.987556 
L 447.027273 292.949865 
L 448.6125 292.799103 
L 450.197727 292.761412 
L 453.896591 292.686031 
L 456.010227 292.610649 
L 462.351136 292.535268 
L 464.993182 292.422196 
L 468.163636 292.346814 
L 469.748864 292.158361 
L 472.919318 292.12067 
L 474.504545 291.969907 
L 476.618182 291.894526 
L 482.959091 291.819144 
L 485.601136 291.706072 
L 494.584091 291.668382 
L 495.640909 291.593 
L 497.226136 291.55531 
L 504.095455 291.479928 
L 505.152273 291.404547 
L 510.964773 291.329165 
L 513.078409 291.253784 
L 523.118182 291.178403 
L 524.703409 291.140712 
L 529.459091 291.065331 
L 530.515909 290.989949 
L 543.197727 290.914568 
L 544.782955 290.876877 
L 559.05 290.801496 
L 560.635227 290.763805 
L 570.146591 290.688424 
L 571.203409 290.613042 
L 573.845455 290.537661 
L 575.430682 290.386898 
L 578.072727 290.311517 
L 581.243182 290.160754 
L 585.470455 290.085372 
L 586.527273 290.009991 
L 590.754545 289.93461 
L 593.925 289.783847 
L 596.567045 289.708465 
L 600.794318 289.482321 
L 603.964773 289.40694 
L 606.078409 289.331558 
L 612.947727 289.256177 
L 615.061364 289.180796 
L 619.288636 289.105414 
L 622.9875 288.916961 
L 627.743182 288.841579 
L 628.8 288.766198 
L 638.311364 288.690817 
L 639.896591 288.653126 
L 642.538636 288.615435 
L 644.652273 288.389291 
L 646.2375 288.3516 
L 649.407955 288.276219 
L 654.692045 287.974693 
L 657.334091 287.899312 
L 659.447727 287.823931 
L 665.260227 287.748549 
L 667.902273 287.447024 
L 670.015909 287.371642 
L 673.714773 287.296261 
L 674.771591 287.183189 
L 678.998864 287.107807 
L 681.640909 286.994735 
L 688.510227 286.957045 
L 689.567045 286.843972 
L 693.265909 286.768591 
L 694.851136 286.7309 
L 697.493182 286.655519 
L 699.078409 286.617828 
L 708.061364 286.542447 
L 710.703409 286.429375 
L 718.101136 286.353993 
L 720.214773 286.278612 
L 726.027273 286.203231 
L 727.084091 286.090159 
L 731.839773 286.052468 
L 732.896591 285.977086 
L 735.538636 285.901705 
L 737.123864 285.864014 
L 743.993182 285.788633 
L 745.578409 285.750942 
L 747.163636 285.675561 
L 747.163636 285.675561 
" clip-path="url(#pc6d118cc67)" style="fill: none; stroke: #ff7f0e; stroke-width: 1.5; stroke-linecap: square"/>
   </g>
   <g id="patch_3">
    <path d="M 108 320.4 
L 108 43.2 
" style="fill: none; stroke: #a9a9a9; stroke-width: 0.8; stroke-linejoin: miter; stroke-linecap: square"/>
   </g>
   <g id="patch_4">
    <path d="M 777.6 320.4 
L 777.6 43.2 
" style="fill: none"/>
   </g>
   <g id="patch_5">
    <path d="M 108 320.4 
L 777.6 320.4 
" style="fill: none; stroke: #a9a9a9; stroke-width: 0.8; stroke-linejoin: miter; stroke-linecap: square"/>
   </g>
   <g id="patch_6">
    <path d="M 108 43.2 
L 777.6 43.2 
" style="fill: none"/>
   </g>
   <g id="text_20">
    <!-- get_subscribe history -->
    <g style="fill: #a9a9a9" transform="translate(378.6075 37.2) scale(0.12 -0.12)">
     <defs>
      <path id="DejaVuSans-67" d="M 2906 1791 
Q 2906 2416 2648 2759 
Q 2391 3103 1925 3103 
Q 1463 3103 1205 2759 
Q 947 2416 947 1791 
Q 947 1169 1205 825 
Q 1463 481 1925 481 
Q 2391 481 2648 825 
Q 2906 1169 2906 1791 
z
M 3481 434 
Q 3481 -459 3084 -895 
Q 2688 -1331 1869 -1331 
Q 1566 -1331 1297 -1286 
Q 1028 -1241 775 -1147 
L 775 -588 
Q 1028 -725 1275 -790 
Q 1522 -856 1778 -856 
Q 2344 -856 2625 -561 
Q 2906 -266 2906 331 
L 2906 616 
Q 2728 306 2450 153 
Q 2172 0 1784 0 
Q 1141 0 747 490 
Q 353 981 353 1791 
Q 353 2603 747 3093 
Q 1141 3584 1784 3584 
Q 2172 3584 2450 3431 
Q 2728 3278 2906 2969 
L 2906 3500 
L 3481 3500 
L 3481 434 
z
" transform="scale(0.015625)"/>
      <path id="DejaVuSans-65" d="M 3597 1894 
L 3597 1613 
L 953 1613 
Q 991 1019 1311 708 
Q 1631 397 2203 397 
Q 2534 397 2845 478 
Q 3156 559 3463 722 
L 3463 178 
Q 3153 47 2828 -22 
Q 2503 -91 2169 -91 
Q 1331 -91 842 396 
Q 353 884 353 1716 
Q 353 2575 817 3079 
Q 1281 3584 2069 3584 
Q 2775 3584 3186 3129 
Q 3597 2675 3597 1894 
z
M 3022 2063 
Q 3016 2534 2758 2815 
Q 2500 3097 2075 3097 
Q 1594 3097 1305 2825 
Q 1016 2553 972 2059 
L 3022 2063 
z
" transform="scale(0.015625)"/>
      <path id="DejaVuSans-74" d="M 1172 4494 
L 1172 3500 
L 2356 3500 
L 2356 3053 
L 1172 3053 
L 1172 1153 
Q 1172 725 1289 603 
Q 1406 481 1766 481 
L 2356 481 
L 2356 0 
L 1766 0 
Q 1100 0 847 248 
Q 594 497 594 1153 
L 594 3053 
L 172 3053 
L 172 3500 
L 594 3500 
L 594 4494 
L 1172 4494 
z
" transform="scale(0.015625)"/>
      <path id="DejaVuSans-5f" d="M 3263 -1063 
L 3263 -1509 
L -63 -1509 
L -63 -1063 
L 3263 -1063 
z
" transform="scale(0.015625)"/>
      <path id="DejaVuSans-73" d="M 2834 3397 
L 2834 2853 
Q 2591 2978 2328 3040 
Q 2066 3103 1784 3103 
Q 1356 3103 1142 2972 
Q 928 2841 928 2578 
Q 928 2378 1081 2264 
Q 1234 2150 1697 2047 
L 1894 2003 
Q 2506 1872 2764 1633 
Q 3022 1394 3022 966 
Q 3022 478 2636 193 
Q 2250 -91 1575 -91 
Q 1294 -91 989 -36 
Q 684 19 347 128 
L 347 722 
Q 666 556 975 473 
Q 1284 391 1588 391 
Q 1994 391 2212 530 
Q 2431 669 2431 922 
Q 2431 1156 2273 1281 
Q 2116 1406 1581 1522 
L 1381 1569 
Q 847 1681 609 1914 
Q 372 2147 372 2553 
Q 372 3047 722 3315 
Q 1072 3584 1716 3584 
Q 2034 3584 2315 3537 
Q 2597 3491 2834 3397 
z
" transform="scale(0.015625)"/>
      <path id="DejaVuSans-75" d="M 544 1381 
L 544 3500 
L 1119 3500 
L 1119 1403 
Q 1119 906 1312 657 
Q 1506 409 1894 409 
Q 2359 409 2629 706 
Q 2900 1003 2900 1516 
L 2900 3500 
L 3475 3500 
L 3475 0 
L 2900 0 
L 2900 538 
Q 2691 219 2414 64 
Q 2138 -91 1772 -91 
Q 1169 -91 856 284 
Q 544 659 544 1381 
z
M 1991 3584 
L 1991 3584 
z
" transform="scale(0.015625)"/>
      <path id="DejaVuSans-62" d="M 3116 1747 
Q 3116 2381 2855 2742 
Q 2594 3103 2138 3103 
Q 1681 3103 1420 2742 
Q 1159 2381 1159 1747 
Q 1159 1113 1420 752 
Q 1681 391 2138 391 
Q 2594 391 2855 752 
Q 3116 1113 3116 1747 
z
M 1159 2969 
Q 1341 3281 1617 3432 
Q 1894 3584 2278 3584 
Q 2916 3584 3314 3078 
Q 3713 2572 3713 1747 
Q 3713 922 3314 415 
Q 2916 -91 2278 -91 
Q 1894 -91 1617 61 
Q 1341 213 1159 525 
L 1159 0 
L 581 0 
L 581 4863 
L 1159 4863 
L 1159 2969 
z
" transform="scale(0.015625)"/>
      <path id="DejaVuSans-63" d="M 3122 3366 
L 3122 2828 
Q 2878 2963 2633 3030 
Q 2388 3097 2138 3097 
Q 1578 3097 1268 2742 
Q 959 2388 959 1747 
Q 959 1106 1268 751 
Q 1578 397 2138 397 
Q 2388 397 2633 464 
Q 2878 531 3122 666 
L 3122 134 
Q 2881 22 2623 -34 
Q 2366 -91 2075 -91 
Q 1284 -91 818 406 
Q 353 903 353 1747 
Q 353 2603 823 3093 
Q 1294 3584 2113 3584 
Q 2378 3584 2631 3529 
Q 2884 3475 3122 3366 
z
" transform="scale(0.015625)"/>
      <path id="DejaVuSans-72" d="M 2631 2963 
Q 2534 3019 2420 3045 
Q 2306 3072 2169 3072 
Q 1681 3072 1420 2755 
Q 1159 2438 1159 1844 
L 1159 0 
L 581 0 
L 581 3500 
L 1159 3500 
L 1159 2956 
Q 1341 3275 1631 3429 
Q 1922 3584 2338 3584 
Q 2397 3584 2469 3576 
Q 2541 3569 2628 3553 
L 2631 2963 
z
" transform="scale(0.015625)"/>
      <path id="DejaVuSans-69" d="M 603 3500 
L 1178 3500 
L 1178 0 
L 603 0 
L 603 3500 
z
M 603 4863 
L 1178 4863 
L 1178 4134 
L 603 4134 
L 603 4863 
z
" transform="scale(0.015625)"/>
      <path id="DejaVuSans-20" transform="scale(0.015625)"/>
      <path id="DejaVuSans-68" d="M 3513 2113 
L 3513 0 
L 2938 0 
L 2938 2094 
Q 2938 2591 2744 2837 
Q 2550 3084 2163 3084 
Q 1697 3084 1428 2787 
Q 1159 2491 1159 1978 
L 1159 0 
L 581 0 
L 581 4863 
L 1159 4863 
L 1159 2956 
Q 1366 3272 1645 3428 
Q 1925 3584 2291 3584 
Q 2894 3584 3203 3211 
Q 3513 2838 3513 2113 
z
" transform="scale(0.015625)"/>
      <path id="DejaVuSans-6f" d="M 1959 3097 
Q 1497 3097 1228 2736 
Q 959 2375 959 1747 
Q 959 1119 1226 758 
Q 1494 397 1959 397 
Q 2419 397 2687 759 
Q 2956 1122 2956 1747 
Q 2956 2369 2687 2733 
Q 2419 3097 1959 3097 
z
M 1959 3584 
Q 2709 3584 3137 3096 
Q 3566 2609 3566 1747 
Q 3566 888 3137 398 
Q 2709 -91 1959 -91 
Q 1206 -91 779 398 
Q 353 888 353 1747 
Q 353 2609 779 3096 
Q 1206 3584 1959 3584 
z
" transform="scale(0.015625)"/>
      <path id="DejaVuSans-79" d="M 2059 -325 
Q 1816 -950 1584 -1140 
Q 1353 -1331 966 -1331 
L 506 -1331 
L 506 -850 
L 844 -850 
Q 1081 -850 1212 -737 
Q 1344 -625 1503 -206 
L 1606 56 
L 191 3500 
L 800 3500 
L 1894 763 
L 2988 3500 
L 3597 3500 
L 2059 -325 
z
" transform="scale(0.015625)"/>
     </defs>
     <use xlink:href="#DejaVuSans-67"/>
     <use xlink:href="#DejaVuSans-65" x="63.476562"/>
     <use xlink:href="#DejaVuSans-74" x="125"/>
     <use xlink:href="#DejaVuSans-5f" x="164.208984"/>
     <use xlink:href="#DejaVuSans-73" x="214.208984"/>
     <use xlink:href="#DejaVuSans-75" x="266.308594"/>
     <use xlink:href="#DejaVuSans-62" x="329.6875"/>
     <use xlink:href="#DejaVuSans-73" x="393.164062"/>
     <use xlink:href="#DejaVuSans-63" x="445.263672"/>
     <use xlink:href="#DejaVuSans-72" x="500.244141"/>
     <use xlink:href="#DejaVuSans-69" x="541.357422"/>
     <use xlink:href="#DejaVuSans-62" x="569.140625"/>
     <use xlink:href="#DejaVuSans-65" x="632.617188"/>
     <use xlink:href="#DejaVuSans-20" x="694.140625"/>
     <use xlink:href="#DejaVuSans-68" x="725.927734"/>
     <use xlink:href="#DejaVuSans-69" x="789.306641"/>
     <use xlink:href="#DejaVuSans-73" x="817.089844"/>
     <use xlink:href="#DejaVuSans-74" x="869.189453"/>
     <use xlink:href="#DejaVuSans-6f" x="908.398438"/>
     <use xlink:href="#DejaVuSans-72" x="969.580078"/>
     <use xlink:href="#DejaVuSans-79" x="1010.693359"/>
    </g>
   </g>
   <g id="legend_1">
    <g id="line2d_41">
     <path d="M 815.08 328.498438 
L 825.08 328.498438 
L 835.08 328.498438 
" style="fill: none; stroke: #1f77b4; stroke-width: 1.5; stroke-linecap: square"/>
    </g>
    <g id="text_21">
     <!-- star -->
     <g style="fill: #a9a9a9" transform="translate(843.08 331.998438) scale(0.1 -0.1)">
      <defs>
       <path id="DejaVuSans-61" d="M 2194 1759 
Q 1497 1759 1228 1600 
Q 959 1441 959 1056 
Q 959 750 1161 570 
Q 1363 391 1709 391 
Q 2188 391 2477 730 
Q 2766 1069 2766 1631 
L 2766 1759 
L 2194 1759 
z
M 3341 1997 
L 3341 0 
L 2766 0 
L 2766 531 
Q 2569 213 2275 61 
Q 1981 -91 1556 -91 
Q 1019 -91 701 211 
Q 384 513 384 1019 
Q 384 1609 779 1909 
Q 1175 2209 1959 2209 
L 2766 2209 
L 2766 2266 
Q 2766 2663 2505 2880 
Q 2244 3097 1772 3097 
Q 1472 3097 1187 3025 
Q 903 2953 641 2809 
L 641 3341 
Q 956 3463 1253 3523 
Q 1550 3584 1831 3584 
Q 2591 3584 2966 3190 
Q 3341 2797 3341 1997 
z
" transform="scale(0.015625)"/>
      </defs>
      <use xlink:href="#DejaVuSans-73"/>
      <use xlink:href="#DejaVuSans-74" x="52.099609"/>
      <use xlink:href="#DejaVuSans-61" x="91.308594"/>
      <use xlink:href="#DejaVuSans-72" x="152.587891"/>
     </g>
    </g>
    <g id="line2d_42">
     <path d="M 815.08 343.176562 
L 825.08 343.176562 
L 835.08 343.176562 
" style="fill: none; stroke: #ff7f0e; stroke-width: 1.5; stroke-linecap: square"/>
    </g>
    <g id="text_22">
     <!-- fork -->
     <g style="fill: #a9a9a9" transform="translate(843.08 346.676562) scale(0.1 -0.1)">
      <defs>
       <path id="DejaVuSans-66" d="M 2375 4863 
L 2375 4384 
L 1825 4384 
Q 1516 4384 1395 4259 
Q 1275 4134 1275 3809 
L 1275 3500 
L 2222 3500 
L 2222 3053 
L 1275 3053 
L 1275 0 
L 697 0 
L 697 3053 
L 147 3053 
L 147 3500 
L 697 3500 
L 697 3744 
Q 697 4328 969 4595 
Q 1241 4863 1831 4863 
L 2375 4863 
z
" transform="scale(0.015625)"/>
       <path id="DejaVuSans-6b" d="M 581 4863 
L 1159 4863 
L 1159 1991 
L 2875 3500 
L 3609 3500 
L 1753 1863 
L 3688 0 
L 2938 0 
L 1159 1709 
L 1159 0 
L 581 0 
L 581 4863 
z
" transform="scale(0.015625)"/>
      </defs>
      <use xlink:href="#DejaVuSans-66"/>
      <use xlink:href="#DejaVuSans-6f" x="35.205078"/>
      <use xlink:href="#DejaVuSans-72" x="96.386719"/>
      <use xlink:href="#DejaVuSans-6b" x="137.5"/>
     </g>
    </g>
   </g>
  </g>
 </g>
 <defs>
  <clipPath id="pc6d118cc67">
   <rect x="108" y="43.2" width="669.6" height="277.2"/>
  </clipPath>
 </defs>
</svg>
