<?xml version="1.0" encoding="utf-8" standalone="no"?>
<!DOCTYPE svg PUBLIC "-//W3C//DTD SVG 1.1//EN"
  "http://www.w3.org/Graphics/SVG/1.1/DTD/svg11.dtd">
<svg xmlns:xlink="http://www.w3.org/1999/xlink" width="864pt" height="360pt" viewBox="0 0 864 360" xmlns="http://www.w3.org/2000/svg" version="1.1">
 <metadata>
  <rdf:RDF xmlns:dc="http://purl.org/dc/elements/1.1/" xmlns:cc="http://creativecommons.org/ns#" xmlns:rdf="http://www.w3.org/1999/02/22-rdf-syntax-ns#">
   <cc:Work>
    <dc:type rdf:resource="http://purl.org/dc/dcmitype/StillImage"/>
    <dc:date>2025-02-19T08:14:28.911535</dc:date>
    <dc:format>image/svg+xml</dc:format>
    <dc:creator>
     <cc:Agent>
      <dc:title>Matplotlib v3.10.0, https://matplotlib.org/</dc:title>
     </cc:Agent>
    </dc:creator>
   </cc:Work>
  </rdf:RDF>
 </metadata>
 <defs>
  <style type="text/css">*{stroke-linejoin: round; stroke-linecap: butt}</style>
 </defs>
 <g id="figure_1">
  <g id="patch_1">
   <path d="M 0 360 
L 864 360 
L 864 0 
L 0 0 
L 0 360 
z
" style="fill: none; opacity: 0"/>
  </g>
  <g id="axes_1">
   <g id="patch_2">
    <path d="M 108 320.4 
L 777.6 320.4 
L 777.6 43.2 
L 108 43.2 
L 108 320.4 
z
" style="fill: none; opacity: 0"/>
   </g>
   <g id="matplotlib.axis_1">
    <g id="xtick_1">
     <g id="line2d_1">
      <path d="M 127.716052 320.4 
L 127.716052 43.2 
" clip-path="url(#pc9d8e9c875)" style="fill: none; stroke-dasharray: 5.12,1.28,0.8,1.28; stroke-dashoffset: 0; stroke: #b0b0b0; stroke-width: 0.8"/>
     </g>
     <g id="line2d_2">
      <defs>
       <path id="m320906d5da" d="M 0 0 
L 0 3.5 
" style="stroke: #a9a9a9; stroke-width: 0.8"/>
      </defs>
      <g>
       <use xlink:href="#m320906d5da" x="127.716052" y="320.4" style="fill: #a9a9a9; stroke: #a9a9a9; stroke-width: 0.8"/>
      </g>
     </g>
     <g id="text_1">
      <!-- 2021-07 -->
      <g style="fill: #a9a9a9" transform="translate(106.824646 334.998438) scale(0.1 -0.1)">
       <defs>
        <path id="DejaVuSans-32" d="M 1228 531 
L 3431 531 
L 3431 0 
L 469 0 
L 469 531 
Q 828 903 1448 1529 
Q 2069 2156 2228 2338 
Q 2531 2678 2651 2914 
Q 2772 3150 2772 3378 
Q 2772 3750 2511 3984 
Q 2250 4219 1831 4219 
Q 1534 4219 1204 4116 
Q 875 4013 500 3803 
L 500 4441 
Q 881 4594 1212 4672 
Q 1544 4750 1819 4750 
Q 2544 4750 2975 4387 
Q 3406 4025 3406 3419 
Q 3406 3131 3298 2873 
Q 3191 2616 2906 2266 
Q 2828 2175 2409 1742 
Q 1991 1309 1228 531 
z
" transform="scale(0.015625)"/>
        <path id="DejaVuSans-30" d="M 2034 4250 
Q 1547 4250 1301 3770 
Q 1056 3291 1056 2328 
Q 1056 1369 1301 889 
Q 1547 409 2034 409 
Q 2525 409 2770 889 
Q 3016 1369 3016 2328 
Q 3016 3291 2770 3770 
Q 2525 4250 2034 4250 
z
M 2034 4750 
Q 2819 4750 3233 4129 
Q 3647 3509 3647 2328 
Q 3647 1150 3233 529 
Q 2819 -91 2034 -91 
Q 1250 -91 836 529 
Q 422 1150 422 2328 
Q 422 3509 836 4129 
Q 1250 4750 2034 4750 
z
" transform="scale(0.015625)"/>
        <path id="DejaVuSans-31" d="M 794 531 
L 1825 531 
L 1825 4091 
L 703 3866 
L 703 4441 
L 1819 4666 
L 2450 4666 
L 2450 531 
L 3481 531 
L 3481 0 
L 794 0 
L 794 531 
z
" transform="scale(0.015625)"/>
        <path id="DejaVuSans-2d" d="M 313 2009 
L 1997 2009 
L 1997 1497 
L 313 1497 
L 313 2009 
z
" transform="scale(0.015625)"/>
        <path id="DejaVuSans-37" d="M 525 4666 
L 3525 4666 
L 3525 4397 
L 1831 0 
L 1172 0 
L 2766 4134 
L 525 4134 
L 525 4666 
z
" transform="scale(0.015625)"/>
       </defs>
       <use xlink:href="#DejaVuSans-32"/>
       <use xlink:href="#DejaVuSans-30" transform="translate(63.623047 0)"/>
       <use xlink:href="#DejaVuSans-32" transform="translate(127.246094 0)"/>
       <use xlink:href="#DejaVuSans-31" transform="translate(190.869141 0)"/>
       <use xlink:href="#DejaVuSans-2d" transform="translate(254.492188 0)"/>
       <use xlink:href="#DejaVuSans-30" transform="translate(290.576172 0)"/>
       <use xlink:href="#DejaVuSans-37" transform="translate(354.199219 0)"/>
      </g>
     </g>
    </g>
    <g id="xtick_2">
     <g id="line2d_3">
      <path d="M 213.478547 320.4 
L 213.478547 43.2 
" clip-path="url(#pc9d8e9c875)" style="fill: none; stroke-dasharray: 5.12,1.28,0.8,1.28; stroke-dashoffset: 0; stroke: #b0b0b0; stroke-width: 0.8"/>
     </g>
     <g id="line2d_4">
      <g>
       <use xlink:href="#m320906d5da" x="213.478547" y="320.4" style="fill: #a9a9a9; stroke: #a9a9a9; stroke-width: 0.8"/>
      </g>
     </g>
     <g id="text_2">
      <!-- 2022-01 -->
      <g style="fill: #a9a9a9" transform="translate(192.58714 334.998438) scale(0.1 -0.1)">
       <use xlink:href="#DejaVuSans-32"/>
       <use xlink:href="#DejaVuSans-30" transform="translate(63.623047 0)"/>
       <use xlink:href="#DejaVuSans-32" transform="translate(127.246094 0)"/>
       <use xlink:href="#DejaVuSans-32" transform="translate(190.869141 0)"/>
       <use xlink:href="#DejaVuSans-2d" transform="translate(254.492188 0)"/>
       <use xlink:href="#DejaVuSans-30" transform="translate(290.576172 0)"/>
       <use xlink:href="#DejaVuSans-31" transform="translate(354.199219 0)"/>
      </g>
     </g>
    </g>
    <g id="xtick_3">
     <g id="line2d_5">
      <path d="M 297.84274 320.4 
L 297.84274 43.2 
" clip-path="url(#pc9d8e9c875)" style="fill: none; stroke-dasharray: 5.12,1.28,0.8,1.28; stroke-dashoffset: 0; stroke: #b0b0b0; stroke-width: 0.8"/>
     </g>
     <g id="line2d_6">
      <g>
       <use xlink:href="#m320906d5da" x="297.84274" y="320.4" style="fill: #a9a9a9; stroke: #a9a9a9; stroke-width: 0.8"/>
      </g>
     </g>
     <g id="text_3">
      <!-- 2022-07 -->
      <g style="fill: #a9a9a9" transform="translate(276.951334 334.998438) scale(0.1 -0.1)">
       <use xlink:href="#DejaVuSans-32"/>
       <use xlink:href="#DejaVuSans-30" transform="translate(63.623047 0)"/>
       <use xlink:href="#DejaVuSans-32" transform="translate(127.246094 0)"/>
       <use xlink:href="#DejaVuSans-32" transform="translate(190.869141 0)"/>
       <use xlink:href="#DejaVuSans-2d" transform="translate(254.492188 0)"/>
       <use xlink:href="#DejaVuSans-30" transform="translate(290.576172 0)"/>
       <use xlink:href="#DejaVuSans-37" transform="translate(354.199219 0)"/>
      </g>
     </g>
    </g>
    <g id="xtick_4">
     <g id="line2d_7">
      <path d="M 383.605235 320.4 
L 383.605235 43.2 
" clip-path="url(#pc9d8e9c875)" style="fill: none; stroke-dasharray: 5.12,1.28,0.8,1.28; stroke-dashoffset: 0; stroke: #b0b0b0; stroke-width: 0.8"/>
     </g>
     <g id="line2d_8">
      <g>
       <use xlink:href="#m320906d5da" x="383.605235" y="320.4" style="fill: #a9a9a9; stroke: #a9a9a9; stroke-width: 0.8"/>
      </g>
     </g>
     <g id="text_4">
      <!-- 2023-01 -->
      <g style="fill: #a9a9a9" transform="translate(362.713828 334.998438) scale(0.1 -0.1)">
       <defs>
        <path id="DejaVuSans-33" d="M 2597 2516 
Q 3050 2419 3304 2112 
Q 3559 1806 3559 1356 
Q 3559 666 3084 287 
Q 2609 -91 1734 -91 
Q 1441 -91 1130 -33 
Q 819 25 488 141 
L 488 750 
Q 750 597 1062 519 
Q 1375 441 1716 441 
Q 2309 441 2620 675 
Q 2931 909 2931 1356 
Q 2931 1769 2642 2001 
Q 2353 2234 1838 2234 
L 1294 2234 
L 1294 2753 
L 1863 2753 
Q 2328 2753 2575 2939 
Q 2822 3125 2822 3475 
Q 2822 3834 2567 4026 
Q 2313 4219 1838 4219 
Q 1578 4219 1281 4162 
Q 984 4106 628 3988 
L 628 4550 
Q 988 4650 1302 4700 
Q 1616 4750 1894 4750 
Q 2613 4750 3031 4423 
Q 3450 4097 3450 3541 
Q 3450 3153 3228 2886 
Q 3006 2619 2597 2516 
z
" transform="scale(0.015625)"/>
       </defs>
       <use xlink:href="#DejaVuSans-32"/>
       <use xlink:href="#DejaVuSans-30" transform="translate(63.623047 0)"/>
       <use xlink:href="#DejaVuSans-32" transform="translate(127.246094 0)"/>
       <use xlink:href="#DejaVuSans-33" transform="translate(190.869141 0)"/>
       <use xlink:href="#DejaVuSans-2d" transform="translate(254.492188 0)"/>
       <use xlink:href="#DejaVuSans-30" transform="translate(290.576172 0)"/>
       <use xlink:href="#DejaVuSans-31" transform="translate(354.199219 0)"/>
      </g>
     </g>
    </g>
    <g id="xtick_5">
     <g id="line2d_9">
      <path d="M 467.969428 320.4 
L 467.969428 43.2 
" clip-path="url(#pc9d8e9c875)" style="fill: none; stroke-dasharray: 5.12,1.28,0.8,1.28; stroke-dashoffset: 0; stroke: #b0b0b0; stroke-width: 0.8"/>
     </g>
     <g id="line2d_10">
      <g>
       <use xlink:href="#m320906d5da" x="467.969428" y="320.4" style="fill: #a9a9a9; stroke: #a9a9a9; stroke-width: 0.8"/>
      </g>
     </g>
     <g id="text_5">
      <!-- 2023-07 -->
      <g style="fill: #a9a9a9" transform="translate(447.078022 334.998438) scale(0.1 -0.1)">
       <use xlink:href="#DejaVuSans-32"/>
       <use xlink:href="#DejaVuSans-30" transform="translate(63.623047 0)"/>
       <use xlink:href="#DejaVuSans-32" transform="translate(127.246094 0)"/>
       <use xlink:href="#DejaVuSans-33" transform="translate(190.869141 0)"/>
       <use xlink:href="#DejaVuSans-2d" transform="translate(254.492188 0)"/>
       <use xlink:href="#DejaVuSans-30" transform="translate(290.576172 0)"/>
       <use xlink:href="#DejaVuSans-37" transform="translate(354.199219 0)"/>
      </g>
     </g>
    </g>
    <g id="xtick_6">
     <g id="line2d_11">
      <path d="M 553.731923 320.4 
L 553.731923 43.2 
" clip-path="url(#pc9d8e9c875)" style="fill: none; stroke-dasharray: 5.12,1.28,0.8,1.28; stroke-dashoffset: 0; stroke: #b0b0b0; stroke-width: 0.8"/>
     </g>
     <g id="line2d_12">
      <g>
       <use xlink:href="#m320906d5da" x="553.731923" y="320.4" style="fill: #a9a9a9; stroke: #a9a9a9; stroke-width: 0.8"/>
      </g>
     </g>
     <g id="text_6">
      <!-- 2024-01 -->
      <g style="fill: #a9a9a9" transform="translate(532.840516 334.998438) scale(0.1 -0.1)">
       <defs>
        <path id="DejaVuSans-34" d="M 2419 4116 
L 825 1625 
L 2419 1625 
L 2419 4116 
z
M 2253 4666 
L 3047 4666 
L 3047 1625 
L 3713 1625 
L 3713 1100 
L 3047 1100 
L 3047 0 
L 2419 0 
L 2419 1100 
L 313 1100 
L 313 1709 
L 2253 4666 
z
" transform="scale(0.015625)"/>
       </defs>
       <use xlink:href="#DejaVuSans-32"/>
       <use xlink:href="#DejaVuSans-30" transform="translate(63.623047 0)"/>
       <use xlink:href="#DejaVuSans-32" transform="translate(127.246094 0)"/>
       <use xlink:href="#DejaVuSans-34" transform="translate(190.869141 0)"/>
       <use xlink:href="#DejaVuSans-2d" transform="translate(254.492188 0)"/>
       <use xlink:href="#DejaVuSans-30" transform="translate(290.576172 0)"/>
       <use xlink:href="#DejaVuSans-31" transform="translate(354.199219 0)"/>
      </g>
     </g>
    </g>
    <g id="xtick_7">
     <g id="line2d_13">
      <path d="M 638.562216 320.4 
L 638.562216 43.2 
" clip-path="url(#pc9d8e9c875)" style="fill: none; stroke-dasharray: 5.12,1.28,0.8,1.28; stroke-dashoffset: 0; stroke: #b0b0b0; stroke-width: 0.8"/>
     </g>
     <g id="line2d_14">
      <g>
       <use xlink:href="#m320906d5da" x="638.562216" y="320.4" style="fill: #a9a9a9; stroke: #a9a9a9; stroke-width: 0.8"/>
      </g>
     </g>
     <g id="text_7">
      <!-- 2024-07 -->
      <g style="fill: #a9a9a9" transform="translate(617.67081 334.998438) scale(0.1 -0.1)">
       <use xlink:href="#DejaVuSans-32"/>
       <use xlink:href="#DejaVuSans-30" transform="translate(63.623047 0)"/>
       <use xlink:href="#DejaVuSans-32" transform="translate(127.246094 0)"/>
       <use xlink:href="#DejaVuSans-34" transform="translate(190.869141 0)"/>
       <use xlink:href="#DejaVuSans-2d" transform="translate(254.492188 0)"/>
       <use xlink:href="#DejaVuSans-30" transform="translate(290.576172 0)"/>
       <use xlink:href="#DejaVuSans-37" transform="translate(354.199219 0)"/>
      </g>
     </g>
    </g>
    <g id="xtick_8">
     <g id="line2d_15">
      <path d="M 724.324711 320.4 
L 724.324711 43.2 
" clip-path="url(#pc9d8e9c875)" style="fill: none; stroke-dasharray: 5.12,1.28,0.8,1.28; stroke-dashoffset: 0; stroke: #b0b0b0; stroke-width: 0.8"/>
     </g>
     <g id="line2d_16">
      <g>
       <use xlink:href="#m320906d5da" x="724.324711" y="320.4" style="fill: #a9a9a9; stroke: #a9a9a9; stroke-width: 0.8"/>
      </g>
     </g>
     <g id="text_8">
      <!-- 2025-01 -->
      <g style="fill: #a9a9a9" transform="translate(703.433305 334.998438) scale(0.1 -0.1)">
       <defs>
        <path id="DejaVuSans-35" d="M 691 4666 
L 3169 4666 
L 3169 4134 
L 1269 4134 
L 1269 2991 
Q 1406 3038 1543 3061 
Q 1681 3084 1819 3084 
Q 2600 3084 3056 2656 
Q 3513 2228 3513 1497 
Q 3513 744 3044 326 
Q 2575 -91 1722 -91 
Q 1428 -91 1123 -41 
Q 819 9 494 109 
L 494 744 
Q 775 591 1075 516 
Q 1375 441 1709 441 
Q 2250 441 2565 725 
Q 2881 1009 2881 1497 
Q 2881 1984 2565 2268 
Q 2250 2553 1709 2553 
Q 1456 2553 1204 2497 
Q 953 2441 691 2322 
L 691 4666 
z
" transform="scale(0.015625)"/>
       </defs>
       <use xlink:href="#DejaVuSans-32"/>
       <use xlink:href="#DejaVuSans-30" transform="translate(63.623047 0)"/>
       <use xlink:href="#DejaVuSans-32" transform="translate(127.246094 0)"/>
       <use xlink:href="#DejaVuSans-35" transform="translate(190.869141 0)"/>
       <use xlink:href="#DejaVuSans-2d" transform="translate(254.492188 0)"/>
       <use xlink:href="#DejaVuSans-30" transform="translate(290.576172 0)"/>
       <use xlink:href="#DejaVuSans-31" transform="translate(354.199219 0)"/>
      </g>
     </g>
    </g>
   </g>
   <g id="matplotlib.axis_2">
    <g id="ytick_1">
     <g id="line2d_17">
      <path d="M 108 307.834407 
L 777.6 307.834407 
" clip-path="url(#pc9d8e9c875)" style="fill: none; stroke-dasharray: 5.12,1.28,0.8,1.28; stroke-dashoffset: 0; stroke: #b0b0b0; stroke-width: 0.8"/>
     </g>
     <g id="line2d_18">
      <defs>
       <path id="ma4552e661b" d="M 0 0 
L -3.5 0 
" style="stroke: #a9a9a9; stroke-width: 0.8"/>
      </defs>
      <g>
       <use xlink:href="#ma4552e661b" x="108" y="307.834407" style="fill: #a9a9a9; stroke: #a9a9a9; stroke-width: 0.8"/>
      </g>
     </g>
     <g id="text_9">
      <!-- 0 -->
      <g style="fill: #a9a9a9" transform="translate(94.6375 311.633626) scale(0.1 -0.1)">
       <use xlink:href="#DejaVuSans-30"/>
      </g>
     </g>
    </g>
    <g id="ytick_2">
     <g id="line2d_19">
      <path d="M 108 273.42698 
L 777.6 273.42698 
" clip-path="url(#pc9d8e9c875)" style="fill: none; stroke-dasharray: 5.12,1.28,0.8,1.28; stroke-dashoffset: 0; stroke: #b0b0b0; stroke-width: 0.8"/>
     </g>
     <g id="line2d_20">
      <g>
       <use xlink:href="#ma4552e661b" x="108" y="273.42698" style="fill: #a9a9a9; stroke: #a9a9a9; stroke-width: 0.8"/>
      </g>
     </g>
     <g id="text_10">
      <!-- 1000 -->
      <g style="fill: #a9a9a9" transform="translate(75.55 277.226199) scale(0.1 -0.1)">
       <use xlink:href="#DejaVuSans-31"/>
       <use xlink:href="#DejaVuSans-30" transform="translate(63.623047 0)"/>
       <use xlink:href="#DejaVuSans-30" transform="translate(127.246094 0)"/>
       <use xlink:href="#DejaVuSans-30" transform="translate(190.869141 0)"/>
      </g>
     </g>
    </g>
    <g id="ytick_3">
     <g id="line2d_21">
      <path d="M 108 239.019552 
L 777.6 239.019552 
" clip-path="url(#pc9d8e9c875)" style="fill: none; stroke-dasharray: 5.12,1.28,0.8,1.28; stroke-dashoffset: 0; stroke: #b0b0b0; stroke-width: 0.8"/>
     </g>
     <g id="line2d_22">
      <g>
       <use xlink:href="#ma4552e661b" x="108" y="239.019552" style="fill: #a9a9a9; stroke: #a9a9a9; stroke-width: 0.8"/>
      </g>
     </g>
     <g id="text_11">
      <!-- 2000 -->
      <g style="fill: #a9a9a9" transform="translate(75.55 242.818771) scale(0.1 -0.1)">
       <use xlink:href="#DejaVuSans-32"/>
       <use xlink:href="#DejaVuSans-30" transform="translate(63.623047 0)"/>
       <use xlink:href="#DejaVuSans-30" transform="translate(127.246094 0)"/>
       <use xlink:href="#DejaVuSans-30" transform="translate(190.869141 0)"/>
      </g>
     </g>
    </g>
    <g id="ytick_4">
     <g id="line2d_23">
      <path d="M 108 204.612125 
L 777.6 204.612125 
" clip-path="url(#pc9d8e9c875)" style="fill: none; stroke-dasharray: 5.12,1.28,0.8,1.28; stroke-dashoffset: 0; stroke: #b0b0b0; stroke-width: 0.8"/>
     </g>
     <g id="line2d_24">
      <g>
       <use xlink:href="#ma4552e661b" x="108" y="204.612125" style="fill: #a9a9a9; stroke: #a9a9a9; stroke-width: 0.8"/>
      </g>
     </g>
     <g id="text_12">
      <!-- 3000 -->
      <g style="fill: #a9a9a9" transform="translate(75.55 208.411343) scale(0.1 -0.1)">
       <use xlink:href="#DejaVuSans-33"/>
       <use xlink:href="#DejaVuSans-30" transform="translate(63.623047 0)"/>
       <use xlink:href="#DejaVuSans-30" transform="translate(127.246094 0)"/>
       <use xlink:href="#DejaVuSans-30" transform="translate(190.869141 0)"/>
      </g>
     </g>
    </g>
    <g id="ytick_5">
     <g id="line2d_25">
      <path d="M 108 170.204697 
L 777.6 170.204697 
" clip-path="url(#pc9d8e9c875)" style="fill: none; stroke-dasharray: 5.12,1.28,0.8,1.28; stroke-dashoffset: 0; stroke: #b0b0b0; stroke-width: 0.8"/>
     </g>
     <g id="line2d_26">
      <g>
       <use xlink:href="#ma4552e661b" x="108" y="170.204697" style="fill: #a9a9a9; stroke: #a9a9a9; stroke-width: 0.8"/>
      </g>
     </g>
     <g id="text_13">
      <!-- 4000 -->
      <g style="fill: #a9a9a9" transform="translate(75.55 174.003916) scale(0.1 -0.1)">
       <use xlink:href="#DejaVuSans-34"/>
       <use xlink:href="#DejaVuSans-30" transform="translate(63.623047 0)"/>
       <use xlink:href="#DejaVuSans-30" transform="translate(127.246094 0)"/>
       <use xlink:href="#DejaVuSans-30" transform="translate(190.869141 0)"/>
      </g>
     </g>
    </g>
    <g id="ytick_6">
     <g id="line2d_27">
      <path d="M 108 135.797269 
L 777.6 135.797269 
" clip-path="url(#pc9d8e9c875)" style="fill: none; stroke-dasharray: 5.12,1.28,0.8,1.28; stroke-dashoffset: 0; stroke: #b0b0b0; stroke-width: 0.8"/>
     </g>
     <g id="line2d_28">
      <g>
       <use xlink:href="#ma4552e661b" x="108" y="135.797269" style="fill: #a9a9a9; stroke: #a9a9a9; stroke-width: 0.8"/>
      </g>
     </g>
     <g id="text_14">
      <!-- 5000 -->
      <g style="fill: #a9a9a9" transform="translate(75.55 139.596488) scale(0.1 -0.1)">
       <use xlink:href="#DejaVuSans-35"/>
       <use xlink:href="#DejaVuSans-30" transform="translate(63.623047 0)"/>
       <use xlink:href="#DejaVuSans-30" transform="translate(127.246094 0)"/>
       <use xlink:href="#DejaVuSans-30" transform="translate(190.869141 0)"/>
      </g>
     </g>
    </g>
    <g id="ytick_7">
     <g id="line2d_29">
      <path d="M 108 101.389842 
L 777.6 101.389842 
" clip-path="url(#pc9d8e9c875)" style="fill: none; stroke-dasharray: 5.12,1.28,0.8,1.28; stroke-dashoffset: 0; stroke: #b0b0b0; stroke-width: 0.8"/>
     </g>
     <g id="line2d_30">
      <g>
       <use xlink:href="#ma4552e661b" x="108" y="101.389842" style="fill: #a9a9a9; stroke: #a9a9a9; stroke-width: 0.8"/>
      </g>
     </g>
     <g id="text_15">
      <!-- 6000 -->
      <g style="fill: #a9a9a9" transform="translate(75.55 105.18906) scale(0.1 -0.1)">
       <defs>
        <path id="DejaVuSans-36" d="M 2113 2584 
Q 1688 2584 1439 2293 
Q 1191 2003 1191 1497 
Q 1191 994 1439 701 
Q 1688 409 2113 409 
Q 2538 409 2786 701 
Q 3034 994 3034 1497 
Q 3034 2003 2786 2293 
Q 2538 2584 2113 2584 
z
M 3366 4563 
L 3366 3988 
Q 3128 4100 2886 4159 
Q 2644 4219 2406 4219 
Q 1781 4219 1451 3797 
Q 1122 3375 1075 2522 
Q 1259 2794 1537 2939 
Q 1816 3084 2150 3084 
Q 2853 3084 3261 2657 
Q 3669 2231 3669 1497 
Q 3669 778 3244 343 
Q 2819 -91 2113 -91 
Q 1303 -91 875 529 
Q 447 1150 447 2328 
Q 447 3434 972 4092 
Q 1497 4750 2381 4750 
Q 2619 4750 2861 4703 
Q 3103 4656 3366 4563 
z
" transform="scale(0.015625)"/>
       </defs>
       <use xlink:href="#DejaVuSans-36"/>
       <use xlink:href="#DejaVuSans-30" transform="translate(63.623047 0)"/>
       <use xlink:href="#DejaVuSans-30" transform="translate(127.246094 0)"/>
       <use xlink:href="#DejaVuSans-30" transform="translate(190.869141 0)"/>
      </g>
     </g>
    </g>
    <g id="ytick_8">
     <g id="line2d_31">
      <path d="M 108 66.982414 
L 777.6 66.982414 
" clip-path="url(#pc9d8e9c875)" style="fill: none; stroke-dasharray: 5.12,1.28,0.8,1.28; stroke-dashoffset: 0; stroke: #b0b0b0; stroke-width: 0.8"/>
     </g>
     <g id="line2d_32">
      <g>
       <use xlink:href="#ma4552e661b" x="108" y="66.982414" style="fill: #a9a9a9; stroke: #a9a9a9; stroke-width: 0.8"/>
      </g>
     </g>
     <g id="text_16">
      <!-- 7000 -->
      <g style="fill: #a9a9a9" transform="translate(75.55 70.781633) scale(0.1 -0.1)">
       <use xlink:href="#DejaVuSans-37"/>
       <use xlink:href="#DejaVuSans-30" transform="translate(63.623047 0)"/>
       <use xlink:href="#DejaVuSans-30" transform="translate(127.246094 0)"/>
       <use xlink:href="#DejaVuSans-30" transform="translate(190.869141 0)"/>
      </g>
     </g>
    </g>
   </g>
   <g id="line2d_33">
    <path d="M 138.436364 307.731185 
L 141.232967 307.490333 
L 141.699067 307.283889 
L 143.563469 307.043037 
L 145.427871 306.664555 
L 146.360072 306.526925 
L 148.690575 306.320481 
L 149.622776 305.941999 
L 150.088877 305.322665 
L 150.554977 305.012998 
L 151.021078 303.946368 
L 151.487178 303.877553 
L 151.953279 303.499072 
L 152.88548 303.017368 
L 154.749882 301.503441 
L 156.614284 300.57444 
L 158.012585 299.920699 
L 158.478686 299.163736 
L 159.410887 298.475587 
L 159.876987 298.269143 
L 164.537992 297.580994 
L 165.004093 297.374549 
L 168.266797 297.09929 
L 170.131199 296.651993 
L 173.860003 296.135882 
L 174.326103 295.89503 
L 174.792204 295.826215 
L 175.724405 295.516548 
L 178.987108 294.966029 
L 179.919309 294.69077 
L 184.114214 293.968214 
L 185.046415 293.76177 
L 185.978616 293.727362 
L 187.843018 293.280066 
L 188.309119 292.626324 
L 189.70742 292.075806 
L 191.105722 291.697324 
L 191.571822 291.456472 
L 192.504023 291.284435 
L 194.368425 290.733916 
L 195.300626 290.665101 
L 196.232828 290.424249 
L 198.09723 289.942545 
L 198.56333 289.908138 
L 199.495531 289.460841 
L 199.961632 289.392026 
L 200.427732 289.151174 
L 205.554838 288.290989 
L 207.41924 287.74047 
L 207.88534 287.430803 
L 210.215843 286.639432 
L 211.148044 285.985691 
L 212.546346 285.710431 
L 224.664959 282.235281 
L 225.131059 282.235281 
L 225.59716 282.028837 
L 226.529361 281.925614 
L 226.995462 281.753577 
L 228.859864 281.684762 
L 229.792065 281.512725 
L 230.724266 281.031021 
L 232.122567 280.51491 
L 232.588668 280.205243 
L 233.520869 279.792354 
L 233.986969 279.551502 
L 234.91917 279.241835 
L 235.385271 279.104205 
L 236.317472 278.519279 
L 236.783572 278.003168 
L 237.715773 276.558056 
L 238.181874 276.420426 
L 238.647974 276.420426 
L 240.046276 275.594648 
L 240.512376 275.353796 
L 240.978477 275.250573 
L 241.444577 274.803277 
L 242.376779 274.424795 
L 243.30898 273.977499 
L 245.639482 270.984052 
L 248.436085 269.470126 
L 249.368286 268.713162 
L 249.834387 268.403495 
L 250.300487 267.749754 
L 250.766588 266.683124 
L 251.232688 265.960568 
L 251.698789 265.582086 
L 252.164889 265.375642 
L 255.893693 261.934899 
L 256.825894 261.074713 
L 259.622498 259.319934 
L 260.088598 259.147897 
L 261.4869 258.322119 
L 262.885201 257.393119 
L 264.749603 255.707155 
L 265.681804 255.328673 
L 266.614005 254.674932 
L 267.080106 254.399672 
L 267.546206 254.330857 
L 268.944508 253.539487 
L 269.410608 253.023375 
L 271.741111 251.7503 
L 272.207211 251.578263 
L 273.605513 250.614855 
L 280.597021 248.13752 
L 281.529222 247.277335 
L 282.927523 246.589186 
L 283.859724 246.00426 
L 284.791925 245.729001 
L 285.258026 245.419334 
L 285.724126 245.281704 
L 287.122428 244.352703 
L 289.452931 243.802185 
L 290.851232 242.976406 
L 292.249534 242.666739 
L 292.715634 242.52911 
L 294.113936 241.46248 
L 295.978338 240.946368 
L 296.444438 240.567886 
L 299.241041 239.604478 
L 300.173242 239.432441 
L 301.105443 239.05396 
L 304.368147 237.8497 
L 305.300348 237.71207 
L 306.69865 237.230366 
L 309.029152 236.094921 
L 310.893554 235.062698 
L 314.622358 233.514364 
L 315.088459 233.445549 
L 316.02066 232.860623 
L 316.48676 232.791808 
L 318.351162 232.034844 
L 320.215565 231.793992 
L 321.147766 231.312288 
L 321.613866 230.899399 
L 322.079967 230.039214 
L 323.944369 229.523102 
L 325.34267 228.800546 
L 326.274871 228.490879 
L 327.207072 228.009175 
L 330.003675 226.87373 
L 330.935876 226.667286 
L 331.868077 226.185582 
L 332.334178 225.979137 
L 332.800278 225.910322 
L 334.66468 225.050137 
L 336.062982 224.155543 
L 337.461284 223.880284 
L 339.325686 223.364173 
L 339.791786 223.329765 
L 340.257887 222.951283 
L 341.190088 222.641617 
L 343.52059 221.712616 
L 343.986691 221.368542 
L 344.452791 221.196505 
L 345.384992 220.680393 
L 347.249394 220.095467 
L 347.715495 219.854615 
L 349.113796 218.71917 
L 349.579897 218.615948 
L 350.512098 217.858984 
L 350.978199 217.790169 
L 351.444299 217.033206 
L 351.9104 216.826761 
L 352.3765 216.44828 
L 352.842601 216.379465 
L 353.774802 215.794539 
L 354.707003 215.484872 
L 355.173103 215.140797 
L 355.639204 214.96876 
L 357.503606 213.730093 
L 358.901907 213.007537 
L 359.834108 212.766685 
L 360.766309 212.250573 
L 361.23241 211.459203 
L 362.164611 210.771054 
L 362.630711 210.667832 
L 365.427314 209.325942 
L 366.359516 208.94746 
L 367.757817 207.777608 
L 368.690018 206.986237 
L 369.622219 206.435718 
L 370.08832 205.919607 
L 370.55442 205.60994 
L 371.486621 204.852977 
L 371.952722 204.646532 
L 372.418822 204.096013 
L 372.884923 203.717531 
L 373.817124 203.373457 
L 374.749325 202.754123 
L 376.147626 202.031567 
L 376.613727 201.962753 
L 378.012028 201.205789 
L 378.944229 200.620863 
L 383.605235 198.900492 
L 384.071335 198.52201 
L 385.935737 197.799454 
L 386.401838 197.661824 
L 387.334039 197.04249 
L 388.26624 196.629601 
L 389.198441 195.97586 
L 390.130642 194.117859 
L 391.062843 193.016821 
L 392.461144 192.294265 
L 393.393345 191.915784 
L 393.859446 191.846969 
L 394.325546 191.571709 
L 396.656049 190.814746 
L 397.12215 190.608301 
L 398.054351 189.95456 
L 399.452652 189.335227 
L 400.384853 188.819115 
L 403.181456 186.892299 
L 405.511959 185.619224 
L 408.308562 184.20852 
L 409.706863 183.795631 
L 411.105165 183.245112 
L 411.571265 182.901038 
L 412.503467 182.625778 
L 413.435668 182.247297 
L 413.901768 181.868815 
L 415.76617 181.215074 
L 416.698371 180.526925 
L 417.630572 180.148443 
L 418.562773 179.425887 
L 419.494974 179.150628 
L 419.961075 178.737739 
L 420.427175 178.668924 
L 421.359376 177.946368 
L 422.291577 177.464664 
L 422.757678 177.25822 
L 423.223778 176.776516 
L 426.486482 175.469033 
L 427.418683 175.056144 
L 428.816985 174.608848 
L 429.749186 174.471218 
L 430.215286 174.264773 
L 430.681387 174.195958 
L 431.613588 173.783069 
L 432.079688 173.748662 
L 433.94409 173.060513 
L 435.342392 172.062698 
L 435.808492 171.890661 
L 436.740693 171.374549 
L 437.206794 171.23692 
L 440.003397 169.654178 
L 440.469497 169.550956 
L 441.867799 168.725177 
L 443.266101 168.243474 
L 444.198302 167.933807 
L 446.062704 167.314473 
L 446.994905 167.004806 
L 448.859307 166.626324 
L 449.325407 166.41988 
L 449.791508 166.351065 
L 450.723709 165.938176 
L 451.189809 165.869361 
L 451.65591 165.628509 
L 452.588111 165.456472 
L 453.986412 164.94036 
L 454.918613 164.837138 
L 456.316915 164.527471 
L 458.647418 164.114582 
L 470.766031 160.53621 
L 471.232131 160.054506 
L 472.164332 159.676024 
L 475.893137 158.265319 
L 476.359237 157.99006 
L 477.757539 157.577171 
L 478.68974 157.336319 
L 479.15584 157.026652 
L 479.621941 156.92343 
L 480.088041 156.510541 
L 481.486343 156.235281 
L 482.418544 155.787985 
L 482.884644 155.237466 
L 484.749046 154.790169 
L 488.01175 154.102021 
L 488.47785 154.102021 
L 488.943951 153.895576 
L 490.808353 153.551502 
L 491.274454 153.345057 
L 493.138856 153.000983 
L 494.071057 152.588094 
L 495.003258 152.416057 
L 497.33376 151.831131 
L 499.198162 151.246204 
L 499.664263 151.142982 
L 500.130363 150.90213 
L 501.062564 150.661278 
L 501.994765 150.282796 
L 502.926966 149.938722 
L 503.393067 149.629055 
L 504.325268 149.353796 
L 508.054072 148.046313 
L 508.986273 147.977499 
L 510.850675 147.42698 
L 511.316776 147.15172 
L 512.248977 146.876461 
L 514.579479 145.809831 
L 515.04558 145.775423 
L 520.172686 143.95183 
L 522.503188 143.332496 
L 523.435389 142.885199 
L 524.833691 142.575532 
L 526.698093 141.061606 
L 527.630294 140.786346 
L 528.096394 140.407865 
L 530.892997 139.341234 
L 531.359098 139.031567 
L 532.291299 138.756308 
L 532.757399 138.446641 
L 535.087902 137.689678 
L 536.486204 136.8639 
L 536.952304 136.760677 
L 539.282807 135.487602 
L 540.681108 134.868269 
L 541.147209 134.524194 
L 542.07941 134.214528 
L 543.011611 133.664009 
L 543.477711 133.491972 
L 543.943812 133.147897 
L 550.003118 131.014637 
L 550.469219 130.911415 
L 550.93532 130.601748 
L 552.799722 130.223266 
L 553.731923 129.844784 
L 556.528526 128.502895 
L 556.994626 128.43408 
L 558.392928 127.642709 
L 559.791229 127.161005 
L 563.053933 125.819115 
L 563.520033 125.681486 
L 563.986134 125.371819 
L 564.918335 125.268596 
L 565.384435 124.95893 
L 566.316637 124.786892 
L 567.248838 124.339596 
L 567.714938 124.133151 
L 568.181039 124.064336 
L 569.11324 123.75467 
L 572.375943 122.619224 
L 573.774245 122.309558 
L 575.172546 121.759039 
L 577.036948 120.726816 
L 577.969149 120.348334 
L 578.43525 120.038667 
L 579.367451 119.832223 
L 579.833551 119.556963 
L 580.299652 119.453741 
L 581.697954 118.66237 
L 582.630155 118.283889 
L 584.494557 117.561333 
L 586.825059 116.769962 
L 587.75726 116.288258 
L 590.087763 115.496887 
L 592.884366 114.361442 
L 594.748768 113.501256 
L 599.409773 111.677662 
L 599.875874 111.367996 
L 601.740276 110.748662 
L 602.206376 110.748662 
L 603.138577 110.335773 
L 605.002979 108.821846 
L 605.46908 108.684216 
L 605.93518 108.408957 
L 606.401281 108.305735 
L 606.867381 108.064883 
L 607.333482 107.996068 
L 607.799582 107.651993 
L 608.265683 107.548771 
L 609.197884 106.963845 
L 610.596185 106.241289 
L 611.528386 105.862807 
L 611.994487 105.621955 
L 613.392789 105.312288 
L 615.723291 104.520918 
L 616.655492 104.211251 
L 618.053794 103.488695 
L 618.985995 103.041398 
L 619.918196 102.800546 
L 621.316497 102.146805 
L 625.511402 100.598471 
L 626.909703 99.738285 
L 627.375804 99.635063 
L 628.308005 99.187766 
L 629.240206 98.843692 
L 629.706307 98.430803 
L 630.638508 98.052321 
L 632.036809 97.570617 
L 632.50291 97.192135 
L 632.96901 97.157728 
L 633.901211 96.882469 
L 634.833412 96.572802 
L 635.299513 96.33195 
L 635.765613 96.263135 
L 637.163915 95.747023 
L 638.562216 95.230912 
L 640.426618 94.405134 
L 640.892719 94.336319 
L 644.621523 92.787985 
L 646.019825 92.340688 
L 646.952026 92.271873 
L 647.884227 91.893392 
L 650.68083 91.067613 
L 651.613031 91.033206 
L 655.341835 89.828946 
L 656.274036 89.312835 
L 656.740136 88.899945 
L 658.138438 88.074167 
L 659.070639 87.523648 
L 661.867242 86.629055 
L 662.333343 86.250573 
L 665.129946 85.080721 
L 666.994348 84.56461 
L 667.926549 84.15172 
L 668.392649 83.910868 
L 669.32485 83.635609 
L 669.790951 83.36035 
L 670.723152 83.188312 
L 674.451956 81.571163 
L 674.918057 81.502348 
L 675.384157 81.192682 
L 675.850258 81.020644 
L 676.316358 80.607755 
L 676.782459 80.53894 
L 678.646861 79.816384 
L 680.511263 79.369088 
L 680.977363 79.300273 
L 681.443464 79.093829 
L 681.909564 79.059421 
L 682.841765 78.749754 
L 683.307866 78.715347 
L 684.706167 78.164828 
L 686.570569 77.614309 
L 687.50277 76.926161 
L 689.367172 75.893938 
L 690.765474 75.412234 
L 694.494278 73.657455 
L 694.960379 73.416603 
L 695.426479 72.969306 
L 698.223082 72.074713 
L 699.155283 71.696232 
L 700.087484 71.45538 
L 700.553585 71.214528 
L 701.019685 70.801638 
L 702.884087 70.319934 
L 703.350188 69.97586 
L 709.409495 67.773785 
L 710.341696 67.601748 
L 714.5366 66.122228 
L 715.468801 65.881376 
L 715.934902 65.674932 
L 716.401002 65.674932 
L 717.333203 65.29645 
L 718.265404 64.745931 
L 720.595907 63.95456 
L 721.994209 63.472856 
L 722.460309 63.404042 
L 723.39251 63.02556 
L 724.790812 62.715893 
L 726.189113 62.268596 
L 726.655214 62.165374 
L 727.121314 61.855707 
L 728.053515 61.649263 
L 737.375526 58.965483 
L 739.706028 58.552594 
L 740.638229 58.105298 
L 741.10433 57.795631 
L 744.833134 56.488149 
L 745.765335 56.212889 
L 747.163636 55.8 
L 747.163636 55.8 
" clip-path="url(#pc9d8e9c875)" style="fill: none; stroke: #1f77b4; stroke-width: 1.5; stroke-linecap: square"/>
   </g>
   <g id="line2d_34">
    <path d="M 138.902464 307.8 
L 143.097369 307.696778 
L 146.826173 307.524741 
L 148.690575 307.524741 
L 149.156675 307.387111 
L 151.487178 307.283889 
L 154.283781 306.974222 
L 157.080384 306.870999 
L 158.012585 306.767777 
L 161.275289 306.630147 
L 164.537992 306.526925 
L 166.868495 306.45811 
L 172.927802 306.354888 
L 175.258304 306.286073 
L 178.521008 306.182851 
L 180.851511 306.114036 
L 185.978616 306.010814 
L 187.843018 305.838777 
L 189.70742 305.804369 
L 192.504023 305.701147 
L 194.368425 305.666739 
L 196.698928 305.597925 
L 198.56333 305.425887 
L 202.758235 305.322665 
L 203.690436 305.25385 
L 205.554838 305.150628 
L 208.351441 305.047406 
L 210.215843 304.944184 
L 218.605652 304.428072 
L 221.868356 304.32485 
L 223.266657 304.18722 
L 225.59716 304.083998 
L 230.258165 303.843146 
L 234.91917 303.774331 
L 236.783572 303.567886 
L 238.647974 303.464664 
L 243.77508 302.98296 
L 247.037784 302.604478 
L 248.436085 302.535664 
L 252.164889 302.05396 
L 254.961492 301.985145 
L 256.359794 301.847515 
L 257.758096 301.744293 
L 270.80891 300.746477 
L 271.741111 300.57444 
L 274.537714 300.471218 
L 281.995322 300.023921 
L 285.258026 299.920699 
L 287.122428 299.714255 
L 289.452931 299.611032 
L 292.249534 299.50781 
L 294.580036 299.404588 
L 296.444438 299.37018 
L 298.774941 299.301365 
L 299.707142 299.163736 
L 306.232549 299.060513 
L 307.16475 298.957291 
L 312.757956 298.854069 
L 316.952861 298.647624 
L 320.215565 298.544402 
L 322.079967 298.337957 
L 325.34267 298.234735 
L 326.274871 298.062698 
L 328.605374 297.993883 
L 333.266379 297.925068 
L 335.130781 297.753031 
L 336.995183 297.718624 
L 338.393485 297.615401 
L 340.257887 297.443364 
L 344.918892 297.202512 
L 349.579897 297.09929 
L 353.774802 296.892845 
L 355.173103 296.858438 
L 356.105304 296.720808 
L 358.435807 296.617586 
L 359.368008 296.548771 
L 360.300209 296.479956 
L 361.23241 296.411141 
L 365.427314 296.342327 
L 366.825616 296.239104 
L 379.41033 295.413326 
L 381.740833 295.310104 
L 384.071335 295.241289 
L 390.596742 295.138067 
L 391.528943 295.000437 
L 398.054351 294.897215 
L 402.715356 294.656363 
L 403.647557 294.621955 
L 404.579758 294.518733 
L 406.91026 294.415511 
L 409.240763 294.346696 
L 411.571265 294.243474 
L 413.901768 294.174659 
L 418.096673 294.071436 
L 420.893276 293.968214 
L 427.418683 293.864992 
L 432.545789 293.589732 
L 434.410191 293.520918 
L 435.808492 293.417695 
L 442.333899 293.314473 
L 445.130503 293.211251 
L 453.520312 293.108028 
L 455.384714 293.073621 
L 460.97792 293.004806 
L 461.910121 292.935991 
L 468.435528 292.832769 
L 470.29993 292.798362 
L 482.418544 292.695139 
L 483.816845 292.55751 
L 504.791369 292.454287 
L 507.121871 292.385472 
L 519.240484 292.316658 
L 520.172686 292.247843 
L 522.503188 292.179028 
L 523.90149 292.041398 
L 526.698093 291.938176 
L 529.960796 291.800546 
L 534.155701 291.697324 
L 536.486204 291.628509 
L 539.748907 291.525287 
L 543.477711 291.35325 
L 545.808214 291.250027 
L 547.672616 291.21562 
L 551.867521 291.112398 
L 553.731923 291.07799 
L 559.791229 290.974768 
L 561.655631 290.94036 
L 563.986134 290.837138 
L 566.782737 290.733916 
L 570.045441 290.665101 
L 570.977642 290.596286 
L 582.164054 290.493064 
L 588.223361 290.14899 
L 590.553863 290.080175 
L 591.486064 289.976952 
L 592.418265 289.908138 
L 596.147069 289.804915 
L 598.943673 289.701693 
L 603.604678 289.598471 
L 605.93518 289.357619 
L 610.596185 289.254397 
L 611.528386 289.151174 
L 616.189392 289.047952 
L 618.519894 288.979137 
L 623.647 288.94473 
L 624.579201 288.841507 
L 629.706307 288.738285 
L 630.638508 288.66947 
L 640.892719 288.566248 
L 643.689322 288.463026 
L 650.68083 288.359803 
L 652.545232 288.325396 
L 656.740136 288.256581 
L 657.672337 288.153359 
L 663.731644 288.050137 
L 666.062147 287.981322 
L 674.451956 287.878099 
L 675.850258 287.774877 
L 677.248559 287.671655 
L 678.646861 287.568433 
L 685.638368 287.46521 
L 688.434971 287.361988 
L 701.019685 287.258766 
L 705.21459 287.052321 
L 710.807796 286.949099 
L 711.739997 286.880284 
L 718.731505 286.811469 
L 719.663706 286.742654 
L 724.790812 286.639432 
L 726.655214 286.605025 
L 733.180621 286.501802 
L 735.977224 286.39858 
L 743.900933 286.295358 
L 745.765335 286.26095 
L 747.163636 286.26095 
L 747.163636 286.26095 
" clip-path="url(#pc9d8e9c875)" style="fill: none; stroke: #ff7f0e; stroke-width: 1.5; stroke-linecap: square"/>
   </g>
   <g id="patch_3">
    <path d="M 108 320.4 
L 108 43.2 
" style="fill: none; stroke: #a9a9a9; stroke-width: 0.8; stroke-linejoin: miter; stroke-linecap: square"/>
   </g>
   <g id="patch_4">
    <path d="M 777.6 320.4 
L 777.6 43.2 
" style="fill: none"/>
   </g>
   <g id="patch_5">
    <path d="M 108 320.4 
L 777.6 320.4 
" style="fill: none; stroke: #a9a9a9; stroke-width: 0.8; stroke-linejoin: miter; stroke-linecap: square"/>
   </g>
   <g id="patch_6">
    <path d="M 108 43.2 
L 777.6 43.2 
" style="fill: none"/>
   </g>
   <g id="text_17">
    <!-- get_subscribe history -->
    <g style="fill: #a9a9a9" transform="translate(378.6075 37.2) scale(0.12 -0.12)">
     <defs>
      <path id="DejaVuSans-67" d="M 2906 1791 
Q 2906 2416 2648 2759 
Q 2391 3103 1925 3103 
Q 1463 3103 1205 2759 
Q 947 2416 947 1791 
Q 947 1169 1205 825 
Q 1463 481 1925 481 
Q 2391 481 2648 825 
Q 2906 1169 2906 1791 
z
M 3481 434 
Q 3481 -459 3084 -895 
Q 2688 -1331 1869 -1331 
Q 1566 -1331 1297 -1286 
Q 1028 -1241 775 -1147 
L 775 -588 
Q 1028 -725 1275 -790 
Q 1522 -856 1778 -856 
Q 2344 -856 2625 -561 
Q 2906 -266 2906 331 
L 2906 616 
Q 2728 306 2450 153 
Q 2172 0 1784 0 
Q 1141 0 747 490 
Q 353 981 353 1791 
Q 353 2603 747 3093 
Q 1141 3584 1784 3584 
Q 2172 3584 2450 3431 
Q 2728 3278 2906 2969 
L 2906 3500 
L 3481 3500 
L 3481 434 
z
" transform="scale(0.015625)"/>
      <path id="DejaVuSans-65" d="M 3597 1894 
L 3597 1613 
L 953 1613 
Q 991 1019 1311 708 
Q 1631 397 2203 397 
Q 2534 397 2845 478 
Q 3156 559 3463 722 
L 3463 178 
Q 3153 47 2828 -22 
Q 2503 -91 2169 -91 
Q 1331 -91 842 396 
Q 353 884 353 1716 
Q 353 2575 817 3079 
Q 1281 3584 2069 3584 
Q 2775 3584 3186 3129 
Q 3597 2675 3597 1894 
z
M 3022 2063 
Q 3016 2534 2758 2815 
Q 2500 3097 2075 3097 
Q 1594 3097 1305 2825 
Q 1016 2553 972 2059 
L 3022 2063 
z
" transform="scale(0.015625)"/>
      <path id="DejaVuSans-74" d="M 1172 4494 
L 1172 3500 
L 2356 3500 
L 2356 3053 
L 1172 3053 
L 1172 1153 
Q 1172 725 1289 603 
Q 1406 481 1766 481 
L 2356 481 
L 2356 0 
L 1766 0 
Q 1100 0 847 248 
Q 594 497 594 1153 
L 594 3053 
L 172 3053 
L 172 3500 
L 594 3500 
L 594 4494 
L 1172 4494 
z
" transform="scale(0.015625)"/>
      <path id="DejaVuSans-5f" d="M 3263 -1063 
L 3263 -1509 
L -63 -1509 
L -63 -1063 
L 3263 -1063 
z
" transform="scale(0.015625)"/>
      <path id="DejaVuSans-73" d="M 2834 3397 
L 2834 2853 
Q 2591 2978 2328 3040 
Q 2066 3103 1784 3103 
Q 1356 3103 1142 2972 
Q 928 2841 928 2578 
Q 928 2378 1081 2264 
Q 1234 2150 1697 2047 
L 1894 2003 
Q 2506 1872 2764 1633 
Q 3022 1394 3022 966 
Q 3022 478 2636 193 
Q 2250 -91 1575 -91 
Q 1294 -91 989 -36 
Q 684 19 347 128 
L 347 722 
Q 666 556 975 473 
Q 1284 391 1588 391 
Q 1994 391 2212 530 
Q 2431 669 2431 922 
Q 2431 1156 2273 1281 
Q 2116 1406 1581 1522 
L 1381 1569 
Q 847 1681 609 1914 
Q 372 2147 372 2553 
Q 372 3047 722 3315 
Q 1072 3584 1716 3584 
Q 2034 3584 2315 3537 
Q 2597 3491 2834 3397 
z
" transform="scale(0.015625)"/>
      <path id="DejaVuSans-75" d="M 544 1381 
L 544 3500 
L 1119 3500 
L 1119 1403 
Q 1119 906 1312 657 
Q 1506 409 1894 409 
Q 2359 409 2629 706 
Q 2900 1003 2900 1516 
L 2900 3500 
L 3475 3500 
L 3475 0 
L 2900 0 
L 2900 538 
Q 2691 219 2414 64 
Q 2138 -91 1772 -91 
Q 1169 -91 856 284 
Q 544 659 544 1381 
z
M 1991 3584 
L 1991 3584 
z
" transform="scale(0.015625)"/>
      <path id="DejaVuSans-62" d="M 3116 1747 
Q 3116 2381 2855 2742 
Q 2594 3103 2138 3103 
Q 1681 3103 1420 2742 
Q 1159 2381 1159 1747 
Q 1159 1113 1420 752 
Q 1681 391 2138 391 
Q 2594 391 2855 752 
Q 3116 1113 3116 1747 
z
M 1159 2969 
Q 1341 3281 1617 3432 
Q 1894 3584 2278 3584 
Q 2916 3584 3314 3078 
Q 3713 2572 3713 1747 
Q 3713 922 3314 415 
Q 2916 -91 2278 -91 
Q 1894 -91 1617 61 
Q 1341 213 1159 525 
L 1159 0 
L 581 0 
L 581 4863 
L 1159 4863 
L 1159 2969 
z
" transform="scale(0.015625)"/>
      <path id="DejaVuSans-63" d="M 3122 3366 
L 3122 2828 
Q 2878 2963 2633 3030 
Q 2388 3097 2138 3097 
Q 1578 3097 1268 2742 
Q 959 2388 959 1747 
Q 959 1106 1268 751 
Q 1578 397 2138 397 
Q 2388 397 2633 464 
Q 2878 531 3122 666 
L 3122 134 
Q 2881 22 2623 -34 
Q 2366 -91 2075 -91 
Q 1284 -91 818 406 
Q 353 903 353 1747 
Q 353 2603 823 3093 
Q 1294 3584 2113 3584 
Q 2378 3584 2631 3529 
Q 2884 3475 3122 3366 
z
" transform="scale(0.015625)"/>
      <path id="DejaVuSans-72" d="M 2631 2963 
Q 2534 3019 2420 3045 
Q 2306 3072 2169 3072 
Q 1681 3072 1420 2755 
Q 1159 2438 1159 1844 
L 1159 0 
L 581 0 
L 581 3500 
L 1159 3500 
L 1159 2956 
Q 1341 3275 1631 3429 
Q 1922 3584 2338 3584 
Q 2397 3584 2469 3576 
Q 2541 3569 2628 3553 
L 2631 2963 
z
" transform="scale(0.015625)"/>
      <path id="DejaVuSans-69" d="M 603 3500 
L 1178 3500 
L 1178 0 
L 603 0 
L 603 3500 
z
M 603 4863 
L 1178 4863 
L 1178 4134 
L 603 4134 
L 603 4863 
z
" transform="scale(0.015625)"/>
      <path id="DejaVuSans-20" transform="scale(0.015625)"/>
      <path id="DejaVuSans-68" d="M 3513 2113 
L 3513 0 
L 2938 0 
L 2938 2094 
Q 2938 2591 2744 2837 
Q 2550 3084 2163 3084 
Q 1697 3084 1428 2787 
Q 1159 2491 1159 1978 
L 1159 0 
L 581 0 
L 581 4863 
L 1159 4863 
L 1159 2956 
Q 1366 3272 1645 3428 
Q 1925 3584 2291 3584 
Q 2894 3584 3203 3211 
Q 3513 2838 3513 2113 
z
" transform="scale(0.015625)"/>
      <path id="DejaVuSans-6f" d="M 1959 3097 
Q 1497 3097 1228 2736 
Q 959 2375 959 1747 
Q 959 1119 1226 758 
Q 1494 397 1959 397 
Q 2419 397 2687 759 
Q 2956 1122 2956 1747 
Q 2956 2369 2687 2733 
Q 2419 3097 1959 3097 
z
M 1959 3584 
Q 2709 3584 3137 3096 
Q 3566 2609 3566 1747 
Q 3566 888 3137 398 
Q 2709 -91 1959 -91 
Q 1206 -91 779 398 
Q 353 888 353 1747 
Q 353 2609 779 3096 
Q 1206 3584 1959 3584 
z
" transform="scale(0.015625)"/>
      <path id="DejaVuSans-79" d="M 2059 -325 
Q 1816 -950 1584 -1140 
Q 1353 -1331 966 -1331 
L 506 -1331 
L 506 -850 
L 844 -850 
Q 1081 -850 1212 -737 
Q 1344 -625 1503 -206 
L 1606 56 
L 191 3500 
L 800 3500 
L 1894 763 
L 2988 3500 
L 3597 3500 
L 2059 -325 
z
" transform="scale(0.015625)"/>
     </defs>
     <use xlink:href="#DejaVuSans-67"/>
     <use xlink:href="#DejaVuSans-65" transform="translate(63.476562 0)"/>
     <use xlink:href="#DejaVuSans-74" transform="translate(125 0)"/>
     <use xlink:href="#DejaVuSans-5f" transform="translate(164.208984 0)"/>
     <use xlink:href="#DejaVuSans-73" transform="translate(214.208984 0)"/>
     <use xlink:href="#DejaVuSans-75" transform="translate(266.308594 0)"/>
     <use xlink:href="#DejaVuSans-62" transform="translate(329.6875 0)"/>
     <use xlink:href="#DejaVuSans-73" transform="translate(393.164062 0)"/>
     <use xlink:href="#DejaVuSans-63" transform="translate(445.263672 0)"/>
     <use xlink:href="#DejaVuSans-72" transform="translate(500.244141 0)"/>
     <use xlink:href="#DejaVuSans-69" transform="translate(541.357422 0)"/>
     <use xlink:href="#DejaVuSans-62" transform="translate(569.140625 0)"/>
     <use xlink:href="#DejaVuSans-65" transform="translate(632.617188 0)"/>
     <use xlink:href="#DejaVuSans-20" transform="translate(694.140625 0)"/>
     <use xlink:href="#DejaVuSans-68" transform="translate(725.927734 0)"/>
     <use xlink:href="#DejaVuSans-69" transform="translate(789.306641 0)"/>
     <use xlink:href="#DejaVuSans-73" transform="translate(817.089844 0)"/>
     <use xlink:href="#DejaVuSans-74" transform="translate(869.189453 0)"/>
     <use xlink:href="#DejaVuSans-6f" transform="translate(908.398438 0)"/>
     <use xlink:href="#DejaVuSans-72" transform="translate(969.580078 0)"/>
     <use xlink:href="#DejaVuSans-79" transform="translate(1010.693359 0)"/>
    </g>
   </g>
   <g id="legend_1">
    <g id="line2d_35">
     <path d="M 815.08 328.498438 
L 825.08 328.498438 
L 835.08 328.498438 
" style="fill: none; stroke: #1f77b4; stroke-width: 1.5; stroke-linecap: square"/>
    </g>
    <g id="text_18">
     <!-- star -->
     <g style="fill: #a9a9a9" transform="translate(843.08 331.998438) scale(0.1 -0.1)">
      <defs>
       <path id="DejaVuSans-61" d="M 2194 1759 
Q 1497 1759 1228 1600 
Q 959 1441 959 1056 
Q 959 750 1161 570 
Q 1363 391 1709 391 
Q 2188 391 2477 730 
Q 2766 1069 2766 1631 
L 2766 1759 
L 2194 1759 
z
M 3341 1997 
L 3341 0 
L 2766 0 
L 2766 531 
Q 2569 213 2275 61 
Q 1981 -91 1556 -91 
Q 1019 -91 701 211 
Q 384 513 384 1019 
Q 384 1609 779 1909 
Q 1175 2209 1959 2209 
L 2766 2209 
L 2766 2266 
Q 2766 2663 2505 2880 
Q 2244 3097 1772 3097 
Q 1472 3097 1187 3025 
Q 903 2953 641 2809 
L 641 3341 
Q 956 3463 1253 3523 
Q 1550 3584 1831 3584 
Q 2591 3584 2966 3190 
Q 3341 2797 3341 1997 
z
" transform="scale(0.015625)"/>
      </defs>
      <use xlink:href="#DejaVuSans-73"/>
      <use xlink:href="#DejaVuSans-74" transform="translate(52.099609 0)"/>
      <use xlink:href="#DejaVuSans-61" transform="translate(91.308594 0)"/>
      <use xlink:href="#DejaVuSans-72" transform="translate(152.587891 0)"/>
     </g>
    </g>
    <g id="line2d_36">
     <path d="M 815.08 343.176562 
L 825.08 343.176562 
L 835.08 343.176562 
" style="fill: none; stroke: #ff7f0e; stroke-width: 1.5; stroke-linecap: square"/>
    </g>
    <g id="text_19">
     <!-- fork -->
     <g style="fill: #a9a9a9" transform="translate(843.08 346.676562) scale(0.1 -0.1)">
      <defs>
       <path id="DejaVuSans-66" d="M 2375 4863 
L 2375 4384 
L 1825 4384 
Q 1516 4384 1395 4259 
Q 1275 4134 1275 3809 
L 1275 3500 
L 2222 3500 
L 2222 3053 
L 1275 3053 
L 1275 0 
L 697 0 
L 697 3053 
L 147 3053 
L 147 3500 
L 697 3500 
L 697 3744 
Q 697 4328 969 4595 
Q 1241 4863 1831 4863 
L 2375 4863 
z
" transform="scale(0.015625)"/>
       <path id="DejaVuSans-6b" d="M 581 4863 
L 1159 4863 
L 1159 1991 
L 2875 3500 
L 3609 3500 
L 1753 1863 
L 3688 0 
L 2938 0 
L 1159 1709 
L 1159 0 
L 581 0 
L 581 4863 
z
" transform="scale(0.015625)"/>
      </defs>
      <use xlink:href="#DejaVuSans-66"/>
      <use xlink:href="#DejaVuSans-6f" transform="translate(35.205078 0)"/>
      <use xlink:href="#DejaVuSans-72" transform="translate(96.386719 0)"/>
      <use xlink:href="#DejaVuSans-6b" transform="translate(137.5 0)"/>
     </g>
    </g>
   </g>
  </g>
 </g>
 <defs>
  <clipPath id="pc9d8e9c875">
   <rect x="108" y="43.2" width="669.6" height="277.2"/>
  </clipPath>
 </defs>
</svg>
