<?xml version="1.0" encoding="utf-8" standalone="no"?>
<!DOCTYPE svg PUBLIC "-//W3C//DTD SVG 1.1//EN"
  "http://www.w3.org/Graphics/SVG/1.1/DTD/svg11.dtd">
<svg xmlns:xlink="http://www.w3.org/1999/xlink" width="864pt" height="360pt" viewBox="0 0 864 360" xmlns="http://www.w3.org/2000/svg" version="1.1">
 <metadata>
  <rdf:RDF xmlns:dc="http://purl.org/dc/elements/1.1/" xmlns:cc="http://creativecommons.org/ns#" xmlns:rdf="http://www.w3.org/1999/02/22-rdf-syntax-ns#">
   <cc:Work>
    <dc:type rdf:resource="http://purl.org/dc/dcmitype/StillImage"/>
    <dc:date>2025-02-22T08:13:21.104989</dc:date>
    <dc:format>image/svg+xml</dc:format>
    <dc:creator>
     <cc:Agent>
      <dc:title>Matplotlib v3.10.0, https://matplotlib.org/</dc:title>
     </cc:Agent>
    </dc:creator>
   </cc:Work>
  </rdf:RDF>
 </metadata>
 <defs>
  <style type="text/css">*{stroke-linejoin: round; stroke-linecap: butt}</style>
 </defs>
 <g id="figure_1">
  <g id="patch_1">
   <path d="M 0 360 
L 864 360 
L 864 0 
L 0 0 
L 0 360 
z
" style="fill: none; opacity: 0"/>
  </g>
  <g id="axes_1">
   <g id="patch_2">
    <path d="M 108 320.4 
L 777.6 320.4 
L 777.6 43.2 
L 108 43.2 
L 108 320.4 
z
" style="fill: none; opacity: 0"/>
   </g>
   <g id="matplotlib.axis_1">
    <g id="xtick_1">
     <g id="line2d_1">
      <path d="M 127.740621 320.4 
L 127.740621 43.2 
" clip-path="url(#pc28e0b57a3)" style="fill: none; stroke-dasharray: 5.12,1.28,0.8,1.28; stroke-dashoffset: 0; stroke: #b0b0b0; stroke-width: 0.8"/>
     </g>
     <g id="line2d_2">
      <defs>
       <path id="m70d9393eed" d="M 0 0 
L 0 3.5 
" style="stroke: #a9a9a9; stroke-width: 0.8"/>
      </defs>
      <g>
       <use xlink:href="#m70d9393eed" x="127.740621" y="320.4" style="fill: #a9a9a9; stroke: #a9a9a9; stroke-width: 0.8"/>
      </g>
     </g>
     <g id="text_1">
      <!-- 2021-07 -->
      <g style="fill: #a9a9a9" transform="translate(106.849215 334.998438) scale(0.1 -0.1)">
       <defs>
        <path id="DejaVuSans-32" d="M 1228 531 
L 3431 531 
L 3431 0 
L 469 0 
L 469 531 
Q 828 903 1448 1529 
Q 2069 2156 2228 2338 
Q 2531 2678 2651 2914 
Q 2772 3150 2772 3378 
Q 2772 3750 2511 3984 
Q 2250 4219 1831 4219 
Q 1534 4219 1204 4116 
Q 875 4013 500 3803 
L 500 4441 
Q 881 4594 1212 4672 
Q 1544 4750 1819 4750 
Q 2544 4750 2975 4387 
Q 3406 4025 3406 3419 
Q 3406 3131 3298 2873 
Q 3191 2616 2906 2266 
Q 2828 2175 2409 1742 
Q 1991 1309 1228 531 
z
" transform="scale(0.015625)"/>
        <path id="DejaVuSans-30" d="M 2034 4250 
Q 1547 4250 1301 3770 
Q 1056 3291 1056 2328 
Q 1056 1369 1301 889 
Q 1547 409 2034 409 
Q 2525 409 2770 889 
Q 3016 1369 3016 2328 
Q 3016 3291 2770 3770 
Q 2525 4250 2034 4250 
z
M 2034 4750 
Q 2819 4750 3233 4129 
Q 3647 3509 3647 2328 
Q 3647 1150 3233 529 
Q 2819 -91 2034 -91 
Q 1250 -91 836 529 
Q 422 1150 422 2328 
Q 422 3509 836 4129 
Q 1250 4750 2034 4750 
z
" transform="scale(0.015625)"/>
        <path id="DejaVuSans-31" d="M 794 531 
L 1825 531 
L 1825 4091 
L 703 3866 
L 703 4441 
L 1819 4666 
L 2450 4666 
L 2450 531 
L 3481 531 
L 3481 0 
L 794 0 
L 794 531 
z
" transform="scale(0.015625)"/>
        <path id="DejaVuSans-2d" d="M 313 2009 
L 1997 2009 
L 1997 1497 
L 313 1497 
L 313 2009 
z
" transform="scale(0.015625)"/>
        <path id="DejaVuSans-37" d="M 525 4666 
L 3525 4666 
L 3525 4397 
L 1831 0 
L 1172 0 
L 2766 4134 
L 525 4134 
L 525 4666 
z
" transform="scale(0.015625)"/>
       </defs>
       <use xlink:href="#DejaVuSans-32"/>
       <use xlink:href="#DejaVuSans-30" transform="translate(63.623047 0)"/>
       <use xlink:href="#DejaVuSans-32" transform="translate(127.246094 0)"/>
       <use xlink:href="#DejaVuSans-31" transform="translate(190.869141 0)"/>
       <use xlink:href="#DejaVuSans-2d" transform="translate(254.492188 0)"/>
       <use xlink:href="#DejaVuSans-30" transform="translate(290.576172 0)"/>
       <use xlink:href="#DejaVuSans-37" transform="translate(354.199219 0)"/>
      </g>
     </g>
    </g>
    <g id="xtick_2">
     <g id="line2d_3">
      <path d="M 213.306563 320.4 
L 213.306563 43.2 
" clip-path="url(#pc28e0b57a3)" style="fill: none; stroke-dasharray: 5.12,1.28,0.8,1.28; stroke-dashoffset: 0; stroke: #b0b0b0; stroke-width: 0.8"/>
     </g>
     <g id="line2d_4">
      <g>
       <use xlink:href="#m70d9393eed" x="213.306563" y="320.4" style="fill: #a9a9a9; stroke: #a9a9a9; stroke-width: 0.8"/>
      </g>
     </g>
     <g id="text_2">
      <!-- 2022-01 -->
      <g style="fill: #a9a9a9" transform="translate(192.415157 334.998438) scale(0.1 -0.1)">
       <use xlink:href="#DejaVuSans-32"/>
       <use xlink:href="#DejaVuSans-30" transform="translate(63.623047 0)"/>
       <use xlink:href="#DejaVuSans-32" transform="translate(127.246094 0)"/>
       <use xlink:href="#DejaVuSans-32" transform="translate(190.869141 0)"/>
       <use xlink:href="#DejaVuSans-2d" transform="translate(254.492188 0)"/>
       <use xlink:href="#DejaVuSans-30" transform="translate(290.576172 0)"/>
       <use xlink:href="#DejaVuSans-31" transform="translate(354.199219 0)"/>
      </g>
     </g>
    </g>
    <g id="xtick_3">
     <g id="line2d_5">
      <path d="M 297.477408 320.4 
L 297.477408 43.2 
" clip-path="url(#pc28e0b57a3)" style="fill: none; stroke-dasharray: 5.12,1.28,0.8,1.28; stroke-dashoffset: 0; stroke: #b0b0b0; stroke-width: 0.8"/>
     </g>
     <g id="line2d_6">
      <g>
       <use xlink:href="#m70d9393eed" x="297.477408" y="320.4" style="fill: #a9a9a9; stroke: #a9a9a9; stroke-width: 0.8"/>
      </g>
     </g>
     <g id="text_3">
      <!-- 2022-07 -->
      <g style="fill: #a9a9a9" transform="translate(276.586002 334.998438) scale(0.1 -0.1)">
       <use xlink:href="#DejaVuSans-32"/>
       <use xlink:href="#DejaVuSans-30" transform="translate(63.623047 0)"/>
       <use xlink:href="#DejaVuSans-32" transform="translate(127.246094 0)"/>
       <use xlink:href="#DejaVuSans-32" transform="translate(190.869141 0)"/>
       <use xlink:href="#DejaVuSans-2d" transform="translate(254.492188 0)"/>
       <use xlink:href="#DejaVuSans-30" transform="translate(290.576172 0)"/>
       <use xlink:href="#DejaVuSans-37" transform="translate(354.199219 0)"/>
      </g>
     </g>
    </g>
    <g id="xtick_4">
     <g id="line2d_7">
      <path d="M 383.04335 320.4 
L 383.04335 43.2 
" clip-path="url(#pc28e0b57a3)" style="fill: none; stroke-dasharray: 5.12,1.28,0.8,1.28; stroke-dashoffset: 0; stroke: #b0b0b0; stroke-width: 0.8"/>
     </g>
     <g id="line2d_8">
      <g>
       <use xlink:href="#m70d9393eed" x="383.04335" y="320.4" style="fill: #a9a9a9; stroke: #a9a9a9; stroke-width: 0.8"/>
      </g>
     </g>
     <g id="text_4">
      <!-- 2023-01 -->
      <g style="fill: #a9a9a9" transform="translate(362.151944 334.998438) scale(0.1 -0.1)">
       <defs>
        <path id="DejaVuSans-33" d="M 2597 2516 
Q 3050 2419 3304 2112 
Q 3559 1806 3559 1356 
Q 3559 666 3084 287 
Q 2609 -91 1734 -91 
Q 1441 -91 1130 -33 
Q 819 25 488 141 
L 488 750 
Q 750 597 1062 519 
Q 1375 441 1716 441 
Q 2309 441 2620 675 
Q 2931 909 2931 1356 
Q 2931 1769 2642 2001 
Q 2353 2234 1838 2234 
L 1294 2234 
L 1294 2753 
L 1863 2753 
Q 2328 2753 2575 2939 
Q 2822 3125 2822 3475 
Q 2822 3834 2567 4026 
Q 2313 4219 1838 4219 
Q 1578 4219 1281 4162 
Q 984 4106 628 3988 
L 628 4550 
Q 988 4650 1302 4700 
Q 1616 4750 1894 4750 
Q 2613 4750 3031 4423 
Q 3450 4097 3450 3541 
Q 3450 3153 3228 2886 
Q 3006 2619 2597 2516 
z
" transform="scale(0.015625)"/>
       </defs>
       <use xlink:href="#DejaVuSans-32"/>
       <use xlink:href="#DejaVuSans-30" transform="translate(63.623047 0)"/>
       <use xlink:href="#DejaVuSans-32" transform="translate(127.246094 0)"/>
       <use xlink:href="#DejaVuSans-33" transform="translate(190.869141 0)"/>
       <use xlink:href="#DejaVuSans-2d" transform="translate(254.492188 0)"/>
       <use xlink:href="#DejaVuSans-30" transform="translate(290.576172 0)"/>
       <use xlink:href="#DejaVuSans-31" transform="translate(354.199219 0)"/>
      </g>
     </g>
    </g>
    <g id="xtick_5">
     <g id="line2d_9">
      <path d="M 467.214195 320.4 
L 467.214195 43.2 
" clip-path="url(#pc28e0b57a3)" style="fill: none; stroke-dasharray: 5.12,1.28,0.8,1.28; stroke-dashoffset: 0; stroke: #b0b0b0; stroke-width: 0.8"/>
     </g>
     <g id="line2d_10">
      <g>
       <use xlink:href="#m70d9393eed" x="467.214195" y="320.4" style="fill: #a9a9a9; stroke: #a9a9a9; stroke-width: 0.8"/>
      </g>
     </g>
     <g id="text_5">
      <!-- 2023-07 -->
      <g style="fill: #a9a9a9" transform="translate(446.322789 334.998438) scale(0.1 -0.1)">
       <use xlink:href="#DejaVuSans-32"/>
       <use xlink:href="#DejaVuSans-30" transform="translate(63.623047 0)"/>
       <use xlink:href="#DejaVuSans-32" transform="translate(127.246094 0)"/>
       <use xlink:href="#DejaVuSans-33" transform="translate(190.869141 0)"/>
       <use xlink:href="#DejaVuSans-2d" transform="translate(254.492188 0)"/>
       <use xlink:href="#DejaVuSans-30" transform="translate(290.576172 0)"/>
       <use xlink:href="#DejaVuSans-37" transform="translate(354.199219 0)"/>
      </g>
     </g>
    </g>
    <g id="xtick_6">
     <g id="line2d_11">
      <path d="M 552.780138 320.4 
L 552.780138 43.2 
" clip-path="url(#pc28e0b57a3)" style="fill: none; stroke-dasharray: 5.12,1.28,0.8,1.28; stroke-dashoffset: 0; stroke: #b0b0b0; stroke-width: 0.8"/>
     </g>
     <g id="line2d_12">
      <g>
       <use xlink:href="#m70d9393eed" x="552.780138" y="320.4" style="fill: #a9a9a9; stroke: #a9a9a9; stroke-width: 0.8"/>
      </g>
     </g>
     <g id="text_6">
      <!-- 2024-01 -->
      <g style="fill: #a9a9a9" transform="translate(531.888731 334.998438) scale(0.1 -0.1)">
       <defs>
        <path id="DejaVuSans-34" d="M 2419 4116 
L 825 1625 
L 2419 1625 
L 2419 4116 
z
M 2253 4666 
L 3047 4666 
L 3047 1625 
L 3713 1625 
L 3713 1100 
L 3047 1100 
L 3047 0 
L 2419 0 
L 2419 1100 
L 313 1100 
L 313 1709 
L 2253 4666 
z
" transform="scale(0.015625)"/>
       </defs>
       <use xlink:href="#DejaVuSans-32"/>
       <use xlink:href="#DejaVuSans-30" transform="translate(63.623047 0)"/>
       <use xlink:href="#DejaVuSans-32" transform="translate(127.246094 0)"/>
       <use xlink:href="#DejaVuSans-34" transform="translate(190.869141 0)"/>
       <use xlink:href="#DejaVuSans-2d" transform="translate(254.492188 0)"/>
       <use xlink:href="#DejaVuSans-30" transform="translate(290.576172 0)"/>
       <use xlink:href="#DejaVuSans-31" transform="translate(354.199219 0)"/>
      </g>
     </g>
    </g>
    <g id="xtick_7">
     <g id="line2d_13">
      <path d="M 637.416015 320.4 
L 637.416015 43.2 
" clip-path="url(#pc28e0b57a3)" style="fill: none; stroke-dasharray: 5.12,1.28,0.8,1.28; stroke-dashoffset: 0; stroke: #b0b0b0; stroke-width: 0.8"/>
     </g>
     <g id="line2d_14">
      <g>
       <use xlink:href="#m70d9393eed" x="637.416015" y="320.4" style="fill: #a9a9a9; stroke: #a9a9a9; stroke-width: 0.8"/>
      </g>
     </g>
     <g id="text_7">
      <!-- 2024-07 -->
      <g style="fill: #a9a9a9" transform="translate(616.524609 334.998438) scale(0.1 -0.1)">
       <use xlink:href="#DejaVuSans-32"/>
       <use xlink:href="#DejaVuSans-30" transform="translate(63.623047 0)"/>
       <use xlink:href="#DejaVuSans-32" transform="translate(127.246094 0)"/>
       <use xlink:href="#DejaVuSans-34" transform="translate(190.869141 0)"/>
       <use xlink:href="#DejaVuSans-2d" transform="translate(254.492188 0)"/>
       <use xlink:href="#DejaVuSans-30" transform="translate(290.576172 0)"/>
       <use xlink:href="#DejaVuSans-37" transform="translate(354.199219 0)"/>
      </g>
     </g>
    </g>
    <g id="xtick_8">
     <g id="line2d_15">
      <path d="M 722.981957 320.4 
L 722.981957 43.2 
" clip-path="url(#pc28e0b57a3)" style="fill: none; stroke-dasharray: 5.12,1.28,0.8,1.28; stroke-dashoffset: 0; stroke: #b0b0b0; stroke-width: 0.8"/>
     </g>
     <g id="line2d_16">
      <g>
       <use xlink:href="#m70d9393eed" x="722.981957" y="320.4" style="fill: #a9a9a9; stroke: #a9a9a9; stroke-width: 0.8"/>
      </g>
     </g>
     <g id="text_8">
      <!-- 2025-01 -->
      <g style="fill: #a9a9a9" transform="translate(702.090551 334.998438) scale(0.1 -0.1)">
       <defs>
        <path id="DejaVuSans-35" d="M 691 4666 
L 3169 4666 
L 3169 4134 
L 1269 4134 
L 1269 2991 
Q 1406 3038 1543 3061 
Q 1681 3084 1819 3084 
Q 2600 3084 3056 2656 
Q 3513 2228 3513 1497 
Q 3513 744 3044 326 
Q 2575 -91 1722 -91 
Q 1428 -91 1123 -41 
Q 819 9 494 109 
L 494 744 
Q 775 591 1075 516 
Q 1375 441 1709 441 
Q 2250 441 2565 725 
Q 2881 1009 2881 1497 
Q 2881 1984 2565 2268 
Q 2250 2553 1709 2553 
Q 1456 2553 1204 2497 
Q 953 2441 691 2322 
L 691 4666 
z
" transform="scale(0.015625)"/>
       </defs>
       <use xlink:href="#DejaVuSans-32"/>
       <use xlink:href="#DejaVuSans-30" transform="translate(63.623047 0)"/>
       <use xlink:href="#DejaVuSans-32" transform="translate(127.246094 0)"/>
       <use xlink:href="#DejaVuSans-35" transform="translate(190.869141 0)"/>
       <use xlink:href="#DejaVuSans-2d" transform="translate(254.492188 0)"/>
       <use xlink:href="#DejaVuSans-30" transform="translate(290.576172 0)"/>
       <use xlink:href="#DejaVuSans-31" transform="translate(354.199219 0)"/>
      </g>
     </g>
    </g>
   </g>
   <g id="matplotlib.axis_2">
    <g id="ytick_1">
     <g id="line2d_17">
      <path d="M 108 307.834314 
L 777.6 307.834314 
" clip-path="url(#pc28e0b57a3)" style="fill: none; stroke-dasharray: 5.12,1.28,0.8,1.28; stroke-dashoffset: 0; stroke: #b0b0b0; stroke-width: 0.8"/>
     </g>
     <g id="line2d_18">
      <defs>
       <path id="m4a8c6046c8" d="M 0 0 
L -3.5 0 
" style="stroke: #a9a9a9; stroke-width: 0.8"/>
      </defs>
      <g>
       <use xlink:href="#m4a8c6046c8" x="108" y="307.834314" style="fill: #a9a9a9; stroke: #a9a9a9; stroke-width: 0.8"/>
      </g>
     </g>
     <g id="text_9">
      <!-- 0 -->
      <g style="fill: #a9a9a9" transform="translate(94.6375 311.633532) scale(0.1 -0.1)">
       <use xlink:href="#DejaVuSans-30"/>
      </g>
     </g>
    </g>
    <g id="ytick_2">
     <g id="line2d_19">
      <path d="M 108 273.520588 
L 777.6 273.520588 
" clip-path="url(#pc28e0b57a3)" style="fill: none; stroke-dasharray: 5.12,1.28,0.8,1.28; stroke-dashoffset: 0; stroke: #b0b0b0; stroke-width: 0.8"/>
     </g>
     <g id="line2d_20">
      <g>
       <use xlink:href="#m4a8c6046c8" x="108" y="273.520588" style="fill: #a9a9a9; stroke: #a9a9a9; stroke-width: 0.8"/>
      </g>
     </g>
     <g id="text_10">
      <!-- 1000 -->
      <g style="fill: #a9a9a9" transform="translate(75.55 277.319807) scale(0.1 -0.1)">
       <use xlink:href="#DejaVuSans-31"/>
       <use xlink:href="#DejaVuSans-30" transform="translate(63.623047 0)"/>
       <use xlink:href="#DejaVuSans-30" transform="translate(127.246094 0)"/>
       <use xlink:href="#DejaVuSans-30" transform="translate(190.869141 0)"/>
      </g>
     </g>
    </g>
    <g id="ytick_3">
     <g id="line2d_21">
      <path d="M 108 239.206863 
L 777.6 239.206863 
" clip-path="url(#pc28e0b57a3)" style="fill: none; stroke-dasharray: 5.12,1.28,0.8,1.28; stroke-dashoffset: 0; stroke: #b0b0b0; stroke-width: 0.8"/>
     </g>
     <g id="line2d_22">
      <g>
       <use xlink:href="#m4a8c6046c8" x="108" y="239.206863" style="fill: #a9a9a9; stroke: #a9a9a9; stroke-width: 0.8"/>
      </g>
     </g>
     <g id="text_11">
      <!-- 2000 -->
      <g style="fill: #a9a9a9" transform="translate(75.55 243.006081) scale(0.1 -0.1)">
       <use xlink:href="#DejaVuSans-32"/>
       <use xlink:href="#DejaVuSans-30" transform="translate(63.623047 0)"/>
       <use xlink:href="#DejaVuSans-30" transform="translate(127.246094 0)"/>
       <use xlink:href="#DejaVuSans-30" transform="translate(190.869141 0)"/>
      </g>
     </g>
    </g>
    <g id="ytick_4">
     <g id="line2d_23">
      <path d="M 108 204.893137 
L 777.6 204.893137 
" clip-path="url(#pc28e0b57a3)" style="fill: none; stroke-dasharray: 5.12,1.28,0.8,1.28; stroke-dashoffset: 0; stroke: #b0b0b0; stroke-width: 0.8"/>
     </g>
     <g id="line2d_24">
      <g>
       <use xlink:href="#m4a8c6046c8" x="108" y="204.893137" style="fill: #a9a9a9; stroke: #a9a9a9; stroke-width: 0.8"/>
      </g>
     </g>
     <g id="text_12">
      <!-- 3000 -->
      <g style="fill: #a9a9a9" transform="translate(75.55 208.692356) scale(0.1 -0.1)">
       <use xlink:href="#DejaVuSans-33"/>
       <use xlink:href="#DejaVuSans-30" transform="translate(63.623047 0)"/>
       <use xlink:href="#DejaVuSans-30" transform="translate(127.246094 0)"/>
       <use xlink:href="#DejaVuSans-30" transform="translate(190.869141 0)"/>
      </g>
     </g>
    </g>
    <g id="ytick_5">
     <g id="line2d_25">
      <path d="M 108 170.579412 
L 777.6 170.579412 
" clip-path="url(#pc28e0b57a3)" style="fill: none; stroke-dasharray: 5.12,1.28,0.8,1.28; stroke-dashoffset: 0; stroke: #b0b0b0; stroke-width: 0.8"/>
     </g>
     <g id="line2d_26">
      <g>
       <use xlink:href="#m4a8c6046c8" x="108" y="170.579412" style="fill: #a9a9a9; stroke: #a9a9a9; stroke-width: 0.8"/>
      </g>
     </g>
     <g id="text_13">
      <!-- 4000 -->
      <g style="fill: #a9a9a9" transform="translate(75.55 174.378631) scale(0.1 -0.1)">
       <use xlink:href="#DejaVuSans-34"/>
       <use xlink:href="#DejaVuSans-30" transform="translate(63.623047 0)"/>
       <use xlink:href="#DejaVuSans-30" transform="translate(127.246094 0)"/>
       <use xlink:href="#DejaVuSans-30" transform="translate(190.869141 0)"/>
      </g>
     </g>
    </g>
    <g id="ytick_6">
     <g id="line2d_27">
      <path d="M 108 136.265686 
L 777.6 136.265686 
" clip-path="url(#pc28e0b57a3)" style="fill: none; stroke-dasharray: 5.12,1.28,0.8,1.28; stroke-dashoffset: 0; stroke: #b0b0b0; stroke-width: 0.8"/>
     </g>
     <g id="line2d_28">
      <g>
       <use xlink:href="#m4a8c6046c8" x="108" y="136.265686" style="fill: #a9a9a9; stroke: #a9a9a9; stroke-width: 0.8"/>
      </g>
     </g>
     <g id="text_14">
      <!-- 5000 -->
      <g style="fill: #a9a9a9" transform="translate(75.55 140.064905) scale(0.1 -0.1)">
       <use xlink:href="#DejaVuSans-35"/>
       <use xlink:href="#DejaVuSans-30" transform="translate(63.623047 0)"/>
       <use xlink:href="#DejaVuSans-30" transform="translate(127.246094 0)"/>
       <use xlink:href="#DejaVuSans-30" transform="translate(190.869141 0)"/>
      </g>
     </g>
    </g>
    <g id="ytick_7">
     <g id="line2d_29">
      <path d="M 108 101.951961 
L 777.6 101.951961 
" clip-path="url(#pc28e0b57a3)" style="fill: none; stroke-dasharray: 5.12,1.28,0.8,1.28; stroke-dashoffset: 0; stroke: #b0b0b0; stroke-width: 0.8"/>
     </g>
     <g id="line2d_30">
      <g>
       <use xlink:href="#m4a8c6046c8" x="108" y="101.951961" style="fill: #a9a9a9; stroke: #a9a9a9; stroke-width: 0.8"/>
      </g>
     </g>
     <g id="text_15">
      <!-- 6000 -->
      <g style="fill: #a9a9a9" transform="translate(75.55 105.75118) scale(0.1 -0.1)">
       <defs>
        <path id="DejaVuSans-36" d="M 2113 2584 
Q 1688 2584 1439 2293 
Q 1191 2003 1191 1497 
Q 1191 994 1439 701 
Q 1688 409 2113 409 
Q 2538 409 2786 701 
Q 3034 994 3034 1497 
Q 3034 2003 2786 2293 
Q 2538 2584 2113 2584 
z
M 3366 4563 
L 3366 3988 
Q 3128 4100 2886 4159 
Q 2644 4219 2406 4219 
Q 1781 4219 1451 3797 
Q 1122 3375 1075 2522 
Q 1259 2794 1537 2939 
Q 1816 3084 2150 3084 
Q 2853 3084 3261 2657 
Q 3669 2231 3669 1497 
Q 3669 778 3244 343 
Q 2819 -91 2113 -91 
Q 1303 -91 875 529 
Q 447 1150 447 2328 
Q 447 3434 972 4092 
Q 1497 4750 2381 4750 
Q 2619 4750 2861 4703 
Q 3103 4656 3366 4563 
z
" transform="scale(0.015625)"/>
       </defs>
       <use xlink:href="#DejaVuSans-36"/>
       <use xlink:href="#DejaVuSans-30" transform="translate(63.623047 0)"/>
       <use xlink:href="#DejaVuSans-30" transform="translate(127.246094 0)"/>
       <use xlink:href="#DejaVuSans-30" transform="translate(190.869141 0)"/>
      </g>
     </g>
    </g>
    <g id="ytick_8">
     <g id="line2d_31">
      <path d="M 108 67.638235 
L 777.6 67.638235 
" clip-path="url(#pc28e0b57a3)" style="fill: none; stroke-dasharray: 5.12,1.28,0.8,1.28; stroke-dashoffset: 0; stroke: #b0b0b0; stroke-width: 0.8"/>
     </g>
     <g id="line2d_32">
      <g>
       <use xlink:href="#m4a8c6046c8" x="108" y="67.638235" style="fill: #a9a9a9; stroke: #a9a9a9; stroke-width: 0.8"/>
      </g>
     </g>
     <g id="text_16">
      <!-- 7000 -->
      <g style="fill: #a9a9a9" transform="translate(75.55 71.437454) scale(0.1 -0.1)">
       <use xlink:href="#DejaVuSans-37"/>
       <use xlink:href="#DejaVuSans-30" transform="translate(63.623047 0)"/>
       <use xlink:href="#DejaVuSans-30" transform="translate(127.246094 0)"/>
       <use xlink:href="#DejaVuSans-30" transform="translate(190.869141 0)"/>
      </g>
     </g>
    </g>
   </g>
   <g id="line2d_33">
    <path d="M 138.436364 307.731373 
L 141.226557 307.491176 
L 141.69159 307.285294 
L 143.551719 307.045098 
L 145.411848 306.667647 
L 146.341913 306.530392 
L 148.667074 306.32451 
L 149.597139 305.947059 
L 150.062171 305.329412 
L 150.527203 305.020588 
L 150.992236 303.956863 
L 151.457268 303.888235 
L 151.9223 303.510784 
L 152.852365 303.030392 
L 154.712494 301.520588 
L 156.572623 300.594118 
L 157.96772 299.942157 
L 158.432752 299.187255 
L 159.362817 298.50098 
L 159.827849 298.295098 
L 164.478172 297.608824 
L 164.943204 297.402941 
L 168.19843 297.128431 
L 170.05856 296.682353 
L 173.778818 296.167647 
L 174.24385 295.927451 
L 174.708883 295.858824 
L 175.638947 295.55 
L 178.894173 295.00098 
L 179.824238 294.726471 
L 184.009528 294.005882 
L 184.939593 293.8 
L 185.869658 293.765686 
L 187.729787 293.319608 
L 188.194819 292.667647 
L 189.589916 292.118627 
L 190.985013 291.741176 
L 191.450045 291.50098 
L 192.38011 291.329412 
L 194.240239 290.780392 
L 195.170303 290.711765 
L 196.100368 290.471569 
L 197.960497 289.991176 
L 198.42553 289.956863 
L 199.355594 289.510784 
L 199.820626 289.442157 
L 200.285659 289.201961 
L 205.401014 288.344118 
L 207.261143 287.795098 
L 207.726175 287.486275 
L 210.051337 286.697059 
L 210.981401 286.045098 
L 212.376498 285.770588 
L 224.467338 282.304902 
L 224.93237 282.304902 
L 225.397403 282.09902 
L 226.327467 281.996078 
L 226.792499 281.82451 
L 228.652629 281.755882 
L 229.582693 281.584314 
L 230.512758 281.103922 
L 231.907855 280.589216 
L 232.372887 280.280392 
L 233.302952 279.868627 
L 233.767984 279.628431 
L 234.698048 279.319608 
L 235.163081 279.182353 
L 236.093145 278.59902 
L 236.558178 278.084314 
L 237.488242 276.643137 
L 237.953275 276.505882 
L 238.418307 276.505882 
L 239.813404 275.682353 
L 240.278436 275.442157 
L 240.743468 275.339216 
L 241.208501 274.893137 
L 242.138565 274.515686 
L 243.06863 274.069608 
L 245.393791 271.084314 
L 248.183985 269.57451 
L 249.11405 268.819608 
L 249.579082 268.510784 
L 250.044114 267.858824 
L 250.509146 266.795098 
L 250.974179 266.07451 
L 251.439211 265.697059 
L 251.904243 265.491176 
L 255.624502 262.059804 
L 256.554566 261.201961 
L 259.34476 259.451961 
L 259.809792 259.280392 
L 261.204889 258.456863 
L 262.599986 257.530392 
L 264.460115 255.84902 
L 265.39018 255.471569 
L 266.320244 254.819608 
L 266.785277 254.545098 
L 267.250309 254.476471 
L 268.645406 253.687255 
L 269.110438 253.172549 
L 271.4356 251.902941 
L 271.900632 251.731373 
L 273.295729 250.770588 
L 280.271213 248.3 
L 281.201278 247.442157 
L 282.596375 246.755882 
L 283.526439 246.172549 
L 284.456504 245.898039 
L 284.921536 245.589216 
L 285.386569 245.451961 
L 286.781665 244.52549 
L 289.106827 243.976471 
L 290.501924 243.152941 
L 291.897021 242.844118 
L 292.362053 242.706863 
L 293.75715 241.643137 
L 295.617279 241.128431 
L 296.082311 240.75098 
L 298.872505 239.790196 
L 299.80257 239.618627 
L 300.732634 239.241176 
L 303.98786 238.040196 
L 304.917925 237.902941 
L 306.313022 237.422549 
L 308.638183 236.290196 
L 310.498312 235.260784 
L 314.218571 233.716667 
L 314.683603 233.648039 
L 315.613668 233.064706 
L 316.0787 232.996078 
L 317.938829 232.241176 
L 319.798958 232.00098 
L 320.729023 231.520588 
L 321.194055 231.108824 
L 321.659087 230.25098 
L 323.519217 229.736275 
L 324.914313 229.015686 
L 325.844378 228.706863 
L 326.774443 228.226471 
L 329.564636 227.094118 
L 330.494701 226.888235 
L 331.424766 226.407843 
L 331.889798 226.201961 
L 332.35483 226.133333 
L 334.214959 225.27549 
L 335.610056 224.383333 
L 337.005153 224.108824 
L 338.865282 223.594118 
L 339.330315 223.559804 
L 339.795347 223.182353 
L 340.725411 222.873529 
L 343.050573 221.947059 
L 343.515605 221.603922 
L 343.980638 221.432353 
L 344.910702 220.917647 
L 346.770831 220.334314 
L 347.235864 220.094118 
L 348.63096 218.961765 
L 349.095993 218.858824 
L 350.026057 218.103922 
L 350.49109 218.035294 
L 350.956122 217.280392 
L 351.421154 217.07451 
L 351.886187 216.697059 
L 352.351219 216.628431 
L 353.281283 216.045098 
L 354.211348 215.736275 
L 354.67638 215.393137 
L 355.141413 215.221569 
L 357.001542 213.986275 
L 358.396639 213.265686 
L 359.326703 213.02549 
L 360.256768 212.510784 
L 360.7218 211.721569 
L 361.651865 211.035294 
L 362.116897 210.932353 
L 364.907091 209.594118 
L 365.837155 209.216667 
L 367.232252 208.05 
L 368.162317 207.260784 
L 369.092381 206.711765 
L 369.557414 206.197059 
L 370.022446 205.888235 
L 370.952511 205.133333 
L 371.417543 204.927451 
L 372.347607 204.00098 
L 373.277672 203.657843 
L 374.207737 203.040196 
L 375.602834 202.319608 
L 376.067866 202.25098 
L 377.462963 201.496078 
L 378.393027 200.912745 
L 383.04335 199.197059 
L 383.508383 198.819608 
L 385.368512 198.09902 
L 385.833544 197.961765 
L 386.763609 197.344118 
L 387.693673 196.932353 
L 388.623738 196.280392 
L 389.553802 194.427451 
L 390.483867 193.329412 
L 391.878964 192.608824 
L 392.809028 192.231373 
L 393.274061 192.162745 
L 393.739093 191.888235 
L 396.064254 191.133333 
L 396.529287 190.927451 
L 397.459351 190.27549 
L 398.854448 189.657843 
L 399.784513 189.143137 
L 402.574707 187.221569 
L 404.899868 185.951961 
L 407.690062 184.545098 
L 409.085159 184.133333 
L 410.480256 183.584314 
L 410.945288 183.241176 
L 411.875352 182.966667 
L 412.805417 182.589216 
L 413.270449 182.211765 
L 415.130579 181.559804 
L 416.060643 180.873529 
L 416.990708 180.496078 
L 417.920772 179.77549 
L 418.850837 179.50098 
L 419.315869 179.089216 
L 419.780901 179.020588 
L 420.710966 178.3 
L 421.641031 177.819608 
L 422.106063 177.613725 
L 422.571095 177.133333 
L 425.826321 175.829412 
L 426.756386 175.417647 
L 428.151483 174.971569 
L 429.081547 174.834314 
L 429.54658 174.628431 
L 430.011612 174.559804 
L 430.941677 174.148039 
L 431.406709 174.113725 
L 433.266838 173.427451 
L 434.661935 172.432353 
L 435.126967 172.260784 
L 436.057032 171.746078 
L 436.522064 171.608824 
L 439.312258 170.030392 
L 439.77729 169.927451 
L 441.172387 169.103922 
L 442.567484 168.623529 
L 443.497548 168.314706 
L 445.357678 167.697059 
L 446.287742 167.388235 
L 448.147871 167.010784 
L 448.612904 166.804902 
L 449.077936 166.736275 
L 450.008001 166.32451 
L 450.473033 166.255882 
L 450.938065 166.015686 
L 451.86813 165.844118 
L 453.263227 165.329412 
L 454.193291 165.226471 
L 455.588388 164.917647 
L 457.91355 164.505882 
L 470.004389 160.937255 
L 470.469421 160.456863 
L 471.399486 160.079412 
L 475.119744 158.672549 
L 475.584777 158.398039 
L 476.979874 157.986275 
L 477.909938 157.746078 
L 478.37497 157.437255 
L 478.840003 157.334314 
L 479.305035 156.922549 
L 480.700132 156.648039 
L 481.630197 156.201961 
L 482.095229 155.652941 
L 483.955358 155.206863 
L 487.210584 154.520588 
L 487.675616 154.520588 
L 488.140649 154.314706 
L 490.000778 153.971569 
L 490.46581 153.765686 
L 492.325939 153.422549 
L 493.256004 153.010784 
L 494.186068 152.839216 
L 496.51123 152.255882 
L 498.371359 151.672549 
L 498.836391 151.569608 
L 499.301424 151.329412 
L 500.231488 151.089216 
L 501.161553 150.711765 
L 502.091617 150.368627 
L 502.55665 150.059804 
L 503.486714 149.785294 
L 507.206973 148.481373 
L 508.137037 148.412745 
L 509.997166 147.863725 
L 510.462199 147.589216 
L 511.392263 147.314706 
L 513.717425 146.25098 
L 514.182457 146.216667 
L 519.297812 144.398039 
L 521.622974 143.780392 
L 522.553038 143.334314 
L 523.948135 143.02549 
L 525.808264 141.515686 
L 526.738329 141.241176 
L 527.203361 140.863725 
L 529.993555 139.8 
L 530.458587 139.491176 
L 531.388652 139.216667 
L 531.853684 138.907843 
L 534.178846 138.152941 
L 535.573943 137.329412 
L 536.038975 137.226471 
L 538.364136 135.956863 
L 539.759233 135.339216 
L 540.224266 134.996078 
L 541.15433 134.687255 
L 542.084395 134.138235 
L 542.549427 133.966667 
L 543.014459 133.623529 
L 549.059879 131.496078 
L 549.524911 131.393137 
L 549.989944 131.084314 
L 551.850073 130.706863 
L 552.780138 130.329412 
L 555.570331 128.991176 
L 556.035364 128.922549 
L 557.43046 128.133333 
L 558.825557 127.652941 
L 562.080783 126.314706 
L 562.545816 126.177451 
L 563.010848 125.868627 
L 563.940913 125.765686 
L 564.405945 125.456863 
L 565.336009 125.285294 
L 566.266074 124.839216 
L 566.731106 124.633333 
L 567.196139 124.564706 
L 568.126203 124.255882 
L 571.381429 123.123529 
L 572.776526 122.814706 
L 574.171623 122.265686 
L 576.031752 121.236275 
L 576.961817 120.858824 
L 577.426849 120.55 
L 578.356914 120.344118 
L 578.821946 120.069608 
L 579.286978 119.966667 
L 580.682075 119.177451 
L 581.61214 118.8 
L 583.472269 118.079412 
L 585.79743 117.290196 
L 586.727495 116.809804 
L 589.052656 116.020588 
L 591.84285 114.888235 
L 593.702979 114.030392 
L 598.353302 112.211765 
L 598.818335 111.902941 
L 600.678464 111.285294 
L 601.143496 111.285294 
L 602.073561 110.873529 
L 603.93369 109.363725 
L 604.398722 109.226471 
L 604.863754 108.951961 
L 605.328787 108.84902 
L 605.793819 108.608824 
L 606.258851 108.540196 
L 606.723884 108.197059 
L 607.188916 108.094118 
L 608.11898 107.510784 
L 609.514077 106.790196 
L 610.444142 106.412745 
L 610.909174 106.172549 
L 612.304271 105.863725 
L 614.629433 105.07451 
L 615.559497 104.765686 
L 616.954594 104.045098 
L 617.884659 103.59902 
L 618.814723 103.358824 
L 620.20982 102.706863 
L 624.395111 101.162745 
L 625.790208 100.304902 
L 626.25524 100.201961 
L 627.185305 99.755882 
L 628.115369 99.412745 
L 628.580401 99.00098 
L 629.510466 98.623529 
L 630.905563 98.143137 
L 631.370595 97.765686 
L 631.835627 97.731373 
L 632.765692 97.456863 
L 633.695757 97.148039 
L 634.160789 96.907843 
L 634.625821 96.839216 
L 636.020918 96.32451 
L 637.416015 95.809804 
L 639.276144 94.986275 
L 639.741176 94.917647 
L 643.461435 93.373529 
L 644.856532 92.927451 
L 645.786596 92.858824 
L 646.716661 92.481373 
L 649.506855 91.657843 
L 650.436919 91.623529 
L 654.157178 90.422549 
L 655.087242 89.907843 
L 655.552274 89.496078 
L 656.947371 88.672549 
L 657.877436 88.123529 
L 660.66763 87.231373 
L 661.132662 86.853922 
L 663.922856 85.687255 
L 665.782985 85.172549 
L 666.71305 84.760784 
L 667.178082 84.520588 
L 668.108146 84.246078 
L 668.573179 83.971569 
L 669.503243 83.8 
L 673.223502 82.187255 
L 673.688534 82.118627 
L 674.153566 81.809804 
L 674.618599 81.638235 
L 675.083631 81.226471 
L 675.548663 81.157843 
L 677.408792 80.437255 
L 679.268921 79.991176 
L 679.733954 79.922549 
L 680.198986 79.716667 
L 680.664018 79.682353 
L 681.594083 79.373529 
L 682.059115 79.339216 
L 683.454212 78.790196 
L 685.314341 78.241176 
L 686.244406 77.554902 
L 688.104535 76.52549 
L 689.499632 76.045098 
L 693.21989 74.295098 
L 693.684923 74.054902 
L 694.149955 73.608824 
L 696.940149 72.716667 
L 697.870213 72.339216 
L 698.800278 72.09902 
L 699.26531 71.858824 
L 699.730342 71.481373 
L 701.590472 71.00098 
L 702.055504 70.657843 
L 708.100924 68.461765 
L 709.030988 68.290196 
L 713.216279 66.814706 
L 714.146343 66.57451 
L 714.611376 66.368627 
L 715.076408 66.368627 
L 716.006473 65.991176 
L 716.936537 65.442157 
L 719.261699 64.652941 
L 720.656796 64.172549 
L 721.121828 64.103922 
L 722.051892 63.726471 
L 723.446989 63.417647 
L 724.842086 62.971569 
L 725.307119 62.868627 
L 725.772151 62.559804 
L 726.702215 62.353922 
L 736.002861 59.677451 
L 738.328023 59.265686 
L 739.258087 58.819608 
L 739.72312 58.510784 
L 743.443378 57.206863 
L 744.373443 56.932353 
L 746.233572 56.177451 
L 746.698604 55.8 
L 747.163636 55.8 
L 747.163636 55.8 
" clip-path="url(#pc28e0b57a3)" style="fill: none; stroke: #1f77b4; stroke-width: 1.5; stroke-linecap: square"/>
   </g>
   <g id="line2d_34">
    <path d="M 138.901396 307.8 
L 143.086687 307.697059 
L 146.806945 307.52549 
L 148.667074 307.52549 
L 149.132106 307.388235 
L 151.457268 307.285294 
L 154.247462 306.976471 
L 157.037655 306.873529 
L 157.96772 306.770588 
L 161.222946 306.633333 
L 164.478172 306.530392 
L 166.803334 306.461765 
L 172.848753 306.358824 
L 175.173915 306.290196 
L 178.429141 306.187255 
L 180.754302 306.118627 
L 185.869658 306.015686 
L 187.729787 305.844118 
L 189.589916 305.809804 
L 192.38011 305.706863 
L 194.240239 305.672549 
L 196.5654 305.603922 
L 198.42553 305.432353 
L 202.61082 305.329412 
L 203.540885 305.260784 
L 205.401014 305.157843 
L 208.191208 305.054902 
L 210.051337 304.951961 
L 218.421918 304.437255 
L 221.677144 304.334314 
L 223.072241 304.197059 
L 225.397403 304.094118 
L 230.047726 303.853922 
L 234.698048 303.785294 
L 236.558178 303.579412 
L 238.418307 303.476471 
L 243.533662 302.996078 
L 246.788888 302.618627 
L 248.183985 302.55 
L 251.904243 302.069608 
L 254.694437 302.00098 
L 256.089534 301.863725 
L 257.484631 301.760784 
L 270.505535 300.765686 
L 271.4356 300.594118 
L 274.225793 300.491176 
L 281.66631 300.045098 
L 284.921536 299.942157 
L 286.781665 299.736275 
L 289.106827 299.633333 
L 291.897021 299.530392 
L 294.222182 299.427451 
L 296.082311 299.393137 
L 298.407473 299.32451 
L 299.337537 299.187255 
L 305.847989 299.084314 
L 306.778054 298.981373 
L 312.358442 298.878431 
L 316.543732 298.672549 
L 319.798958 298.569608 
L 321.659087 298.363725 
L 324.914313 298.260784 
L 325.844378 298.089216 
L 328.16954 298.020588 
L 332.819862 297.951961 
L 334.679992 297.780392 
L 336.540121 297.746078 
L 337.935218 297.643137 
L 339.795347 297.471569 
L 344.44567 297.231373 
L 349.095993 297.128431 
L 353.281283 296.922549 
L 354.67638 296.888235 
L 355.606445 296.75098 
L 357.931606 296.648039 
L 358.861671 296.579412 
L 359.791736 296.510784 
L 360.7218 296.442157 
L 364.907091 296.373529 
L 366.302188 296.270588 
L 378.85806 295.447059 
L 381.183221 295.344118 
L 383.508383 295.27549 
L 390.018835 295.172549 
L 390.948899 295.035294 
L 397.459351 294.932353 
L 402.109674 294.692157 
L 403.039739 294.657843 
L 403.969803 294.554902 
L 406.294965 294.451961 
L 408.620126 294.383333 
L 410.945288 294.280392 
L 413.270449 294.211765 
L 417.45574 294.108824 
L 420.245934 294.005882 
L 426.756386 293.902941 
L 431.871741 293.628431 
L 433.73187 293.559804 
L 435.126967 293.456863 
L 441.637419 293.353922 
L 444.427613 293.25098 
L 452.798194 293.148039 
L 454.658323 293.113725 
L 460.238711 293.045098 
L 461.168776 292.976471 
L 467.679228 292.873529 
L 469.539357 292.839216 
L 481.630197 292.736275 
L 483.025293 292.59902 
L 503.951747 292.496078 
L 506.276908 292.427451 
L 518.367748 292.358824 
L 519.297812 292.290196 
L 521.622974 292.221569 
L 523.018071 292.084314 
L 525.808264 291.981373 
L 529.063491 291.844118 
L 533.248781 291.741176 
L 535.573943 291.672549 
L 538.829169 291.569608 
L 542.549427 291.398039 
L 544.874589 291.295098 
L 546.734718 291.260784 
L 550.920008 291.157843 
L 552.780138 291.123529 
L 558.825557 291.020588 
L 560.685687 290.986275 
L 563.010848 290.883333 
L 565.801042 290.780392 
L 569.056268 290.711765 
L 569.986332 290.643137 
L 581.147107 290.540196 
L 587.192527 290.197059 
L 589.517689 290.128431 
L 590.447753 290.02549 
L 591.377818 289.956863 
L 595.098076 289.853922 
L 597.88827 289.75098 
L 602.538593 289.648039 
L 604.863754 289.407843 
L 609.514077 289.304902 
L 610.444142 289.201961 
L 615.094465 289.09902 
L 617.419626 289.030392 
L 622.534982 288.996078 
L 623.465046 288.893137 
L 628.580401 288.790196 
L 629.510466 288.721569 
L 639.741176 288.618627 
L 642.53137 288.515686 
L 649.506855 288.412745 
L 651.366984 288.378431 
L 655.552274 288.309804 
L 656.482339 288.206863 
L 662.527759 288.103922 
L 664.85292 288.035294 
L 673.223502 287.932353 
L 674.618599 287.829412 
L 676.013695 287.726471 
L 677.408792 287.623529 
L 684.384277 287.520588 
L 687.17447 287.417647 
L 699.730342 287.314706 
L 703.915633 287.108824 
L 709.496021 287.005882 
L 710.426085 286.937255 
L 717.40157 286.868627 
L 718.331634 286.8 
L 723.446989 286.697059 
L 725.307119 286.662745 
L 731.817571 286.559804 
L 734.607764 286.456863 
L 742.513313 286.353922 
L 744.373443 286.319608 
L 747.163636 286.285294 
L 747.163636 286.285294 
" clip-path="url(#pc28e0b57a3)" style="fill: none; stroke: #ff7f0e; stroke-width: 1.5; stroke-linecap: square"/>
   </g>
   <g id="patch_3">
    <path d="M 108 320.4 
L 108 43.2 
" style="fill: none; stroke: #a9a9a9; stroke-width: 0.8; stroke-linejoin: miter; stroke-linecap: square"/>
   </g>
   <g id="patch_4">
    <path d="M 777.6 320.4 
L 777.6 43.2 
" style="fill: none"/>
   </g>
   <g id="patch_5">
    <path d="M 108 320.4 
L 777.6 320.4 
" style="fill: none; stroke: #a9a9a9; stroke-width: 0.8; stroke-linejoin: miter; stroke-linecap: square"/>
   </g>
   <g id="patch_6">
    <path d="M 108 43.2 
L 777.6 43.2 
" style="fill: none"/>
   </g>
   <g id="text_17">
    <!-- get_subscribe history -->
    <g style="fill: #a9a9a9" transform="translate(378.6075 37.2) scale(0.12 -0.12)">
     <defs>
      <path id="DejaVuSans-67" d="M 2906 1791 
Q 2906 2416 2648 2759 
Q 2391 3103 1925 3103 
Q 1463 3103 1205 2759 
Q 947 2416 947 1791 
Q 947 1169 1205 825 
Q 1463 481 1925 481 
Q 2391 481 2648 825 
Q 2906 1169 2906 1791 
z
M 3481 434 
Q 3481 -459 3084 -895 
Q 2688 -1331 1869 -1331 
Q 1566 -1331 1297 -1286 
Q 1028 -1241 775 -1147 
L 775 -588 
Q 1028 -725 1275 -790 
Q 1522 -856 1778 -856 
Q 2344 -856 2625 -561 
Q 2906 -266 2906 331 
L 2906 616 
Q 2728 306 2450 153 
Q 2172 0 1784 0 
Q 1141 0 747 490 
Q 353 981 353 1791 
Q 353 2603 747 3093 
Q 1141 3584 1784 3584 
Q 2172 3584 2450 3431 
Q 2728 3278 2906 2969 
L 2906 3500 
L 3481 3500 
L 3481 434 
z
" transform="scale(0.015625)"/>
      <path id="DejaVuSans-65" d="M 3597 1894 
L 3597 1613 
L 953 1613 
Q 991 1019 1311 708 
Q 1631 397 2203 397 
Q 2534 397 2845 478 
Q 3156 559 3463 722 
L 3463 178 
Q 3153 47 2828 -22 
Q 2503 -91 2169 -91 
Q 1331 -91 842 396 
Q 353 884 353 1716 
Q 353 2575 817 3079 
Q 1281 3584 2069 3584 
Q 2775 3584 3186 3129 
Q 3597 2675 3597 1894 
z
M 3022 2063 
Q 3016 2534 2758 2815 
Q 2500 3097 2075 3097 
Q 1594 3097 1305 2825 
Q 1016 2553 972 2059 
L 3022 2063 
z
" transform="scale(0.015625)"/>
      <path id="DejaVuSans-74" d="M 1172 4494 
L 1172 3500 
L 2356 3500 
L 2356 3053 
L 1172 3053 
L 1172 1153 
Q 1172 725 1289 603 
Q 1406 481 1766 481 
L 2356 481 
L 2356 0 
L 1766 0 
Q 1100 0 847 248 
Q 594 497 594 1153 
L 594 3053 
L 172 3053 
L 172 3500 
L 594 3500 
L 594 4494 
L 1172 4494 
z
" transform="scale(0.015625)"/>
      <path id="DejaVuSans-5f" d="M 3263 -1063 
L 3263 -1509 
L -63 -1509 
L -63 -1063 
L 3263 -1063 
z
" transform="scale(0.015625)"/>
      <path id="DejaVuSans-73" d="M 2834 3397 
L 2834 2853 
Q 2591 2978 2328 3040 
Q 2066 3103 1784 3103 
Q 1356 3103 1142 2972 
Q 928 2841 928 2578 
Q 928 2378 1081 2264 
Q 1234 2150 1697 2047 
L 1894 2003 
Q 2506 1872 2764 1633 
Q 3022 1394 3022 966 
Q 3022 478 2636 193 
Q 2250 -91 1575 -91 
Q 1294 -91 989 -36 
Q 684 19 347 128 
L 347 722 
Q 666 556 975 473 
Q 1284 391 1588 391 
Q 1994 391 2212 530 
Q 2431 669 2431 922 
Q 2431 1156 2273 1281 
Q 2116 1406 1581 1522 
L 1381 1569 
Q 847 1681 609 1914 
Q 372 2147 372 2553 
Q 372 3047 722 3315 
Q 1072 3584 1716 3584 
Q 2034 3584 2315 3537 
Q 2597 3491 2834 3397 
z
" transform="scale(0.015625)"/>
      <path id="DejaVuSans-75" d="M 544 1381 
L 544 3500 
L 1119 3500 
L 1119 1403 
Q 1119 906 1312 657 
Q 1506 409 1894 409 
Q 2359 409 2629 706 
Q 2900 1003 2900 1516 
L 2900 3500 
L 3475 3500 
L 3475 0 
L 2900 0 
L 2900 538 
Q 2691 219 2414 64 
Q 2138 -91 1772 -91 
Q 1169 -91 856 284 
Q 544 659 544 1381 
z
M 1991 3584 
L 1991 3584 
z
" transform="scale(0.015625)"/>
      <path id="DejaVuSans-62" d="M 3116 1747 
Q 3116 2381 2855 2742 
Q 2594 3103 2138 3103 
Q 1681 3103 1420 2742 
Q 1159 2381 1159 1747 
Q 1159 1113 1420 752 
Q 1681 391 2138 391 
Q 2594 391 2855 752 
Q 3116 1113 3116 1747 
z
M 1159 2969 
Q 1341 3281 1617 3432 
Q 1894 3584 2278 3584 
Q 2916 3584 3314 3078 
Q 3713 2572 3713 1747 
Q 3713 922 3314 415 
Q 2916 -91 2278 -91 
Q 1894 -91 1617 61 
Q 1341 213 1159 525 
L 1159 0 
L 581 0 
L 581 4863 
L 1159 4863 
L 1159 2969 
z
" transform="scale(0.015625)"/>
      <path id="DejaVuSans-63" d="M 3122 3366 
L 3122 2828 
Q 2878 2963 2633 3030 
Q 2388 3097 2138 3097 
Q 1578 3097 1268 2742 
Q 959 2388 959 1747 
Q 959 1106 1268 751 
Q 1578 397 2138 397 
Q 2388 397 2633 464 
Q 2878 531 3122 666 
L 3122 134 
Q 2881 22 2623 -34 
Q 2366 -91 2075 -91 
Q 1284 -91 818 406 
Q 353 903 353 1747 
Q 353 2603 823 3093 
Q 1294 3584 2113 3584 
Q 2378 3584 2631 3529 
Q 2884 3475 3122 3366 
z
" transform="scale(0.015625)"/>
      <path id="DejaVuSans-72" d="M 2631 2963 
Q 2534 3019 2420 3045 
Q 2306 3072 2169 3072 
Q 1681 3072 1420 2755 
Q 1159 2438 1159 1844 
L 1159 0 
L 581 0 
L 581 3500 
L 1159 3500 
L 1159 2956 
Q 1341 3275 1631 3429 
Q 1922 3584 2338 3584 
Q 2397 3584 2469 3576 
Q 2541 3569 2628 3553 
L 2631 2963 
z
" transform="scale(0.015625)"/>
      <path id="DejaVuSans-69" d="M 603 3500 
L 1178 3500 
L 1178 0 
L 603 0 
L 603 3500 
z
M 603 4863 
L 1178 4863 
L 1178 4134 
L 603 4134 
L 603 4863 
z
" transform="scale(0.015625)"/>
      <path id="DejaVuSans-20" transform="scale(0.015625)"/>
      <path id="DejaVuSans-68" d="M 3513 2113 
L 3513 0 
L 2938 0 
L 2938 2094 
Q 2938 2591 2744 2837 
Q 2550 3084 2163 3084 
Q 1697 3084 1428 2787 
Q 1159 2491 1159 1978 
L 1159 0 
L 581 0 
L 581 4863 
L 1159 4863 
L 1159 2956 
Q 1366 3272 1645 3428 
Q 1925 3584 2291 3584 
Q 2894 3584 3203 3211 
Q 3513 2838 3513 2113 
z
" transform="scale(0.015625)"/>
      <path id="DejaVuSans-6f" d="M 1959 3097 
Q 1497 3097 1228 2736 
Q 959 2375 959 1747 
Q 959 1119 1226 758 
Q 1494 397 1959 397 
Q 2419 397 2687 759 
Q 2956 1122 2956 1747 
Q 2956 2369 2687 2733 
Q 2419 3097 1959 3097 
z
M 1959 3584 
Q 2709 3584 3137 3096 
Q 3566 2609 3566 1747 
Q 3566 888 3137 398 
Q 2709 -91 1959 -91 
Q 1206 -91 779 398 
Q 353 888 353 1747 
Q 353 2609 779 3096 
Q 1206 3584 1959 3584 
z
" transform="scale(0.015625)"/>
      <path id="DejaVuSans-79" d="M 2059 -325 
Q 1816 -950 1584 -1140 
Q 1353 -1331 966 -1331 
L 506 -1331 
L 506 -850 
L 844 -850 
Q 1081 -850 1212 -737 
Q 1344 -625 1503 -206 
L 1606 56 
L 191 3500 
L 800 3500 
L 1894 763 
L 2988 3500 
L 3597 3500 
L 2059 -325 
z
" transform="scale(0.015625)"/>
     </defs>
     <use xlink:href="#DejaVuSans-67"/>
     <use xlink:href="#DejaVuSans-65" transform="translate(63.476562 0)"/>
     <use xlink:href="#DejaVuSans-74" transform="translate(125 0)"/>
     <use xlink:href="#DejaVuSans-5f" transform="translate(164.208984 0)"/>
     <use xlink:href="#DejaVuSans-73" transform="translate(214.208984 0)"/>
     <use xlink:href="#DejaVuSans-75" transform="translate(266.308594 0)"/>
     <use xlink:href="#DejaVuSans-62" transform="translate(329.6875 0)"/>
     <use xlink:href="#DejaVuSans-73" transform="translate(393.164062 0)"/>
     <use xlink:href="#DejaVuSans-63" transform="translate(445.263672 0)"/>
     <use xlink:href="#DejaVuSans-72" transform="translate(500.244141 0)"/>
     <use xlink:href="#DejaVuSans-69" transform="translate(541.357422 0)"/>
     <use xlink:href="#DejaVuSans-62" transform="translate(569.140625 0)"/>
     <use xlink:href="#DejaVuSans-65" transform="translate(632.617188 0)"/>
     <use xlink:href="#DejaVuSans-20" transform="translate(694.140625 0)"/>
     <use xlink:href="#DejaVuSans-68" transform="translate(725.927734 0)"/>
     <use xlink:href="#DejaVuSans-69" transform="translate(789.306641 0)"/>
     <use xlink:href="#DejaVuSans-73" transform="translate(817.089844 0)"/>
     <use xlink:href="#DejaVuSans-74" transform="translate(869.189453 0)"/>
     <use xlink:href="#DejaVuSans-6f" transform="translate(908.398438 0)"/>
     <use xlink:href="#DejaVuSans-72" transform="translate(969.580078 0)"/>
     <use xlink:href="#DejaVuSans-79" transform="translate(1010.693359 0)"/>
    </g>
   </g>
   <g id="legend_1">
    <g id="line2d_35">
     <path d="M 815.08 328.498438 
L 825.08 328.498438 
L 835.08 328.498438 
" style="fill: none; stroke: #1f77b4; stroke-width: 1.5; stroke-linecap: square"/>
    </g>
    <g id="text_18">
     <!-- star -->
     <g style="fill: #a9a9a9" transform="translate(843.08 331.998438) scale(0.1 -0.1)">
      <defs>
       <path id="DejaVuSans-61" d="M 2194 1759 
Q 1497 1759 1228 1600 
Q 959 1441 959 1056 
Q 959 750 1161 570 
Q 1363 391 1709 391 
Q 2188 391 2477 730 
Q 2766 1069 2766 1631 
L 2766 1759 
L 2194 1759 
z
M 3341 1997 
L 3341 0 
L 2766 0 
L 2766 531 
Q 2569 213 2275 61 
Q 1981 -91 1556 -91 
Q 1019 -91 701 211 
Q 384 513 384 1019 
Q 384 1609 779 1909 
Q 1175 2209 1959 2209 
L 2766 2209 
L 2766 2266 
Q 2766 2663 2505 2880 
Q 2244 3097 1772 3097 
Q 1472 3097 1187 3025 
Q 903 2953 641 2809 
L 641 3341 
Q 956 3463 1253 3523 
Q 1550 3584 1831 3584 
Q 2591 3584 2966 3190 
Q 3341 2797 3341 1997 
z
" transform="scale(0.015625)"/>
      </defs>
      <use xlink:href="#DejaVuSans-73"/>
      <use xlink:href="#DejaVuSans-74" transform="translate(52.099609 0)"/>
      <use xlink:href="#DejaVuSans-61" transform="translate(91.308594 0)"/>
      <use xlink:href="#DejaVuSans-72" transform="translate(152.587891 0)"/>
     </g>
    </g>
    <g id="line2d_36">
     <path d="M 815.08 343.176562 
L 825.08 343.176562 
L 835.08 343.176562 
" style="fill: none; stroke: #ff7f0e; stroke-width: 1.5; stroke-linecap: square"/>
    </g>
    <g id="text_19">
     <!-- fork -->
     <g style="fill: #a9a9a9" transform="translate(843.08 346.676562) scale(0.1 -0.1)">
      <defs>
       <path id="DejaVuSans-66" d="M 2375 4863 
L 2375 4384 
L 1825 4384 
Q 1516 4384 1395 4259 
Q 1275 4134 1275 3809 
L 1275 3500 
L 2222 3500 
L 2222 3053 
L 1275 3053 
L 1275 0 
L 697 0 
L 697 3053 
L 147 3053 
L 147 3500 
L 697 3500 
L 697 3744 
Q 697 4328 969 4595 
Q 1241 4863 1831 4863 
L 2375 4863 
z
" transform="scale(0.015625)"/>
       <path id="DejaVuSans-6b" d="M 581 4863 
L 1159 4863 
L 1159 1991 
L 2875 3500 
L 3609 3500 
L 1753 1863 
L 3688 0 
L 2938 0 
L 1159 1709 
L 1159 0 
L 581 0 
L 581 4863 
z
" transform="scale(0.015625)"/>
      </defs>
      <use xlink:href="#DejaVuSans-66"/>
      <use xlink:href="#DejaVuSans-6f" transform="translate(35.205078 0)"/>
      <use xlink:href="#DejaVuSans-72" transform="translate(96.386719 0)"/>
      <use xlink:href="#DejaVuSans-6b" transform="translate(137.5 0)"/>
     </g>
    </g>
   </g>
  </g>
 </g>
 <defs>
  <clipPath id="pc28e0b57a3">
   <rect x="108" y="43.2" width="669.6" height="277.2"/>
  </clipPath>
 </defs>
</svg>
