<?xml version="1.0" encoding="utf-8" standalone="no"?>
<!DOCTYPE svg PUBLIC "-//W3C//DTD SVG 1.1//EN"
  "http://www.w3.org/Graphics/SVG/1.1/DTD/svg11.dtd">
<svg xmlns:xlink="http://www.w3.org/1999/xlink" width="864pt" height="360pt" viewBox="0 0 864 360" xmlns="http://www.w3.org/2000/svg" version="1.1">
 <metadata>
  <rdf:RDF xmlns:dc="http://purl.org/dc/elements/1.1/" xmlns:cc="http://creativecommons.org/ns#" xmlns:rdf="http://www.w3.org/1999/02/22-rdf-syntax-ns#">
   <cc:Work>
    <dc:type rdf:resource="http://purl.org/dc/dcmitype/StillImage"/>
    <dc:date>2025-02-21T20:06:12.823211</dc:date>
    <dc:format>image/svg+xml</dc:format>
    <dc:creator>
     <cc:Agent>
      <dc:title>Matplotlib v3.10.0, https://matplotlib.org/</dc:title>
     </cc:Agent>
    </dc:creator>
   </cc:Work>
  </rdf:RDF>
 </metadata>
 <defs>
  <style type="text/css">*{stroke-linejoin: round; stroke-linecap: butt}</style>
 </defs>
 <g id="figure_1">
  <g id="patch_1">
   <path d="M 0 360 
L 864 360 
L 864 0 
L 0 0 
L 0 360 
z
" style="fill: none; opacity: 0"/>
  </g>
  <g id="axes_1">
   <g id="patch_2">
    <path d="M 108 320.4 
L 777.6 320.4 
L 777.6 43.2 
L 108 43.2 
L 108 320.4 
z
" style="fill: none; opacity: 0"/>
   </g>
   <g id="matplotlib.axis_1">
    <g id="xtick_1">
     <g id="line2d_1">
      <path d="M 127.732444 320.4 
L 127.732444 43.2 
" clip-path="url(#pab66da00ec)" style="fill: none; stroke-dasharray: 5.12,1.28,0.8,1.28; stroke-dashoffset: 0; stroke: #b0b0b0; stroke-width: 0.8"/>
     </g>
     <g id="line2d_2">
      <defs>
       <path id="mfbc1e0bdd0" d="M 0 0 
L 0 3.5 
" style="stroke: #a9a9a9; stroke-width: 0.8"/>
      </defs>
      <g>
       <use xlink:href="#mfbc1e0bdd0" x="127.732444" y="320.4" style="fill: #a9a9a9; stroke: #a9a9a9; stroke-width: 0.8"/>
      </g>
     </g>
     <g id="text_1">
      <!-- 2021-07 -->
      <g style="fill: #a9a9a9" transform="translate(106.841037 334.998438) scale(0.1 -0.1)">
       <defs>
        <path id="DejaVuSans-32" d="M 1228 531 
L 3431 531 
L 3431 0 
L 469 0 
L 469 531 
Q 828 903 1448 1529 
Q 2069 2156 2228 2338 
Q 2531 2678 2651 2914 
Q 2772 3150 2772 3378 
Q 2772 3750 2511 3984 
Q 2250 4219 1831 4219 
Q 1534 4219 1204 4116 
Q 875 4013 500 3803 
L 500 4441 
Q 881 4594 1212 4672 
Q 1544 4750 1819 4750 
Q 2544 4750 2975 4387 
Q 3406 4025 3406 3419 
Q 3406 3131 3298 2873 
Q 3191 2616 2906 2266 
Q 2828 2175 2409 1742 
Q 1991 1309 1228 531 
z
" transform="scale(0.015625)"/>
        <path id="DejaVuSans-30" d="M 2034 4250 
Q 1547 4250 1301 3770 
Q 1056 3291 1056 2328 
Q 1056 1369 1301 889 
Q 1547 409 2034 409 
Q 2525 409 2770 889 
Q 3016 1369 3016 2328 
Q 3016 3291 2770 3770 
Q 2525 4250 2034 4250 
z
M 2034 4750 
Q 2819 4750 3233 4129 
Q 3647 3509 3647 2328 
Q 3647 1150 3233 529 
Q 2819 -91 2034 -91 
Q 1250 -91 836 529 
Q 422 1150 422 2328 
Q 422 3509 836 4129 
Q 1250 4750 2034 4750 
z
" transform="scale(0.015625)"/>
        <path id="DejaVuSans-31" d="M 794 531 
L 1825 531 
L 1825 4091 
L 703 3866 
L 703 4441 
L 1819 4666 
L 2450 4666 
L 2450 531 
L 3481 531 
L 3481 0 
L 794 0 
L 794 531 
z
" transform="scale(0.015625)"/>
        <path id="DejaVuSans-2d" d="M 313 2009 
L 1997 2009 
L 1997 1497 
L 313 1497 
L 313 2009 
z
" transform="scale(0.015625)"/>
        <path id="DejaVuSans-37" d="M 525 4666 
L 3525 4666 
L 3525 4397 
L 1831 0 
L 1172 0 
L 2766 4134 
L 525 4134 
L 525 4666 
z
" transform="scale(0.015625)"/>
       </defs>
       <use xlink:href="#DejaVuSans-32"/>
       <use xlink:href="#DejaVuSans-30" transform="translate(63.623047 0)"/>
       <use xlink:href="#DejaVuSans-32" transform="translate(127.246094 0)"/>
       <use xlink:href="#DejaVuSans-31" transform="translate(190.869141 0)"/>
       <use xlink:href="#DejaVuSans-2d" transform="translate(254.492188 0)"/>
       <use xlink:href="#DejaVuSans-30" transform="translate(290.576172 0)"/>
       <use xlink:href="#DejaVuSans-37" transform="translate(354.199219 0)"/>
      </g>
     </g>
    </g>
    <g id="xtick_2">
     <g id="line2d_3">
      <path d="M 213.363803 320.4 
L 213.363803 43.2 
" clip-path="url(#pab66da00ec)" style="fill: none; stroke-dasharray: 5.12,1.28,0.8,1.28; stroke-dashoffset: 0; stroke: #b0b0b0; stroke-width: 0.8"/>
     </g>
     <g id="line2d_4">
      <g>
       <use xlink:href="#mfbc1e0bdd0" x="213.363803" y="320.4" style="fill: #a9a9a9; stroke: #a9a9a9; stroke-width: 0.8"/>
      </g>
     </g>
     <g id="text_2">
      <!-- 2022-01 -->
      <g style="fill: #a9a9a9" transform="translate(192.472397 334.998438) scale(0.1 -0.1)">
       <use xlink:href="#DejaVuSans-32"/>
       <use xlink:href="#DejaVuSans-30" transform="translate(63.623047 0)"/>
       <use xlink:href="#DejaVuSans-32" transform="translate(127.246094 0)"/>
       <use xlink:href="#DejaVuSans-32" transform="translate(190.869141 0)"/>
       <use xlink:href="#DejaVuSans-2d" transform="translate(254.492188 0)"/>
       <use xlink:href="#DejaVuSans-30" transform="translate(290.576172 0)"/>
       <use xlink:href="#DejaVuSans-31" transform="translate(354.199219 0)"/>
      </g>
     </g>
    </g>
    <g id="xtick_3">
     <g id="line2d_5">
      <path d="M 297.598999 320.4 
L 297.598999 43.2 
" clip-path="url(#pab66da00ec)" style="fill: none; stroke-dasharray: 5.12,1.28,0.8,1.28; stroke-dashoffset: 0; stroke: #b0b0b0; stroke-width: 0.8"/>
     </g>
     <g id="line2d_6">
      <g>
       <use xlink:href="#mfbc1e0bdd0" x="297.598999" y="320.4" style="fill: #a9a9a9; stroke: #a9a9a9; stroke-width: 0.8"/>
      </g>
     </g>
     <g id="text_3">
      <!-- 2022-07 -->
      <g style="fill: #a9a9a9" transform="translate(276.707593 334.998438) scale(0.1 -0.1)">
       <use xlink:href="#DejaVuSans-32"/>
       <use xlink:href="#DejaVuSans-30" transform="translate(63.623047 0)"/>
       <use xlink:href="#DejaVuSans-32" transform="translate(127.246094 0)"/>
       <use xlink:href="#DejaVuSans-32" transform="translate(190.869141 0)"/>
       <use xlink:href="#DejaVuSans-2d" transform="translate(254.492188 0)"/>
       <use xlink:href="#DejaVuSans-30" transform="translate(290.576172 0)"/>
       <use xlink:href="#DejaVuSans-37" transform="translate(354.199219 0)"/>
      </g>
     </g>
    </g>
    <g id="xtick_4">
     <g id="line2d_7">
      <path d="M 383.230359 320.4 
L 383.230359 43.2 
" clip-path="url(#pab66da00ec)" style="fill: none; stroke-dasharray: 5.12,1.28,0.8,1.28; stroke-dashoffset: 0; stroke: #b0b0b0; stroke-width: 0.8"/>
     </g>
     <g id="line2d_8">
      <g>
       <use xlink:href="#mfbc1e0bdd0" x="383.230359" y="320.4" style="fill: #a9a9a9; stroke: #a9a9a9; stroke-width: 0.8"/>
      </g>
     </g>
     <g id="text_4">
      <!-- 2023-01 -->
      <g style="fill: #a9a9a9" transform="translate(362.338952 334.998438) scale(0.1 -0.1)">
       <defs>
        <path id="DejaVuSans-33" d="M 2597 2516 
Q 3050 2419 3304 2112 
Q 3559 1806 3559 1356 
Q 3559 666 3084 287 
Q 2609 -91 1734 -91 
Q 1441 -91 1130 -33 
Q 819 25 488 141 
L 488 750 
Q 750 597 1062 519 
Q 1375 441 1716 441 
Q 2309 441 2620 675 
Q 2931 909 2931 1356 
Q 2931 1769 2642 2001 
Q 2353 2234 1838 2234 
L 1294 2234 
L 1294 2753 
L 1863 2753 
Q 2328 2753 2575 2939 
Q 2822 3125 2822 3475 
Q 2822 3834 2567 4026 
Q 2313 4219 1838 4219 
Q 1578 4219 1281 4162 
Q 984 4106 628 3988 
L 628 4550 
Q 988 4650 1302 4700 
Q 1616 4750 1894 4750 
Q 2613 4750 3031 4423 
Q 3450 4097 3450 3541 
Q 3450 3153 3228 2886 
Q 3006 2619 2597 2516 
z
" transform="scale(0.015625)"/>
       </defs>
       <use xlink:href="#DejaVuSans-32"/>
       <use xlink:href="#DejaVuSans-30" transform="translate(63.623047 0)"/>
       <use xlink:href="#DejaVuSans-32" transform="translate(127.246094 0)"/>
       <use xlink:href="#DejaVuSans-33" transform="translate(190.869141 0)"/>
       <use xlink:href="#DejaVuSans-2d" transform="translate(254.492188 0)"/>
       <use xlink:href="#DejaVuSans-30" transform="translate(290.576172 0)"/>
       <use xlink:href="#DejaVuSans-31" transform="translate(354.199219 0)"/>
      </g>
     </g>
    </g>
    <g id="xtick_5">
     <g id="line2d_9">
      <path d="M 467.465555 320.4 
L 467.465555 43.2 
" clip-path="url(#pab66da00ec)" style="fill: none; stroke-dasharray: 5.12,1.28,0.8,1.28; stroke-dashoffset: 0; stroke: #b0b0b0; stroke-width: 0.8"/>
     </g>
     <g id="line2d_10">
      <g>
       <use xlink:href="#mfbc1e0bdd0" x="467.465555" y="320.4" style="fill: #a9a9a9; stroke: #a9a9a9; stroke-width: 0.8"/>
      </g>
     </g>
     <g id="text_5">
      <!-- 2023-07 -->
      <g style="fill: #a9a9a9" transform="translate(446.574148 334.998438) scale(0.1 -0.1)">
       <use xlink:href="#DejaVuSans-32"/>
       <use xlink:href="#DejaVuSans-30" transform="translate(63.623047 0)"/>
       <use xlink:href="#DejaVuSans-32" transform="translate(127.246094 0)"/>
       <use xlink:href="#DejaVuSans-33" transform="translate(190.869141 0)"/>
       <use xlink:href="#DejaVuSans-2d" transform="translate(254.492188 0)"/>
       <use xlink:href="#DejaVuSans-30" transform="translate(290.576172 0)"/>
       <use xlink:href="#DejaVuSans-37" transform="translate(354.199219 0)"/>
      </g>
     </g>
    </g>
    <g id="xtick_6">
     <g id="line2d_11">
      <path d="M 553.096914 320.4 
L 553.096914 43.2 
" clip-path="url(#pab66da00ec)" style="fill: none; stroke-dasharray: 5.12,1.28,0.8,1.28; stroke-dashoffset: 0; stroke: #b0b0b0; stroke-width: 0.8"/>
     </g>
     <g id="line2d_12">
      <g>
       <use xlink:href="#mfbc1e0bdd0" x="553.096914" y="320.4" style="fill: #a9a9a9; stroke: #a9a9a9; stroke-width: 0.8"/>
      </g>
     </g>
     <g id="text_6">
      <!-- 2024-01 -->
      <g style="fill: #a9a9a9" transform="translate(532.205508 334.998438) scale(0.1 -0.1)">
       <defs>
        <path id="DejaVuSans-34" d="M 2419 4116 
L 825 1625 
L 2419 1625 
L 2419 4116 
z
M 2253 4666 
L 3047 4666 
L 3047 1625 
L 3713 1625 
L 3713 1100 
L 3047 1100 
L 3047 0 
L 2419 0 
L 2419 1100 
L 313 1100 
L 313 1709 
L 2253 4666 
z
" transform="scale(0.015625)"/>
       </defs>
       <use xlink:href="#DejaVuSans-32"/>
       <use xlink:href="#DejaVuSans-30" transform="translate(63.623047 0)"/>
       <use xlink:href="#DejaVuSans-32" transform="translate(127.246094 0)"/>
       <use xlink:href="#DejaVuSans-34" transform="translate(190.869141 0)"/>
       <use xlink:href="#DejaVuSans-2d" transform="translate(254.492188 0)"/>
       <use xlink:href="#DejaVuSans-30" transform="translate(290.576172 0)"/>
       <use xlink:href="#DejaVuSans-31" transform="translate(354.199219 0)"/>
      </g>
     </g>
    </g>
    <g id="xtick_7">
     <g id="line2d_13">
      <path d="M 637.797498 320.4 
L 637.797498 43.2 
" clip-path="url(#pab66da00ec)" style="fill: none; stroke-dasharray: 5.12,1.28,0.8,1.28; stroke-dashoffset: 0; stroke: #b0b0b0; stroke-width: 0.8"/>
     </g>
     <g id="line2d_14">
      <g>
       <use xlink:href="#mfbc1e0bdd0" x="637.797498" y="320.4" style="fill: #a9a9a9; stroke: #a9a9a9; stroke-width: 0.8"/>
      </g>
     </g>
     <g id="text_7">
      <!-- 2024-07 -->
      <g style="fill: #a9a9a9" transform="translate(616.906092 334.998438) scale(0.1 -0.1)">
       <use xlink:href="#DejaVuSans-32"/>
       <use xlink:href="#DejaVuSans-30" transform="translate(63.623047 0)"/>
       <use xlink:href="#DejaVuSans-32" transform="translate(127.246094 0)"/>
       <use xlink:href="#DejaVuSans-34" transform="translate(190.869141 0)"/>
       <use xlink:href="#DejaVuSans-2d" transform="translate(254.492188 0)"/>
       <use xlink:href="#DejaVuSans-30" transform="translate(290.576172 0)"/>
       <use xlink:href="#DejaVuSans-37" transform="translate(354.199219 0)"/>
      </g>
     </g>
    </g>
    <g id="xtick_8">
     <g id="line2d_15">
      <path d="M 723.428857 320.4 
L 723.428857 43.2 
" clip-path="url(#pab66da00ec)" style="fill: none; stroke-dasharray: 5.12,1.28,0.8,1.28; stroke-dashoffset: 0; stroke: #b0b0b0; stroke-width: 0.8"/>
     </g>
     <g id="line2d_16">
      <g>
       <use xlink:href="#mfbc1e0bdd0" x="723.428857" y="320.4" style="fill: #a9a9a9; stroke: #a9a9a9; stroke-width: 0.8"/>
      </g>
     </g>
     <g id="text_8">
      <!-- 2025-01 -->
      <g style="fill: #a9a9a9" transform="translate(702.537451 334.998438) scale(0.1 -0.1)">
       <defs>
        <path id="DejaVuSans-35" d="M 691 4666 
L 3169 4666 
L 3169 4134 
L 1269 4134 
L 1269 2991 
Q 1406 3038 1543 3061 
Q 1681 3084 1819 3084 
Q 2600 3084 3056 2656 
Q 3513 2228 3513 1497 
Q 3513 744 3044 326 
Q 2575 -91 1722 -91 
Q 1428 -91 1123 -41 
Q 819 9 494 109 
L 494 744 
Q 775 591 1075 516 
Q 1375 441 1709 441 
Q 2250 441 2565 725 
Q 2881 1009 2881 1497 
Q 2881 1984 2565 2268 
Q 2250 2553 1709 2553 
Q 1456 2553 1204 2497 
Q 953 2441 691 2322 
L 691 4666 
z
" transform="scale(0.015625)"/>
       </defs>
       <use xlink:href="#DejaVuSans-32"/>
       <use xlink:href="#DejaVuSans-30" transform="translate(63.623047 0)"/>
       <use xlink:href="#DejaVuSans-32" transform="translate(127.246094 0)"/>
       <use xlink:href="#DejaVuSans-35" transform="translate(190.869141 0)"/>
       <use xlink:href="#DejaVuSans-2d" transform="translate(254.492188 0)"/>
       <use xlink:href="#DejaVuSans-30" transform="translate(290.576172 0)"/>
       <use xlink:href="#DejaVuSans-31" transform="translate(354.199219 0)"/>
      </g>
     </g>
    </g>
   </g>
   <g id="matplotlib.axis_2">
    <g id="ytick_1">
     <g id="line2d_17">
      <path d="M 108 307.834332 
L 777.6 307.834332 
" clip-path="url(#pab66da00ec)" style="fill: none; stroke-dasharray: 5.12,1.28,0.8,1.28; stroke-dashoffset: 0; stroke: #b0b0b0; stroke-width: 0.8"/>
     </g>
     <g id="line2d_18">
      <defs>
       <path id="m65e1014b88" d="M 0 0 
L -3.5 0 
" style="stroke: #a9a9a9; stroke-width: 0.8"/>
      </defs>
      <g>
       <use xlink:href="#m65e1014b88" x="108" y="307.834332" style="fill: #a9a9a9; stroke: #a9a9a9; stroke-width: 0.8"/>
      </g>
     </g>
     <g id="text_9">
      <!-- 0 -->
      <g style="fill: #a9a9a9" transform="translate(94.6375 311.633551) scale(0.1 -0.1)">
       <use xlink:href="#DejaVuSans-30"/>
      </g>
     </g>
    </g>
    <g id="ytick_2">
     <g id="line2d_19">
      <path d="M 108 273.501907 
L 777.6 273.501907 
" clip-path="url(#pab66da00ec)" style="fill: none; stroke-dasharray: 5.12,1.28,0.8,1.28; stroke-dashoffset: 0; stroke: #b0b0b0; stroke-width: 0.8"/>
     </g>
     <g id="line2d_20">
      <g>
       <use xlink:href="#m65e1014b88" x="108" y="273.501907" style="fill: #a9a9a9; stroke: #a9a9a9; stroke-width: 0.8"/>
      </g>
     </g>
     <g id="text_10">
      <!-- 1000 -->
      <g style="fill: #a9a9a9" transform="translate(75.55 277.301126) scale(0.1 -0.1)">
       <use xlink:href="#DejaVuSans-31"/>
       <use xlink:href="#DejaVuSans-30" transform="translate(63.623047 0)"/>
       <use xlink:href="#DejaVuSans-30" transform="translate(127.246094 0)"/>
       <use xlink:href="#DejaVuSans-30" transform="translate(190.869141 0)"/>
      </g>
     </g>
    </g>
    <g id="ytick_3">
     <g id="line2d_21">
      <path d="M 108 239.169482 
L 777.6 239.169482 
" clip-path="url(#pab66da00ec)" style="fill: none; stroke-dasharray: 5.12,1.28,0.8,1.28; stroke-dashoffset: 0; stroke: #b0b0b0; stroke-width: 0.8"/>
     </g>
     <g id="line2d_22">
      <g>
       <use xlink:href="#m65e1014b88" x="108" y="239.169482" style="fill: #a9a9a9; stroke: #a9a9a9; stroke-width: 0.8"/>
      </g>
     </g>
     <g id="text_11">
      <!-- 2000 -->
      <g style="fill: #a9a9a9" transform="translate(75.55 242.968701) scale(0.1 -0.1)">
       <use xlink:href="#DejaVuSans-32"/>
       <use xlink:href="#DejaVuSans-30" transform="translate(63.623047 0)"/>
       <use xlink:href="#DejaVuSans-30" transform="translate(127.246094 0)"/>
       <use xlink:href="#DejaVuSans-30" transform="translate(190.869141 0)"/>
      </g>
     </g>
    </g>
    <g id="ytick_4">
     <g id="line2d_23">
      <path d="M 108 204.837057 
L 777.6 204.837057 
" clip-path="url(#pab66da00ec)" style="fill: none; stroke-dasharray: 5.12,1.28,0.8,1.28; stroke-dashoffset: 0; stroke: #b0b0b0; stroke-width: 0.8"/>
     </g>
     <g id="line2d_24">
      <g>
       <use xlink:href="#m65e1014b88" x="108" y="204.837057" style="fill: #a9a9a9; stroke: #a9a9a9; stroke-width: 0.8"/>
      </g>
     </g>
     <g id="text_12">
      <!-- 3000 -->
      <g style="fill: #a9a9a9" transform="translate(75.55 208.636276) scale(0.1 -0.1)">
       <use xlink:href="#DejaVuSans-33"/>
       <use xlink:href="#DejaVuSans-30" transform="translate(63.623047 0)"/>
       <use xlink:href="#DejaVuSans-30" transform="translate(127.246094 0)"/>
       <use xlink:href="#DejaVuSans-30" transform="translate(190.869141 0)"/>
      </g>
     </g>
    </g>
    <g id="ytick_5">
     <g id="line2d_25">
      <path d="M 108 170.504632 
L 777.6 170.504632 
" clip-path="url(#pab66da00ec)" style="fill: none; stroke-dasharray: 5.12,1.28,0.8,1.28; stroke-dashoffset: 0; stroke: #b0b0b0; stroke-width: 0.8"/>
     </g>
     <g id="line2d_26">
      <g>
       <use xlink:href="#m65e1014b88" x="108" y="170.504632" style="fill: #a9a9a9; stroke: #a9a9a9; stroke-width: 0.8"/>
      </g>
     </g>
     <g id="text_13">
      <!-- 4000 -->
      <g style="fill: #a9a9a9" transform="translate(75.55 174.303851) scale(0.1 -0.1)">
       <use xlink:href="#DejaVuSans-34"/>
       <use xlink:href="#DejaVuSans-30" transform="translate(63.623047 0)"/>
       <use xlink:href="#DejaVuSans-30" transform="translate(127.246094 0)"/>
       <use xlink:href="#DejaVuSans-30" transform="translate(190.869141 0)"/>
      </g>
     </g>
    </g>
    <g id="ytick_6">
     <g id="line2d_27">
      <path d="M 108 136.172207 
L 777.6 136.172207 
" clip-path="url(#pab66da00ec)" style="fill: none; stroke-dasharray: 5.12,1.28,0.8,1.28; stroke-dashoffset: 0; stroke: #b0b0b0; stroke-width: 0.8"/>
     </g>
     <g id="line2d_28">
      <g>
       <use xlink:href="#m65e1014b88" x="108" y="136.172207" style="fill: #a9a9a9; stroke: #a9a9a9; stroke-width: 0.8"/>
      </g>
     </g>
     <g id="text_14">
      <!-- 5000 -->
      <g style="fill: #a9a9a9" transform="translate(75.55 139.971426) scale(0.1 -0.1)">
       <use xlink:href="#DejaVuSans-35"/>
       <use xlink:href="#DejaVuSans-30" transform="translate(63.623047 0)"/>
       <use xlink:href="#DejaVuSans-30" transform="translate(127.246094 0)"/>
       <use xlink:href="#DejaVuSans-30" transform="translate(190.869141 0)"/>
      </g>
     </g>
    </g>
    <g id="ytick_7">
     <g id="line2d_29">
      <path d="M 108 101.839782 
L 777.6 101.839782 
" clip-path="url(#pab66da00ec)" style="fill: none; stroke-dasharray: 5.12,1.28,0.8,1.28; stroke-dashoffset: 0; stroke: #b0b0b0; stroke-width: 0.8"/>
     </g>
     <g id="line2d_30">
      <g>
       <use xlink:href="#m65e1014b88" x="108" y="101.839782" style="fill: #a9a9a9; stroke: #a9a9a9; stroke-width: 0.8"/>
      </g>
     </g>
     <g id="text_15">
      <!-- 6000 -->
      <g style="fill: #a9a9a9" transform="translate(75.55 105.639001) scale(0.1 -0.1)">
       <defs>
        <path id="DejaVuSans-36" d="M 2113 2584 
Q 1688 2584 1439 2293 
Q 1191 2003 1191 1497 
Q 1191 994 1439 701 
Q 1688 409 2113 409 
Q 2538 409 2786 701 
Q 3034 994 3034 1497 
Q 3034 2003 2786 2293 
Q 2538 2584 2113 2584 
z
M 3366 4563 
L 3366 3988 
Q 3128 4100 2886 4159 
Q 2644 4219 2406 4219 
Q 1781 4219 1451 3797 
Q 1122 3375 1075 2522 
Q 1259 2794 1537 2939 
Q 1816 3084 2150 3084 
Q 2853 3084 3261 2657 
Q 3669 2231 3669 1497 
Q 3669 778 3244 343 
Q 2819 -91 2113 -91 
Q 1303 -91 875 529 
Q 447 1150 447 2328 
Q 447 3434 972 4092 
Q 1497 4750 2381 4750 
Q 2619 4750 2861 4703 
Q 3103 4656 3366 4563 
z
" transform="scale(0.015625)"/>
       </defs>
       <use xlink:href="#DejaVuSans-36"/>
       <use xlink:href="#DejaVuSans-30" transform="translate(63.623047 0)"/>
       <use xlink:href="#DejaVuSans-30" transform="translate(127.246094 0)"/>
       <use xlink:href="#DejaVuSans-30" transform="translate(190.869141 0)"/>
      </g>
     </g>
    </g>
    <g id="ytick_8">
     <g id="line2d_31">
      <path d="M 108 67.507357 
L 777.6 67.507357 
" clip-path="url(#pab66da00ec)" style="fill: none; stroke-dasharray: 5.12,1.28,0.8,1.28; stroke-dashoffset: 0; stroke: #b0b0b0; stroke-width: 0.8"/>
     </g>
     <g id="line2d_32">
      <g>
       <use xlink:href="#m65e1014b88" x="108" y="67.507357" style="fill: #a9a9a9; stroke: #a9a9a9; stroke-width: 0.8"/>
      </g>
     </g>
     <g id="text_16">
      <!-- 7000 -->
      <g style="fill: #a9a9a9" transform="translate(75.55 71.306576) scale(0.1 -0.1)">
       <use xlink:href="#DejaVuSans-37"/>
       <use xlink:href="#DejaVuSans-30" transform="translate(63.623047 0)"/>
       <use xlink:href="#DejaVuSans-30" transform="translate(127.246094 0)"/>
       <use xlink:href="#DejaVuSans-30" transform="translate(190.869141 0)"/>
      </g>
     </g>
    </g>
   </g>
   <g id="line2d_33">
    <path d="M 138.436364 307.731335 
L 141.228691 307.491008 
L 141.694078 307.285014 
L 143.55563 307.044687 
L 145.417181 306.66703 
L 146.347957 306.5297 
L 148.674896 306.323706 
L 149.605671 305.946049 
L 150.071059 305.328065 
L 150.536447 305.019074 
L 151.001835 303.954768 
L 151.467223 303.886104 
L 151.932611 303.508447 
L 152.863386 303.027793 
L 154.724937 301.517166 
L 156.586489 300.590191 
L 157.982652 299.937875 
L 158.44804 299.182561 
L 159.378816 298.495913 
L 159.844204 298.289918 
L 164.498082 297.60327 
L 164.96347 297.397275 
L 168.221184 297.122616 
L 170.082736 296.676294 
L 173.805838 296.161308 
L 174.271226 295.920981 
L 174.736614 295.852316 
L 175.667389 295.543324 
L 178.925104 294.994005 
L 179.85588 294.719346 
L 184.04437 293.998365 
L 184.975146 293.792371 
L 185.905922 293.758038 
L 187.767473 293.311717 
L 188.232861 292.659401 
L 189.629024 292.110082 
L 191.025188 291.732425 
L 191.490575 291.492098 
L 192.421351 291.320436 
L 194.282902 290.771117 
L 195.213678 290.702452 
L 196.144454 290.462125 
L 198.006005 289.981471 
L 198.471393 289.947139 
L 199.402168 289.500817 
L 199.867556 289.432153 
L 200.332944 289.191826 
L 205.45221 288.333515 
L 207.313761 287.784196 
L 207.779149 287.475204 
L 210.106088 286.685559 
L 211.036864 286.033243 
L 212.433028 285.758583 
L 224.533111 282.291008 
L 224.998499 282.291008 
L 225.463887 282.085014 
L 226.394662 281.982016 
L 226.86005 281.810354 
L 228.721601 281.741689 
L 229.652377 281.570027 
L 230.583153 281.089373 
L 231.979316 280.574387 
L 232.444704 280.265395 
L 233.37548 279.853406 
L 233.840867 279.613079 
L 234.771643 279.304087 
L 235.237031 279.166757 
L 236.167807 278.583106 
L 236.633194 278.06812 
L 237.56397 276.626158 
L 238.029358 276.488828 
L 238.494746 276.488828 
L 239.890909 275.66485 
L 240.356297 275.424523 
L 240.821685 275.321526 
L 241.287073 274.875204 
L 242.217848 274.497548 
L 243.148624 274.051226 
L 245.475563 271.064305 
L 248.26789 269.553678 
L 249.198666 268.798365 
L 249.664053 268.489373 
L 250.129441 267.837057 
L 250.594829 266.772752 
L 251.060217 266.051771 
L 251.525605 265.674114 
L 251.990992 265.46812 
L 255.714095 262.034877 
L 256.644871 261.176567 
L 259.437198 259.425613 
L 259.902585 259.253951 
L 261.298749 258.429973 
L 262.694912 257.502997 
L 264.556464 255.820708 
L 265.487239 255.443052 
L 266.418015 254.790736 
L 266.883403 254.516076 
L 267.348791 254.447411 
L 268.744954 253.657766 
L 269.210342 253.142779 
L 271.537281 251.87248 
L 272.002669 251.700817 
L 273.398832 250.73951 
L 280.37965 248.267575 
L 281.310425 247.409264 
L 282.706589 246.722616 
L 283.637364 246.138965 
L 284.56814 245.864305 
L 285.033528 245.555313 
L 285.498916 245.417984 
L 286.895079 244.491008 
L 289.222018 243.941689 
L 290.618182 243.117711 
L 292.014345 242.808719 
L 292.479733 242.67139 
L 293.875897 241.607084 
L 295.737448 241.092098 
L 296.202836 240.714441 
L 298.995163 239.753134 
L 299.925938 239.581471 
L 300.856714 239.203815 
L 304.114429 238.00218 
L 305.045204 237.86485 
L 306.441368 237.384196 
L 308.768307 236.251226 
L 310.629858 235.221253 
L 314.352961 233.676294 
L 314.818349 233.607629 
L 315.749124 233.023978 
L 316.214512 232.955313 
L 318.076063 232.2 
L 319.937615 231.959673 
L 320.86839 231.479019 
L 321.333778 231.06703 
L 321.799166 230.208719 
L 323.660717 229.693733 
L 325.056881 228.972752 
L 325.987656 228.66376 
L 326.918432 228.183106 
L 329.710759 227.050136 
L 330.641535 226.844142 
L 331.57231 226.363488 
L 332.037698 226.157493 
L 332.503086 226.088828 
L 334.364637 225.230518 
L 335.760801 224.337875 
L 337.156964 224.063215 
L 339.018515 223.548229 
L 339.483903 223.513896 
L 339.949291 223.13624 
L 340.880067 222.827248 
L 343.207006 221.900272 
L 343.672394 221.556948 
L 344.137781 221.385286 
L 345.068557 220.8703 
L 346.930108 220.286649 
L 347.395496 220.046322 
L 348.79166 218.913351 
L 349.257048 218.810354 
L 350.187823 218.055041 
L 350.653211 217.986376 
L 351.118599 217.231063 
L 351.583987 217.025068 
L 352.049374 216.647411 
L 352.514762 216.578747 
L 353.445538 215.995095 
L 354.376314 215.686104 
L 354.841701 215.342779 
L 355.307089 215.171117 
L 357.168641 213.93515 
L 358.564804 213.214169 
L 359.49558 212.973842 
L 360.426355 212.458856 
L 360.891743 211.66921 
L 361.822519 210.982561 
L 362.287907 210.879564 
L 365.080234 209.540599 
L 366.011009 209.162943 
L 367.407173 207.99564 
L 368.337948 207.205995 
L 369.268724 206.656676 
L 369.734112 206.141689 
L 370.1995 205.832698 
L 371.130275 205.077384 
L 371.595663 204.87139 
L 372.526439 203.944414 
L 373.457214 203.60109 
L 374.38799 202.983106 
L 375.784153 202.262125 
L 376.249541 202.19346 
L 377.645705 201.438147 
L 378.57648 200.854496 
L 383.230359 199.137875 
L 383.695746 198.760218 
L 385.557298 198.039237 
L 386.022686 197.901907 
L 386.953461 197.283924 
L 387.884237 196.871935 
L 388.815013 196.219619 
L 389.745788 194.365668 
L 390.676564 193.26703 
L 392.072727 192.546049 
L 393.003503 192.168392 
L 393.468891 192.099728 
L 393.934279 191.825068 
L 396.261218 191.069755 
L 396.726606 190.86376 
L 397.657381 190.211444 
L 399.053545 189.59346 
L 399.98432 189.078474 
L 402.776647 187.155858 
L 405.103586 185.885559 
L 407.895913 184.477929 
L 409.292077 184.06594 
L 410.68824 183.516621 
L 411.153628 183.173297 
L 412.084404 182.898638 
L 413.015179 182.520981 
L 413.480567 182.143324 
L 415.342118 181.491008 
L 416.272894 180.80436 
L 417.20367 180.426703 
L 418.134445 179.705722 
L 419.065221 179.431063 
L 419.530609 179.019074 
L 419.995997 178.950409 
L 420.926772 178.229428 
L 421.857548 177.748774 
L 422.322936 177.542779 
L 422.788324 177.062125 
L 426.046038 175.757493 
L 426.976814 175.345504 
L 428.372977 174.899183 
L 429.303753 174.761853 
L 429.769141 174.555858 
L 430.234529 174.487193 
L 431.165304 174.075204 
L 431.630692 174.040872 
L 433.492244 173.354223 
L 434.888407 172.358583 
L 435.353795 172.186921 
L 436.28457 171.671935 
L 436.749958 171.534605 
L 439.542285 169.955313 
L 440.007673 169.852316 
L 441.403837 169.028338 
L 442.8 168.547684 
L 443.730776 168.238692 
L 445.592327 167.620708 
L 446.523103 167.311717 
L 448.384654 166.93406 
L 448.850042 166.728065 
L 449.31543 166.659401 
L 450.246205 166.247411 
L 450.711593 166.178747 
L 451.176981 165.93842 
L 452.107756 165.766757 
L 453.50392 165.251771 
L 454.434696 165.148774 
L 455.830859 164.839782 
L 458.157798 164.427793 
L 470.257882 160.857221 
L 470.723269 160.376567 
L 471.654045 159.99891 
L 475.377148 158.591281 
L 475.842535 158.316621 
L 477.238699 157.904632 
L 478.169475 157.664305 
L 478.634862 157.355313 
L 479.10025 157.252316 
L 479.565638 156.840327 
L 480.961802 156.565668 
L 481.892577 156.119346 
L 482.357965 155.570027 
L 484.219516 155.123706 
L 487.477231 154.437057 
L 487.942619 154.437057 
L 488.408007 154.231063 
L 490.269558 153.887738 
L 490.734946 153.681744 
L 492.596497 153.33842 
L 493.527273 152.926431 
L 494.458048 152.754768 
L 496.784987 152.171117 
L 498.646539 151.587466 
L 499.111927 151.484469 
L 499.577314 151.244142 
L 500.50809 151.003815 
L 501.438866 150.626158 
L 502.369641 150.282834 
L 502.835029 149.973842 
L 503.765805 149.699183 
L 507.488907 148.39455 
L 508.419683 148.325886 
L 510.281234 147.776567 
L 510.746622 147.501907 
L 511.677398 147.227248 
L 514.004337 146.162943 
L 514.469725 146.12861 
L 519.588991 144.308992 
L 521.91593 143.691008 
L 522.846706 143.244687 
L 524.242869 142.935695 
L 526.10442 141.425068 
L 527.035196 141.150409 
L 527.500584 140.772752 
L 530.292911 139.708447 
L 530.758299 139.399455 
L 531.689074 139.124796 
L 532.154462 138.815804 
L 534.481401 138.06049 
L 535.877565 137.236512 
L 536.342952 137.133515 
L 538.669892 135.863215 
L 540.066055 135.245232 
L 540.531443 134.901907 
L 541.462219 134.592916 
L 542.392994 134.043597 
L 542.858382 133.871935 
L 543.32377 133.52861 
L 549.373812 131.4 
L 549.839199 131.297003 
L 550.304587 130.988011 
L 552.166138 130.610354 
L 553.096914 130.232698 
L 555.889241 128.893733 
L 556.354629 128.825068 
L 557.750792 128.035422 
L 559.146956 127.554768 
L 562.404671 126.215804 
L 562.870058 126.078474 
L 563.335446 125.769482 
L 564.266222 125.666485 
L 564.73161 125.357493 
L 565.662385 125.185831 
L 566.593161 124.73951 
L 567.058549 124.533515 
L 567.523937 124.46485 
L 568.454712 124.155858 
L 571.712427 123.022888 
L 573.10859 122.713896 
L 574.504754 122.164578 
L 576.366305 121.134605 
L 577.297081 120.756948 
L 577.762469 120.447956 
L 578.693244 120.241962 
L 579.158632 119.967302 
L 579.62402 119.864305 
L 581.020183 119.074659 
L 581.950959 118.697003 
L 583.81251 117.976022 
L 586.13945 117.186376 
L 587.070225 116.705722 
L 589.397164 115.916076 
L 592.189491 114.783106 
L 594.051043 113.924796 
L 598.704921 112.105177 
L 599.170309 111.796185 
L 601.03186 111.178202 
L 601.497248 111.178202 
L 602.428023 110.766213 
L 604.289575 109.255586 
L 604.754962 109.118256 
L 605.22035 108.843597 
L 605.685738 108.740599 
L 606.151126 108.500272 
L 606.616514 108.431608 
L 607.081902 108.088283 
L 607.547289 107.985286 
L 608.478065 107.401635 
L 609.874229 106.680654 
L 610.805004 106.302997 
L 611.270392 106.06267 
L 612.666555 105.753678 
L 614.993495 104.964033 
L 615.92427 104.655041 
L 617.320434 103.93406 
L 618.251209 103.487738 
L 619.181985 103.247411 
L 620.578148 102.595095 
L 624.766639 101.050136 
L 626.162802 100.191826 
L 626.62819 100.088828 
L 627.558966 99.642507 
L 628.489741 99.299183 
L 628.955129 98.887193 
L 629.885905 98.509537 
L 631.282068 98.028883 
L 631.747456 97.651226 
L 632.212844 97.616894 
L 633.14362 97.342234 
L 634.074395 97.033243 
L 634.539783 96.792916 
L 635.005171 96.724251 
L 636.401334 96.209264 
L 637.797498 95.694278 
L 639.659049 94.8703 
L 640.124437 94.801635 
L 643.84754 93.256676 
L 645.243703 92.810354 
L 646.174479 92.741689 
L 647.105254 92.364033 
L 649.897581 91.540054 
L 650.828357 91.505722 
L 654.55146 90.304087 
L 655.482235 89.789101 
L 655.947623 89.377112 
L 657.343786 88.553134 
L 658.274562 88.003815 
L 661.066889 87.111172 
L 661.532277 86.733515 
L 664.324604 85.566213 
L 666.186155 85.051226 
L 667.116931 84.639237 
L 667.582319 84.39891 
L 668.513094 84.124251 
L 668.978482 83.849591 
L 669.909258 83.677929 
L 673.63236 82.064305 
L 674.097748 81.99564 
L 674.563136 81.686649 
L 675.028524 81.514986 
L 675.493912 81.102997 
L 675.959299 81.034332 
L 677.820851 80.313351 
L 679.682402 79.86703 
L 680.14779 79.798365 
L 680.613178 79.592371 
L 681.078565 79.558038 
L 682.009341 79.249046 
L 682.474729 79.214714 
L 683.870892 78.665395 
L 685.732444 78.116076 
L 686.663219 77.429428 
L 688.524771 76.399455 
L 689.920934 75.918801 
L 693.644037 74.167847 
L 694.109425 73.92752 
L 694.574812 73.481199 
L 697.367139 72.588556 
L 698.297915 72.210899 
L 699.228691 71.970572 
L 699.694078 71.730245 
L 700.159466 71.352589 
L 702.021018 70.871935 
L 702.486405 70.52861 
L 708.536447 68.331335 
L 709.467223 68.159673 
L 713.655713 66.683379 
L 714.586489 66.443052 
L 715.051877 66.237057 
L 715.517264 66.237057 
L 716.44804 65.859401 
L 717.378816 65.310082 
L 719.705755 64.520436 
L 721.101918 64.039782 
L 721.567306 63.971117 
L 722.498082 63.59346 
L 723.894245 63.284469 
L 725.290409 62.838147 
L 725.755796 62.73515 
L 726.221184 62.426158 
L 727.15196 62.220163 
L 736.459716 59.542234 
L 738.786656 59.130245 
L 739.717431 58.683924 
L 740.182819 58.374932 
L 743.905922 57.0703 
L 744.836697 56.79564 
L 746.698249 56.040327 
L 747.163636 55.8 
L 747.163636 55.8 
" clip-path="url(#pab66da00ec)" style="fill: none; stroke: #1f77b4; stroke-width: 1.5; stroke-linecap: square"/>
   </g>
   <g id="line2d_34">
    <path d="M 138.901751 307.8 
L 143.090242 307.697003 
L 146.813344 307.525341 
L 148.674896 307.525341 
L 149.140284 307.388011 
L 151.467223 307.285014 
L 154.25955 306.976022 
L 157.051877 306.873025 
L 157.982652 306.770027 
L 161.240367 306.632698 
L 164.498082 306.5297 
L 166.825021 306.461035 
L 172.875063 306.358038 
L 175.202002 306.289373 
L 178.459716 306.186376 
L 180.786656 306.117711 
L 185.905922 306.014714 
L 187.767473 305.843052 
L 189.629024 305.808719 
L 192.421351 305.705722 
L 194.282902 305.67139 
L 196.609842 305.602725 
L 198.471393 305.431063 
L 202.659883 305.328065 
L 203.590659 305.259401 
L 205.45221 305.156403 
L 208.244537 305.053406 
L 210.106088 304.950409 
L 218.483069 304.435422 
L 221.740784 304.332425 
L 223.136947 304.195095 
L 225.463887 304.092098 
L 230.117765 303.851771 
L 234.771643 303.783106 
L 236.633194 303.577112 
L 238.494746 303.474114 
L 243.614012 302.99346 
L 246.871726 302.615804 
L 248.26789 302.547139 
L 251.990992 302.066485 
L 254.783319 301.99782 
L 256.179483 301.86049 
L 257.575646 301.757493 
L 270.606505 300.761853 
L 271.537281 300.590191 
L 274.329608 300.487193 
L 281.775813 300.040872 
L 285.033528 299.937875 
L 286.895079 299.73188 
L 289.222018 299.628883 
L 292.014345 299.525886 
L 294.341284 299.422888 
L 296.202836 299.388556 
L 298.529775 299.319891 
L 299.46055 299.182561 
L 305.97598 299.079564 
L 306.906756 298.976567 
L 312.49141 298.873569 
L 316.6799 298.667575 
L 319.937615 298.564578 
L 321.799166 298.358583 
L 325.056881 298.255586 
L 325.987656 298.083924 
L 328.314595 298.015259 
L 332.968474 297.946594 
L 334.830025 297.774932 
L 336.691576 297.740599 
L 338.08774 297.637602 
L 339.949291 297.46594 
L 344.603169 297.225613 
L 349.257048 297.122616 
L 353.445538 296.916621 
L 354.841701 296.882289 
L 355.772477 296.744959 
L 358.099416 296.641962 
L 359.030192 296.573297 
L 359.960967 296.504632 
L 360.891743 296.435967 
L 365.080234 296.367302 
L 366.476397 296.264305 
L 379.041868 295.440327 
L 381.368807 295.33733 
L 383.695746 295.268665 
L 390.211176 295.165668 
L 391.141952 295.028338 
L 397.657381 294.925341 
L 402.311259 294.685014 
L 403.242035 294.650681 
L 404.172811 294.547684 
L 406.49975 294.444687 
L 408.826689 294.376022 
L 411.153628 294.273025 
L 413.480567 294.20436 
L 417.669058 294.101362 
L 420.461384 293.998365 
L 426.976814 293.895368 
L 432.09608 293.620708 
L 433.957631 293.552044 
L 435.353795 293.449046 
L 441.869224 293.346049 
L 444.661551 293.243052 
L 453.038532 293.140054 
L 454.900083 293.105722 
L 460.484737 293.037057 
L 461.415513 292.968392 
L 467.930942 292.865395 
L 469.792494 292.831063 
L 481.892577 292.728065 
L 483.288741 292.590736 
L 504.231193 292.487738 
L 506.558132 292.419074 
L 518.658215 292.350409 
L 519.588991 292.281744 
L 521.91593 292.213079 
L 523.312093 292.075749 
L 526.10442 291.972752 
L 529.362135 291.835422 
L 533.550626 291.732425 
L 535.877565 291.66376 
L 539.135279 291.560763 
L 542.858382 291.389101 
L 545.185321 291.286104 
L 547.046872 291.251771 
L 551.235363 291.148774 
L 553.096914 291.114441 
L 559.146956 291.011444 
L 561.008507 290.977112 
L 563.335446 290.874114 
L 566.127773 290.771117 
L 569.385488 290.702452 
L 570.316264 290.633787 
L 581.485571 290.53079 
L 587.535613 290.187466 
L 589.862552 290.118801 
L 590.793328 290.015804 
L 591.724103 289.947139 
L 595.447206 289.844142 
L 598.239533 289.741144 
L 602.893411 289.638147 
L 605.22035 289.39782 
L 609.874229 289.294823 
L 610.805004 289.191826 
L 615.458882 289.088828 
L 617.785822 289.020163 
L 622.905088 288.985831 
L 623.835863 288.882834 
L 628.955129 288.779837 
L 629.885905 288.711172 
L 640.124437 288.608174 
L 642.916764 288.505177 
L 649.897581 288.40218 
L 651.759133 288.367847 
L 655.947623 288.299183 
L 656.878399 288.196185 
L 662.92844 288.093188 
L 665.255379 288.024523 
L 673.63236 287.921526 
L 675.028524 287.818529 
L 676.424687 287.715531 
L 677.820851 287.612534 
L 684.801668 287.509537 
L 687.593995 287.40654 
L 700.159466 287.303542 
L 704.347957 287.097548 
L 709.932611 286.99455 
L 710.863386 286.925886 
L 717.844204 286.857221 
L 718.774979 286.788556 
L 723.894245 286.685559 
L 725.755796 286.651226 
L 732.271226 286.548229 
L 735.063553 286.445232 
L 742.975146 286.342234 
L 744.836697 286.307902 
L 747.163636 286.273569 
L 747.163636 286.273569 
" clip-path="url(#pab66da00ec)" style="fill: none; stroke: #ff7f0e; stroke-width: 1.5; stroke-linecap: square"/>
   </g>
   <g id="patch_3">
    <path d="M 108 320.4 
L 108 43.2 
" style="fill: none; stroke: #a9a9a9; stroke-width: 0.8; stroke-linejoin: miter; stroke-linecap: square"/>
   </g>
   <g id="patch_4">
    <path d="M 777.6 320.4 
L 777.6 43.2 
" style="fill: none"/>
   </g>
   <g id="patch_5">
    <path d="M 108 320.4 
L 777.6 320.4 
" style="fill: none; stroke: #a9a9a9; stroke-width: 0.8; stroke-linejoin: miter; stroke-linecap: square"/>
   </g>
   <g id="patch_6">
    <path d="M 108 43.2 
L 777.6 43.2 
" style="fill: none"/>
   </g>
   <g id="text_17">
    <!-- get_subscribe history -->
    <g style="fill: #a9a9a9" transform="translate(378.6075 37.2) scale(0.12 -0.12)">
     <defs>
      <path id="DejaVuSans-67" d="M 2906 1791 
Q 2906 2416 2648 2759 
Q 2391 3103 1925 3103 
Q 1463 3103 1205 2759 
Q 947 2416 947 1791 
Q 947 1169 1205 825 
Q 1463 481 1925 481 
Q 2391 481 2648 825 
Q 2906 1169 2906 1791 
z
M 3481 434 
Q 3481 -459 3084 -895 
Q 2688 -1331 1869 -1331 
Q 1566 -1331 1297 -1286 
Q 1028 -1241 775 -1147 
L 775 -588 
Q 1028 -725 1275 -790 
Q 1522 -856 1778 -856 
Q 2344 -856 2625 -561 
Q 2906 -266 2906 331 
L 2906 616 
Q 2728 306 2450 153 
Q 2172 0 1784 0 
Q 1141 0 747 490 
Q 353 981 353 1791 
Q 353 2603 747 3093 
Q 1141 3584 1784 3584 
Q 2172 3584 2450 3431 
Q 2728 3278 2906 2969 
L 2906 3500 
L 3481 3500 
L 3481 434 
z
" transform="scale(0.015625)"/>
      <path id="DejaVuSans-65" d="M 3597 1894 
L 3597 1613 
L 953 1613 
Q 991 1019 1311 708 
Q 1631 397 2203 397 
Q 2534 397 2845 478 
Q 3156 559 3463 722 
L 3463 178 
Q 3153 47 2828 -22 
Q 2503 -91 2169 -91 
Q 1331 -91 842 396 
Q 353 884 353 1716 
Q 353 2575 817 3079 
Q 1281 3584 2069 3584 
Q 2775 3584 3186 3129 
Q 3597 2675 3597 1894 
z
M 3022 2063 
Q 3016 2534 2758 2815 
Q 2500 3097 2075 3097 
Q 1594 3097 1305 2825 
Q 1016 2553 972 2059 
L 3022 2063 
z
" transform="scale(0.015625)"/>
      <path id="DejaVuSans-74" d="M 1172 4494 
L 1172 3500 
L 2356 3500 
L 2356 3053 
L 1172 3053 
L 1172 1153 
Q 1172 725 1289 603 
Q 1406 481 1766 481 
L 2356 481 
L 2356 0 
L 1766 0 
Q 1100 0 847 248 
Q 594 497 594 1153 
L 594 3053 
L 172 3053 
L 172 3500 
L 594 3500 
L 594 4494 
L 1172 4494 
z
" transform="scale(0.015625)"/>
      <path id="DejaVuSans-5f" d="M 3263 -1063 
L 3263 -1509 
L -63 -1509 
L -63 -1063 
L 3263 -1063 
z
" transform="scale(0.015625)"/>
      <path id="DejaVuSans-73" d="M 2834 3397 
L 2834 2853 
Q 2591 2978 2328 3040 
Q 2066 3103 1784 3103 
Q 1356 3103 1142 2972 
Q 928 2841 928 2578 
Q 928 2378 1081 2264 
Q 1234 2150 1697 2047 
L 1894 2003 
Q 2506 1872 2764 1633 
Q 3022 1394 3022 966 
Q 3022 478 2636 193 
Q 2250 -91 1575 -91 
Q 1294 -91 989 -36 
Q 684 19 347 128 
L 347 722 
Q 666 556 975 473 
Q 1284 391 1588 391 
Q 1994 391 2212 530 
Q 2431 669 2431 922 
Q 2431 1156 2273 1281 
Q 2116 1406 1581 1522 
L 1381 1569 
Q 847 1681 609 1914 
Q 372 2147 372 2553 
Q 372 3047 722 3315 
Q 1072 3584 1716 3584 
Q 2034 3584 2315 3537 
Q 2597 3491 2834 3397 
z
" transform="scale(0.015625)"/>
      <path id="DejaVuSans-75" d="M 544 1381 
L 544 3500 
L 1119 3500 
L 1119 1403 
Q 1119 906 1312 657 
Q 1506 409 1894 409 
Q 2359 409 2629 706 
Q 2900 1003 2900 1516 
L 2900 3500 
L 3475 3500 
L 3475 0 
L 2900 0 
L 2900 538 
Q 2691 219 2414 64 
Q 2138 -91 1772 -91 
Q 1169 -91 856 284 
Q 544 659 544 1381 
z
M 1991 3584 
L 1991 3584 
z
" transform="scale(0.015625)"/>
      <path id="DejaVuSans-62" d="M 3116 1747 
Q 3116 2381 2855 2742 
Q 2594 3103 2138 3103 
Q 1681 3103 1420 2742 
Q 1159 2381 1159 1747 
Q 1159 1113 1420 752 
Q 1681 391 2138 391 
Q 2594 391 2855 752 
Q 3116 1113 3116 1747 
z
M 1159 2969 
Q 1341 3281 1617 3432 
Q 1894 3584 2278 3584 
Q 2916 3584 3314 3078 
Q 3713 2572 3713 1747 
Q 3713 922 3314 415 
Q 2916 -91 2278 -91 
Q 1894 -91 1617 61 
Q 1341 213 1159 525 
L 1159 0 
L 581 0 
L 581 4863 
L 1159 4863 
L 1159 2969 
z
" transform="scale(0.015625)"/>
      <path id="DejaVuSans-63" d="M 3122 3366 
L 3122 2828 
Q 2878 2963 2633 3030 
Q 2388 3097 2138 3097 
Q 1578 3097 1268 2742 
Q 959 2388 959 1747 
Q 959 1106 1268 751 
Q 1578 397 2138 397 
Q 2388 397 2633 464 
Q 2878 531 3122 666 
L 3122 134 
Q 2881 22 2623 -34 
Q 2366 -91 2075 -91 
Q 1284 -91 818 406 
Q 353 903 353 1747 
Q 353 2603 823 3093 
Q 1294 3584 2113 3584 
Q 2378 3584 2631 3529 
Q 2884 3475 3122 3366 
z
" transform="scale(0.015625)"/>
      <path id="DejaVuSans-72" d="M 2631 2963 
Q 2534 3019 2420 3045 
Q 2306 3072 2169 3072 
Q 1681 3072 1420 2755 
Q 1159 2438 1159 1844 
L 1159 0 
L 581 0 
L 581 3500 
L 1159 3500 
L 1159 2956 
Q 1341 3275 1631 3429 
Q 1922 3584 2338 3584 
Q 2397 3584 2469 3576 
Q 2541 3569 2628 3553 
L 2631 2963 
z
" transform="scale(0.015625)"/>
      <path id="DejaVuSans-69" d="M 603 3500 
L 1178 3500 
L 1178 0 
L 603 0 
L 603 3500 
z
M 603 4863 
L 1178 4863 
L 1178 4134 
L 603 4134 
L 603 4863 
z
" transform="scale(0.015625)"/>
      <path id="DejaVuSans-20" transform="scale(0.015625)"/>
      <path id="DejaVuSans-68" d="M 3513 2113 
L 3513 0 
L 2938 0 
L 2938 2094 
Q 2938 2591 2744 2837 
Q 2550 3084 2163 3084 
Q 1697 3084 1428 2787 
Q 1159 2491 1159 1978 
L 1159 0 
L 581 0 
L 581 4863 
L 1159 4863 
L 1159 2956 
Q 1366 3272 1645 3428 
Q 1925 3584 2291 3584 
Q 2894 3584 3203 3211 
Q 3513 2838 3513 2113 
z
" transform="scale(0.015625)"/>
      <path id="DejaVuSans-6f" d="M 1959 3097 
Q 1497 3097 1228 2736 
Q 959 2375 959 1747 
Q 959 1119 1226 758 
Q 1494 397 1959 397 
Q 2419 397 2687 759 
Q 2956 1122 2956 1747 
Q 2956 2369 2687 2733 
Q 2419 3097 1959 3097 
z
M 1959 3584 
Q 2709 3584 3137 3096 
Q 3566 2609 3566 1747 
Q 3566 888 3137 398 
Q 2709 -91 1959 -91 
Q 1206 -91 779 398 
Q 353 888 353 1747 
Q 353 2609 779 3096 
Q 1206 3584 1959 3584 
z
" transform="scale(0.015625)"/>
      <path id="DejaVuSans-79" d="M 2059 -325 
Q 1816 -950 1584 -1140 
Q 1353 -1331 966 -1331 
L 506 -1331 
L 506 -850 
L 844 -850 
Q 1081 -850 1212 -737 
Q 1344 -625 1503 -206 
L 1606 56 
L 191 3500 
L 800 3500 
L 1894 763 
L 2988 3500 
L 3597 3500 
L 2059 -325 
z
" transform="scale(0.015625)"/>
     </defs>
     <use xlink:href="#DejaVuSans-67"/>
     <use xlink:href="#DejaVuSans-65" transform="translate(63.476562 0)"/>
     <use xlink:href="#DejaVuSans-74" transform="translate(125 0)"/>
     <use xlink:href="#DejaVuSans-5f" transform="translate(164.208984 0)"/>
     <use xlink:href="#DejaVuSans-73" transform="translate(214.208984 0)"/>
     <use xlink:href="#DejaVuSans-75" transform="translate(266.308594 0)"/>
     <use xlink:href="#DejaVuSans-62" transform="translate(329.6875 0)"/>
     <use xlink:href="#DejaVuSans-73" transform="translate(393.164062 0)"/>
     <use xlink:href="#DejaVuSans-63" transform="translate(445.263672 0)"/>
     <use xlink:href="#DejaVuSans-72" transform="translate(500.244141 0)"/>
     <use xlink:href="#DejaVuSans-69" transform="translate(541.357422 0)"/>
     <use xlink:href="#DejaVuSans-62" transform="translate(569.140625 0)"/>
     <use xlink:href="#DejaVuSans-65" transform="translate(632.617188 0)"/>
     <use xlink:href="#DejaVuSans-20" transform="translate(694.140625 0)"/>
     <use xlink:href="#DejaVuSans-68" transform="translate(725.927734 0)"/>
     <use xlink:href="#DejaVuSans-69" transform="translate(789.306641 0)"/>
     <use xlink:href="#DejaVuSans-73" transform="translate(817.089844 0)"/>
     <use xlink:href="#DejaVuSans-74" transform="translate(869.189453 0)"/>
     <use xlink:href="#DejaVuSans-6f" transform="translate(908.398438 0)"/>
     <use xlink:href="#DejaVuSans-72" transform="translate(969.580078 0)"/>
     <use xlink:href="#DejaVuSans-79" transform="translate(1010.693359 0)"/>
    </g>
   </g>
   <g id="legend_1">
    <g id="line2d_35">
     <path d="M 815.08 328.498438 
L 825.08 328.498438 
L 835.08 328.498438 
" style="fill: none; stroke: #1f77b4; stroke-width: 1.5; stroke-linecap: square"/>
    </g>
    <g id="text_18">
     <!-- star -->
     <g style="fill: #a9a9a9" transform="translate(843.08 331.998438) scale(0.1 -0.1)">
      <defs>
       <path id="DejaVuSans-61" d="M 2194 1759 
Q 1497 1759 1228 1600 
Q 959 1441 959 1056 
Q 959 750 1161 570 
Q 1363 391 1709 391 
Q 2188 391 2477 730 
Q 2766 1069 2766 1631 
L 2766 1759 
L 2194 1759 
z
M 3341 1997 
L 3341 0 
L 2766 0 
L 2766 531 
Q 2569 213 2275 61 
Q 1981 -91 1556 -91 
Q 1019 -91 701 211 
Q 384 513 384 1019 
Q 384 1609 779 1909 
Q 1175 2209 1959 2209 
L 2766 2209 
L 2766 2266 
Q 2766 2663 2505 2880 
Q 2244 3097 1772 3097 
Q 1472 3097 1187 3025 
Q 903 2953 641 2809 
L 641 3341 
Q 956 3463 1253 3523 
Q 1550 3584 1831 3584 
Q 2591 3584 2966 3190 
Q 3341 2797 3341 1997 
z
" transform="scale(0.015625)"/>
      </defs>
      <use xlink:href="#DejaVuSans-73"/>
      <use xlink:href="#DejaVuSans-74" transform="translate(52.099609 0)"/>
      <use xlink:href="#DejaVuSans-61" transform="translate(91.308594 0)"/>
      <use xlink:href="#DejaVuSans-72" transform="translate(152.587891 0)"/>
     </g>
    </g>
    <g id="line2d_36">
     <path d="M 815.08 343.176562 
L 825.08 343.176562 
L 835.08 343.176562 
" style="fill: none; stroke: #ff7f0e; stroke-width: 1.5; stroke-linecap: square"/>
    </g>
    <g id="text_19">
     <!-- fork -->
     <g style="fill: #a9a9a9" transform="translate(843.08 346.676562) scale(0.1 -0.1)">
      <defs>
       <path id="DejaVuSans-66" d="M 2375 4863 
L 2375 4384 
L 1825 4384 
Q 1516 4384 1395 4259 
Q 1275 4134 1275 3809 
L 1275 3500 
L 2222 3500 
L 2222 3053 
L 1275 3053 
L 1275 0 
L 697 0 
L 697 3053 
L 147 3053 
L 147 3500 
L 697 3500 
L 697 3744 
Q 697 4328 969 4595 
Q 1241 4863 1831 4863 
L 2375 4863 
z
" transform="scale(0.015625)"/>
       <path id="DejaVuSans-6b" d="M 581 4863 
L 1159 4863 
L 1159 1991 
L 2875 3500 
L 3609 3500 
L 1753 1863 
L 3688 0 
L 2938 0 
L 1159 1709 
L 1159 0 
L 581 0 
L 581 4863 
z
" transform="scale(0.015625)"/>
      </defs>
      <use xlink:href="#DejaVuSans-66"/>
      <use xlink:href="#DejaVuSans-6f" transform="translate(35.205078 0)"/>
      <use xlink:href="#DejaVuSans-72" transform="translate(96.386719 0)"/>
      <use xlink:href="#DejaVuSans-6b" transform="translate(137.5 0)"/>
     </g>
    </g>
   </g>
  </g>
 </g>
 <defs>
  <clipPath id="pab66da00ec">
   <rect x="108" y="43.2" width="669.6" height="277.2"/>
  </clipPath>
 </defs>
</svg>
