<?xml version="1.0" encoding="utf-8" standalone="no"?>
<!DOCTYPE svg PUBLIC "-//W3C//DTD SVG 1.1//EN"
  "http://www.w3.org/Graphics/SVG/1.1/DTD/svg11.dtd">
<svg xmlns:xlink="http://www.w3.org/1999/xlink" width="864pt" height="360pt" viewBox="0 0 864 360" xmlns="http://www.w3.org/2000/svg" version="1.1">
 <metadata>
  <rdf:RDF xmlns:dc="http://purl.org/dc/elements/1.1/" xmlns:cc="http://creativecommons.org/ns#" xmlns:rdf="http://www.w3.org/1999/02/22-rdf-syntax-ns#">
   <cc:Work>
    <dc:type rdf:resource="http://purl.org/dc/dcmitype/StillImage"/>
    <dc:date>2025-05-17T08:15:54.555375</dc:date>
    <dc:format>image/svg+xml</dc:format>
    <dc:creator>
     <cc:Agent>
      <dc:title>Matplotlib v3.10.3, https://matplotlib.org/</dc:title>
     </cc:Agent>
    </dc:creator>
   </cc:Work>
  </rdf:RDF>
 </metadata>
 <defs>
  <style type="text/css">*{stroke-linejoin: round; stroke-linecap: butt}</style>
 </defs>
 <g id="figure_1">
  <g id="patch_1">
   <path d="M 0 360 
L 864 360 
L 864 0 
L 0 0 
L 0 360 
z
" style="fill: none; opacity: 0"/>
  </g>
  <g id="axes_1">
   <g id="patch_2">
    <path d="M 108 320.4 
L 777.6 320.4 
L 777.6 43.2 
L 108 43.2 
L 108 320.4 
z
" style="fill: none; opacity: 0"/>
   </g>
   <g id="matplotlib.axis_1">
    <g id="xtick_1">
     <g id="line2d_1">
      <path d="M 128.38559 320.4 
L 128.38559 43.2 
" clip-path="url(#p5c095faea4)" style="fill: none; stroke-dasharray: 5.12,1.28,0.8,1.28; stroke-dashoffset: 0; stroke: #b0b0b0; stroke-width: 0.8"/>
     </g>
     <g id="line2d_2">
      <defs>
       <path id="mc973542c0a" d="M 0 0 
L 0 3.5 
" style="stroke: #a9a9a9; stroke-width: 0.8"/>
      </defs>
      <g>
       <use xlink:href="#mc973542c0a" x="128.38559" y="320.4" style="fill: #a9a9a9; stroke: #a9a9a9; stroke-width: 0.8"/>
      </g>
     </g>
     <g id="text_1">
      <!-- 2021-07 -->
      <g style="fill: #a9a9a9" transform="translate(107.494184 334.998438) scale(0.1 -0.1)">
       <defs>
        <path id="DejaVuSans-32" d="M 1228 531 
L 3431 531 
L 3431 0 
L 469 0 
L 469 531 
Q 828 903 1448 1529 
Q 2069 2156 2228 2338 
Q 2531 2678 2651 2914 
Q 2772 3150 2772 3378 
Q 2772 3750 2511 3984 
Q 2250 4219 1831 4219 
Q 1534 4219 1204 4116 
Q 875 4013 500 3803 
L 500 4441 
Q 881 4594 1212 4672 
Q 1544 4750 1819 4750 
Q 2544 4750 2975 4387 
Q 3406 4025 3406 3419 
Q 3406 3131 3298 2873 
Q 3191 2616 2906 2266 
Q 2828 2175 2409 1742 
Q 1991 1309 1228 531 
z
" transform="scale(0.015625)"/>
        <path id="DejaVuSans-30" d="M 2034 4250 
Q 1547 4250 1301 3770 
Q 1056 3291 1056 2328 
Q 1056 1369 1301 889 
Q 1547 409 2034 409 
Q 2525 409 2770 889 
Q 3016 1369 3016 2328 
Q 3016 3291 2770 3770 
Q 2525 4250 2034 4250 
z
M 2034 4750 
Q 2819 4750 3233 4129 
Q 3647 3509 3647 2328 
Q 3647 1150 3233 529 
Q 2819 -91 2034 -91 
Q 1250 -91 836 529 
Q 422 1150 422 2328 
Q 422 3509 836 4129 
Q 1250 4750 2034 4750 
z
" transform="scale(0.015625)"/>
        <path id="DejaVuSans-31" d="M 794 531 
L 1825 531 
L 1825 4091 
L 703 3866 
L 703 4441 
L 1819 4666 
L 2450 4666 
L 2450 531 
L 3481 531 
L 3481 0 
L 794 0 
L 794 531 
z
" transform="scale(0.015625)"/>
        <path id="DejaVuSans-2d" d="M 313 2009 
L 1997 2009 
L 1997 1497 
L 313 1497 
L 313 2009 
z
" transform="scale(0.015625)"/>
        <path id="DejaVuSans-37" d="M 525 4666 
L 3525 4666 
L 3525 4397 
L 1831 0 
L 1172 0 
L 2766 4134 
L 525 4134 
L 525 4666 
z
" transform="scale(0.015625)"/>
       </defs>
       <use xlink:href="#DejaVuSans-32"/>
       <use xlink:href="#DejaVuSans-30" transform="translate(63.623047 0)"/>
       <use xlink:href="#DejaVuSans-32" transform="translate(127.246094 0)"/>
       <use xlink:href="#DejaVuSans-31" transform="translate(190.869141 0)"/>
       <use xlink:href="#DejaVuSans-2d" transform="translate(254.492188 0)"/>
       <use xlink:href="#DejaVuSans-30" transform="translate(290.576172 0)"/>
       <use xlink:href="#DejaVuSans-37" transform="translate(354.199219 0)"/>
      </g>
     </g>
    </g>
    <g id="xtick_2">
     <g id="line2d_3">
      <path d="M 208.791777 320.4 
L 208.791777 43.2 
" clip-path="url(#p5c095faea4)" style="fill: none; stroke-dasharray: 5.12,1.28,0.8,1.28; stroke-dashoffset: 0; stroke: #b0b0b0; stroke-width: 0.8"/>
     </g>
     <g id="line2d_4">
      <g>
       <use xlink:href="#mc973542c0a" x="208.791777" y="320.4" style="fill: #a9a9a9; stroke: #a9a9a9; stroke-width: 0.8"/>
      </g>
     </g>
     <g id="text_2">
      <!-- 2022-01 -->
      <g style="fill: #a9a9a9" transform="translate(187.900371 334.998438) scale(0.1 -0.1)">
       <use xlink:href="#DejaVuSans-32"/>
       <use xlink:href="#DejaVuSans-30" transform="translate(63.623047 0)"/>
       <use xlink:href="#DejaVuSans-32" transform="translate(127.246094 0)"/>
       <use xlink:href="#DejaVuSans-32" transform="translate(190.869141 0)"/>
       <use xlink:href="#DejaVuSans-2d" transform="translate(254.492188 0)"/>
       <use xlink:href="#DejaVuSans-30" transform="translate(290.576172 0)"/>
       <use xlink:href="#DejaVuSans-31" transform="translate(354.199219 0)"/>
      </g>
     </g>
    </g>
    <g id="xtick_3">
     <g id="line2d_5">
      <path d="M 287.886993 320.4 
L 287.886993 43.2 
" clip-path="url(#p5c095faea4)" style="fill: none; stroke-dasharray: 5.12,1.28,0.8,1.28; stroke-dashoffset: 0; stroke: #b0b0b0; stroke-width: 0.8"/>
     </g>
     <g id="line2d_6">
      <g>
       <use xlink:href="#mc973542c0a" x="287.886993" y="320.4" style="fill: #a9a9a9; stroke: #a9a9a9; stroke-width: 0.8"/>
      </g>
     </g>
     <g id="text_3">
      <!-- 2022-07 -->
      <g style="fill: #a9a9a9" transform="translate(266.995587 334.998438) scale(0.1 -0.1)">
       <use xlink:href="#DejaVuSans-32"/>
       <use xlink:href="#DejaVuSans-30" transform="translate(63.623047 0)"/>
       <use xlink:href="#DejaVuSans-32" transform="translate(127.246094 0)"/>
       <use xlink:href="#DejaVuSans-32" transform="translate(190.869141 0)"/>
       <use xlink:href="#DejaVuSans-2d" transform="translate(254.492188 0)"/>
       <use xlink:href="#DejaVuSans-30" transform="translate(290.576172 0)"/>
       <use xlink:href="#DejaVuSans-37" transform="translate(354.199219 0)"/>
      </g>
     </g>
    </g>
    <g id="xtick_4">
     <g id="line2d_7">
      <path d="M 368.29318 320.4 
L 368.29318 43.2 
" clip-path="url(#p5c095faea4)" style="fill: none; stroke-dasharray: 5.12,1.28,0.8,1.28; stroke-dashoffset: 0; stroke: #b0b0b0; stroke-width: 0.8"/>
     </g>
     <g id="line2d_8">
      <g>
       <use xlink:href="#mc973542c0a" x="368.29318" y="320.4" style="fill: #a9a9a9; stroke: #a9a9a9; stroke-width: 0.8"/>
      </g>
     </g>
     <g id="text_4">
      <!-- 2023-01 -->
      <g style="fill: #a9a9a9" transform="translate(347.401774 334.998438) scale(0.1 -0.1)">
       <defs>
        <path id="DejaVuSans-33" d="M 2597 2516 
Q 3050 2419 3304 2112 
Q 3559 1806 3559 1356 
Q 3559 666 3084 287 
Q 2609 -91 1734 -91 
Q 1441 -91 1130 -33 
Q 819 25 488 141 
L 488 750 
Q 750 597 1062 519 
Q 1375 441 1716 441 
Q 2309 441 2620 675 
Q 2931 909 2931 1356 
Q 2931 1769 2642 2001 
Q 2353 2234 1838 2234 
L 1294 2234 
L 1294 2753 
L 1863 2753 
Q 2328 2753 2575 2939 
Q 2822 3125 2822 3475 
Q 2822 3834 2567 4026 
Q 2313 4219 1838 4219 
Q 1578 4219 1281 4162 
Q 984 4106 628 3988 
L 628 4550 
Q 988 4650 1302 4700 
Q 1616 4750 1894 4750 
Q 2613 4750 3031 4423 
Q 3450 4097 3450 3541 
Q 3450 3153 3228 2886 
Q 3006 2619 2597 2516 
z
" transform="scale(0.015625)"/>
       </defs>
       <use xlink:href="#DejaVuSans-32"/>
       <use xlink:href="#DejaVuSans-30" transform="translate(63.623047 0)"/>
       <use xlink:href="#DejaVuSans-32" transform="translate(127.246094 0)"/>
       <use xlink:href="#DejaVuSans-33" transform="translate(190.869141 0)"/>
       <use xlink:href="#DejaVuSans-2d" transform="translate(254.492188 0)"/>
       <use xlink:href="#DejaVuSans-30" transform="translate(290.576172 0)"/>
       <use xlink:href="#DejaVuSans-31" transform="translate(354.199219 0)"/>
      </g>
     </g>
    </g>
    <g id="xtick_5">
     <g id="line2d_9">
      <path d="M 447.388397 320.4 
L 447.388397 43.2 
" clip-path="url(#p5c095faea4)" style="fill: none; stroke-dasharray: 5.12,1.28,0.8,1.28; stroke-dashoffset: 0; stroke: #b0b0b0; stroke-width: 0.8"/>
     </g>
     <g id="line2d_10">
      <g>
       <use xlink:href="#mc973542c0a" x="447.388397" y="320.4" style="fill: #a9a9a9; stroke: #a9a9a9; stroke-width: 0.8"/>
      </g>
     </g>
     <g id="text_5">
      <!-- 2023-07 -->
      <g style="fill: #a9a9a9" transform="translate(426.49699 334.998438) scale(0.1 -0.1)">
       <use xlink:href="#DejaVuSans-32"/>
       <use xlink:href="#DejaVuSans-30" transform="translate(63.623047 0)"/>
       <use xlink:href="#DejaVuSans-32" transform="translate(127.246094 0)"/>
       <use xlink:href="#DejaVuSans-33" transform="translate(190.869141 0)"/>
       <use xlink:href="#DejaVuSans-2d" transform="translate(254.492188 0)"/>
       <use xlink:href="#DejaVuSans-30" transform="translate(290.576172 0)"/>
       <use xlink:href="#DejaVuSans-37" transform="translate(354.199219 0)"/>
      </g>
     </g>
    </g>
    <g id="xtick_6">
     <g id="line2d_11">
      <path d="M 527.794583 320.4 
L 527.794583 43.2 
" clip-path="url(#p5c095faea4)" style="fill: none; stroke-dasharray: 5.12,1.28,0.8,1.28; stroke-dashoffset: 0; stroke: #b0b0b0; stroke-width: 0.8"/>
     </g>
     <g id="line2d_12">
      <g>
       <use xlink:href="#mc973542c0a" x="527.794583" y="320.4" style="fill: #a9a9a9; stroke: #a9a9a9; stroke-width: 0.8"/>
      </g>
     </g>
     <g id="text_6">
      <!-- 2024-01 -->
      <g style="fill: #a9a9a9" transform="translate(506.903177 334.998438) scale(0.1 -0.1)">
       <defs>
        <path id="DejaVuSans-34" d="M 2419 4116 
L 825 1625 
L 2419 1625 
L 2419 4116 
z
M 2253 4666 
L 3047 4666 
L 3047 1625 
L 3713 1625 
L 3713 1100 
L 3047 1100 
L 3047 0 
L 2419 0 
L 2419 1100 
L 313 1100 
L 313 1709 
L 2253 4666 
z
" transform="scale(0.015625)"/>
       </defs>
       <use xlink:href="#DejaVuSans-32"/>
       <use xlink:href="#DejaVuSans-30" transform="translate(63.623047 0)"/>
       <use xlink:href="#DejaVuSans-32" transform="translate(127.246094 0)"/>
       <use xlink:href="#DejaVuSans-34" transform="translate(190.869141 0)"/>
       <use xlink:href="#DejaVuSans-2d" transform="translate(254.492188 0)"/>
       <use xlink:href="#DejaVuSans-30" transform="translate(290.576172 0)"/>
       <use xlink:href="#DejaVuSans-31" transform="translate(354.199219 0)"/>
      </g>
     </g>
    </g>
    <g id="xtick_7">
     <g id="line2d_13">
      <path d="M 607.32679 320.4 
L 607.32679 43.2 
" clip-path="url(#p5c095faea4)" style="fill: none; stroke-dasharray: 5.12,1.28,0.8,1.28; stroke-dashoffset: 0; stroke: #b0b0b0; stroke-width: 0.8"/>
     </g>
     <g id="line2d_14">
      <g>
       <use xlink:href="#mc973542c0a" x="607.32679" y="320.4" style="fill: #a9a9a9; stroke: #a9a9a9; stroke-width: 0.8"/>
      </g>
     </g>
     <g id="text_7">
      <!-- 2024-07 -->
      <g style="fill: #a9a9a9" transform="translate(586.435384 334.998438) scale(0.1 -0.1)">
       <use xlink:href="#DejaVuSans-32"/>
       <use xlink:href="#DejaVuSans-30" transform="translate(63.623047 0)"/>
       <use xlink:href="#DejaVuSans-32" transform="translate(127.246094 0)"/>
       <use xlink:href="#DejaVuSans-34" transform="translate(190.869141 0)"/>
       <use xlink:href="#DejaVuSans-2d" transform="translate(254.492188 0)"/>
       <use xlink:href="#DejaVuSans-30" transform="translate(290.576172 0)"/>
       <use xlink:href="#DejaVuSans-37" transform="translate(354.199219 0)"/>
      </g>
     </g>
    </g>
    <g id="xtick_8">
     <g id="line2d_15">
      <path d="M 687.732977 320.4 
L 687.732977 43.2 
" clip-path="url(#p5c095faea4)" style="fill: none; stroke-dasharray: 5.12,1.28,0.8,1.28; stroke-dashoffset: 0; stroke: #b0b0b0; stroke-width: 0.8"/>
     </g>
     <g id="line2d_16">
      <g>
       <use xlink:href="#mc973542c0a" x="687.732977" y="320.4" style="fill: #a9a9a9; stroke: #a9a9a9; stroke-width: 0.8"/>
      </g>
     </g>
     <g id="text_8">
      <!-- 2025-01 -->
      <g style="fill: #a9a9a9" transform="translate(666.84157 334.998438) scale(0.1 -0.1)">
       <defs>
        <path id="DejaVuSans-35" d="M 691 4666 
L 3169 4666 
L 3169 4134 
L 1269 4134 
L 1269 2991 
Q 1406 3038 1543 3061 
Q 1681 3084 1819 3084 
Q 2600 3084 3056 2656 
Q 3513 2228 3513 1497 
Q 3513 744 3044 326 
Q 2575 -91 1722 -91 
Q 1428 -91 1123 -41 
Q 819 9 494 109 
L 494 744 
Q 775 591 1075 516 
Q 1375 441 1709 441 
Q 2250 441 2565 725 
Q 2881 1009 2881 1497 
Q 2881 1984 2565 2268 
Q 2250 2553 1709 2553 
Q 1456 2553 1204 2497 
Q 953 2441 691 2322 
L 691 4666 
z
" transform="scale(0.015625)"/>
       </defs>
       <use xlink:href="#DejaVuSans-32"/>
       <use xlink:href="#DejaVuSans-30" transform="translate(63.623047 0)"/>
       <use xlink:href="#DejaVuSans-32" transform="translate(127.246094 0)"/>
       <use xlink:href="#DejaVuSans-35" transform="translate(190.869141 0)"/>
       <use xlink:href="#DejaVuSans-2d" transform="translate(254.492188 0)"/>
       <use xlink:href="#DejaVuSans-30" transform="translate(290.576172 0)"/>
       <use xlink:href="#DejaVuSans-31" transform="translate(354.199219 0)"/>
      </g>
     </g>
    </g>
    <g id="xtick_9">
     <g id="line2d_17">
      <path d="M 766.828193 320.4 
L 766.828193 43.2 
" clip-path="url(#p5c095faea4)" style="fill: none; stroke-dasharray: 5.12,1.28,0.8,1.28; stroke-dashoffset: 0; stroke: #b0b0b0; stroke-width: 0.8"/>
     </g>
     <g id="line2d_18">
      <g>
       <use xlink:href="#mc973542c0a" x="766.828193" y="320.4" style="fill: #a9a9a9; stroke: #a9a9a9; stroke-width: 0.8"/>
      </g>
     </g>
     <g id="text_9">
      <!-- 2025-07 -->
      <g style="fill: #a9a9a9" transform="translate(745.936787 334.998438) scale(0.1 -0.1)">
       <use xlink:href="#DejaVuSans-32"/>
       <use xlink:href="#DejaVuSans-30" transform="translate(63.623047 0)"/>
       <use xlink:href="#DejaVuSans-32" transform="translate(127.246094 0)"/>
       <use xlink:href="#DejaVuSans-35" transform="translate(190.869141 0)"/>
       <use xlink:href="#DejaVuSans-2d" transform="translate(254.492188 0)"/>
       <use xlink:href="#DejaVuSans-30" transform="translate(290.576172 0)"/>
       <use xlink:href="#DejaVuSans-37" transform="translate(354.199219 0)"/>
      </g>
     </g>
    </g>
   </g>
   <g id="matplotlib.axis_2">
    <g id="ytick_1">
     <g id="line2d_19">
      <path d="M 108 307.83301 
L 777.6 307.83301 
" clip-path="url(#p5c095faea4)" style="fill: none; stroke-dasharray: 5.12,1.28,0.8,1.28; stroke-dashoffset: 0; stroke: #b0b0b0; stroke-width: 0.8"/>
     </g>
     <g id="line2d_20">
      <defs>
       <path id="m1ce89dcf92" d="M 0 0 
L -3.5 0 
" style="stroke: #a9a9a9; stroke-width: 0.8"/>
      </defs>
      <g>
       <use xlink:href="#m1ce89dcf92" x="108" y="307.83301" style="fill: #a9a9a9; stroke: #a9a9a9; stroke-width: 0.8"/>
      </g>
     </g>
     <g id="text_10">
      <!-- 0 -->
      <g style="fill: #a9a9a9" transform="translate(94.6375 311.632229) scale(0.1 -0.1)">
       <use xlink:href="#DejaVuSans-30"/>
      </g>
     </g>
    </g>
    <g id="ytick_2">
     <g id="line2d_21">
      <path d="M 108 274.822793 
L 777.6 274.822793 
" clip-path="url(#p5c095faea4)" style="fill: none; stroke-dasharray: 5.12,1.28,0.8,1.28; stroke-dashoffset: 0; stroke: #b0b0b0; stroke-width: 0.8"/>
     </g>
     <g id="line2d_22">
      <g>
       <use xlink:href="#m1ce89dcf92" x="108" y="274.822793" style="fill: #a9a9a9; stroke: #a9a9a9; stroke-width: 0.8"/>
      </g>
     </g>
     <g id="text_11">
      <!-- 1000 -->
      <g style="fill: #a9a9a9" transform="translate(75.55 278.622012) scale(0.1 -0.1)">
       <use xlink:href="#DejaVuSans-31"/>
       <use xlink:href="#DejaVuSans-30" transform="translate(63.623047 0)"/>
       <use xlink:href="#DejaVuSans-30" transform="translate(127.246094 0)"/>
       <use xlink:href="#DejaVuSans-30" transform="translate(190.869141 0)"/>
      </g>
     </g>
    </g>
    <g id="ytick_3">
     <g id="line2d_23">
      <path d="M 108 241.812575 
L 777.6 241.812575 
" clip-path="url(#p5c095faea4)" style="fill: none; stroke-dasharray: 5.12,1.28,0.8,1.28; stroke-dashoffset: 0; stroke: #b0b0b0; stroke-width: 0.8"/>
     </g>
     <g id="line2d_24">
      <g>
       <use xlink:href="#m1ce89dcf92" x="108" y="241.812575" style="fill: #a9a9a9; stroke: #a9a9a9; stroke-width: 0.8"/>
      </g>
     </g>
     <g id="text_12">
      <!-- 2000 -->
      <g style="fill: #a9a9a9" transform="translate(75.55 245.611794) scale(0.1 -0.1)">
       <use xlink:href="#DejaVuSans-32"/>
       <use xlink:href="#DejaVuSans-30" transform="translate(63.623047 0)"/>
       <use xlink:href="#DejaVuSans-30" transform="translate(127.246094 0)"/>
       <use xlink:href="#DejaVuSans-30" transform="translate(190.869141 0)"/>
      </g>
     </g>
    </g>
    <g id="ytick_4">
     <g id="line2d_25">
      <path d="M 108 208.802358 
L 777.6 208.802358 
" clip-path="url(#p5c095faea4)" style="fill: none; stroke-dasharray: 5.12,1.28,0.8,1.28; stroke-dashoffset: 0; stroke: #b0b0b0; stroke-width: 0.8"/>
     </g>
     <g id="line2d_26">
      <g>
       <use xlink:href="#m1ce89dcf92" x="108" y="208.802358" style="fill: #a9a9a9; stroke: #a9a9a9; stroke-width: 0.8"/>
      </g>
     </g>
     <g id="text_13">
      <!-- 3000 -->
      <g style="fill: #a9a9a9" transform="translate(75.55 212.601577) scale(0.1 -0.1)">
       <use xlink:href="#DejaVuSans-33"/>
       <use xlink:href="#DejaVuSans-30" transform="translate(63.623047 0)"/>
       <use xlink:href="#DejaVuSans-30" transform="translate(127.246094 0)"/>
       <use xlink:href="#DejaVuSans-30" transform="translate(190.869141 0)"/>
      </g>
     </g>
    </g>
    <g id="ytick_5">
     <g id="line2d_27">
      <path d="M 108 175.79214 
L 777.6 175.79214 
" clip-path="url(#p5c095faea4)" style="fill: none; stroke-dasharray: 5.12,1.28,0.8,1.28; stroke-dashoffset: 0; stroke: #b0b0b0; stroke-width: 0.8"/>
     </g>
     <g id="line2d_28">
      <g>
       <use xlink:href="#m1ce89dcf92" x="108" y="175.79214" style="fill: #a9a9a9; stroke: #a9a9a9; stroke-width: 0.8"/>
      </g>
     </g>
     <g id="text_14">
      <!-- 4000 -->
      <g style="fill: #a9a9a9" transform="translate(75.55 179.591359) scale(0.1 -0.1)">
       <use xlink:href="#DejaVuSans-34"/>
       <use xlink:href="#DejaVuSans-30" transform="translate(63.623047 0)"/>
       <use xlink:href="#DejaVuSans-30" transform="translate(127.246094 0)"/>
       <use xlink:href="#DejaVuSans-30" transform="translate(190.869141 0)"/>
      </g>
     </g>
    </g>
    <g id="ytick_6">
     <g id="line2d_29">
      <path d="M 108 142.781923 
L 777.6 142.781923 
" clip-path="url(#p5c095faea4)" style="fill: none; stroke-dasharray: 5.12,1.28,0.8,1.28; stroke-dashoffset: 0; stroke: #b0b0b0; stroke-width: 0.8"/>
     </g>
     <g id="line2d_30">
      <g>
       <use xlink:href="#m1ce89dcf92" x="108" y="142.781923" style="fill: #a9a9a9; stroke: #a9a9a9; stroke-width: 0.8"/>
      </g>
     </g>
     <g id="text_15">
      <!-- 5000 -->
      <g style="fill: #a9a9a9" transform="translate(75.55 146.581142) scale(0.1 -0.1)">
       <use xlink:href="#DejaVuSans-35"/>
       <use xlink:href="#DejaVuSans-30" transform="translate(63.623047 0)"/>
       <use xlink:href="#DejaVuSans-30" transform="translate(127.246094 0)"/>
       <use xlink:href="#DejaVuSans-30" transform="translate(190.869141 0)"/>
      </g>
     </g>
    </g>
    <g id="ytick_7">
     <g id="line2d_31">
      <path d="M 108 109.771706 
L 777.6 109.771706 
" clip-path="url(#p5c095faea4)" style="fill: none; stroke-dasharray: 5.12,1.28,0.8,1.28; stroke-dashoffset: 0; stroke: #b0b0b0; stroke-width: 0.8"/>
     </g>
     <g id="line2d_32">
      <g>
       <use xlink:href="#m1ce89dcf92" x="108" y="109.771706" style="fill: #a9a9a9; stroke: #a9a9a9; stroke-width: 0.8"/>
      </g>
     </g>
     <g id="text_16">
      <!-- 6000 -->
      <g style="fill: #a9a9a9" transform="translate(75.55 113.570924) scale(0.1 -0.1)">
       <defs>
        <path id="DejaVuSans-36" d="M 2113 2584 
Q 1688 2584 1439 2293 
Q 1191 2003 1191 1497 
Q 1191 994 1439 701 
Q 1688 409 2113 409 
Q 2538 409 2786 701 
Q 3034 994 3034 1497 
Q 3034 2003 2786 2293 
Q 2538 2584 2113 2584 
z
M 3366 4563 
L 3366 3988 
Q 3128 4100 2886 4159 
Q 2644 4219 2406 4219 
Q 1781 4219 1451 3797 
Q 1122 3375 1075 2522 
Q 1259 2794 1537 2939 
Q 1816 3084 2150 3084 
Q 2853 3084 3261 2657 
Q 3669 2231 3669 1497 
Q 3669 778 3244 343 
Q 2819 -91 2113 -91 
Q 1303 -91 875 529 
Q 447 1150 447 2328 
Q 447 3434 972 4092 
Q 1497 4750 2381 4750 
Q 2619 4750 2861 4703 
Q 3103 4656 3366 4563 
z
" transform="scale(0.015625)"/>
       </defs>
       <use xlink:href="#DejaVuSans-36"/>
       <use xlink:href="#DejaVuSans-30" transform="translate(63.623047 0)"/>
       <use xlink:href="#DejaVuSans-30" transform="translate(127.246094 0)"/>
       <use xlink:href="#DejaVuSans-30" transform="translate(190.869141 0)"/>
      </g>
     </g>
    </g>
    <g id="ytick_8">
     <g id="line2d_33">
      <path d="M 108 76.761488 
L 777.6 76.761488 
" clip-path="url(#p5c095faea4)" style="fill: none; stroke-dasharray: 5.12,1.28,0.8,1.28; stroke-dashoffset: 0; stroke: #b0b0b0; stroke-width: 0.8"/>
     </g>
     <g id="line2d_34">
      <g>
       <use xlink:href="#m1ce89dcf92" x="108" y="76.761488" style="fill: #a9a9a9; stroke: #a9a9a9; stroke-width: 0.8"/>
      </g>
     </g>
     <g id="text_17">
      <!-- 7000 -->
      <g style="fill: #a9a9a9" transform="translate(75.55 80.560707) scale(0.1 -0.1)">
       <use xlink:href="#DejaVuSans-37"/>
       <use xlink:href="#DejaVuSans-30" transform="translate(63.623047 0)"/>
       <use xlink:href="#DejaVuSans-30" transform="translate(127.246094 0)"/>
       <use xlink:href="#DejaVuSans-30" transform="translate(190.869141 0)"/>
      </g>
     </g>
    </g>
    <g id="ytick_9">
     <g id="line2d_35">
      <path d="M 108 43.751271 
L 777.6 43.751271 
" clip-path="url(#p5c095faea4)" style="fill: none; stroke-dasharray: 5.12,1.28,0.8,1.28; stroke-dashoffset: 0; stroke: #b0b0b0; stroke-width: 0.8"/>
     </g>
     <g id="line2d_36">
      <g>
       <use xlink:href="#m1ce89dcf92" x="108" y="43.751271" style="fill: #a9a9a9; stroke: #a9a9a9; stroke-width: 0.8"/>
      </g>
     </g>
     <g id="text_18">
      <!-- 8000 -->
      <g style="fill: #a9a9a9" transform="translate(75.55 47.550489) scale(0.1 -0.1)">
       <defs>
        <path id="DejaVuSans-38" d="M 2034 2216 
Q 1584 2216 1326 1975 
Q 1069 1734 1069 1313 
Q 1069 891 1326 650 
Q 1584 409 2034 409 
Q 2484 409 2743 651 
Q 3003 894 3003 1313 
Q 3003 1734 2745 1975 
Q 2488 2216 2034 2216 
z
M 1403 2484 
Q 997 2584 770 2862 
Q 544 3141 544 3541 
Q 544 4100 942 4425 
Q 1341 4750 2034 4750 
Q 2731 4750 3128 4425 
Q 3525 4100 3525 3541 
Q 3525 3141 3298 2862 
Q 3072 2584 2669 2484 
Q 3125 2378 3379 2068 
Q 3634 1759 3634 1313 
Q 3634 634 3220 271 
Q 2806 -91 2034 -91 
Q 1263 -91 848 271 
Q 434 634 434 1313 
Q 434 1759 690 2068 
Q 947 2378 1403 2484 
z
M 1172 3481 
Q 1172 3119 1398 2916 
Q 1625 2713 2034 2713 
Q 2441 2713 2670 2916 
Q 2900 3119 2900 3481 
Q 2900 3844 2670 4047 
Q 2441 4250 2034 4250 
Q 1625 4250 1398 4047 
Q 1172 3844 1172 3481 
z
" transform="scale(0.015625)"/>
       </defs>
       <use xlink:href="#DejaVuSans-38"/>
       <use xlink:href="#DejaVuSans-30" transform="translate(63.623047 0)"/>
       <use xlink:href="#DejaVuSans-30" transform="translate(127.246094 0)"/>
       <use xlink:href="#DejaVuSans-30" transform="translate(190.869141 0)"/>
      </g>
     </g>
    </g>
   </g>
   <g id="line2d_37">
    <path d="M 138.436364 307.73398 
L 141.058305 307.502908 
L 141.495295 307.304847 
L 143.243255 307.073775 
L 144.991216 306.710663 
L 145.865196 306.578622 
L 148.050147 306.380561 
L 148.924127 306.017448 
L 149.361117 305.423264 
L 149.798107 305.126172 
L 150.235098 304.135866 
L 150.672088 304.069845 
L 151.109078 303.706733 
L 151.983058 303.24459 
L 153.731019 301.79214 
L 155.478979 300.900865 
L 156.78995 300.27367 
L 157.22694 299.547446 
L 158.10092 298.887241 
L 158.53791 298.68918 
L 162.907812 298.028976 
L 163.344802 297.830914 
L 166.403733 297.566833 
L 168.151694 297.1377 
L 171.647615 296.642547 
L 172.084605 296.411475 
L 172.521595 296.345455 
L 173.395575 296.048363 
L 176.454506 295.520199 
L 177.328487 295.256117 
L 181.261398 294.595913 
L 182.135378 294.397852 
L 183.009358 294.364841 
L 184.757319 293.935709 
L 185.194309 293.308515 
L 186.50528 292.780351 
L 187.81625 292.417239 
L 188.25324 292.186167 
L 189.127221 292.021116 
L 190.875181 291.492953 
L 191.749161 291.426932 
L 192.623142 291.195861 
L 194.371102 290.733718 
L 194.808092 290.700707 
L 195.682073 290.271575 
L 196.119063 290.205554 
L 196.556053 289.974483 
L 201.362945 289.149227 
L 203.110905 288.621064 
L 203.547895 288.323972 
L 205.732846 287.597747 
L 206.606826 286.970553 
L 207.917797 286.706471 
L 217.53158 283.834582 
L 217.96857 283.801572 
L 219.279541 283.405449 
L 219.716531 283.405449 
L 220.153521 283.207388 
L 221.027501 283.108357 
L 221.464491 282.943306 
L 223.212452 282.877286 
L 224.086432 282.712235 
L 224.960412 282.250092 
L 226.271383 281.754938 
L 227.145363 281.292795 
L 228.019343 280.830652 
L 228.893324 280.53356 
L 229.330314 280.40152 
L 230.204294 279.840346 
L 230.641284 279.345193 
L 231.515265 277.958763 
L 231.952255 277.826723 
L 232.389245 277.826723 
L 233.700215 277.034477 
L 234.137206 276.803406 
L 234.574196 276.704375 
L 235.011186 276.275242 
L 235.885166 275.91213 
L 236.759146 275.482997 
L 238.944097 272.611108 
L 241.566038 271.158659 
L 242.440018 270.432434 
L 242.877008 270.168352 
L 243.313999 269.541158 
L 243.750989 268.517841 
L 244.187979 267.824627 
L 244.624969 267.461514 
L 245.061959 267.263453 
L 248.55788 263.962431 
L 249.431861 263.137176 
L 252.053801 261.453655 
L 252.490792 261.288604 
L 254.238752 260.232277 
L 254.675742 260.034215 
L 256.860693 257.987582 
L 257.734673 257.624469 
L 258.608654 256.997275 
L 259.045644 256.733194 
L 259.482634 256.667173 
L 260.793604 255.907938 
L 261.230595 255.412785 
L 263.415545 254.191407 
L 263.852535 254.026356 
L 265.163506 253.10207 
L 271.718358 250.725334 
L 272.592338 249.900079 
L 273.903309 249.239874 
L 274.777289 248.678701 
L 275.651269 248.414619 
L 276.088259 248.117527 
L 276.52525 247.985486 
L 277.83622 247.09421 
L 280.021171 246.599057 
L 281.332141 245.806812 
L 282.643112 245.50972 
L 283.080102 245.410689 
L 284.391072 244.387372 
L 286.139033 243.892219 
L 286.576023 243.529107 
L 289.197964 242.604821 
L 290.071944 242.439769 
L 290.945924 242.076657 
L 294.004855 240.921299 
L 294.878836 240.789259 
L 296.189806 240.327116 
L 298.374757 239.237778 
L 300.122717 238.247472 
L 303.618639 236.762012 
L 304.055629 236.695992 
L 304.929609 236.134818 
L 305.803589 235.903746 
L 307.11456 235.375583 
L 308.86252 235.144511 
L 309.736501 234.682368 
L 310.173491 234.286246 
L 310.610481 233.494001 
L 312.358442 232.998847 
L 313.669412 232.305633 
L 314.543392 232.008541 
L 315.417373 231.546398 
L 318.039313 230.457061 
L 318.913294 230.258999 
L 319.787274 229.796856 
L 320.224264 229.598795 
L 320.661254 229.532774 
L 322.846205 228.443437 
L 323.720185 227.882264 
L 325.031156 227.618182 
L 327.216107 227.057008 
L 327.653097 226.693896 
L 328.527077 226.396804 
L 330.712028 225.505528 
L 331.149018 225.175426 
L 331.586008 225.010375 
L 332.459988 224.515221 
L 334.207949 223.954048 
L 335.081929 223.392874 
L 335.518919 222.930731 
L 335.955909 222.666649 
L 336.3929 222.567619 
L 337.26688 221.841394 
L 337.70387 221.775373 
L 338.14086 221.049149 
L 338.57785 220.851087 
L 339.01484 220.487975 
L 339.451831 220.421954 
L 340.325811 219.860781 
L 341.199791 219.563689 
L 341.636781 219.233587 
L 342.073771 219.068535 
L 343.821732 217.880168 
L 345.132702 217.186953 
L 346.006683 216.955882 
L 346.880663 216.460728 
L 347.317653 215.701493 
L 348.191633 215.041289 
L 348.628624 214.942258 
L 351.250565 213.65486 
L 352.124545 213.291747 
L 352.998525 212.664553 
L 353.872505 211.773277 
L 357.805417 208.670317 
L 358.242407 208.307205 
L 359.116387 208.010113 
L 359.990367 207.415929 
L 361.301338 206.722714 
L 361.738328 206.656694 
L 363.049298 205.930469 
L 363.923279 205.369295 
L 368.29318 203.718784 
L 368.73017 203.355672 
L 370.478131 202.662457 
L 370.915121 202.530417 
L 371.789101 201.936233 
L 372.663082 201.57312 
L 373.537062 200.945926 
L 374.411042 199.163374 
L 375.285023 198.107047 
L 376.595993 197.413833 
L 377.469973 197.05072 
L 377.906963 196.9847 
L 378.343954 196.720618 
L 380.528904 195.994394 
L 380.965894 195.796332 
L 381.839875 195.202148 
L 383.150845 194.640975 
L 384.024825 194.145821 
L 384.898806 193.617658 
L 385.335796 193.320566 
L 385.772786 192.825413 
L 387.083756 192.066178 
L 387.520747 191.901127 
L 388.394727 191.372963 
L 390.142687 190.415667 
L 390.579678 190.316636 
L 391.016668 189.953524 
L 394.075599 188.930207 
L 394.512589 188.600105 
L 395.386569 188.336023 
L 396.26055 187.972911 
L 396.69754 187.609798 
L 398.4455 186.982604 
L 399.319481 186.35541 
L 400.193461 185.992298 
L 401.067441 185.299083 
L 401.941421 185.035001 
L 402.378412 184.638879 
L 402.815402 184.572858 
L 403.689382 183.879644 
L 404.563362 183.417501 
L 405.000352 183.219439 
L 405.437343 182.757296 
L 408.496274 181.502908 
L 409.370254 181.106785 
L 410.681224 180.677653 
L 411.555205 180.545612 
L 411.992195 180.34755 
L 412.429185 180.28153 
L 413.303165 179.885407 
L 413.740155 179.852397 
L 415.488116 179.192193 
L 416.799086 178.234897 
L 417.236076 178.069845 
L 418.110057 177.574692 
L 418.547047 177.442651 
L 421.168988 175.957192 
L 421.605978 175.858161 
L 422.916948 175.065916 
L 424.227919 174.603773 
L 425.101899 174.306681 
L 426.84986 173.712497 
L 427.72384 173.415405 
L 429.471801 173.052292 
L 429.908791 172.854231 
L 430.782771 172.62316 
L 431.219761 172.425098 
L 431.656751 172.359078 
L 432.093741 172.128006 
L 432.967722 171.962955 
L 434.278692 171.467802 
L 435.152672 171.368771 
L 436.463643 171.071679 
L 438.648594 170.675557 
L 450.010337 167.242494 
L 450.447328 166.780351 
L 453.069268 165.691014 
L 454.817229 165.09683 
L 455.254219 164.832748 
L 456.56519 164.436626 
L 457.43917 164.205554 
L 457.87616 163.908462 
L 458.31315 163.809431 
L 458.75014 163.413309 
L 460.061111 163.149227 
L 460.935091 162.720094 
L 461.372081 162.191931 
L 463.120042 161.762798 
L 466.178973 161.102594 
L 466.615963 161.102594 
L 467.052953 160.904532 
L 468.800914 160.57443 
L 469.237904 160.376369 
L 470.985864 160.046267 
L 471.859845 159.683154 
L 472.733825 159.518103 
L 474.918776 158.95693 
L 476.666736 158.395756 
L 477.103726 158.296725 
L 477.540717 158.065654 
L 478.414697 157.834582 
L 479.288677 157.47147 
L 480.162657 157.141368 
L 480.599648 156.844276 
L 481.473628 156.580194 
L 484.532559 155.424836 
L 486.280519 155.193765 
L 489.776441 153.906366 
L 490.213431 153.576264 
L 490.650421 153.477233 
L 491.087411 153.246162 
L 491.524401 153.213152 
L 496.331293 151.46361 
L 498.516244 150.869426 
L 499.390224 150.440293 
L 500.701194 150.143201 
L 502.449155 148.690752 
L 504.197115 147.931517 
L 505.071096 147.535394 
L 507.693037 146.512078 
L 508.130027 146.214986 
L 510.314977 145.488761 
L 511.625948 144.729526 
L 512.062938 144.630495 
L 513.810899 143.640189 
L 515.558859 142.847943 
L 515.995849 142.517841 
L 516.86983 142.220749 
L 519.05478 141.098402 
L 520.365751 140.636259 
L 522.113711 139.910034 
L 523.424682 139.414881 
L 523.861672 139.24983 
L 524.735652 139.117789 
L 525.172642 138.820697 
L 526.920603 138.457584 
L 527.794583 138.094472 
L 529.542544 137.269217 
L 535.660406 134.562379 
L 536.971376 134.133246 
L 537.408367 133.836154 
L 538.282347 133.737123 
L 538.719337 133.440031 
L 539.593317 133.27498 
L 540.467298 132.845848 
L 540.904288 132.647786 
L 541.778268 132.416715 
L 542.652248 132.152633 
L 543.963219 131.65748 
L 545.274189 131.228347 
L 546.58516 130.931255 
L 548.33312 130.20503 
L 549.2071 129.709877 
L 550.955061 128.818601 
L 551.829041 128.62054 
L 552.266031 128.356458 
L 552.703022 128.257427 
L 554.013992 127.498192 
L 554.887972 127.13508 
L 564.501756 123.404925 
L 566.249716 122.57967 
L 570.619618 120.863139 
L 571.493598 120.434006 
L 571.930588 120.334975 
L 572.367578 120.103904 
L 574.115539 119.60875 
L 575.863499 118.156301 
L 576.300489 118.02426 
L 576.73748 117.760178 
L 578.04845 117.397066 
L 578.48544 117.066964 
L 578.92243 116.967933 
L 580.233401 116.175688 
L 580.670391 115.878596 
L 581.981361 115.383442 
L 582.418351 115.152371 
L 583.729322 114.855279 
L 585.914273 114.096044 
L 586.788253 113.798952 
L 588.099223 113.138748 
L 588.973204 112.709615 
L 589.847184 112.478543 
L 591.158154 111.851349 
L 595.091066 110.365889 
L 596.402036 109.540634 
L 596.839026 109.441603 
L 597.713007 109.012471 
L 598.586987 108.682368 
L 599.023977 108.286246 
L 599.897957 107.923133 
L 601.208928 107.46099 
L 601.645918 107.097878 
L 602.082908 107.064868 
L 602.956888 106.800786 
L 603.830869 106.503694 
L 604.267859 106.305633 
L 604.704849 106.239612 
L 606.015819 105.744459 
L 607.32679 105.249306 
L 609.07475 104.457061 
L 609.948731 104.225989 
L 610.385721 103.961907 
L 611.259701 103.730836 
L 612.570672 102.971601 
L 613.007662 102.938591 
L 614.318632 102.509458 
L 615.192612 102.443437 
L 615.629603 102.212366 
L 616.503583 101.981294 
L 616.940573 101.750223 
L 619.125524 101.32109 
L 619.999504 101.156039 
L 621.310474 100.660886 
L 622.621445 100.363794 
L 623.932415 99.670579 
L 624.369405 99.274456 
L 625.680376 98.482211 
L 626.117366 98.152109 
L 627.428336 97.722976 
L 628.302317 97.458894 
L 628.739307 97.227823 
L 629.176297 97.128792 
L 629.613287 96.76568 
L 632.235228 95.643332 
L 633.983189 95.181189 
L 634.857169 94.785067 
L 635.294159 94.553995 
L 636.168139 94.289914 
L 636.60513 94.025832 
L 637.47911 93.860781 
L 640.975031 92.342311 
L 641.412021 92.27629 
L 642.722992 91.418025 
L 643.159982 91.352004 
L 644.907942 90.65879 
L 646.655903 90.229657 
L 647.092893 90.163636 
L 647.529883 89.965575 
L 647.966873 89.932565 
L 648.840854 89.635473 
L 649.277844 89.602463 
L 650.588814 89.074299 
L 652.336775 88.579146 
L 653.210755 87.918942 
L 654.958716 86.928635 
L 656.269686 86.466492 
L 659.765607 84.782971 
L 660.202597 84.551899 
L 660.639588 84.155777 
L 662.824538 83.561593 
L 664.135509 82.967409 
L 665.009489 82.736337 
L 665.446479 82.505266 
L 665.883469 82.142154 
L 667.63143 81.68001 
L 668.06842 81.349908 
L 673.749292 79.270265 
L 674.623272 79.105214 
L 676.808223 78.411999 
L 677.682203 78.048887 
L 678.556184 77.718784 
L 679.430164 77.487713 
L 679.867154 77.289652 
L 680.304144 77.289652 
L 681.178124 76.926539 
L 682.052105 76.398376 
L 685.111036 75.375059 
L 686.858996 74.780875 
L 688.169967 74.483783 
L 689.480937 74.05465 
L 689.917927 73.95562 
L 690.354917 73.658528 
L 691.228898 73.460466 
L 692.976858 72.965313 
L 693.413848 72.932303 
L 694.287829 72.53618 
L 697.34676 71.776945 
L 698.22074 71.413833 
L 702.590642 70.423526 
L 703.901612 69.730312 
L 705.212582 69.334189 
L 709.582484 67.716688 
L 710.019474 67.386586 
L 711.330444 67.089494 
L 712.204425 66.825413 
L 713.078405 66.39628 
L 713.515395 66.033167 
L 714.389375 65.769086 
L 714.826366 65.505004 
L 715.700346 65.405973 
L 718.759277 64.547708 
L 720.070247 64.283626 
L 722.692188 63.42536 
L 724.440149 62.600105 
L 729.24704 60.817553 
L 730.121021 60.685512 
L 730.995001 60.520461 
L 731.431991 60.520461 
L 733.179952 59.959287 
L 733.616942 59.893267 
L 734.490922 59.530155 
L 735.364902 59.299083 
L 737.986843 58.572858 
L 738.860824 58.341787 
L 739.297814 58.242756 
L 739.734804 57.978674 
L 740.608784 57.813623 
L 741.482764 57.714593 
L 741.919755 57.483521 
L 742.356745 57.450511 
L 743.230725 56.889337 
L 744.978686 56.493215 
L 745.852666 56.097092 
L 746.726646 55.8 
L 747.163636 55.8 
L 747.163636 55.8 
" clip-path="url(#p5c095faea4)" style="fill: none; stroke: #1f77b4; stroke-width: 1.5; stroke-linecap: square"/>
   </g>
   <g id="line2d_38">
    <path d="M 138.873354 307.8 
L 142.806265 307.700969 
L 146.302186 307.535918 
L 148.050147 307.535918 
L 148.487137 307.403877 
L 150.672088 307.304847 
L 153.294029 307.007755 
L 155.915969 306.908724 
L 156.78995 306.809693 
L 159.848881 306.677653 
L 162.907812 306.578622 
L 165.092763 306.512602 
L 170.773634 306.413571 
L 172.958585 306.34755 
L 176.891496 306.24852 
L 178.639457 306.21551 
L 183.009358 306.116479 
L 184.757319 305.951428 
L 186.50528 305.918418 
L 189.127221 305.819387 
L 190.875181 305.786377 
L 193.060132 305.720356 
L 194.808092 305.555305 
L 198.741004 305.456275 
L 199.614984 305.390254 
L 201.362945 305.291223 
L 203.984885 305.192193 
L 205.732846 305.093162 
L 213.598669 304.598009 
L 216.6576 304.498978 
L 217.96857 304.366937 
L 220.153521 304.267907 
L 224.523422 304.036835 
L 228.893324 303.970815 
L 230.641284 303.772753 
L 232.389245 303.673723 
L 237.196137 303.21158 
L 240.255068 302.848467 
L 241.566038 302.782447 
L 245.061959 302.320304 
L 247.6839 302.254283 
L 248.99487 302.122243 
L 250.305841 302.023212 
L 262.541565 301.065916 
L 263.415545 300.900865 
L 266.037486 300.801834 
L 273.029328 300.372701 
L 276.088259 300.27367 
L 277.83622 300.075609 
L 280.021171 299.976578 
L 282.643112 299.877548 
L 284.828062 299.778517 
L 286.576023 299.745507 
L 288.760974 299.679487 
L 289.634954 299.547446 
L 295.752816 299.448415 
L 296.626796 299.349384 
L 301.870678 299.250354 
L 305.803589 299.052292 
L 308.86252 298.953262 
L 310.610481 298.7552 
L 313.669412 298.65617 
L 314.543392 298.491119 
L 316.728343 298.425098 
L 321.098244 298.359078 
L 322.846205 298.194027 
L 324.594166 298.161017 
L 325.905136 298.061986 
L 327.653097 297.896935 
L 332.022998 297.665863 
L 336.3929 297.566833 
L 340.325811 297.368771 
L 341.636781 297.335761 
L 342.510762 297.20372 
L 344.695712 297.10469 
L 345.569693 297.038669 
L 346.443673 296.972649 
L 347.317653 296.906628 
L 351.250565 296.840608 
L 352.561535 296.741577 
L 364.360269 295.949332 
L 366.54522 295.850301 
L 368.73017 295.784281 
L 374.848032 295.68525 
L 375.722013 295.553209 
L 381.839875 295.454179 
L 386.209776 295.223107 
L 387.083756 295.190097 
L 387.957737 295.091066 
L 390.142687 294.992036 
L 392.327638 294.926015 
L 394.512589 294.826985 
L 396.69754 294.760964 
L 400.630451 294.661933 
L 403.252392 294.562903 
L 409.370254 294.463872 
L 414.177145 294.19979 
L 415.925106 294.13377 
L 417.236076 294.034739 
L 423.353939 293.935709 
L 425.975879 293.836678 
L 433.841702 293.737647 
L 435.589663 293.704637 
L 440.833544 293.638617 
L 441.707525 293.572596 
L 447.825387 293.473566 
L 449.573347 293.440555 
L 460.935091 293.341525 
L 463.557032 293.242494 
L 481.910618 293.143463 
L 484.095569 293.077443 
L 495.457313 293.011423 
L 496.331293 292.945402 
L 498.516244 292.879382 
L 499.827214 292.747341 
L 502.449155 292.64831 
L 505.508086 292.516269 
L 509.440997 292.417239 
L 511.625948 292.351218 
L 514.684879 292.252188 
L 518.1808 292.087136 
L 520.365751 291.988106 
L 522.113711 291.955096 
L 526.046623 291.856065 
L 527.794583 291.823055 
L 533.475455 291.724024 
L 535.223416 291.691014 
L 537.408367 291.591983 
L 540.030307 291.492953 
L 543.089238 291.426932 
L 543.963219 291.360912 
L 554.450982 291.261881 
L 560.131854 290.931779 
L 562.316805 290.865758 
L 563.190785 290.766728 
L 564.064765 290.700707 
L 567.560687 290.601677 
L 570.182627 290.502646 
L 574.552529 290.403615 
L 576.73748 290.172544 
L 581.107381 290.073513 
L 581.981361 289.974483 
L 586.351263 289.875452 
L 588.536214 289.809431 
L 593.343105 289.776421 
L 594.217085 289.677391 
L 599.023977 289.57836 
L 599.897957 289.51234 
L 609.511741 289.413309 
L 612.133681 289.314278 
L 618.688534 289.215248 
L 620.436494 289.182237 
L 624.369405 289.116217 
L 625.243386 289.017186 
L 630.924258 288.918156 
L 633.109208 288.852135 
L 640.975031 288.753105 
L 642.286001 288.654074 
L 643.596972 288.555043 
L 644.907942 288.456013 
L 651.462794 288.356982 
L 654.084735 288.257951 
L 665.883469 288.158921 
L 669.816381 287.960859 
L 675.060262 287.861829 
L 675.934243 287.795808 
L 682.489095 287.729788 
L 683.363075 287.663767 
L 688.169967 287.564737 
L 689.917927 287.531726 
L 696.035789 287.432696 
L 698.65773 287.333665 
L 706.086563 287.234635 
L 707.834523 287.201624 
L 711.767435 287.102594 
L 715.263356 286.937543 
L 720.070247 286.838512 
L 723.129178 286.706471 
L 727.06209 286.60744 
L 727.93607 286.54142 
L 736.675873 286.442389 
L 738.860824 286.376369 
L 741.482764 286.277338 
L 744.104705 286.178308 
L 747.163636 286.112287 
L 747.163636 286.112287 
" clip-path="url(#p5c095faea4)" style="fill: none; stroke: #ff7f0e; stroke-width: 1.5; stroke-linecap: square"/>
   </g>
   <g id="patch_3">
    <path d="M 108 320.4 
L 108 43.2 
" style="fill: none; stroke: #a9a9a9; stroke-width: 0.8; stroke-linejoin: miter; stroke-linecap: square"/>
   </g>
   <g id="patch_4">
    <path d="M 777.6 320.4 
L 777.6 43.2 
" style="fill: none"/>
   </g>
   <g id="patch_5">
    <path d="M 108 320.4 
L 777.6 320.4 
" style="fill: none; stroke: #a9a9a9; stroke-width: 0.8; stroke-linejoin: miter; stroke-linecap: square"/>
   </g>
   <g id="patch_6">
    <path d="M 108 43.2 
L 777.6 43.2 
" style="fill: none"/>
   </g>
   <g id="text_19">
    <!-- get_subscribe history -->
    <g style="fill: #a9a9a9" transform="translate(378.6075 37.2) scale(0.12 -0.12)">
     <defs>
      <path id="DejaVuSans-67" d="M 2906 1791 
Q 2906 2416 2648 2759 
Q 2391 3103 1925 3103 
Q 1463 3103 1205 2759 
Q 947 2416 947 1791 
Q 947 1169 1205 825 
Q 1463 481 1925 481 
Q 2391 481 2648 825 
Q 2906 1169 2906 1791 
z
M 3481 434 
Q 3481 -459 3084 -895 
Q 2688 -1331 1869 -1331 
Q 1566 -1331 1297 -1286 
Q 1028 -1241 775 -1147 
L 775 -588 
Q 1028 -725 1275 -790 
Q 1522 -856 1778 -856 
Q 2344 -856 2625 -561 
Q 2906 -266 2906 331 
L 2906 616 
Q 2728 306 2450 153 
Q 2172 0 1784 0 
Q 1141 0 747 490 
Q 353 981 353 1791 
Q 353 2603 747 3093 
Q 1141 3584 1784 3584 
Q 2172 3584 2450 3431 
Q 2728 3278 2906 2969 
L 2906 3500 
L 3481 3500 
L 3481 434 
z
" transform="scale(0.015625)"/>
      <path id="DejaVuSans-65" d="M 3597 1894 
L 3597 1613 
L 953 1613 
Q 991 1019 1311 708 
Q 1631 397 2203 397 
Q 2534 397 2845 478 
Q 3156 559 3463 722 
L 3463 178 
Q 3153 47 2828 -22 
Q 2503 -91 2169 -91 
Q 1331 -91 842 396 
Q 353 884 353 1716 
Q 353 2575 817 3079 
Q 1281 3584 2069 3584 
Q 2775 3584 3186 3129 
Q 3597 2675 3597 1894 
z
M 3022 2063 
Q 3016 2534 2758 2815 
Q 2500 3097 2075 3097 
Q 1594 3097 1305 2825 
Q 1016 2553 972 2059 
L 3022 2063 
z
" transform="scale(0.015625)"/>
      <path id="DejaVuSans-74" d="M 1172 4494 
L 1172 3500 
L 2356 3500 
L 2356 3053 
L 1172 3053 
L 1172 1153 
Q 1172 725 1289 603 
Q 1406 481 1766 481 
L 2356 481 
L 2356 0 
L 1766 0 
Q 1100 0 847 248 
Q 594 497 594 1153 
L 594 3053 
L 172 3053 
L 172 3500 
L 594 3500 
L 594 4494 
L 1172 4494 
z
" transform="scale(0.015625)"/>
      <path id="DejaVuSans-5f" d="M 3263 -1063 
L 3263 -1509 
L -63 -1509 
L -63 -1063 
L 3263 -1063 
z
" transform="scale(0.015625)"/>
      <path id="DejaVuSans-73" d="M 2834 3397 
L 2834 2853 
Q 2591 2978 2328 3040 
Q 2066 3103 1784 3103 
Q 1356 3103 1142 2972 
Q 928 2841 928 2578 
Q 928 2378 1081 2264 
Q 1234 2150 1697 2047 
L 1894 2003 
Q 2506 1872 2764 1633 
Q 3022 1394 3022 966 
Q 3022 478 2636 193 
Q 2250 -91 1575 -91 
Q 1294 -91 989 -36 
Q 684 19 347 128 
L 347 722 
Q 666 556 975 473 
Q 1284 391 1588 391 
Q 1994 391 2212 530 
Q 2431 669 2431 922 
Q 2431 1156 2273 1281 
Q 2116 1406 1581 1522 
L 1381 1569 
Q 847 1681 609 1914 
Q 372 2147 372 2553 
Q 372 3047 722 3315 
Q 1072 3584 1716 3584 
Q 2034 3584 2315 3537 
Q 2597 3491 2834 3397 
z
" transform="scale(0.015625)"/>
      <path id="DejaVuSans-75" d="M 544 1381 
L 544 3500 
L 1119 3500 
L 1119 1403 
Q 1119 906 1312 657 
Q 1506 409 1894 409 
Q 2359 409 2629 706 
Q 2900 1003 2900 1516 
L 2900 3500 
L 3475 3500 
L 3475 0 
L 2900 0 
L 2900 538 
Q 2691 219 2414 64 
Q 2138 -91 1772 -91 
Q 1169 -91 856 284 
Q 544 659 544 1381 
z
M 1991 3584 
L 1991 3584 
z
" transform="scale(0.015625)"/>
      <path id="DejaVuSans-62" d="M 3116 1747 
Q 3116 2381 2855 2742 
Q 2594 3103 2138 3103 
Q 1681 3103 1420 2742 
Q 1159 2381 1159 1747 
Q 1159 1113 1420 752 
Q 1681 391 2138 391 
Q 2594 391 2855 752 
Q 3116 1113 3116 1747 
z
M 1159 2969 
Q 1341 3281 1617 3432 
Q 1894 3584 2278 3584 
Q 2916 3584 3314 3078 
Q 3713 2572 3713 1747 
Q 3713 922 3314 415 
Q 2916 -91 2278 -91 
Q 1894 -91 1617 61 
Q 1341 213 1159 525 
L 1159 0 
L 581 0 
L 581 4863 
L 1159 4863 
L 1159 2969 
z
" transform="scale(0.015625)"/>
      <path id="DejaVuSans-63" d="M 3122 3366 
L 3122 2828 
Q 2878 2963 2633 3030 
Q 2388 3097 2138 3097 
Q 1578 3097 1268 2742 
Q 959 2388 959 1747 
Q 959 1106 1268 751 
Q 1578 397 2138 397 
Q 2388 397 2633 464 
Q 2878 531 3122 666 
L 3122 134 
Q 2881 22 2623 -34 
Q 2366 -91 2075 -91 
Q 1284 -91 818 406 
Q 353 903 353 1747 
Q 353 2603 823 3093 
Q 1294 3584 2113 3584 
Q 2378 3584 2631 3529 
Q 2884 3475 3122 3366 
z
" transform="scale(0.015625)"/>
      <path id="DejaVuSans-72" d="M 2631 2963 
Q 2534 3019 2420 3045 
Q 2306 3072 2169 3072 
Q 1681 3072 1420 2755 
Q 1159 2438 1159 1844 
L 1159 0 
L 581 0 
L 581 3500 
L 1159 3500 
L 1159 2956 
Q 1341 3275 1631 3429 
Q 1922 3584 2338 3584 
Q 2397 3584 2469 3576 
Q 2541 3569 2628 3553 
L 2631 2963 
z
" transform="scale(0.015625)"/>
      <path id="DejaVuSans-69" d="M 603 3500 
L 1178 3500 
L 1178 0 
L 603 0 
L 603 3500 
z
M 603 4863 
L 1178 4863 
L 1178 4134 
L 603 4134 
L 603 4863 
z
" transform="scale(0.015625)"/>
      <path id="DejaVuSans-20" transform="scale(0.015625)"/>
      <path id="DejaVuSans-68" d="M 3513 2113 
L 3513 0 
L 2938 0 
L 2938 2094 
Q 2938 2591 2744 2837 
Q 2550 3084 2163 3084 
Q 1697 3084 1428 2787 
Q 1159 2491 1159 1978 
L 1159 0 
L 581 0 
L 581 4863 
L 1159 4863 
L 1159 2956 
Q 1366 3272 1645 3428 
Q 1925 3584 2291 3584 
Q 2894 3584 3203 3211 
Q 3513 2838 3513 2113 
z
" transform="scale(0.015625)"/>
      <path id="DejaVuSans-6f" d="M 1959 3097 
Q 1497 3097 1228 2736 
Q 959 2375 959 1747 
Q 959 1119 1226 758 
Q 1494 397 1959 397 
Q 2419 397 2687 759 
Q 2956 1122 2956 1747 
Q 2956 2369 2687 2733 
Q 2419 3097 1959 3097 
z
M 1959 3584 
Q 2709 3584 3137 3096 
Q 3566 2609 3566 1747 
Q 3566 888 3137 398 
Q 2709 -91 1959 -91 
Q 1206 -91 779 398 
Q 353 888 353 1747 
Q 353 2609 779 3096 
Q 1206 3584 1959 3584 
z
" transform="scale(0.015625)"/>
      <path id="DejaVuSans-79" d="M 2059 -325 
Q 1816 -950 1584 -1140 
Q 1353 -1331 966 -1331 
L 506 -1331 
L 506 -850 
L 844 -850 
Q 1081 -850 1212 -737 
Q 1344 -625 1503 -206 
L 1606 56 
L 191 3500 
L 800 3500 
L 1894 763 
L 2988 3500 
L 3597 3500 
L 2059 -325 
z
" transform="scale(0.015625)"/>
     </defs>
     <use xlink:href="#DejaVuSans-67"/>
     <use xlink:href="#DejaVuSans-65" transform="translate(63.476562 0)"/>
     <use xlink:href="#DejaVuSans-74" transform="translate(125 0)"/>
     <use xlink:href="#DejaVuSans-5f" transform="translate(164.208984 0)"/>
     <use xlink:href="#DejaVuSans-73" transform="translate(214.208984 0)"/>
     <use xlink:href="#DejaVuSans-75" transform="translate(266.308594 0)"/>
     <use xlink:href="#DejaVuSans-62" transform="translate(329.6875 0)"/>
     <use xlink:href="#DejaVuSans-73" transform="translate(393.164062 0)"/>
     <use xlink:href="#DejaVuSans-63" transform="translate(445.263672 0)"/>
     <use xlink:href="#DejaVuSans-72" transform="translate(500.244141 0)"/>
     <use xlink:href="#DejaVuSans-69" transform="translate(541.357422 0)"/>
     <use xlink:href="#DejaVuSans-62" transform="translate(569.140625 0)"/>
     <use xlink:href="#DejaVuSans-65" transform="translate(632.617188 0)"/>
     <use xlink:href="#DejaVuSans-20" transform="translate(694.140625 0)"/>
     <use xlink:href="#DejaVuSans-68" transform="translate(725.927734 0)"/>
     <use xlink:href="#DejaVuSans-69" transform="translate(789.306641 0)"/>
     <use xlink:href="#DejaVuSans-73" transform="translate(817.089844 0)"/>
     <use xlink:href="#DejaVuSans-74" transform="translate(869.189453 0)"/>
     <use xlink:href="#DejaVuSans-6f" transform="translate(908.398438 0)"/>
     <use xlink:href="#DejaVuSans-72" transform="translate(969.580078 0)"/>
     <use xlink:href="#DejaVuSans-79" transform="translate(1010.693359 0)"/>
    </g>
   </g>
   <g id="legend_1">
    <g id="line2d_39">
     <path d="M 815.08 328.498438 
L 825.08 328.498438 
L 835.08 328.498438 
" style="fill: none; stroke: #1f77b4; stroke-width: 1.5; stroke-linecap: square"/>
    </g>
    <g id="text_20">
     <!-- star -->
     <g style="fill: #a9a9a9" transform="translate(843.08 331.998438) scale(0.1 -0.1)">
      <defs>
       <path id="DejaVuSans-61" d="M 2194 1759 
Q 1497 1759 1228 1600 
Q 959 1441 959 1056 
Q 959 750 1161 570 
Q 1363 391 1709 391 
Q 2188 391 2477 730 
Q 2766 1069 2766 1631 
L 2766 1759 
L 2194 1759 
z
M 3341 1997 
L 3341 0 
L 2766 0 
L 2766 531 
Q 2569 213 2275 61 
Q 1981 -91 1556 -91 
Q 1019 -91 701 211 
Q 384 513 384 1019 
Q 384 1609 779 1909 
Q 1175 2209 1959 2209 
L 2766 2209 
L 2766 2266 
Q 2766 2663 2505 2880 
Q 2244 3097 1772 3097 
Q 1472 3097 1187 3025 
Q 903 2953 641 2809 
L 641 3341 
Q 956 3463 1253 3523 
Q 1550 3584 1831 3584 
Q 2591 3584 2966 3190 
Q 3341 2797 3341 1997 
z
" transform="scale(0.015625)"/>
      </defs>
      <use xlink:href="#DejaVuSans-73"/>
      <use xlink:href="#DejaVuSans-74" transform="translate(52.099609 0)"/>
      <use xlink:href="#DejaVuSans-61" transform="translate(91.308594 0)"/>
      <use xlink:href="#DejaVuSans-72" transform="translate(152.587891 0)"/>
     </g>
    </g>
    <g id="line2d_40">
     <path d="M 815.08 343.176562 
L 825.08 343.176562 
L 835.08 343.176562 
" style="fill: none; stroke: #ff7f0e; stroke-width: 1.5; stroke-linecap: square"/>
    </g>
    <g id="text_21">
     <!-- fork -->
     <g style="fill: #a9a9a9" transform="translate(843.08 346.676562) scale(0.1 -0.1)">
      <defs>
       <path id="DejaVuSans-66" d="M 2375 4863 
L 2375 4384 
L 1825 4384 
Q 1516 4384 1395 4259 
Q 1275 4134 1275 3809 
L 1275 3500 
L 2222 3500 
L 2222 3053 
L 1275 3053 
L 1275 0 
L 697 0 
L 697 3053 
L 147 3053 
L 147 3500 
L 697 3500 
L 697 3744 
Q 697 4328 969 4595 
Q 1241 4863 1831 4863 
L 2375 4863 
z
" transform="scale(0.015625)"/>
       <path id="DejaVuSans-6b" d="M 581 4863 
L 1159 4863 
L 1159 1991 
L 2875 3500 
L 3609 3500 
L 1753 1863 
L 3688 0 
L 2938 0 
L 1159 1709 
L 1159 0 
L 581 0 
L 581 4863 
z
" transform="scale(0.015625)"/>
      </defs>
      <use xlink:href="#DejaVuSans-66"/>
      <use xlink:href="#DejaVuSans-6f" transform="translate(35.205078 0)"/>
      <use xlink:href="#DejaVuSans-72" transform="translate(96.386719 0)"/>
      <use xlink:href="#DejaVuSans-6b" transform="translate(137.5 0)"/>
     </g>
    </g>
   </g>
  </g>
 </g>
 <defs>
  <clipPath id="p5c095faea4">
   <rect x="108" y="43.2" width="669.6" height="277.2"/>
  </clipPath>
 </defs>
</svg>
