<?xml version="1.0" encoding="utf-8" standalone="no"?>
<!DOCTYPE svg PUBLIC "-//W3C//DTD SVG 1.1//EN"
  "http://www.w3.org/Graphics/SVG/1.1/DTD/svg11.dtd">
<svg xmlns:xlink="http://www.w3.org/1999/xlink" width="864pt" height="360pt" viewBox="0 0 864 360" xmlns="http://www.w3.org/2000/svg" version="1.1">
 <metadata>
  <rdf:RDF xmlns:dc="http://purl.org/dc/elements/1.1/" xmlns:cc="http://creativecommons.org/ns#" xmlns:rdf="http://www.w3.org/1999/02/22-rdf-syntax-ns#">
   <cc:Work>
    <dc:type rdf:resource="http://purl.org/dc/dcmitype/StillImage"/>
    <dc:date>2024-09-16T08:13:39.526292</dc:date>
    <dc:format>image/svg+xml</dc:format>
    <dc:creator>
     <cc:Agent>
      <dc:title>Matplotlib v3.9.2, https://matplotlib.org/</dc:title>
     </cc:Agent>
    </dc:creator>
   </cc:Work>
  </rdf:RDF>
 </metadata>
 <defs>
  <style type="text/css">*{stroke-linejoin: round; stroke-linecap: butt}</style>
 </defs>
 <g id="figure_1">
  <g id="patch_1">
   <path d="M 0 360 
L 864 360 
L 864 0 
L 0 0 
L 0 360 
z
" style="fill: none; opacity: 0"/>
  </g>
  <g id="axes_1">
   <g id="patch_2">
    <path d="M 108 320.4 
L 777.6 320.4 
L 777.6 43.2 
L 108 43.2 
L 108 320.4 
z
" style="fill: none; opacity: 0"/>
   </g>
   <g id="matplotlib.axis_1">
    <g id="xtick_1">
     <g id="line2d_1">
      <path d="M 159.080158 320.4 
L 159.080158 43.2 
" clip-path="url(#pda057cfb1b)" style="fill: none; stroke-dasharray: 5.12,1.28,0.8,1.28; stroke-dashoffset: 0; stroke: #b0b0b0; stroke-width: 0.8"/>
     </g>
     <g id="line2d_2">
      <defs>
       <path id="m1d70faf245" d="M 0 0 
L 0 3.5 
" style="stroke: #a9a9a9; stroke-width: 0.8"/>
      </defs>
      <g>
       <use xlink:href="#m1d70faf245" x="159.080158" y="320.4" style="fill: #a9a9a9; stroke: #a9a9a9; stroke-width: 0.8"/>
      </g>
     </g>
     <g id="text_1">
      <!-- 2021-09 -->
      <g style="fill: #a9a9a9" transform="translate(138.188752 334.998438) scale(0.1 -0.1)">
       <defs>
        <path id="DejaVuSans-32" d="M 1228 531 
L 3431 531 
L 3431 0 
L 469 0 
L 469 531 
Q 828 903 1448 1529 
Q 2069 2156 2228 2338 
Q 2531 2678 2651 2914 
Q 2772 3150 2772 3378 
Q 2772 3750 2511 3984 
Q 2250 4219 1831 4219 
Q 1534 4219 1204 4116 
Q 875 4013 500 3803 
L 500 4441 
Q 881 4594 1212 4672 
Q 1544 4750 1819 4750 
Q 2544 4750 2975 4387 
Q 3406 4025 3406 3419 
Q 3406 3131 3298 2873 
Q 3191 2616 2906 2266 
Q 2828 2175 2409 1742 
Q 1991 1309 1228 531 
z
" transform="scale(0.015625)"/>
        <path id="DejaVuSans-30" d="M 2034 4250 
Q 1547 4250 1301 3770 
Q 1056 3291 1056 2328 
Q 1056 1369 1301 889 
Q 1547 409 2034 409 
Q 2525 409 2770 889 
Q 3016 1369 3016 2328 
Q 3016 3291 2770 3770 
Q 2525 4250 2034 4250 
z
M 2034 4750 
Q 2819 4750 3233 4129 
Q 3647 3509 3647 2328 
Q 3647 1150 3233 529 
Q 2819 -91 2034 -91 
Q 1250 -91 836 529 
Q 422 1150 422 2328 
Q 422 3509 836 4129 
Q 1250 4750 2034 4750 
z
" transform="scale(0.015625)"/>
        <path id="DejaVuSans-31" d="M 794 531 
L 1825 531 
L 1825 4091 
L 703 3866 
L 703 4441 
L 1819 4666 
L 2450 4666 
L 2450 531 
L 3481 531 
L 3481 0 
L 794 0 
L 794 531 
z
" transform="scale(0.015625)"/>
        <path id="DejaVuSans-2d" d="M 313 2009 
L 1997 2009 
L 1997 1497 
L 313 1497 
L 313 2009 
z
" transform="scale(0.015625)"/>
        <path id="DejaVuSans-39" d="M 703 97 
L 703 672 
Q 941 559 1184 500 
Q 1428 441 1663 441 
Q 2288 441 2617 861 
Q 2947 1281 2994 2138 
Q 2813 1869 2534 1725 
Q 2256 1581 1919 1581 
Q 1219 1581 811 2004 
Q 403 2428 403 3163 
Q 403 3881 828 4315 
Q 1253 4750 1959 4750 
Q 2769 4750 3195 4129 
Q 3622 3509 3622 2328 
Q 3622 1225 3098 567 
Q 2575 -91 1691 -91 
Q 1453 -91 1209 -44 
Q 966 3 703 97 
z
M 1959 2075 
Q 2384 2075 2632 2365 
Q 2881 2656 2881 3163 
Q 2881 3666 2632 3958 
Q 2384 4250 1959 4250 
Q 1534 4250 1286 3958 
Q 1038 3666 1038 3163 
Q 1038 2656 1286 2365 
Q 1534 2075 1959 2075 
z
" transform="scale(0.015625)"/>
       </defs>
       <use xlink:href="#DejaVuSans-32"/>
       <use xlink:href="#DejaVuSans-30" x="63.623047"/>
       <use xlink:href="#DejaVuSans-32" x="127.246094"/>
       <use xlink:href="#DejaVuSans-31" x="190.869141"/>
       <use xlink:href="#DejaVuSans-2d" x="254.492188"/>
       <use xlink:href="#DejaVuSans-30" x="290.576172"/>
       <use xlink:href="#DejaVuSans-39" x="354.199219"/>
      </g>
     </g>
    </g>
    <g id="xtick_2">
     <g id="line2d_3">
      <path d="M 223.658182 320.4 
L 223.658182 43.2 
" clip-path="url(#pda057cfb1b)" style="fill: none; stroke-dasharray: 5.12,1.28,0.8,1.28; stroke-dashoffset: 0; stroke: #b0b0b0; stroke-width: 0.8"/>
     </g>
     <g id="line2d_4">
      <g>
       <use xlink:href="#m1d70faf245" x="223.658182" y="320.4" style="fill: #a9a9a9; stroke: #a9a9a9; stroke-width: 0.8"/>
      </g>
     </g>
     <g id="text_2">
      <!-- 2022-01 -->
      <g style="fill: #a9a9a9" transform="translate(202.766776 334.998438) scale(0.1 -0.1)">
       <use xlink:href="#DejaVuSans-32"/>
       <use xlink:href="#DejaVuSans-30" x="63.623047"/>
       <use xlink:href="#DejaVuSans-32" x="127.246094"/>
       <use xlink:href="#DejaVuSans-32" x="190.869141"/>
       <use xlink:href="#DejaVuSans-2d" x="254.492188"/>
       <use xlink:href="#DejaVuSans-30" x="290.576172"/>
       <use xlink:href="#DejaVuSans-31" x="354.199219"/>
      </g>
     </g>
    </g>
    <g id="xtick_3">
     <g id="line2d_5">
      <path d="M 287.177549 320.4 
L 287.177549 43.2 
" clip-path="url(#pda057cfb1b)" style="fill: none; stroke-dasharray: 5.12,1.28,0.8,1.28; stroke-dashoffset: 0; stroke: #b0b0b0; stroke-width: 0.8"/>
     </g>
     <g id="line2d_6">
      <g>
       <use xlink:href="#m1d70faf245" x="287.177549" y="320.4" style="fill: #a9a9a9; stroke: #a9a9a9; stroke-width: 0.8"/>
      </g>
     </g>
     <g id="text_3">
      <!-- 2022-05 -->
      <g style="fill: #a9a9a9" transform="translate(266.286143 334.998438) scale(0.1 -0.1)">
       <defs>
        <path id="DejaVuSans-35" d="M 691 4666 
L 3169 4666 
L 3169 4134 
L 1269 4134 
L 1269 2991 
Q 1406 3038 1543 3061 
Q 1681 3084 1819 3084 
Q 2600 3084 3056 2656 
Q 3513 2228 3513 1497 
Q 3513 744 3044 326 
Q 2575 -91 1722 -91 
Q 1428 -91 1123 -41 
Q 819 9 494 109 
L 494 744 
Q 775 591 1075 516 
Q 1375 441 1709 441 
Q 2250 441 2565 725 
Q 2881 1009 2881 1497 
Q 2881 1984 2565 2268 
Q 2250 2553 1709 2553 
Q 1456 2553 1204 2497 
Q 953 2441 691 2322 
L 691 4666 
z
" transform="scale(0.015625)"/>
       </defs>
       <use xlink:href="#DejaVuSans-32"/>
       <use xlink:href="#DejaVuSans-30" x="63.623047"/>
       <use xlink:href="#DejaVuSans-32" x="127.246094"/>
       <use xlink:href="#DejaVuSans-32" x="190.869141"/>
       <use xlink:href="#DejaVuSans-2d" x="254.492188"/>
       <use xlink:href="#DejaVuSans-30" x="290.576172"/>
       <use xlink:href="#DejaVuSans-35" x="354.199219"/>
      </g>
     </g>
    </g>
    <g id="xtick_4">
     <g id="line2d_7">
      <path d="M 352.284901 320.4 
L 352.284901 43.2 
" clip-path="url(#pda057cfb1b)" style="fill: none; stroke-dasharray: 5.12,1.28,0.8,1.28; stroke-dashoffset: 0; stroke: #b0b0b0; stroke-width: 0.8"/>
     </g>
     <g id="line2d_8">
      <g>
       <use xlink:href="#m1d70faf245" x="352.284901" y="320.4" style="fill: #a9a9a9; stroke: #a9a9a9; stroke-width: 0.8"/>
      </g>
     </g>
     <g id="text_4">
      <!-- 2022-09 -->
      <g style="fill: #a9a9a9" transform="translate(331.393495 334.998438) scale(0.1 -0.1)">
       <use xlink:href="#DejaVuSans-32"/>
       <use xlink:href="#DejaVuSans-30" x="63.623047"/>
       <use xlink:href="#DejaVuSans-32" x="127.246094"/>
       <use xlink:href="#DejaVuSans-32" x="190.869141"/>
       <use xlink:href="#DejaVuSans-2d" x="254.492188"/>
       <use xlink:href="#DejaVuSans-30" x="290.576172"/>
       <use xlink:href="#DejaVuSans-39" x="354.199219"/>
      </g>
     </g>
    </g>
    <g id="xtick_5">
     <g id="line2d_9">
      <path d="M 416.862925 320.4 
L 416.862925 43.2 
" clip-path="url(#pda057cfb1b)" style="fill: none; stroke-dasharray: 5.12,1.28,0.8,1.28; stroke-dashoffset: 0; stroke: #b0b0b0; stroke-width: 0.8"/>
     </g>
     <g id="line2d_10">
      <g>
       <use xlink:href="#m1d70faf245" x="416.862925" y="320.4" style="fill: #a9a9a9; stroke: #a9a9a9; stroke-width: 0.8"/>
      </g>
     </g>
     <g id="text_5">
      <!-- 2023-01 -->
      <g style="fill: #a9a9a9" transform="translate(395.971519 334.998438) scale(0.1 -0.1)">
       <defs>
        <path id="DejaVuSans-33" d="M 2597 2516 
Q 3050 2419 3304 2112 
Q 3559 1806 3559 1356 
Q 3559 666 3084 287 
Q 2609 -91 1734 -91 
Q 1441 -91 1130 -33 
Q 819 25 488 141 
L 488 750 
Q 750 597 1062 519 
Q 1375 441 1716 441 
Q 2309 441 2620 675 
Q 2931 909 2931 1356 
Q 2931 1769 2642 2001 
Q 2353 2234 1838 2234 
L 1294 2234 
L 1294 2753 
L 1863 2753 
Q 2328 2753 2575 2939 
Q 2822 3125 2822 3475 
Q 2822 3834 2567 4026 
Q 2313 4219 1838 4219 
Q 1578 4219 1281 4162 
Q 984 4106 628 3988 
L 628 4550 
Q 988 4650 1302 4700 
Q 1616 4750 1894 4750 
Q 2613 4750 3031 4423 
Q 3450 4097 3450 3541 
Q 3450 3153 3228 2886 
Q 3006 2619 2597 2516 
z
" transform="scale(0.015625)"/>
       </defs>
       <use xlink:href="#DejaVuSans-32"/>
       <use xlink:href="#DejaVuSans-30" x="63.623047"/>
       <use xlink:href="#DejaVuSans-32" x="127.246094"/>
       <use xlink:href="#DejaVuSans-33" x="190.869141"/>
       <use xlink:href="#DejaVuSans-2d" x="254.492188"/>
       <use xlink:href="#DejaVuSans-30" x="290.576172"/>
       <use xlink:href="#DejaVuSans-31" x="354.199219"/>
      </g>
     </g>
    </g>
    <g id="xtick_6">
     <g id="line2d_11">
      <path d="M 480.382292 320.4 
L 480.382292 43.2 
" clip-path="url(#pda057cfb1b)" style="fill: none; stroke-dasharray: 5.12,1.28,0.8,1.28; stroke-dashoffset: 0; stroke: #b0b0b0; stroke-width: 0.8"/>
     </g>
     <g id="line2d_12">
      <g>
       <use xlink:href="#m1d70faf245" x="480.382292" y="320.4" style="fill: #a9a9a9; stroke: #a9a9a9; stroke-width: 0.8"/>
      </g>
     </g>
     <g id="text_6">
      <!-- 2023-05 -->
      <g style="fill: #a9a9a9" transform="translate(459.490886 334.998438) scale(0.1 -0.1)">
       <use xlink:href="#DejaVuSans-32"/>
       <use xlink:href="#DejaVuSans-30" x="63.623047"/>
       <use xlink:href="#DejaVuSans-32" x="127.246094"/>
       <use xlink:href="#DejaVuSans-33" x="190.869141"/>
       <use xlink:href="#DejaVuSans-2d" x="254.492188"/>
       <use xlink:href="#DejaVuSans-30" x="290.576172"/>
       <use xlink:href="#DejaVuSans-35" x="354.199219"/>
      </g>
     </g>
    </g>
    <g id="xtick_7">
     <g id="line2d_13">
      <path d="M 545.489644 320.4 
L 545.489644 43.2 
" clip-path="url(#pda057cfb1b)" style="fill: none; stroke-dasharray: 5.12,1.28,0.8,1.28; stroke-dashoffset: 0; stroke: #b0b0b0; stroke-width: 0.8"/>
     </g>
     <g id="line2d_14">
      <g>
       <use xlink:href="#m1d70faf245" x="545.489644" y="320.4" style="fill: #a9a9a9; stroke: #a9a9a9; stroke-width: 0.8"/>
      </g>
     </g>
     <g id="text_7">
      <!-- 2023-09 -->
      <g style="fill: #a9a9a9" transform="translate(524.598238 334.998438) scale(0.1 -0.1)">
       <use xlink:href="#DejaVuSans-32"/>
       <use xlink:href="#DejaVuSans-30" x="63.623047"/>
       <use xlink:href="#DejaVuSans-32" x="127.246094"/>
       <use xlink:href="#DejaVuSans-33" x="190.869141"/>
       <use xlink:href="#DejaVuSans-2d" x="254.492188"/>
       <use xlink:href="#DejaVuSans-30" x="290.576172"/>
       <use xlink:href="#DejaVuSans-39" x="354.199219"/>
      </g>
     </g>
    </g>
    <g id="xtick_8">
     <g id="line2d_15">
      <path d="M 610.067668 320.4 
L 610.067668 43.2 
" clip-path="url(#pda057cfb1b)" style="fill: none; stroke-dasharray: 5.12,1.28,0.8,1.28; stroke-dashoffset: 0; stroke: #b0b0b0; stroke-width: 0.8"/>
     </g>
     <g id="line2d_16">
      <g>
       <use xlink:href="#m1d70faf245" x="610.067668" y="320.4" style="fill: #a9a9a9; stroke: #a9a9a9; stroke-width: 0.8"/>
      </g>
     </g>
     <g id="text_8">
      <!-- 2024-01 -->
      <g style="fill: #a9a9a9" transform="translate(589.176262 334.998438) scale(0.1 -0.1)">
       <defs>
        <path id="DejaVuSans-34" d="M 2419 4116 
L 825 1625 
L 2419 1625 
L 2419 4116 
z
M 2253 4666 
L 3047 4666 
L 3047 1625 
L 3713 1625 
L 3713 1100 
L 3047 1100 
L 3047 0 
L 2419 0 
L 2419 1100 
L 313 1100 
L 313 1709 
L 2253 4666 
z
" transform="scale(0.015625)"/>
       </defs>
       <use xlink:href="#DejaVuSans-32"/>
       <use xlink:href="#DejaVuSans-30" x="63.623047"/>
       <use xlink:href="#DejaVuSans-32" x="127.246094"/>
       <use xlink:href="#DejaVuSans-34" x="190.869141"/>
       <use xlink:href="#DejaVuSans-2d" x="254.492188"/>
       <use xlink:href="#DejaVuSans-30" x="290.576172"/>
       <use xlink:href="#DejaVuSans-31" x="354.199219"/>
      </g>
     </g>
    </g>
    <g id="xtick_9">
     <g id="line2d_17">
      <path d="M 674.116364 320.4 
L 674.116364 43.2 
" clip-path="url(#pda057cfb1b)" style="fill: none; stroke-dasharray: 5.12,1.28,0.8,1.28; stroke-dashoffset: 0; stroke: #b0b0b0; stroke-width: 0.8"/>
     </g>
     <g id="line2d_18">
      <g>
       <use xlink:href="#m1d70faf245" x="674.116364" y="320.4" style="fill: #a9a9a9; stroke: #a9a9a9; stroke-width: 0.8"/>
      </g>
     </g>
     <g id="text_9">
      <!-- 2024-05 -->
      <g style="fill: #a9a9a9" transform="translate(653.224957 334.998438) scale(0.1 -0.1)">
       <use xlink:href="#DejaVuSans-32"/>
       <use xlink:href="#DejaVuSans-30" x="63.623047"/>
       <use xlink:href="#DejaVuSans-32" x="127.246094"/>
       <use xlink:href="#DejaVuSans-34" x="190.869141"/>
       <use xlink:href="#DejaVuSans-2d" x="254.492188"/>
       <use xlink:href="#DejaVuSans-30" x="290.576172"/>
       <use xlink:href="#DejaVuSans-35" x="354.199219"/>
      </g>
     </g>
    </g>
    <g id="xtick_10">
     <g id="line2d_19">
      <path d="M 739.223715 320.4 
L 739.223715 43.2 
" clip-path="url(#pda057cfb1b)" style="fill: none; stroke-dasharray: 5.12,1.28,0.8,1.28; stroke-dashoffset: 0; stroke: #b0b0b0; stroke-width: 0.8"/>
     </g>
     <g id="line2d_20">
      <g>
       <use xlink:href="#m1d70faf245" x="739.223715" y="320.4" style="fill: #a9a9a9; stroke: #a9a9a9; stroke-width: 0.8"/>
      </g>
     </g>
     <g id="text_10">
      <!-- 2024-09 -->
      <g style="fill: #a9a9a9" transform="translate(718.332309 334.998438) scale(0.1 -0.1)">
       <use xlink:href="#DejaVuSans-32"/>
       <use xlink:href="#DejaVuSans-30" x="63.623047"/>
       <use xlink:href="#DejaVuSans-32" x="127.246094"/>
       <use xlink:href="#DejaVuSans-34" x="190.869141"/>
       <use xlink:href="#DejaVuSans-2d" x="254.492188"/>
       <use xlink:href="#DejaVuSans-30" x="290.576172"/>
       <use xlink:href="#DejaVuSans-39" x="354.199219"/>
      </g>
     </g>
    </g>
   </g>
   <g id="matplotlib.axis_2">
    <g id="ytick_1">
     <g id="line2d_21">
      <path d="M 108 307.837742 
L 777.6 307.837742 
" clip-path="url(#pda057cfb1b)" style="fill: none; stroke-dasharray: 5.12,1.28,0.8,1.28; stroke-dashoffset: 0; stroke: #b0b0b0; stroke-width: 0.8"/>
     </g>
     <g id="line2d_22">
      <defs>
       <path id="mf70e56ed4f" d="M 0 0 
L -3.5 0 
" style="stroke: #a9a9a9; stroke-width: 0.8"/>
      </defs>
      <g>
       <use xlink:href="#mf70e56ed4f" x="108" y="307.837742" style="fill: #a9a9a9; stroke: #a9a9a9; stroke-width: 0.8"/>
      </g>
     </g>
     <g id="text_11">
      <!-- 0 -->
      <g style="fill: #a9a9a9" transform="translate(94.6375 311.63696) scale(0.1 -0.1)">
       <use xlink:href="#DejaVuSans-30"/>
      </g>
     </g>
    </g>
    <g id="ytick_2">
     <g id="line2d_23">
      <path d="M 108 277.644541 
L 777.6 277.644541 
" clip-path="url(#pda057cfb1b)" style="fill: none; stroke-dasharray: 5.12,1.28,0.8,1.28; stroke-dashoffset: 0; stroke: #b0b0b0; stroke-width: 0.8"/>
     </g>
     <g id="line2d_24">
      <g>
       <use xlink:href="#mf70e56ed4f" x="108" y="277.644541" style="fill: #a9a9a9; stroke: #a9a9a9; stroke-width: 0.8"/>
      </g>
     </g>
     <g id="text_12">
      <!-- 800 -->
      <g style="fill: #a9a9a9" transform="translate(81.9125 281.44376) scale(0.1 -0.1)">
       <defs>
        <path id="DejaVuSans-38" d="M 2034 2216 
Q 1584 2216 1326 1975 
Q 1069 1734 1069 1313 
Q 1069 891 1326 650 
Q 1584 409 2034 409 
Q 2484 409 2743 651 
Q 3003 894 3003 1313 
Q 3003 1734 2745 1975 
Q 2488 2216 2034 2216 
z
M 1403 2484 
Q 997 2584 770 2862 
Q 544 3141 544 3541 
Q 544 4100 942 4425 
Q 1341 4750 2034 4750 
Q 2731 4750 3128 4425 
Q 3525 4100 3525 3541 
Q 3525 3141 3298 2862 
Q 3072 2584 2669 2484 
Q 3125 2378 3379 2068 
Q 3634 1759 3634 1313 
Q 3634 634 3220 271 
Q 2806 -91 2034 -91 
Q 1263 -91 848 271 
Q 434 634 434 1313 
Q 434 1759 690 2068 
Q 947 2378 1403 2484 
z
M 1172 3481 
Q 1172 3119 1398 2916 
Q 1625 2713 2034 2713 
Q 2441 2713 2670 2916 
Q 2900 3119 2900 3481 
Q 2900 3844 2670 4047 
Q 2441 4250 2034 4250 
Q 1625 4250 1398 4047 
Q 1172 3844 1172 3481 
z
" transform="scale(0.015625)"/>
       </defs>
       <use xlink:href="#DejaVuSans-38"/>
       <use xlink:href="#DejaVuSans-30" x="63.623047"/>
       <use xlink:href="#DejaVuSans-30" x="127.246094"/>
      </g>
     </g>
    </g>
    <g id="ytick_3">
     <g id="line2d_25">
      <path d="M 108 247.45134 
L 777.6 247.45134 
" clip-path="url(#pda057cfb1b)" style="fill: none; stroke-dasharray: 5.12,1.28,0.8,1.28; stroke-dashoffset: 0; stroke: #b0b0b0; stroke-width: 0.8"/>
     </g>
     <g id="line2d_26">
      <g>
       <use xlink:href="#mf70e56ed4f" x="108" y="247.45134" style="fill: #a9a9a9; stroke: #a9a9a9; stroke-width: 0.8"/>
      </g>
     </g>
     <g id="text_13">
      <!-- 1600 -->
      <g style="fill: #a9a9a9" transform="translate(75.55 251.250559) scale(0.1 -0.1)">
       <defs>
        <path id="DejaVuSans-36" d="M 2113 2584 
Q 1688 2584 1439 2293 
Q 1191 2003 1191 1497 
Q 1191 994 1439 701 
Q 1688 409 2113 409 
Q 2538 409 2786 701 
Q 3034 994 3034 1497 
Q 3034 2003 2786 2293 
Q 2538 2584 2113 2584 
z
M 3366 4563 
L 3366 3988 
Q 3128 4100 2886 4159 
Q 2644 4219 2406 4219 
Q 1781 4219 1451 3797 
Q 1122 3375 1075 2522 
Q 1259 2794 1537 2939 
Q 1816 3084 2150 3084 
Q 2853 3084 3261 2657 
Q 3669 2231 3669 1497 
Q 3669 778 3244 343 
Q 2819 -91 2113 -91 
Q 1303 -91 875 529 
Q 447 1150 447 2328 
Q 447 3434 972 4092 
Q 1497 4750 2381 4750 
Q 2619 4750 2861 4703 
Q 3103 4656 3366 4563 
z
" transform="scale(0.015625)"/>
       </defs>
       <use xlink:href="#DejaVuSans-31"/>
       <use xlink:href="#DejaVuSans-36" x="63.623047"/>
       <use xlink:href="#DejaVuSans-30" x="127.246094"/>
       <use xlink:href="#DejaVuSans-30" x="190.869141"/>
      </g>
     </g>
    </g>
    <g id="ytick_4">
     <g id="line2d_27">
      <path d="M 108 217.25814 
L 777.6 217.25814 
" clip-path="url(#pda057cfb1b)" style="fill: none; stroke-dasharray: 5.12,1.28,0.8,1.28; stroke-dashoffset: 0; stroke: #b0b0b0; stroke-width: 0.8"/>
     </g>
     <g id="line2d_28">
      <g>
       <use xlink:href="#mf70e56ed4f" x="108" y="217.25814" style="fill: #a9a9a9; stroke: #a9a9a9; stroke-width: 0.8"/>
      </g>
     </g>
     <g id="text_14">
      <!-- 2400 -->
      <g style="fill: #a9a9a9" transform="translate(75.55 221.057359) scale(0.1 -0.1)">
       <use xlink:href="#DejaVuSans-32"/>
       <use xlink:href="#DejaVuSans-34" x="63.623047"/>
       <use xlink:href="#DejaVuSans-30" x="127.246094"/>
       <use xlink:href="#DejaVuSans-30" x="190.869141"/>
      </g>
     </g>
    </g>
    <g id="ytick_5">
     <g id="line2d_29">
      <path d="M 108 187.064939 
L 777.6 187.064939 
" clip-path="url(#pda057cfb1b)" style="fill: none; stroke-dasharray: 5.12,1.28,0.8,1.28; stroke-dashoffset: 0; stroke: #b0b0b0; stroke-width: 0.8"/>
     </g>
     <g id="line2d_30">
      <g>
       <use xlink:href="#mf70e56ed4f" x="108" y="187.064939" style="fill: #a9a9a9; stroke: #a9a9a9; stroke-width: 0.8"/>
      </g>
     </g>
     <g id="text_15">
      <!-- 3200 -->
      <g style="fill: #a9a9a9" transform="translate(75.55 190.864158) scale(0.1 -0.1)">
       <use xlink:href="#DejaVuSans-33"/>
       <use xlink:href="#DejaVuSans-32" x="63.623047"/>
       <use xlink:href="#DejaVuSans-30" x="127.246094"/>
       <use xlink:href="#DejaVuSans-30" x="190.869141"/>
      </g>
     </g>
    </g>
    <g id="ytick_6">
     <g id="line2d_31">
      <path d="M 108 156.871739 
L 777.6 156.871739 
" clip-path="url(#pda057cfb1b)" style="fill: none; stroke-dasharray: 5.12,1.28,0.8,1.28; stroke-dashoffset: 0; stroke: #b0b0b0; stroke-width: 0.8"/>
     </g>
     <g id="line2d_32">
      <g>
       <use xlink:href="#mf70e56ed4f" x="108" y="156.871739" style="fill: #a9a9a9; stroke: #a9a9a9; stroke-width: 0.8"/>
      </g>
     </g>
     <g id="text_16">
      <!-- 4000 -->
      <g style="fill: #a9a9a9" transform="translate(75.55 160.670958) scale(0.1 -0.1)">
       <use xlink:href="#DejaVuSans-34"/>
       <use xlink:href="#DejaVuSans-30" x="63.623047"/>
       <use xlink:href="#DejaVuSans-30" x="127.246094"/>
       <use xlink:href="#DejaVuSans-30" x="190.869141"/>
      </g>
     </g>
    </g>
    <g id="ytick_7">
     <g id="line2d_33">
      <path d="M 108 126.678538 
L 777.6 126.678538 
" clip-path="url(#pda057cfb1b)" style="fill: none; stroke-dasharray: 5.12,1.28,0.8,1.28; stroke-dashoffset: 0; stroke: #b0b0b0; stroke-width: 0.8"/>
     </g>
     <g id="line2d_34">
      <g>
       <use xlink:href="#mf70e56ed4f" x="108" y="126.678538" style="fill: #a9a9a9; stroke: #a9a9a9; stroke-width: 0.8"/>
      </g>
     </g>
     <g id="text_17">
      <!-- 4800 -->
      <g style="fill: #a9a9a9" transform="translate(75.55 130.477757) scale(0.1 -0.1)">
       <use xlink:href="#DejaVuSans-34"/>
       <use xlink:href="#DejaVuSans-38" x="63.623047"/>
       <use xlink:href="#DejaVuSans-30" x="127.246094"/>
       <use xlink:href="#DejaVuSans-30" x="190.869141"/>
      </g>
     </g>
    </g>
    <g id="ytick_8">
     <g id="line2d_35">
      <path d="M 108 96.485338 
L 777.6 96.485338 
" clip-path="url(#pda057cfb1b)" style="fill: none; stroke-dasharray: 5.12,1.28,0.8,1.28; stroke-dashoffset: 0; stroke: #b0b0b0; stroke-width: 0.8"/>
     </g>
     <g id="line2d_36">
      <g>
       <use xlink:href="#mf70e56ed4f" x="108" y="96.485338" style="fill: #a9a9a9; stroke: #a9a9a9; stroke-width: 0.8"/>
      </g>
     </g>
     <g id="text_18">
      <!-- 5600 -->
      <g style="fill: #a9a9a9" transform="translate(75.55 100.284556) scale(0.1 -0.1)">
       <use xlink:href="#DejaVuSans-35"/>
       <use xlink:href="#DejaVuSans-36" x="63.623047"/>
       <use xlink:href="#DejaVuSans-30" x="127.246094"/>
       <use xlink:href="#DejaVuSans-30" x="190.869141"/>
      </g>
     </g>
    </g>
    <g id="ytick_9">
     <g id="line2d_37">
      <path d="M 108 66.292137 
L 777.6 66.292137 
" clip-path="url(#pda057cfb1b)" style="fill: none; stroke-dasharray: 5.12,1.28,0.8,1.28; stroke-dashoffset: 0; stroke: #b0b0b0; stroke-width: 0.8"/>
     </g>
     <g id="line2d_38">
      <g>
       <use xlink:href="#mf70e56ed4f" x="108" y="66.292137" style="fill: #a9a9a9; stroke: #a9a9a9; stroke-width: 0.8"/>
      </g>
     </g>
     <g id="text_19">
      <!-- 6400 -->
      <g style="fill: #a9a9a9" transform="translate(75.55 70.091356) scale(0.1 -0.1)">
       <use xlink:href="#DejaVuSans-36"/>
       <use xlink:href="#DejaVuSans-34" x="63.623047"/>
       <use xlink:href="#DejaVuSans-30" x="127.246094"/>
       <use xlink:href="#DejaVuSans-30" x="190.869141"/>
      </g>
     </g>
    </g>
   </g>
   <g id="line2d_39">
    <path d="M 138.436364 307.724517 
L 141.612332 307.460326 
L 142.14166 307.233877 
L 143.729644 307.082911 
L 147.434941 306.403564 
L 150.081581 306.177115 
L 151.140237 305.761959 
L 151.669565 305.082612 
L 152.198893 304.705197 
L 152.728221 303.53521 
L 153.257549 303.459727 
L 153.786877 303.044571 
L 154.845534 302.51619 
L 156.962846 300.855564 
L 159.080158 299.836543 
L 160.668142 299.119455 
L 161.19747 298.289142 
L 162.256126 297.534312 
L 162.785455 297.307863 
L 168.078735 296.553033 
L 168.608063 296.326584 
L 172.31336 296.024652 
L 174.430672 295.534012 
L 178.665296 294.96789 
L 179.194625 294.665958 
L 179.723953 294.590475 
L 180.782609 294.250801 
L 184.487905 293.646937 
L 185.546561 293.345005 
L 187.134545 293.194039 
L 188.193202 293.080815 
L 190.839842 292.401468 
L 191.898498 292.325985 
L 192.957154 292.175019 
L 194.01581 291.94857 
L 194.545138 291.797604 
L 195.074466 291.080515 
L 196.662451 290.476651 
L 198.250435 290.061495 
L 198.779763 289.797304 
L 199.309091 289.759563 
L 201.955731 289.004733 
L 203.014387 288.92925 
L 203.543715 288.853767 
L 205.1317 288.363127 
L 207.249012 287.834746 
L 207.77834 287.608297 
L 208.307668 287.532814 
L 208.836996 287.268624 
L 214.130277 286.476052 
L 216.776917 285.721222 
L 217.306245 285.381549 
L 219.952885 284.513494 
L 221.011542 283.796406 
L 222.599526 283.494474 
L 232.656759 280.588378 
L 233.715415 280.173222 
L 234.774071 280.097739 
L 236.362055 279.64484 
L 236.891383 279.64484 
L 237.420711 279.418391 
L 238.479368 279.305167 
L 239.008696 279.116459 
L 240.067352 279.078718 
L 242.184664 278.814527 
L 243.24332 278.286146 
L 249.595257 275.455534 
L 250.124585 274.889411 
L 251.183241 273.304268 
L 251.712569 273.153302 
L 252.241897 273.153302 
L 253.300553 272.360731 
L 254.888538 271.83235 
L 255.417866 271.34171 
L 256.476522 270.926554 
L 257.535178 270.435914 
L 258.593834 268.926254 
L 259.123162 268.586581 
L 259.65249 267.680785 
L 260.181818 267.114662 
L 263.357787 265.491778 
L 264.416443 264.661465 
L 264.945771 264.321791 
L 265.475099 263.52922 
L 266.004427 262.359233 
L 266.533755 261.566662 
L 267.063083 261.151505 
L 267.592411 260.925056 
L 269.709723 259.113464 
L 270.768379 258.24541 
L 271.297708 257.792512 
L 271.827036 257.075423 
L 272.885692 256.131886 
L 275.003004 254.73545 
L 275.532332 254.282552 
L 276.590988 253.942879 
L 278.178972 253.037083 
L 279.766957 252.018062 
L 281.884269 250.130987 
L 282.942925 249.71583 
L 284.001581 248.998742 
L 284.530909 248.69681 
L 285.060237 248.621327 
L 288.765534 246.319095 
L 290.882846 245.18685 
L 291.412174 244.696211 
L 299.881423 241.752374 
L 300.940079 240.808836 
L 301.998735 240.318197 
L 303.057391 239.752074 
L 303.586719 239.450142 
L 304.645375 239.14821 
L 305.174704 238.808537 
L 305.704032 238.657571 
L 307.292016 237.63855 
L 309.938656 237.034686 
L 311.52664 236.12889 
L 312.055968 236.053407 
L 313.114625 235.789217 
L 313.643953 235.638251 
L 315.231937 234.430523 
L 317.349249 233.8644 
L 317.878577 233.449244 
L 321.054545 232.392482 
L 321.583874 232.35474 
L 323.171858 231.788618 
L 326.877154 230.467665 
L 327.93581 230.316699 
L 329.523794 229.788318 
L 332.170435 228.542849 
L 334.287747 227.410604 
L 338.522372 225.712236 
L 339.0517 225.636753 
L 340.110356 224.995148 
L 340.639684 224.919665 
L 342.756996 224.05161 
L 344.874308 223.749678 
L 345.932964 223.221297 
L 346.462292 222.768399 
L 346.991621 221.824861 
L 349.108933 221.258739 
L 350.696917 220.466167 
L 351.226245 220.352943 
L 355.46087 218.352643 
L 357.048854 218.01297 
L 358.10751 217.484589 
L 358.636838 217.25814 
L 359.166166 217.182657 
L 361.283478 216.239119 
L 362.871462 215.25784 
L 363.400791 215.182357 
L 363.930119 214.99365 
L 364.459447 214.955908 
L 367.106087 214.314303 
L 367.635415 213.899146 
L 369.223399 213.333024 
L 371.340711 212.502711 
L 371.87004 212.125296 
L 372.399368 211.936588 
L 373.458024 211.370466 
L 376.104664 210.502411 
L 377.692648 209.256942 
L 378.221976 209.143717 
L 379.280632 208.313404 
L 379.80996 208.237921 
L 380.339289 207.407608 
L 380.868617 207.181159 
L 381.397945 206.766003 
L 381.927273 206.69052 
L 382.985929 206.048914 
L 384.044585 205.709241 
L 384.573913 205.294084 
L 385.103241 205.105377 
L 386.691225 204.010873 
L 388.808538 202.91637 
L 389.337866 202.840887 
L 390.92585 202.048315 
L 391.455178 201.180261 
L 391.984506 200.727363 
L 392.513834 200.425431 
L 393.043162 200.312206 
L 394.101818 199.632859 
L 394.631146 199.519635 
L 395.689802 198.991254 
L 397.277787 198.311907 
L 398.336443 197.557077 
L 399.924427 196.1229 
L 400.983083 195.519035 
L 401.512411 194.952913 
L 403.629723 193.518736 
L 404.159051 192.914872 
L 404.688379 192.499715 
L 405.747036 192.1223 
L 406.805692 191.405212 
L 408.393676 190.61264 
L 408.923004 190.537157 
L 410.510988 189.706844 
L 411.569644 189.065239 
L 416.862925 187.178164 
L 417.392253 186.763007 
L 419.509565 185.970436 
L 420.038893 185.81947 
L 420.568221 185.404313 
L 423.214862 183.970136 
L 424.273518 181.894354 
L 425.332174 180.686626 
L 426.39083 180.04502 
L 427.978814 179.403415 
L 428.508142 179.327932 
L 429.03747 179.026 
L 431.684111 178.195687 
L 432.213439 177.969238 
L 433.272095 177.252149 
L 434.860079 176.572802 
L 435.918735 176.00668 
L 436.448063 175.629265 
L 436.977391 175.402816 
L 437.506719 175.025401 
L 438.036047 174.459278 
L 439.094704 173.893156 
L 441.741344 172.49672 
L 444.917312 170.949319 
L 445.975968 170.609645 
L 447.563953 170.119006 
L 449.681265 169.175468 
L 450.739921 168.760312 
L 451.269249 168.345155 
L 452.327905 168.005482 
L 455.503874 166.382597 
L 456.56253 165.552284 
L 457.621186 165.174869 
L 458.150514 164.721971 
L 458.679842 164.646488 
L 459.738498 163.853916 
L 460.797154 163.325535 
L 461.326482 163.099086 
L 461.85581 162.570705 
L 465.561107 161.136528 
L 466.619763 160.68363 
L 468.207747 160.192991 
L 469.266403 160.042025 
L 469.795731 159.815576 
L 470.325059 159.740093 
L 471.383715 159.287195 
L 471.913043 159.249453 
L 474.030356 158.456882 
L 475.61834 157.362378 
L 478.26498 156.116909 
L 480.911621 154.682732 
L 481.440949 154.569507 
L 483.028933 153.663711 
L 484.616917 153.13533 
L 485.675573 152.795657 
L 487.792885 152.11631 
L 488.851542 151.776636 
L 490.439526 151.512446 
L 492.556838 150.833099 
L 493.086166 150.60665 
L 493.615494 150.531167 
L 494.144822 150.266976 
L 495.203478 150.078269 
L 496.791462 149.512146 
L 497.850119 149.398922 
L 499.438103 149.059248 
L 500.496759 148.870541 
L 501.555415 148.681833 
L 502.614071 148.455384 
L 505.79004 147.662813 
L 506.319368 147.360881 
L 508.966008 146.719275 
L 510.024664 146.379602 
L 515.847273 144.681234 
L 516.376601 144.152853 
L 517.435257 143.737697 
L 520.611225 142.605452 
L 521.140553 142.265778 
L 521.669881 142.152554 
L 522.199209 141.850622 
L 523.787194 141.397724 
L 524.84585 141.133533 
L 525.375178 140.79386 
L 525.904506 140.680635 
L 526.433834 140.227737 
L 528.021818 139.925805 
L 529.080474 139.435165 
L 529.609802 138.831301 
L 531.727115 138.340662 
L 535.432411 137.585832 
L 535.961739 137.585832 
L 536.491067 137.359383 
L 538.608379 136.981968 
L 539.137708 136.755519 
L 541.25502 136.378104 
L 542.313676 135.925206 
L 542.843004 135.887464 
L 551.841581 133.207818 
L 552.370909 132.981369 
L 552.900237 132.603954 
L 553.958893 132.302022 
L 555.017549 131.962348 
L 556.076206 131.547192 
L 557.66419 130.867845 
L 559.252174 130.75462 
L 561.369486 130.150756 
L 561.898814 129.811083 
L 562.95747 129.509151 
L 565.604111 128.339164 
L 566.133439 128.301423 
L 571.956047 126.301123 
L 574.602688 125.621776 
L 575.661344 125.131137 
L 576.72 124.904688 
L 577.249328 124.791463 
L 577.778656 124.376307 
L 578.307984 124.112116 
L 578.837312 123.470511 
L 579.36664 123.093096 
L 580.425296 122.791164 
L 580.954625 122.376007 
L 583.601265 121.281504 
L 584.130593 121.168279 
L 584.659921 120.828606 
L 585.718577 120.526674 
L 586.247905 120.187 
L 588.894545 119.318946 
L 590.48253 118.41315 
L 591.011858 118.299925 
L 592.070514 117.696061 
L 592.599842 117.469612 
L 593.658498 116.828007 
L 595.246482 116.073177 
L 595.77581 115.695762 
L 596.834466 115.356088 
L 597.893123 114.752224 
L 598.422451 114.563517 
L 598.951779 114.186102 
L 605.833043 111.808387 
L 606.362372 111.695162 
L 606.8917 111.355489 
L 607.421028 111.280006 
L 608.479684 111.015815 
L 609.53834 110.789366 
L 613.243636 108.977774 
L 613.772964 108.902291 
L 615.360949 108.034237 
L 618.536917 106.788767 
L 620.654229 105.958454 
L 621.183557 105.807488 
L 621.712885 105.467815 
L 622.771542 105.316849 
L 623.30087 104.977175 
L 623.830198 104.939434 
L 624.888854 104.59976 
L 625.94751 104.071379 
L 626.476838 103.995896 
L 629.123478 102.939134 
L 630.711462 102.486236 
L 631.770119 102.222046 
L 633.358103 101.769148 
L 634.416759 101.353991 
L 636.534071 100.221746 
L 637.592727 99.80659 
L 638.122055 99.466916 
L 639.180711 99.240467 
L 639.71004 98.938535 
L 640.239368 98.825311 
L 641.827352 97.994998 
L 642.886008 97.579841 
L 644.473992 96.862753 
L 646.061976 96.447596 
L 649.237945 95.202127 
L 650.825929 94.673746 
L 658.76585 91.277011 
L 659.295178 91.201528 
L 661.41249 90.371215 
L 663.000474 89.50316 
L 663.529802 89.389936 
L 664.588458 88.974779 
L 665.117787 88.974779 
L 666.176443 88.521881 
L 667.235099 87.578344 
L 667.764427 87.125446 
L 669.352411 86.370616 
L 669.881739 86.257391 
L 670.411067 85.993201 
L 670.940395 85.917718 
L 671.469723 85.540303 
L 671.999051 85.427078 
L 673.057708 84.785473 
L 674.645692 83.992901 
L 675.704348 83.577744 
L 676.233676 83.313554 
L 678.880316 82.671948 
L 679.409644 82.407758 
L 680.997628 81.95486 
L 683.114941 80.935839 
L 684.173597 80.4452 
L 685.232253 80.181009 
L 688.937549 78.4449 
L 691.58419 77.501363 
L 693.172174 76.557825 
L 693.701502 76.444601 
L 694.760158 75.91622 
L 695.818814 75.538805 
L 696.348142 75.085907 
L 696.87747 74.783975 
L 698.465455 74.293335 
L 699.524111 73.576247 
L 700.053439 73.538505 
L 701.112095 73.236573 
L 702.170751 72.8969 
L 702.700079 72.632709 
L 703.229407 72.557226 
L 704.817391 71.991104 
L 706.405375 71.424981 
L 707.464032 71.009825 
L 707.99336 70.594668 
L 709.581344 70.179512 
L 710.110672 69.87758 
L 711.169328 69.613389 
L 712.757312 68.745335 
L 713.28664 68.707593 
L 714.874625 68.216954 
L 715.933281 68.103729 
L 716.991937 67.688573 
L 720.167905 66.782777 
L 721.226561 66.745035 
L 724.40253 65.726015 
L 724.931858 65.650532 
L 726.519842 64.820219 
L 727.04917 64.367321 
L 728.107826 63.763457 
L 729.69581 62.744436 
L 732.871779 61.649933 
L 733.401107 61.234776 
L 734.989091 60.517688 
L 735.518419 60.404463 
L 736.577075 59.913824 
L 738.165059 59.498667 
L 739.753043 58.81932 
L 740.8117 58.328681 
L 742.399684 57.687075 
L 742.929012 57.573851 
L 744.516996 56.819021 
L 745.046324 56.668055 
L 746.10498 55.950966 
L 746.634308 55.8 
L 747.163636 55.8 
L 747.163636 55.8 
" clip-path="url(#pda057cfb1b)" style="fill: none; stroke: #1f77b4; stroke-width: 1.5; stroke-linecap: square"/>
   </g>
   <g id="line2d_40">
    <path d="M 138.965692 307.8 
L 140.553676 307.724517 
L 142.14166 307.686775 
L 145.317628 307.611292 
L 147.964269 307.498068 
L 150.081581 307.498068 
L 150.610909 307.347102 
L 152.728221 307.271619 
L 154.316206 307.082911 
L 155.90419 306.931945 
L 159.080158 306.780979 
L 159.609486 306.780979 
L 160.668142 306.667755 
L 163.844111 306.516789 
L 167.549407 306.441306 
L 170.196047 306.328081 
L 176.547984 306.252598 
L 179.194625 306.139374 
L 182.370593 306.063891 
L 184.487905 305.988408 
L 189.251858 305.912925 
L 190.839842 305.875183 
L 192.427826 305.837442 
L 194.01581 305.648734 
L 197.191779 305.610993 
L 198.250435 305.53551 
L 202.485059 305.460027 
L 207.77834 305.158095 
L 211.483636 305.082612 
L 212.542292 305.007129 
L 214.130277 304.931646 
L 217.306245 304.78068 
L 219.423557 304.742938 
L 221.011542 304.591972 
L 227.892806 304.176816 
L 230.539447 304.101333 
L 235.303399 303.837142 
L 236.891383 303.761659 
L 242.184664 303.459727 
L 248.007273 303.384244 
L 250.124585 303.157795 
L 251.183241 303.082312 
L 258.064506 302.51619 
L 261.240474 302.101033 
L 263.357787 302.02555 
L 267.592411 301.459428 
L 270.768379 301.383945 
L 272.356364 301.232979 
L 273.41502 301.195237 
L 274.473676 301.082013 
L 276.06166 301.00653 
L 277.649644 300.780081 
L 278.178972 300.780081 
L 279.766957 300.553632 
L 281.884269 300.478149 
L 282.942925 300.402666 
L 285.060237 300.327183 
L 286.118893 300.2517 
L 288.765534 299.987509 
L 289.82419 299.798802 
L 291.412174 299.76106 
L 292.47083 299.685577 
L 295.11747 299.610094 
L 301.998735 299.194938 
L 303.586719 299.119455 
L 310.467984 298.704298 
L 314.173281 298.628815 
L 315.231937 298.515591 
L 318.937233 298.440108 
L 322.64253 298.2514 
L 328.465138 298.175917 
L 332.170435 297.98721 
L 336.405059 297.911727 
L 340.639684 297.685278 
L 344.34498 297.609795 
L 354.402213 296.968189 
L 359.695494 296.892706 
L 361.812806 296.666257 
L 363.400791 296.628516 
L 364.988775 296.590774 
L 367.106087 296.364325 
L 372.399368 296.062393 
L 375.575336 295.98691 
L 377.16332 295.949169 
L 378.751304 295.911427 
L 380.339289 295.760461 
L 384.573913 295.684978 
L 385.632569 295.534012 
L 386.691225 295.458529 
L 389.337866 295.345305 
L 390.396522 295.269822 
L 391.455178 295.194339 
L 396.21913 295.118856 
L 397.277787 295.005631 
L 399.395099 294.96789 
L 400.453755 294.854665 
L 402.041739 294.665958 
L 403.100395 294.590475 
L 407.864348 294.326284 
L 408.923004 294.288543 
L 410.510988 294.137577 
L 412.098972 294.099835 
L 413.686957 294.024352 
L 416.333597 293.911128 
L 423.74419 293.835645 
L 427.449486 293.646937 
L 431.684111 293.571454 
L 433.801423 293.495971 
L 435.918735 293.45823 
L 436.977391 293.345005 
L 439.094704 293.269522 
L 444.387984 292.96759 
L 447.563953 292.929849 
L 449.151937 292.778883 
L 450.739921 292.741141 
L 454.445217 292.665658 
L 456.56253 292.590175 
L 462.914466 292.514692 
L 465.561107 292.401468 
L 468.737075 292.325985 
L 470.325059 292.137277 
L 473.501028 292.099536 
L 475.089012 291.94857 
L 477.206324 291.873087 
L 483.558261 291.797604 
L 486.204901 291.684379 
L 495.203478 291.646638 
L 496.262134 291.571155 
L 497.850119 291.533413 
L 504.731383 291.45793 
L 505.79004 291.382447 
L 511.612648 291.306964 
L 513.72996 291.231481 
L 523.787194 291.155998 
L 525.375178 291.118257 
L 530.13913 291.042774 
L 531.197787 290.967291 
L 543.90166 290.891808 
L 545.489644 290.854066 
L 559.781502 290.778583 
L 561.369486 290.740842 
L 570.897391 290.665359 
L 571.956047 290.589876 
L 574.602688 290.514393 
L 576.190672 290.363427 
L 578.837312 290.287944 
L 582.013281 290.136978 
L 586.247905 290.061495 
L 587.306561 289.986012 
L 591.541186 289.910529 
L 594.717154 289.759563 
L 597.363794 289.68408 
L 601.598419 289.457631 
L 604.774387 289.382148 
L 606.8917 289.306665 
L 613.772964 289.231182 
L 615.890277 289.155699 
L 620.124901 289.080216 
L 623.830198 288.891508 
L 628.59415 288.816025 
L 629.652806 288.740542 
L 639.180711 288.665059 
L 640.768696 288.627318 
L 643.415336 288.589576 
L 645.532648 288.363127 
L 647.120632 288.325386 
L 650.296601 288.249903 
L 655.589881 287.947971 
L 658.236522 287.872488 
L 660.353834 287.797005 
L 666.176443 287.721522 
L 668.823083 287.41959 
L 670.940395 287.344107 
L 674.645692 287.268624 
L 675.704348 287.155399 
L 679.938972 287.079916 
L 682.585613 286.966692 
L 689.466877 286.92895 
L 690.525534 286.815726 
L 694.23083 286.740243 
L 695.818814 286.702501 
L 698.465455 286.627018 
L 700.053439 286.589277 
L 709.052016 286.513794 
L 711.698656 286.400569 
L 719.109249 286.325086 
L 721.226561 286.249603 
L 727.04917 286.17412 
L 728.107826 286.060896 
L 732.871779 286.023154 
L 733.930435 285.947671 
L 736.577075 285.872188 
L 738.165059 285.834447 
L 745.046324 285.758964 
L 746.634308 285.721222 
L 747.163636 285.721222 
L 747.163636 285.721222 
" clip-path="url(#pda057cfb1b)" style="fill: none; stroke: #ff7f0e; stroke-width: 1.5; stroke-linecap: square"/>
   </g>
   <g id="patch_3">
    <path d="M 108 320.4 
L 108 43.2 
" style="fill: none; stroke: #a9a9a9; stroke-width: 0.8; stroke-linejoin: miter; stroke-linecap: square"/>
   </g>
   <g id="patch_4">
    <path d="M 777.6 320.4 
L 777.6 43.2 
" style="fill: none"/>
   </g>
   <g id="patch_5">
    <path d="M 108 320.4 
L 777.6 320.4 
" style="fill: none; stroke: #a9a9a9; stroke-width: 0.8; stroke-linejoin: miter; stroke-linecap: square"/>
   </g>
   <g id="patch_6">
    <path d="M 108 43.2 
L 777.6 43.2 
" style="fill: none"/>
   </g>
   <g id="text_20">
    <!-- get_subscribe history -->
    <g style="fill: #a9a9a9" transform="translate(378.6075 37.2) scale(0.12 -0.12)">
     <defs>
      <path id="DejaVuSans-67" d="M 2906 1791 
Q 2906 2416 2648 2759 
Q 2391 3103 1925 3103 
Q 1463 3103 1205 2759 
Q 947 2416 947 1791 
Q 947 1169 1205 825 
Q 1463 481 1925 481 
Q 2391 481 2648 825 
Q 2906 1169 2906 1791 
z
M 3481 434 
Q 3481 -459 3084 -895 
Q 2688 -1331 1869 -1331 
Q 1566 -1331 1297 -1286 
Q 1028 -1241 775 -1147 
L 775 -588 
Q 1028 -725 1275 -790 
Q 1522 -856 1778 -856 
Q 2344 -856 2625 -561 
Q 2906 -266 2906 331 
L 2906 616 
Q 2728 306 2450 153 
Q 2172 0 1784 0 
Q 1141 0 747 490 
Q 353 981 353 1791 
Q 353 2603 747 3093 
Q 1141 3584 1784 3584 
Q 2172 3584 2450 3431 
Q 2728 3278 2906 2969 
L 2906 3500 
L 3481 3500 
L 3481 434 
z
" transform="scale(0.015625)"/>
      <path id="DejaVuSans-65" d="M 3597 1894 
L 3597 1613 
L 953 1613 
Q 991 1019 1311 708 
Q 1631 397 2203 397 
Q 2534 397 2845 478 
Q 3156 559 3463 722 
L 3463 178 
Q 3153 47 2828 -22 
Q 2503 -91 2169 -91 
Q 1331 -91 842 396 
Q 353 884 353 1716 
Q 353 2575 817 3079 
Q 1281 3584 2069 3584 
Q 2775 3584 3186 3129 
Q 3597 2675 3597 1894 
z
M 3022 2063 
Q 3016 2534 2758 2815 
Q 2500 3097 2075 3097 
Q 1594 3097 1305 2825 
Q 1016 2553 972 2059 
L 3022 2063 
z
" transform="scale(0.015625)"/>
      <path id="DejaVuSans-74" d="M 1172 4494 
L 1172 3500 
L 2356 3500 
L 2356 3053 
L 1172 3053 
L 1172 1153 
Q 1172 725 1289 603 
Q 1406 481 1766 481 
L 2356 481 
L 2356 0 
L 1766 0 
Q 1100 0 847 248 
Q 594 497 594 1153 
L 594 3053 
L 172 3053 
L 172 3500 
L 594 3500 
L 594 4494 
L 1172 4494 
z
" transform="scale(0.015625)"/>
      <path id="DejaVuSans-5f" d="M 3263 -1063 
L 3263 -1509 
L -63 -1509 
L -63 -1063 
L 3263 -1063 
z
" transform="scale(0.015625)"/>
      <path id="DejaVuSans-73" d="M 2834 3397 
L 2834 2853 
Q 2591 2978 2328 3040 
Q 2066 3103 1784 3103 
Q 1356 3103 1142 2972 
Q 928 2841 928 2578 
Q 928 2378 1081 2264 
Q 1234 2150 1697 2047 
L 1894 2003 
Q 2506 1872 2764 1633 
Q 3022 1394 3022 966 
Q 3022 478 2636 193 
Q 2250 -91 1575 -91 
Q 1294 -91 989 -36 
Q 684 19 347 128 
L 347 722 
Q 666 556 975 473 
Q 1284 391 1588 391 
Q 1994 391 2212 530 
Q 2431 669 2431 922 
Q 2431 1156 2273 1281 
Q 2116 1406 1581 1522 
L 1381 1569 
Q 847 1681 609 1914 
Q 372 2147 372 2553 
Q 372 3047 722 3315 
Q 1072 3584 1716 3584 
Q 2034 3584 2315 3537 
Q 2597 3491 2834 3397 
z
" transform="scale(0.015625)"/>
      <path id="DejaVuSans-75" d="M 544 1381 
L 544 3500 
L 1119 3500 
L 1119 1403 
Q 1119 906 1312 657 
Q 1506 409 1894 409 
Q 2359 409 2629 706 
Q 2900 1003 2900 1516 
L 2900 3500 
L 3475 3500 
L 3475 0 
L 2900 0 
L 2900 538 
Q 2691 219 2414 64 
Q 2138 -91 1772 -91 
Q 1169 -91 856 284 
Q 544 659 544 1381 
z
M 1991 3584 
L 1991 3584 
z
" transform="scale(0.015625)"/>
      <path id="DejaVuSans-62" d="M 3116 1747 
Q 3116 2381 2855 2742 
Q 2594 3103 2138 3103 
Q 1681 3103 1420 2742 
Q 1159 2381 1159 1747 
Q 1159 1113 1420 752 
Q 1681 391 2138 391 
Q 2594 391 2855 752 
Q 3116 1113 3116 1747 
z
M 1159 2969 
Q 1341 3281 1617 3432 
Q 1894 3584 2278 3584 
Q 2916 3584 3314 3078 
Q 3713 2572 3713 1747 
Q 3713 922 3314 415 
Q 2916 -91 2278 -91 
Q 1894 -91 1617 61 
Q 1341 213 1159 525 
L 1159 0 
L 581 0 
L 581 4863 
L 1159 4863 
L 1159 2969 
z
" transform="scale(0.015625)"/>
      <path id="DejaVuSans-63" d="M 3122 3366 
L 3122 2828 
Q 2878 2963 2633 3030 
Q 2388 3097 2138 3097 
Q 1578 3097 1268 2742 
Q 959 2388 959 1747 
Q 959 1106 1268 751 
Q 1578 397 2138 397 
Q 2388 397 2633 464 
Q 2878 531 3122 666 
L 3122 134 
Q 2881 22 2623 -34 
Q 2366 -91 2075 -91 
Q 1284 -91 818 406 
Q 353 903 353 1747 
Q 353 2603 823 3093 
Q 1294 3584 2113 3584 
Q 2378 3584 2631 3529 
Q 2884 3475 3122 3366 
z
" transform="scale(0.015625)"/>
      <path id="DejaVuSans-72" d="M 2631 2963 
Q 2534 3019 2420 3045 
Q 2306 3072 2169 3072 
Q 1681 3072 1420 2755 
Q 1159 2438 1159 1844 
L 1159 0 
L 581 0 
L 581 3500 
L 1159 3500 
L 1159 2956 
Q 1341 3275 1631 3429 
Q 1922 3584 2338 3584 
Q 2397 3584 2469 3576 
Q 2541 3569 2628 3553 
L 2631 2963 
z
" transform="scale(0.015625)"/>
      <path id="DejaVuSans-69" d="M 603 3500 
L 1178 3500 
L 1178 0 
L 603 0 
L 603 3500 
z
M 603 4863 
L 1178 4863 
L 1178 4134 
L 603 4134 
L 603 4863 
z
" transform="scale(0.015625)"/>
      <path id="DejaVuSans-20" transform="scale(0.015625)"/>
      <path id="DejaVuSans-68" d="M 3513 2113 
L 3513 0 
L 2938 0 
L 2938 2094 
Q 2938 2591 2744 2837 
Q 2550 3084 2163 3084 
Q 1697 3084 1428 2787 
Q 1159 2491 1159 1978 
L 1159 0 
L 581 0 
L 581 4863 
L 1159 4863 
L 1159 2956 
Q 1366 3272 1645 3428 
Q 1925 3584 2291 3584 
Q 2894 3584 3203 3211 
Q 3513 2838 3513 2113 
z
" transform="scale(0.015625)"/>
      <path id="DejaVuSans-6f" d="M 1959 3097 
Q 1497 3097 1228 2736 
Q 959 2375 959 1747 
Q 959 1119 1226 758 
Q 1494 397 1959 397 
Q 2419 397 2687 759 
Q 2956 1122 2956 1747 
Q 2956 2369 2687 2733 
Q 2419 3097 1959 3097 
z
M 1959 3584 
Q 2709 3584 3137 3096 
Q 3566 2609 3566 1747 
Q 3566 888 3137 398 
Q 2709 -91 1959 -91 
Q 1206 -91 779 398 
Q 353 888 353 1747 
Q 353 2609 779 3096 
Q 1206 3584 1959 3584 
z
" transform="scale(0.015625)"/>
      <path id="DejaVuSans-79" d="M 2059 -325 
Q 1816 -950 1584 -1140 
Q 1353 -1331 966 -1331 
L 506 -1331 
L 506 -850 
L 844 -850 
Q 1081 -850 1212 -737 
Q 1344 -625 1503 -206 
L 1606 56 
L 191 3500 
L 800 3500 
L 1894 763 
L 2988 3500 
L 3597 3500 
L 2059 -325 
z
" transform="scale(0.015625)"/>
     </defs>
     <use xlink:href="#DejaVuSans-67"/>
     <use xlink:href="#DejaVuSans-65" x="63.476562"/>
     <use xlink:href="#DejaVuSans-74" x="125"/>
     <use xlink:href="#DejaVuSans-5f" x="164.208984"/>
     <use xlink:href="#DejaVuSans-73" x="214.208984"/>
     <use xlink:href="#DejaVuSans-75" x="266.308594"/>
     <use xlink:href="#DejaVuSans-62" x="329.6875"/>
     <use xlink:href="#DejaVuSans-73" x="393.164062"/>
     <use xlink:href="#DejaVuSans-63" x="445.263672"/>
     <use xlink:href="#DejaVuSans-72" x="500.244141"/>
     <use xlink:href="#DejaVuSans-69" x="541.357422"/>
     <use xlink:href="#DejaVuSans-62" x="569.140625"/>
     <use xlink:href="#DejaVuSans-65" x="632.617188"/>
     <use xlink:href="#DejaVuSans-20" x="694.140625"/>
     <use xlink:href="#DejaVuSans-68" x="725.927734"/>
     <use xlink:href="#DejaVuSans-69" x="789.306641"/>
     <use xlink:href="#DejaVuSans-73" x="817.089844"/>
     <use xlink:href="#DejaVuSans-74" x="869.189453"/>
     <use xlink:href="#DejaVuSans-6f" x="908.398438"/>
     <use xlink:href="#DejaVuSans-72" x="969.580078"/>
     <use xlink:href="#DejaVuSans-79" x="1010.693359"/>
    </g>
   </g>
   <g id="legend_1">
    <g id="line2d_41">
     <path d="M 815.08 328.498438 
L 825.08 328.498438 
L 835.08 328.498438 
" style="fill: none; stroke: #1f77b4; stroke-width: 1.5; stroke-linecap: square"/>
    </g>
    <g id="text_21">
     <!-- star -->
     <g style="fill: #a9a9a9" transform="translate(843.08 331.998438) scale(0.1 -0.1)">
      <defs>
       <path id="DejaVuSans-61" d="M 2194 1759 
Q 1497 1759 1228 1600 
Q 959 1441 959 1056 
Q 959 750 1161 570 
Q 1363 391 1709 391 
Q 2188 391 2477 730 
Q 2766 1069 2766 1631 
L 2766 1759 
L 2194 1759 
z
M 3341 1997 
L 3341 0 
L 2766 0 
L 2766 531 
Q 2569 213 2275 61 
Q 1981 -91 1556 -91 
Q 1019 -91 701 211 
Q 384 513 384 1019 
Q 384 1609 779 1909 
Q 1175 2209 1959 2209 
L 2766 2209 
L 2766 2266 
Q 2766 2663 2505 2880 
Q 2244 3097 1772 3097 
Q 1472 3097 1187 3025 
Q 903 2953 641 2809 
L 641 3341 
Q 956 3463 1253 3523 
Q 1550 3584 1831 3584 
Q 2591 3584 2966 3190 
Q 3341 2797 3341 1997 
z
" transform="scale(0.015625)"/>
      </defs>
      <use xlink:href="#DejaVuSans-73"/>
      <use xlink:href="#DejaVuSans-74" x="52.099609"/>
      <use xlink:href="#DejaVuSans-61" x="91.308594"/>
      <use xlink:href="#DejaVuSans-72" x="152.587891"/>
     </g>
    </g>
    <g id="line2d_42">
     <path d="M 815.08 343.176562 
L 825.08 343.176562 
L 835.08 343.176562 
" style="fill: none; stroke: #ff7f0e; stroke-width: 1.5; stroke-linecap: square"/>
    </g>
    <g id="text_22">
     <!-- fork -->
     <g style="fill: #a9a9a9" transform="translate(843.08 346.676562) scale(0.1 -0.1)">
      <defs>
       <path id="DejaVuSans-66" d="M 2375 4863 
L 2375 4384 
L 1825 4384 
Q 1516 4384 1395 4259 
Q 1275 4134 1275 3809 
L 1275 3500 
L 2222 3500 
L 2222 3053 
L 1275 3053 
L 1275 0 
L 697 0 
L 697 3053 
L 147 3053 
L 147 3500 
L 697 3500 
L 697 3744 
Q 697 4328 969 4595 
Q 1241 4863 1831 4863 
L 2375 4863 
z
" transform="scale(0.015625)"/>
       <path id="DejaVuSans-6b" d="M 581 4863 
L 1159 4863 
L 1159 1991 
L 2875 3500 
L 3609 3500 
L 1753 1863 
L 3688 0 
L 2938 0 
L 1159 1709 
L 1159 0 
L 581 0 
L 581 4863 
z
" transform="scale(0.015625)"/>
      </defs>
      <use xlink:href="#DejaVuSans-66"/>
      <use xlink:href="#DejaVuSans-6f" x="35.205078"/>
      <use xlink:href="#DejaVuSans-72" x="96.386719"/>
      <use xlink:href="#DejaVuSans-6b" x="137.5"/>
     </g>
    </g>
   </g>
  </g>
 </g>
 <defs>
  <clipPath id="pda057cfb1b">
   <rect x="108" y="43.2" width="669.6" height="277.2"/>
  </clipPath>
 </defs>
</svg>
