<?xml version="1.0" encoding="utf-8" standalone="no"?>
<!DOCTYPE svg PUBLIC "-//W3C//DTD SVG 1.1//EN"
  "http://www.w3.org/Graphics/SVG/1.1/DTD/svg11.dtd">
<svg xmlns:xlink="http://www.w3.org/1999/xlink" width="864pt" height="360pt" viewBox="0 0 864 360" xmlns="http://www.w3.org/2000/svg" version="1.1">
 <metadata>
  <rdf:RDF xmlns:dc="http://purl.org/dc/elements/1.1/" xmlns:cc="http://creativecommons.org/ns#" xmlns:rdf="http://www.w3.org/1999/02/22-rdf-syntax-ns#">
   <cc:Work>
    <dc:type rdf:resource="http://purl.org/dc/dcmitype/StillImage"/>
    <dc:date>2025-05-14T08:15:48.926355</dc:date>
    <dc:format>image/svg+xml</dc:format>
    <dc:creator>
     <cc:Agent>
      <dc:title>Matplotlib v3.10.3, https://matplotlib.org/</dc:title>
     </cc:Agent>
    </dc:creator>
   </cc:Work>
  </rdf:RDF>
 </metadata>
 <defs>
  <style type="text/css">*{stroke-linejoin: round; stroke-linecap: butt}</style>
 </defs>
 <g id="figure_1">
  <g id="patch_1">
   <path d="M 0 360 
L 864 360 
L 864 0 
L 0 0 
L 0 360 
z
" style="fill: none; opacity: 0"/>
  </g>
  <g id="axes_1">
   <g id="patch_2">
    <path d="M 108 320.4 
L 777.6 320.4 
L 777.6 43.2 
L 108 43.2 
L 108 320.4 
z
" style="fill: none; opacity: 0"/>
   </g>
   <g id="matplotlib.axis_1">
    <g id="xtick_1">
     <g id="line2d_1">
      <path d="M 128.363898 320.4 
L 128.363898 43.2 
" clip-path="url(#pef2f79f8f7)" style="fill: none; stroke-dasharray: 5.12,1.28,0.8,1.28; stroke-dashoffset: 0; stroke: #b0b0b0; stroke-width: 0.8"/>
     </g>
     <g id="line2d_2">
      <defs>
       <path id="m0c9e61cd26" d="M 0 0 
L 0 3.5 
" style="stroke: #a9a9a9; stroke-width: 0.8"/>
      </defs>
      <g>
       <use xlink:href="#m0c9e61cd26" x="128.363898" y="320.4" style="fill: #a9a9a9; stroke: #a9a9a9; stroke-width: 0.8"/>
      </g>
     </g>
     <g id="text_1">
      <!-- 2021-07 -->
      <g style="fill: #a9a9a9" transform="translate(107.472492 334.998438) scale(0.1 -0.1)">
       <defs>
        <path id="DejaVuSans-32" d="M 1228 531 
L 3431 531 
L 3431 0 
L 469 0 
L 469 531 
Q 828 903 1448 1529 
Q 2069 2156 2228 2338 
Q 2531 2678 2651 2914 
Q 2772 3150 2772 3378 
Q 2772 3750 2511 3984 
Q 2250 4219 1831 4219 
Q 1534 4219 1204 4116 
Q 875 4013 500 3803 
L 500 4441 
Q 881 4594 1212 4672 
Q 1544 4750 1819 4750 
Q 2544 4750 2975 4387 
Q 3406 4025 3406 3419 
Q 3406 3131 3298 2873 
Q 3191 2616 2906 2266 
Q 2828 2175 2409 1742 
Q 1991 1309 1228 531 
z
" transform="scale(0.015625)"/>
        <path id="DejaVuSans-30" d="M 2034 4250 
Q 1547 4250 1301 3770 
Q 1056 3291 1056 2328 
Q 1056 1369 1301 889 
Q 1547 409 2034 409 
Q 2525 409 2770 889 
Q 3016 1369 3016 2328 
Q 3016 3291 2770 3770 
Q 2525 4250 2034 4250 
z
M 2034 4750 
Q 2819 4750 3233 4129 
Q 3647 3509 3647 2328 
Q 3647 1150 3233 529 
Q 2819 -91 2034 -91 
Q 1250 -91 836 529 
Q 422 1150 422 2328 
Q 422 3509 836 4129 
Q 1250 4750 2034 4750 
z
" transform="scale(0.015625)"/>
        <path id="DejaVuSans-31" d="M 794 531 
L 1825 531 
L 1825 4091 
L 703 3866 
L 703 4441 
L 1819 4666 
L 2450 4666 
L 2450 531 
L 3481 531 
L 3481 0 
L 794 0 
L 794 531 
z
" transform="scale(0.015625)"/>
        <path id="DejaVuSans-2d" d="M 313 2009 
L 1997 2009 
L 1997 1497 
L 313 1497 
L 313 2009 
z
" transform="scale(0.015625)"/>
        <path id="DejaVuSans-37" d="M 525 4666 
L 3525 4666 
L 3525 4397 
L 1831 0 
L 1172 0 
L 2766 4134 
L 525 4134 
L 525 4666 
z
" transform="scale(0.015625)"/>
       </defs>
       <use xlink:href="#DejaVuSans-32"/>
       <use xlink:href="#DejaVuSans-30" transform="translate(63.623047 0)"/>
       <use xlink:href="#DejaVuSans-32" transform="translate(127.246094 0)"/>
       <use xlink:href="#DejaVuSans-31" transform="translate(190.869141 0)"/>
       <use xlink:href="#DejaVuSans-2d" transform="translate(254.492188 0)"/>
       <use xlink:href="#DejaVuSans-30" transform="translate(290.576172 0)"/>
       <use xlink:href="#DejaVuSans-37" transform="translate(354.199219 0)"/>
      </g>
     </g>
    </g>
    <g id="xtick_2">
     <g id="line2d_3">
      <path d="M 208.943623 320.4 
L 208.943623 43.2 
" clip-path="url(#pef2f79f8f7)" style="fill: none; stroke-dasharray: 5.12,1.28,0.8,1.28; stroke-dashoffset: 0; stroke: #b0b0b0; stroke-width: 0.8"/>
     </g>
     <g id="line2d_4">
      <g>
       <use xlink:href="#m0c9e61cd26" x="208.943623" y="320.4" style="fill: #a9a9a9; stroke: #a9a9a9; stroke-width: 0.8"/>
      </g>
     </g>
     <g id="text_2">
      <!-- 2022-01 -->
      <g style="fill: #a9a9a9" transform="translate(188.052217 334.998438) scale(0.1 -0.1)">
       <use xlink:href="#DejaVuSans-32"/>
       <use xlink:href="#DejaVuSans-30" transform="translate(63.623047 0)"/>
       <use xlink:href="#DejaVuSans-32" transform="translate(127.246094 0)"/>
       <use xlink:href="#DejaVuSans-32" transform="translate(190.869141 0)"/>
       <use xlink:href="#DejaVuSans-2d" transform="translate(254.492188 0)"/>
       <use xlink:href="#DejaVuSans-30" transform="translate(290.576172 0)"/>
       <use xlink:href="#DejaVuSans-31" transform="translate(354.199219 0)"/>
      </g>
     </g>
    </g>
    <g id="xtick_3">
     <g id="line2d_5">
      <path d="M 288.209549 320.4 
L 288.209549 43.2 
" clip-path="url(#pef2f79f8f7)" style="fill: none; stroke-dasharray: 5.12,1.28,0.8,1.28; stroke-dashoffset: 0; stroke: #b0b0b0; stroke-width: 0.8"/>
     </g>
     <g id="line2d_6">
      <g>
       <use xlink:href="#m0c9e61cd26" x="288.209549" y="320.4" style="fill: #a9a9a9; stroke: #a9a9a9; stroke-width: 0.8"/>
      </g>
     </g>
     <g id="text_3">
      <!-- 2022-07 -->
      <g style="fill: #a9a9a9" transform="translate(267.318142 334.998438) scale(0.1 -0.1)">
       <use xlink:href="#DejaVuSans-32"/>
       <use xlink:href="#DejaVuSans-30" transform="translate(63.623047 0)"/>
       <use xlink:href="#DejaVuSans-32" transform="translate(127.246094 0)"/>
       <use xlink:href="#DejaVuSans-32" transform="translate(190.869141 0)"/>
       <use xlink:href="#DejaVuSans-2d" transform="translate(254.492188 0)"/>
       <use xlink:href="#DejaVuSans-30" transform="translate(290.576172 0)"/>
       <use xlink:href="#DejaVuSans-37" transform="translate(354.199219 0)"/>
      </g>
     </g>
    </g>
    <g id="xtick_4">
     <g id="line2d_7">
      <path d="M 368.789274 320.4 
L 368.789274 43.2 
" clip-path="url(#pef2f79f8f7)" style="fill: none; stroke-dasharray: 5.12,1.28,0.8,1.28; stroke-dashoffset: 0; stroke: #b0b0b0; stroke-width: 0.8"/>
     </g>
     <g id="line2d_8">
      <g>
       <use xlink:href="#m0c9e61cd26" x="368.789274" y="320.4" style="fill: #a9a9a9; stroke: #a9a9a9; stroke-width: 0.8"/>
      </g>
     </g>
     <g id="text_4">
      <!-- 2023-01 -->
      <g style="fill: #a9a9a9" transform="translate(347.897868 334.998438) scale(0.1 -0.1)">
       <defs>
        <path id="DejaVuSans-33" d="M 2597 2516 
Q 3050 2419 3304 2112 
Q 3559 1806 3559 1356 
Q 3559 666 3084 287 
Q 2609 -91 1734 -91 
Q 1441 -91 1130 -33 
Q 819 25 488 141 
L 488 750 
Q 750 597 1062 519 
Q 1375 441 1716 441 
Q 2309 441 2620 675 
Q 2931 909 2931 1356 
Q 2931 1769 2642 2001 
Q 2353 2234 1838 2234 
L 1294 2234 
L 1294 2753 
L 1863 2753 
Q 2328 2753 2575 2939 
Q 2822 3125 2822 3475 
Q 2822 3834 2567 4026 
Q 2313 4219 1838 4219 
Q 1578 4219 1281 4162 
Q 984 4106 628 3988 
L 628 4550 
Q 988 4650 1302 4700 
Q 1616 4750 1894 4750 
Q 2613 4750 3031 4423 
Q 3450 4097 3450 3541 
Q 3450 3153 3228 2886 
Q 3006 2619 2597 2516 
z
" transform="scale(0.015625)"/>
       </defs>
       <use xlink:href="#DejaVuSans-32"/>
       <use xlink:href="#DejaVuSans-30" transform="translate(63.623047 0)"/>
       <use xlink:href="#DejaVuSans-32" transform="translate(127.246094 0)"/>
       <use xlink:href="#DejaVuSans-33" transform="translate(190.869141 0)"/>
       <use xlink:href="#DejaVuSans-2d" transform="translate(254.492188 0)"/>
       <use xlink:href="#DejaVuSans-30" transform="translate(290.576172 0)"/>
       <use xlink:href="#DejaVuSans-31" transform="translate(354.199219 0)"/>
      </g>
     </g>
    </g>
    <g id="xtick_5">
     <g id="line2d_9">
      <path d="M 448.055199 320.4 
L 448.055199 43.2 
" clip-path="url(#pef2f79f8f7)" style="fill: none; stroke-dasharray: 5.12,1.28,0.8,1.28; stroke-dashoffset: 0; stroke: #b0b0b0; stroke-width: 0.8"/>
     </g>
     <g id="line2d_10">
      <g>
       <use xlink:href="#m0c9e61cd26" x="448.055199" y="320.4" style="fill: #a9a9a9; stroke: #a9a9a9; stroke-width: 0.8"/>
      </g>
     </g>
     <g id="text_5">
      <!-- 2023-07 -->
      <g style="fill: #a9a9a9" transform="translate(427.163793 334.998438) scale(0.1 -0.1)">
       <use xlink:href="#DejaVuSans-32"/>
       <use xlink:href="#DejaVuSans-30" transform="translate(63.623047 0)"/>
       <use xlink:href="#DejaVuSans-32" transform="translate(127.246094 0)"/>
       <use xlink:href="#DejaVuSans-33" transform="translate(190.869141 0)"/>
       <use xlink:href="#DejaVuSans-2d" transform="translate(254.492188 0)"/>
       <use xlink:href="#DejaVuSans-30" transform="translate(290.576172 0)"/>
       <use xlink:href="#DejaVuSans-37" transform="translate(354.199219 0)"/>
      </g>
     </g>
    </g>
    <g id="xtick_6">
     <g id="line2d_11">
      <path d="M 528.634925 320.4 
L 528.634925 43.2 
" clip-path="url(#pef2f79f8f7)" style="fill: none; stroke-dasharray: 5.12,1.28,0.8,1.28; stroke-dashoffset: 0; stroke: #b0b0b0; stroke-width: 0.8"/>
     </g>
     <g id="line2d_12">
      <g>
       <use xlink:href="#m0c9e61cd26" x="528.634925" y="320.4" style="fill: #a9a9a9; stroke: #a9a9a9; stroke-width: 0.8"/>
      </g>
     </g>
     <g id="text_6">
      <!-- 2024-01 -->
      <g style="fill: #a9a9a9" transform="translate(507.743519 334.998438) scale(0.1 -0.1)">
       <defs>
        <path id="DejaVuSans-34" d="M 2419 4116 
L 825 1625 
L 2419 1625 
L 2419 4116 
z
M 2253 4666 
L 3047 4666 
L 3047 1625 
L 3713 1625 
L 3713 1100 
L 3047 1100 
L 3047 0 
L 2419 0 
L 2419 1100 
L 313 1100 
L 313 1709 
L 2253 4666 
z
" transform="scale(0.015625)"/>
       </defs>
       <use xlink:href="#DejaVuSans-32"/>
       <use xlink:href="#DejaVuSans-30" transform="translate(63.623047 0)"/>
       <use xlink:href="#DejaVuSans-32" transform="translate(127.246094 0)"/>
       <use xlink:href="#DejaVuSans-34" transform="translate(190.869141 0)"/>
       <use xlink:href="#DejaVuSans-2d" transform="translate(254.492188 0)"/>
       <use xlink:href="#DejaVuSans-30" transform="translate(290.576172 0)"/>
       <use xlink:href="#DejaVuSans-31" transform="translate(354.199219 0)"/>
      </g>
     </g>
    </g>
    <g id="xtick_7">
     <g id="line2d_13">
      <path d="M 608.338784 320.4 
L 608.338784 43.2 
" clip-path="url(#pef2f79f8f7)" style="fill: none; stroke-dasharray: 5.12,1.28,0.8,1.28; stroke-dashoffset: 0; stroke: #b0b0b0; stroke-width: 0.8"/>
     </g>
     <g id="line2d_14">
      <g>
       <use xlink:href="#m0c9e61cd26" x="608.338784" y="320.4" style="fill: #a9a9a9; stroke: #a9a9a9; stroke-width: 0.8"/>
      </g>
     </g>
     <g id="text_7">
      <!-- 2024-07 -->
      <g style="fill: #a9a9a9" transform="translate(587.447377 334.998438) scale(0.1 -0.1)">
       <use xlink:href="#DejaVuSans-32"/>
       <use xlink:href="#DejaVuSans-30" transform="translate(63.623047 0)"/>
       <use xlink:href="#DejaVuSans-32" transform="translate(127.246094 0)"/>
       <use xlink:href="#DejaVuSans-34" transform="translate(190.869141 0)"/>
       <use xlink:href="#DejaVuSans-2d" transform="translate(254.492188 0)"/>
       <use xlink:href="#DejaVuSans-30" transform="translate(290.576172 0)"/>
       <use xlink:href="#DejaVuSans-37" transform="translate(354.199219 0)"/>
      </g>
     </g>
    </g>
    <g id="xtick_8">
     <g id="line2d_15">
      <path d="M 688.918509 320.4 
L 688.918509 43.2 
" clip-path="url(#pef2f79f8f7)" style="fill: none; stroke-dasharray: 5.12,1.28,0.8,1.28; stroke-dashoffset: 0; stroke: #b0b0b0; stroke-width: 0.8"/>
     </g>
     <g id="line2d_16">
      <g>
       <use xlink:href="#m0c9e61cd26" x="688.918509" y="320.4" style="fill: #a9a9a9; stroke: #a9a9a9; stroke-width: 0.8"/>
      </g>
     </g>
     <g id="text_8">
      <!-- 2025-01 -->
      <g style="fill: #a9a9a9" transform="translate(668.027103 334.998438) scale(0.1 -0.1)">
       <defs>
        <path id="DejaVuSans-35" d="M 691 4666 
L 3169 4666 
L 3169 4134 
L 1269 4134 
L 1269 2991 
Q 1406 3038 1543 3061 
Q 1681 3084 1819 3084 
Q 2600 3084 3056 2656 
Q 3513 2228 3513 1497 
Q 3513 744 3044 326 
Q 2575 -91 1722 -91 
Q 1428 -91 1123 -41 
Q 819 9 494 109 
L 494 744 
Q 775 591 1075 516 
Q 1375 441 1709 441 
Q 2250 441 2565 725 
Q 2881 1009 2881 1497 
Q 2881 1984 2565 2268 
Q 2250 2553 1709 2553 
Q 1456 2553 1204 2497 
Q 953 2441 691 2322 
L 691 4666 
z
" transform="scale(0.015625)"/>
       </defs>
       <use xlink:href="#DejaVuSans-32"/>
       <use xlink:href="#DejaVuSans-30" transform="translate(63.623047 0)"/>
       <use xlink:href="#DejaVuSans-32" transform="translate(127.246094 0)"/>
       <use xlink:href="#DejaVuSans-35" transform="translate(190.869141 0)"/>
       <use xlink:href="#DejaVuSans-2d" transform="translate(254.492188 0)"/>
       <use xlink:href="#DejaVuSans-30" transform="translate(290.576172 0)"/>
       <use xlink:href="#DejaVuSans-31" transform="translate(354.199219 0)"/>
      </g>
     </g>
    </g>
    <g id="xtick_9">
     <g id="line2d_17">
      <path d="M 768.184434 320.4 
L 768.184434 43.2 
" clip-path="url(#pef2f79f8f7)" style="fill: none; stroke-dasharray: 5.12,1.28,0.8,1.28; stroke-dashoffset: 0; stroke: #b0b0b0; stroke-width: 0.8"/>
     </g>
     <g id="line2d_18">
      <g>
       <use xlink:href="#m0c9e61cd26" x="768.184434" y="320.4" style="fill: #a9a9a9; stroke: #a9a9a9; stroke-width: 0.8"/>
      </g>
     </g>
     <g id="text_9">
      <!-- 2025-07 -->
      <g style="fill: #a9a9a9" transform="translate(747.293028 334.998438) scale(0.1 -0.1)">
       <use xlink:href="#DejaVuSans-32"/>
       <use xlink:href="#DejaVuSans-30" transform="translate(63.623047 0)"/>
       <use xlink:href="#DejaVuSans-32" transform="translate(127.246094 0)"/>
       <use xlink:href="#DejaVuSans-35" transform="translate(190.869141 0)"/>
       <use xlink:href="#DejaVuSans-2d" transform="translate(254.492188 0)"/>
       <use xlink:href="#DejaVuSans-30" transform="translate(290.576172 0)"/>
       <use xlink:href="#DejaVuSans-37" transform="translate(354.199219 0)"/>
      </g>
     </g>
    </g>
   </g>
   <g id="matplotlib.axis_2">
    <g id="ytick_1">
     <g id="line2d_19">
      <path d="M 108 307.833058 
L 777.6 307.833058 
" clip-path="url(#pef2f79f8f7)" style="fill: none; stroke-dasharray: 5.12,1.28,0.8,1.28; stroke-dashoffset: 0; stroke: #b0b0b0; stroke-width: 0.8"/>
     </g>
     <g id="line2d_20">
      <defs>
       <path id="meb6c0d151c" d="M 0 0 
L -3.5 0 
" style="stroke: #a9a9a9; stroke-width: 0.8"/>
      </defs>
      <g>
       <use xlink:href="#meb6c0d151c" x="108" y="307.833058" style="fill: #a9a9a9; stroke: #a9a9a9; stroke-width: 0.8"/>
      </g>
     </g>
     <g id="text_10">
      <!-- 0 -->
      <g style="fill: #a9a9a9" transform="translate(94.6375 311.632277) scale(0.1 -0.1)">
       <use xlink:href="#DejaVuSans-30"/>
      </g>
     </g>
    </g>
    <g id="ytick_2">
     <g id="line2d_21">
      <path d="M 108 274.775207 
L 777.6 274.775207 
" clip-path="url(#pef2f79f8f7)" style="fill: none; stroke-dasharray: 5.12,1.28,0.8,1.28; stroke-dashoffset: 0; stroke: #b0b0b0; stroke-width: 0.8"/>
     </g>
     <g id="line2d_22">
      <g>
       <use xlink:href="#meb6c0d151c" x="108" y="274.775207" style="fill: #a9a9a9; stroke: #a9a9a9; stroke-width: 0.8"/>
      </g>
     </g>
     <g id="text_11">
      <!-- 1000 -->
      <g style="fill: #a9a9a9" transform="translate(75.55 278.574425) scale(0.1 -0.1)">
       <use xlink:href="#DejaVuSans-31"/>
       <use xlink:href="#DejaVuSans-30" transform="translate(63.623047 0)"/>
       <use xlink:href="#DejaVuSans-30" transform="translate(127.246094 0)"/>
       <use xlink:href="#DejaVuSans-30" transform="translate(190.869141 0)"/>
      </g>
     </g>
    </g>
    <g id="ytick_3">
     <g id="line2d_23">
      <path d="M 108 241.717355 
L 777.6 241.717355 
" clip-path="url(#pef2f79f8f7)" style="fill: none; stroke-dasharray: 5.12,1.28,0.8,1.28; stroke-dashoffset: 0; stroke: #b0b0b0; stroke-width: 0.8"/>
     </g>
     <g id="line2d_24">
      <g>
       <use xlink:href="#meb6c0d151c" x="108" y="241.717355" style="fill: #a9a9a9; stroke: #a9a9a9; stroke-width: 0.8"/>
      </g>
     </g>
     <g id="text_12">
      <!-- 2000 -->
      <g style="fill: #a9a9a9" transform="translate(75.55 245.516574) scale(0.1 -0.1)">
       <use xlink:href="#DejaVuSans-32"/>
       <use xlink:href="#DejaVuSans-30" transform="translate(63.623047 0)"/>
       <use xlink:href="#DejaVuSans-30" transform="translate(127.246094 0)"/>
       <use xlink:href="#DejaVuSans-30" transform="translate(190.869141 0)"/>
      </g>
     </g>
    </g>
    <g id="ytick_4">
     <g id="line2d_25">
      <path d="M 108 208.659504 
L 777.6 208.659504 
" clip-path="url(#pef2f79f8f7)" style="fill: none; stroke-dasharray: 5.12,1.28,0.8,1.28; stroke-dashoffset: 0; stroke: #b0b0b0; stroke-width: 0.8"/>
     </g>
     <g id="line2d_26">
      <g>
       <use xlink:href="#meb6c0d151c" x="108" y="208.659504" style="fill: #a9a9a9; stroke: #a9a9a9; stroke-width: 0.8"/>
      </g>
     </g>
     <g id="text_13">
      <!-- 3000 -->
      <g style="fill: #a9a9a9" transform="translate(75.55 212.458723) scale(0.1 -0.1)">
       <use xlink:href="#DejaVuSans-33"/>
       <use xlink:href="#DejaVuSans-30" transform="translate(63.623047 0)"/>
       <use xlink:href="#DejaVuSans-30" transform="translate(127.246094 0)"/>
       <use xlink:href="#DejaVuSans-30" transform="translate(190.869141 0)"/>
      </g>
     </g>
    </g>
    <g id="ytick_5">
     <g id="line2d_27">
      <path d="M 108 175.601653 
L 777.6 175.601653 
" clip-path="url(#pef2f79f8f7)" style="fill: none; stroke-dasharray: 5.12,1.28,0.8,1.28; stroke-dashoffset: 0; stroke: #b0b0b0; stroke-width: 0.8"/>
     </g>
     <g id="line2d_28">
      <g>
       <use xlink:href="#meb6c0d151c" x="108" y="175.601653" style="fill: #a9a9a9; stroke: #a9a9a9; stroke-width: 0.8"/>
      </g>
     </g>
     <g id="text_14">
      <!-- 4000 -->
      <g style="fill: #a9a9a9" transform="translate(75.55 179.400872) scale(0.1 -0.1)">
       <use xlink:href="#DejaVuSans-34"/>
       <use xlink:href="#DejaVuSans-30" transform="translate(63.623047 0)"/>
       <use xlink:href="#DejaVuSans-30" transform="translate(127.246094 0)"/>
       <use xlink:href="#DejaVuSans-30" transform="translate(190.869141 0)"/>
      </g>
     </g>
    </g>
    <g id="ytick_6">
     <g id="line2d_29">
      <path d="M 108 142.543802 
L 777.6 142.543802 
" clip-path="url(#pef2f79f8f7)" style="fill: none; stroke-dasharray: 5.12,1.28,0.8,1.28; stroke-dashoffset: 0; stroke: #b0b0b0; stroke-width: 0.8"/>
     </g>
     <g id="line2d_30">
      <g>
       <use xlink:href="#meb6c0d151c" x="108" y="142.543802" style="fill: #a9a9a9; stroke: #a9a9a9; stroke-width: 0.8"/>
      </g>
     </g>
     <g id="text_15">
      <!-- 5000 -->
      <g style="fill: #a9a9a9" transform="translate(75.55 146.34302) scale(0.1 -0.1)">
       <use xlink:href="#DejaVuSans-35"/>
       <use xlink:href="#DejaVuSans-30" transform="translate(63.623047 0)"/>
       <use xlink:href="#DejaVuSans-30" transform="translate(127.246094 0)"/>
       <use xlink:href="#DejaVuSans-30" transform="translate(190.869141 0)"/>
      </g>
     </g>
    </g>
    <g id="ytick_7">
     <g id="line2d_31">
      <path d="M 108 109.48595 
L 777.6 109.48595 
" clip-path="url(#pef2f79f8f7)" style="fill: none; stroke-dasharray: 5.12,1.28,0.8,1.28; stroke-dashoffset: 0; stroke: #b0b0b0; stroke-width: 0.8"/>
     </g>
     <g id="line2d_32">
      <g>
       <use xlink:href="#meb6c0d151c" x="108" y="109.48595" style="fill: #a9a9a9; stroke: #a9a9a9; stroke-width: 0.8"/>
      </g>
     </g>
     <g id="text_16">
      <!-- 6000 -->
      <g style="fill: #a9a9a9" transform="translate(75.55 113.285169) scale(0.1 -0.1)">
       <defs>
        <path id="DejaVuSans-36" d="M 2113 2584 
Q 1688 2584 1439 2293 
Q 1191 2003 1191 1497 
Q 1191 994 1439 701 
Q 1688 409 2113 409 
Q 2538 409 2786 701 
Q 3034 994 3034 1497 
Q 3034 2003 2786 2293 
Q 2538 2584 2113 2584 
z
M 3366 4563 
L 3366 3988 
Q 3128 4100 2886 4159 
Q 2644 4219 2406 4219 
Q 1781 4219 1451 3797 
Q 1122 3375 1075 2522 
Q 1259 2794 1537 2939 
Q 1816 3084 2150 3084 
Q 2853 3084 3261 2657 
Q 3669 2231 3669 1497 
Q 3669 778 3244 343 
Q 2819 -91 2113 -91 
Q 1303 -91 875 529 
Q 447 1150 447 2328 
Q 447 3434 972 4092 
Q 1497 4750 2381 4750 
Q 2619 4750 2861 4703 
Q 3103 4656 3366 4563 
z
" transform="scale(0.015625)"/>
       </defs>
       <use xlink:href="#DejaVuSans-36"/>
       <use xlink:href="#DejaVuSans-30" transform="translate(63.623047 0)"/>
       <use xlink:href="#DejaVuSans-30" transform="translate(127.246094 0)"/>
       <use xlink:href="#DejaVuSans-30" transform="translate(190.869141 0)"/>
      </g>
     </g>
    </g>
    <g id="ytick_8">
     <g id="line2d_33">
      <path d="M 108 76.428099 
L 777.6 76.428099 
" clip-path="url(#pef2f79f8f7)" style="fill: none; stroke-dasharray: 5.12,1.28,0.8,1.28; stroke-dashoffset: 0; stroke: #b0b0b0; stroke-width: 0.8"/>
     </g>
     <g id="line2d_34">
      <g>
       <use xlink:href="#meb6c0d151c" x="108" y="76.428099" style="fill: #a9a9a9; stroke: #a9a9a9; stroke-width: 0.8"/>
      </g>
     </g>
     <g id="text_17">
      <!-- 7000 -->
      <g style="fill: #a9a9a9" transform="translate(75.55 80.227318) scale(0.1 -0.1)">
       <use xlink:href="#DejaVuSans-37"/>
       <use xlink:href="#DejaVuSans-30" transform="translate(63.623047 0)"/>
       <use xlink:href="#DejaVuSans-30" transform="translate(127.246094 0)"/>
       <use xlink:href="#DejaVuSans-30" transform="translate(190.869141 0)"/>
      </g>
     </g>
    </g>
    <g id="ytick_9">
     <g id="line2d_35">
      <path d="M 108 43.370248 
L 777.6 43.370248 
" clip-path="url(#pef2f79f8f7)" style="fill: none; stroke-dasharray: 5.12,1.28,0.8,1.28; stroke-dashoffset: 0; stroke: #b0b0b0; stroke-width: 0.8"/>
     </g>
     <g id="line2d_36">
      <g>
       <use xlink:href="#meb6c0d151c" x="108" y="43.370248" style="fill: #a9a9a9; stroke: #a9a9a9; stroke-width: 0.8"/>
      </g>
     </g>
     <g id="text_18">
      <!-- 8000 -->
      <g style="fill: #a9a9a9" transform="translate(75.55 47.169467) scale(0.1 -0.1)">
       <defs>
        <path id="DejaVuSans-38" d="M 2034 2216 
Q 1584 2216 1326 1975 
Q 1069 1734 1069 1313 
Q 1069 891 1326 650 
Q 1584 409 2034 409 
Q 2484 409 2743 651 
Q 3003 894 3003 1313 
Q 3003 1734 2745 1975 
Q 2488 2216 2034 2216 
z
M 1403 2484 
Q 997 2584 770 2862 
Q 544 3141 544 3541 
Q 544 4100 942 4425 
Q 1341 4750 2034 4750 
Q 2731 4750 3128 4425 
Q 3525 4100 3525 3541 
Q 3525 3141 3298 2862 
Q 3072 2584 2669 2484 
Q 3125 2378 3379 2068 
Q 3634 1759 3634 1313 
Q 3634 634 3220 271 
Q 2806 -91 2034 -91 
Q 1263 -91 848 271 
Q 434 634 434 1313 
Q 434 1759 690 2068 
Q 947 2378 1403 2484 
z
M 1172 3481 
Q 1172 3119 1398 2916 
Q 1625 2713 2034 2713 
Q 2441 2713 2670 2916 
Q 2900 3119 2900 3481 
Q 2900 3844 2670 4047 
Q 2441 4250 2034 4250 
Q 1625 4250 1398 4047 
Q 1172 3844 1172 3481 
z
" transform="scale(0.015625)"/>
       </defs>
       <use xlink:href="#DejaVuSans-38"/>
       <use xlink:href="#DejaVuSans-30" transform="translate(63.623047 0)"/>
       <use xlink:href="#DejaVuSans-30" transform="translate(127.246094 0)"/>
       <use xlink:href="#DejaVuSans-30" transform="translate(190.869141 0)"/>
      </g>
     </g>
    </g>
   </g>
   <g id="line2d_37">
    <path d="M 138.436364 307.733884 
L 141.063963 307.502479 
L 141.501897 307.304132 
L 143.25363 307.072727 
L 145.005363 306.709091 
L 145.88123 306.57686 
L 148.070896 306.378512 
L 148.946763 306.014876 
L 149.384696 305.419835 
L 149.822629 305.122314 
L 150.260562 304.130579 
L 150.698496 304.064463 
L 151.136429 303.700826 
L 152.012296 303.238017 
L 153.764029 301.783471 
L 155.515762 300.890909 
L 156.829562 300.26281 
L 157.267495 299.535537 
L 158.143362 298.87438 
L 158.581295 298.676033 
L 162.960628 298.014876 
L 163.398561 297.816529 
L 166.464094 297.552066 
L 168.215827 297.122314 
L 171.719294 296.626446 
L 172.157227 296.395041 
L 172.59516 296.328926 
L 173.471027 296.031405 
L 176.53656 295.502479 
L 177.412426 295.238017 
L 181.353826 294.543802 
L 182.229693 294.345455 
L 183.105559 294.312397 
L 184.857292 293.882645 
L 185.295226 293.254545 
L 186.609026 292.72562 
L 187.922825 292.361983 
L 188.360759 292.130579 
L 189.236625 291.965289 
L 190.988358 291.436364 
L 191.864225 291.370248 
L 192.740092 291.138843 
L 194.491825 290.676033 
L 194.929758 290.642975 
L 195.805625 290.213223 
L 196.243558 290.147107 
L 196.681491 289.915702 
L 201.498757 289.089256 
L 203.250491 288.560331 
L 203.688424 288.26281 
L 205.87809 287.535537 
L 206.753957 286.907438 
L 208.067757 286.642975 
L 217.702289 283.766942 
L 218.140222 283.733884 
L 219.454022 283.33719 
L 219.891956 283.33719 
L 220.329889 283.138843 
L 221.205755 283.039669 
L 221.643689 282.87438 
L 223.395422 282.808264 
L 224.271288 282.642975 
L 225.147155 282.180165 
L 226.460955 281.684298 
L 227.336821 281.221488 
L 228.212688 280.758678 
L 229.088555 280.461157 
L 229.526488 280.328926 
L 230.402354 279.766942 
L 230.840288 279.271074 
L 231.716154 277.882645 
L 232.154088 277.750413 
L 232.592021 277.750413 
L 233.905821 276.957025 
L 234.343754 276.72562 
L 234.781687 276.626446 
L 235.219621 276.196694 
L 236.095487 275.833058 
L 236.971354 275.403306 
L 239.16102 272.527273 
L 241.78862 271.072727 
L 242.664487 270.345455 
L 243.10242 270.080992 
L 243.540353 269.452893 
L 243.978286 268.428099 
L 244.41622 267.733884 
L 244.854153 267.370248 
L 245.292086 267.171901 
L 248.795553 263.866116 
L 249.671419 263.039669 
L 252.299019 261.353719 
L 252.736952 261.18843 
L 254.488685 260.130579 
L 254.926619 259.932231 
L 257.116285 257.882645 
L 257.992152 257.519008 
L 258.868018 256.890909 
L 259.305952 256.626446 
L 259.743885 256.560331 
L 261.057685 255.8 
L 261.495618 255.304132 
L 263.685284 254.080992 
L 264.123218 253.915702 
L 265.437018 252.990083 
L 272.006017 250.609917 
L 272.881884 249.783471 
L 274.195683 249.122314 
L 275.07155 248.560331 
L 275.947417 248.295868 
L 276.38535 247.998347 
L 276.823283 247.866116 
L 278.137083 246.973554 
L 280.32675 246.477686 
L 281.640549 245.684298 
L 282.954349 245.386777 
L 283.392283 245.287603 
L 284.706082 244.26281 
L 286.457816 243.766942 
L 286.895749 243.403306 
L 289.523349 242.477686 
L 290.399215 242.312397 
L 291.275082 241.94876 
L 294.340615 240.791736 
L 295.216481 240.659504 
L 296.530281 240.196694 
L 298.719948 239.105785 
L 300.471681 238.11405 
L 303.975147 236.626446 
L 304.41308 236.560331 
L 305.288947 235.998347 
L 306.164814 235.766942 
L 307.478613 235.238017 
L 309.230347 235.006612 
L 310.106213 234.543802 
L 310.544147 234.147107 
L 310.98208 233.353719 
L 312.733813 232.857851 
L 314.047613 232.163636 
L 314.923479 231.866116 
L 315.799346 231.403306 
L 318.426946 230.312397 
L 319.302812 230.11405 
L 320.178679 229.65124 
L 320.616612 229.452893 
L 321.054545 229.386777 
L 323.244212 228.295868 
L 324.120078 227.733884 
L 325.433878 227.469421 
L 327.623545 226.907438 
L 328.061478 226.543802 
L 328.937345 226.246281 
L 331.127011 225.353719 
L 331.564944 225.02314 
L 332.002878 224.857851 
L 332.878744 224.361983 
L 334.630477 223.8 
L 335.506344 223.238017 
L 335.944277 222.775207 
L 336.382211 222.510744 
L 336.820144 222.41157 
L 337.69601 221.684298 
L 338.133944 221.618182 
L 338.571877 220.890909 
L 339.00981 220.692562 
L 339.447744 220.328926 
L 339.885677 220.26281 
L 340.761543 219.700826 
L 341.63741 219.403306 
L 342.075343 219.072727 
L 342.513277 218.907438 
L 344.26501 217.717355 
L 345.57881 217.02314 
L 346.454676 216.791736 
L 347.330543 216.295868 
L 347.768476 215.535537 
L 348.644343 214.87438 
L 349.082276 214.775207 
L 351.709876 213.48595 
L 352.585742 213.122314 
L 353.461609 212.494215 
L 354.337475 211.601653 
L 358.278875 208.494215 
L 358.716808 208.130579 
L 359.592675 207.833058 
L 360.468542 207.238017 
L 361.782341 206.543802 
L 362.220275 206.477686 
L 363.534075 205.750413 
L 364.409941 205.18843 
L 368.789274 203.535537 
L 369.227207 203.171901 
L 370.97894 202.477686 
L 371.416874 202.345455 
L 372.29274 201.750413 
L 373.168607 201.386777 
L 374.044474 200.758678 
L 374.92034 198.973554 
L 375.796207 197.915702 
L 377.110007 197.221488 
L 377.985873 196.857851 
L 378.423806 196.791736 
L 378.86174 196.527273 
L 381.051406 195.8 
L 381.489339 195.601653 
L 382.365206 195.006612 
L 383.679006 194.444628 
L 384.554872 193.94876 
L 385.430739 193.419835 
L 385.868672 193.122314 
L 386.306606 192.626446 
L 387.620405 191.866116 
L 388.058339 191.700826 
L 388.934205 191.171901 
L 390.685939 190.213223 
L 391.123872 190.11405 
L 391.561805 189.750413 
L 394.627338 188.72562 
L 395.065271 188.395041 
L 395.941138 188.130579 
L 396.817005 187.766942 
L 397.254938 187.403306 
L 399.006671 186.775207 
L 399.882538 186.147107 
L 400.758404 185.783471 
L 401.634271 185.089256 
L 402.510137 184.824793 
L 402.948071 184.428099 
L 403.386004 184.361983 
L 404.261871 183.667769 
L 405.137737 183.204959 
L 405.57567 183.006612 
L 406.013604 182.543802 
L 409.079137 181.287603 
L 409.955003 180.890909 
L 411.268803 180.461157 
L 412.14467 180.328926 
L 412.582603 180.130579 
L 413.020536 180.064463 
L 413.896403 179.667769 
L 414.334336 179.634711 
L 416.086069 178.973554 
L 417.399869 178.014876 
L 417.837802 177.849587 
L 418.713669 177.353719 
L 419.151602 177.221488 
L 421.779202 175.733884 
L 422.217135 175.634711 
L 423.530935 174.841322 
L 424.844735 174.378512 
L 425.720602 174.080992 
L 427.472335 173.48595 
L 428.348201 173.18843 
L 430.099935 172.824793 
L 430.537868 172.626446 
L 431.413734 172.395041 
L 431.851668 172.196694 
L 432.289601 172.130579 
L 432.727534 171.899174 
L 433.603401 171.733884 
L 434.917201 171.238017 
L 435.793067 171.138843 
L 437.106867 170.841322 
L 439.296534 170.444628 
L 450.682799 167.006612 
L 451.120733 166.543802 
L 453.748332 165.452893 
L 455.500065 164.857851 
L 455.937999 164.593388 
L 457.251799 164.196694 
L 458.127665 163.965289 
L 458.565598 163.667769 
L 459.003532 163.568595 
L 459.441465 163.171901 
L 460.755265 162.907438 
L 461.631131 162.477686 
L 462.069065 161.94876 
L 463.820798 161.519008 
L 466.886331 160.857851 
L 467.324264 160.857851 
L 467.762198 160.659504 
L 469.513931 160.328926 
L 469.951864 160.130579 
L 471.703597 159.8 
L 472.579464 159.436364 
L 473.45533 159.271074 
L 475.644997 158.709091 
L 477.39673 158.147107 
L 477.834663 158.047934 
L 478.272596 157.816529 
L 479.148463 157.585124 
L 480.02433 157.221488 
L 480.900196 156.890909 
L 481.338129 156.593388 
L 482.213996 156.328926 
L 485.279529 155.171901 
L 487.031262 154.940496 
L 490.534729 153.65124 
L 490.972662 153.320661 
L 491.410595 153.221488 
L 491.848528 152.990083 
L 492.286462 152.957025 
L 497.103728 151.204959 
L 499.293394 150.609917 
L 500.169261 150.180165 
L 501.483061 149.882645 
L 503.234794 148.428099 
L 504.986527 147.667769 
L 505.862394 147.271074 
L 508.489993 146.246281 
L 508.927927 145.94876 
L 511.117593 145.221488 
L 512.431393 144.461157 
L 512.869326 144.361983 
L 514.62106 143.370248 
L 516.372793 142.57686 
L 516.810726 142.246281 
L 517.686593 141.94876 
L 519.876259 140.824793 
L 521.190059 140.361983 
L 522.941792 139.634711 
L 524.255592 139.138843 
L 524.693525 138.973554 
L 525.569392 138.841322 
L 526.007325 138.543802 
L 527.759058 138.180165 
L 528.634925 137.816529 
L 530.386658 136.990083 
L 536.517724 134.279339 
L 537.831524 133.849587 
L 538.269457 133.552066 
L 539.145324 133.452893 
L 539.583257 133.155372 
L 540.459124 132.990083 
L 541.33499 132.560331 
L 541.772923 132.361983 
L 542.64879 132.130579 
L 543.524657 131.866116 
L 544.838457 131.370248 
L 546.152256 130.940496 
L 547.466056 130.642975 
L 549.217789 129.915702 
L 550.093656 129.419835 
L 551.845389 128.527273 
L 552.721256 128.328926 
L 553.159189 128.064463 
L 553.597122 127.965289 
L 554.910922 127.204959 
L 555.786789 126.841322 
L 565.421321 123.105785 
L 567.173054 122.279339 
L 571.552387 120.560331 
L 572.428254 120.130579 
L 572.866187 120.031405 
L 573.30412 119.8 
L 575.055853 119.304132 
L 576.807587 117.849587 
L 577.24552 117.717355 
L 577.683453 117.452893 
L 578.997253 117.089256 
L 579.435186 116.758678 
L 579.87312 116.659504 
L 580.748986 116.097521 
L 582.062786 115.403306 
L 582.938653 115.039669 
L 583.376586 114.808264 
L 584.690386 114.510744 
L 586.880052 113.750413 
L 587.755919 113.452893 
L 589.069719 112.791736 
L 589.945585 112.361983 
L 590.821452 112.130579 
L 592.135252 111.502479 
L 596.076651 110.014876 
L 597.390451 109.18843 
L 597.828385 109.089256 
L 598.704251 108.659504 
L 599.580118 108.328926 
L 600.018051 107.932231 
L 600.893918 107.568595 
L 602.207717 107.105785 
L 602.645651 106.742149 
L 603.083584 106.709091 
L 603.959451 106.444628 
L 604.835317 106.147107 
L 605.27325 105.94876 
L 605.711184 105.882645 
L 607.024984 105.386777 
L 608.338784 104.890909 
L 610.090517 104.097521 
L 610.966383 103.866116 
L 611.404317 103.601653 
L 612.280183 103.370248 
L 613.593983 102.609917 
L 614.031916 102.57686 
L 615.345716 102.147107 
L 616.221583 102.080992 
L 616.659516 101.849587 
L 617.535383 101.618182 
L 617.973316 101.386777 
L 620.162982 100.957025 
L 621.038849 100.791736 
L 622.352649 100.295868 
L 623.666449 99.998347 
L 624.980249 99.304132 
L 625.418182 98.907438 
L 626.731982 98.11405 
L 627.169915 97.783471 
L 628.483715 97.353719 
L 629.359581 97.089256 
L 629.797515 96.857851 
L 630.235448 96.758678 
L 630.673381 96.395041 
L 633.300981 95.271074 
L 635.052714 94.808264 
L 635.928581 94.41157 
L 636.366514 94.180165 
L 637.242381 93.915702 
L 637.680314 93.65124 
L 638.556181 93.48595 
L 642.059647 91.965289 
L 642.49758 91.899174 
L 643.81138 91.039669 
L 644.249313 90.973554 
L 646.001046 90.279339 
L 647.75278 89.849587 
L 648.190713 89.783471 
L 648.628646 89.585124 
L 649.066579 89.552066 
L 649.942446 89.254545 
L 650.380379 89.221488 
L 651.694179 88.692562 
L 653.445912 88.196694 
L 654.321779 87.535537 
L 656.073512 86.543802 
L 657.387312 86.080992 
L 660.890778 84.395041 
L 661.328712 84.163636 
L 661.766645 83.766942 
L 663.956311 83.171901 
L 665.270111 82.57686 
L 666.145978 82.345455 
L 666.583911 82.11405 
L 667.021844 81.750413 
L 668.773578 81.287603 
L 669.211511 80.957025 
L 674.904644 78.87438 
L 675.78051 78.709091 
L 677.970177 78.014876 
L 678.846043 77.65124 
L 679.72191 77.320661 
L 680.597776 77.089256 
L 681.03571 76.890909 
L 681.473643 76.890909 
L 682.349509 76.527273 
L 683.225376 75.998347 
L 686.290909 74.973554 
L 688.042642 74.378512 
L 689.356442 74.080992 
L 690.670242 73.65124 
L 691.108175 73.552066 
L 691.546109 73.254545 
L 692.421975 73.056198 
L 694.173708 72.560331 
L 694.611642 72.527273 
L 695.487508 72.130579 
L 698.553041 71.370248 
L 699.428908 71.006612 
L 703.808241 70.014876 
L 705.122041 69.320661 
L 706.43584 68.923967 
L 710.815173 67.304132 
L 711.253107 66.973554 
L 712.566906 66.676033 
L 713.442773 66.41157 
L 714.31864 65.981818 
L 714.756573 65.618182 
L 715.63244 65.353719 
L 716.070373 65.089256 
L 716.946239 64.990083 
L 720.011772 64.130579 
L 721.325572 63.866116 
L 723.953172 63.006612 
L 725.704905 62.180165 
L 730.522171 60.395041 
L 731.398038 60.26281 
L 732.273905 60.097521 
L 732.711838 60.097521 
L 734.463571 59.535537 
L 734.901504 59.469421 
L 735.777371 59.105785 
L 737.091171 58.709091 
L 738.404971 58.279339 
L 740.594637 57.783471 
L 741.03257 57.519008 
L 741.908437 57.353719 
L 742.784303 57.254545 
L 743.222237 57.02314 
L 743.66017 56.990083 
L 744.536037 56.428099 
L 746.28777 56.031405 
L 746.725703 55.8 
L 747.163636 55.8 
L 747.163636 55.8 
" clip-path="url(#pef2f79f8f7)" style="fill: none; stroke: #1f77b4; stroke-width: 1.5; stroke-linecap: square"/>
   </g>
   <g id="line2d_38">
    <path d="M 138.874297 307.8 
L 142.815697 307.700826 
L 146.319163 307.535537 
L 148.070896 307.535537 
L 148.508829 307.403306 
L 150.698496 307.304132 
L 153.326095 307.006612 
L 155.953695 306.907438 
L 156.829562 306.808264 
L 159.895095 306.676033 
L 162.960628 306.57686 
L 165.150294 306.510744 
L 170.843427 306.41157 
L 173.033094 306.345455 
L 176.974493 306.246281 
L 178.726226 306.213223 
L 183.105559 306.11405 
L 184.857292 305.94876 
L 186.609026 305.915702 
L 189.236625 305.816529 
L 190.988358 305.783471 
L 193.178025 305.717355 
L 194.929758 305.552066 
L 198.871158 305.452893 
L 199.747024 305.386777 
L 201.498757 305.287603 
L 204.126357 305.18843 
L 205.87809 305.089256 
L 213.760889 304.593388 
L 216.826422 304.494215 
L 218.140222 304.361983 
L 220.329889 304.26281 
L 224.709222 304.031405 
L 229.088555 303.965289 
L 230.840288 303.766942 
L 232.592021 303.667769 
L 237.409287 303.204959 
L 240.47482 302.841322 
L 241.78862 302.775207 
L 245.292086 302.312397 
L 247.919686 302.246281 
L 249.233486 302.11405 
L 250.547286 302.014876 
L 262.809418 301.056198 
L 263.685284 300.890909 
L 266.312884 300.791736 
L 273.319817 300.361983 
L 276.38535 300.26281 
L 278.137083 300.064463 
L 280.32675 299.965289 
L 282.954349 299.866116 
L 285.144016 299.766942 
L 286.895749 299.733884 
L 289.085415 299.667769 
L 289.961282 299.535537 
L 296.092348 299.436364 
L 296.968215 299.33719 
L 302.223414 299.238017 
L 306.164814 299.039669 
L 309.230347 298.940496 
L 310.98208 298.742149 
L 314.047613 298.642975 
L 314.923479 298.477686 
L 317.113146 298.41157 
L 321.492479 298.345455 
L 323.244212 298.180165 
L 324.995945 298.147107 
L 326.309745 298.047934 
L 328.061478 297.882645 
L 332.440811 297.65124 
L 336.820144 297.552066 
L 340.761543 297.353719 
L 342.075343 297.320661 
L 342.95121 297.18843 
L 345.140876 297.089256 
L 346.016743 297.02314 
L 346.89261 296.957025 
L 347.768476 296.890909 
L 351.709876 296.824793 
L 353.023676 296.72562 
L 364.847874 295.932231 
L 367.037541 295.833058 
L 369.227207 295.766942 
L 375.358273 295.667769 
L 376.23414 295.535537 
L 382.365206 295.436364 
L 386.744539 295.204959 
L 387.620405 295.171901 
L 388.496272 295.072727 
L 390.685939 294.973554 
L 392.875605 294.907438 
L 395.065271 294.808264 
L 397.254938 294.742149 
L 401.196337 294.642975 
L 403.823937 294.543802 
L 409.955003 294.444628 
L 414.772269 294.180165 
L 416.524003 294.11405 
L 417.837802 294.014876 
L 423.968869 293.915702 
L 426.596468 293.816529 
L 434.479267 293.717355 
L 436.231001 293.684298 
L 441.4862 293.618182 
L 442.362067 293.552066 
L 448.493133 293.452893 
L 450.244866 293.419835 
L 461.631131 293.320661 
L 464.258731 293.221488 
L 482.651929 293.122314 
L 484.841596 293.056198 
L 496.227861 292.990083 
L 497.103728 292.923967 
L 499.293394 292.857851 
L 500.607194 292.72562 
L 503.234794 292.626446 
L 506.300327 292.494215 
L 510.241727 292.395041 
L 512.431393 292.328926 
L 515.496926 292.229752 
L 519.000392 292.064463 
L 521.190059 291.965289 
L 522.941792 291.932231 
L 526.883192 291.833058 
L 528.634925 291.8 
L 534.328058 291.700826 
L 536.079791 291.667769 
L 538.269457 291.568595 
L 540.897057 291.469421 
L 543.96259 291.403306 
L 544.838457 291.33719 
L 555.348855 291.238017 
L 561.041988 290.907438 
L 563.231655 290.841322 
L 564.107521 290.742149 
L 564.983388 290.676033 
L 568.486854 290.57686 
L 571.114454 290.477686 
L 575.493787 290.378512 
L 577.683453 290.147107 
L 582.062786 290.047934 
L 582.938653 289.94876 
L 587.317986 289.849587 
L 589.507652 289.783471 
L 594.324918 289.750413 
L 595.200785 289.65124 
L 600.018051 289.552066 
L 600.893918 289.48595 
L 610.52845 289.386777 
L 613.15605 289.287603 
L 619.725049 289.18843 
L 621.476782 289.155372 
L 625.418182 289.089256 
L 626.294048 288.990083 
L 631.987181 288.890909 
L 634.176848 288.824793 
L 642.059647 288.72562 
L 643.373447 288.626446 
L 644.687247 288.527273 
L 646.001046 288.428099 
L 652.570046 288.328926 
L 655.197646 288.229752 
L 667.021844 288.130579 
L 670.963244 287.932231 
L 676.218443 287.833058 
L 677.09431 287.766942 
L 683.663309 287.700826 
L 684.539176 287.634711 
L 689.356442 287.535537 
L 691.108175 287.502479 
L 697.239241 287.403306 
L 699.866841 287.304132 
L 707.311707 287.204959 
L 709.06344 287.171901 
L 713.00484 287.072727 
L 716.508306 286.907438 
L 721.325572 286.808264 
L 724.391105 286.676033 
L 728.332505 286.57686 
L 729.208371 286.510744 
L 737.967037 286.41157 
L 740.156704 286.345455 
L 742.784303 286.246281 
L 745.411903 286.147107 
L 747.163636 286.080992 
L 747.163636 286.080992 
" clip-path="url(#pef2f79f8f7)" style="fill: none; stroke: #ff7f0e; stroke-width: 1.5; stroke-linecap: square"/>
   </g>
   <g id="patch_3">
    <path d="M 108 320.4 
L 108 43.2 
" style="fill: none; stroke: #a9a9a9; stroke-width: 0.8; stroke-linejoin: miter; stroke-linecap: square"/>
   </g>
   <g id="patch_4">
    <path d="M 777.6 320.4 
L 777.6 43.2 
" style="fill: none"/>
   </g>
   <g id="patch_5">
    <path d="M 108 320.4 
L 777.6 320.4 
" style="fill: none; stroke: #a9a9a9; stroke-width: 0.8; stroke-linejoin: miter; stroke-linecap: square"/>
   </g>
   <g id="patch_6">
    <path d="M 108 43.2 
L 777.6 43.2 
" style="fill: none"/>
   </g>
   <g id="text_19">
    <!-- get_subscribe history -->
    <g style="fill: #a9a9a9" transform="translate(378.6075 37.2) scale(0.12 -0.12)">
     <defs>
      <path id="DejaVuSans-67" d="M 2906 1791 
Q 2906 2416 2648 2759 
Q 2391 3103 1925 3103 
Q 1463 3103 1205 2759 
Q 947 2416 947 1791 
Q 947 1169 1205 825 
Q 1463 481 1925 481 
Q 2391 481 2648 825 
Q 2906 1169 2906 1791 
z
M 3481 434 
Q 3481 -459 3084 -895 
Q 2688 -1331 1869 -1331 
Q 1566 -1331 1297 -1286 
Q 1028 -1241 775 -1147 
L 775 -588 
Q 1028 -725 1275 -790 
Q 1522 -856 1778 -856 
Q 2344 -856 2625 -561 
Q 2906 -266 2906 331 
L 2906 616 
Q 2728 306 2450 153 
Q 2172 0 1784 0 
Q 1141 0 747 490 
Q 353 981 353 1791 
Q 353 2603 747 3093 
Q 1141 3584 1784 3584 
Q 2172 3584 2450 3431 
Q 2728 3278 2906 2969 
L 2906 3500 
L 3481 3500 
L 3481 434 
z
" transform="scale(0.015625)"/>
      <path id="DejaVuSans-65" d="M 3597 1894 
L 3597 1613 
L 953 1613 
Q 991 1019 1311 708 
Q 1631 397 2203 397 
Q 2534 397 2845 478 
Q 3156 559 3463 722 
L 3463 178 
Q 3153 47 2828 -22 
Q 2503 -91 2169 -91 
Q 1331 -91 842 396 
Q 353 884 353 1716 
Q 353 2575 817 3079 
Q 1281 3584 2069 3584 
Q 2775 3584 3186 3129 
Q 3597 2675 3597 1894 
z
M 3022 2063 
Q 3016 2534 2758 2815 
Q 2500 3097 2075 3097 
Q 1594 3097 1305 2825 
Q 1016 2553 972 2059 
L 3022 2063 
z
" transform="scale(0.015625)"/>
      <path id="DejaVuSans-74" d="M 1172 4494 
L 1172 3500 
L 2356 3500 
L 2356 3053 
L 1172 3053 
L 1172 1153 
Q 1172 725 1289 603 
Q 1406 481 1766 481 
L 2356 481 
L 2356 0 
L 1766 0 
Q 1100 0 847 248 
Q 594 497 594 1153 
L 594 3053 
L 172 3053 
L 172 3500 
L 594 3500 
L 594 4494 
L 1172 4494 
z
" transform="scale(0.015625)"/>
      <path id="DejaVuSans-5f" d="M 3263 -1063 
L 3263 -1509 
L -63 -1509 
L -63 -1063 
L 3263 -1063 
z
" transform="scale(0.015625)"/>
      <path id="DejaVuSans-73" d="M 2834 3397 
L 2834 2853 
Q 2591 2978 2328 3040 
Q 2066 3103 1784 3103 
Q 1356 3103 1142 2972 
Q 928 2841 928 2578 
Q 928 2378 1081 2264 
Q 1234 2150 1697 2047 
L 1894 2003 
Q 2506 1872 2764 1633 
Q 3022 1394 3022 966 
Q 3022 478 2636 193 
Q 2250 -91 1575 -91 
Q 1294 -91 989 -36 
Q 684 19 347 128 
L 347 722 
Q 666 556 975 473 
Q 1284 391 1588 391 
Q 1994 391 2212 530 
Q 2431 669 2431 922 
Q 2431 1156 2273 1281 
Q 2116 1406 1581 1522 
L 1381 1569 
Q 847 1681 609 1914 
Q 372 2147 372 2553 
Q 372 3047 722 3315 
Q 1072 3584 1716 3584 
Q 2034 3584 2315 3537 
Q 2597 3491 2834 3397 
z
" transform="scale(0.015625)"/>
      <path id="DejaVuSans-75" d="M 544 1381 
L 544 3500 
L 1119 3500 
L 1119 1403 
Q 1119 906 1312 657 
Q 1506 409 1894 409 
Q 2359 409 2629 706 
Q 2900 1003 2900 1516 
L 2900 3500 
L 3475 3500 
L 3475 0 
L 2900 0 
L 2900 538 
Q 2691 219 2414 64 
Q 2138 -91 1772 -91 
Q 1169 -91 856 284 
Q 544 659 544 1381 
z
M 1991 3584 
L 1991 3584 
z
" transform="scale(0.015625)"/>
      <path id="DejaVuSans-62" d="M 3116 1747 
Q 3116 2381 2855 2742 
Q 2594 3103 2138 3103 
Q 1681 3103 1420 2742 
Q 1159 2381 1159 1747 
Q 1159 1113 1420 752 
Q 1681 391 2138 391 
Q 2594 391 2855 752 
Q 3116 1113 3116 1747 
z
M 1159 2969 
Q 1341 3281 1617 3432 
Q 1894 3584 2278 3584 
Q 2916 3584 3314 3078 
Q 3713 2572 3713 1747 
Q 3713 922 3314 415 
Q 2916 -91 2278 -91 
Q 1894 -91 1617 61 
Q 1341 213 1159 525 
L 1159 0 
L 581 0 
L 581 4863 
L 1159 4863 
L 1159 2969 
z
" transform="scale(0.015625)"/>
      <path id="DejaVuSans-63" d="M 3122 3366 
L 3122 2828 
Q 2878 2963 2633 3030 
Q 2388 3097 2138 3097 
Q 1578 3097 1268 2742 
Q 959 2388 959 1747 
Q 959 1106 1268 751 
Q 1578 397 2138 397 
Q 2388 397 2633 464 
Q 2878 531 3122 666 
L 3122 134 
Q 2881 22 2623 -34 
Q 2366 -91 2075 -91 
Q 1284 -91 818 406 
Q 353 903 353 1747 
Q 353 2603 823 3093 
Q 1294 3584 2113 3584 
Q 2378 3584 2631 3529 
Q 2884 3475 3122 3366 
z
" transform="scale(0.015625)"/>
      <path id="DejaVuSans-72" d="M 2631 2963 
Q 2534 3019 2420 3045 
Q 2306 3072 2169 3072 
Q 1681 3072 1420 2755 
Q 1159 2438 1159 1844 
L 1159 0 
L 581 0 
L 581 3500 
L 1159 3500 
L 1159 2956 
Q 1341 3275 1631 3429 
Q 1922 3584 2338 3584 
Q 2397 3584 2469 3576 
Q 2541 3569 2628 3553 
L 2631 2963 
z
" transform="scale(0.015625)"/>
      <path id="DejaVuSans-69" d="M 603 3500 
L 1178 3500 
L 1178 0 
L 603 0 
L 603 3500 
z
M 603 4863 
L 1178 4863 
L 1178 4134 
L 603 4134 
L 603 4863 
z
" transform="scale(0.015625)"/>
      <path id="DejaVuSans-20" transform="scale(0.015625)"/>
      <path id="DejaVuSans-68" d="M 3513 2113 
L 3513 0 
L 2938 0 
L 2938 2094 
Q 2938 2591 2744 2837 
Q 2550 3084 2163 3084 
Q 1697 3084 1428 2787 
Q 1159 2491 1159 1978 
L 1159 0 
L 581 0 
L 581 4863 
L 1159 4863 
L 1159 2956 
Q 1366 3272 1645 3428 
Q 1925 3584 2291 3584 
Q 2894 3584 3203 3211 
Q 3513 2838 3513 2113 
z
" transform="scale(0.015625)"/>
      <path id="DejaVuSans-6f" d="M 1959 3097 
Q 1497 3097 1228 2736 
Q 959 2375 959 1747 
Q 959 1119 1226 758 
Q 1494 397 1959 397 
Q 2419 397 2687 759 
Q 2956 1122 2956 1747 
Q 2956 2369 2687 2733 
Q 2419 3097 1959 3097 
z
M 1959 3584 
Q 2709 3584 3137 3096 
Q 3566 2609 3566 1747 
Q 3566 888 3137 398 
Q 2709 -91 1959 -91 
Q 1206 -91 779 398 
Q 353 888 353 1747 
Q 353 2609 779 3096 
Q 1206 3584 1959 3584 
z
" transform="scale(0.015625)"/>
      <path id="DejaVuSans-79" d="M 2059 -325 
Q 1816 -950 1584 -1140 
Q 1353 -1331 966 -1331 
L 506 -1331 
L 506 -850 
L 844 -850 
Q 1081 -850 1212 -737 
Q 1344 -625 1503 -206 
L 1606 56 
L 191 3500 
L 800 3500 
L 1894 763 
L 2988 3500 
L 3597 3500 
L 2059 -325 
z
" transform="scale(0.015625)"/>
     </defs>
     <use xlink:href="#DejaVuSans-67"/>
     <use xlink:href="#DejaVuSans-65" transform="translate(63.476562 0)"/>
     <use xlink:href="#DejaVuSans-74" transform="translate(125 0)"/>
     <use xlink:href="#DejaVuSans-5f" transform="translate(164.208984 0)"/>
     <use xlink:href="#DejaVuSans-73" transform="translate(214.208984 0)"/>
     <use xlink:href="#DejaVuSans-75" transform="translate(266.308594 0)"/>
     <use xlink:href="#DejaVuSans-62" transform="translate(329.6875 0)"/>
     <use xlink:href="#DejaVuSans-73" transform="translate(393.164062 0)"/>
     <use xlink:href="#DejaVuSans-63" transform="translate(445.263672 0)"/>
     <use xlink:href="#DejaVuSans-72" transform="translate(500.244141 0)"/>
     <use xlink:href="#DejaVuSans-69" transform="translate(541.357422 0)"/>
     <use xlink:href="#DejaVuSans-62" transform="translate(569.140625 0)"/>
     <use xlink:href="#DejaVuSans-65" transform="translate(632.617188 0)"/>
     <use xlink:href="#DejaVuSans-20" transform="translate(694.140625 0)"/>
     <use xlink:href="#DejaVuSans-68" transform="translate(725.927734 0)"/>
     <use xlink:href="#DejaVuSans-69" transform="translate(789.306641 0)"/>
     <use xlink:href="#DejaVuSans-73" transform="translate(817.089844 0)"/>
     <use xlink:href="#DejaVuSans-74" transform="translate(869.189453 0)"/>
     <use xlink:href="#DejaVuSans-6f" transform="translate(908.398438 0)"/>
     <use xlink:href="#DejaVuSans-72" transform="translate(969.580078 0)"/>
     <use xlink:href="#DejaVuSans-79" transform="translate(1010.693359 0)"/>
    </g>
   </g>
   <g id="legend_1">
    <g id="line2d_39">
     <path d="M 815.08 328.498438 
L 825.08 328.498438 
L 835.08 328.498438 
" style="fill: none; stroke: #1f77b4; stroke-width: 1.5; stroke-linecap: square"/>
    </g>
    <g id="text_20">
     <!-- star -->
     <g style="fill: #a9a9a9" transform="translate(843.08 331.998438) scale(0.1 -0.1)">
      <defs>
       <path id="DejaVuSans-61" d="M 2194 1759 
Q 1497 1759 1228 1600 
Q 959 1441 959 1056 
Q 959 750 1161 570 
Q 1363 391 1709 391 
Q 2188 391 2477 730 
Q 2766 1069 2766 1631 
L 2766 1759 
L 2194 1759 
z
M 3341 1997 
L 3341 0 
L 2766 0 
L 2766 531 
Q 2569 213 2275 61 
Q 1981 -91 1556 -91 
Q 1019 -91 701 211 
Q 384 513 384 1019 
Q 384 1609 779 1909 
Q 1175 2209 1959 2209 
L 2766 2209 
L 2766 2266 
Q 2766 2663 2505 2880 
Q 2244 3097 1772 3097 
Q 1472 3097 1187 3025 
Q 903 2953 641 2809 
L 641 3341 
Q 956 3463 1253 3523 
Q 1550 3584 1831 3584 
Q 2591 3584 2966 3190 
Q 3341 2797 3341 1997 
z
" transform="scale(0.015625)"/>
      </defs>
      <use xlink:href="#DejaVuSans-73"/>
      <use xlink:href="#DejaVuSans-74" transform="translate(52.099609 0)"/>
      <use xlink:href="#DejaVuSans-61" transform="translate(91.308594 0)"/>
      <use xlink:href="#DejaVuSans-72" transform="translate(152.587891 0)"/>
     </g>
    </g>
    <g id="line2d_40">
     <path d="M 815.08 343.176562 
L 825.08 343.176562 
L 835.08 343.176562 
" style="fill: none; stroke: #ff7f0e; stroke-width: 1.5; stroke-linecap: square"/>
    </g>
    <g id="text_21">
     <!-- fork -->
     <g style="fill: #a9a9a9" transform="translate(843.08 346.676562) scale(0.1 -0.1)">
      <defs>
       <path id="DejaVuSans-66" d="M 2375 4863 
L 2375 4384 
L 1825 4384 
Q 1516 4384 1395 4259 
Q 1275 4134 1275 3809 
L 1275 3500 
L 2222 3500 
L 2222 3053 
L 1275 3053 
L 1275 0 
L 697 0 
L 697 3053 
L 147 3053 
L 147 3500 
L 697 3500 
L 697 3744 
Q 697 4328 969 4595 
Q 1241 4863 1831 4863 
L 2375 4863 
z
" transform="scale(0.015625)"/>
       <path id="DejaVuSans-6b" d="M 581 4863 
L 1159 4863 
L 1159 1991 
L 2875 3500 
L 3609 3500 
L 1753 1863 
L 3688 0 
L 2938 0 
L 1159 1709 
L 1159 0 
L 581 0 
L 581 4863 
z
" transform="scale(0.015625)"/>
      </defs>
      <use xlink:href="#DejaVuSans-66"/>
      <use xlink:href="#DejaVuSans-6f" transform="translate(35.205078 0)"/>
      <use xlink:href="#DejaVuSans-72" transform="translate(96.386719 0)"/>
      <use xlink:href="#DejaVuSans-6b" transform="translate(137.5 0)"/>
     </g>
    </g>
   </g>
  </g>
 </g>
 <defs>
  <clipPath id="pef2f79f8f7">
   <rect x="108" y="43.2" width="669.6" height="277.2"/>
  </clipPath>
 </defs>
</svg>
