<?xml version="1.0" encoding="utf-8" standalone="no"?>
<!DOCTYPE svg PUBLIC "-//W3C//DTD SVG 1.1//EN"
  "http://www.w3.org/Graphics/SVG/1.1/DTD/svg11.dtd">
<svg xmlns:xlink="http://www.w3.org/1999/xlink" width="864pt" height="360pt" viewBox="0 0 864 360" xmlns="http://www.w3.org/2000/svg" version="1.1">
 <metadata>
  <rdf:RDF xmlns:dc="http://purl.org/dc/elements/1.1/" xmlns:cc="http://creativecommons.org/ns#" xmlns:rdf="http://www.w3.org/1999/02/22-rdf-syntax-ns#">
   <cc:Work>
    <dc:type rdf:resource="http://purl.org/dc/dcmitype/StillImage"/>
    <dc:date>2024-09-21T08:13:06.606390</dc:date>
    <dc:format>image/svg+xml</dc:format>
    <dc:creator>
     <cc:Agent>
      <dc:title>Matplotlib v3.9.2, https://matplotlib.org/</dc:title>
     </cc:Agent>
    </dc:creator>
   </cc:Work>
  </rdf:RDF>
 </metadata>
 <defs>
  <style type="text/css">*{stroke-linejoin: round; stroke-linecap: butt}</style>
 </defs>
 <g id="figure_1">
  <g id="patch_1">
   <path d="M 0 360 
L 864 360 
L 864 0 
L 0 0 
L 0 360 
z
" style="fill: none; opacity: 0"/>
  </g>
  <g id="axes_1">
   <g id="patch_2">
    <path d="M 108 320.4 
L 777.6 320.4 
L 777.6 43.2 
L 108 43.2 
L 108 320.4 
z
" style="fill: none; opacity: 0"/>
   </g>
   <g id="matplotlib.axis_1">
    <g id="xtick_1">
     <g id="line2d_1">
      <path d="M 158.990791 320.4 
L 158.990791 43.2 
" clip-path="url(#p0bf9ab1f2d)" style="fill: none; stroke-dasharray: 5.12,1.28,0.8,1.28; stroke-dashoffset: 0; stroke: #b0b0b0; stroke-width: 0.8"/>
     </g>
     <g id="line2d_2">
      <defs>
       <path id="m4afb72a172" d="M 0 0 
L 0 3.5 
" style="stroke: #a9a9a9; stroke-width: 0.8"/>
      </defs>
      <g>
       <use xlink:href="#m4afb72a172" x="158.990791" y="320.4" style="fill: #a9a9a9; stroke: #a9a9a9; stroke-width: 0.8"/>
      </g>
     </g>
     <g id="text_1">
      <!-- 2021-09 -->
      <g style="fill: #a9a9a9" transform="translate(138.099385 334.998438) scale(0.1 -0.1)">
       <defs>
        <path id="DejaVuSans-32" d="M 1228 531 
L 3431 531 
L 3431 0 
L 469 0 
L 469 531 
Q 828 903 1448 1529 
Q 2069 2156 2228 2338 
Q 2531 2678 2651 2914 
Q 2772 3150 2772 3378 
Q 2772 3750 2511 3984 
Q 2250 4219 1831 4219 
Q 1534 4219 1204 4116 
Q 875 4013 500 3803 
L 500 4441 
Q 881 4594 1212 4672 
Q 1544 4750 1819 4750 
Q 2544 4750 2975 4387 
Q 3406 4025 3406 3419 
Q 3406 3131 3298 2873 
Q 3191 2616 2906 2266 
Q 2828 2175 2409 1742 
Q 1991 1309 1228 531 
z
" transform="scale(0.015625)"/>
        <path id="DejaVuSans-30" d="M 2034 4250 
Q 1547 4250 1301 3770 
Q 1056 3291 1056 2328 
Q 1056 1369 1301 889 
Q 1547 409 2034 409 
Q 2525 409 2770 889 
Q 3016 1369 3016 2328 
Q 3016 3291 2770 3770 
Q 2525 4250 2034 4250 
z
M 2034 4750 
Q 2819 4750 3233 4129 
Q 3647 3509 3647 2328 
Q 3647 1150 3233 529 
Q 2819 -91 2034 -91 
Q 1250 -91 836 529 
Q 422 1150 422 2328 
Q 422 3509 836 4129 
Q 1250 4750 2034 4750 
z
" transform="scale(0.015625)"/>
        <path id="DejaVuSans-31" d="M 794 531 
L 1825 531 
L 1825 4091 
L 703 3866 
L 703 4441 
L 1819 4666 
L 2450 4666 
L 2450 531 
L 3481 531 
L 3481 0 
L 794 0 
L 794 531 
z
" transform="scale(0.015625)"/>
        <path id="DejaVuSans-2d" d="M 313 2009 
L 1997 2009 
L 1997 1497 
L 313 1497 
L 313 2009 
z
" transform="scale(0.015625)"/>
        <path id="DejaVuSans-39" d="M 703 97 
L 703 672 
Q 941 559 1184 500 
Q 1428 441 1663 441 
Q 2288 441 2617 861 
Q 2947 1281 2994 2138 
Q 2813 1869 2534 1725 
Q 2256 1581 1919 1581 
Q 1219 1581 811 2004 
Q 403 2428 403 3163 
Q 403 3881 828 4315 
Q 1253 4750 1959 4750 
Q 2769 4750 3195 4129 
Q 3622 3509 3622 2328 
Q 3622 1225 3098 567 
Q 2575 -91 1691 -91 
Q 1453 -91 1209 -44 
Q 966 3 703 97 
z
M 1959 2075 
Q 2384 2075 2632 2365 
Q 2881 2656 2881 3163 
Q 2881 3666 2632 3958 
Q 2384 4250 1959 4250 
Q 1534 4250 1286 3958 
Q 1038 3666 1038 3163 
Q 1038 2656 1286 2365 
Q 1534 2075 1959 2075 
z
" transform="scale(0.015625)"/>
       </defs>
       <use xlink:href="#DejaVuSans-32"/>
       <use xlink:href="#DejaVuSans-30" x="63.623047"/>
       <use xlink:href="#DejaVuSans-32" x="127.246094"/>
       <use xlink:href="#DejaVuSans-31" x="190.869141"/>
       <use xlink:href="#DejaVuSans-2d" x="254.492188"/>
       <use xlink:href="#DejaVuSans-30" x="290.576172"/>
       <use xlink:href="#DejaVuSans-39" x="354.199219"/>
      </g>
     </g>
    </g>
    <g id="xtick_2">
     <g id="line2d_3">
      <path d="M 223.289256 320.4 
L 223.289256 43.2 
" clip-path="url(#p0bf9ab1f2d)" style="fill: none; stroke-dasharray: 5.12,1.28,0.8,1.28; stroke-dashoffset: 0; stroke: #b0b0b0; stroke-width: 0.8"/>
     </g>
     <g id="line2d_4">
      <g>
       <use xlink:href="#m4afb72a172" x="223.289256" y="320.4" style="fill: #a9a9a9; stroke: #a9a9a9; stroke-width: 0.8"/>
      </g>
     </g>
     <g id="text_2">
      <!-- 2022-01 -->
      <g style="fill: #a9a9a9" transform="translate(202.39785 334.998438) scale(0.1 -0.1)">
       <use xlink:href="#DejaVuSans-32"/>
       <use xlink:href="#DejaVuSans-30" x="63.623047"/>
       <use xlink:href="#DejaVuSans-32" x="127.246094"/>
       <use xlink:href="#DejaVuSans-32" x="190.869141"/>
       <use xlink:href="#DejaVuSans-2d" x="254.492188"/>
       <use xlink:href="#DejaVuSans-30" x="290.576172"/>
       <use xlink:href="#DejaVuSans-31" x="354.199219"/>
      </g>
     </g>
    </g>
    <g id="xtick_3">
     <g id="line2d_5">
      <path d="M 286.533648 320.4 
L 286.533648 43.2 
" clip-path="url(#p0bf9ab1f2d)" style="fill: none; stroke-dasharray: 5.12,1.28,0.8,1.28; stroke-dashoffset: 0; stroke: #b0b0b0; stroke-width: 0.8"/>
     </g>
     <g id="line2d_6">
      <g>
       <use xlink:href="#m4afb72a172" x="286.533648" y="320.4" style="fill: #a9a9a9; stroke: #a9a9a9; stroke-width: 0.8"/>
      </g>
     </g>
     <g id="text_3">
      <!-- 2022-05 -->
      <g style="fill: #a9a9a9" transform="translate(265.642242 334.998438) scale(0.1 -0.1)">
       <defs>
        <path id="DejaVuSans-35" d="M 691 4666 
L 3169 4666 
L 3169 4134 
L 1269 4134 
L 1269 2991 
Q 1406 3038 1543 3061 
Q 1681 3084 1819 3084 
Q 2600 3084 3056 2656 
Q 3513 2228 3513 1497 
Q 3513 744 3044 326 
Q 2575 -91 1722 -91 
Q 1428 -91 1123 -41 
Q 819 9 494 109 
L 494 744 
Q 775 591 1075 516 
Q 1375 441 1709 441 
Q 2250 441 2565 725 
Q 2881 1009 2881 1497 
Q 2881 1984 2565 2268 
Q 2250 2553 1709 2553 
Q 1456 2553 1204 2497 
Q 953 2441 691 2322 
L 691 4666 
z
" transform="scale(0.015625)"/>
       </defs>
       <use xlink:href="#DejaVuSans-32"/>
       <use xlink:href="#DejaVuSans-30" x="63.623047"/>
       <use xlink:href="#DejaVuSans-32" x="127.246094"/>
       <use xlink:href="#DejaVuSans-32" x="190.869141"/>
       <use xlink:href="#DejaVuSans-2d" x="254.492188"/>
       <use xlink:href="#DejaVuSans-30" x="290.576172"/>
       <use xlink:href="#DejaVuSans-35" x="354.199219"/>
      </g>
     </g>
    </g>
    <g id="xtick_4">
     <g id="line2d_7">
      <path d="M 351.35915 320.4 
L 351.35915 43.2 
" clip-path="url(#p0bf9ab1f2d)" style="fill: none; stroke-dasharray: 5.12,1.28,0.8,1.28; stroke-dashoffset: 0; stroke: #b0b0b0; stroke-width: 0.8"/>
     </g>
     <g id="line2d_8">
      <g>
       <use xlink:href="#m4afb72a172" x="351.35915" y="320.4" style="fill: #a9a9a9; stroke: #a9a9a9; stroke-width: 0.8"/>
      </g>
     </g>
     <g id="text_4">
      <!-- 2022-09 -->
      <g style="fill: #a9a9a9" transform="translate(330.467744 334.998438) scale(0.1 -0.1)">
       <use xlink:href="#DejaVuSans-32"/>
       <use xlink:href="#DejaVuSans-30" x="63.623047"/>
       <use xlink:href="#DejaVuSans-32" x="127.246094"/>
       <use xlink:href="#DejaVuSans-32" x="190.869141"/>
       <use xlink:href="#DejaVuSans-2d" x="254.492188"/>
       <use xlink:href="#DejaVuSans-30" x="290.576172"/>
       <use xlink:href="#DejaVuSans-39" x="354.199219"/>
      </g>
     </g>
    </g>
    <g id="xtick_5">
     <g id="line2d_9">
      <path d="M 415.657615 320.4 
L 415.657615 43.2 
" clip-path="url(#p0bf9ab1f2d)" style="fill: none; stroke-dasharray: 5.12,1.28,0.8,1.28; stroke-dashoffset: 0; stroke: #b0b0b0; stroke-width: 0.8"/>
     </g>
     <g id="line2d_10">
      <g>
       <use xlink:href="#m4afb72a172" x="415.657615" y="320.4" style="fill: #a9a9a9; stroke: #a9a9a9; stroke-width: 0.8"/>
      </g>
     </g>
     <g id="text_5">
      <!-- 2023-01 -->
      <g style="fill: #a9a9a9" transform="translate(394.766209 334.998438) scale(0.1 -0.1)">
       <defs>
        <path id="DejaVuSans-33" d="M 2597 2516 
Q 3050 2419 3304 2112 
Q 3559 1806 3559 1356 
Q 3559 666 3084 287 
Q 2609 -91 1734 -91 
Q 1441 -91 1130 -33 
Q 819 25 488 141 
L 488 750 
Q 750 597 1062 519 
Q 1375 441 1716 441 
Q 2309 441 2620 675 
Q 2931 909 2931 1356 
Q 2931 1769 2642 2001 
Q 2353 2234 1838 2234 
L 1294 2234 
L 1294 2753 
L 1863 2753 
Q 2328 2753 2575 2939 
Q 2822 3125 2822 3475 
Q 2822 3834 2567 4026 
Q 2313 4219 1838 4219 
Q 1578 4219 1281 4162 
Q 984 4106 628 3988 
L 628 4550 
Q 988 4650 1302 4700 
Q 1616 4750 1894 4750 
Q 2613 4750 3031 4423 
Q 3450 4097 3450 3541 
Q 3450 3153 3228 2886 
Q 3006 2619 2597 2516 
z
" transform="scale(0.015625)"/>
       </defs>
       <use xlink:href="#DejaVuSans-32"/>
       <use xlink:href="#DejaVuSans-30" x="63.623047"/>
       <use xlink:href="#DejaVuSans-32" x="127.246094"/>
       <use xlink:href="#DejaVuSans-33" x="190.869141"/>
       <use xlink:href="#DejaVuSans-2d" x="254.492188"/>
       <use xlink:href="#DejaVuSans-30" x="290.576172"/>
       <use xlink:href="#DejaVuSans-31" x="354.199219"/>
      </g>
     </g>
    </g>
    <g id="xtick_6">
     <g id="line2d_11">
      <path d="M 478.902007 320.4 
L 478.902007 43.2 
" clip-path="url(#p0bf9ab1f2d)" style="fill: none; stroke-dasharray: 5.12,1.28,0.8,1.28; stroke-dashoffset: 0; stroke: #b0b0b0; stroke-width: 0.8"/>
     </g>
     <g id="line2d_12">
      <g>
       <use xlink:href="#m4afb72a172" x="478.902007" y="320.4" style="fill: #a9a9a9; stroke: #a9a9a9; stroke-width: 0.8"/>
      </g>
     </g>
     <g id="text_6">
      <!-- 2023-05 -->
      <g style="fill: #a9a9a9" transform="translate(458.010601 334.998438) scale(0.1 -0.1)">
       <use xlink:href="#DejaVuSans-32"/>
       <use xlink:href="#DejaVuSans-30" x="63.623047"/>
       <use xlink:href="#DejaVuSans-32" x="127.246094"/>
       <use xlink:href="#DejaVuSans-33" x="190.869141"/>
       <use xlink:href="#DejaVuSans-2d" x="254.492188"/>
       <use xlink:href="#DejaVuSans-30" x="290.576172"/>
       <use xlink:href="#DejaVuSans-35" x="354.199219"/>
      </g>
     </g>
    </g>
    <g id="xtick_7">
     <g id="line2d_13">
      <path d="M 543.727509 320.4 
L 543.727509 43.2 
" clip-path="url(#p0bf9ab1f2d)" style="fill: none; stroke-dasharray: 5.12,1.28,0.8,1.28; stroke-dashoffset: 0; stroke: #b0b0b0; stroke-width: 0.8"/>
     </g>
     <g id="line2d_14">
      <g>
       <use xlink:href="#m4afb72a172" x="543.727509" y="320.4" style="fill: #a9a9a9; stroke: #a9a9a9; stroke-width: 0.8"/>
      </g>
     </g>
     <g id="text_7">
      <!-- 2023-09 -->
      <g style="fill: #a9a9a9" transform="translate(522.836103 334.998438) scale(0.1 -0.1)">
       <use xlink:href="#DejaVuSans-32"/>
       <use xlink:href="#DejaVuSans-30" x="63.623047"/>
       <use xlink:href="#DejaVuSans-32" x="127.246094"/>
       <use xlink:href="#DejaVuSans-33" x="190.869141"/>
       <use xlink:href="#DejaVuSans-2d" x="254.492188"/>
       <use xlink:href="#DejaVuSans-30" x="290.576172"/>
       <use xlink:href="#DejaVuSans-39" x="354.199219"/>
      </g>
     </g>
    </g>
    <g id="xtick_8">
     <g id="line2d_15">
      <path d="M 608.025974 320.4 
L 608.025974 43.2 
" clip-path="url(#p0bf9ab1f2d)" style="fill: none; stroke-dasharray: 5.12,1.28,0.8,1.28; stroke-dashoffset: 0; stroke: #b0b0b0; stroke-width: 0.8"/>
     </g>
     <g id="line2d_16">
      <g>
       <use xlink:href="#m4afb72a172" x="608.025974" y="320.4" style="fill: #a9a9a9; stroke: #a9a9a9; stroke-width: 0.8"/>
      </g>
     </g>
     <g id="text_8">
      <!-- 2024-01 -->
      <g style="fill: #a9a9a9" transform="translate(587.134568 334.998438) scale(0.1 -0.1)">
       <defs>
        <path id="DejaVuSans-34" d="M 2419 4116 
L 825 1625 
L 2419 1625 
L 2419 4116 
z
M 2253 4666 
L 3047 4666 
L 3047 1625 
L 3713 1625 
L 3713 1100 
L 3047 1100 
L 3047 0 
L 2419 0 
L 2419 1100 
L 313 1100 
L 313 1709 
L 2253 4666 
z
" transform="scale(0.015625)"/>
       </defs>
       <use xlink:href="#DejaVuSans-32"/>
       <use xlink:href="#DejaVuSans-30" x="63.623047"/>
       <use xlink:href="#DejaVuSans-32" x="127.246094"/>
       <use xlink:href="#DejaVuSans-34" x="190.869141"/>
       <use xlink:href="#DejaVuSans-2d" x="254.492188"/>
       <use xlink:href="#DejaVuSans-30" x="290.576172"/>
       <use xlink:href="#DejaVuSans-31" x="354.199219"/>
      </g>
     </g>
    </g>
    <g id="xtick_9">
     <g id="line2d_17">
      <path d="M 671.797403 320.4 
L 671.797403 43.2 
" clip-path="url(#p0bf9ab1f2d)" style="fill: none; stroke-dasharray: 5.12,1.28,0.8,1.28; stroke-dashoffset: 0; stroke: #b0b0b0; stroke-width: 0.8"/>
     </g>
     <g id="line2d_18">
      <g>
       <use xlink:href="#m4afb72a172" x="671.797403" y="320.4" style="fill: #a9a9a9; stroke: #a9a9a9; stroke-width: 0.8"/>
      </g>
     </g>
     <g id="text_9">
      <!-- 2024-05 -->
      <g style="fill: #a9a9a9" transform="translate(650.905996 334.998438) scale(0.1 -0.1)">
       <use xlink:href="#DejaVuSans-32"/>
       <use xlink:href="#DejaVuSans-30" x="63.623047"/>
       <use xlink:href="#DejaVuSans-32" x="127.246094"/>
       <use xlink:href="#DejaVuSans-34" x="190.869141"/>
       <use xlink:href="#DejaVuSans-2d" x="254.492188"/>
       <use xlink:href="#DejaVuSans-30" x="290.576172"/>
       <use xlink:href="#DejaVuSans-35" x="354.199219"/>
      </g>
     </g>
    </g>
    <g id="xtick_10">
     <g id="line2d_19">
      <path d="M 736.622904 320.4 
L 736.622904 43.2 
" clip-path="url(#p0bf9ab1f2d)" style="fill: none; stroke-dasharray: 5.12,1.28,0.8,1.28; stroke-dashoffset: 0; stroke: #b0b0b0; stroke-width: 0.8"/>
     </g>
     <g id="line2d_20">
      <g>
       <use xlink:href="#m4afb72a172" x="736.622904" y="320.4" style="fill: #a9a9a9; stroke: #a9a9a9; stroke-width: 0.8"/>
      </g>
     </g>
     <g id="text_10">
      <!-- 2024-09 -->
      <g style="fill: #a9a9a9" transform="translate(715.731498 334.998438) scale(0.1 -0.1)">
       <use xlink:href="#DejaVuSans-32"/>
       <use xlink:href="#DejaVuSans-30" x="63.623047"/>
       <use xlink:href="#DejaVuSans-32" x="127.246094"/>
       <use xlink:href="#DejaVuSans-34" x="190.869141"/>
       <use xlink:href="#DejaVuSans-2d" x="254.492188"/>
       <use xlink:href="#DejaVuSans-30" x="290.576172"/>
       <use xlink:href="#DejaVuSans-39" x="354.199219"/>
      </g>
     </g>
    </g>
   </g>
   <g id="matplotlib.axis_2">
    <g id="ytick_1">
     <g id="line2d_21">
      <path d="M 108 307.837545 
L 777.6 307.837545 
" clip-path="url(#p0bf9ab1f2d)" style="fill: none; stroke-dasharray: 5.12,1.28,0.8,1.28; stroke-dashoffset: 0; stroke: #b0b0b0; stroke-width: 0.8"/>
     </g>
     <g id="line2d_22">
      <defs>
       <path id="m7842b2940d" d="M 0 0 
L -3.5 0 
" style="stroke: #a9a9a9; stroke-width: 0.8"/>
      </defs>
      <g>
       <use xlink:href="#m7842b2940d" x="108" y="307.837545" style="fill: #a9a9a9; stroke: #a9a9a9; stroke-width: 0.8"/>
      </g>
     </g>
     <g id="text_11">
      <!-- 0 -->
      <g style="fill: #a9a9a9" transform="translate(94.6375 311.636763) scale(0.1 -0.1)">
       <use xlink:href="#DejaVuSans-30"/>
      </g>
     </g>
    </g>
    <g id="ytick_2">
     <g id="line2d_23">
      <path d="M 108 277.801788 
L 777.6 277.801788 
" clip-path="url(#p0bf9ab1f2d)" style="fill: none; stroke-dasharray: 5.12,1.28,0.8,1.28; stroke-dashoffset: 0; stroke: #b0b0b0; stroke-width: 0.8"/>
     </g>
     <g id="line2d_24">
      <g>
       <use xlink:href="#m7842b2940d" x="108" y="277.801788" style="fill: #a9a9a9; stroke: #a9a9a9; stroke-width: 0.8"/>
      </g>
     </g>
     <g id="text_12">
      <!-- 800 -->
      <g style="fill: #a9a9a9" transform="translate(81.9125 281.601007) scale(0.1 -0.1)">
       <defs>
        <path id="DejaVuSans-38" d="M 2034 2216 
Q 1584 2216 1326 1975 
Q 1069 1734 1069 1313 
Q 1069 891 1326 650 
Q 1584 409 2034 409 
Q 2484 409 2743 651 
Q 3003 894 3003 1313 
Q 3003 1734 2745 1975 
Q 2488 2216 2034 2216 
z
M 1403 2484 
Q 997 2584 770 2862 
Q 544 3141 544 3541 
Q 544 4100 942 4425 
Q 1341 4750 2034 4750 
Q 2731 4750 3128 4425 
Q 3525 4100 3525 3541 
Q 3525 3141 3298 2862 
Q 3072 2584 2669 2484 
Q 3125 2378 3379 2068 
Q 3634 1759 3634 1313 
Q 3634 634 3220 271 
Q 2806 -91 2034 -91 
Q 1263 -91 848 271 
Q 434 634 434 1313 
Q 434 1759 690 2068 
Q 947 2378 1403 2484 
z
M 1172 3481 
Q 1172 3119 1398 2916 
Q 1625 2713 2034 2713 
Q 2441 2713 2670 2916 
Q 2900 3119 2900 3481 
Q 2900 3844 2670 4047 
Q 2441 4250 2034 4250 
Q 1625 4250 1398 4047 
Q 1172 3844 1172 3481 
z
" transform="scale(0.015625)"/>
       </defs>
       <use xlink:href="#DejaVuSans-38"/>
       <use xlink:href="#DejaVuSans-30" x="63.623047"/>
       <use xlink:href="#DejaVuSans-30" x="127.246094"/>
      </g>
     </g>
    </g>
    <g id="ytick_3">
     <g id="line2d_25">
      <path d="M 108 247.766031 
L 777.6 247.766031 
" clip-path="url(#p0bf9ab1f2d)" style="fill: none; stroke-dasharray: 5.12,1.28,0.8,1.28; stroke-dashoffset: 0; stroke: #b0b0b0; stroke-width: 0.8"/>
     </g>
     <g id="line2d_26">
      <g>
       <use xlink:href="#m7842b2940d" x="108" y="247.766031" style="fill: #a9a9a9; stroke: #a9a9a9; stroke-width: 0.8"/>
      </g>
     </g>
     <g id="text_13">
      <!-- 1600 -->
      <g style="fill: #a9a9a9" transform="translate(75.55 251.56525) scale(0.1 -0.1)">
       <defs>
        <path id="DejaVuSans-36" d="M 2113 2584 
Q 1688 2584 1439 2293 
Q 1191 2003 1191 1497 
Q 1191 994 1439 701 
Q 1688 409 2113 409 
Q 2538 409 2786 701 
Q 3034 994 3034 1497 
Q 3034 2003 2786 2293 
Q 2538 2584 2113 2584 
z
M 3366 4563 
L 3366 3988 
Q 3128 4100 2886 4159 
Q 2644 4219 2406 4219 
Q 1781 4219 1451 3797 
Q 1122 3375 1075 2522 
Q 1259 2794 1537 2939 
Q 1816 3084 2150 3084 
Q 2853 3084 3261 2657 
Q 3669 2231 3669 1497 
Q 3669 778 3244 343 
Q 2819 -91 2113 -91 
Q 1303 -91 875 529 
Q 447 1150 447 2328 
Q 447 3434 972 4092 
Q 1497 4750 2381 4750 
Q 2619 4750 2861 4703 
Q 3103 4656 3366 4563 
z
" transform="scale(0.015625)"/>
       </defs>
       <use xlink:href="#DejaVuSans-31"/>
       <use xlink:href="#DejaVuSans-36" x="63.623047"/>
       <use xlink:href="#DejaVuSans-30" x="127.246094"/>
       <use xlink:href="#DejaVuSans-30" x="190.869141"/>
      </g>
     </g>
    </g>
    <g id="ytick_4">
     <g id="line2d_27">
      <path d="M 108 217.730274 
L 777.6 217.730274 
" clip-path="url(#p0bf9ab1f2d)" style="fill: none; stroke-dasharray: 5.12,1.28,0.8,1.28; stroke-dashoffset: 0; stroke: #b0b0b0; stroke-width: 0.8"/>
     </g>
     <g id="line2d_28">
      <g>
       <use xlink:href="#m7842b2940d" x="108" y="217.730274" style="fill: #a9a9a9; stroke: #a9a9a9; stroke-width: 0.8"/>
      </g>
     </g>
     <g id="text_14">
      <!-- 2400 -->
      <g style="fill: #a9a9a9" transform="translate(75.55 221.529493) scale(0.1 -0.1)">
       <use xlink:href="#DejaVuSans-32"/>
       <use xlink:href="#DejaVuSans-34" x="63.623047"/>
       <use xlink:href="#DejaVuSans-30" x="127.246094"/>
       <use xlink:href="#DejaVuSans-30" x="190.869141"/>
      </g>
     </g>
    </g>
    <g id="ytick_5">
     <g id="line2d_29">
      <path d="M 108 187.694517 
L 777.6 187.694517 
" clip-path="url(#p0bf9ab1f2d)" style="fill: none; stroke-dasharray: 5.12,1.28,0.8,1.28; stroke-dashoffset: 0; stroke: #b0b0b0; stroke-width: 0.8"/>
     </g>
     <g id="line2d_30">
      <g>
       <use xlink:href="#m7842b2940d" x="108" y="187.694517" style="fill: #a9a9a9; stroke: #a9a9a9; stroke-width: 0.8"/>
      </g>
     </g>
     <g id="text_15">
      <!-- 3200 -->
      <g style="fill: #a9a9a9" transform="translate(75.55 191.493736) scale(0.1 -0.1)">
       <use xlink:href="#DejaVuSans-33"/>
       <use xlink:href="#DejaVuSans-32" x="63.623047"/>
       <use xlink:href="#DejaVuSans-30" x="127.246094"/>
       <use xlink:href="#DejaVuSans-30" x="190.869141"/>
      </g>
     </g>
    </g>
    <g id="ytick_6">
     <g id="line2d_31">
      <path d="M 108 157.65876 
L 777.6 157.65876 
" clip-path="url(#p0bf9ab1f2d)" style="fill: none; stroke-dasharray: 5.12,1.28,0.8,1.28; stroke-dashoffset: 0; stroke: #b0b0b0; stroke-width: 0.8"/>
     </g>
     <g id="line2d_32">
      <g>
       <use xlink:href="#m7842b2940d" x="108" y="157.65876" style="fill: #a9a9a9; stroke: #a9a9a9; stroke-width: 0.8"/>
      </g>
     </g>
     <g id="text_16">
      <!-- 4000 -->
      <g style="fill: #a9a9a9" transform="translate(75.55 161.457979) scale(0.1 -0.1)">
       <use xlink:href="#DejaVuSans-34"/>
       <use xlink:href="#DejaVuSans-30" x="63.623047"/>
       <use xlink:href="#DejaVuSans-30" x="127.246094"/>
       <use xlink:href="#DejaVuSans-30" x="190.869141"/>
      </g>
     </g>
    </g>
    <g id="ytick_7">
     <g id="line2d_33">
      <path d="M 108 127.623004 
L 777.6 127.623004 
" clip-path="url(#p0bf9ab1f2d)" style="fill: none; stroke-dasharray: 5.12,1.28,0.8,1.28; stroke-dashoffset: 0; stroke: #b0b0b0; stroke-width: 0.8"/>
     </g>
     <g id="line2d_34">
      <g>
       <use xlink:href="#m7842b2940d" x="108" y="127.623004" style="fill: #a9a9a9; stroke: #a9a9a9; stroke-width: 0.8"/>
      </g>
     </g>
     <g id="text_17">
      <!-- 4800 -->
      <g style="fill: #a9a9a9" transform="translate(75.55 131.422222) scale(0.1 -0.1)">
       <use xlink:href="#DejaVuSans-34"/>
       <use xlink:href="#DejaVuSans-38" x="63.623047"/>
       <use xlink:href="#DejaVuSans-30" x="127.246094"/>
       <use xlink:href="#DejaVuSans-30" x="190.869141"/>
      </g>
     </g>
    </g>
    <g id="ytick_8">
     <g id="line2d_35">
      <path d="M 108 97.587247 
L 777.6 97.587247 
" clip-path="url(#p0bf9ab1f2d)" style="fill: none; stroke-dasharray: 5.12,1.28,0.8,1.28; stroke-dashoffset: 0; stroke: #b0b0b0; stroke-width: 0.8"/>
     </g>
     <g id="line2d_36">
      <g>
       <use xlink:href="#m7842b2940d" x="108" y="97.587247" style="fill: #a9a9a9; stroke: #a9a9a9; stroke-width: 0.8"/>
      </g>
     </g>
     <g id="text_18">
      <!-- 5600 -->
      <g style="fill: #a9a9a9" transform="translate(75.55 101.386465) scale(0.1 -0.1)">
       <use xlink:href="#DejaVuSans-35"/>
       <use xlink:href="#DejaVuSans-36" x="63.623047"/>
       <use xlink:href="#DejaVuSans-30" x="127.246094"/>
       <use xlink:href="#DejaVuSans-30" x="190.869141"/>
      </g>
     </g>
    </g>
    <g id="ytick_9">
     <g id="line2d_37">
      <path d="M 108 67.55149 
L 777.6 67.55149 
" clip-path="url(#p0bf9ab1f2d)" style="fill: none; stroke-dasharray: 5.12,1.28,0.8,1.28; stroke-dashoffset: 0; stroke: #b0b0b0; stroke-width: 0.8"/>
     </g>
     <g id="line2d_38">
      <g>
       <use xlink:href="#m7842b2940d" x="108" y="67.55149" style="fill: #a9a9a9; stroke: #a9a9a9; stroke-width: 0.8"/>
      </g>
     </g>
     <g id="text_19">
      <!-- 6400 -->
      <g style="fill: #a9a9a9" transform="translate(75.55 71.350709) scale(0.1 -0.1)">
       <use xlink:href="#DejaVuSans-36"/>
       <use xlink:href="#DejaVuSans-34" x="63.623047"/>
       <use xlink:href="#DejaVuSans-30" x="127.246094"/>
       <use xlink:href="#DejaVuSans-30" x="190.869141"/>
      </g>
     </g>
    </g>
   </g>
   <g id="line2d_39">
    <path d="M 138.436364 307.724911 
L 141.598583 307.462098 
L 142.12562 307.23683 
L 143.70673 307.086651 
L 147.395986 306.410846 
L 150.031169 306.185578 
L 151.085242 305.772586 
L 151.612279 305.096782 
L 152.139315 304.721335 
L 152.666352 303.557449 
L 153.193388 303.48236 
L 153.720425 303.069368 
L 154.774498 302.543743 
L 156.882645 300.891776 
L 158.990791 299.878069 
L 160.571901 299.16472 
L 161.098937 298.338737 
L 162.153011 297.587843 
L 162.680047 297.362574 
L 167.950413 296.611681 
L 168.47745 296.386412 
L 172.166706 296.086055 
L 174.274852 295.597974 
L 178.491145 295.034803 
L 179.018182 294.77199 
L 179.545218 294.696901 
L 180.599292 294.358999 
L 184.288548 293.758284 
L 185.342621 293.457926 
L 186.923731 293.307747 
L 187.977804 293.195113 
L 190.612987 292.519309 
L 191.66706 292.444219 
L 192.721133 292.294041 
L 193.775207 292.068772 
L 194.302243 291.918594 
L 194.82928 291.205244 
L 196.41039 290.604529 
L 197.991499 290.191538 
L 198.518536 289.928725 
L 199.045573 289.89118 
L 201.680756 289.140286 
L 202.734829 289.065197 
L 203.261865 288.990107 
L 204.842975 288.502026 
L 206.951122 287.9764 
L 207.478158 287.751132 
L 208.005195 287.676043 
L 208.532231 287.41323 
L 213.802597 286.624791 
L 216.43778 285.873897 
L 216.964817 285.535995 
L 219.6 284.672467 
L 220.654073 283.959118 
L 222.235183 283.65876 
L 232.248878 280.767819 
L 233.302952 280.354827 
L 234.357025 280.279738 
L 235.938135 279.829201 
L 236.465171 279.829201 
L 236.992208 279.603933 
L 238.046281 279.491299 
L 238.573318 279.303576 
L 239.627391 279.266031 
L 241.735537 279.003218 
L 242.78961 278.477592 
L 249.11405 275.66174 
L 249.641086 275.09857 
L 250.695159 273.521692 
L 251.222196 273.371514 
L 251.749233 273.371514 
L 252.803306 272.583075 
L 254.384416 272.057449 
L 254.911452 271.569368 
L 255.965525 271.156377 
L 257.019599 270.668296 
L 258.073672 269.166508 
L 258.600708 268.828605 
L 259.127745 267.927533 
L 259.654782 267.364362 
L 262.817001 265.712396 
L 263.871074 264.886412 
L 264.398111 264.54851 
L 264.925148 263.760072 
L 265.452184 262.596186 
L 265.979221 261.807747 
L 266.506257 261.394756 
L 267.033294 261.169487 
L 269.14144 259.367342 
L 270.195514 258.503814 
L 270.72255 258.053278 
L 271.249587 257.339928 
L 272.30366 256.401311 
L 274.411806 255.012157 
L 274.938843 254.561621 
L 275.992916 254.223719 
L 277.574026 253.322646 
L 279.155136 252.308939 
L 281.263282 250.431704 
L 282.317355 250.018713 
L 283.371429 249.305364 
L 283.898465 249.005006 
L 284.425502 248.929917 
L 288.114758 246.63969 
L 290.222904 245.513349 
L 290.749941 245.025268 
L 299.182527 242.096782 
L 300.2366 241.158164 
L 301.290673 240.670083 
L 302.344746 240.106913 
L 302.871783 239.806555 
L 303.925856 239.506198 
L 304.452893 239.168296 
L 304.979929 239.018117 
L 306.561039 238.00441 
L 309.196222 237.403695 
L 310.777332 236.502622 
L 311.304368 236.427533 
L 312.358442 236.16472 
L 312.885478 236.014541 
L 314.466588 234.813111 
L 316.574734 234.24994 
L 317.101771 233.836949 
L 320.263991 232.785697 
L 320.791027 232.748153 
L 322.372137 232.184982 
L 326.061393 230.870918 
L 327.115466 230.720739 
L 328.696576 230.195113 
L 331.331759 228.956138 
L 333.439906 227.829797 
L 337.656198 226.140286 
L 338.183235 226.065197 
L 339.237308 225.426937 
L 339.764345 225.351847 
L 341.872491 224.488319 
L 343.980638 224.187962 
L 345.034711 223.662336 
L 345.561747 223.2118 
L 346.088784 222.273182 
L 348.19693 221.710012 
L 349.77804 220.921573 
L 350.305077 220.808939 
L 354.52137 218.81907 
L 356.102479 218.481168 
L 357.156553 217.955542 
L 357.683589 217.730274 
L 358.210626 217.655185 
L 360.318772 216.716567 
L 361.899882 215.740405 
L 362.426919 215.665316 
L 362.953955 215.477592 
L 363.480992 215.440048 
L 366.116175 214.801788 
L 366.643211 214.388796 
L 368.224321 213.825626 
L 370.332468 212.999642 
L 370.859504 212.624195 
L 371.386541 212.436472 
L 372.440614 211.873302 
L 375.075797 211.009774 
L 376.656907 209.770799 
L 377.183943 209.658164 
L 378.238017 208.832181 
L 378.765053 208.757092 
L 379.29209 207.931108 
L 379.819126 207.70584 
L 380.346163 207.292849 
L 380.8732 207.217759 
L 381.927273 206.579499 
L 382.981346 206.241597 
L 383.508383 205.828605 
L 384.035419 205.640882 
L 385.616529 204.552086 
L 387.724675 203.46329 
L 388.251712 203.3882 
L 389.832822 202.599762 
L 390.359858 201.736234 
L 390.886895 201.285697 
L 391.413932 200.98534 
L 391.940968 200.872706 
L 392.995041 200.196901 
L 393.522078 200.084267 
L 394.576151 199.558641 
L 396.157261 198.882837 
L 397.211334 198.131943 
L 398.792444 196.705244 
L 399.846517 196.104529 
L 400.373554 195.541359 
L 402.4817 194.11466 
L 403.008737 193.513945 
L 403.535773 193.100954 
L 404.589847 192.725507 
L 405.64392 192.012157 
L 407.22503 191.223719 
L 407.752066 191.148629 
L 409.333176 190.322646 
L 410.387249 189.684386 
L 415.657615 187.807151 
L 416.184652 187.39416 
L 418.292798 186.605721 
L 418.819835 186.455542 
L 419.346871 186.042551 
L 421.982054 184.615852 
L 423.036128 182.550894 
L 424.090201 181.349464 
L 425.144274 180.711204 
L 426.725384 180.072944 
L 427.25242 179.997855 
L 427.779457 179.697497 
L 430.41464 178.871514 
L 430.941677 178.646246 
L 431.99575 177.932896 
L 433.57686 177.257092 
L 434.630933 176.693921 
L 435.157969 176.318474 
L 435.685006 176.093206 
L 436.212043 175.717759 
L 436.739079 175.154589 
L 437.793152 174.591418 
L 440.428335 173.202265 
L 443.590555 171.662932 
L 444.644628 171.32503 
L 446.225738 170.836949 
L 448.333884 169.898331 
L 449.387957 169.48534 
L 449.914994 169.072348 
L 450.969067 168.734446 
L 454.131287 167.120024 
L 455.18536 166.294041 
L 456.239433 165.918594 
L 456.76647 165.468057 
L 457.293506 165.392968 
L 458.34758 164.604529 
L 459.401653 164.078903 
L 459.928689 163.853635 
L 460.455726 163.32801 
L 464.144982 161.901311 
L 465.199055 161.450775 
L 466.780165 160.962694 
L 467.834238 160.812515 
L 468.361275 160.587247 
L 468.888312 160.512157 
L 469.942385 160.061621 
L 470.469421 160.024076 
L 472.577568 159.235638 
L 474.158678 158.146841 
L 476.793861 156.907867 
L 479.429044 155.481168 
L 479.95608 155.368534 
L 481.53719 154.467461 
L 483.1183 153.941836 
L 484.172373 153.603933 
L 486.280519 152.928129 
L 487.334593 152.590226 
L 488.915702 152.327414 
L 491.023849 151.651609 
L 491.550885 151.426341 
L 492.077922 151.351251 
L 492.604959 151.088439 
L 493.659032 150.900715 
L 495.240142 150.337545 
L 496.294215 150.224911 
L 497.875325 149.887008 
L 498.929398 149.699285 
L 499.983471 149.511561 
L 501.037544 149.286293 
L 504.199764 148.497855 
L 504.7268 148.197497 
L 507.361983 147.559237 
L 508.416057 147.221335 
L 514.213459 145.531824 
L 514.740496 145.006198 
L 515.794569 144.593206 
L 518.956789 143.466865 
L 519.483825 143.128963 
L 520.010862 143.016329 
L 520.537898 142.715971 
L 522.119008 142.265435 
L 523.173081 142.002622 
L 523.700118 141.66472 
L 524.227155 141.552086 
L 524.754191 141.101549 
L 526.335301 140.801192 
L 527.389374 140.313111 
L 527.916411 139.712396 
L 530.024557 139.224315 
L 533.713813 138.473421 
L 534.24085 138.473421 
L 534.767887 138.248153 
L 536.876033 137.872706 
L 537.40307 137.647437 
L 539.511216 137.27199 
L 540.565289 136.821454 
L 541.092326 136.783909 
L 550.051948 134.118236 
L 550.578985 133.892968 
L 551.106021 133.517521 
L 552.160094 133.217163 
L 553.214168 132.879261 
L 554.268241 132.466269 
L 555.849351 131.790465 
L 557.43046 131.677831 
L 559.538607 131.077116 
L 560.065643 130.739213 
L 561.119717 130.438856 
L 563.7549 129.27497 
L 564.281936 129.237426 
L 570.079339 127.247557 
L 572.714522 126.571752 
L 573.768595 126.083671 
L 574.822668 125.858403 
L 575.349705 125.745769 
L 575.876741 125.332777 
L 576.403778 125.069964 
L 576.930815 124.431704 
L 577.457851 124.056257 
L 578.511924 123.7559 
L 579.038961 123.342908 
L 581.674144 122.254112 
L 582.201181 122.141478 
L 582.728217 121.803576 
L 583.78229 121.503218 
L 584.309327 121.165316 
L 586.94451 120.301788 
L 588.52562 119.400715 
L 589.052656 119.288081 
L 590.10673 118.687366 
L 590.633766 118.462098 
L 591.687839 117.823838 
L 593.268949 117.072944 
L 593.795986 116.697497 
L 594.850059 116.359595 
L 595.904132 115.75888 
L 596.431169 115.571156 
L 596.958205 115.195709 
L 603.809681 112.830393 
L 604.336718 112.717759 
L 604.863754 112.379857 
L 605.390791 112.304768 
L 606.444864 112.041955 
L 607.498937 111.816687 
L 611.188194 110.014541 
L 611.71523 109.939452 
L 613.29634 109.075924 
L 616.45856 107.836949 
L 618.566706 107.010965 
L 619.093743 106.860787 
L 619.620779 106.522884 
L 620.674852 106.372706 
L 621.201889 106.034803 
L 621.728926 105.997259 
L 622.782999 105.659356 
L 623.837072 105.133731 
L 624.364109 105.058641 
L 626.999292 104.00739 
L 628.580401 103.556853 
L 629.634475 103.294041 
L 631.215584 102.843504 
L 632.269658 102.430513 
L 634.377804 101.304172 
L 635.431877 100.89118 
L 635.958914 100.553278 
L 637.012987 100.32801 
L 637.540024 100.027652 
L 638.06706 99.915018 
L 639.64817 99.089035 
L 640.702243 98.676043 
L 642.283353 97.962694 
L 643.864463 97.549702 
L 647.026682 96.310727 
L 648.607792 95.785101 
L 656.513341 92.406079 
L 657.040378 92.330989 
L 659.148524 91.542551 
L 660.729634 90.679023 
L 661.256671 90.566389 
L 662.310744 90.153397 
L 662.83778 90.153397 
L 663.891854 89.702861 
L 664.945927 88.764243 
L 665.472963 88.313707 
L 667.054073 87.562813 
L 667.58111 87.450179 
L 668.108146 87.187366 
L 668.635183 87.112277 
L 669.16222 86.73683 
L 669.689256 86.624195 
L 670.743329 85.985936 
L 672.324439 85.197497 
L 673.378512 84.784505 
L 673.905549 84.521692 
L 676.540732 83.883433 
L 677.067769 83.62062 
L 678.648878 83.170083 
L 680.757025 82.156377 
L 681.811098 81.668296 
L 682.865171 81.405483 
L 684.973318 80.391776 
L 685.500354 80.241597 
L 686.027391 79.903695 
L 689.18961 78.777354 
L 690.77072 77.838737 
L 691.297757 77.726103 
L 692.35183 77.200477 
L 693.405903 76.82503 
L 693.93294 76.374493 
L 694.459976 76.074136 
L 696.041086 75.586055 
L 697.095159 74.872706 
L 697.622196 74.835161 
L 698.676269 74.534803 
L 699.730342 74.196901 
L 700.257379 73.934088 
L 700.784416 73.858999 
L 702.365525 73.295828 
L 703.946635 72.732658 
L 705.000708 72.319666 
L 705.527745 71.906675 
L 707.108855 71.493683 
L 707.635891 71.193325 
L 708.689965 70.930513 
L 710.271074 70.066985 
L 710.798111 70.02944 
L 712.379221 69.541359 
L 713.433294 69.428725 
L 714.487367 69.015733 
L 717.649587 68.11466 
L 718.70366 68.077116 
L 721.86588 67.063409 
L 722.392916 66.988319 
L 723.974026 66.162336 
L 724.501063 65.7118 
L 725.555136 65.111085 
L 727.136246 64.097378 
L 730.298465 63.008582 
L 730.825502 62.59559 
L 732.406612 61.882241 
L 732.933648 61.769607 
L 733.987721 61.281526 
L 735.568831 60.868534 
L 737.149941 60.192729 
L 738.204014 59.704648 
L 739.785124 59.066389 
L 740.312161 58.953754 
L 741.89327 58.202861 
L 742.420307 58.052682 
L 743.47438 57.339333 
L 745.05549 56.888796 
L 745.582527 56.513349 
L 746.109563 56.288081 
L 746.6366 55.8 
L 747.163636 55.8 
L 747.163636 55.8 
" clip-path="url(#p0bf9ab1f2d)" style="fill: none; stroke: #1f77b4; stroke-width: 1.5; stroke-linecap: square"/>
   </g>
   <g id="line2d_40">
    <path d="M 138.9634 307.8 
L 140.54451 307.724911 
L 142.12562 307.687366 
L 145.287839 307.612277 
L 147.923022 307.499642 
L 150.031169 307.499642 
L 150.558205 307.349464 
L 152.666352 307.274374 
L 154.247462 307.086651 
L 155.828571 306.936472 
L 158.990791 306.786293 
L 159.517828 306.786293 
L 160.571901 306.673659 
L 163.73412 306.52348 
L 167.423377 306.448391 
L 170.05856 306.335757 
L 176.382999 306.260667 
L 179.018182 306.148033 
L 182.180401 306.072944 
L 184.288548 305.997855 
L 189.031877 305.922765 
L 190.612987 305.885221 
L 192.194097 305.847676 
L 193.775207 305.659952 
L 196.937426 305.622408 
L 197.991499 305.547318 
L 202.207792 305.472229 
L 207.478158 305.171871 
L 211.167414 305.096782 
L 212.221488 305.021692 
L 213.802597 304.946603 
L 216.964817 304.796424 
L 219.072963 304.75888 
L 220.654073 304.608701 
L 227.505549 304.195709 
L 230.140732 304.12062 
L 234.884061 303.857807 
L 236.465171 303.782718 
L 241.735537 303.48236 
L 247.53294 303.407271 
L 249.641086 303.182002 
L 250.695159 303.106913 
L 257.546635 302.543743 
L 260.708855 302.130751 
L 262.817001 302.055662 
L 267.033294 301.492491 
L 270.195514 301.417402 
L 271.776623 301.267223 
L 272.830697 301.229678 
L 273.88477 301.117044 
L 275.46588 301.041955 
L 277.046989 300.816687 
L 277.574026 300.816687 
L 279.155136 300.591418 
L 281.263282 300.516329 
L 282.317355 300.44124 
L 284.425502 300.36615 
L 285.479575 300.291061 
L 288.114758 300.028248 
L 289.168831 299.840524 
L 290.749941 299.80298 
L 291.804014 299.72789 
L 294.439197 299.652801 
L 301.290673 299.239809 
L 302.871783 299.16472 
L 309.723259 298.751728 
L 313.412515 298.676639 
L 314.466588 298.564005 
L 318.155844 298.488915 
L 321.8451 298.301192 
L 327.642503 298.226103 
L 331.331759 298.038379 
L 335.548052 297.96329 
L 339.764345 297.738021 
L 343.453601 297.662932 
L 353.467296 297.024672 
L 358.737662 296.949583 
L 360.845809 296.724315 
L 362.426919 296.68677 
L 364.008028 296.649225 
L 366.116175 296.423957 
L 371.386541 296.1236 
L 374.54876 296.04851 
L 376.12987 296.010965 
L 377.71098 295.973421 
L 379.29209 295.823242 
L 383.508383 295.748153 
L 384.562456 295.597974 
L 385.616529 295.522884 
L 388.251712 295.41025 
L 389.305785 295.335161 
L 390.359858 295.260072 
L 395.103188 295.184982 
L 396.157261 295.072348 
L 398.265407 295.034803 
L 399.319481 294.922169 
L 400.90059 294.734446 
L 401.954664 294.659356 
L 406.697993 294.396544 
L 407.752066 294.358999 
L 409.333176 294.20882 
L 410.914286 294.171275 
L 412.495396 294.096186 
L 415.130579 293.983552 
L 422.509091 293.908462 
L 426.198347 293.720739 
L 430.41464 293.64565 
L 432.522786 293.57056 
L 434.630933 293.533015 
L 435.685006 293.420381 
L 437.793152 293.345292 
L 443.063518 293.044934 
L 446.225738 293.00739 
L 447.806848 292.857211 
L 449.387957 292.819666 
L 453.077214 292.744577 
L 455.18536 292.669487 
L 461.509799 292.594398 
L 464.144982 292.481764 
L 467.307202 292.406675 
L 468.888312 292.218951 
L 472.050531 292.181406 
L 473.631641 292.031228 
L 475.739787 291.956138 
L 482.064227 291.881049 
L 484.69941 291.768415 
L 493.659032 291.73087 
L 494.713105 291.655781 
L 496.294215 291.618236 
L 503.145691 291.543147 
L 504.199764 291.468057 
L 509.997166 291.392968 
L 512.105313 291.317878 
L 522.119008 291.242789 
L 523.700118 291.205244 
L 528.443447 291.130155 
L 529.497521 291.055066 
L 542.146399 290.979976 
L 543.727509 290.942431 
L 557.957497 290.867342 
L 559.538607 290.829797 
L 569.025266 290.754708 
L 570.079339 290.679619 
L 572.714522 290.604529 
L 574.295632 290.45435 
L 576.930815 290.379261 
L 580.093034 290.229082 
L 584.309327 290.153993 
L 585.3634 290.078903 
L 589.579693 290.003814 
L 592.741913 289.853635 
L 595.377096 289.778546 
L 599.593388 289.553278 
L 602.755608 289.478188 
L 604.863754 289.403099 
L 611.71523 289.32801 
L 613.823377 289.25292 
L 618.039669 289.177831 
L 621.728926 288.990107 
L 626.472255 288.915018 
L 627.526328 288.839928 
L 637.012987 288.764839 
L 638.594097 288.727294 
L 641.22928 288.68975 
L 643.337426 288.464482 
L 644.918536 288.426937 
L 648.080756 288.351847 
L 653.351122 288.05149 
L 655.986305 287.9764 
L 658.094451 287.901311 
L 663.891854 287.826222 
L 666.527037 287.525864 
L 668.635183 287.450775 
L 672.324439 287.375685 
L 673.378512 287.263051 
L 677.594805 287.187962 
L 680.229988 287.075328 
L 687.081464 287.037783 
L 688.135537 286.925149 
L 691.824793 286.85006 
L 693.405903 286.812515 
L 696.041086 286.737426 
L 697.622196 286.699881 
L 706.581818 286.624791 
L 709.217001 286.512157 
L 716.595514 286.437068 
L 718.70366 286.361979 
L 724.501063 286.286889 
L 725.555136 286.174255 
L 730.298465 286.13671 
L 731.352538 286.061621 
L 733.987721 285.986532 
L 735.568831 285.948987 
L 742.420307 285.873897 
L 744.001417 285.836353 
L 745.05549 285.761263 
L 746.6366 285.723719 
L 747.163636 285.723719 
L 747.163636 285.723719 
" clip-path="url(#p0bf9ab1f2d)" style="fill: none; stroke: #ff7f0e; stroke-width: 1.5; stroke-linecap: square"/>
   </g>
   <g id="patch_3">
    <path d="M 108 320.4 
L 108 43.2 
" style="fill: none; stroke: #a9a9a9; stroke-width: 0.8; stroke-linejoin: miter; stroke-linecap: square"/>
   </g>
   <g id="patch_4">
    <path d="M 777.6 320.4 
L 777.6 43.2 
" style="fill: none"/>
   </g>
   <g id="patch_5">
    <path d="M 108 320.4 
L 777.6 320.4 
" style="fill: none; stroke: #a9a9a9; stroke-width: 0.8; stroke-linejoin: miter; stroke-linecap: square"/>
   </g>
   <g id="patch_6">
    <path d="M 108 43.2 
L 777.6 43.2 
" style="fill: none"/>
   </g>
   <g id="text_20">
    <!-- get_subscribe history -->
    <g style="fill: #a9a9a9" transform="translate(378.6075 37.2) scale(0.12 -0.12)">
     <defs>
      <path id="DejaVuSans-67" d="M 2906 1791 
Q 2906 2416 2648 2759 
Q 2391 3103 1925 3103 
Q 1463 3103 1205 2759 
Q 947 2416 947 1791 
Q 947 1169 1205 825 
Q 1463 481 1925 481 
Q 2391 481 2648 825 
Q 2906 1169 2906 1791 
z
M 3481 434 
Q 3481 -459 3084 -895 
Q 2688 -1331 1869 -1331 
Q 1566 -1331 1297 -1286 
Q 1028 -1241 775 -1147 
L 775 -588 
Q 1028 -725 1275 -790 
Q 1522 -856 1778 -856 
Q 2344 -856 2625 -561 
Q 2906 -266 2906 331 
L 2906 616 
Q 2728 306 2450 153 
Q 2172 0 1784 0 
Q 1141 0 747 490 
Q 353 981 353 1791 
Q 353 2603 747 3093 
Q 1141 3584 1784 3584 
Q 2172 3584 2450 3431 
Q 2728 3278 2906 2969 
L 2906 3500 
L 3481 3500 
L 3481 434 
z
" transform="scale(0.015625)"/>
      <path id="DejaVuSans-65" d="M 3597 1894 
L 3597 1613 
L 953 1613 
Q 991 1019 1311 708 
Q 1631 397 2203 397 
Q 2534 397 2845 478 
Q 3156 559 3463 722 
L 3463 178 
Q 3153 47 2828 -22 
Q 2503 -91 2169 -91 
Q 1331 -91 842 396 
Q 353 884 353 1716 
Q 353 2575 817 3079 
Q 1281 3584 2069 3584 
Q 2775 3584 3186 3129 
Q 3597 2675 3597 1894 
z
M 3022 2063 
Q 3016 2534 2758 2815 
Q 2500 3097 2075 3097 
Q 1594 3097 1305 2825 
Q 1016 2553 972 2059 
L 3022 2063 
z
" transform="scale(0.015625)"/>
      <path id="DejaVuSans-74" d="M 1172 4494 
L 1172 3500 
L 2356 3500 
L 2356 3053 
L 1172 3053 
L 1172 1153 
Q 1172 725 1289 603 
Q 1406 481 1766 481 
L 2356 481 
L 2356 0 
L 1766 0 
Q 1100 0 847 248 
Q 594 497 594 1153 
L 594 3053 
L 172 3053 
L 172 3500 
L 594 3500 
L 594 4494 
L 1172 4494 
z
" transform="scale(0.015625)"/>
      <path id="DejaVuSans-5f" d="M 3263 -1063 
L 3263 -1509 
L -63 -1509 
L -63 -1063 
L 3263 -1063 
z
" transform="scale(0.015625)"/>
      <path id="DejaVuSans-73" d="M 2834 3397 
L 2834 2853 
Q 2591 2978 2328 3040 
Q 2066 3103 1784 3103 
Q 1356 3103 1142 2972 
Q 928 2841 928 2578 
Q 928 2378 1081 2264 
Q 1234 2150 1697 2047 
L 1894 2003 
Q 2506 1872 2764 1633 
Q 3022 1394 3022 966 
Q 3022 478 2636 193 
Q 2250 -91 1575 -91 
Q 1294 -91 989 -36 
Q 684 19 347 128 
L 347 722 
Q 666 556 975 473 
Q 1284 391 1588 391 
Q 1994 391 2212 530 
Q 2431 669 2431 922 
Q 2431 1156 2273 1281 
Q 2116 1406 1581 1522 
L 1381 1569 
Q 847 1681 609 1914 
Q 372 2147 372 2553 
Q 372 3047 722 3315 
Q 1072 3584 1716 3584 
Q 2034 3584 2315 3537 
Q 2597 3491 2834 3397 
z
" transform="scale(0.015625)"/>
      <path id="DejaVuSans-75" d="M 544 1381 
L 544 3500 
L 1119 3500 
L 1119 1403 
Q 1119 906 1312 657 
Q 1506 409 1894 409 
Q 2359 409 2629 706 
Q 2900 1003 2900 1516 
L 2900 3500 
L 3475 3500 
L 3475 0 
L 2900 0 
L 2900 538 
Q 2691 219 2414 64 
Q 2138 -91 1772 -91 
Q 1169 -91 856 284 
Q 544 659 544 1381 
z
M 1991 3584 
L 1991 3584 
z
" transform="scale(0.015625)"/>
      <path id="DejaVuSans-62" d="M 3116 1747 
Q 3116 2381 2855 2742 
Q 2594 3103 2138 3103 
Q 1681 3103 1420 2742 
Q 1159 2381 1159 1747 
Q 1159 1113 1420 752 
Q 1681 391 2138 391 
Q 2594 391 2855 752 
Q 3116 1113 3116 1747 
z
M 1159 2969 
Q 1341 3281 1617 3432 
Q 1894 3584 2278 3584 
Q 2916 3584 3314 3078 
Q 3713 2572 3713 1747 
Q 3713 922 3314 415 
Q 2916 -91 2278 -91 
Q 1894 -91 1617 61 
Q 1341 213 1159 525 
L 1159 0 
L 581 0 
L 581 4863 
L 1159 4863 
L 1159 2969 
z
" transform="scale(0.015625)"/>
      <path id="DejaVuSans-63" d="M 3122 3366 
L 3122 2828 
Q 2878 2963 2633 3030 
Q 2388 3097 2138 3097 
Q 1578 3097 1268 2742 
Q 959 2388 959 1747 
Q 959 1106 1268 751 
Q 1578 397 2138 397 
Q 2388 397 2633 464 
Q 2878 531 3122 666 
L 3122 134 
Q 2881 22 2623 -34 
Q 2366 -91 2075 -91 
Q 1284 -91 818 406 
Q 353 903 353 1747 
Q 353 2603 823 3093 
Q 1294 3584 2113 3584 
Q 2378 3584 2631 3529 
Q 2884 3475 3122 3366 
z
" transform="scale(0.015625)"/>
      <path id="DejaVuSans-72" d="M 2631 2963 
Q 2534 3019 2420 3045 
Q 2306 3072 2169 3072 
Q 1681 3072 1420 2755 
Q 1159 2438 1159 1844 
L 1159 0 
L 581 0 
L 581 3500 
L 1159 3500 
L 1159 2956 
Q 1341 3275 1631 3429 
Q 1922 3584 2338 3584 
Q 2397 3584 2469 3576 
Q 2541 3569 2628 3553 
L 2631 2963 
z
" transform="scale(0.015625)"/>
      <path id="DejaVuSans-69" d="M 603 3500 
L 1178 3500 
L 1178 0 
L 603 0 
L 603 3500 
z
M 603 4863 
L 1178 4863 
L 1178 4134 
L 603 4134 
L 603 4863 
z
" transform="scale(0.015625)"/>
      <path id="DejaVuSans-20" transform="scale(0.015625)"/>
      <path id="DejaVuSans-68" d="M 3513 2113 
L 3513 0 
L 2938 0 
L 2938 2094 
Q 2938 2591 2744 2837 
Q 2550 3084 2163 3084 
Q 1697 3084 1428 2787 
Q 1159 2491 1159 1978 
L 1159 0 
L 581 0 
L 581 4863 
L 1159 4863 
L 1159 2956 
Q 1366 3272 1645 3428 
Q 1925 3584 2291 3584 
Q 2894 3584 3203 3211 
Q 3513 2838 3513 2113 
z
" transform="scale(0.015625)"/>
      <path id="DejaVuSans-6f" d="M 1959 3097 
Q 1497 3097 1228 2736 
Q 959 2375 959 1747 
Q 959 1119 1226 758 
Q 1494 397 1959 397 
Q 2419 397 2687 759 
Q 2956 1122 2956 1747 
Q 2956 2369 2687 2733 
Q 2419 3097 1959 3097 
z
M 1959 3584 
Q 2709 3584 3137 3096 
Q 3566 2609 3566 1747 
Q 3566 888 3137 398 
Q 2709 -91 1959 -91 
Q 1206 -91 779 398 
Q 353 888 353 1747 
Q 353 2609 779 3096 
Q 1206 3584 1959 3584 
z
" transform="scale(0.015625)"/>
      <path id="DejaVuSans-79" d="M 2059 -325 
Q 1816 -950 1584 -1140 
Q 1353 -1331 966 -1331 
L 506 -1331 
L 506 -850 
L 844 -850 
Q 1081 -850 1212 -737 
Q 1344 -625 1503 -206 
L 1606 56 
L 191 3500 
L 800 3500 
L 1894 763 
L 2988 3500 
L 3597 3500 
L 2059 -325 
z
" transform="scale(0.015625)"/>
     </defs>
     <use xlink:href="#DejaVuSans-67"/>
     <use xlink:href="#DejaVuSans-65" x="63.476562"/>
     <use xlink:href="#DejaVuSans-74" x="125"/>
     <use xlink:href="#DejaVuSans-5f" x="164.208984"/>
     <use xlink:href="#DejaVuSans-73" x="214.208984"/>
     <use xlink:href="#DejaVuSans-75" x="266.308594"/>
     <use xlink:href="#DejaVuSans-62" x="329.6875"/>
     <use xlink:href="#DejaVuSans-73" x="393.164062"/>
     <use xlink:href="#DejaVuSans-63" x="445.263672"/>
     <use xlink:href="#DejaVuSans-72" x="500.244141"/>
     <use xlink:href="#DejaVuSans-69" x="541.357422"/>
     <use xlink:href="#DejaVuSans-62" x="569.140625"/>
     <use xlink:href="#DejaVuSans-65" x="632.617188"/>
     <use xlink:href="#DejaVuSans-20" x="694.140625"/>
     <use xlink:href="#DejaVuSans-68" x="725.927734"/>
     <use xlink:href="#DejaVuSans-69" x="789.306641"/>
     <use xlink:href="#DejaVuSans-73" x="817.089844"/>
     <use xlink:href="#DejaVuSans-74" x="869.189453"/>
     <use xlink:href="#DejaVuSans-6f" x="908.398438"/>
     <use xlink:href="#DejaVuSans-72" x="969.580078"/>
     <use xlink:href="#DejaVuSans-79" x="1010.693359"/>
    </g>
   </g>
   <g id="legend_1">
    <g id="line2d_41">
     <path d="M 815.08 328.498438 
L 825.08 328.498438 
L 835.08 328.498438 
" style="fill: none; stroke: #1f77b4; stroke-width: 1.5; stroke-linecap: square"/>
    </g>
    <g id="text_21">
     <!-- star -->
     <g style="fill: #a9a9a9" transform="translate(843.08 331.998438) scale(0.1 -0.1)">
      <defs>
       <path id="DejaVuSans-61" d="M 2194 1759 
Q 1497 1759 1228 1600 
Q 959 1441 959 1056 
Q 959 750 1161 570 
Q 1363 391 1709 391 
Q 2188 391 2477 730 
Q 2766 1069 2766 1631 
L 2766 1759 
L 2194 1759 
z
M 3341 1997 
L 3341 0 
L 2766 0 
L 2766 531 
Q 2569 213 2275 61 
Q 1981 -91 1556 -91 
Q 1019 -91 701 211 
Q 384 513 384 1019 
Q 384 1609 779 1909 
Q 1175 2209 1959 2209 
L 2766 2209 
L 2766 2266 
Q 2766 2663 2505 2880 
Q 2244 3097 1772 3097 
Q 1472 3097 1187 3025 
Q 903 2953 641 2809 
L 641 3341 
Q 956 3463 1253 3523 
Q 1550 3584 1831 3584 
Q 2591 3584 2966 3190 
Q 3341 2797 3341 1997 
z
" transform="scale(0.015625)"/>
      </defs>
      <use xlink:href="#DejaVuSans-73"/>
      <use xlink:href="#DejaVuSans-74" x="52.099609"/>
      <use xlink:href="#DejaVuSans-61" x="91.308594"/>
      <use xlink:href="#DejaVuSans-72" x="152.587891"/>
     </g>
    </g>
    <g id="line2d_42">
     <path d="M 815.08 343.176562 
L 825.08 343.176562 
L 835.08 343.176562 
" style="fill: none; stroke: #ff7f0e; stroke-width: 1.5; stroke-linecap: square"/>
    </g>
    <g id="text_22">
     <!-- fork -->
     <g style="fill: #a9a9a9" transform="translate(843.08 346.676562) scale(0.1 -0.1)">
      <defs>
       <path id="DejaVuSans-66" d="M 2375 4863 
L 2375 4384 
L 1825 4384 
Q 1516 4384 1395 4259 
Q 1275 4134 1275 3809 
L 1275 3500 
L 2222 3500 
L 2222 3053 
L 1275 3053 
L 1275 0 
L 697 0 
L 697 3053 
L 147 3053 
L 147 3500 
L 697 3500 
L 697 3744 
Q 697 4328 969 4595 
Q 1241 4863 1831 4863 
L 2375 4863 
z
" transform="scale(0.015625)"/>
       <path id="DejaVuSans-6b" d="M 581 4863 
L 1159 4863 
L 1159 1991 
L 2875 3500 
L 3609 3500 
L 1753 1863 
L 3688 0 
L 2938 0 
L 1159 1709 
L 1159 0 
L 581 0 
L 581 4863 
z
" transform="scale(0.015625)"/>
      </defs>
      <use xlink:href="#DejaVuSans-66"/>
      <use xlink:href="#DejaVuSans-6f" x="35.205078"/>
      <use xlink:href="#DejaVuSans-72" x="96.386719"/>
      <use xlink:href="#DejaVuSans-6b" x="137.5"/>
     </g>
    </g>
   </g>
  </g>
 </g>
 <defs>
  <clipPath id="p0bf9ab1f2d">
   <rect x="108" y="43.2" width="669.6" height="277.2"/>
  </clipPath>
 </defs>
</svg>
