<?xml version="1.0" encoding="utf-8" standalone="no"?>
<!DOCTYPE svg PUBLIC "-//W3C//DTD SVG 1.1//EN"
  "http://www.w3.org/Graphics/SVG/1.1/DTD/svg11.dtd">
<svg xmlns:xlink="http://www.w3.org/1999/xlink" width="864pt" height="360pt" viewBox="0 0 864 360" xmlns="http://www.w3.org/2000/svg" version="1.1">
 <metadata>
  <rdf:RDF xmlns:dc="http://purl.org/dc/elements/1.1/" xmlns:cc="http://creativecommons.org/ns#" xmlns:rdf="http://www.w3.org/1999/02/22-rdf-syntax-ns#">
   <cc:Work>
    <dc:type rdf:resource="http://purl.org/dc/dcmitype/StillImage"/>
    <dc:date>2025-05-13T08:15:33.593125</dc:date>
    <dc:format>image/svg+xml</dc:format>
    <dc:creator>
     <cc:Agent>
      <dc:title>Matplotlib v3.10.3, https://matplotlib.org/</dc:title>
     </cc:Agent>
    </dc:creator>
   </cc:Work>
  </rdf:RDF>
 </metadata>
 <defs>
  <style type="text/css">*{stroke-linejoin: round; stroke-linecap: butt}</style>
 </defs>
 <g id="figure_1">
  <g id="patch_1">
   <path d="M 0 360 
L 864 360 
L 864 0 
L 0 0 
L 0 360 
z
" style="fill: none; opacity: 0"/>
  </g>
  <g id="axes_1">
   <g id="patch_2">
    <path d="M 108 320.4 
L 777.6 320.4 
L 777.6 43.2 
L 108 43.2 
L 108 320.4 
z
" style="fill: none; opacity: 0"/>
   </g>
   <g id="matplotlib.axis_1">
    <g id="xtick_1">
     <g id="line2d_1">
      <path d="M 128.356646 320.4 
L 128.356646 43.2 
" clip-path="url(#p4801861c7c)" style="fill: none; stroke-dasharray: 5.12,1.28,0.8,1.28; stroke-dashoffset: 0; stroke: #b0b0b0; stroke-width: 0.8"/>
     </g>
     <g id="line2d_2">
      <defs>
       <path id="mdfac7cd922" d="M 0 0 
L 0 3.5 
" style="stroke: #a9a9a9; stroke-width: 0.8"/>
      </defs>
      <g>
       <use xlink:href="#mdfac7cd922" x="128.356646" y="320.4" style="fill: #a9a9a9; stroke: #a9a9a9; stroke-width: 0.8"/>
      </g>
     </g>
     <g id="text_1">
      <!-- 2021-07 -->
      <g style="fill: #a9a9a9" transform="translate(107.46524 334.998438) scale(0.1 -0.1)">
       <defs>
        <path id="DejaVuSans-32" d="M 1228 531 
L 3431 531 
L 3431 0 
L 469 0 
L 469 531 
Q 828 903 1448 1529 
Q 2069 2156 2228 2338 
Q 2531 2678 2651 2914 
Q 2772 3150 2772 3378 
Q 2772 3750 2511 3984 
Q 2250 4219 1831 4219 
Q 1534 4219 1204 4116 
Q 875 4013 500 3803 
L 500 4441 
Q 881 4594 1212 4672 
Q 1544 4750 1819 4750 
Q 2544 4750 2975 4387 
Q 3406 4025 3406 3419 
Q 3406 3131 3298 2873 
Q 3191 2616 2906 2266 
Q 2828 2175 2409 1742 
Q 1991 1309 1228 531 
z
" transform="scale(0.015625)"/>
        <path id="DejaVuSans-30" d="M 2034 4250 
Q 1547 4250 1301 3770 
Q 1056 3291 1056 2328 
Q 1056 1369 1301 889 
Q 1547 409 2034 409 
Q 2525 409 2770 889 
Q 3016 1369 3016 2328 
Q 3016 3291 2770 3770 
Q 2525 4250 2034 4250 
z
M 2034 4750 
Q 2819 4750 3233 4129 
Q 3647 3509 3647 2328 
Q 3647 1150 3233 529 
Q 2819 -91 2034 -91 
Q 1250 -91 836 529 
Q 422 1150 422 2328 
Q 422 3509 836 4129 
Q 1250 4750 2034 4750 
z
" transform="scale(0.015625)"/>
        <path id="DejaVuSans-31" d="M 794 531 
L 1825 531 
L 1825 4091 
L 703 3866 
L 703 4441 
L 1819 4666 
L 2450 4666 
L 2450 531 
L 3481 531 
L 3481 0 
L 794 0 
L 794 531 
z
" transform="scale(0.015625)"/>
        <path id="DejaVuSans-2d" d="M 313 2009 
L 1997 2009 
L 1997 1497 
L 313 1497 
L 313 2009 
z
" transform="scale(0.015625)"/>
        <path id="DejaVuSans-37" d="M 525 4666 
L 3525 4666 
L 3525 4397 
L 1831 0 
L 1172 0 
L 2766 4134 
L 525 4134 
L 525 4666 
z
" transform="scale(0.015625)"/>
       </defs>
       <use xlink:href="#DejaVuSans-32"/>
       <use xlink:href="#DejaVuSans-30" transform="translate(63.623047 0)"/>
       <use xlink:href="#DejaVuSans-32" transform="translate(127.246094 0)"/>
       <use xlink:href="#DejaVuSans-31" transform="translate(190.869141 0)"/>
       <use xlink:href="#DejaVuSans-2d" transform="translate(254.492188 0)"/>
       <use xlink:href="#DejaVuSans-30" transform="translate(290.576172 0)"/>
       <use xlink:href="#DejaVuSans-37" transform="translate(354.199219 0)"/>
      </g>
     </g>
    </g>
    <g id="xtick_2">
     <g id="line2d_3">
      <path d="M 208.994384 320.4 
L 208.994384 43.2 
" clip-path="url(#p4801861c7c)" style="fill: none; stroke-dasharray: 5.12,1.28,0.8,1.28; stroke-dashoffset: 0; stroke: #b0b0b0; stroke-width: 0.8"/>
     </g>
     <g id="line2d_4">
      <g>
       <use xlink:href="#mdfac7cd922" x="208.994384" y="320.4" style="fill: #a9a9a9; stroke: #a9a9a9; stroke-width: 0.8"/>
      </g>
     </g>
     <g id="text_2">
      <!-- 2022-01 -->
      <g style="fill: #a9a9a9" transform="translate(188.102978 334.998438) scale(0.1 -0.1)">
       <use xlink:href="#DejaVuSans-32"/>
       <use xlink:href="#DejaVuSans-30" transform="translate(63.623047 0)"/>
       <use xlink:href="#DejaVuSans-32" transform="translate(127.246094 0)"/>
       <use xlink:href="#DejaVuSans-32" transform="translate(190.869141 0)"/>
       <use xlink:href="#DejaVuSans-2d" transform="translate(254.492188 0)"/>
       <use xlink:href="#DejaVuSans-30" transform="translate(290.576172 0)"/>
       <use xlink:href="#DejaVuSans-31" transform="translate(354.199219 0)"/>
      </g>
     </g>
    </g>
    <g id="xtick_3">
     <g id="line2d_5">
      <path d="M 288.317377 320.4 
L 288.317377 43.2 
" clip-path="url(#p4801861c7c)" style="fill: none; stroke-dasharray: 5.12,1.28,0.8,1.28; stroke-dashoffset: 0; stroke: #b0b0b0; stroke-width: 0.8"/>
     </g>
     <g id="line2d_6">
      <g>
       <use xlink:href="#mdfac7cd922" x="288.317377" y="320.4" style="fill: #a9a9a9; stroke: #a9a9a9; stroke-width: 0.8"/>
      </g>
     </g>
     <g id="text_3">
      <!-- 2022-07 -->
      <g style="fill: #a9a9a9" transform="translate(267.425971 334.998438) scale(0.1 -0.1)">
       <use xlink:href="#DejaVuSans-32"/>
       <use xlink:href="#DejaVuSans-30" transform="translate(63.623047 0)"/>
       <use xlink:href="#DejaVuSans-32" transform="translate(127.246094 0)"/>
       <use xlink:href="#DejaVuSans-32" transform="translate(190.869141 0)"/>
       <use xlink:href="#DejaVuSans-2d" transform="translate(254.492188 0)"/>
       <use xlink:href="#DejaVuSans-30" transform="translate(290.576172 0)"/>
       <use xlink:href="#DejaVuSans-37" transform="translate(354.199219 0)"/>
      </g>
     </g>
    </g>
    <g id="xtick_4">
     <g id="line2d_7">
      <path d="M 368.955115 320.4 
L 368.955115 43.2 
" clip-path="url(#p4801861c7c)" style="fill: none; stroke-dasharray: 5.12,1.28,0.8,1.28; stroke-dashoffset: 0; stroke: #b0b0b0; stroke-width: 0.8"/>
     </g>
     <g id="line2d_8">
      <g>
       <use xlink:href="#mdfac7cd922" x="368.955115" y="320.4" style="fill: #a9a9a9; stroke: #a9a9a9; stroke-width: 0.8"/>
      </g>
     </g>
     <g id="text_4">
      <!-- 2023-01 -->
      <g style="fill: #a9a9a9" transform="translate(348.063709 334.998438) scale(0.1 -0.1)">
       <defs>
        <path id="DejaVuSans-33" d="M 2597 2516 
Q 3050 2419 3304 2112 
Q 3559 1806 3559 1356 
Q 3559 666 3084 287 
Q 2609 -91 1734 -91 
Q 1441 -91 1130 -33 
Q 819 25 488 141 
L 488 750 
Q 750 597 1062 519 
Q 1375 441 1716 441 
Q 2309 441 2620 675 
Q 2931 909 2931 1356 
Q 2931 1769 2642 2001 
Q 2353 2234 1838 2234 
L 1294 2234 
L 1294 2753 
L 1863 2753 
Q 2328 2753 2575 2939 
Q 2822 3125 2822 3475 
Q 2822 3834 2567 4026 
Q 2313 4219 1838 4219 
Q 1578 4219 1281 4162 
Q 984 4106 628 3988 
L 628 4550 
Q 988 4650 1302 4700 
Q 1616 4750 1894 4750 
Q 2613 4750 3031 4423 
Q 3450 4097 3450 3541 
Q 3450 3153 3228 2886 
Q 3006 2619 2597 2516 
z
" transform="scale(0.015625)"/>
       </defs>
       <use xlink:href="#DejaVuSans-32"/>
       <use xlink:href="#DejaVuSans-30" transform="translate(63.623047 0)"/>
       <use xlink:href="#DejaVuSans-32" transform="translate(127.246094 0)"/>
       <use xlink:href="#DejaVuSans-33" transform="translate(190.869141 0)"/>
       <use xlink:href="#DejaVuSans-2d" transform="translate(254.492188 0)"/>
       <use xlink:href="#DejaVuSans-30" transform="translate(290.576172 0)"/>
       <use xlink:href="#DejaVuSans-31" transform="translate(354.199219 0)"/>
      </g>
     </g>
    </g>
    <g id="xtick_5">
     <g id="line2d_9">
      <path d="M 448.278107 320.4 
L 448.278107 43.2 
" clip-path="url(#p4801861c7c)" style="fill: none; stroke-dasharray: 5.12,1.28,0.8,1.28; stroke-dashoffset: 0; stroke: #b0b0b0; stroke-width: 0.8"/>
     </g>
     <g id="line2d_10">
      <g>
       <use xlink:href="#mdfac7cd922" x="448.278107" y="320.4" style="fill: #a9a9a9; stroke: #a9a9a9; stroke-width: 0.8"/>
      </g>
     </g>
     <g id="text_5">
      <!-- 2023-07 -->
      <g style="fill: #a9a9a9" transform="translate(427.386701 334.998438) scale(0.1 -0.1)">
       <use xlink:href="#DejaVuSans-32"/>
       <use xlink:href="#DejaVuSans-30" transform="translate(63.623047 0)"/>
       <use xlink:href="#DejaVuSans-32" transform="translate(127.246094 0)"/>
       <use xlink:href="#DejaVuSans-33" transform="translate(190.869141 0)"/>
       <use xlink:href="#DejaVuSans-2d" transform="translate(254.492188 0)"/>
       <use xlink:href="#DejaVuSans-30" transform="translate(290.576172 0)"/>
       <use xlink:href="#DejaVuSans-37" transform="translate(354.199219 0)"/>
      </g>
     </g>
    </g>
    <g id="xtick_6">
     <g id="line2d_11">
      <path d="M 528.915845 320.4 
L 528.915845 43.2 
" clip-path="url(#p4801861c7c)" style="fill: none; stroke-dasharray: 5.12,1.28,0.8,1.28; stroke-dashoffset: 0; stroke: #b0b0b0; stroke-width: 0.8"/>
     </g>
     <g id="line2d_12">
      <g>
       <use xlink:href="#mdfac7cd922" x="528.915845" y="320.4" style="fill: #a9a9a9; stroke: #a9a9a9; stroke-width: 0.8"/>
      </g>
     </g>
     <g id="text_6">
      <!-- 2024-01 -->
      <g style="fill: #a9a9a9" transform="translate(508.024439 334.998438) scale(0.1 -0.1)">
       <defs>
        <path id="DejaVuSans-34" d="M 2419 4116 
L 825 1625 
L 2419 1625 
L 2419 4116 
z
M 2253 4666 
L 3047 4666 
L 3047 1625 
L 3713 1625 
L 3713 1100 
L 3047 1100 
L 3047 0 
L 2419 0 
L 2419 1100 
L 313 1100 
L 313 1709 
L 2253 4666 
z
" transform="scale(0.015625)"/>
       </defs>
       <use xlink:href="#DejaVuSans-32"/>
       <use xlink:href="#DejaVuSans-30" transform="translate(63.623047 0)"/>
       <use xlink:href="#DejaVuSans-32" transform="translate(127.246094 0)"/>
       <use xlink:href="#DejaVuSans-34" transform="translate(190.869141 0)"/>
       <use xlink:href="#DejaVuSans-2d" transform="translate(254.492188 0)"/>
       <use xlink:href="#DejaVuSans-30" transform="translate(290.576172 0)"/>
       <use xlink:href="#DejaVuSans-31" transform="translate(354.199219 0)"/>
      </g>
     </g>
    </g>
    <g id="xtick_7">
     <g id="line2d_13">
      <path d="M 608.677086 320.4 
L 608.677086 43.2 
" clip-path="url(#p4801861c7c)" style="fill: none; stroke-dasharray: 5.12,1.28,0.8,1.28; stroke-dashoffset: 0; stroke: #b0b0b0; stroke-width: 0.8"/>
     </g>
     <g id="line2d_14">
      <g>
       <use xlink:href="#mdfac7cd922" x="608.677086" y="320.4" style="fill: #a9a9a9; stroke: #a9a9a9; stroke-width: 0.8"/>
      </g>
     </g>
     <g id="text_7">
      <!-- 2024-07 -->
      <g style="fill: #a9a9a9" transform="translate(587.78568 334.998438) scale(0.1 -0.1)">
       <use xlink:href="#DejaVuSans-32"/>
       <use xlink:href="#DejaVuSans-30" transform="translate(63.623047 0)"/>
       <use xlink:href="#DejaVuSans-32" transform="translate(127.246094 0)"/>
       <use xlink:href="#DejaVuSans-34" transform="translate(190.869141 0)"/>
       <use xlink:href="#DejaVuSans-2d" transform="translate(254.492188 0)"/>
       <use xlink:href="#DejaVuSans-30" transform="translate(290.576172 0)"/>
       <use xlink:href="#DejaVuSans-37" transform="translate(354.199219 0)"/>
      </g>
     </g>
    </g>
    <g id="xtick_8">
     <g id="line2d_15">
      <path d="M 689.314824 320.4 
L 689.314824 43.2 
" clip-path="url(#p4801861c7c)" style="fill: none; stroke-dasharray: 5.12,1.28,0.8,1.28; stroke-dashoffset: 0; stroke: #b0b0b0; stroke-width: 0.8"/>
     </g>
     <g id="line2d_16">
      <g>
       <use xlink:href="#mdfac7cd922" x="689.314824" y="320.4" style="fill: #a9a9a9; stroke: #a9a9a9; stroke-width: 0.8"/>
      </g>
     </g>
     <g id="text_8">
      <!-- 2025-01 -->
      <g style="fill: #a9a9a9" transform="translate(668.423418 334.998438) scale(0.1 -0.1)">
       <defs>
        <path id="DejaVuSans-35" d="M 691 4666 
L 3169 4666 
L 3169 4134 
L 1269 4134 
L 1269 2991 
Q 1406 3038 1543 3061 
Q 1681 3084 1819 3084 
Q 2600 3084 3056 2656 
Q 3513 2228 3513 1497 
Q 3513 744 3044 326 
Q 2575 -91 1722 -91 
Q 1428 -91 1123 -41 
Q 819 9 494 109 
L 494 744 
Q 775 591 1075 516 
Q 1375 441 1709 441 
Q 2250 441 2565 725 
Q 2881 1009 2881 1497 
Q 2881 1984 2565 2268 
Q 2250 2553 1709 2553 
Q 1456 2553 1204 2497 
Q 953 2441 691 2322 
L 691 4666 
z
" transform="scale(0.015625)"/>
       </defs>
       <use xlink:href="#DejaVuSans-32"/>
       <use xlink:href="#DejaVuSans-30" transform="translate(63.623047 0)"/>
       <use xlink:href="#DejaVuSans-32" transform="translate(127.246094 0)"/>
       <use xlink:href="#DejaVuSans-35" transform="translate(190.869141 0)"/>
       <use xlink:href="#DejaVuSans-2d" transform="translate(254.492188 0)"/>
       <use xlink:href="#DejaVuSans-30" transform="translate(290.576172 0)"/>
       <use xlink:href="#DejaVuSans-31" transform="translate(354.199219 0)"/>
      </g>
     </g>
    </g>
    <g id="xtick_9">
     <g id="line2d_17">
      <path d="M 768.637817 320.4 
L 768.637817 43.2 
" clip-path="url(#p4801861c7c)" style="fill: none; stroke-dasharray: 5.12,1.28,0.8,1.28; stroke-dashoffset: 0; stroke: #b0b0b0; stroke-width: 0.8"/>
     </g>
     <g id="line2d_18">
      <g>
       <use xlink:href="#mdfac7cd922" x="768.637817" y="320.4" style="fill: #a9a9a9; stroke: #a9a9a9; stroke-width: 0.8"/>
      </g>
     </g>
     <g id="text_9">
      <!-- 2025-07 -->
      <g style="fill: #a9a9a9" transform="translate(747.74641 334.998438) scale(0.1 -0.1)">
       <use xlink:href="#DejaVuSans-32"/>
       <use xlink:href="#DejaVuSans-30" transform="translate(63.623047 0)"/>
       <use xlink:href="#DejaVuSans-32" transform="translate(127.246094 0)"/>
       <use xlink:href="#DejaVuSans-35" transform="translate(190.869141 0)"/>
       <use xlink:href="#DejaVuSans-2d" transform="translate(254.492188 0)"/>
       <use xlink:href="#DejaVuSans-30" transform="translate(290.576172 0)"/>
       <use xlink:href="#DejaVuSans-37" transform="translate(354.199219 0)"/>
      </g>
     </g>
    </g>
   </g>
   <g id="matplotlib.axis_2">
    <g id="ytick_1">
     <g id="line2d_19">
      <path d="M 108 307.833088 
L 777.6 307.833088 
" clip-path="url(#p4801861c7c)" style="fill: none; stroke-dasharray: 5.12,1.28,0.8,1.28; stroke-dashoffset: 0; stroke: #b0b0b0; stroke-width: 0.8"/>
     </g>
     <g id="line2d_20">
      <defs>
       <path id="mae034a1368" d="M 0 0 
L -3.5 0 
" style="stroke: #a9a9a9; stroke-width: 0.8"/>
      </defs>
      <g>
       <use xlink:href="#mae034a1368" x="108" y="307.833088" style="fill: #a9a9a9; stroke: #a9a9a9; stroke-width: 0.8"/>
      </g>
     </g>
     <g id="text_10">
      <!-- 0 -->
      <g style="fill: #a9a9a9" transform="translate(94.6375 311.632307) scale(0.1 -0.1)">
       <use xlink:href="#DejaVuSans-30"/>
      </g>
     </g>
    </g>
    <g id="ytick_2">
     <g id="line2d_21">
      <path d="M 108 274.744853 
L 777.6 274.744853 
" clip-path="url(#p4801861c7c)" style="fill: none; stroke-dasharray: 5.12,1.28,0.8,1.28; stroke-dashoffset: 0; stroke: #b0b0b0; stroke-width: 0.8"/>
     </g>
     <g id="line2d_22">
      <g>
       <use xlink:href="#mae034a1368" x="108" y="274.744853" style="fill: #a9a9a9; stroke: #a9a9a9; stroke-width: 0.8"/>
      </g>
     </g>
     <g id="text_11">
      <!-- 1000 -->
      <g style="fill: #a9a9a9" transform="translate(75.55 278.544072) scale(0.1 -0.1)">
       <use xlink:href="#DejaVuSans-31"/>
       <use xlink:href="#DejaVuSans-30" transform="translate(63.623047 0)"/>
       <use xlink:href="#DejaVuSans-30" transform="translate(127.246094 0)"/>
       <use xlink:href="#DejaVuSans-30" transform="translate(190.869141 0)"/>
      </g>
     </g>
    </g>
    <g id="ytick_3">
     <g id="line2d_23">
      <path d="M 108 241.656618 
L 777.6 241.656618 
" clip-path="url(#p4801861c7c)" style="fill: none; stroke-dasharray: 5.12,1.28,0.8,1.28; stroke-dashoffset: 0; stroke: #b0b0b0; stroke-width: 0.8"/>
     </g>
     <g id="line2d_24">
      <g>
       <use xlink:href="#mae034a1368" x="108" y="241.656618" style="fill: #a9a9a9; stroke: #a9a9a9; stroke-width: 0.8"/>
      </g>
     </g>
     <g id="text_12">
      <!-- 2000 -->
      <g style="fill: #a9a9a9" transform="translate(75.55 245.455836) scale(0.1 -0.1)">
       <use xlink:href="#DejaVuSans-32"/>
       <use xlink:href="#DejaVuSans-30" transform="translate(63.623047 0)"/>
       <use xlink:href="#DejaVuSans-30" transform="translate(127.246094 0)"/>
       <use xlink:href="#DejaVuSans-30" transform="translate(190.869141 0)"/>
      </g>
     </g>
    </g>
    <g id="ytick_4">
     <g id="line2d_25">
      <path d="M 108 208.568382 
L 777.6 208.568382 
" clip-path="url(#p4801861c7c)" style="fill: none; stroke-dasharray: 5.12,1.28,0.8,1.28; stroke-dashoffset: 0; stroke: #b0b0b0; stroke-width: 0.8"/>
     </g>
     <g id="line2d_26">
      <g>
       <use xlink:href="#mae034a1368" x="108" y="208.568382" style="fill: #a9a9a9; stroke: #a9a9a9; stroke-width: 0.8"/>
      </g>
     </g>
     <g id="text_13">
      <!-- 3000 -->
      <g style="fill: #a9a9a9" transform="translate(75.55 212.367601) scale(0.1 -0.1)">
       <use xlink:href="#DejaVuSans-33"/>
       <use xlink:href="#DejaVuSans-30" transform="translate(63.623047 0)"/>
       <use xlink:href="#DejaVuSans-30" transform="translate(127.246094 0)"/>
       <use xlink:href="#DejaVuSans-30" transform="translate(190.869141 0)"/>
      </g>
     </g>
    </g>
    <g id="ytick_5">
     <g id="line2d_27">
      <path d="M 108 175.480147 
L 777.6 175.480147 
" clip-path="url(#p4801861c7c)" style="fill: none; stroke-dasharray: 5.12,1.28,0.8,1.28; stroke-dashoffset: 0; stroke: #b0b0b0; stroke-width: 0.8"/>
     </g>
     <g id="line2d_28">
      <g>
       <use xlink:href="#mae034a1368" x="108" y="175.480147" style="fill: #a9a9a9; stroke: #a9a9a9; stroke-width: 0.8"/>
      </g>
     </g>
     <g id="text_14">
      <!-- 4000 -->
      <g style="fill: #a9a9a9" transform="translate(75.55 179.279366) scale(0.1 -0.1)">
       <use xlink:href="#DejaVuSans-34"/>
       <use xlink:href="#DejaVuSans-30" transform="translate(63.623047 0)"/>
       <use xlink:href="#DejaVuSans-30" transform="translate(127.246094 0)"/>
       <use xlink:href="#DejaVuSans-30" transform="translate(190.869141 0)"/>
      </g>
     </g>
    </g>
    <g id="ytick_6">
     <g id="line2d_29">
      <path d="M 108 142.391912 
L 777.6 142.391912 
" clip-path="url(#p4801861c7c)" style="fill: none; stroke-dasharray: 5.12,1.28,0.8,1.28; stroke-dashoffset: 0; stroke: #b0b0b0; stroke-width: 0.8"/>
     </g>
     <g id="line2d_30">
      <g>
       <use xlink:href="#mae034a1368" x="108" y="142.391912" style="fill: #a9a9a9; stroke: #a9a9a9; stroke-width: 0.8"/>
      </g>
     </g>
     <g id="text_15">
      <!-- 5000 -->
      <g style="fill: #a9a9a9" transform="translate(75.55 146.191131) scale(0.1 -0.1)">
       <use xlink:href="#DejaVuSans-35"/>
       <use xlink:href="#DejaVuSans-30" transform="translate(63.623047 0)"/>
       <use xlink:href="#DejaVuSans-30" transform="translate(127.246094 0)"/>
       <use xlink:href="#DejaVuSans-30" transform="translate(190.869141 0)"/>
      </g>
     </g>
    </g>
    <g id="ytick_7">
     <g id="line2d_31">
      <path d="M 108 109.303676 
L 777.6 109.303676 
" clip-path="url(#p4801861c7c)" style="fill: none; stroke-dasharray: 5.12,1.28,0.8,1.28; stroke-dashoffset: 0; stroke: #b0b0b0; stroke-width: 0.8"/>
     </g>
     <g id="line2d_32">
      <g>
       <use xlink:href="#mae034a1368" x="108" y="109.303676" style="fill: #a9a9a9; stroke: #a9a9a9; stroke-width: 0.8"/>
      </g>
     </g>
     <g id="text_16">
      <!-- 6000 -->
      <g style="fill: #a9a9a9" transform="translate(75.55 113.102895) scale(0.1 -0.1)">
       <defs>
        <path id="DejaVuSans-36" d="M 2113 2584 
Q 1688 2584 1439 2293 
Q 1191 2003 1191 1497 
Q 1191 994 1439 701 
Q 1688 409 2113 409 
Q 2538 409 2786 701 
Q 3034 994 3034 1497 
Q 3034 2003 2786 2293 
Q 2538 2584 2113 2584 
z
M 3366 4563 
L 3366 3988 
Q 3128 4100 2886 4159 
Q 2644 4219 2406 4219 
Q 1781 4219 1451 3797 
Q 1122 3375 1075 2522 
Q 1259 2794 1537 2939 
Q 1816 3084 2150 3084 
Q 2853 3084 3261 2657 
Q 3669 2231 3669 1497 
Q 3669 778 3244 343 
Q 2819 -91 2113 -91 
Q 1303 -91 875 529 
Q 447 1150 447 2328 
Q 447 3434 972 4092 
Q 1497 4750 2381 4750 
Q 2619 4750 2861 4703 
Q 3103 4656 3366 4563 
z
" transform="scale(0.015625)"/>
       </defs>
       <use xlink:href="#DejaVuSans-36"/>
       <use xlink:href="#DejaVuSans-30" transform="translate(63.623047 0)"/>
       <use xlink:href="#DejaVuSans-30" transform="translate(127.246094 0)"/>
       <use xlink:href="#DejaVuSans-30" transform="translate(190.869141 0)"/>
      </g>
     </g>
    </g>
    <g id="ytick_8">
     <g id="line2d_33">
      <path d="M 108 76.215441 
L 777.6 76.215441 
" clip-path="url(#p4801861c7c)" style="fill: none; stroke-dasharray: 5.12,1.28,0.8,1.28; stroke-dashoffset: 0; stroke: #b0b0b0; stroke-width: 0.8"/>
     </g>
     <g id="line2d_34">
      <g>
       <use xlink:href="#mae034a1368" x="108" y="76.215441" style="fill: #a9a9a9; stroke: #a9a9a9; stroke-width: 0.8"/>
      </g>
     </g>
     <g id="text_17">
      <!-- 7000 -->
      <g style="fill: #a9a9a9" transform="translate(75.55 80.01466) scale(0.1 -0.1)">
       <use xlink:href="#DejaVuSans-37"/>
       <use xlink:href="#DejaVuSans-30" transform="translate(63.623047 0)"/>
       <use xlink:href="#DejaVuSans-30" transform="translate(127.246094 0)"/>
       <use xlink:href="#DejaVuSans-30" transform="translate(190.869141 0)"/>
      </g>
     </g>
    </g>
   </g>
   <g id="line2d_35">
    <path d="M 138.436364 307.733824 
L 141.065855 307.502206 
L 141.504104 307.303676 
L 143.257098 307.072059 
L 145.010092 306.708088 
L 145.886589 306.575735 
L 148.077832 306.377206 
L 148.954329 306.013235 
L 149.392578 305.417647 
L 149.830827 305.119853 
L 150.269075 304.127206 
L 150.707324 304.061029 
L 151.145572 303.697059 
L 152.02207 303.233824 
L 153.775064 301.777941 
L 155.528058 300.884559 
L 156.842804 300.255882 
L 157.281052 299.527941 
L 158.15755 298.866176 
L 158.595798 298.667647 
L 162.978284 298.005882 
L 163.416532 297.807353 
L 166.484273 297.542647 
L 168.237267 297.1125 
L 171.743255 296.616176 
L 172.181504 296.384559 
L 172.619753 296.318382 
L 173.49625 296.020588 
L 176.56399 295.491176 
L 177.440487 295.226471 
L 181.384724 294.531618 
L 182.261221 294.333088 
L 183.137718 294.3 
L 184.890713 293.869853 
L 185.328961 293.241176 
L 186.643707 292.711765 
L 187.958453 292.347794 
L 188.396701 292.116176 
L 189.273199 291.950735 
L 191.026193 291.421324 
L 191.90269 291.355147 
L 192.779187 291.123529 
L 194.532181 290.660294 
L 194.97043 290.627206 
L 195.846927 290.197059 
L 196.285176 290.130882 
L 196.723424 289.899265 
L 201.544159 289.072059 
L 203.297153 288.542647 
L 203.735402 288.244853 
L 205.926644 287.516912 
L 206.803142 286.888235 
L 208.117887 286.623529 
L 217.759356 283.744853 
L 218.197605 283.711765 
L 219.51235 283.314706 
L 219.950599 283.314706 
L 220.388847 283.116176 
L 221.265345 283.016912 
L 221.703593 282.851471 
L 223.456587 282.785294 
L 224.333085 282.619853 
L 225.209582 282.156618 
L 226.524328 281.660294 
L 227.400825 281.197059 
L 228.277322 280.733824 
L 229.153819 280.436029 
L 229.592068 280.303676 
L 230.468565 279.741176 
L 230.906813 279.244853 
L 231.78331 277.855147 
L 232.221559 277.722794 
L 232.659808 277.722794 
L 233.974553 276.928676 
L 234.412802 276.697059 
L 234.85105 276.597794 
L 235.289299 276.167647 
L 236.165796 275.803676 
L 237.042293 275.373529 
L 239.233536 272.494853 
L 241.863028 271.038971 
L 242.739525 270.311029 
L 243.177773 270.046324 
L 243.616022 269.417647 
L 244.054271 268.391912 
L 244.492519 267.697059 
L 244.930768 267.333088 
L 245.369016 267.134559 
L 248.875005 263.825735 
L 249.751502 262.998529 
L 252.380994 261.311029 
L 252.819242 261.145588 
L 254.572236 260.086765 
L 255.010485 259.888235 
L 257.201728 257.836765 
L 258.078225 257.472794 
L 258.954722 256.844118 
L 259.392971 256.579412 
L 259.831219 256.513235 
L 261.145965 255.752206 
L 261.584214 255.255882 
L 263.775457 254.031618 
L 264.213705 253.866176 
L 265.528451 252.939706 
L 272.102179 250.557353 
L 272.978677 249.730147 
L 274.293422 249.068382 
L 275.169919 248.505882 
L 276.046417 248.241176 
L 276.484665 247.943382 
L 276.922914 247.811029 
L 278.23766 246.917647 
L 280.428902 246.421324 
L 281.743648 245.627206 
L 283.058394 245.329412 
L 283.496642 245.230147 
L 284.811388 244.204412 
L 286.564382 243.708088 
L 287.002631 243.344118 
L 289.632123 242.417647 
L 290.50862 242.252206 
L 291.385117 241.888235 
L 294.452857 240.730147 
L 295.329354 240.597794 
L 296.6441 240.134559 
L 298.835343 239.042647 
L 300.588337 238.05 
L 304.094326 236.561029 
L 304.532574 236.494853 
L 305.409071 235.932353 
L 306.285568 235.700735 
L 307.600314 235.171324 
L 309.353308 234.939706 
L 310.229806 234.476471 
L 310.668054 234.079412 
L 311.106303 233.285294 
L 312.859297 232.788971 
L 314.174043 232.094118 
L 315.05054 231.796324 
L 315.927037 231.333088 
L 318.556529 230.241176 
L 319.433026 230.042647 
L 320.309523 229.579412 
L 320.747771 229.380882 
L 321.18602 229.314706 
L 323.377263 228.222794 
L 324.25376 227.660294 
L 325.568506 227.395588 
L 327.759749 226.833088 
L 328.197997 226.469118 
L 329.074494 226.171324 
L 331.265737 225.277941 
L 331.703986 224.947059 
L 332.142234 224.781618 
L 333.018732 224.285294 
L 334.771726 223.722794 
L 335.648223 223.160294 
L 336.086472 222.697059 
L 336.52472 222.432353 
L 336.962969 222.333088 
L 337.839466 221.605147 
L 338.277715 221.538971 
L 338.715963 220.811029 
L 339.154212 220.6125 
L 339.59246 220.248529 
L 340.030709 220.182353 
L 340.907206 219.619853 
L 341.783703 219.322059 
L 342.221952 218.991176 
L 342.6602 218.825735 
L 344.413195 217.634559 
L 345.72794 216.939706 
L 346.604437 216.708088 
L 347.480935 216.211765 
L 347.919183 215.450735 
L 348.79568 214.788971 
L 349.233929 214.689706 
L 351.86342 213.399265 
L 352.739918 213.035294 
L 353.616415 212.406618 
L 354.492912 211.513235 
L 358.437149 208.402941 
L 358.875398 208.038971 
L 359.751895 207.741176 
L 360.628392 207.145588 
L 361.943138 206.450735 
L 362.381386 206.384559 
L 363.696132 205.656618 
L 364.572629 205.094118 
L 368.955115 203.439706 
L 369.393363 203.075735 
L 371.146358 202.380882 
L 371.584606 202.248529 
L 372.461103 201.652941 
L 373.337601 201.288971 
L 374.214098 200.660294 
L 375.090595 198.873529 
L 375.967092 197.814706 
L 377.281838 197.119853 
L 378.158335 196.755882 
L 378.596584 196.689706 
L 379.034832 196.425 
L 381.226075 195.697059 
L 381.664324 195.498529 
L 382.540821 194.902941 
L 383.855566 194.340441 
L 384.732064 193.844118 
L 385.608561 193.314706 
L 386.046809 193.016912 
L 386.485058 192.520588 
L 387.799804 191.759559 
L 388.238052 191.594118 
L 389.114549 191.064706 
L 390.867544 190.105147 
L 391.305792 190.005882 
L 391.744041 189.641912 
L 394.811781 188.616176 
L 395.250029 188.285294 
L 396.126527 188.020588 
L 397.003024 187.656618 
L 397.441272 187.292647 
L 399.194267 186.663971 
L 400.070764 186.035294 
L 400.947261 185.671324 
L 401.823758 184.976471 
L 402.700255 184.711765 
L 403.138504 184.314706 
L 403.576752 184.248529 
L 404.45325 183.553676 
L 405.329747 183.090441 
L 405.767995 182.891912 
L 406.206244 182.428676 
L 409.273984 181.171324 
L 410.150481 180.774265 
L 411.465227 180.344118 
L 412.341724 180.211765 
L 412.779973 180.013235 
L 413.218221 179.947059 
L 414.094718 179.55 
L 414.532967 179.516912 
L 416.285961 178.855147 
L 417.600707 177.895588 
L 418.038955 177.730147 
L 418.915453 177.233824 
L 419.353701 177.101471 
L 421.983193 175.6125 
L 422.421441 175.513235 
L 423.736187 174.719118 
L 425.050933 174.255882 
L 425.92743 173.958088 
L 427.680424 173.3625 
L 428.556921 173.064706 
L 430.309916 172.700735 
L 430.748164 172.502206 
L 431.624661 172.270588 
L 432.06291 172.072059 
L 432.501158 172.005882 
L 432.939407 171.774265 
L 433.815904 171.608824 
L 435.13065 171.1125 
L 436.007147 171.013235 
L 437.321893 170.715441 
L 439.513136 170.318382 
L 450.907599 166.877206 
L 451.345847 166.413971 
L 453.975339 165.322059 
L 455.728333 164.726471 
L 456.166582 164.461765 
L 457.481327 164.064706 
L 458.357824 163.833088 
L 458.796073 163.535294 
L 459.234322 163.436029 
L 459.67257 163.038971 
L 460.987316 162.774265 
L 461.863813 162.344118 
L 462.302062 161.814706 
L 464.055056 161.384559 
L 467.122796 160.722794 
L 467.561045 160.722794 
L 467.999293 160.524265 
L 469.752287 160.193382 
L 470.190536 159.994853 
L 471.94353 159.663971 
L 472.820027 159.3 
L 473.696525 159.134559 
L 475.887768 158.572059 
L 477.640762 158.009559 
L 478.07901 157.910294 
L 478.517259 157.678676 
L 479.393756 157.447059 
L 480.270253 157.083088 
L 481.14675 156.752206 
L 481.584999 156.454412 
L 482.461496 156.189706 
L 485.529236 155.031618 
L 487.282231 154.8 
L 490.788219 153.509559 
L 491.226468 153.178676 
L 491.664716 153.079412 
L 492.102965 152.847794 
L 492.541213 152.814706 
L 497.361948 151.061029 
L 499.553191 150.465441 
L 500.429688 150.035294 
L 501.744434 149.7375 
L 503.497428 148.281618 
L 505.250422 147.520588 
L 506.126919 147.123529 
L 508.756411 146.097794 
L 509.194659 145.8 
L 511.385902 145.072059 
L 512.700648 144.311029 
L 513.138897 144.211765 
L 514.891891 143.219118 
L 516.644885 142.425 
L 517.083134 142.094118 
L 517.959631 141.796324 
L 520.150874 140.671324 
L 521.465619 140.208088 
L 523.218614 139.480147 
L 524.53336 138.983824 
L 524.971608 138.818382 
L 525.848105 138.686029 
L 526.286354 138.388235 
L 528.039348 138.024265 
L 528.915845 137.660294 
L 530.66884 136.833088 
L 536.80432 134.119853 
L 538.119065 133.689706 
L 538.557314 133.391912 
L 539.433811 133.292647 
L 539.87206 132.994853 
L 540.748557 132.829412 
L 541.625054 132.399265 
L 542.063303 132.200735 
L 542.9398 131.969118 
L 543.816297 131.704412 
L 545.131043 131.208088 
L 546.445788 130.777941 
L 547.760534 130.480147 
L 549.513528 129.752206 
L 550.390026 129.255882 
L 552.14302 128.3625 
L 553.019517 128.163971 
L 553.457766 127.899265 
L 553.896014 127.8 
L 555.21076 127.038971 
L 556.087257 126.675 
L 565.728726 122.936029 
L 567.48172 122.108824 
L 571.864206 120.388235 
L 572.740703 119.958088 
L 573.178952 119.858824 
L 573.6172 119.627206 
L 575.370194 119.130882 
L 577.123189 117.675 
L 577.561437 117.542647 
L 577.999686 117.277941 
L 579.314432 116.913971 
L 579.75268 116.583088 
L 580.190929 116.483824 
L 581.067426 115.921324 
L 582.382172 115.226471 
L 583.258669 114.8625 
L 583.696917 114.630882 
L 585.011663 114.333088 
L 587.202906 113.572059 
L 588.079403 113.274265 
L 589.394149 112.6125 
L 590.270646 112.182353 
L 591.147143 111.950735 
L 592.461889 111.322059 
L 596.406126 109.833088 
L 597.720872 109.005882 
L 598.15912 108.906618 
L 599.035618 108.476471 
L 599.912115 108.145588 
L 600.350363 107.748529 
L 601.22686 107.384559 
L 602.541606 106.921324 
L 602.979855 106.557353 
L 603.418103 106.524265 
L 604.2946 106.259559 
L 605.171098 105.961765 
L 605.609346 105.763235 
L 606.047595 105.697059 
L 607.36234 105.200735 
L 608.677086 104.704412 
L 610.430081 103.910294 
L 611.306578 103.678676 
L 611.744826 103.413971 
L 612.621323 103.182353 
L 613.936069 102.421324 
L 614.374318 102.388235 
L 615.689063 101.958088 
L 616.565561 101.891912 
L 617.003809 101.660294 
L 617.880306 101.428676 
L 618.318555 101.197059 
L 620.509798 100.766912 
L 621.386295 100.601471 
L 622.701041 100.105147 
L 624.015786 99.807353 
L 625.330532 99.1125 
L 625.768781 98.715441 
L 627.083526 97.921324 
L 627.521775 97.590441 
L 628.836521 97.160294 
L 629.713018 96.895588 
L 630.151266 96.663971 
L 630.589515 96.564706 
L 631.027764 96.200735 
L 633.657255 95.075735 
L 635.410249 94.6125 
L 636.286747 94.215441 
L 636.724995 93.983824 
L 637.601492 93.719118 
L 638.039741 93.454412 
L 638.916238 93.288971 
L 642.422227 91.766912 
L 642.860475 91.700735 
L 644.175221 90.840441 
L 644.613469 90.774265 
L 646.366464 90.079412 
L 648.119458 89.649265 
L 648.557707 89.583088 
L 648.995955 89.384559 
L 649.434204 89.351471 
L 650.310701 89.053676 
L 650.74895 89.020588 
L 652.063695 88.491176 
L 653.81669 87.994853 
L 654.693187 87.333088 
L 656.446181 86.340441 
L 657.760927 85.877206 
L 661.266915 84.189706 
L 661.705164 83.958088 
L 662.143413 83.561029 
L 664.334655 82.965441 
L 665.649401 82.369853 
L 666.525898 82.138235 
L 666.964147 81.906618 
L 667.402395 81.542647 
L 669.15539 81.079412 
L 669.593638 80.748529 
L 675.29087 78.663971 
L 676.167367 78.498529 
L 678.35861 77.803676 
L 679.235107 77.439706 
L 680.111604 77.108824 
L 680.988101 76.877206 
L 681.42635 76.678676 
L 681.864598 76.678676 
L 682.741096 76.314706 
L 683.617593 75.785294 
L 686.685333 74.759559 
L 688.438327 74.163971 
L 689.753073 73.866176 
L 691.067819 73.436029 
L 691.506067 73.336765 
L 691.944316 73.038971 
L 692.820813 72.840441 
L 694.573807 72.344118 
L 695.012056 72.311029 
L 695.888553 71.913971 
L 698.956293 71.152941 
L 699.83279 70.788971 
L 704.215276 69.796324 
L 705.530022 69.101471 
L 706.844767 68.704412 
L 711.227253 67.083088 
L 711.665502 66.752206 
L 712.980247 66.454412 
L 713.856745 66.189706 
L 714.733242 65.759559 
L 715.17149 65.395588 
L 716.047987 65.130882 
L 716.486236 64.866176 
L 717.362733 64.766912 
L 720.430473 63.906618 
L 721.745219 63.641912 
L 724.37471 62.781618 
L 726.127705 61.954412 
L 730.948439 60.167647 
L 731.824936 60.035294 
L 732.701433 59.869853 
L 733.139682 59.869853 
L 734.892676 59.307353 
L 735.330925 59.241176 
L 736.207422 58.877206 
L 737.522168 58.480147 
L 738.836913 58.05 
L 741.028156 57.553676 
L 741.466405 57.288971 
L 742.342902 57.123529 
L 743.219399 57.024265 
L 743.657648 56.792647 
L 744.095896 56.759559 
L 744.972393 56.197059 
L 747.163636 55.8 
L 747.163636 55.8 
" clip-path="url(#p4801861c7c)" style="fill: none; stroke: #1f77b4; stroke-width: 1.5; stroke-linecap: square"/>
   </g>
   <g id="line2d_36">
    <path d="M 138.874612 307.8 
L 142.818849 307.700735 
L 146.324838 307.535294 
L 148.077832 307.535294 
L 148.516081 307.402941 
L 150.707324 307.303676 
L 153.336815 307.005882 
L 155.966307 306.906618 
L 156.842804 306.807353 
L 159.910544 306.675 
L 162.978284 306.575735 
L 165.169527 306.509559 
L 170.866758 306.410294 
L 173.058001 306.344118 
L 177.002238 306.244853 
L 178.755233 306.211765 
L 183.137718 306.1125 
L 184.890713 305.947059 
L 186.643707 305.913971 
L 189.273199 305.814706 
L 191.026193 305.781618 
L 193.217436 305.715441 
L 194.97043 305.55 
L 198.914667 305.450735 
L 199.791164 305.384559 
L 201.544159 305.285294 
L 204.17365 305.186029 
L 205.926644 305.086765 
L 213.815119 304.590441 
L 216.882859 304.491176 
L 218.197605 304.358824 
L 220.388847 304.259559 
L 224.771333 304.027941 
L 229.153819 303.961765 
L 230.906813 303.763235 
L 232.659808 303.663971 
L 237.480542 303.200735 
L 240.548282 302.836765 
L 241.863028 302.770588 
L 245.369016 302.307353 
L 247.998508 302.241176 
L 249.313253 302.108824 
L 250.627999 302.009559 
L 262.898959 301.05 
L 263.775457 300.884559 
L 266.404948 300.785294 
L 273.416925 300.355147 
L 276.484665 300.255882 
L 278.23766 300.057353 
L 280.428902 299.958088 
L 283.058394 299.858824 
L 285.249637 299.759559 
L 287.002631 299.726471 
L 289.193874 299.660294 
L 290.070371 299.527941 
L 296.205851 299.428676 
L 297.082348 299.329412 
L 302.341331 299.230147 
L 306.285568 299.031618 
L 309.353308 298.932353 
L 311.106303 298.733824 
L 314.174043 298.634559 
L 315.05054 298.469118 
L 317.241783 298.402941 
L 321.624269 298.336765 
L 323.377263 298.171324 
L 325.130257 298.138235 
L 326.445003 298.038971 
L 328.197997 297.873529 
L 332.580483 297.641912 
L 336.962969 297.542647 
L 340.907206 297.344118 
L 342.221952 297.311029 
L 343.098449 297.178676 
L 345.289692 297.079412 
L 346.166189 297.013235 
L 347.042686 296.947059 
L 347.919183 296.880882 
L 351.86342 296.814706 
L 353.178166 296.715441 
L 365.010878 295.921324 
L 367.202121 295.822059 
L 369.393363 295.755882 
L 375.528844 295.656618 
L 376.405341 295.524265 
L 382.540821 295.425 
L 386.923306 295.193382 
L 387.799804 295.160294 
L 388.676301 295.061029 
L 390.867544 294.961765 
L 393.058787 294.895588 
L 395.250029 294.796324 
L 397.441272 294.730147 
L 401.38551 294.630882 
L 404.015001 294.531618 
L 410.150481 294.432353 
L 414.971215 294.167647 
L 416.72421 294.101471 
L 418.038955 294.002206 
L 424.174435 293.902941 
L 426.803927 293.803676 
L 434.692401 293.704412 
L 436.445396 293.671324 
L 441.704379 293.605147 
L 442.580876 293.538971 
L 448.716356 293.439706 
L 450.46935 293.406618 
L 461.863813 293.307353 
L 464.493305 293.208088 
L 482.899745 293.108824 
L 485.090988 293.042647 
L 496.485451 292.976471 
L 497.361948 292.910294 
L 499.553191 292.844118 
L 500.867936 292.711765 
L 503.497428 292.6125 
L 506.565168 292.480147 
L 510.509405 292.380882 
L 512.700648 292.314706 
L 515.768388 292.215441 
L 519.274377 292.05 
L 521.465619 291.950735 
L 523.218614 291.917647 
L 527.162851 291.818382 
L 528.915845 291.785294 
L 534.613077 291.686029 
L 536.366071 291.652941 
L 538.557314 291.553676 
L 541.186805 291.454412 
L 544.254545 291.388235 
L 545.131043 291.322059 
L 555.649008 291.222794 
L 561.34624 290.891912 
L 563.537483 290.825735 
L 564.41398 290.726471 
L 565.290477 290.660294 
L 568.796466 290.561029 
L 571.425957 290.461765 
L 575.808443 290.3625 
L 577.999686 290.130882 
L 582.382172 290.031618 
L 583.258669 289.932353 
L 587.641155 289.833088 
L 589.832397 289.766912 
L 594.653132 289.733824 
L 595.529629 289.634559 
L 600.350363 289.535294 
L 601.22686 289.469118 
L 610.868329 289.369853 
L 613.497821 289.270588 
L 620.071549 289.171324 
L 621.824543 289.138235 
L 625.768781 289.072059 
L 626.645278 288.972794 
L 632.342509 288.873529 
L 634.533752 288.807353 
L 642.422227 288.708088 
L 643.736972 288.608824 
L 645.051718 288.509559 
L 646.366464 288.410294 
L 652.940192 288.311029 
L 655.569684 288.211765 
L 667.402395 288.1125 
L 671.346633 287.913971 
L 676.605616 287.814706 
L 677.482113 287.748529 
L 684.055841 287.682353 
L 684.932339 287.616176 
L 689.753073 287.516912 
L 691.506067 287.483824 
L 697.641547 287.384559 
L 700.271039 287.285294 
L 707.721264 287.186029 
L 709.474259 287.152941 
L 713.418496 287.053676 
L 716.924485 286.888235 
L 721.745219 286.788971 
L 724.812959 286.656618 
L 728.757196 286.557353 
L 729.633693 286.491176 
L 738.398665 286.391912 
L 740.589908 286.325735 
L 743.219399 286.226471 
L 745.848891 286.127206 
L 747.163636 286.094118 
L 747.163636 286.094118 
" clip-path="url(#p4801861c7c)" style="fill: none; stroke: #ff7f0e; stroke-width: 1.5; stroke-linecap: square"/>
   </g>
   <g id="patch_3">
    <path d="M 108 320.4 
L 108 43.2 
" style="fill: none; stroke: #a9a9a9; stroke-width: 0.8; stroke-linejoin: miter; stroke-linecap: square"/>
   </g>
   <g id="patch_4">
    <path d="M 777.6 320.4 
L 777.6 43.2 
" style="fill: none"/>
   </g>
   <g id="patch_5">
    <path d="M 108 320.4 
L 777.6 320.4 
" style="fill: none; stroke: #a9a9a9; stroke-width: 0.8; stroke-linejoin: miter; stroke-linecap: square"/>
   </g>
   <g id="patch_6">
    <path d="M 108 43.2 
L 777.6 43.2 
" style="fill: none"/>
   </g>
   <g id="text_18">
    <!-- get_subscribe history -->
    <g style="fill: #a9a9a9" transform="translate(378.6075 37.2) scale(0.12 -0.12)">
     <defs>
      <path id="DejaVuSans-67" d="M 2906 1791 
Q 2906 2416 2648 2759 
Q 2391 3103 1925 3103 
Q 1463 3103 1205 2759 
Q 947 2416 947 1791 
Q 947 1169 1205 825 
Q 1463 481 1925 481 
Q 2391 481 2648 825 
Q 2906 1169 2906 1791 
z
M 3481 434 
Q 3481 -459 3084 -895 
Q 2688 -1331 1869 -1331 
Q 1566 -1331 1297 -1286 
Q 1028 -1241 775 -1147 
L 775 -588 
Q 1028 -725 1275 -790 
Q 1522 -856 1778 -856 
Q 2344 -856 2625 -561 
Q 2906 -266 2906 331 
L 2906 616 
Q 2728 306 2450 153 
Q 2172 0 1784 0 
Q 1141 0 747 490 
Q 353 981 353 1791 
Q 353 2603 747 3093 
Q 1141 3584 1784 3584 
Q 2172 3584 2450 3431 
Q 2728 3278 2906 2969 
L 2906 3500 
L 3481 3500 
L 3481 434 
z
" transform="scale(0.015625)"/>
      <path id="DejaVuSans-65" d="M 3597 1894 
L 3597 1613 
L 953 1613 
Q 991 1019 1311 708 
Q 1631 397 2203 397 
Q 2534 397 2845 478 
Q 3156 559 3463 722 
L 3463 178 
Q 3153 47 2828 -22 
Q 2503 -91 2169 -91 
Q 1331 -91 842 396 
Q 353 884 353 1716 
Q 353 2575 817 3079 
Q 1281 3584 2069 3584 
Q 2775 3584 3186 3129 
Q 3597 2675 3597 1894 
z
M 3022 2063 
Q 3016 2534 2758 2815 
Q 2500 3097 2075 3097 
Q 1594 3097 1305 2825 
Q 1016 2553 972 2059 
L 3022 2063 
z
" transform="scale(0.015625)"/>
      <path id="DejaVuSans-74" d="M 1172 4494 
L 1172 3500 
L 2356 3500 
L 2356 3053 
L 1172 3053 
L 1172 1153 
Q 1172 725 1289 603 
Q 1406 481 1766 481 
L 2356 481 
L 2356 0 
L 1766 0 
Q 1100 0 847 248 
Q 594 497 594 1153 
L 594 3053 
L 172 3053 
L 172 3500 
L 594 3500 
L 594 4494 
L 1172 4494 
z
" transform="scale(0.015625)"/>
      <path id="DejaVuSans-5f" d="M 3263 -1063 
L 3263 -1509 
L -63 -1509 
L -63 -1063 
L 3263 -1063 
z
" transform="scale(0.015625)"/>
      <path id="DejaVuSans-73" d="M 2834 3397 
L 2834 2853 
Q 2591 2978 2328 3040 
Q 2066 3103 1784 3103 
Q 1356 3103 1142 2972 
Q 928 2841 928 2578 
Q 928 2378 1081 2264 
Q 1234 2150 1697 2047 
L 1894 2003 
Q 2506 1872 2764 1633 
Q 3022 1394 3022 966 
Q 3022 478 2636 193 
Q 2250 -91 1575 -91 
Q 1294 -91 989 -36 
Q 684 19 347 128 
L 347 722 
Q 666 556 975 473 
Q 1284 391 1588 391 
Q 1994 391 2212 530 
Q 2431 669 2431 922 
Q 2431 1156 2273 1281 
Q 2116 1406 1581 1522 
L 1381 1569 
Q 847 1681 609 1914 
Q 372 2147 372 2553 
Q 372 3047 722 3315 
Q 1072 3584 1716 3584 
Q 2034 3584 2315 3537 
Q 2597 3491 2834 3397 
z
" transform="scale(0.015625)"/>
      <path id="DejaVuSans-75" d="M 544 1381 
L 544 3500 
L 1119 3500 
L 1119 1403 
Q 1119 906 1312 657 
Q 1506 409 1894 409 
Q 2359 409 2629 706 
Q 2900 1003 2900 1516 
L 2900 3500 
L 3475 3500 
L 3475 0 
L 2900 0 
L 2900 538 
Q 2691 219 2414 64 
Q 2138 -91 1772 -91 
Q 1169 -91 856 284 
Q 544 659 544 1381 
z
M 1991 3584 
L 1991 3584 
z
" transform="scale(0.015625)"/>
      <path id="DejaVuSans-62" d="M 3116 1747 
Q 3116 2381 2855 2742 
Q 2594 3103 2138 3103 
Q 1681 3103 1420 2742 
Q 1159 2381 1159 1747 
Q 1159 1113 1420 752 
Q 1681 391 2138 391 
Q 2594 391 2855 752 
Q 3116 1113 3116 1747 
z
M 1159 2969 
Q 1341 3281 1617 3432 
Q 1894 3584 2278 3584 
Q 2916 3584 3314 3078 
Q 3713 2572 3713 1747 
Q 3713 922 3314 415 
Q 2916 -91 2278 -91 
Q 1894 -91 1617 61 
Q 1341 213 1159 525 
L 1159 0 
L 581 0 
L 581 4863 
L 1159 4863 
L 1159 2969 
z
" transform="scale(0.015625)"/>
      <path id="DejaVuSans-63" d="M 3122 3366 
L 3122 2828 
Q 2878 2963 2633 3030 
Q 2388 3097 2138 3097 
Q 1578 3097 1268 2742 
Q 959 2388 959 1747 
Q 959 1106 1268 751 
Q 1578 397 2138 397 
Q 2388 397 2633 464 
Q 2878 531 3122 666 
L 3122 134 
Q 2881 22 2623 -34 
Q 2366 -91 2075 -91 
Q 1284 -91 818 406 
Q 353 903 353 1747 
Q 353 2603 823 3093 
Q 1294 3584 2113 3584 
Q 2378 3584 2631 3529 
Q 2884 3475 3122 3366 
z
" transform="scale(0.015625)"/>
      <path id="DejaVuSans-72" d="M 2631 2963 
Q 2534 3019 2420 3045 
Q 2306 3072 2169 3072 
Q 1681 3072 1420 2755 
Q 1159 2438 1159 1844 
L 1159 0 
L 581 0 
L 581 3500 
L 1159 3500 
L 1159 2956 
Q 1341 3275 1631 3429 
Q 1922 3584 2338 3584 
Q 2397 3584 2469 3576 
Q 2541 3569 2628 3553 
L 2631 2963 
z
" transform="scale(0.015625)"/>
      <path id="DejaVuSans-69" d="M 603 3500 
L 1178 3500 
L 1178 0 
L 603 0 
L 603 3500 
z
M 603 4863 
L 1178 4863 
L 1178 4134 
L 603 4134 
L 603 4863 
z
" transform="scale(0.015625)"/>
      <path id="DejaVuSans-20" transform="scale(0.015625)"/>
      <path id="DejaVuSans-68" d="M 3513 2113 
L 3513 0 
L 2938 0 
L 2938 2094 
Q 2938 2591 2744 2837 
Q 2550 3084 2163 3084 
Q 1697 3084 1428 2787 
Q 1159 2491 1159 1978 
L 1159 0 
L 581 0 
L 581 4863 
L 1159 4863 
L 1159 2956 
Q 1366 3272 1645 3428 
Q 1925 3584 2291 3584 
Q 2894 3584 3203 3211 
Q 3513 2838 3513 2113 
z
" transform="scale(0.015625)"/>
      <path id="DejaVuSans-6f" d="M 1959 3097 
Q 1497 3097 1228 2736 
Q 959 2375 959 1747 
Q 959 1119 1226 758 
Q 1494 397 1959 397 
Q 2419 397 2687 759 
Q 2956 1122 2956 1747 
Q 2956 2369 2687 2733 
Q 2419 3097 1959 3097 
z
M 1959 3584 
Q 2709 3584 3137 3096 
Q 3566 2609 3566 1747 
Q 3566 888 3137 398 
Q 2709 -91 1959 -91 
Q 1206 -91 779 398 
Q 353 888 353 1747 
Q 353 2609 779 3096 
Q 1206 3584 1959 3584 
z
" transform="scale(0.015625)"/>
      <path id="DejaVuSans-79" d="M 2059 -325 
Q 1816 -950 1584 -1140 
Q 1353 -1331 966 -1331 
L 506 -1331 
L 506 -850 
L 844 -850 
Q 1081 -850 1212 -737 
Q 1344 -625 1503 -206 
L 1606 56 
L 191 3500 
L 800 3500 
L 1894 763 
L 2988 3500 
L 3597 3500 
L 2059 -325 
z
" transform="scale(0.015625)"/>
     </defs>
     <use xlink:href="#DejaVuSans-67"/>
     <use xlink:href="#DejaVuSans-65" transform="translate(63.476562 0)"/>
     <use xlink:href="#DejaVuSans-74" transform="translate(125 0)"/>
     <use xlink:href="#DejaVuSans-5f" transform="translate(164.208984 0)"/>
     <use xlink:href="#DejaVuSans-73" transform="translate(214.208984 0)"/>
     <use xlink:href="#DejaVuSans-75" transform="translate(266.308594 0)"/>
     <use xlink:href="#DejaVuSans-62" transform="translate(329.6875 0)"/>
     <use xlink:href="#DejaVuSans-73" transform="translate(393.164062 0)"/>
     <use xlink:href="#DejaVuSans-63" transform="translate(445.263672 0)"/>
     <use xlink:href="#DejaVuSans-72" transform="translate(500.244141 0)"/>
     <use xlink:href="#DejaVuSans-69" transform="translate(541.357422 0)"/>
     <use xlink:href="#DejaVuSans-62" transform="translate(569.140625 0)"/>
     <use xlink:href="#DejaVuSans-65" transform="translate(632.617188 0)"/>
     <use xlink:href="#DejaVuSans-20" transform="translate(694.140625 0)"/>
     <use xlink:href="#DejaVuSans-68" transform="translate(725.927734 0)"/>
     <use xlink:href="#DejaVuSans-69" transform="translate(789.306641 0)"/>
     <use xlink:href="#DejaVuSans-73" transform="translate(817.089844 0)"/>
     <use xlink:href="#DejaVuSans-74" transform="translate(869.189453 0)"/>
     <use xlink:href="#DejaVuSans-6f" transform="translate(908.398438 0)"/>
     <use xlink:href="#DejaVuSans-72" transform="translate(969.580078 0)"/>
     <use xlink:href="#DejaVuSans-79" transform="translate(1010.693359 0)"/>
    </g>
   </g>
   <g id="legend_1">
    <g id="line2d_37">
     <path d="M 815.08 328.498438 
L 825.08 328.498438 
L 835.08 328.498438 
" style="fill: none; stroke: #1f77b4; stroke-width: 1.5; stroke-linecap: square"/>
    </g>
    <g id="text_19">
     <!-- star -->
     <g style="fill: #a9a9a9" transform="translate(843.08 331.998438) scale(0.1 -0.1)">
      <defs>
       <path id="DejaVuSans-61" d="M 2194 1759 
Q 1497 1759 1228 1600 
Q 959 1441 959 1056 
Q 959 750 1161 570 
Q 1363 391 1709 391 
Q 2188 391 2477 730 
Q 2766 1069 2766 1631 
L 2766 1759 
L 2194 1759 
z
M 3341 1997 
L 3341 0 
L 2766 0 
L 2766 531 
Q 2569 213 2275 61 
Q 1981 -91 1556 -91 
Q 1019 -91 701 211 
Q 384 513 384 1019 
Q 384 1609 779 1909 
Q 1175 2209 1959 2209 
L 2766 2209 
L 2766 2266 
Q 2766 2663 2505 2880 
Q 2244 3097 1772 3097 
Q 1472 3097 1187 3025 
Q 903 2953 641 2809 
L 641 3341 
Q 956 3463 1253 3523 
Q 1550 3584 1831 3584 
Q 2591 3584 2966 3190 
Q 3341 2797 3341 1997 
z
" transform="scale(0.015625)"/>
      </defs>
      <use xlink:href="#DejaVuSans-73"/>
      <use xlink:href="#DejaVuSans-74" transform="translate(52.099609 0)"/>
      <use xlink:href="#DejaVuSans-61" transform="translate(91.308594 0)"/>
      <use xlink:href="#DejaVuSans-72" transform="translate(152.587891 0)"/>
     </g>
    </g>
    <g id="line2d_38">
     <path d="M 815.08 343.176562 
L 825.08 343.176562 
L 835.08 343.176562 
" style="fill: none; stroke: #ff7f0e; stroke-width: 1.5; stroke-linecap: square"/>
    </g>
    <g id="text_20">
     <!-- fork -->
     <g style="fill: #a9a9a9" transform="translate(843.08 346.676562) scale(0.1 -0.1)">
      <defs>
       <path id="DejaVuSans-66" d="M 2375 4863 
L 2375 4384 
L 1825 4384 
Q 1516 4384 1395 4259 
Q 1275 4134 1275 3809 
L 1275 3500 
L 2222 3500 
L 2222 3053 
L 1275 3053 
L 1275 0 
L 697 0 
L 697 3053 
L 147 3053 
L 147 3500 
L 697 3500 
L 697 3744 
Q 697 4328 969 4595 
Q 1241 4863 1831 4863 
L 2375 4863 
z
" transform="scale(0.015625)"/>
       <path id="DejaVuSans-6b" d="M 581 4863 
L 1159 4863 
L 1159 1991 
L 2875 3500 
L 3609 3500 
L 1753 1863 
L 3688 0 
L 2938 0 
L 1159 1709 
L 1159 0 
L 581 0 
L 581 4863 
z
" transform="scale(0.015625)"/>
      </defs>
      <use xlink:href="#DejaVuSans-66"/>
      <use xlink:href="#DejaVuSans-6f" transform="translate(35.205078 0)"/>
      <use xlink:href="#DejaVuSans-72" transform="translate(96.386719 0)"/>
      <use xlink:href="#DejaVuSans-6b" transform="translate(137.5 0)"/>
     </g>
    </g>
   </g>
  </g>
 </g>
 <defs>
  <clipPath id="p4801861c7c">
   <rect x="108" y="43.2" width="669.6" height="277.2"/>
  </clipPath>
 </defs>
</svg>
