<?xml version="1.0" encoding="utf-8" standalone="no"?>
<!DOCTYPE svg PUBLIC "-//W3C//DTD SVG 1.1//EN"
  "http://www.w3.org/Graphics/SVG/1.1/DTD/svg11.dtd">
<svg xmlns:xlink="http://www.w3.org/1999/xlink" width="864pt" height="360pt" viewBox="0 0 864 360" xmlns="http://www.w3.org/2000/svg" version="1.1">
 <metadata>
  <rdf:RDF xmlns:dc="http://purl.org/dc/elements/1.1/" xmlns:cc="http://creativecommons.org/ns#" xmlns:rdf="http://www.w3.org/1999/02/22-rdf-syntax-ns#">
   <cc:Work>
    <dc:type rdf:resource="http://purl.org/dc/dcmitype/StillImage"/>
    <dc:date>2024-09-16T20:05:49.036954</dc:date>
    <dc:format>image/svg+xml</dc:format>
    <dc:creator>
     <cc:Agent>
      <dc:title>Matplotlib v3.9.2, https://matplotlib.org/</dc:title>
     </cc:Agent>
    </dc:creator>
   </cc:Work>
  </rdf:RDF>
 </metadata>
 <defs>
  <style type="text/css">*{stroke-linejoin: round; stroke-linecap: butt}</style>
 </defs>
 <g id="figure_1">
  <g id="patch_1">
   <path d="M 0 360 
L 864 360 
L 864 0 
L 0 0 
L 0 360 
z
" style="fill: none; opacity: 0"/>
  </g>
  <g id="axes_1">
   <g id="patch_2">
    <path d="M 108 320.4 
L 777.6 320.4 
L 777.6 43.2 
L 108 43.2 
L 108 320.4 
z
" style="fill: none; opacity: 0"/>
   </g>
   <g id="matplotlib.axis_1">
    <g id="xtick_1">
     <g id="line2d_1">
      <path d="M 159.080158 320.4 
L 159.080158 43.2 
" clip-path="url(#p384a521e7e)" style="fill: none; stroke-dasharray: 5.12,1.28,0.8,1.28; stroke-dashoffset: 0; stroke: #b0b0b0; stroke-width: 0.8"/>
     </g>
     <g id="line2d_2">
      <defs>
       <path id="me07190e74c" d="M 0 0 
L 0 3.5 
" style="stroke: #a9a9a9; stroke-width: 0.8"/>
      </defs>
      <g>
       <use xlink:href="#me07190e74c" x="159.080158" y="320.4" style="fill: #a9a9a9; stroke: #a9a9a9; stroke-width: 0.8"/>
      </g>
     </g>
     <g id="text_1">
      <!-- 2021-09 -->
      <g style="fill: #a9a9a9" transform="translate(138.188752 334.998438) scale(0.1 -0.1)">
       <defs>
        <path id="DejaVuSans-32" d="M 1228 531 
L 3431 531 
L 3431 0 
L 469 0 
L 469 531 
Q 828 903 1448 1529 
Q 2069 2156 2228 2338 
Q 2531 2678 2651 2914 
Q 2772 3150 2772 3378 
Q 2772 3750 2511 3984 
Q 2250 4219 1831 4219 
Q 1534 4219 1204 4116 
Q 875 4013 500 3803 
L 500 4441 
Q 881 4594 1212 4672 
Q 1544 4750 1819 4750 
Q 2544 4750 2975 4387 
Q 3406 4025 3406 3419 
Q 3406 3131 3298 2873 
Q 3191 2616 2906 2266 
Q 2828 2175 2409 1742 
Q 1991 1309 1228 531 
z
" transform="scale(0.015625)"/>
        <path id="DejaVuSans-30" d="M 2034 4250 
Q 1547 4250 1301 3770 
Q 1056 3291 1056 2328 
Q 1056 1369 1301 889 
Q 1547 409 2034 409 
Q 2525 409 2770 889 
Q 3016 1369 3016 2328 
Q 3016 3291 2770 3770 
Q 2525 4250 2034 4250 
z
M 2034 4750 
Q 2819 4750 3233 4129 
Q 3647 3509 3647 2328 
Q 3647 1150 3233 529 
Q 2819 -91 2034 -91 
Q 1250 -91 836 529 
Q 422 1150 422 2328 
Q 422 3509 836 4129 
Q 1250 4750 2034 4750 
z
" transform="scale(0.015625)"/>
        <path id="DejaVuSans-31" d="M 794 531 
L 1825 531 
L 1825 4091 
L 703 3866 
L 703 4441 
L 1819 4666 
L 2450 4666 
L 2450 531 
L 3481 531 
L 3481 0 
L 794 0 
L 794 531 
z
" transform="scale(0.015625)"/>
        <path id="DejaVuSans-2d" d="M 313 2009 
L 1997 2009 
L 1997 1497 
L 313 1497 
L 313 2009 
z
" transform="scale(0.015625)"/>
        <path id="DejaVuSans-39" d="M 703 97 
L 703 672 
Q 941 559 1184 500 
Q 1428 441 1663 441 
Q 2288 441 2617 861 
Q 2947 1281 2994 2138 
Q 2813 1869 2534 1725 
Q 2256 1581 1919 1581 
Q 1219 1581 811 2004 
Q 403 2428 403 3163 
Q 403 3881 828 4315 
Q 1253 4750 1959 4750 
Q 2769 4750 3195 4129 
Q 3622 3509 3622 2328 
Q 3622 1225 3098 567 
Q 2575 -91 1691 -91 
Q 1453 -91 1209 -44 
Q 966 3 703 97 
z
M 1959 2075 
Q 2384 2075 2632 2365 
Q 2881 2656 2881 3163 
Q 2881 3666 2632 3958 
Q 2384 4250 1959 4250 
Q 1534 4250 1286 3958 
Q 1038 3666 1038 3163 
Q 1038 2656 1286 2365 
Q 1534 2075 1959 2075 
z
" transform="scale(0.015625)"/>
       </defs>
       <use xlink:href="#DejaVuSans-32"/>
       <use xlink:href="#DejaVuSans-30" x="63.623047"/>
       <use xlink:href="#DejaVuSans-32" x="127.246094"/>
       <use xlink:href="#DejaVuSans-31" x="190.869141"/>
       <use xlink:href="#DejaVuSans-2d" x="254.492188"/>
       <use xlink:href="#DejaVuSans-30" x="290.576172"/>
       <use xlink:href="#DejaVuSans-39" x="354.199219"/>
      </g>
     </g>
    </g>
    <g id="xtick_2">
     <g id="line2d_3">
      <path d="M 223.658182 320.4 
L 223.658182 43.2 
" clip-path="url(#p384a521e7e)" style="fill: none; stroke-dasharray: 5.12,1.28,0.8,1.28; stroke-dashoffset: 0; stroke: #b0b0b0; stroke-width: 0.8"/>
     </g>
     <g id="line2d_4">
      <g>
       <use xlink:href="#me07190e74c" x="223.658182" y="320.4" style="fill: #a9a9a9; stroke: #a9a9a9; stroke-width: 0.8"/>
      </g>
     </g>
     <g id="text_2">
      <!-- 2022-01 -->
      <g style="fill: #a9a9a9" transform="translate(202.766776 334.998438) scale(0.1 -0.1)">
       <use xlink:href="#DejaVuSans-32"/>
       <use xlink:href="#DejaVuSans-30" x="63.623047"/>
       <use xlink:href="#DejaVuSans-32" x="127.246094"/>
       <use xlink:href="#DejaVuSans-32" x="190.869141"/>
       <use xlink:href="#DejaVuSans-2d" x="254.492188"/>
       <use xlink:href="#DejaVuSans-30" x="290.576172"/>
       <use xlink:href="#DejaVuSans-31" x="354.199219"/>
      </g>
     </g>
    </g>
    <g id="xtick_3">
     <g id="line2d_5">
      <path d="M 287.177549 320.4 
L 287.177549 43.2 
" clip-path="url(#p384a521e7e)" style="fill: none; stroke-dasharray: 5.12,1.28,0.8,1.28; stroke-dashoffset: 0; stroke: #b0b0b0; stroke-width: 0.8"/>
     </g>
     <g id="line2d_6">
      <g>
       <use xlink:href="#me07190e74c" x="287.177549" y="320.4" style="fill: #a9a9a9; stroke: #a9a9a9; stroke-width: 0.8"/>
      </g>
     </g>
     <g id="text_3">
      <!-- 2022-05 -->
      <g style="fill: #a9a9a9" transform="translate(266.286143 334.998438) scale(0.1 -0.1)">
       <defs>
        <path id="DejaVuSans-35" d="M 691 4666 
L 3169 4666 
L 3169 4134 
L 1269 4134 
L 1269 2991 
Q 1406 3038 1543 3061 
Q 1681 3084 1819 3084 
Q 2600 3084 3056 2656 
Q 3513 2228 3513 1497 
Q 3513 744 3044 326 
Q 2575 -91 1722 -91 
Q 1428 -91 1123 -41 
Q 819 9 494 109 
L 494 744 
Q 775 591 1075 516 
Q 1375 441 1709 441 
Q 2250 441 2565 725 
Q 2881 1009 2881 1497 
Q 2881 1984 2565 2268 
Q 2250 2553 1709 2553 
Q 1456 2553 1204 2497 
Q 953 2441 691 2322 
L 691 4666 
z
" transform="scale(0.015625)"/>
       </defs>
       <use xlink:href="#DejaVuSans-32"/>
       <use xlink:href="#DejaVuSans-30" x="63.623047"/>
       <use xlink:href="#DejaVuSans-32" x="127.246094"/>
       <use xlink:href="#DejaVuSans-32" x="190.869141"/>
       <use xlink:href="#DejaVuSans-2d" x="254.492188"/>
       <use xlink:href="#DejaVuSans-30" x="290.576172"/>
       <use xlink:href="#DejaVuSans-35" x="354.199219"/>
      </g>
     </g>
    </g>
    <g id="xtick_4">
     <g id="line2d_7">
      <path d="M 352.284901 320.4 
L 352.284901 43.2 
" clip-path="url(#p384a521e7e)" style="fill: none; stroke-dasharray: 5.12,1.28,0.8,1.28; stroke-dashoffset: 0; stroke: #b0b0b0; stroke-width: 0.8"/>
     </g>
     <g id="line2d_8">
      <g>
       <use xlink:href="#me07190e74c" x="352.284901" y="320.4" style="fill: #a9a9a9; stroke: #a9a9a9; stroke-width: 0.8"/>
      </g>
     </g>
     <g id="text_4">
      <!-- 2022-09 -->
      <g style="fill: #a9a9a9" transform="translate(331.393495 334.998438) scale(0.1 -0.1)">
       <use xlink:href="#DejaVuSans-32"/>
       <use xlink:href="#DejaVuSans-30" x="63.623047"/>
       <use xlink:href="#DejaVuSans-32" x="127.246094"/>
       <use xlink:href="#DejaVuSans-32" x="190.869141"/>
       <use xlink:href="#DejaVuSans-2d" x="254.492188"/>
       <use xlink:href="#DejaVuSans-30" x="290.576172"/>
       <use xlink:href="#DejaVuSans-39" x="354.199219"/>
      </g>
     </g>
    </g>
    <g id="xtick_5">
     <g id="line2d_9">
      <path d="M 416.862925 320.4 
L 416.862925 43.2 
" clip-path="url(#p384a521e7e)" style="fill: none; stroke-dasharray: 5.12,1.28,0.8,1.28; stroke-dashoffset: 0; stroke: #b0b0b0; stroke-width: 0.8"/>
     </g>
     <g id="line2d_10">
      <g>
       <use xlink:href="#me07190e74c" x="416.862925" y="320.4" style="fill: #a9a9a9; stroke: #a9a9a9; stroke-width: 0.8"/>
      </g>
     </g>
     <g id="text_5">
      <!-- 2023-01 -->
      <g style="fill: #a9a9a9" transform="translate(395.971519 334.998438) scale(0.1 -0.1)">
       <defs>
        <path id="DejaVuSans-33" d="M 2597 2516 
Q 3050 2419 3304 2112 
Q 3559 1806 3559 1356 
Q 3559 666 3084 287 
Q 2609 -91 1734 -91 
Q 1441 -91 1130 -33 
Q 819 25 488 141 
L 488 750 
Q 750 597 1062 519 
Q 1375 441 1716 441 
Q 2309 441 2620 675 
Q 2931 909 2931 1356 
Q 2931 1769 2642 2001 
Q 2353 2234 1838 2234 
L 1294 2234 
L 1294 2753 
L 1863 2753 
Q 2328 2753 2575 2939 
Q 2822 3125 2822 3475 
Q 2822 3834 2567 4026 
Q 2313 4219 1838 4219 
Q 1578 4219 1281 4162 
Q 984 4106 628 3988 
L 628 4550 
Q 988 4650 1302 4700 
Q 1616 4750 1894 4750 
Q 2613 4750 3031 4423 
Q 3450 4097 3450 3541 
Q 3450 3153 3228 2886 
Q 3006 2619 2597 2516 
z
" transform="scale(0.015625)"/>
       </defs>
       <use xlink:href="#DejaVuSans-32"/>
       <use xlink:href="#DejaVuSans-30" x="63.623047"/>
       <use xlink:href="#DejaVuSans-32" x="127.246094"/>
       <use xlink:href="#DejaVuSans-33" x="190.869141"/>
       <use xlink:href="#DejaVuSans-2d" x="254.492188"/>
       <use xlink:href="#DejaVuSans-30" x="290.576172"/>
       <use xlink:href="#DejaVuSans-31" x="354.199219"/>
      </g>
     </g>
    </g>
    <g id="xtick_6">
     <g id="line2d_11">
      <path d="M 480.382292 320.4 
L 480.382292 43.2 
" clip-path="url(#p384a521e7e)" style="fill: none; stroke-dasharray: 5.12,1.28,0.8,1.28; stroke-dashoffset: 0; stroke: #b0b0b0; stroke-width: 0.8"/>
     </g>
     <g id="line2d_12">
      <g>
       <use xlink:href="#me07190e74c" x="480.382292" y="320.4" style="fill: #a9a9a9; stroke: #a9a9a9; stroke-width: 0.8"/>
      </g>
     </g>
     <g id="text_6">
      <!-- 2023-05 -->
      <g style="fill: #a9a9a9" transform="translate(459.490886 334.998438) scale(0.1 -0.1)">
       <use xlink:href="#DejaVuSans-32"/>
       <use xlink:href="#DejaVuSans-30" x="63.623047"/>
       <use xlink:href="#DejaVuSans-32" x="127.246094"/>
       <use xlink:href="#DejaVuSans-33" x="190.869141"/>
       <use xlink:href="#DejaVuSans-2d" x="254.492188"/>
       <use xlink:href="#DejaVuSans-30" x="290.576172"/>
       <use xlink:href="#DejaVuSans-35" x="354.199219"/>
      </g>
     </g>
    </g>
    <g id="xtick_7">
     <g id="line2d_13">
      <path d="M 545.489644 320.4 
L 545.489644 43.2 
" clip-path="url(#p384a521e7e)" style="fill: none; stroke-dasharray: 5.12,1.28,0.8,1.28; stroke-dashoffset: 0; stroke: #b0b0b0; stroke-width: 0.8"/>
     </g>
     <g id="line2d_14">
      <g>
       <use xlink:href="#me07190e74c" x="545.489644" y="320.4" style="fill: #a9a9a9; stroke: #a9a9a9; stroke-width: 0.8"/>
      </g>
     </g>
     <g id="text_7">
      <!-- 2023-09 -->
      <g style="fill: #a9a9a9" transform="translate(524.598238 334.998438) scale(0.1 -0.1)">
       <use xlink:href="#DejaVuSans-32"/>
       <use xlink:href="#DejaVuSans-30" x="63.623047"/>
       <use xlink:href="#DejaVuSans-32" x="127.246094"/>
       <use xlink:href="#DejaVuSans-33" x="190.869141"/>
       <use xlink:href="#DejaVuSans-2d" x="254.492188"/>
       <use xlink:href="#DejaVuSans-30" x="290.576172"/>
       <use xlink:href="#DejaVuSans-39" x="354.199219"/>
      </g>
     </g>
    </g>
    <g id="xtick_8">
     <g id="line2d_15">
      <path d="M 610.067668 320.4 
L 610.067668 43.2 
" clip-path="url(#p384a521e7e)" style="fill: none; stroke-dasharray: 5.12,1.28,0.8,1.28; stroke-dashoffset: 0; stroke: #b0b0b0; stroke-width: 0.8"/>
     </g>
     <g id="line2d_16">
      <g>
       <use xlink:href="#me07190e74c" x="610.067668" y="320.4" style="fill: #a9a9a9; stroke: #a9a9a9; stroke-width: 0.8"/>
      </g>
     </g>
     <g id="text_8">
      <!-- 2024-01 -->
      <g style="fill: #a9a9a9" transform="translate(589.176262 334.998438) scale(0.1 -0.1)">
       <defs>
        <path id="DejaVuSans-34" d="M 2419 4116 
L 825 1625 
L 2419 1625 
L 2419 4116 
z
M 2253 4666 
L 3047 4666 
L 3047 1625 
L 3713 1625 
L 3713 1100 
L 3047 1100 
L 3047 0 
L 2419 0 
L 2419 1100 
L 313 1100 
L 313 1709 
L 2253 4666 
z
" transform="scale(0.015625)"/>
       </defs>
       <use xlink:href="#DejaVuSans-32"/>
       <use xlink:href="#DejaVuSans-30" x="63.623047"/>
       <use xlink:href="#DejaVuSans-32" x="127.246094"/>
       <use xlink:href="#DejaVuSans-34" x="190.869141"/>
       <use xlink:href="#DejaVuSans-2d" x="254.492188"/>
       <use xlink:href="#DejaVuSans-30" x="290.576172"/>
       <use xlink:href="#DejaVuSans-31" x="354.199219"/>
      </g>
     </g>
    </g>
    <g id="xtick_9">
     <g id="line2d_17">
      <path d="M 674.116364 320.4 
L 674.116364 43.2 
" clip-path="url(#p384a521e7e)" style="fill: none; stroke-dasharray: 5.12,1.28,0.8,1.28; stroke-dashoffset: 0; stroke: #b0b0b0; stroke-width: 0.8"/>
     </g>
     <g id="line2d_18">
      <g>
       <use xlink:href="#me07190e74c" x="674.116364" y="320.4" style="fill: #a9a9a9; stroke: #a9a9a9; stroke-width: 0.8"/>
      </g>
     </g>
     <g id="text_9">
      <!-- 2024-05 -->
      <g style="fill: #a9a9a9" transform="translate(653.224957 334.998438) scale(0.1 -0.1)">
       <use xlink:href="#DejaVuSans-32"/>
       <use xlink:href="#DejaVuSans-30" x="63.623047"/>
       <use xlink:href="#DejaVuSans-32" x="127.246094"/>
       <use xlink:href="#DejaVuSans-34" x="190.869141"/>
       <use xlink:href="#DejaVuSans-2d" x="254.492188"/>
       <use xlink:href="#DejaVuSans-30" x="290.576172"/>
       <use xlink:href="#DejaVuSans-35" x="354.199219"/>
      </g>
     </g>
    </g>
    <g id="xtick_10">
     <g id="line2d_19">
      <path d="M 739.223715 320.4 
L 739.223715 43.2 
" clip-path="url(#p384a521e7e)" style="fill: none; stroke-dasharray: 5.12,1.28,0.8,1.28; stroke-dashoffset: 0; stroke: #b0b0b0; stroke-width: 0.8"/>
     </g>
     <g id="line2d_20">
      <g>
       <use xlink:href="#me07190e74c" x="739.223715" y="320.4" style="fill: #a9a9a9; stroke: #a9a9a9; stroke-width: 0.8"/>
      </g>
     </g>
     <g id="text_10">
      <!-- 2024-09 -->
      <g style="fill: #a9a9a9" transform="translate(718.332309 334.998438) scale(0.1 -0.1)">
       <use xlink:href="#DejaVuSans-32"/>
       <use xlink:href="#DejaVuSans-30" x="63.623047"/>
       <use xlink:href="#DejaVuSans-32" x="127.246094"/>
       <use xlink:href="#DejaVuSans-34" x="190.869141"/>
       <use xlink:href="#DejaVuSans-2d" x="254.492188"/>
       <use xlink:href="#DejaVuSans-30" x="290.576172"/>
       <use xlink:href="#DejaVuSans-39" x="354.199219"/>
      </g>
     </g>
    </g>
   </g>
   <g id="matplotlib.axis_2">
    <g id="ytick_1">
     <g id="line2d_21">
      <path d="M 108 307.837719 
L 777.6 307.837719 
" clip-path="url(#p384a521e7e)" style="fill: none; stroke-dasharray: 5.12,1.28,0.8,1.28; stroke-dashoffset: 0; stroke: #b0b0b0; stroke-width: 0.8"/>
     </g>
     <g id="line2d_22">
      <defs>
       <path id="md3d40164b3" d="M 0 0 
L -3.5 0 
" style="stroke: #a9a9a9; stroke-width: 0.8"/>
      </defs>
      <g>
       <use xlink:href="#md3d40164b3" x="108" y="307.837719" style="fill: #a9a9a9; stroke: #a9a9a9; stroke-width: 0.8"/>
      </g>
     </g>
     <g id="text_11">
      <!-- 0 -->
      <g style="fill: #a9a9a9" transform="translate(94.6375 311.636938) scale(0.1 -0.1)">
       <use xlink:href="#DejaVuSans-30"/>
      </g>
     </g>
    </g>
    <g id="ytick_2">
     <g id="line2d_23">
      <path d="M 108 277.662595 
L 777.6 277.662595 
" clip-path="url(#p384a521e7e)" style="fill: none; stroke-dasharray: 5.12,1.28,0.8,1.28; stroke-dashoffset: 0; stroke: #b0b0b0; stroke-width: 0.8"/>
     </g>
     <g id="line2d_24">
      <g>
       <use xlink:href="#md3d40164b3" x="108" y="277.662595" style="fill: #a9a9a9; stroke: #a9a9a9; stroke-width: 0.8"/>
      </g>
     </g>
     <g id="text_12">
      <!-- 800 -->
      <g style="fill: #a9a9a9" transform="translate(81.9125 281.461814) scale(0.1 -0.1)">
       <defs>
        <path id="DejaVuSans-38" d="M 2034 2216 
Q 1584 2216 1326 1975 
Q 1069 1734 1069 1313 
Q 1069 891 1326 650 
Q 1584 409 2034 409 
Q 2484 409 2743 651 
Q 3003 894 3003 1313 
Q 3003 1734 2745 1975 
Q 2488 2216 2034 2216 
z
M 1403 2484 
Q 997 2584 770 2862 
Q 544 3141 544 3541 
Q 544 4100 942 4425 
Q 1341 4750 2034 4750 
Q 2731 4750 3128 4425 
Q 3525 4100 3525 3541 
Q 3525 3141 3298 2862 
Q 3072 2584 2669 2484 
Q 3125 2378 3379 2068 
Q 3634 1759 3634 1313 
Q 3634 634 3220 271 
Q 2806 -91 2034 -91 
Q 1263 -91 848 271 
Q 434 634 434 1313 
Q 434 1759 690 2068 
Q 947 2378 1403 2484 
z
M 1172 3481 
Q 1172 3119 1398 2916 
Q 1625 2713 2034 2713 
Q 2441 2713 2670 2916 
Q 2900 3119 2900 3481 
Q 2900 3844 2670 4047 
Q 2441 4250 2034 4250 
Q 1625 4250 1398 4047 
Q 1172 3844 1172 3481 
z
" transform="scale(0.015625)"/>
       </defs>
       <use xlink:href="#DejaVuSans-38"/>
       <use xlink:href="#DejaVuSans-30" x="63.623047"/>
       <use xlink:href="#DejaVuSans-30" x="127.246094"/>
      </g>
     </g>
    </g>
    <g id="ytick_3">
     <g id="line2d_25">
      <path d="M 108 247.487472 
L 777.6 247.487472 
" clip-path="url(#p384a521e7e)" style="fill: none; stroke-dasharray: 5.12,1.28,0.8,1.28; stroke-dashoffset: 0; stroke: #b0b0b0; stroke-width: 0.8"/>
     </g>
     <g id="line2d_26">
      <g>
       <use xlink:href="#md3d40164b3" x="108" y="247.487472" style="fill: #a9a9a9; stroke: #a9a9a9; stroke-width: 0.8"/>
      </g>
     </g>
     <g id="text_13">
      <!-- 1600 -->
      <g style="fill: #a9a9a9" transform="translate(75.55 251.286691) scale(0.1 -0.1)">
       <defs>
        <path id="DejaVuSans-36" d="M 2113 2584 
Q 1688 2584 1439 2293 
Q 1191 2003 1191 1497 
Q 1191 994 1439 701 
Q 1688 409 2113 409 
Q 2538 409 2786 701 
Q 3034 994 3034 1497 
Q 3034 2003 2786 2293 
Q 2538 2584 2113 2584 
z
M 3366 4563 
L 3366 3988 
Q 3128 4100 2886 4159 
Q 2644 4219 2406 4219 
Q 1781 4219 1451 3797 
Q 1122 3375 1075 2522 
Q 1259 2794 1537 2939 
Q 1816 3084 2150 3084 
Q 2853 3084 3261 2657 
Q 3669 2231 3669 1497 
Q 3669 778 3244 343 
Q 2819 -91 2113 -91 
Q 1303 -91 875 529 
Q 447 1150 447 2328 
Q 447 3434 972 4092 
Q 1497 4750 2381 4750 
Q 2619 4750 2861 4703 
Q 3103 4656 3366 4563 
z
" transform="scale(0.015625)"/>
       </defs>
       <use xlink:href="#DejaVuSans-31"/>
       <use xlink:href="#DejaVuSans-36" x="63.623047"/>
       <use xlink:href="#DejaVuSans-30" x="127.246094"/>
       <use xlink:href="#DejaVuSans-30" x="190.869141"/>
      </g>
     </g>
    </g>
    <g id="ytick_4">
     <g id="line2d_27">
      <path d="M 108 217.312348 
L 777.6 217.312348 
" clip-path="url(#p384a521e7e)" style="fill: none; stroke-dasharray: 5.12,1.28,0.8,1.28; stroke-dashoffset: 0; stroke: #b0b0b0; stroke-width: 0.8"/>
     </g>
     <g id="line2d_28">
      <g>
       <use xlink:href="#md3d40164b3" x="108" y="217.312348" style="fill: #a9a9a9; stroke: #a9a9a9; stroke-width: 0.8"/>
      </g>
     </g>
     <g id="text_14">
      <!-- 2400 -->
      <g style="fill: #a9a9a9" transform="translate(75.55 221.111567) scale(0.1 -0.1)">
       <use xlink:href="#DejaVuSans-32"/>
       <use xlink:href="#DejaVuSans-34" x="63.623047"/>
       <use xlink:href="#DejaVuSans-30" x="127.246094"/>
       <use xlink:href="#DejaVuSans-30" x="190.869141"/>
      </g>
     </g>
    </g>
    <g id="ytick_5">
     <g id="line2d_29">
      <path d="M 108 187.137225 
L 777.6 187.137225 
" clip-path="url(#p384a521e7e)" style="fill: none; stroke-dasharray: 5.12,1.28,0.8,1.28; stroke-dashoffset: 0; stroke: #b0b0b0; stroke-width: 0.8"/>
     </g>
     <g id="line2d_30">
      <g>
       <use xlink:href="#md3d40164b3" x="108" y="187.137225" style="fill: #a9a9a9; stroke: #a9a9a9; stroke-width: 0.8"/>
      </g>
     </g>
     <g id="text_15">
      <!-- 3200 -->
      <g style="fill: #a9a9a9" transform="translate(75.55 190.936444) scale(0.1 -0.1)">
       <use xlink:href="#DejaVuSans-33"/>
       <use xlink:href="#DejaVuSans-32" x="63.623047"/>
       <use xlink:href="#DejaVuSans-30" x="127.246094"/>
       <use xlink:href="#DejaVuSans-30" x="190.869141"/>
      </g>
     </g>
    </g>
    <g id="ytick_6">
     <g id="line2d_31">
      <path d="M 108 156.962101 
L 777.6 156.962101 
" clip-path="url(#p384a521e7e)" style="fill: none; stroke-dasharray: 5.12,1.28,0.8,1.28; stroke-dashoffset: 0; stroke: #b0b0b0; stroke-width: 0.8"/>
     </g>
     <g id="line2d_32">
      <g>
       <use xlink:href="#md3d40164b3" x="108" y="156.962101" style="fill: #a9a9a9; stroke: #a9a9a9; stroke-width: 0.8"/>
      </g>
     </g>
     <g id="text_16">
      <!-- 4000 -->
      <g style="fill: #a9a9a9" transform="translate(75.55 160.76132) scale(0.1 -0.1)">
       <use xlink:href="#DejaVuSans-34"/>
       <use xlink:href="#DejaVuSans-30" x="63.623047"/>
       <use xlink:href="#DejaVuSans-30" x="127.246094"/>
       <use xlink:href="#DejaVuSans-30" x="190.869141"/>
      </g>
     </g>
    </g>
    <g id="ytick_7">
     <g id="line2d_33">
      <path d="M 108 126.786978 
L 777.6 126.786978 
" clip-path="url(#p384a521e7e)" style="fill: none; stroke-dasharray: 5.12,1.28,0.8,1.28; stroke-dashoffset: 0; stroke: #b0b0b0; stroke-width: 0.8"/>
     </g>
     <g id="line2d_34">
      <g>
       <use xlink:href="#md3d40164b3" x="108" y="126.786978" style="fill: #a9a9a9; stroke: #a9a9a9; stroke-width: 0.8"/>
      </g>
     </g>
     <g id="text_17">
      <!-- 4800 -->
      <g style="fill: #a9a9a9" transform="translate(75.55 130.586197) scale(0.1 -0.1)">
       <use xlink:href="#DejaVuSans-34"/>
       <use xlink:href="#DejaVuSans-38" x="63.623047"/>
       <use xlink:href="#DejaVuSans-30" x="127.246094"/>
       <use xlink:href="#DejaVuSans-30" x="190.869141"/>
      </g>
     </g>
    </g>
    <g id="ytick_8">
     <g id="line2d_35">
      <path d="M 108 96.611855 
L 777.6 96.611855 
" clip-path="url(#p384a521e7e)" style="fill: none; stroke-dasharray: 5.12,1.28,0.8,1.28; stroke-dashoffset: 0; stroke: #b0b0b0; stroke-width: 0.8"/>
     </g>
     <g id="line2d_36">
      <g>
       <use xlink:href="#md3d40164b3" x="108" y="96.611855" style="fill: #a9a9a9; stroke: #a9a9a9; stroke-width: 0.8"/>
      </g>
     </g>
     <g id="text_18">
      <!-- 5600 -->
      <g style="fill: #a9a9a9" transform="translate(75.55 100.411073) scale(0.1 -0.1)">
       <use xlink:href="#DejaVuSans-35"/>
       <use xlink:href="#DejaVuSans-36" x="63.623047"/>
       <use xlink:href="#DejaVuSans-30" x="127.246094"/>
       <use xlink:href="#DejaVuSans-30" x="190.869141"/>
      </g>
     </g>
    </g>
    <g id="ytick_9">
     <g id="line2d_37">
      <path d="M 108 66.436731 
L 777.6 66.436731 
" clip-path="url(#p384a521e7e)" style="fill: none; stroke-dasharray: 5.12,1.28,0.8,1.28; stroke-dashoffset: 0; stroke: #b0b0b0; stroke-width: 0.8"/>
     </g>
     <g id="line2d_38">
      <g>
       <use xlink:href="#md3d40164b3" x="108" y="66.436731" style="fill: #a9a9a9; stroke: #a9a9a9; stroke-width: 0.8"/>
      </g>
     </g>
     <g id="text_19">
      <!-- 6400 -->
      <g style="fill: #a9a9a9" transform="translate(75.55 70.23595) scale(0.1 -0.1)">
       <use xlink:href="#DejaVuSans-36"/>
       <use xlink:href="#DejaVuSans-34" x="63.623047"/>
       <use xlink:href="#DejaVuSans-30" x="127.246094"/>
       <use xlink:href="#DejaVuSans-30" x="190.869141"/>
      </g>
     </g>
    </g>
   </g>
   <g id="line2d_39">
    <path d="M 138.436364 307.724562 
L 141.612332 307.46053 
L 142.14166 307.234216 
L 143.729644 307.083341 
L 147.434941 306.404401 
L 150.081581 306.178087 
L 151.140237 305.763179 
L 151.669565 305.084239 
L 152.198893 304.70705 
L 152.728221 303.537764 
L 153.257549 303.462326 
L 153.786877 303.047418 
L 154.845534 302.519353 
L 156.962846 300.859722 
L 159.080158 299.841311 
L 160.668142 299.124652 
L 161.19747 298.294836 
L 162.256126 297.540458 
L 162.785455 297.314145 
L 168.078735 296.559767 
L 168.608063 296.333453 
L 172.31336 296.031702 
L 174.430672 295.541356 
L 178.665296 294.975573 
L 179.194625 294.673821 
L 179.723953 294.598383 
L 180.782609 294.258913 
L 184.487905 293.655411 
L 185.546561 293.35366 
L 187.134545 293.202784 
L 188.193202 293.089627 
L 190.839842 292.410687 
L 191.898498 292.335249 
L 192.957154 292.184374 
L 194.01581 291.95806 
L 194.545138 291.807185 
L 195.074466 291.090525 
L 196.662451 290.487023 
L 198.250435 290.072115 
L 198.779763 289.808083 
L 199.309091 289.770364 
L 201.955731 289.015986 
L 203.014387 288.940548 
L 203.543715 288.86511 
L 205.1317 288.374764 
L 207.249012 287.8467 
L 207.77834 287.620386 
L 208.307668 287.544948 
L 208.836996 287.280916 
L 214.130277 286.488819 
L 216.776917 285.734441 
L 217.306245 285.394971 
L 219.952885 284.527436 
L 221.011542 283.810777 
L 222.599526 283.509026 
L 232.656759 280.60467 
L 233.715415 280.189762 
L 234.774071 280.114324 
L 236.362055 279.661697 
L 236.891383 279.661697 
L 237.420711 279.435384 
L 238.479368 279.322227 
L 239.008696 279.133633 
L 240.067352 279.095914 
L 242.184664 278.831881 
L 243.24332 278.303817 
L 249.595257 275.474899 
L 250.124585 274.909115 
L 251.183241 273.324921 
L 251.712569 273.174046 
L 252.241897 273.174046 
L 253.300553 272.381949 
L 254.888538 271.853884 
L 255.417866 271.363538 
L 256.476522 270.94863 
L 257.535178 270.458285 
L 258.593834 268.949529 
L 259.123162 268.610058 
L 259.65249 267.704805 
L 260.181818 267.139021 
L 263.357787 265.517108 
L 264.416443 264.687292 
L 264.945771 264.347822 
L 265.475099 263.555725 
L 266.004427 262.386439 
L 266.533755 261.594342 
L 267.063083 261.179434 
L 267.592411 260.953121 
L 269.709723 259.142613 
L 270.768379 258.275079 
L 271.297708 257.822452 
L 271.827036 257.105793 
L 272.885692 256.16282 
L 275.003004 254.76722 
L 275.532332 254.314594 
L 276.590988 253.975123 
L 278.178972 253.06987 
L 279.766957 252.051459 
L 281.884269 250.165514 
L 282.942925 249.750606 
L 284.001581 249.033947 
L 284.530909 248.732196 
L 285.060237 248.656758 
L 288.765534 246.355905 
L 290.882846 245.224338 
L 291.412174 244.733992 
L 299.881423 241.791917 
L 300.940079 240.848945 
L 301.998735 240.358599 
L 303.057391 239.792815 
L 303.586719 239.491064 
L 304.645375 239.189313 
L 305.174704 238.849843 
L 305.704032 238.698967 
L 307.292016 237.680557 
L 309.938656 237.077054 
L 311.52664 236.171801 
L 312.055968 236.096363 
L 313.114625 235.83233 
L 313.643953 235.681455 
L 315.231937 234.47445 
L 317.349249 233.908666 
L 317.878577 233.493758 
L 321.054545 232.437629 
L 321.583874 232.39991 
L 323.171858 231.834127 
L 326.877154 230.513965 
L 327.93581 230.363089 
L 329.523794 229.835025 
L 332.170435 228.590301 
L 334.287747 227.458734 
L 338.522372 225.761383 
L 339.0517 225.685945 
L 340.110356 225.044724 
L 340.639684 224.969286 
L 342.756996 224.101751 
L 344.874308 223.8 
L 345.932964 223.271935 
L 346.462292 222.819308 
L 346.991621 221.876336 
L 349.108933 221.310552 
L 350.696917 220.518455 
L 351.226245 220.405299 
L 355.46087 218.406197 
L 357.048854 218.066727 
L 358.10751 217.538662 
L 358.636838 217.312348 
L 359.166166 217.236911 
L 361.283478 216.293938 
L 362.871462 215.313247 
L 363.400791 215.237809 
L 363.930119 215.049214 
L 364.459447 215.011495 
L 367.106087 214.370274 
L 367.635415 213.955366 
L 369.223399 213.389582 
L 371.340711 212.559767 
L 371.87004 212.182577 
L 372.399368 211.993983 
L 373.458024 211.428199 
L 376.104664 210.560665 
L 377.692648 209.315941 
L 378.221976 209.202784 
L 379.280632 208.372968 
L 379.80996 208.29753 
L 380.339289 207.467714 
L 380.868617 207.241401 
L 381.397945 206.826493 
L 381.927273 206.751055 
L 382.985929 206.109834 
L 384.044585 205.770364 
L 384.573913 205.355456 
L 385.103241 205.166861 
L 386.691225 204.073013 
L 388.808538 202.979165 
L 389.337866 202.903727 
L 390.92585 202.11163 
L 391.455178 201.244095 
L 391.984506 200.791468 
L 392.513834 200.489717 
L 393.043162 200.37656 
L 394.101818 199.69762 
L 394.631146 199.584463 
L 395.689802 199.056399 
L 397.277787 198.377458 
L 398.336443 197.62308 
L 399.924427 196.189762 
L 400.983083 195.58626 
L 401.512411 195.020476 
L 403.629723 193.587158 
L 404.159051 192.983655 
L 404.688379 192.568747 
L 405.747036 192.191558 
L 406.805692 191.474899 
L 408.393676 190.682802 
L 408.923004 190.607364 
L 410.510988 189.777548 
L 411.569644 189.136327 
L 416.862925 187.250382 
L 417.392253 186.835474 
L 419.509565 186.043377 
L 420.038893 185.892501 
L 420.568221 185.477593 
L 423.214862 184.044275 
L 424.273518 181.969735 
L 425.332174 180.76273 
L 426.39083 180.121509 
L 427.978814 179.480287 
L 428.508142 179.40485 
L 429.03747 179.103098 
L 431.684111 178.273282 
L 432.213439 178.046969 
L 433.272095 177.33031 
L 434.860079 176.65137 
L 435.918735 176.085586 
L 436.448063 175.708397 
L 436.977391 175.482084 
L 437.506719 175.104894 
L 438.036047 174.539111 
L 439.094704 173.973327 
L 441.741344 172.577728 
L 444.917312 171.031253 
L 445.975968 170.691783 
L 447.563953 170.201437 
L 449.681265 169.258464 
L 450.739921 168.843556 
L 451.269249 168.428648 
L 452.327905 168.089178 
L 455.503874 166.467265 
L 456.56253 165.637449 
L 457.621186 165.26026 
L 458.150514 164.807634 
L 458.679842 164.732196 
L 459.738498 163.940099 
L 460.797154 163.412034 
L 461.326482 163.185721 
L 461.85581 162.657656 
L 465.561107 161.224338 
L 466.619763 160.771711 
L 468.207747 160.281365 
L 469.266403 160.130489 
L 469.795731 159.904176 
L 470.325059 159.828738 
L 471.383715 159.376111 
L 471.913043 159.338392 
L 474.030356 158.546295 
L 475.61834 157.452447 
L 478.26498 156.207723 
L 480.911621 154.774405 
L 481.440949 154.661248 
L 483.028933 153.755995 
L 484.616917 153.22793 
L 485.675573 152.88846 
L 487.792885 152.20952 
L 488.851542 151.870049 
L 490.439526 151.606017 
L 492.556838 150.927077 
L 493.086166 150.700763 
L 493.615494 150.625326 
L 494.144822 150.361293 
L 495.203478 150.172699 
L 496.791462 149.606915 
L 497.850119 149.493758 
L 499.438103 149.154288 
L 500.496759 148.965694 
L 501.555415 148.777099 
L 502.614071 148.550786 
L 505.79004 147.758689 
L 506.319368 147.456938 
L 508.966008 146.815716 
L 510.024664 146.476246 
L 515.847273 144.778895 
L 516.376601 144.250831 
L 517.435257 143.835923 
L 520.611225 142.704356 
L 521.140553 142.364885 
L 521.669881 142.251729 
L 522.199209 141.949978 
L 523.787194 141.497351 
L 524.84585 141.233318 
L 525.375178 140.893848 
L 525.904506 140.780692 
L 526.433834 140.328065 
L 528.021818 140.026313 
L 529.080474 139.535968 
L 529.609802 138.932465 
L 531.727115 138.442119 
L 535.432411 137.687741 
L 535.961739 137.687741 
L 536.491067 137.461428 
L 538.608379 137.084239 
L 539.137708 136.857925 
L 541.25502 136.480736 
L 542.313676 136.02811 
L 542.843004 135.990391 
L 551.841581 133.312348 
L 552.370909 133.086035 
L 552.900237 132.708846 
L 553.958893 132.407095 
L 555.017549 132.067625 
L 556.076206 131.652717 
L 557.66419 130.973776 
L 559.252174 130.86062 
L 561.369486 130.257117 
L 561.898814 129.917647 
L 562.95747 129.615896 
L 565.604111 128.44661 
L 566.133439 128.408891 
L 571.956047 126.409789 
L 574.602688 125.730849 
L 575.661344 125.240503 
L 576.72 125.014189 
L 577.249328 124.901033 
L 577.778656 124.486125 
L 578.307984 124.222093 
L 578.837312 123.580871 
L 579.36664 123.203682 
L 580.425296 122.901931 
L 580.954625 122.487023 
L 583.601265 121.393175 
L 584.130593 121.280018 
L 584.659921 120.940548 
L 585.718577 120.638797 
L 586.247905 120.299326 
L 588.894545 119.431792 
L 590.48253 118.526538 
L 591.011858 118.413381 
L 592.070514 117.809879 
L 592.599842 117.583565 
L 593.658498 116.942344 
L 595.246482 116.187966 
L 595.77581 115.810777 
L 596.834466 115.471307 
L 597.893123 114.867804 
L 598.422451 114.67921 
L 598.951779 114.302021 
L 605.833043 111.92573 
L 606.362372 111.812573 
L 606.8917 111.473103 
L 607.421028 111.397665 
L 608.479684 111.133633 
L 609.53834 110.907319 
L 613.243636 109.096812 
L 613.772964 109.021374 
L 615.360949 108.153839 
L 618.536917 106.909115 
L 620.654229 106.0793 
L 621.183557 105.928424 
L 621.712885 105.588954 
L 622.771542 105.438078 
L 623.30087 105.098608 
L 623.830198 105.060889 
L 624.888854 104.721419 
L 625.94751 104.193354 
L 626.476838 104.117916 
L 629.123478 103.061787 
L 630.711462 102.60916 
L 631.770119 102.345128 
L 633.358103 101.892501 
L 634.416759 101.477593 
L 636.534071 100.346026 
L 637.592727 99.931118 
L 638.122055 99.591648 
L 639.180711 99.365335 
L 639.71004 99.063583 
L 640.239368 98.950427 
L 641.827352 98.120611 
L 642.886008 97.705703 
L 644.473992 96.989044 
L 646.061976 96.574136 
L 649.237945 95.329412 
L 650.825929 94.801347 
L 658.76585 91.406646 
L 659.295178 91.331208 
L 661.41249 90.501392 
L 663.000474 89.633857 
L 663.529802 89.5207 
L 664.588458 89.105793 
L 665.117787 89.105793 
L 666.176443 88.653166 
L 667.235099 87.710193 
L 667.764427 87.257566 
L 669.352411 86.503188 
L 669.881739 86.390031 
L 670.411067 86.125999 
L 670.940395 86.050561 
L 671.469723 85.673372 
L 671.999051 85.560216 
L 673.057708 84.918994 
L 674.645692 84.126897 
L 675.704348 83.711989 
L 676.233676 83.447957 
L 678.880316 82.806736 
L 679.409644 82.542703 
L 680.997628 82.090076 
L 683.114941 81.071666 
L 684.173597 80.58132 
L 685.232253 80.317288 
L 688.937549 78.582218 
L 691.58419 77.639246 
L 693.172174 76.696273 
L 693.701502 76.583116 
L 694.760158 76.055052 
L 695.818814 75.677863 
L 696.348142 75.225236 
L 696.87747 74.923485 
L 698.465455 74.433139 
L 699.524111 73.71648 
L 700.053439 73.678761 
L 701.112095 73.377009 
L 702.170751 73.037539 
L 702.700079 72.773507 
L 703.229407 72.698069 
L 704.817391 72.132286 
L 706.405375 71.566502 
L 707.464032 71.151594 
L 707.99336 70.736686 
L 709.581344 70.321778 
L 710.110672 70.020027 
L 711.169328 69.755995 
L 712.757312 68.88846 
L 713.28664 68.850741 
L 714.874625 68.360395 
L 715.933281 68.247238 
L 716.991937 67.83233 
L 720.167905 66.927077 
L 721.226561 66.889358 
L 724.40253 65.870947 
L 724.931858 65.79551 
L 726.519842 64.965694 
L 727.04917 64.513067 
L 728.107826 63.909564 
L 729.69581 62.891154 
L 732.871779 61.797306 
L 733.401107 61.382398 
L 734.989091 60.665739 
L 735.518419 60.552582 
L 736.577075 60.062236 
L 738.165059 59.647328 
L 739.753043 58.968388 
L 740.8117 58.478042 
L 742.399684 57.836821 
L 742.929012 57.723664 
L 744.516996 56.969286 
L 745.046324 56.81841 
L 746.10498 56.101751 
L 747.163636 55.8 
L 747.163636 55.8 
" clip-path="url(#p384a521e7e)" style="fill: none; stroke: #1f77b4; stroke-width: 1.5; stroke-linecap: square"/>
   </g>
   <g id="line2d_40">
    <path d="M 138.965692 307.8 
L 140.553676 307.724562 
L 142.14166 307.686843 
L 145.317628 307.611405 
L 147.964269 307.498249 
L 150.081581 307.498249 
L 150.610909 307.347373 
L 152.728221 307.271935 
L 154.316206 307.083341 
L 155.90419 306.932465 
L 159.080158 306.78159 
L 159.609486 306.78159 
L 160.668142 306.668433 
L 163.844111 306.517557 
L 167.549407 306.442119 
L 170.196047 306.328963 
L 176.547984 306.253525 
L 179.194625 306.140368 
L 182.370593 306.06493 
L 184.487905 305.989493 
L 189.251858 305.914055 
L 190.839842 305.876336 
L 192.427826 305.838617 
L 194.01581 305.650022 
L 197.191779 305.612304 
L 198.250435 305.536866 
L 202.485059 305.461428 
L 207.77834 305.159677 
L 211.483636 305.084239 
L 212.542292 305.008801 
L 214.130277 304.933363 
L 217.306245 304.782488 
L 219.423557 304.744769 
L 221.011542 304.593893 
L 227.892806 304.178985 
L 230.539447 304.103547 
L 235.303399 303.839515 
L 236.891383 303.764077 
L 242.184664 303.462326 
L 248.007273 303.386888 
L 250.124585 303.160575 
L 251.183241 303.085137 
L 258.064506 302.519353 
L 261.240474 302.104445 
L 263.357787 302.029008 
L 267.592411 301.463224 
L 270.768379 301.387786 
L 272.356364 301.236911 
L 273.41502 301.199192 
L 274.473676 301.086035 
L 276.06166 301.010597 
L 277.649644 300.784284 
L 278.178972 300.784284 
L 279.766957 300.55797 
L 281.884269 300.482533 
L 282.942925 300.407095 
L 285.060237 300.331657 
L 286.118893 300.256219 
L 288.765534 299.992187 
L 289.82419 299.803592 
L 291.412174 299.765873 
L 292.47083 299.690436 
L 295.11747 299.614998 
L 301.998735 299.20009 
L 303.586719 299.124652 
L 310.467984 298.709744 
L 314.173281 298.634306 
L 315.231937 298.52115 
L 318.937233 298.445712 
L 322.64253 298.257117 
L 328.465138 298.181679 
L 332.170435 297.993085 
L 336.405059 297.917647 
L 340.639684 297.691334 
L 344.34498 297.615896 
L 354.402213 296.974674 
L 359.695494 296.899237 
L 361.812806 296.672923 
L 363.400791 296.635204 
L 364.988775 296.597485 
L 367.106087 296.371172 
L 372.399368 296.069421 
L 375.575336 295.993983 
L 377.16332 295.956264 
L 378.751304 295.918545 
L 380.339289 295.76767 
L 384.573913 295.692232 
L 385.632569 295.541356 
L 386.691225 295.465918 
L 389.337866 295.352762 
L 390.396522 295.277324 
L 391.455178 295.201886 
L 396.21913 295.126448 
L 397.277787 295.013291 
L 399.395099 294.975573 
L 400.453755 294.862416 
L 402.041739 294.673821 
L 403.100395 294.598383 
L 407.864348 294.334351 
L 408.923004 294.296632 
L 410.510988 294.145757 
L 412.098972 294.108038 
L 413.686957 294.0326 
L 416.333597 293.919443 
L 423.74419 293.844005 
L 427.449486 293.655411 
L 431.684111 293.579973 
L 433.801423 293.504535 
L 435.918735 293.466816 
L 436.977391 293.35366 
L 439.094704 293.278222 
L 444.387984 292.976471 
L 447.563953 292.938752 
L 449.151937 292.787876 
L 450.739921 292.750157 
L 454.445217 292.674719 
L 456.56253 292.599282 
L 462.914466 292.523844 
L 465.561107 292.410687 
L 468.737075 292.335249 
L 470.325059 292.146655 
L 473.501028 292.108936 
L 475.089012 291.95806 
L 477.206324 291.882622 
L 483.558261 291.807185 
L 486.204901 291.694028 
L 495.203478 291.656309 
L 496.262134 291.580871 
L 497.850119 291.543152 
L 504.731383 291.467714 
L 505.79004 291.392277 
L 511.612648 291.316839 
L 513.72996 291.241401 
L 523.787194 291.165963 
L 525.375178 291.128244 
L 530.13913 291.052806 
L 531.197787 290.977369 
L 543.90166 290.901931 
L 545.489644 290.864212 
L 559.781502 290.788774 
L 561.369486 290.751055 
L 570.897391 290.675617 
L 571.956047 290.60018 
L 574.602688 290.524742 
L 576.190672 290.373866 
L 578.837312 290.298428 
L 582.013281 290.147553 
L 586.247905 290.072115 
L 587.306561 289.996677 
L 591.541186 289.921239 
L 594.717154 289.770364 
L 597.363794 289.694926 
L 601.598419 289.468612 
L 604.774387 289.393175 
L 606.8917 289.317737 
L 613.772964 289.242299 
L 615.890277 289.166861 
L 620.124901 289.091423 
L 623.830198 288.902829 
L 628.59415 288.827391 
L 629.652806 288.751953 
L 639.180711 288.676515 
L 640.768696 288.638797 
L 643.415336 288.601078 
L 645.532648 288.374764 
L 647.120632 288.337045 
L 650.296601 288.261608 
L 655.589881 287.959856 
L 658.236522 287.884419 
L 660.353834 287.808981 
L 666.176443 287.733543 
L 668.823083 287.431792 
L 670.940395 287.356354 
L 674.645692 287.280916 
L 675.704348 287.167759 
L 679.938972 287.092322 
L 682.585613 286.979165 
L 689.466877 286.941446 
L 690.525534 286.828289 
L 694.23083 286.752851 
L 695.818814 286.715132 
L 698.465455 286.639695 
L 700.053439 286.601976 
L 709.052016 286.526538 
L 711.698656 286.413381 
L 719.109249 286.337943 
L 721.226561 286.262506 
L 727.04917 286.187068 
L 728.107826 286.073911 
L 732.871779 286.036192 
L 733.930435 285.960754 
L 736.577075 285.885317 
L 738.165059 285.847598 
L 745.046324 285.77216 
L 746.634308 285.734441 
L 747.163636 285.734441 
L 747.163636 285.734441 
" clip-path="url(#p384a521e7e)" style="fill: none; stroke: #ff7f0e; stroke-width: 1.5; stroke-linecap: square"/>
   </g>
   <g id="patch_3">
    <path d="M 108 320.4 
L 108 43.2 
" style="fill: none; stroke: #a9a9a9; stroke-width: 0.8; stroke-linejoin: miter; stroke-linecap: square"/>
   </g>
   <g id="patch_4">
    <path d="M 777.6 320.4 
L 777.6 43.2 
" style="fill: none"/>
   </g>
   <g id="patch_5">
    <path d="M 108 320.4 
L 777.6 320.4 
" style="fill: none; stroke: #a9a9a9; stroke-width: 0.8; stroke-linejoin: miter; stroke-linecap: square"/>
   </g>
   <g id="patch_6">
    <path d="M 108 43.2 
L 777.6 43.2 
" style="fill: none"/>
   </g>
   <g id="text_20">
    <!-- get_subscribe history -->
    <g style="fill: #a9a9a9" transform="translate(378.6075 37.2) scale(0.12 -0.12)">
     <defs>
      <path id="DejaVuSans-67" d="M 2906 1791 
Q 2906 2416 2648 2759 
Q 2391 3103 1925 3103 
Q 1463 3103 1205 2759 
Q 947 2416 947 1791 
Q 947 1169 1205 825 
Q 1463 481 1925 481 
Q 2391 481 2648 825 
Q 2906 1169 2906 1791 
z
M 3481 434 
Q 3481 -459 3084 -895 
Q 2688 -1331 1869 -1331 
Q 1566 -1331 1297 -1286 
Q 1028 -1241 775 -1147 
L 775 -588 
Q 1028 -725 1275 -790 
Q 1522 -856 1778 -856 
Q 2344 -856 2625 -561 
Q 2906 -266 2906 331 
L 2906 616 
Q 2728 306 2450 153 
Q 2172 0 1784 0 
Q 1141 0 747 490 
Q 353 981 353 1791 
Q 353 2603 747 3093 
Q 1141 3584 1784 3584 
Q 2172 3584 2450 3431 
Q 2728 3278 2906 2969 
L 2906 3500 
L 3481 3500 
L 3481 434 
z
" transform="scale(0.015625)"/>
      <path id="DejaVuSans-65" d="M 3597 1894 
L 3597 1613 
L 953 1613 
Q 991 1019 1311 708 
Q 1631 397 2203 397 
Q 2534 397 2845 478 
Q 3156 559 3463 722 
L 3463 178 
Q 3153 47 2828 -22 
Q 2503 -91 2169 -91 
Q 1331 -91 842 396 
Q 353 884 353 1716 
Q 353 2575 817 3079 
Q 1281 3584 2069 3584 
Q 2775 3584 3186 3129 
Q 3597 2675 3597 1894 
z
M 3022 2063 
Q 3016 2534 2758 2815 
Q 2500 3097 2075 3097 
Q 1594 3097 1305 2825 
Q 1016 2553 972 2059 
L 3022 2063 
z
" transform="scale(0.015625)"/>
      <path id="DejaVuSans-74" d="M 1172 4494 
L 1172 3500 
L 2356 3500 
L 2356 3053 
L 1172 3053 
L 1172 1153 
Q 1172 725 1289 603 
Q 1406 481 1766 481 
L 2356 481 
L 2356 0 
L 1766 0 
Q 1100 0 847 248 
Q 594 497 594 1153 
L 594 3053 
L 172 3053 
L 172 3500 
L 594 3500 
L 594 4494 
L 1172 4494 
z
" transform="scale(0.015625)"/>
      <path id="DejaVuSans-5f" d="M 3263 -1063 
L 3263 -1509 
L -63 -1509 
L -63 -1063 
L 3263 -1063 
z
" transform="scale(0.015625)"/>
      <path id="DejaVuSans-73" d="M 2834 3397 
L 2834 2853 
Q 2591 2978 2328 3040 
Q 2066 3103 1784 3103 
Q 1356 3103 1142 2972 
Q 928 2841 928 2578 
Q 928 2378 1081 2264 
Q 1234 2150 1697 2047 
L 1894 2003 
Q 2506 1872 2764 1633 
Q 3022 1394 3022 966 
Q 3022 478 2636 193 
Q 2250 -91 1575 -91 
Q 1294 -91 989 -36 
Q 684 19 347 128 
L 347 722 
Q 666 556 975 473 
Q 1284 391 1588 391 
Q 1994 391 2212 530 
Q 2431 669 2431 922 
Q 2431 1156 2273 1281 
Q 2116 1406 1581 1522 
L 1381 1569 
Q 847 1681 609 1914 
Q 372 2147 372 2553 
Q 372 3047 722 3315 
Q 1072 3584 1716 3584 
Q 2034 3584 2315 3537 
Q 2597 3491 2834 3397 
z
" transform="scale(0.015625)"/>
      <path id="DejaVuSans-75" d="M 544 1381 
L 544 3500 
L 1119 3500 
L 1119 1403 
Q 1119 906 1312 657 
Q 1506 409 1894 409 
Q 2359 409 2629 706 
Q 2900 1003 2900 1516 
L 2900 3500 
L 3475 3500 
L 3475 0 
L 2900 0 
L 2900 538 
Q 2691 219 2414 64 
Q 2138 -91 1772 -91 
Q 1169 -91 856 284 
Q 544 659 544 1381 
z
M 1991 3584 
L 1991 3584 
z
" transform="scale(0.015625)"/>
      <path id="DejaVuSans-62" d="M 3116 1747 
Q 3116 2381 2855 2742 
Q 2594 3103 2138 3103 
Q 1681 3103 1420 2742 
Q 1159 2381 1159 1747 
Q 1159 1113 1420 752 
Q 1681 391 2138 391 
Q 2594 391 2855 752 
Q 3116 1113 3116 1747 
z
M 1159 2969 
Q 1341 3281 1617 3432 
Q 1894 3584 2278 3584 
Q 2916 3584 3314 3078 
Q 3713 2572 3713 1747 
Q 3713 922 3314 415 
Q 2916 -91 2278 -91 
Q 1894 -91 1617 61 
Q 1341 213 1159 525 
L 1159 0 
L 581 0 
L 581 4863 
L 1159 4863 
L 1159 2969 
z
" transform="scale(0.015625)"/>
      <path id="DejaVuSans-63" d="M 3122 3366 
L 3122 2828 
Q 2878 2963 2633 3030 
Q 2388 3097 2138 3097 
Q 1578 3097 1268 2742 
Q 959 2388 959 1747 
Q 959 1106 1268 751 
Q 1578 397 2138 397 
Q 2388 397 2633 464 
Q 2878 531 3122 666 
L 3122 134 
Q 2881 22 2623 -34 
Q 2366 -91 2075 -91 
Q 1284 -91 818 406 
Q 353 903 353 1747 
Q 353 2603 823 3093 
Q 1294 3584 2113 3584 
Q 2378 3584 2631 3529 
Q 2884 3475 3122 3366 
z
" transform="scale(0.015625)"/>
      <path id="DejaVuSans-72" d="M 2631 2963 
Q 2534 3019 2420 3045 
Q 2306 3072 2169 3072 
Q 1681 3072 1420 2755 
Q 1159 2438 1159 1844 
L 1159 0 
L 581 0 
L 581 3500 
L 1159 3500 
L 1159 2956 
Q 1341 3275 1631 3429 
Q 1922 3584 2338 3584 
Q 2397 3584 2469 3576 
Q 2541 3569 2628 3553 
L 2631 2963 
z
" transform="scale(0.015625)"/>
      <path id="DejaVuSans-69" d="M 603 3500 
L 1178 3500 
L 1178 0 
L 603 0 
L 603 3500 
z
M 603 4863 
L 1178 4863 
L 1178 4134 
L 603 4134 
L 603 4863 
z
" transform="scale(0.015625)"/>
      <path id="DejaVuSans-20" transform="scale(0.015625)"/>
      <path id="DejaVuSans-68" d="M 3513 2113 
L 3513 0 
L 2938 0 
L 2938 2094 
Q 2938 2591 2744 2837 
Q 2550 3084 2163 3084 
Q 1697 3084 1428 2787 
Q 1159 2491 1159 1978 
L 1159 0 
L 581 0 
L 581 4863 
L 1159 4863 
L 1159 2956 
Q 1366 3272 1645 3428 
Q 1925 3584 2291 3584 
Q 2894 3584 3203 3211 
Q 3513 2838 3513 2113 
z
" transform="scale(0.015625)"/>
      <path id="DejaVuSans-6f" d="M 1959 3097 
Q 1497 3097 1228 2736 
Q 959 2375 959 1747 
Q 959 1119 1226 758 
Q 1494 397 1959 397 
Q 2419 397 2687 759 
Q 2956 1122 2956 1747 
Q 2956 2369 2687 2733 
Q 2419 3097 1959 3097 
z
M 1959 3584 
Q 2709 3584 3137 3096 
Q 3566 2609 3566 1747 
Q 3566 888 3137 398 
Q 2709 -91 1959 -91 
Q 1206 -91 779 398 
Q 353 888 353 1747 
Q 353 2609 779 3096 
Q 1206 3584 1959 3584 
z
" transform="scale(0.015625)"/>
      <path id="DejaVuSans-79" d="M 2059 -325 
Q 1816 -950 1584 -1140 
Q 1353 -1331 966 -1331 
L 506 -1331 
L 506 -850 
L 844 -850 
Q 1081 -850 1212 -737 
Q 1344 -625 1503 -206 
L 1606 56 
L 191 3500 
L 800 3500 
L 1894 763 
L 2988 3500 
L 3597 3500 
L 2059 -325 
z
" transform="scale(0.015625)"/>
     </defs>
     <use xlink:href="#DejaVuSans-67"/>
     <use xlink:href="#DejaVuSans-65" x="63.476562"/>
     <use xlink:href="#DejaVuSans-74" x="125"/>
     <use xlink:href="#DejaVuSans-5f" x="164.208984"/>
     <use xlink:href="#DejaVuSans-73" x="214.208984"/>
     <use xlink:href="#DejaVuSans-75" x="266.308594"/>
     <use xlink:href="#DejaVuSans-62" x="329.6875"/>
     <use xlink:href="#DejaVuSans-73" x="393.164062"/>
     <use xlink:href="#DejaVuSans-63" x="445.263672"/>
     <use xlink:href="#DejaVuSans-72" x="500.244141"/>
     <use xlink:href="#DejaVuSans-69" x="541.357422"/>
     <use xlink:href="#DejaVuSans-62" x="569.140625"/>
     <use xlink:href="#DejaVuSans-65" x="632.617188"/>
     <use xlink:href="#DejaVuSans-20" x="694.140625"/>
     <use xlink:href="#DejaVuSans-68" x="725.927734"/>
     <use xlink:href="#DejaVuSans-69" x="789.306641"/>
     <use xlink:href="#DejaVuSans-73" x="817.089844"/>
     <use xlink:href="#DejaVuSans-74" x="869.189453"/>
     <use xlink:href="#DejaVuSans-6f" x="908.398438"/>
     <use xlink:href="#DejaVuSans-72" x="969.580078"/>
     <use xlink:href="#DejaVuSans-79" x="1010.693359"/>
    </g>
   </g>
   <g id="legend_1">
    <g id="line2d_41">
     <path d="M 815.08 328.498438 
L 825.08 328.498438 
L 835.08 328.498438 
" style="fill: none; stroke: #1f77b4; stroke-width: 1.5; stroke-linecap: square"/>
    </g>
    <g id="text_21">
     <!-- star -->
     <g style="fill: #a9a9a9" transform="translate(843.08 331.998438) scale(0.1 -0.1)">
      <defs>
       <path id="DejaVuSans-61" d="M 2194 1759 
Q 1497 1759 1228 1600 
Q 959 1441 959 1056 
Q 959 750 1161 570 
Q 1363 391 1709 391 
Q 2188 391 2477 730 
Q 2766 1069 2766 1631 
L 2766 1759 
L 2194 1759 
z
M 3341 1997 
L 3341 0 
L 2766 0 
L 2766 531 
Q 2569 213 2275 61 
Q 1981 -91 1556 -91 
Q 1019 -91 701 211 
Q 384 513 384 1019 
Q 384 1609 779 1909 
Q 1175 2209 1959 2209 
L 2766 2209 
L 2766 2266 
Q 2766 2663 2505 2880 
Q 2244 3097 1772 3097 
Q 1472 3097 1187 3025 
Q 903 2953 641 2809 
L 641 3341 
Q 956 3463 1253 3523 
Q 1550 3584 1831 3584 
Q 2591 3584 2966 3190 
Q 3341 2797 3341 1997 
z
" transform="scale(0.015625)"/>
      </defs>
      <use xlink:href="#DejaVuSans-73"/>
      <use xlink:href="#DejaVuSans-74" x="52.099609"/>
      <use xlink:href="#DejaVuSans-61" x="91.308594"/>
      <use xlink:href="#DejaVuSans-72" x="152.587891"/>
     </g>
    </g>
    <g id="line2d_42">
     <path d="M 815.08 343.176562 
L 825.08 343.176562 
L 835.08 343.176562 
" style="fill: none; stroke: #ff7f0e; stroke-width: 1.5; stroke-linecap: square"/>
    </g>
    <g id="text_22">
     <!-- fork -->
     <g style="fill: #a9a9a9" transform="translate(843.08 346.676562) scale(0.1 -0.1)">
      <defs>
       <path id="DejaVuSans-66" d="M 2375 4863 
L 2375 4384 
L 1825 4384 
Q 1516 4384 1395 4259 
Q 1275 4134 1275 3809 
L 1275 3500 
L 2222 3500 
L 2222 3053 
L 1275 3053 
L 1275 0 
L 697 0 
L 697 3053 
L 147 3053 
L 147 3500 
L 697 3500 
L 697 3744 
Q 697 4328 969 4595 
Q 1241 4863 1831 4863 
L 2375 4863 
z
" transform="scale(0.015625)"/>
       <path id="DejaVuSans-6b" d="M 581 4863 
L 1159 4863 
L 1159 1991 
L 2875 3500 
L 3609 3500 
L 1753 1863 
L 3688 0 
L 2938 0 
L 1159 1709 
L 1159 0 
L 581 0 
L 581 4863 
z
" transform="scale(0.015625)"/>
      </defs>
      <use xlink:href="#DejaVuSans-66"/>
      <use xlink:href="#DejaVuSans-6f" x="35.205078"/>
      <use xlink:href="#DejaVuSans-72" x="96.386719"/>
      <use xlink:href="#DejaVuSans-6b" x="137.5"/>
     </g>
    </g>
   </g>
  </g>
 </g>
 <defs>
  <clipPath id="p384a521e7e">
   <rect x="108" y="43.2" width="669.6" height="277.2"/>
  </clipPath>
 </defs>
</svg>
