<?xml version="1.0" encoding="utf-8" standalone="no"?>
<!DOCTYPE svg PUBLIC "-//W3C//DTD SVG 1.1//EN"
  "http://www.w3.org/Graphics/SVG/1.1/DTD/svg11.dtd">
<svg xmlns:xlink="http://www.w3.org/1999/xlink" width="864pt" height="360pt" viewBox="0 0 864 360" xmlns="http://www.w3.org/2000/svg" version="1.1">
 <metadata>
  <rdf:RDF xmlns:dc="http://purl.org/dc/elements/1.1/" xmlns:cc="http://creativecommons.org/ns#" xmlns:rdf="http://www.w3.org/1999/02/22-rdf-syntax-ns#">
   <cc:Work>
    <dc:type rdf:resource="http://purl.org/dc/dcmitype/StillImage"/>
    <dc:date>2024-09-20T20:05:45.993468</dc:date>
    <dc:format>image/svg+xml</dc:format>
    <dc:creator>
     <cc:Agent>
      <dc:title>Matplotlib v3.9.2, https://matplotlib.org/</dc:title>
     </cc:Agent>
    </dc:creator>
   </cc:Work>
  </rdf:RDF>
 </metadata>
 <defs>
  <style type="text/css">*{stroke-linejoin: round; stroke-linecap: butt}</style>
 </defs>
 <g id="figure_1">
  <g id="patch_1">
   <path d="M 0 360 
L 864 360 
L 864 0 
L 0 0 
L 0 360 
z
" style="fill: none; opacity: 0"/>
  </g>
  <g id="axes_1">
   <g id="patch_2">
    <path d="M 108 320.4 
L 777.6 320.4 
L 777.6 43.2 
L 108 43.2 
L 108 320.4 
z
" style="fill: none; opacity: 0"/>
   </g>
   <g id="matplotlib.axis_1">
    <g id="xtick_1">
     <g id="line2d_1">
      <path d="M 159.008602 320.4 
L 159.008602 43.2 
" clip-path="url(#p4a47a2f10e)" style="fill: none; stroke-dasharray: 5.12,1.28,0.8,1.28; stroke-dashoffset: 0; stroke: #b0b0b0; stroke-width: 0.8"/>
     </g>
     <g id="line2d_2">
      <defs>
       <path id="m3775399d92" d="M 0 0 
L 0 3.5 
" style="stroke: #a9a9a9; stroke-width: 0.8"/>
      </defs>
      <g>
       <use xlink:href="#m3775399d92" x="159.008602" y="320.4" style="fill: #a9a9a9; stroke: #a9a9a9; stroke-width: 0.8"/>
      </g>
     </g>
     <g id="text_1">
      <!-- 2021-09 -->
      <g style="fill: #a9a9a9" transform="translate(138.117196 334.998438) scale(0.1 -0.1)">
       <defs>
        <path id="DejaVuSans-32" d="M 1228 531 
L 3431 531 
L 3431 0 
L 469 0 
L 469 531 
Q 828 903 1448 1529 
Q 2069 2156 2228 2338 
Q 2531 2678 2651 2914 
Q 2772 3150 2772 3378 
Q 2772 3750 2511 3984 
Q 2250 4219 1831 4219 
Q 1534 4219 1204 4116 
Q 875 4013 500 3803 
L 500 4441 
Q 881 4594 1212 4672 
Q 1544 4750 1819 4750 
Q 2544 4750 2975 4387 
Q 3406 4025 3406 3419 
Q 3406 3131 3298 2873 
Q 3191 2616 2906 2266 
Q 2828 2175 2409 1742 
Q 1991 1309 1228 531 
z
" transform="scale(0.015625)"/>
        <path id="DejaVuSans-30" d="M 2034 4250 
Q 1547 4250 1301 3770 
Q 1056 3291 1056 2328 
Q 1056 1369 1301 889 
Q 1547 409 2034 409 
Q 2525 409 2770 889 
Q 3016 1369 3016 2328 
Q 3016 3291 2770 3770 
Q 2525 4250 2034 4250 
z
M 2034 4750 
Q 2819 4750 3233 4129 
Q 3647 3509 3647 2328 
Q 3647 1150 3233 529 
Q 2819 -91 2034 -91 
Q 1250 -91 836 529 
Q 422 1150 422 2328 
Q 422 3509 836 4129 
Q 1250 4750 2034 4750 
z
" transform="scale(0.015625)"/>
        <path id="DejaVuSans-31" d="M 794 531 
L 1825 531 
L 1825 4091 
L 703 3866 
L 703 4441 
L 1819 4666 
L 2450 4666 
L 2450 531 
L 3481 531 
L 3481 0 
L 794 0 
L 794 531 
z
" transform="scale(0.015625)"/>
        <path id="DejaVuSans-2d" d="M 313 2009 
L 1997 2009 
L 1997 1497 
L 313 1497 
L 313 2009 
z
" transform="scale(0.015625)"/>
        <path id="DejaVuSans-39" d="M 703 97 
L 703 672 
Q 941 559 1184 500 
Q 1428 441 1663 441 
Q 2288 441 2617 861 
Q 2947 1281 2994 2138 
Q 2813 1869 2534 1725 
Q 2256 1581 1919 1581 
Q 1219 1581 811 2004 
Q 403 2428 403 3163 
Q 403 3881 828 4315 
Q 1253 4750 1959 4750 
Q 2769 4750 3195 4129 
Q 3622 3509 3622 2328 
Q 3622 1225 3098 567 
Q 2575 -91 1691 -91 
Q 1453 -91 1209 -44 
Q 966 3 703 97 
z
M 1959 2075 
Q 2384 2075 2632 2365 
Q 2881 2656 2881 3163 
Q 2881 3666 2632 3958 
Q 2384 4250 1959 4250 
Q 1534 4250 1286 3958 
Q 1038 3666 1038 3163 
Q 1038 2656 1286 2365 
Q 1534 2075 1959 2075 
z
" transform="scale(0.015625)"/>
       </defs>
       <use xlink:href="#DejaVuSans-32"/>
       <use xlink:href="#DejaVuSans-30" x="63.623047"/>
       <use xlink:href="#DejaVuSans-32" x="127.246094"/>
       <use xlink:href="#DejaVuSans-31" x="190.869141"/>
       <use xlink:href="#DejaVuSans-2d" x="254.492188"/>
       <use xlink:href="#DejaVuSans-30" x="290.576172"/>
       <use xlink:href="#DejaVuSans-39" x="354.199219"/>
      </g>
     </g>
    </g>
    <g id="xtick_2">
     <g id="line2d_3">
      <path d="M 223.362786 320.4 
L 223.362786 43.2 
" clip-path="url(#p4a47a2f10e)" style="fill: none; stroke-dasharray: 5.12,1.28,0.8,1.28; stroke-dashoffset: 0; stroke: #b0b0b0; stroke-width: 0.8"/>
     </g>
     <g id="line2d_4">
      <g>
       <use xlink:href="#m3775399d92" x="223.362786" y="320.4" style="fill: #a9a9a9; stroke: #a9a9a9; stroke-width: 0.8"/>
      </g>
     </g>
     <g id="text_2">
      <!-- 2022-01 -->
      <g style="fill: #a9a9a9" transform="translate(202.471379 334.998438) scale(0.1 -0.1)">
       <use xlink:href="#DejaVuSans-32"/>
       <use xlink:href="#DejaVuSans-30" x="63.623047"/>
       <use xlink:href="#DejaVuSans-32" x="127.246094"/>
       <use xlink:href="#DejaVuSans-32" x="190.869141"/>
       <use xlink:href="#DejaVuSans-2d" x="254.492188"/>
       <use xlink:href="#DejaVuSans-30" x="290.576172"/>
       <use xlink:href="#DejaVuSans-31" x="354.199219"/>
      </g>
     </g>
    </g>
    <g id="xtick_3">
     <g id="line2d_5">
      <path d="M 286.661982 320.4 
L 286.661982 43.2 
" clip-path="url(#p4a47a2f10e)" style="fill: none; stroke-dasharray: 5.12,1.28,0.8,1.28; stroke-dashoffset: 0; stroke: #b0b0b0; stroke-width: 0.8"/>
     </g>
     <g id="line2d_6">
      <g>
       <use xlink:href="#m3775399d92" x="286.661982" y="320.4" style="fill: #a9a9a9; stroke: #a9a9a9; stroke-width: 0.8"/>
      </g>
     </g>
     <g id="text_3">
      <!-- 2022-05 -->
      <g style="fill: #a9a9a9" transform="translate(265.770576 334.998438) scale(0.1 -0.1)">
       <defs>
        <path id="DejaVuSans-35" d="M 691 4666 
L 3169 4666 
L 3169 4134 
L 1269 4134 
L 1269 2991 
Q 1406 3038 1543 3061 
Q 1681 3084 1819 3084 
Q 2600 3084 3056 2656 
Q 3513 2228 3513 1497 
Q 3513 744 3044 326 
Q 2575 -91 1722 -91 
Q 1428 -91 1123 -41 
Q 819 9 494 109 
L 494 744 
Q 775 591 1075 516 
Q 1375 441 1709 441 
Q 2250 441 2565 725 
Q 2881 1009 2881 1497 
Q 2881 1984 2565 2268 
Q 2250 2553 1709 2553 
Q 1456 2553 1204 2497 
Q 953 2441 691 2322 
L 691 4666 
z
" transform="scale(0.015625)"/>
       </defs>
       <use xlink:href="#DejaVuSans-32"/>
       <use xlink:href="#DejaVuSans-30" x="63.623047"/>
       <use xlink:href="#DejaVuSans-32" x="127.246094"/>
       <use xlink:href="#DejaVuSans-32" x="190.869141"/>
       <use xlink:href="#DejaVuSans-2d" x="254.492188"/>
       <use xlink:href="#DejaVuSans-30" x="290.576172"/>
       <use xlink:href="#DejaVuSans-35" x="354.199219"/>
      </g>
     </g>
    </g>
    <g id="xtick_4">
     <g id="line2d_7">
      <path d="M 351.543658 320.4 
L 351.543658 43.2 
" clip-path="url(#p4a47a2f10e)" style="fill: none; stroke-dasharray: 5.12,1.28,0.8,1.28; stroke-dashoffset: 0; stroke: #b0b0b0; stroke-width: 0.8"/>
     </g>
     <g id="line2d_8">
      <g>
       <use xlink:href="#m3775399d92" x="351.543658" y="320.4" style="fill: #a9a9a9; stroke: #a9a9a9; stroke-width: 0.8"/>
      </g>
     </g>
     <g id="text_4">
      <!-- 2022-09 -->
      <g style="fill: #a9a9a9" transform="translate(330.652252 334.998438) scale(0.1 -0.1)">
       <use xlink:href="#DejaVuSans-32"/>
       <use xlink:href="#DejaVuSans-30" x="63.623047"/>
       <use xlink:href="#DejaVuSans-32" x="127.246094"/>
       <use xlink:href="#DejaVuSans-32" x="190.869141"/>
       <use xlink:href="#DejaVuSans-2d" x="254.492188"/>
       <use xlink:href="#DejaVuSans-30" x="290.576172"/>
       <use xlink:href="#DejaVuSans-39" x="354.199219"/>
      </g>
     </g>
    </g>
    <g id="xtick_5">
     <g id="line2d_9">
      <path d="M 415.897841 320.4 
L 415.897841 43.2 
" clip-path="url(#p4a47a2f10e)" style="fill: none; stroke-dasharray: 5.12,1.28,0.8,1.28; stroke-dashoffset: 0; stroke: #b0b0b0; stroke-width: 0.8"/>
     </g>
     <g id="line2d_10">
      <g>
       <use xlink:href="#m3775399d92" x="415.897841" y="320.4" style="fill: #a9a9a9; stroke: #a9a9a9; stroke-width: 0.8"/>
      </g>
     </g>
     <g id="text_5">
      <!-- 2023-01 -->
      <g style="fill: #a9a9a9" transform="translate(395.006435 334.998438) scale(0.1 -0.1)">
       <defs>
        <path id="DejaVuSans-33" d="M 2597 2516 
Q 3050 2419 3304 2112 
Q 3559 1806 3559 1356 
Q 3559 666 3084 287 
Q 2609 -91 1734 -91 
Q 1441 -91 1130 -33 
Q 819 25 488 141 
L 488 750 
Q 750 597 1062 519 
Q 1375 441 1716 441 
Q 2309 441 2620 675 
Q 2931 909 2931 1356 
Q 2931 1769 2642 2001 
Q 2353 2234 1838 2234 
L 1294 2234 
L 1294 2753 
L 1863 2753 
Q 2328 2753 2575 2939 
Q 2822 3125 2822 3475 
Q 2822 3834 2567 4026 
Q 2313 4219 1838 4219 
Q 1578 4219 1281 4162 
Q 984 4106 628 3988 
L 628 4550 
Q 988 4650 1302 4700 
Q 1616 4750 1894 4750 
Q 2613 4750 3031 4423 
Q 3450 4097 3450 3541 
Q 3450 3153 3228 2886 
Q 3006 2619 2597 2516 
z
" transform="scale(0.015625)"/>
       </defs>
       <use xlink:href="#DejaVuSans-32"/>
       <use xlink:href="#DejaVuSans-30" x="63.623047"/>
       <use xlink:href="#DejaVuSans-32" x="127.246094"/>
       <use xlink:href="#DejaVuSans-33" x="190.869141"/>
       <use xlink:href="#DejaVuSans-2d" x="254.492188"/>
       <use xlink:href="#DejaVuSans-30" x="290.576172"/>
       <use xlink:href="#DejaVuSans-31" x="354.199219"/>
      </g>
     </g>
    </g>
    <g id="xtick_6">
     <g id="line2d_11">
      <path d="M 479.197038 320.4 
L 479.197038 43.2 
" clip-path="url(#p4a47a2f10e)" style="fill: none; stroke-dasharray: 5.12,1.28,0.8,1.28; stroke-dashoffset: 0; stroke: #b0b0b0; stroke-width: 0.8"/>
     </g>
     <g id="line2d_12">
      <g>
       <use xlink:href="#m3775399d92" x="479.197038" y="320.4" style="fill: #a9a9a9; stroke: #a9a9a9; stroke-width: 0.8"/>
      </g>
     </g>
     <g id="text_6">
      <!-- 2023-05 -->
      <g style="fill: #a9a9a9" transform="translate(458.305632 334.998438) scale(0.1 -0.1)">
       <use xlink:href="#DejaVuSans-32"/>
       <use xlink:href="#DejaVuSans-30" x="63.623047"/>
       <use xlink:href="#DejaVuSans-32" x="127.246094"/>
       <use xlink:href="#DejaVuSans-33" x="190.869141"/>
       <use xlink:href="#DejaVuSans-2d" x="254.492188"/>
       <use xlink:href="#DejaVuSans-30" x="290.576172"/>
       <use xlink:href="#DejaVuSans-35" x="354.199219"/>
      </g>
     </g>
    </g>
    <g id="xtick_7">
     <g id="line2d_13">
      <path d="M 544.078714 320.4 
L 544.078714 43.2 
" clip-path="url(#p4a47a2f10e)" style="fill: none; stroke-dasharray: 5.12,1.28,0.8,1.28; stroke-dashoffset: 0; stroke: #b0b0b0; stroke-width: 0.8"/>
     </g>
     <g id="line2d_14">
      <g>
       <use xlink:href="#m3775399d92" x="544.078714" y="320.4" style="fill: #a9a9a9; stroke: #a9a9a9; stroke-width: 0.8"/>
      </g>
     </g>
     <g id="text_7">
      <!-- 2023-09 -->
      <g style="fill: #a9a9a9" transform="translate(523.187308 334.998438) scale(0.1 -0.1)">
       <use xlink:href="#DejaVuSans-32"/>
       <use xlink:href="#DejaVuSans-30" x="63.623047"/>
       <use xlink:href="#DejaVuSans-32" x="127.246094"/>
       <use xlink:href="#DejaVuSans-33" x="190.869141"/>
       <use xlink:href="#DejaVuSans-2d" x="254.492188"/>
       <use xlink:href="#DejaVuSans-30" x="290.576172"/>
       <use xlink:href="#DejaVuSans-39" x="354.199219"/>
      </g>
     </g>
    </g>
    <g id="xtick_8">
     <g id="line2d_15">
      <path d="M 608.432897 320.4 
L 608.432897 43.2 
" clip-path="url(#p4a47a2f10e)" style="fill: none; stroke-dasharray: 5.12,1.28,0.8,1.28; stroke-dashoffset: 0; stroke: #b0b0b0; stroke-width: 0.8"/>
     </g>
     <g id="line2d_16">
      <g>
       <use xlink:href="#m3775399d92" x="608.432897" y="320.4" style="fill: #a9a9a9; stroke: #a9a9a9; stroke-width: 0.8"/>
      </g>
     </g>
     <g id="text_8">
      <!-- 2024-01 -->
      <g style="fill: #a9a9a9" transform="translate(587.541491 334.998438) scale(0.1 -0.1)">
       <defs>
        <path id="DejaVuSans-34" d="M 2419 4116 
L 825 1625 
L 2419 1625 
L 2419 4116 
z
M 2253 4666 
L 3047 4666 
L 3047 1625 
L 3713 1625 
L 3713 1100 
L 3047 1100 
L 3047 0 
L 2419 0 
L 2419 1100 
L 313 1100 
L 313 1709 
L 2253 4666 
z
" transform="scale(0.015625)"/>
       </defs>
       <use xlink:href="#DejaVuSans-32"/>
       <use xlink:href="#DejaVuSans-30" x="63.623047"/>
       <use xlink:href="#DejaVuSans-32" x="127.246094"/>
       <use xlink:href="#DejaVuSans-34" x="190.869141"/>
       <use xlink:href="#DejaVuSans-2d" x="254.492188"/>
       <use xlink:href="#DejaVuSans-30" x="290.576172"/>
       <use xlink:href="#DejaVuSans-31" x="354.199219"/>
      </g>
     </g>
    </g>
    <g id="xtick_9">
     <g id="line2d_17">
      <path d="M 672.259587 320.4 
L 672.259587 43.2 
" clip-path="url(#p4a47a2f10e)" style="fill: none; stroke-dasharray: 5.12,1.28,0.8,1.28; stroke-dashoffset: 0; stroke: #b0b0b0; stroke-width: 0.8"/>
     </g>
     <g id="line2d_18">
      <g>
       <use xlink:href="#m3775399d92" x="672.259587" y="320.4" style="fill: #a9a9a9; stroke: #a9a9a9; stroke-width: 0.8"/>
      </g>
     </g>
     <g id="text_9">
      <!-- 2024-05 -->
      <g style="fill: #a9a9a9" transform="translate(651.368181 334.998438) scale(0.1 -0.1)">
       <use xlink:href="#DejaVuSans-32"/>
       <use xlink:href="#DejaVuSans-30" x="63.623047"/>
       <use xlink:href="#DejaVuSans-32" x="127.246094"/>
       <use xlink:href="#DejaVuSans-34" x="190.869141"/>
       <use xlink:href="#DejaVuSans-2d" x="254.492188"/>
       <use xlink:href="#DejaVuSans-30" x="290.576172"/>
       <use xlink:href="#DejaVuSans-35" x="354.199219"/>
      </g>
     </g>
    </g>
    <g id="xtick_10">
     <g id="line2d_19">
      <path d="M 737.141264 320.4 
L 737.141264 43.2 
" clip-path="url(#p4a47a2f10e)" style="fill: none; stroke-dasharray: 5.12,1.28,0.8,1.28; stroke-dashoffset: 0; stroke: #b0b0b0; stroke-width: 0.8"/>
     </g>
     <g id="line2d_20">
      <g>
       <use xlink:href="#m3775399d92" x="737.141264" y="320.4" style="fill: #a9a9a9; stroke: #a9a9a9; stroke-width: 0.8"/>
      </g>
     </g>
     <g id="text_10">
      <!-- 2024-09 -->
      <g style="fill: #a9a9a9" transform="translate(716.249857 334.998438) scale(0.1 -0.1)">
       <use xlink:href="#DejaVuSans-32"/>
       <use xlink:href="#DejaVuSans-30" x="63.623047"/>
       <use xlink:href="#DejaVuSans-32" x="127.246094"/>
       <use xlink:href="#DejaVuSans-34" x="190.869141"/>
       <use xlink:href="#DejaVuSans-2d" x="254.492188"/>
       <use xlink:href="#DejaVuSans-30" x="290.576172"/>
       <use xlink:href="#DejaVuSans-39" x="354.199219"/>
      </g>
     </g>
    </g>
   </g>
   <g id="matplotlib.axis_2">
    <g id="ytick_1">
     <g id="line2d_21">
      <path d="M 108 307.837573 
L 777.6 307.837573 
" clip-path="url(#p4a47a2f10e)" style="fill: none; stroke-dasharray: 5.12,1.28,0.8,1.28; stroke-dashoffset: 0; stroke: #b0b0b0; stroke-width: 0.8"/>
     </g>
     <g id="line2d_22">
      <defs>
       <path id="m6d3d204c86" d="M 0 0 
L -3.5 0 
" style="stroke: #a9a9a9; stroke-width: 0.8"/>
      </defs>
      <g>
       <use xlink:href="#m6d3d204c86" x="108" y="307.837573" style="fill: #a9a9a9; stroke: #a9a9a9; stroke-width: 0.8"/>
      </g>
     </g>
     <g id="text_11">
      <!-- 0 -->
      <g style="fill: #a9a9a9" transform="translate(94.6375 311.636791) scale(0.1 -0.1)">
       <use xlink:href="#DejaVuSans-30"/>
      </g>
     </g>
    </g>
    <g id="ytick_2">
     <g id="line2d_23">
      <path d="M 108 277.779424 
L 777.6 277.779424 
" clip-path="url(#p4a47a2f10e)" style="fill: none; stroke-dasharray: 5.12,1.28,0.8,1.28; stroke-dashoffset: 0; stroke: #b0b0b0; stroke-width: 0.8"/>
     </g>
     <g id="line2d_24">
      <g>
       <use xlink:href="#m6d3d204c86" x="108" y="277.779424" style="fill: #a9a9a9; stroke: #a9a9a9; stroke-width: 0.8"/>
      </g>
     </g>
     <g id="text_12">
      <!-- 800 -->
      <g style="fill: #a9a9a9" transform="translate(81.9125 281.578643) scale(0.1 -0.1)">
       <defs>
        <path id="DejaVuSans-38" d="M 2034 2216 
Q 1584 2216 1326 1975 
Q 1069 1734 1069 1313 
Q 1069 891 1326 650 
Q 1584 409 2034 409 
Q 2484 409 2743 651 
Q 3003 894 3003 1313 
Q 3003 1734 2745 1975 
Q 2488 2216 2034 2216 
z
M 1403 2484 
Q 997 2584 770 2862 
Q 544 3141 544 3541 
Q 544 4100 942 4425 
Q 1341 4750 2034 4750 
Q 2731 4750 3128 4425 
Q 3525 4100 3525 3541 
Q 3525 3141 3298 2862 
Q 3072 2584 2669 2484 
Q 3125 2378 3379 2068 
Q 3634 1759 3634 1313 
Q 3634 634 3220 271 
Q 2806 -91 2034 -91 
Q 1263 -91 848 271 
Q 434 634 434 1313 
Q 434 1759 690 2068 
Q 947 2378 1403 2484 
z
M 1172 3481 
Q 1172 3119 1398 2916 
Q 1625 2713 2034 2713 
Q 2441 2713 2670 2916 
Q 2900 3119 2900 3481 
Q 2900 3844 2670 4047 
Q 2441 4250 2034 4250 
Q 1625 4250 1398 4047 
Q 1172 3844 1172 3481 
z
" transform="scale(0.015625)"/>
       </defs>
       <use xlink:href="#DejaVuSans-38"/>
       <use xlink:href="#DejaVuSans-30" x="63.623047"/>
       <use xlink:href="#DejaVuSans-30" x="127.246094"/>
      </g>
     </g>
    </g>
    <g id="ytick_3">
     <g id="line2d_25">
      <path d="M 108 247.721276 
L 777.6 247.721276 
" clip-path="url(#p4a47a2f10e)" style="fill: none; stroke-dasharray: 5.12,1.28,0.8,1.28; stroke-dashoffset: 0; stroke: #b0b0b0; stroke-width: 0.8"/>
     </g>
     <g id="line2d_26">
      <g>
       <use xlink:href="#m6d3d204c86" x="108" y="247.721276" style="fill: #a9a9a9; stroke: #a9a9a9; stroke-width: 0.8"/>
      </g>
     </g>
     <g id="text_13">
      <!-- 1600 -->
      <g style="fill: #a9a9a9" transform="translate(75.55 251.520495) scale(0.1 -0.1)">
       <defs>
        <path id="DejaVuSans-36" d="M 2113 2584 
Q 1688 2584 1439 2293 
Q 1191 2003 1191 1497 
Q 1191 994 1439 701 
Q 1688 409 2113 409 
Q 2538 409 2786 701 
Q 3034 994 3034 1497 
Q 3034 2003 2786 2293 
Q 2538 2584 2113 2584 
z
M 3366 4563 
L 3366 3988 
Q 3128 4100 2886 4159 
Q 2644 4219 2406 4219 
Q 1781 4219 1451 3797 
Q 1122 3375 1075 2522 
Q 1259 2794 1537 2939 
Q 1816 3084 2150 3084 
Q 2853 3084 3261 2657 
Q 3669 2231 3669 1497 
Q 3669 778 3244 343 
Q 2819 -91 2113 -91 
Q 1303 -91 875 529 
Q 447 1150 447 2328 
Q 447 3434 972 4092 
Q 1497 4750 2381 4750 
Q 2619 4750 2861 4703 
Q 3103 4656 3366 4563 
z
" transform="scale(0.015625)"/>
       </defs>
       <use xlink:href="#DejaVuSans-31"/>
       <use xlink:href="#DejaVuSans-36" x="63.623047"/>
       <use xlink:href="#DejaVuSans-30" x="127.246094"/>
       <use xlink:href="#DejaVuSans-30" x="190.869141"/>
      </g>
     </g>
    </g>
    <g id="ytick_4">
     <g id="line2d_27">
      <path d="M 108 217.663128 
L 777.6 217.663128 
" clip-path="url(#p4a47a2f10e)" style="fill: none; stroke-dasharray: 5.12,1.28,0.8,1.28; stroke-dashoffset: 0; stroke: #b0b0b0; stroke-width: 0.8"/>
     </g>
     <g id="line2d_28">
      <g>
       <use xlink:href="#m6d3d204c86" x="108" y="217.663128" style="fill: #a9a9a9; stroke: #a9a9a9; stroke-width: 0.8"/>
      </g>
     </g>
     <g id="text_14">
      <!-- 2400 -->
      <g style="fill: #a9a9a9" transform="translate(75.55 221.462347) scale(0.1 -0.1)">
       <use xlink:href="#DejaVuSans-32"/>
       <use xlink:href="#DejaVuSans-34" x="63.623047"/>
       <use xlink:href="#DejaVuSans-30" x="127.246094"/>
       <use xlink:href="#DejaVuSans-30" x="190.869141"/>
      </g>
     </g>
    </g>
    <g id="ytick_5">
     <g id="line2d_29">
      <path d="M 108 187.60498 
L 777.6 187.60498 
" clip-path="url(#p4a47a2f10e)" style="fill: none; stroke-dasharray: 5.12,1.28,0.8,1.28; stroke-dashoffset: 0; stroke: #b0b0b0; stroke-width: 0.8"/>
     </g>
     <g id="line2d_30">
      <g>
       <use xlink:href="#m6d3d204c86" x="108" y="187.60498" style="fill: #a9a9a9; stroke: #a9a9a9; stroke-width: 0.8"/>
      </g>
     </g>
     <g id="text_15">
      <!-- 3200 -->
      <g style="fill: #a9a9a9" transform="translate(75.55 191.404199) scale(0.1 -0.1)">
       <use xlink:href="#DejaVuSans-33"/>
       <use xlink:href="#DejaVuSans-32" x="63.623047"/>
       <use xlink:href="#DejaVuSans-30" x="127.246094"/>
       <use xlink:href="#DejaVuSans-30" x="190.869141"/>
      </g>
     </g>
    </g>
    <g id="ytick_6">
     <g id="line2d_31">
      <path d="M 108 157.546832 
L 777.6 157.546832 
" clip-path="url(#p4a47a2f10e)" style="fill: none; stroke-dasharray: 5.12,1.28,0.8,1.28; stroke-dashoffset: 0; stroke: #b0b0b0; stroke-width: 0.8"/>
     </g>
     <g id="line2d_32">
      <g>
       <use xlink:href="#m6d3d204c86" x="108" y="157.546832" style="fill: #a9a9a9; stroke: #a9a9a9; stroke-width: 0.8"/>
      </g>
     </g>
     <g id="text_16">
      <!-- 4000 -->
      <g style="fill: #a9a9a9" transform="translate(75.55 161.34605) scale(0.1 -0.1)">
       <use xlink:href="#DejaVuSans-34"/>
       <use xlink:href="#DejaVuSans-30" x="63.623047"/>
       <use xlink:href="#DejaVuSans-30" x="127.246094"/>
       <use xlink:href="#DejaVuSans-30" x="190.869141"/>
      </g>
     </g>
    </g>
    <g id="ytick_7">
     <g id="line2d_33">
      <path d="M 108 127.488683 
L 777.6 127.488683 
" clip-path="url(#p4a47a2f10e)" style="fill: none; stroke-dasharray: 5.12,1.28,0.8,1.28; stroke-dashoffset: 0; stroke: #b0b0b0; stroke-width: 0.8"/>
     </g>
     <g id="line2d_34">
      <g>
       <use xlink:href="#m6d3d204c86" x="108" y="127.488683" style="fill: #a9a9a9; stroke: #a9a9a9; stroke-width: 0.8"/>
      </g>
     </g>
     <g id="text_17">
      <!-- 4800 -->
      <g style="fill: #a9a9a9" transform="translate(75.55 131.287902) scale(0.1 -0.1)">
       <use xlink:href="#DejaVuSans-34"/>
       <use xlink:href="#DejaVuSans-38" x="63.623047"/>
       <use xlink:href="#DejaVuSans-30" x="127.246094"/>
       <use xlink:href="#DejaVuSans-30" x="190.869141"/>
      </g>
     </g>
    </g>
    <g id="ytick_8">
     <g id="line2d_35">
      <path d="M 108 97.430535 
L 777.6 97.430535 
" clip-path="url(#p4a47a2f10e)" style="fill: none; stroke-dasharray: 5.12,1.28,0.8,1.28; stroke-dashoffset: 0; stroke: #b0b0b0; stroke-width: 0.8"/>
     </g>
     <g id="line2d_36">
      <g>
       <use xlink:href="#m6d3d204c86" x="108" y="97.430535" style="fill: #a9a9a9; stroke: #a9a9a9; stroke-width: 0.8"/>
      </g>
     </g>
     <g id="text_18">
      <!-- 5600 -->
      <g style="fill: #a9a9a9" transform="translate(75.55 101.229754) scale(0.1 -0.1)">
       <use xlink:href="#DejaVuSans-35"/>
       <use xlink:href="#DejaVuSans-36" x="63.623047"/>
       <use xlink:href="#DejaVuSans-30" x="127.246094"/>
       <use xlink:href="#DejaVuSans-30" x="190.869141"/>
      </g>
     </g>
    </g>
    <g id="ytick_9">
     <g id="line2d_37">
      <path d="M 108 67.372387 
L 777.6 67.372387 
" clip-path="url(#p4a47a2f10e)" style="fill: none; stroke-dasharray: 5.12,1.28,0.8,1.28; stroke-dashoffset: 0; stroke: #b0b0b0; stroke-width: 0.8"/>
     </g>
     <g id="line2d_38">
      <g>
       <use xlink:href="#m6d3d204c86" x="108" y="67.372387" style="fill: #a9a9a9; stroke: #a9a9a9; stroke-width: 0.8"/>
      </g>
     </g>
     <g id="text_19">
      <!-- 6400 -->
      <g style="fill: #a9a9a9" transform="translate(75.55 71.171606) scale(0.1 -0.1)">
       <use xlink:href="#DejaVuSans-36"/>
       <use xlink:href="#DejaVuSans-34" x="63.623047"/>
       <use xlink:href="#DejaVuSans-30" x="127.246094"/>
       <use xlink:href="#DejaVuSans-30" x="190.869141"/>
      </g>
     </g>
    </g>
   </g>
   <g id="line2d_39">
    <path d="M 138.436364 307.724855 
L 141.601323 307.461846 
L 142.128817 307.23641 
L 143.711297 307.086119 
L 147.40375 306.409811 
L 150.041216 306.184375 
L 151.096203 305.771075 
L 151.623696 305.094767 
L 152.15119 304.71904 
L 152.678683 303.554287 
L 153.206176 303.479141 
L 153.733669 303.065842 
L 154.788656 302.539824 
L 156.898629 300.886626 
L 159.008602 299.872163 
L 160.591082 299.158282 
L 161.118576 298.331683 
L 162.173562 297.58023 
L 162.701056 297.354793 
L 167.975989 296.60334 
L 168.503482 296.377904 
L 172.195935 296.077322 
L 174.305908 295.588877 
L 178.525855 295.025287 
L 179.053348 294.724706 
L 179.580841 294.64956 
L 180.635828 294.311406 
L 184.328281 293.710243 
L 185.383268 293.409662 
L 186.965748 293.259371 
L 188.020734 293.146653 
L 190.658201 292.470344 
L 191.713187 292.395199 
L 192.768174 292.244908 
L 193.823161 292.019472 
L 194.350654 291.869181 
L 194.878147 291.1553 
L 196.460627 290.554137 
L 198.043107 290.140838 
L 198.5706 289.877829 
L 199.098094 289.840256 
L 201.73556 289.088803 
L 202.790547 289.013657 
L 203.31804 288.938512 
L 204.90052 288.450067 
L 207.010493 287.92405 
L 207.537986 287.698613 
L 208.06548 287.623468 
L 208.592973 287.360459 
L 213.867906 286.571433 
L 216.505373 285.819979 
L 217.032866 285.481825 
L 219.670332 284.617653 
L 220.725319 283.903772 
L 222.307799 283.603191 
L 232.330172 280.710094 
L 233.385158 280.296794 
L 234.440145 280.221649 
L 236.022625 279.770777 
L 236.550118 279.770777 
L 237.077611 279.545341 
L 238.132598 279.432623 
L 238.660091 279.244759 
L 239.715078 279.207187 
L 241.825051 278.944178 
L 242.880038 278.41816 
L 249.209957 275.600209 
L 249.737451 275.036618 
L 250.792437 273.458566 
L 251.319931 273.308275 
L 251.847424 273.308275 
L 252.902411 272.519249 
L 254.48489 271.993231 
L 255.012384 271.504786 
L 256.06737 271.091487 
L 257.122357 270.603042 
L 258.177344 269.100134 
L 258.704837 268.76198 
L 259.23233 267.860236 
L 259.759824 267.296645 
L 262.924783 265.643447 
L 263.97977 264.816848 
L 264.507263 264.478694 
L 265.034757 263.689668 
L 265.56225 262.524914 
L 266.089743 261.735888 
L 266.617236 261.322588 
L 267.14473 261.097152 
L 269.254703 259.293663 
L 270.30969 258.429492 
L 270.837183 257.978619 
L 271.364676 257.264738 
L 272.419663 256.325421 
L 274.529636 254.935232 
L 275.057129 254.48436 
L 276.112116 254.146205 
L 277.694596 253.244461 
L 279.277076 252.229999 
L 281.387049 250.351364 
L 282.442036 249.938065 
L 283.497022 249.224184 
L 284.024516 248.923602 
L 284.552009 248.848457 
L 288.244462 246.556523 
L 290.354435 245.429342 
L 290.881928 244.940898 
L 299.321821 242.010228 
L 300.376808 241.070911 
L 301.431795 240.582466 
L 302.486781 240.018876 
L 303.014274 239.718294 
L 304.069261 239.417713 
L 304.596754 239.079559 
L 305.124248 238.929268 
L 306.706728 237.914805 
L 309.344194 237.313642 
L 310.926674 236.411898 
L 311.454167 236.336753 
L 312.509154 236.073744 
L 313.036647 235.923453 
L 314.619127 234.721127 
L 316.7291 234.157537 
L 317.256594 233.744237 
L 320.421553 232.692202 
L 320.949047 232.654629 
L 322.531527 232.091039 
L 326.22398 230.775995 
L 327.278966 230.625704 
L 328.861446 230.099687 
L 331.498913 228.859788 
L 333.608886 227.732608 
L 337.828833 226.041837 
L 338.356326 225.966692 
L 339.411312 225.327956 
L 339.938806 225.25281 
L 342.048779 224.388639 
L 344.158752 224.088057 
L 345.213739 223.56204 
L 345.741232 223.111167 
L 346.268725 222.17185 
L 348.378699 221.60826 
L 349.961179 220.819234 
L 350.488672 220.706516 
L 354.708618 218.715163 
L 356.291098 218.377009 
L 357.346085 217.850992 
L 357.873578 217.625555 
L 358.401071 217.55041 
L 360.511045 216.611093 
L 362.093524 215.634203 
L 362.621018 215.559058 
L 363.148511 215.371194 
L 363.676004 215.333622 
L 366.313471 214.694886 
L 366.840964 214.281586 
L 368.423444 213.717996 
L 370.533417 212.891397 
L 371.060911 212.51567 
L 371.588404 212.327807 
L 372.643391 211.764216 
L 375.280857 210.900045 
L 376.863337 209.660146 
L 377.39083 209.547428 
L 378.445817 208.720829 
L 378.97331 208.645684 
L 379.500804 207.819085 
L 380.028297 207.593648 
L 380.55579 207.180349 
L 381.083283 207.105204 
L 382.13827 206.466468 
L 383.193257 206.128314 
L 383.72075 205.715014 
L 384.248243 205.527151 
L 385.830723 204.437543 
L 387.940696 203.347935 
L 388.46819 203.27279 
L 390.05067 202.483763 
L 390.578163 201.619591 
L 391.105656 201.168719 
L 391.63315 200.868138 
L 392.160643 200.75542 
L 393.215629 200.079111 
L 393.743123 199.966393 
L 394.798109 199.440376 
L 396.380589 198.764067 
L 397.435576 198.012614 
L 399.018056 196.584852 
L 400.073042 195.983689 
L 400.600536 195.420098 
L 402.710509 193.992336 
L 403.238002 193.391173 
L 403.765496 192.977874 
L 404.820482 192.602147 
L 405.875469 191.888266 
L 407.457949 191.09924 
L 407.985442 191.024094 
L 409.567922 190.197495 
L 410.622908 189.55876 
L 415.897841 187.680125 
L 416.425335 187.266826 
L 418.535308 186.477799 
L 419.062801 186.327509 
L 419.590295 185.914209 
L 422.227761 184.486447 
L 423.282748 182.419949 
L 424.337734 181.217623 
L 425.392721 180.578888 
L 426.975201 179.940152 
L 427.502694 179.865007 
L 428.030187 179.564425 
L 430.667654 178.737826 
L 431.195147 178.51239 
L 432.250134 177.798509 
L 433.832614 177.122201 
L 434.8876 176.55861 
L 435.415094 176.182884 
L 435.942587 175.957447 
L 436.47008 175.581721 
L 436.997574 175.01813 
L 438.05256 174.45454 
L 440.690027 173.064351 
L 443.854987 171.523871 
L 444.909973 171.185716 
L 446.492453 170.697272 
L 448.602426 169.757954 
L 449.657413 169.344655 
L 450.184906 168.931355 
L 451.239893 168.593201 
L 454.404853 166.977576 
L 455.459839 166.150977 
L 456.514826 165.77525 
L 457.042319 165.324378 
L 457.569813 165.249232 
L 458.624799 164.460206 
L 459.679786 163.934188 
L 460.207279 163.708752 
L 460.734772 163.182734 
L 464.427225 161.754972 
L 465.482212 161.3041 
L 467.064692 160.815655 
L 468.119679 160.665365 
L 468.647172 160.439928 
L 469.174665 160.364783 
L 470.229652 159.913911 
L 470.757145 159.876338 
L 472.867118 159.087312 
L 474.449598 157.997704 
L 477.087065 156.757805 
L 479.724531 155.330043 
L 480.252025 155.217325 
L 481.834504 154.315581 
L 483.416984 153.789563 
L 484.471971 153.451409 
L 486.581944 152.775101 
L 487.636931 152.436946 
L 489.219411 152.173938 
L 491.329384 151.497629 
L 491.856877 151.272193 
L 492.384371 151.197048 
L 492.911864 150.934039 
L 493.96685 150.746176 
L 495.54933 150.182585 
L 496.604317 150.069867 
L 498.186797 149.731713 
L 499.241784 149.54385 
L 500.29677 149.355986 
L 501.351757 149.13055 
L 504.516717 148.341524 
L 505.04421 148.040942 
L 507.681676 147.402207 
L 508.736663 147.064052 
L 514.539089 145.373282 
L 515.066583 144.847264 
L 516.121569 144.433965 
L 519.286529 143.306784 
L 519.814022 142.96863 
L 520.341516 142.855912 
L 520.869009 142.55533 
L 522.451489 142.104458 
L 523.506476 141.841449 
L 524.033969 141.503295 
L 524.561462 141.390577 
L 525.088955 140.939705 
L 526.671435 140.639123 
L 527.726422 140.150678 
L 528.253915 139.549515 
L 530.363888 139.061071 
L 534.056342 138.309617 
L 534.583835 138.309617 
L 535.111328 138.084181 
L 537.221301 137.708454 
L 537.748795 137.483018 
L 539.858768 137.107291 
L 540.913755 136.656419 
L 541.441248 136.618846 
L 550.408634 133.951185 
L 550.936127 133.725749 
L 551.463621 133.350022 
L 552.518607 133.049441 
L 553.573594 132.711287 
L 554.62858 132.297987 
L 556.21106 131.621679 
L 557.79354 131.508961 
L 559.903513 130.907798 
L 560.431007 130.569644 
L 561.485993 130.269062 
L 564.12346 129.104309 
L 564.650953 129.066736 
L 570.45338 127.075384 
L 573.090846 126.399076 
L 574.145833 125.910631 
L 575.200819 125.685195 
L 575.728313 125.572477 
L 576.255806 125.159177 
L 576.783299 124.896168 
L 577.310793 124.257433 
L 577.838286 123.881706 
L 578.893272 123.581124 
L 579.420766 123.167825 
L 582.058232 122.078217 
L 582.585726 121.965499 
L 583.113219 121.627345 
L 584.168205 121.326763 
L 584.695699 120.988609 
L 587.333165 120.124437 
L 588.915645 119.222693 
L 589.443138 119.109975 
L 590.498125 118.508812 
L 591.025618 118.283376 
L 592.080605 117.64464 
L 593.663085 116.893186 
L 594.190578 116.517459 
L 595.245565 116.179305 
L 596.300551 115.578142 
L 596.828045 115.390279 
L 597.355538 115.014552 
L 604.212951 112.647473 
L 604.740444 112.534755 
L 605.267938 112.196601 
L 605.795431 112.121455 
L 606.850418 111.858446 
L 607.905404 111.63301 
L 611.597857 109.829521 
L 612.125351 109.754376 
L 613.70783 108.890204 
L 616.87279 107.650306 
L 618.982764 106.823707 
L 619.510257 106.673416 
L 620.03775 106.335262 
L 621.092737 106.184971 
L 621.62023 105.846817 
L 622.147723 105.809244 
L 623.20271 105.47109 
L 624.257697 104.945072 
L 624.78519 104.869927 
L 627.422656 103.817892 
L 629.005136 103.36702 
L 630.060123 103.104011 
L 631.642603 102.653139 
L 632.697589 102.239839 
L 634.807563 101.112658 
L 635.862549 100.699359 
L 636.390043 100.361205 
L 637.445029 100.135769 
L 637.972522 99.835187 
L 638.500016 99.722469 
L 640.082496 98.89587 
L 641.137482 98.48257 
L 642.719962 97.768689 
L 644.302442 97.35539 
L 647.467402 96.115491 
L 649.049882 95.589474 
L 656.962281 92.207932 
L 657.489775 92.132787 
L 659.599748 91.34376 
L 661.182228 90.479588 
L 661.709721 90.36687 
L 662.764708 89.953571 
L 663.292201 89.953571 
L 664.347188 89.502699 
L 665.402174 88.563382 
L 665.929668 88.112509 
L 667.512147 87.361056 
L 668.039641 87.248338 
L 668.567134 86.985329 
L 669.094627 86.910183 
L 669.622121 86.534457 
L 670.149614 86.421738 
L 671.204601 85.783003 
L 672.787081 84.993976 
L 673.842067 84.580677 
L 674.36956 84.317668 
L 677.007027 83.678932 
L 677.53452 83.415924 
L 679.117 82.965051 
L 681.226973 81.950589 
L 682.28196 81.462144 
L 683.336947 81.199135 
L 685.44692 80.184673 
L 685.974413 80.034382 
L 686.501906 79.696228 
L 689.666866 78.569047 
L 691.249346 77.62973 
L 691.776839 77.517012 
L 692.831826 76.990994 
L 693.886813 76.615268 
L 694.414306 76.164395 
L 694.941799 75.863814 
L 696.524279 75.375369 
L 697.579266 74.661488 
L 698.106759 74.623915 
L 699.161746 74.323334 
L 700.216732 73.98518 
L 700.744226 73.722171 
L 701.271719 73.647025 
L 702.854199 73.083435 
L 704.436679 72.519845 
L 705.491665 72.106545 
L 706.019159 71.693246 
L 707.601639 71.279946 
L 708.129132 70.979365 
L 709.184118 70.716356 
L 710.766598 69.852184 
L 711.294092 69.814612 
L 712.876572 69.326167 
L 713.931558 69.213449 
L 714.986545 68.800149 
L 718.151505 67.898405 
L 719.206491 67.860832 
L 722.371451 66.846369 
L 722.898944 66.771224 
L 724.481424 65.944625 
L 725.008918 65.493753 
L 726.063904 64.89259 
L 727.646384 63.878127 
L 730.811344 62.788519 
L 731.338837 62.37522 
L 732.921317 61.661339 
L 733.44881 61.548621 
L 734.503797 61.060176 
L 736.086277 60.646876 
L 737.668757 59.970568 
L 738.723744 59.482123 
L 740.306223 58.843388 
L 740.833717 58.730669 
L 742.416197 57.979216 
L 742.94369 57.828925 
L 743.998677 57.115044 
L 745.581156 56.664172 
L 746.10865 56.288445 
L 747.163636 55.8 
L 747.163636 55.8 
" clip-path="url(#p4a47a2f10e)" style="fill: none; stroke: #1f77b4; stroke-width: 1.5; stroke-linecap: square"/>
   </g>
   <g id="line2d_40">
    <path d="M 138.963857 307.8 
L 140.546337 307.724855 
L 142.128817 307.687282 
L 145.293777 307.612137 
L 147.931243 307.499419 
L 150.041216 307.499419 
L 150.56871 307.349128 
L 152.678683 307.273982 
L 154.261163 307.086119 
L 155.843643 306.935828 
L 159.008602 306.785537 
L 159.536096 306.785537 
L 160.591082 306.672819 
L 163.756042 306.522529 
L 167.448495 306.447383 
L 170.085962 306.334665 
L 176.415882 306.25952 
L 179.053348 306.146802 
L 182.218308 306.071656 
L 184.328281 305.996511 
L 189.075721 305.921366 
L 190.658201 305.883793 
L 192.240681 305.84622 
L 193.823161 305.658357 
L 196.98812 305.620784 
L 198.043107 305.545639 
L 202.263053 305.470494 
L 207.537986 305.169912 
L 211.23044 305.094767 
L 212.285426 305.019621 
L 213.867906 304.944476 
L 217.032866 304.794185 
L 219.142839 304.756612 
L 220.725319 304.606322 
L 227.582732 304.193022 
L 230.220199 304.117877 
L 234.967638 303.854868 
L 236.550118 303.779723 
L 241.825051 303.479141 
L 247.627478 303.403996 
L 249.737451 303.17856 
L 250.792437 303.103414 
L 257.64985 302.539824 
L 260.81481 302.126525 
L 262.924783 302.051379 
L 267.14473 301.487789 
L 270.30969 301.412644 
L 271.89217 301.262353 
L 272.947156 301.22478 
L 274.002143 301.112062 
L 275.584623 301.036917 
L 277.167103 300.811481 
L 277.694596 300.811481 
L 279.277076 300.586044 
L 281.387049 300.510899 
L 282.442036 300.435754 
L 284.552009 300.360608 
L 285.606995 300.285463 
L 288.244462 300.022454 
L 289.299449 299.834591 
L 290.881928 299.797018 
L 291.936915 299.721873 
L 294.574382 299.646727 
L 301.431795 299.233428 
L 303.014274 299.158282 
L 309.871687 298.744983 
L 313.564141 298.669837 
L 314.619127 298.557119 
L 318.31158 298.481974 
L 322.004033 298.294111 
L 327.80646 298.218965 
L 331.498913 298.031102 
L 335.718859 297.955956 
L 339.938806 297.73052 
L 343.631259 297.655375 
L 353.653632 297.016639 
L 358.928565 296.941494 
L 361.038538 296.716058 
L 362.621018 296.678485 
L 364.203498 296.640912 
L 366.313471 296.415476 
L 371.588404 296.114895 
L 374.753364 296.03975 
L 376.335844 296.002177 
L 377.918324 295.964604 
L 379.500804 295.814313 
L 383.72075 295.739168 
L 384.775737 295.588877 
L 385.830723 295.513732 
L 388.46819 295.401014 
L 389.523176 295.325868 
L 390.578163 295.250723 
L 395.325603 295.175578 
L 396.380589 295.06286 
L 398.490562 295.025287 
L 399.545549 294.912569 
L 401.128029 294.724706 
L 402.183016 294.64956 
L 406.930455 294.386551 
L 407.985442 294.348979 
L 409.567922 294.198688 
L 411.150402 294.161115 
L 412.732882 294.08597 
L 415.370348 293.973252 
L 422.755254 293.898106 
L 426.447708 293.710243 
L 430.667654 293.635098 
L 432.777627 293.559952 
L 434.8876 293.52238 
L 435.942587 293.409662 
L 438.05256 293.334516 
L 443.327493 293.033935 
L 446.492453 292.996362 
L 448.074933 292.846071 
L 449.657413 292.808499 
L 453.349866 292.733353 
L 455.459839 292.658208 
L 461.789759 292.583062 
L 464.427225 292.470344 
L 467.592185 292.395199 
L 469.174665 292.207336 
L 472.339625 292.169763 
L 473.922105 292.019472 
L 476.032078 291.944327 
L 482.361998 291.869181 
L 484.999464 291.756463 
L 493.96685 291.718891 
L 495.021837 291.643745 
L 496.604317 291.606173 
L 503.46173 291.531027 
L 504.516717 291.455882 
L 510.319143 291.380737 
L 512.429116 291.305591 
L 522.451489 291.230446 
L 524.033969 291.192873 
L 528.781409 291.117728 
L 529.836395 291.042582 
L 542.496234 290.967437 
L 544.078714 290.929864 
L 558.321034 290.854719 
L 559.903513 290.817146 
L 569.398393 290.742001 
L 570.45338 290.666856 
L 573.090846 290.59171 
L 574.673326 290.441419 
L 577.310793 290.366274 
L 580.475752 290.215983 
L 584.695699 290.140838 
L 585.750685 290.065693 
L 589.970632 289.990547 
L 593.135592 289.840256 
L 595.773058 289.765111 
L 599.993005 289.539675 
L 603.157964 289.46453 
L 605.267938 289.389384 
L 612.125351 289.314239 
L 614.235324 289.239093 
L 618.45527 289.163948 
L 622.147723 288.976085 
L 626.895163 288.900939 
L 627.95015 288.825794 
L 637.445029 288.750649 
L 639.027509 288.713076 
L 641.664976 288.675503 
L 643.774949 288.450067 
L 645.357429 288.412494 
L 648.522389 288.337349 
L 653.797322 288.036768 
L 656.434788 287.961622 
L 658.544761 287.886477 
L 664.347188 287.811331 
L 666.984654 287.51075 
L 669.094627 287.435605 
L 672.787081 287.360459 
L 673.842067 287.247741 
L 678.062014 287.172596 
L 680.69948 287.059878 
L 687.556893 287.022305 
L 688.61188 286.909587 
L 692.304333 286.834442 
L 693.886813 286.796869 
L 696.524279 286.721724 
L 698.106759 286.684151 
L 707.074145 286.609006 
L 709.711612 286.496287 
L 717.096518 286.421142 
L 719.206491 286.345997 
L 725.008918 286.270851 
L 726.063904 286.158133 
L 730.811344 286.120561 
L 731.866331 286.045415 
L 734.503797 285.97027 
L 736.086277 285.932697 
L 742.94369 285.857552 
L 744.52617 285.819979 
L 745.581156 285.744834 
L 747.163636 285.707261 
L 747.163636 285.707261 
" clip-path="url(#p4a47a2f10e)" style="fill: none; stroke: #ff7f0e; stroke-width: 1.5; stroke-linecap: square"/>
   </g>
   <g id="patch_3">
    <path d="M 108 320.4 
L 108 43.2 
" style="fill: none; stroke: #a9a9a9; stroke-width: 0.8; stroke-linejoin: miter; stroke-linecap: square"/>
   </g>
   <g id="patch_4">
    <path d="M 777.6 320.4 
L 777.6 43.2 
" style="fill: none"/>
   </g>
   <g id="patch_5">
    <path d="M 108 320.4 
L 777.6 320.4 
" style="fill: none; stroke: #a9a9a9; stroke-width: 0.8; stroke-linejoin: miter; stroke-linecap: square"/>
   </g>
   <g id="patch_6">
    <path d="M 108 43.2 
L 777.6 43.2 
" style="fill: none"/>
   </g>
   <g id="text_20">
    <!-- get_subscribe history -->
    <g style="fill: #a9a9a9" transform="translate(378.6075 37.2) scale(0.12 -0.12)">
     <defs>
      <path id="DejaVuSans-67" d="M 2906 1791 
Q 2906 2416 2648 2759 
Q 2391 3103 1925 3103 
Q 1463 3103 1205 2759 
Q 947 2416 947 1791 
Q 947 1169 1205 825 
Q 1463 481 1925 481 
Q 2391 481 2648 825 
Q 2906 1169 2906 1791 
z
M 3481 434 
Q 3481 -459 3084 -895 
Q 2688 -1331 1869 -1331 
Q 1566 -1331 1297 -1286 
Q 1028 -1241 775 -1147 
L 775 -588 
Q 1028 -725 1275 -790 
Q 1522 -856 1778 -856 
Q 2344 -856 2625 -561 
Q 2906 -266 2906 331 
L 2906 616 
Q 2728 306 2450 153 
Q 2172 0 1784 0 
Q 1141 0 747 490 
Q 353 981 353 1791 
Q 353 2603 747 3093 
Q 1141 3584 1784 3584 
Q 2172 3584 2450 3431 
Q 2728 3278 2906 2969 
L 2906 3500 
L 3481 3500 
L 3481 434 
z
" transform="scale(0.015625)"/>
      <path id="DejaVuSans-65" d="M 3597 1894 
L 3597 1613 
L 953 1613 
Q 991 1019 1311 708 
Q 1631 397 2203 397 
Q 2534 397 2845 478 
Q 3156 559 3463 722 
L 3463 178 
Q 3153 47 2828 -22 
Q 2503 -91 2169 -91 
Q 1331 -91 842 396 
Q 353 884 353 1716 
Q 353 2575 817 3079 
Q 1281 3584 2069 3584 
Q 2775 3584 3186 3129 
Q 3597 2675 3597 1894 
z
M 3022 2063 
Q 3016 2534 2758 2815 
Q 2500 3097 2075 3097 
Q 1594 3097 1305 2825 
Q 1016 2553 972 2059 
L 3022 2063 
z
" transform="scale(0.015625)"/>
      <path id="DejaVuSans-74" d="M 1172 4494 
L 1172 3500 
L 2356 3500 
L 2356 3053 
L 1172 3053 
L 1172 1153 
Q 1172 725 1289 603 
Q 1406 481 1766 481 
L 2356 481 
L 2356 0 
L 1766 0 
Q 1100 0 847 248 
Q 594 497 594 1153 
L 594 3053 
L 172 3053 
L 172 3500 
L 594 3500 
L 594 4494 
L 1172 4494 
z
" transform="scale(0.015625)"/>
      <path id="DejaVuSans-5f" d="M 3263 -1063 
L 3263 -1509 
L -63 -1509 
L -63 -1063 
L 3263 -1063 
z
" transform="scale(0.015625)"/>
      <path id="DejaVuSans-73" d="M 2834 3397 
L 2834 2853 
Q 2591 2978 2328 3040 
Q 2066 3103 1784 3103 
Q 1356 3103 1142 2972 
Q 928 2841 928 2578 
Q 928 2378 1081 2264 
Q 1234 2150 1697 2047 
L 1894 2003 
Q 2506 1872 2764 1633 
Q 3022 1394 3022 966 
Q 3022 478 2636 193 
Q 2250 -91 1575 -91 
Q 1294 -91 989 -36 
Q 684 19 347 128 
L 347 722 
Q 666 556 975 473 
Q 1284 391 1588 391 
Q 1994 391 2212 530 
Q 2431 669 2431 922 
Q 2431 1156 2273 1281 
Q 2116 1406 1581 1522 
L 1381 1569 
Q 847 1681 609 1914 
Q 372 2147 372 2553 
Q 372 3047 722 3315 
Q 1072 3584 1716 3584 
Q 2034 3584 2315 3537 
Q 2597 3491 2834 3397 
z
" transform="scale(0.015625)"/>
      <path id="DejaVuSans-75" d="M 544 1381 
L 544 3500 
L 1119 3500 
L 1119 1403 
Q 1119 906 1312 657 
Q 1506 409 1894 409 
Q 2359 409 2629 706 
Q 2900 1003 2900 1516 
L 2900 3500 
L 3475 3500 
L 3475 0 
L 2900 0 
L 2900 538 
Q 2691 219 2414 64 
Q 2138 -91 1772 -91 
Q 1169 -91 856 284 
Q 544 659 544 1381 
z
M 1991 3584 
L 1991 3584 
z
" transform="scale(0.015625)"/>
      <path id="DejaVuSans-62" d="M 3116 1747 
Q 3116 2381 2855 2742 
Q 2594 3103 2138 3103 
Q 1681 3103 1420 2742 
Q 1159 2381 1159 1747 
Q 1159 1113 1420 752 
Q 1681 391 2138 391 
Q 2594 391 2855 752 
Q 3116 1113 3116 1747 
z
M 1159 2969 
Q 1341 3281 1617 3432 
Q 1894 3584 2278 3584 
Q 2916 3584 3314 3078 
Q 3713 2572 3713 1747 
Q 3713 922 3314 415 
Q 2916 -91 2278 -91 
Q 1894 -91 1617 61 
Q 1341 213 1159 525 
L 1159 0 
L 581 0 
L 581 4863 
L 1159 4863 
L 1159 2969 
z
" transform="scale(0.015625)"/>
      <path id="DejaVuSans-63" d="M 3122 3366 
L 3122 2828 
Q 2878 2963 2633 3030 
Q 2388 3097 2138 3097 
Q 1578 3097 1268 2742 
Q 959 2388 959 1747 
Q 959 1106 1268 751 
Q 1578 397 2138 397 
Q 2388 397 2633 464 
Q 2878 531 3122 666 
L 3122 134 
Q 2881 22 2623 -34 
Q 2366 -91 2075 -91 
Q 1284 -91 818 406 
Q 353 903 353 1747 
Q 353 2603 823 3093 
Q 1294 3584 2113 3584 
Q 2378 3584 2631 3529 
Q 2884 3475 3122 3366 
z
" transform="scale(0.015625)"/>
      <path id="DejaVuSans-72" d="M 2631 2963 
Q 2534 3019 2420 3045 
Q 2306 3072 2169 3072 
Q 1681 3072 1420 2755 
Q 1159 2438 1159 1844 
L 1159 0 
L 581 0 
L 581 3500 
L 1159 3500 
L 1159 2956 
Q 1341 3275 1631 3429 
Q 1922 3584 2338 3584 
Q 2397 3584 2469 3576 
Q 2541 3569 2628 3553 
L 2631 2963 
z
" transform="scale(0.015625)"/>
      <path id="DejaVuSans-69" d="M 603 3500 
L 1178 3500 
L 1178 0 
L 603 0 
L 603 3500 
z
M 603 4863 
L 1178 4863 
L 1178 4134 
L 603 4134 
L 603 4863 
z
" transform="scale(0.015625)"/>
      <path id="DejaVuSans-20" transform="scale(0.015625)"/>
      <path id="DejaVuSans-68" d="M 3513 2113 
L 3513 0 
L 2938 0 
L 2938 2094 
Q 2938 2591 2744 2837 
Q 2550 3084 2163 3084 
Q 1697 3084 1428 2787 
Q 1159 2491 1159 1978 
L 1159 0 
L 581 0 
L 581 4863 
L 1159 4863 
L 1159 2956 
Q 1366 3272 1645 3428 
Q 1925 3584 2291 3584 
Q 2894 3584 3203 3211 
Q 3513 2838 3513 2113 
z
" transform="scale(0.015625)"/>
      <path id="DejaVuSans-6f" d="M 1959 3097 
Q 1497 3097 1228 2736 
Q 959 2375 959 1747 
Q 959 1119 1226 758 
Q 1494 397 1959 397 
Q 2419 397 2687 759 
Q 2956 1122 2956 1747 
Q 2956 2369 2687 2733 
Q 2419 3097 1959 3097 
z
M 1959 3584 
Q 2709 3584 3137 3096 
Q 3566 2609 3566 1747 
Q 3566 888 3137 398 
Q 2709 -91 1959 -91 
Q 1206 -91 779 398 
Q 353 888 353 1747 
Q 353 2609 779 3096 
Q 1206 3584 1959 3584 
z
" transform="scale(0.015625)"/>
      <path id="DejaVuSans-79" d="M 2059 -325 
Q 1816 -950 1584 -1140 
Q 1353 -1331 966 -1331 
L 506 -1331 
L 506 -850 
L 844 -850 
Q 1081 -850 1212 -737 
Q 1344 -625 1503 -206 
L 1606 56 
L 191 3500 
L 800 3500 
L 1894 763 
L 2988 3500 
L 3597 3500 
L 2059 -325 
z
" transform="scale(0.015625)"/>
     </defs>
     <use xlink:href="#DejaVuSans-67"/>
     <use xlink:href="#DejaVuSans-65" x="63.476562"/>
     <use xlink:href="#DejaVuSans-74" x="125"/>
     <use xlink:href="#DejaVuSans-5f" x="164.208984"/>
     <use xlink:href="#DejaVuSans-73" x="214.208984"/>
     <use xlink:href="#DejaVuSans-75" x="266.308594"/>
     <use xlink:href="#DejaVuSans-62" x="329.6875"/>
     <use xlink:href="#DejaVuSans-73" x="393.164062"/>
     <use xlink:href="#DejaVuSans-63" x="445.263672"/>
     <use xlink:href="#DejaVuSans-72" x="500.244141"/>
     <use xlink:href="#DejaVuSans-69" x="541.357422"/>
     <use xlink:href="#DejaVuSans-62" x="569.140625"/>
     <use xlink:href="#DejaVuSans-65" x="632.617188"/>
     <use xlink:href="#DejaVuSans-20" x="694.140625"/>
     <use xlink:href="#DejaVuSans-68" x="725.927734"/>
     <use xlink:href="#DejaVuSans-69" x="789.306641"/>
     <use xlink:href="#DejaVuSans-73" x="817.089844"/>
     <use xlink:href="#DejaVuSans-74" x="869.189453"/>
     <use xlink:href="#DejaVuSans-6f" x="908.398438"/>
     <use xlink:href="#DejaVuSans-72" x="969.580078"/>
     <use xlink:href="#DejaVuSans-79" x="1010.693359"/>
    </g>
   </g>
   <g id="legend_1">
    <g id="line2d_41">
     <path d="M 815.08 328.498438 
L 825.08 328.498438 
L 835.08 328.498438 
" style="fill: none; stroke: #1f77b4; stroke-width: 1.5; stroke-linecap: square"/>
    </g>
    <g id="text_21">
     <!-- star -->
     <g style="fill: #a9a9a9" transform="translate(843.08 331.998438) scale(0.1 -0.1)">
      <defs>
       <path id="DejaVuSans-61" d="M 2194 1759 
Q 1497 1759 1228 1600 
Q 959 1441 959 1056 
Q 959 750 1161 570 
Q 1363 391 1709 391 
Q 2188 391 2477 730 
Q 2766 1069 2766 1631 
L 2766 1759 
L 2194 1759 
z
M 3341 1997 
L 3341 0 
L 2766 0 
L 2766 531 
Q 2569 213 2275 61 
Q 1981 -91 1556 -91 
Q 1019 -91 701 211 
Q 384 513 384 1019 
Q 384 1609 779 1909 
Q 1175 2209 1959 2209 
L 2766 2209 
L 2766 2266 
Q 2766 2663 2505 2880 
Q 2244 3097 1772 3097 
Q 1472 3097 1187 3025 
Q 903 2953 641 2809 
L 641 3341 
Q 956 3463 1253 3523 
Q 1550 3584 1831 3584 
Q 2591 3584 2966 3190 
Q 3341 2797 3341 1997 
z
" transform="scale(0.015625)"/>
      </defs>
      <use xlink:href="#DejaVuSans-73"/>
      <use xlink:href="#DejaVuSans-74" x="52.099609"/>
      <use xlink:href="#DejaVuSans-61" x="91.308594"/>
      <use xlink:href="#DejaVuSans-72" x="152.587891"/>
     </g>
    </g>
    <g id="line2d_42">
     <path d="M 815.08 343.176562 
L 825.08 343.176562 
L 835.08 343.176562 
" style="fill: none; stroke: #ff7f0e; stroke-width: 1.5; stroke-linecap: square"/>
    </g>
    <g id="text_22">
     <!-- fork -->
     <g style="fill: #a9a9a9" transform="translate(843.08 346.676562) scale(0.1 -0.1)">
      <defs>
       <path id="DejaVuSans-66" d="M 2375 4863 
L 2375 4384 
L 1825 4384 
Q 1516 4384 1395 4259 
Q 1275 4134 1275 3809 
L 1275 3500 
L 2222 3500 
L 2222 3053 
L 1275 3053 
L 1275 0 
L 697 0 
L 697 3053 
L 147 3053 
L 147 3500 
L 697 3500 
L 697 3744 
Q 697 4328 969 4595 
Q 1241 4863 1831 4863 
L 2375 4863 
z
" transform="scale(0.015625)"/>
       <path id="DejaVuSans-6b" d="M 581 4863 
L 1159 4863 
L 1159 1991 
L 2875 3500 
L 3609 3500 
L 1753 1863 
L 3688 0 
L 2938 0 
L 1159 1709 
L 1159 0 
L 581 0 
L 581 4863 
z
" transform="scale(0.015625)"/>
      </defs>
      <use xlink:href="#DejaVuSans-66"/>
      <use xlink:href="#DejaVuSans-6f" x="35.205078"/>
      <use xlink:href="#DejaVuSans-72" x="96.386719"/>
      <use xlink:href="#DejaVuSans-6b" x="137.5"/>
     </g>
    </g>
   </g>
  </g>
 </g>
 <defs>
  <clipPath id="p4a47a2f10e">
   <rect x="108" y="43.2" width="669.6" height="277.2"/>
  </clipPath>
 </defs>
</svg>
