<?xml version="1.0" encoding="utf-8" standalone="no"?>
<!DOCTYPE svg PUBLIC "-//W3C//DTD SVG 1.1//EN"
  "http://www.w3.org/Graphics/SVG/1.1/DTD/svg11.dtd">
<svg xmlns:xlink="http://www.w3.org/1999/xlink" width="864pt" height="360pt" viewBox="0 0 864 360" xmlns="http://www.w3.org/2000/svg" version="1.1">
 <metadata>
  <rdf:RDF xmlns:dc="http://purl.org/dc/elements/1.1/" xmlns:cc="http://creativecommons.org/ns#" xmlns:rdf="http://www.w3.org/1999/02/22-rdf-syntax-ns#">
   <cc:Work>
    <dc:type rdf:resource="http://purl.org/dc/dcmitype/StillImage"/>
    <dc:date>2025-02-20T20:05:50.784081</dc:date>
    <dc:format>image/svg+xml</dc:format>
    <dc:creator>
     <cc:Agent>
      <dc:title>Matplotlib v3.10.0, https://matplotlib.org/</dc:title>
     </cc:Agent>
    </dc:creator>
   </cc:Work>
  </rdf:RDF>
 </metadata>
 <defs>
  <style type="text/css">*{stroke-linejoin: round; stroke-linecap: butt}</style>
 </defs>
 <g id="figure_1">
  <g id="patch_1">
   <path d="M 0 360 
L 864 360 
L 864 0 
L 0 0 
L 0 360 
z
" style="fill: none; opacity: 0"/>
  </g>
  <g id="axes_1">
   <g id="patch_2">
    <path d="M 108 320.4 
L 777.6 320.4 
L 777.6 43.2 
L 108 43.2 
L 108 320.4 
z
" style="fill: none; opacity: 0"/>
   </g>
   <g id="matplotlib.axis_1">
    <g id="xtick_1">
     <g id="line2d_1">
      <path d="M 127.724254 320.4 
L 127.724254 43.2 
" clip-path="url(#pd92c95177d)" style="fill: none; stroke-dasharray: 5.12,1.28,0.8,1.28; stroke-dashoffset: 0; stroke: #b0b0b0; stroke-width: 0.8"/>
     </g>
     <g id="line2d_2">
      <defs>
       <path id="mb5f3a3b321" d="M 0 0 
L 0 3.5 
" style="stroke: #a9a9a9; stroke-width: 0.8"/>
      </defs>
      <g>
       <use xlink:href="#mb5f3a3b321" x="127.724254" y="320.4" style="fill: #a9a9a9; stroke: #a9a9a9; stroke-width: 0.8"/>
      </g>
     </g>
     <g id="text_1">
      <!-- 2021-07 -->
      <g style="fill: #a9a9a9" transform="translate(106.832848 334.998438) scale(0.1 -0.1)">
       <defs>
        <path id="DejaVuSans-32" d="M 1228 531 
L 3431 531 
L 3431 0 
L 469 0 
L 469 531 
Q 828 903 1448 1529 
Q 2069 2156 2228 2338 
Q 2531 2678 2651 2914 
Q 2772 3150 2772 3378 
Q 2772 3750 2511 3984 
Q 2250 4219 1831 4219 
Q 1534 4219 1204 4116 
Q 875 4013 500 3803 
L 500 4441 
Q 881 4594 1212 4672 
Q 1544 4750 1819 4750 
Q 2544 4750 2975 4387 
Q 3406 4025 3406 3419 
Q 3406 3131 3298 2873 
Q 3191 2616 2906 2266 
Q 2828 2175 2409 1742 
Q 1991 1309 1228 531 
z
" transform="scale(0.015625)"/>
        <path id="DejaVuSans-30" d="M 2034 4250 
Q 1547 4250 1301 3770 
Q 1056 3291 1056 2328 
Q 1056 1369 1301 889 
Q 1547 409 2034 409 
Q 2525 409 2770 889 
Q 3016 1369 3016 2328 
Q 3016 3291 2770 3770 
Q 2525 4250 2034 4250 
z
M 2034 4750 
Q 2819 4750 3233 4129 
Q 3647 3509 3647 2328 
Q 3647 1150 3233 529 
Q 2819 -91 2034 -91 
Q 1250 -91 836 529 
Q 422 1150 422 2328 
Q 422 3509 836 4129 
Q 1250 4750 2034 4750 
z
" transform="scale(0.015625)"/>
        <path id="DejaVuSans-31" d="M 794 531 
L 1825 531 
L 1825 4091 
L 703 3866 
L 703 4441 
L 1819 4666 
L 2450 4666 
L 2450 531 
L 3481 531 
L 3481 0 
L 794 0 
L 794 531 
z
" transform="scale(0.015625)"/>
        <path id="DejaVuSans-2d" d="M 313 2009 
L 1997 2009 
L 1997 1497 
L 313 1497 
L 313 2009 
z
" transform="scale(0.015625)"/>
        <path id="DejaVuSans-37" d="M 525 4666 
L 3525 4666 
L 3525 4397 
L 1831 0 
L 1172 0 
L 2766 4134 
L 525 4134 
L 525 4666 
z
" transform="scale(0.015625)"/>
       </defs>
       <use xlink:href="#DejaVuSans-32"/>
       <use xlink:href="#DejaVuSans-30" transform="translate(63.623047 0)"/>
       <use xlink:href="#DejaVuSans-32" transform="translate(127.246094 0)"/>
       <use xlink:href="#DejaVuSans-31" transform="translate(190.869141 0)"/>
       <use xlink:href="#DejaVuSans-2d" transform="translate(254.492188 0)"/>
       <use xlink:href="#DejaVuSans-30" transform="translate(290.576172 0)"/>
       <use xlink:href="#DejaVuSans-37" transform="translate(354.199219 0)"/>
      </g>
     </g>
    </g>
    <g id="xtick_2">
     <g id="line2d_3">
      <path d="M 213.421131 320.4 
L 213.421131 43.2 
" clip-path="url(#pd92c95177d)" style="fill: none; stroke-dasharray: 5.12,1.28,0.8,1.28; stroke-dashoffset: 0; stroke: #b0b0b0; stroke-width: 0.8"/>
     </g>
     <g id="line2d_4">
      <g>
       <use xlink:href="#mb5f3a3b321" x="213.421131" y="320.4" style="fill: #a9a9a9; stroke: #a9a9a9; stroke-width: 0.8"/>
      </g>
     </g>
     <g id="text_2">
      <!-- 2022-01 -->
      <g style="fill: #a9a9a9" transform="translate(192.529725 334.998438) scale(0.1 -0.1)">
       <use xlink:href="#DejaVuSans-32"/>
       <use xlink:href="#DejaVuSans-30" transform="translate(63.623047 0)"/>
       <use xlink:href="#DejaVuSans-32" transform="translate(127.246094 0)"/>
       <use xlink:href="#DejaVuSans-32" transform="translate(190.869141 0)"/>
       <use xlink:href="#DejaVuSans-2d" transform="translate(254.492188 0)"/>
       <use xlink:href="#DejaVuSans-30" transform="translate(290.576172 0)"/>
       <use xlink:href="#DejaVuSans-31" transform="translate(354.199219 0)"/>
      </g>
     </g>
    </g>
    <g id="xtick_3">
     <g id="line2d_5">
      <path d="M 297.720776 320.4 
L 297.720776 43.2 
" clip-path="url(#pd92c95177d)" style="fill: none; stroke-dasharray: 5.12,1.28,0.8,1.28; stroke-dashoffset: 0; stroke: #b0b0b0; stroke-width: 0.8"/>
     </g>
     <g id="line2d_6">
      <g>
       <use xlink:href="#mb5f3a3b321" x="297.720776" y="320.4" style="fill: #a9a9a9; stroke: #a9a9a9; stroke-width: 0.8"/>
      </g>
     </g>
     <g id="text_3">
      <!-- 2022-07 -->
      <g style="fill: #a9a9a9" transform="translate(276.82937 334.998438) scale(0.1 -0.1)">
       <use xlink:href="#DejaVuSans-32"/>
       <use xlink:href="#DejaVuSans-30" transform="translate(63.623047 0)"/>
       <use xlink:href="#DejaVuSans-32" transform="translate(127.246094 0)"/>
       <use xlink:href="#DejaVuSans-32" transform="translate(190.869141 0)"/>
       <use xlink:href="#DejaVuSans-2d" transform="translate(254.492188 0)"/>
       <use xlink:href="#DejaVuSans-30" transform="translate(290.576172 0)"/>
       <use xlink:href="#DejaVuSans-37" transform="translate(354.199219 0)"/>
      </g>
     </g>
    </g>
    <g id="xtick_4">
     <g id="line2d_7">
      <path d="M 383.417653 320.4 
L 383.417653 43.2 
" clip-path="url(#pd92c95177d)" style="fill: none; stroke-dasharray: 5.12,1.28,0.8,1.28; stroke-dashoffset: 0; stroke: #b0b0b0; stroke-width: 0.8"/>
     </g>
     <g id="line2d_8">
      <g>
       <use xlink:href="#mb5f3a3b321" x="383.417653" y="320.4" style="fill: #a9a9a9; stroke: #a9a9a9; stroke-width: 0.8"/>
      </g>
     </g>
     <g id="text_4">
      <!-- 2023-01 -->
      <g style="fill: #a9a9a9" transform="translate(362.526247 334.998438) scale(0.1 -0.1)">
       <defs>
        <path id="DejaVuSans-33" d="M 2597 2516 
Q 3050 2419 3304 2112 
Q 3559 1806 3559 1356 
Q 3559 666 3084 287 
Q 2609 -91 1734 -91 
Q 1441 -91 1130 -33 
Q 819 25 488 141 
L 488 750 
Q 750 597 1062 519 
Q 1375 441 1716 441 
Q 2309 441 2620 675 
Q 2931 909 2931 1356 
Q 2931 1769 2642 2001 
Q 2353 2234 1838 2234 
L 1294 2234 
L 1294 2753 
L 1863 2753 
Q 2328 2753 2575 2939 
Q 2822 3125 2822 3475 
Q 2822 3834 2567 4026 
Q 2313 4219 1838 4219 
Q 1578 4219 1281 4162 
Q 984 4106 628 3988 
L 628 4550 
Q 988 4650 1302 4700 
Q 1616 4750 1894 4750 
Q 2613 4750 3031 4423 
Q 3450 4097 3450 3541 
Q 3450 3153 3228 2886 
Q 3006 2619 2597 2516 
z
" transform="scale(0.015625)"/>
       </defs>
       <use xlink:href="#DejaVuSans-32"/>
       <use xlink:href="#DejaVuSans-30" transform="translate(63.623047 0)"/>
       <use xlink:href="#DejaVuSans-32" transform="translate(127.246094 0)"/>
       <use xlink:href="#DejaVuSans-33" transform="translate(190.869141 0)"/>
       <use xlink:href="#DejaVuSans-2d" transform="translate(254.492188 0)"/>
       <use xlink:href="#DejaVuSans-30" transform="translate(290.576172 0)"/>
       <use xlink:href="#DejaVuSans-31" transform="translate(354.199219 0)"/>
      </g>
     </g>
    </g>
    <g id="xtick_5">
     <g id="line2d_9">
      <path d="M 467.717298 320.4 
L 467.717298 43.2 
" clip-path="url(#pd92c95177d)" style="fill: none; stroke-dasharray: 5.12,1.28,0.8,1.28; stroke-dashoffset: 0; stroke: #b0b0b0; stroke-width: 0.8"/>
     </g>
     <g id="line2d_10">
      <g>
       <use xlink:href="#mb5f3a3b321" x="467.717298" y="320.4" style="fill: #a9a9a9; stroke: #a9a9a9; stroke-width: 0.8"/>
      </g>
     </g>
     <g id="text_5">
      <!-- 2023-07 -->
      <g style="fill: #a9a9a9" transform="translate(446.825892 334.998438) scale(0.1 -0.1)">
       <use xlink:href="#DejaVuSans-32"/>
       <use xlink:href="#DejaVuSans-30" transform="translate(63.623047 0)"/>
       <use xlink:href="#DejaVuSans-32" transform="translate(127.246094 0)"/>
       <use xlink:href="#DejaVuSans-33" transform="translate(190.869141 0)"/>
       <use xlink:href="#DejaVuSans-2d" transform="translate(254.492188 0)"/>
       <use xlink:href="#DejaVuSans-30" transform="translate(290.576172 0)"/>
       <use xlink:href="#DejaVuSans-37" transform="translate(354.199219 0)"/>
      </g>
     </g>
    </g>
    <g id="xtick_6">
     <g id="line2d_11">
      <path d="M 553.414175 320.4 
L 553.414175 43.2 
" clip-path="url(#pd92c95177d)" style="fill: none; stroke-dasharray: 5.12,1.28,0.8,1.28; stroke-dashoffset: 0; stroke: #b0b0b0; stroke-width: 0.8"/>
     </g>
     <g id="line2d_12">
      <g>
       <use xlink:href="#mb5f3a3b321" x="553.414175" y="320.4" style="fill: #a9a9a9; stroke: #a9a9a9; stroke-width: 0.8"/>
      </g>
     </g>
     <g id="text_6">
      <!-- 2024-01 -->
      <g style="fill: #a9a9a9" transform="translate(532.522769 334.998438) scale(0.1 -0.1)">
       <defs>
        <path id="DejaVuSans-34" d="M 2419 4116 
L 825 1625 
L 2419 1625 
L 2419 4116 
z
M 2253 4666 
L 3047 4666 
L 3047 1625 
L 3713 1625 
L 3713 1100 
L 3047 1100 
L 3047 0 
L 2419 0 
L 2419 1100 
L 313 1100 
L 313 1709 
L 2253 4666 
z
" transform="scale(0.015625)"/>
       </defs>
       <use xlink:href="#DejaVuSans-32"/>
       <use xlink:href="#DejaVuSans-30" transform="translate(63.623047 0)"/>
       <use xlink:href="#DejaVuSans-32" transform="translate(127.246094 0)"/>
       <use xlink:href="#DejaVuSans-34" transform="translate(190.869141 0)"/>
       <use xlink:href="#DejaVuSans-2d" transform="translate(254.492188 0)"/>
       <use xlink:href="#DejaVuSans-30" transform="translate(290.576172 0)"/>
       <use xlink:href="#DejaVuSans-31" transform="translate(354.199219 0)"/>
      </g>
     </g>
    </g>
    <g id="xtick_7">
     <g id="line2d_13">
      <path d="M 638.179565 320.4 
L 638.179565 43.2 
" clip-path="url(#pd92c95177d)" style="fill: none; stroke-dasharray: 5.12,1.28,0.8,1.28; stroke-dashoffset: 0; stroke: #b0b0b0; stroke-width: 0.8"/>
     </g>
     <g id="line2d_14">
      <g>
       <use xlink:href="#mb5f3a3b321" x="638.179565" y="320.4" style="fill: #a9a9a9; stroke: #a9a9a9; stroke-width: 0.8"/>
      </g>
     </g>
     <g id="text_7">
      <!-- 2024-07 -->
      <g style="fill: #a9a9a9" transform="translate(617.288158 334.998438) scale(0.1 -0.1)">
       <use xlink:href="#DejaVuSans-32"/>
       <use xlink:href="#DejaVuSans-30" transform="translate(63.623047 0)"/>
       <use xlink:href="#DejaVuSans-32" transform="translate(127.246094 0)"/>
       <use xlink:href="#DejaVuSans-34" transform="translate(190.869141 0)"/>
       <use xlink:href="#DejaVuSans-2d" transform="translate(254.492188 0)"/>
       <use xlink:href="#DejaVuSans-30" transform="translate(290.576172 0)"/>
       <use xlink:href="#DejaVuSans-37" transform="translate(354.199219 0)"/>
      </g>
     </g>
    </g>
    <g id="xtick_8">
     <g id="line2d_15">
      <path d="M 723.876442 320.4 
L 723.876442 43.2 
" clip-path="url(#pd92c95177d)" style="fill: none; stroke-dasharray: 5.12,1.28,0.8,1.28; stroke-dashoffset: 0; stroke: #b0b0b0; stroke-width: 0.8"/>
     </g>
     <g id="line2d_16">
      <g>
       <use xlink:href="#mb5f3a3b321" x="723.876442" y="320.4" style="fill: #a9a9a9; stroke: #a9a9a9; stroke-width: 0.8"/>
      </g>
     </g>
     <g id="text_8">
      <!-- 2025-01 -->
      <g style="fill: #a9a9a9" transform="translate(702.985035 334.998438) scale(0.1 -0.1)">
       <defs>
        <path id="DejaVuSans-35" d="M 691 4666 
L 3169 4666 
L 3169 4134 
L 1269 4134 
L 1269 2991 
Q 1406 3038 1543 3061 
Q 1681 3084 1819 3084 
Q 2600 3084 3056 2656 
Q 3513 2228 3513 1497 
Q 3513 744 3044 326 
Q 2575 -91 1722 -91 
Q 1428 -91 1123 -41 
Q 819 9 494 109 
L 494 744 
Q 775 591 1075 516 
Q 1375 441 1709 441 
Q 2250 441 2565 725 
Q 2881 1009 2881 1497 
Q 2881 1984 2565 2268 
Q 2250 2553 1709 2553 
Q 1456 2553 1204 2497 
Q 953 2441 691 2322 
L 691 4666 
z
" transform="scale(0.015625)"/>
       </defs>
       <use xlink:href="#DejaVuSans-32"/>
       <use xlink:href="#DejaVuSans-30" transform="translate(63.623047 0)"/>
       <use xlink:href="#DejaVuSans-32" transform="translate(127.246094 0)"/>
       <use xlink:href="#DejaVuSans-35" transform="translate(190.869141 0)"/>
       <use xlink:href="#DejaVuSans-2d" transform="translate(254.492188 0)"/>
       <use xlink:href="#DejaVuSans-30" transform="translate(290.576172 0)"/>
       <use xlink:href="#DejaVuSans-31" transform="translate(354.199219 0)"/>
      </g>
     </g>
    </g>
   </g>
   <g id="matplotlib.axis_2">
    <g id="ytick_1">
     <g id="line2d_17">
      <path d="M 108 307.83437 
L 777.6 307.83437 
" clip-path="url(#pd92c95177d)" style="fill: none; stroke-dasharray: 5.12,1.28,0.8,1.28; stroke-dashoffset: 0; stroke: #b0b0b0; stroke-width: 0.8"/>
     </g>
     <g id="line2d_18">
      <defs>
       <path id="m1b13b0568e" d="M 0 0 
L -3.5 0 
" style="stroke: #a9a9a9; stroke-width: 0.8"/>
      </defs>
      <g>
       <use xlink:href="#m1b13b0568e" x="108" y="307.83437" style="fill: #a9a9a9; stroke: #a9a9a9; stroke-width: 0.8"/>
      </g>
     </g>
     <g id="text_9">
      <!-- 0 -->
      <g style="fill: #a9a9a9" transform="translate(94.6375 311.633589) scale(0.1 -0.1)">
       <use xlink:href="#DejaVuSans-30"/>
      </g>
     </g>
    </g>
    <g id="ytick_2">
     <g id="line2d_19">
      <path d="M 108 273.464484 
L 777.6 273.464484 
" clip-path="url(#pd92c95177d)" style="fill: none; stroke-dasharray: 5.12,1.28,0.8,1.28; stroke-dashoffset: 0; stroke: #b0b0b0; stroke-width: 0.8"/>
     </g>
     <g id="line2d_20">
      <g>
       <use xlink:href="#m1b13b0568e" x="108" y="273.464484" style="fill: #a9a9a9; stroke: #a9a9a9; stroke-width: 0.8"/>
      </g>
     </g>
     <g id="text_10">
      <!-- 1000 -->
      <g style="fill: #a9a9a9" transform="translate(75.55 277.263703) scale(0.1 -0.1)">
       <use xlink:href="#DejaVuSans-31"/>
       <use xlink:href="#DejaVuSans-30" transform="translate(63.623047 0)"/>
       <use xlink:href="#DejaVuSans-30" transform="translate(127.246094 0)"/>
       <use xlink:href="#DejaVuSans-30" transform="translate(190.869141 0)"/>
      </g>
     </g>
    </g>
    <g id="ytick_3">
     <g id="line2d_21">
      <path d="M 108 239.094599 
L 777.6 239.094599 
" clip-path="url(#pd92c95177d)" style="fill: none; stroke-dasharray: 5.12,1.28,0.8,1.28; stroke-dashoffset: 0; stroke: #b0b0b0; stroke-width: 0.8"/>
     </g>
     <g id="line2d_22">
      <g>
       <use xlink:href="#m1b13b0568e" x="108" y="239.094599" style="fill: #a9a9a9; stroke: #a9a9a9; stroke-width: 0.8"/>
      </g>
     </g>
     <g id="text_11">
      <!-- 2000 -->
      <g style="fill: #a9a9a9" transform="translate(75.55 242.893818) scale(0.1 -0.1)">
       <use xlink:href="#DejaVuSans-32"/>
       <use xlink:href="#DejaVuSans-30" transform="translate(63.623047 0)"/>
       <use xlink:href="#DejaVuSans-30" transform="translate(127.246094 0)"/>
       <use xlink:href="#DejaVuSans-30" transform="translate(190.869141 0)"/>
      </g>
     </g>
    </g>
    <g id="ytick_4">
     <g id="line2d_23">
      <path d="M 108 204.724714 
L 777.6 204.724714 
" clip-path="url(#pd92c95177d)" style="fill: none; stroke-dasharray: 5.12,1.28,0.8,1.28; stroke-dashoffset: 0; stroke: #b0b0b0; stroke-width: 0.8"/>
     </g>
     <g id="line2d_24">
      <g>
       <use xlink:href="#m1b13b0568e" x="108" y="204.724714" style="fill: #a9a9a9; stroke: #a9a9a9; stroke-width: 0.8"/>
      </g>
     </g>
     <g id="text_12">
      <!-- 3000 -->
      <g style="fill: #a9a9a9" transform="translate(75.55 208.523932) scale(0.1 -0.1)">
       <use xlink:href="#DejaVuSans-33"/>
       <use xlink:href="#DejaVuSans-30" transform="translate(63.623047 0)"/>
       <use xlink:href="#DejaVuSans-30" transform="translate(127.246094 0)"/>
       <use xlink:href="#DejaVuSans-30" transform="translate(190.869141 0)"/>
      </g>
     </g>
    </g>
    <g id="ytick_5">
     <g id="line2d_25">
      <path d="M 108 170.354828 
L 777.6 170.354828 
" clip-path="url(#pd92c95177d)" style="fill: none; stroke-dasharray: 5.12,1.28,0.8,1.28; stroke-dashoffset: 0; stroke: #b0b0b0; stroke-width: 0.8"/>
     </g>
     <g id="line2d_26">
      <g>
       <use xlink:href="#m1b13b0568e" x="108" y="170.354828" style="fill: #a9a9a9; stroke: #a9a9a9; stroke-width: 0.8"/>
      </g>
     </g>
     <g id="text_13">
      <!-- 4000 -->
      <g style="fill: #a9a9a9" transform="translate(75.55 174.154047) scale(0.1 -0.1)">
       <use xlink:href="#DejaVuSans-34"/>
       <use xlink:href="#DejaVuSans-30" transform="translate(63.623047 0)"/>
       <use xlink:href="#DejaVuSans-30" transform="translate(127.246094 0)"/>
       <use xlink:href="#DejaVuSans-30" transform="translate(190.869141 0)"/>
      </g>
     </g>
    </g>
    <g id="ytick_6">
     <g id="line2d_27">
      <path d="M 108 135.984943 
L 777.6 135.984943 
" clip-path="url(#pd92c95177d)" style="fill: none; stroke-dasharray: 5.12,1.28,0.8,1.28; stroke-dashoffset: 0; stroke: #b0b0b0; stroke-width: 0.8"/>
     </g>
     <g id="line2d_28">
      <g>
       <use xlink:href="#m1b13b0568e" x="108" y="135.984943" style="fill: #a9a9a9; stroke: #a9a9a9; stroke-width: 0.8"/>
      </g>
     </g>
     <g id="text_14">
      <!-- 5000 -->
      <g style="fill: #a9a9a9" transform="translate(75.55 139.784161) scale(0.1 -0.1)">
       <use xlink:href="#DejaVuSans-35"/>
       <use xlink:href="#DejaVuSans-30" transform="translate(63.623047 0)"/>
       <use xlink:href="#DejaVuSans-30" transform="translate(127.246094 0)"/>
       <use xlink:href="#DejaVuSans-30" transform="translate(190.869141 0)"/>
      </g>
     </g>
    </g>
    <g id="ytick_7">
     <g id="line2d_29">
      <path d="M 108 101.615057 
L 777.6 101.615057 
" clip-path="url(#pd92c95177d)" style="fill: none; stroke-dasharray: 5.12,1.28,0.8,1.28; stroke-dashoffset: 0; stroke: #b0b0b0; stroke-width: 0.8"/>
     </g>
     <g id="line2d_30">
      <g>
       <use xlink:href="#m1b13b0568e" x="108" y="101.615057" style="fill: #a9a9a9; stroke: #a9a9a9; stroke-width: 0.8"/>
      </g>
     </g>
     <g id="text_15">
      <!-- 6000 -->
      <g style="fill: #a9a9a9" transform="translate(75.55 105.414276) scale(0.1 -0.1)">
       <defs>
        <path id="DejaVuSans-36" d="M 2113 2584 
Q 1688 2584 1439 2293 
Q 1191 2003 1191 1497 
Q 1191 994 1439 701 
Q 1688 409 2113 409 
Q 2538 409 2786 701 
Q 3034 994 3034 1497 
Q 3034 2003 2786 2293 
Q 2538 2584 2113 2584 
z
M 3366 4563 
L 3366 3988 
Q 3128 4100 2886 4159 
Q 2644 4219 2406 4219 
Q 1781 4219 1451 3797 
Q 1122 3375 1075 2522 
Q 1259 2794 1537 2939 
Q 1816 3084 2150 3084 
Q 2853 3084 3261 2657 
Q 3669 2231 3669 1497 
Q 3669 778 3244 343 
Q 2819 -91 2113 -91 
Q 1303 -91 875 529 
Q 447 1150 447 2328 
Q 447 3434 972 4092 
Q 1497 4750 2381 4750 
Q 2619 4750 2861 4703 
Q 3103 4656 3366 4563 
z
" transform="scale(0.015625)"/>
       </defs>
       <use xlink:href="#DejaVuSans-36"/>
       <use xlink:href="#DejaVuSans-30" transform="translate(63.623047 0)"/>
       <use xlink:href="#DejaVuSans-30" transform="translate(127.246094 0)"/>
       <use xlink:href="#DejaVuSans-30" transform="translate(190.869141 0)"/>
      </g>
     </g>
    </g>
    <g id="ytick_8">
     <g id="line2d_31">
      <path d="M 108 67.245172 
L 777.6 67.245172 
" clip-path="url(#pd92c95177d)" style="fill: none; stroke-dasharray: 5.12,1.28,0.8,1.28; stroke-dashoffset: 0; stroke: #b0b0b0; stroke-width: 0.8"/>
     </g>
     <g id="line2d_32">
      <g>
       <use xlink:href="#m1b13b0568e" x="108" y="67.245172" style="fill: #a9a9a9; stroke: #a9a9a9; stroke-width: 0.8"/>
      </g>
     </g>
     <g id="text_16">
      <!-- 7000 -->
      <g style="fill: #a9a9a9" transform="translate(75.55 71.044391) scale(0.1 -0.1)">
       <use xlink:href="#DejaVuSans-37"/>
       <use xlink:href="#DejaVuSans-30" transform="translate(63.623047 0)"/>
       <use xlink:href="#DejaVuSans-30" transform="translate(127.246094 0)"/>
       <use xlink:href="#DejaVuSans-30" transform="translate(190.869141 0)"/>
      </g>
     </g>
    </g>
   </g>
   <g id="line2d_33">
    <path d="M 138.436364 307.73126 
L 141.230827 307.490671 
L 141.696571 307.284452 
L 143.559546 307.043863 
L 145.422522 306.665794 
L 146.35401 306.528314 
L 148.682729 306.322095 
L 149.614217 305.944026 
L 150.079961 305.325368 
L 150.545705 305.016039 
L 151.011449 303.950573 
L 151.477193 303.881833 
L 151.942937 303.503764 
L 152.874424 303.022586 
L 154.7374 301.510311 
L 156.600376 300.582324 
L 157.997607 299.929296 
L 158.463351 299.173159 
L 159.394839 298.485761 
L 159.860583 298.279542 
L 164.518022 297.592144 
L 164.983766 297.385925 
L 168.243973 297.110966 
L 170.106949 296.664157 
L 173.8329 296.148609 
L 174.298644 295.90802 
L 174.764388 295.83928 
L 175.695875 295.529951 
L 178.956083 294.980033 
L 179.88757 294.705074 
L 184.079265 293.983306 
L 185.010753 293.777087 
L 185.942241 293.742717 
L 187.805217 293.295908 
L 188.270961 292.642881 
L 189.668192 292.092962 
L 191.065424 291.714894 
L 191.531168 291.474304 
L 192.462656 291.302455 
L 194.325631 290.752537 
L 195.257119 290.683797 
L 196.188607 290.443208 
L 198.051582 289.962029 
L 198.517326 289.92766 
L 199.448814 289.480851 
L 199.914558 289.412111 
L 200.380302 289.171522 
L 205.503485 288.312275 
L 207.36646 287.762357 
L 207.832204 287.453028 
L 210.160924 286.66252 
L 211.092411 286.009493 
L 212.489643 285.734534 
L 224.598984 282.263175 
L 225.064728 282.263175 
L 225.530472 282.056956 
L 226.46196 281.953846 
L 226.927704 281.781997 
L 228.79068 281.713257 
L 229.722167 281.541408 
L 230.653655 281.060229 
L 232.050887 280.544681 
L 232.516631 280.235352 
L 233.448119 279.822913 
L 233.913862 279.582324 
L 234.84535 279.272995 
L 235.311094 279.135516 
L 236.242582 278.551227 
L 236.708326 278.035679 
L 237.639814 276.592144 
L 238.105557 276.454664 
L 238.571301 276.454664 
L 239.968533 275.629787 
L 240.434277 275.389198 
L 240.900021 275.286088 
L 241.365765 274.83928 
L 242.297253 274.461211 
L 243.22874 274.014403 
L 245.55746 271.024223 
L 248.351923 269.511948 
L 249.283411 268.75581 
L 249.749155 268.446481 
L 250.214899 267.793453 
L 250.680643 266.727987 
L 251.146387 266.006219 
L 251.61213 265.628151 
L 252.077874 265.421931 
L 255.803826 261.984943 
L 256.735313 261.125696 
L 259.529777 259.372831 
L 259.995521 259.200982 
L 261.392752 258.376105 
L 262.789984 257.448118 
L 264.65296 255.763993 
L 265.584447 255.385925 
L 266.515935 254.732897 
L 266.981679 254.457938 
L 267.447423 254.389198 
L 268.844655 253.598691 
L 269.310399 253.083142 
L 271.639118 251.811457 
L 272.104862 251.639607 
L 273.502094 250.67725 
L 280.488252 248.202619 
L 281.41974 247.343372 
L 282.816972 246.655974 
L 283.748459 246.071686 
L 284.679947 245.796727 
L 285.145691 245.487398 
L 285.611435 245.349918 
L 287.008667 244.421931 
L 289.337386 243.872013 
L 290.734618 243.047136 
L 292.131849 242.737807 
L 292.597593 242.600327 
L 293.994825 241.534861 
L 295.857801 241.019313 
L 296.323545 240.641244 
L 299.118008 239.678887 
L 300.049496 239.507038 
L 300.980984 239.128969 
L 304.241191 237.926023 
L 305.172679 237.788543 
L 306.56991 237.307365 
L 308.89863 236.173159 
L 310.761605 235.142062 
L 314.487557 233.595417 
L 314.9533 233.526678 
L 315.884788 232.94239 
L 316.350532 232.87365 
L 318.213508 232.117512 
L 320.076483 231.876923 
L 321.007971 231.395745 
L 321.473715 230.983306 
L 321.939459 230.124059 
L 323.802434 229.608511 
L 325.199666 228.886743 
L 326.131154 228.577414 
L 327.062642 228.096236 
L 329.857105 226.962029 
L 330.788593 226.75581 
L 331.720081 226.274632 
L 332.185825 226.068412 
L 332.651568 225.999673 
L 334.514544 225.140426 
L 335.911776 224.246809 
L 337.309007 223.971849 
L 339.171983 223.456301 
L 339.637727 223.421931 
L 340.103471 223.043863 
L 341.034959 222.734534 
L 343.363678 221.806547 
L 343.829422 221.462848 
L 344.295166 221.290998 
L 345.226654 220.77545 
L 347.089629 220.191162 
L 347.555373 219.950573 
L 348.952605 218.816367 
L 349.418349 218.713257 
L 350.349837 217.957119 
L 350.81558 217.88838 
L 351.281324 217.132242 
L 351.747068 216.926023 
L 352.212812 216.547954 
L 352.678556 216.479214 
L 353.610044 215.894926 
L 354.541532 215.585597 
L 355.007276 215.241899 
L 355.473019 215.070049 
L 357.335995 213.832733 
L 358.733227 213.110966 
L 359.664714 212.870376 
L 360.596202 212.354828 
L 361.061946 211.564321 
L 361.993434 210.876923 
L 362.459178 210.773813 
L 365.253641 209.433388 
L 366.185129 209.055319 
L 367.582361 207.886743 
L 368.513849 207.096236 
L 369.445336 206.546318 
L 369.91108 206.030769 
L 370.376824 205.72144 
L 371.308312 204.965303 
L 371.774056 204.759083 
L 372.705544 203.831097 
L 373.637031 203.487398 
L 374.568519 202.86874 
L 375.965751 202.146972 
L 376.431495 202.078232 
L 377.828726 201.322095 
L 378.760214 200.737807 
L 383.417653 199.019313 
L 383.883397 198.641244 
L 385.746373 197.919476 
L 386.212117 197.781997 
L 387.143604 197.163339 
L 388.075092 196.7509 
L 389.00658 196.097872 
L 389.938068 194.241899 
L 390.869556 193.142062 
L 392.266787 192.420295 
L 393.198275 192.042226 
L 393.664019 191.973486 
L 394.129763 191.698527 
L 396.458482 190.94239 
L 396.924226 190.73617 
L 397.855714 190.083142 
L 399.252946 189.464484 
L 400.184433 188.948936 
L 402.978897 187.024223 
L 405.307616 185.752537 
L 408.10208 184.343372 
L 409.499311 183.930933 
L 410.896543 183.381015 
L 411.362287 183.037316 
L 412.293775 182.762357 
L 413.225263 182.384288 
L 413.691006 182.006219 
L 415.553982 181.353191 
L 416.48547 180.665794 
L 417.416958 180.287725 
L 418.348445 179.565957 
L 419.279933 179.290998 
L 419.745677 178.87856 
L 420.211421 178.80982 
L 421.142909 178.088052 
L 422.074397 177.606874 
L 422.540141 177.400655 
L 423.005884 176.919476 
L 426.266092 175.613421 
L 427.197579 175.200982 
L 428.594811 174.754173 
L 429.526299 174.616694 
L 429.992043 174.410475 
L 430.457787 174.341735 
L 431.389275 173.929296 
L 431.855018 173.894926 
L 433.717994 173.207529 
L 435.115226 172.210802 
L 435.58097 172.038953 
L 436.512457 171.523404 
L 436.978201 171.385925 
L 439.772665 169.80491 
L 440.238409 169.7018 
L 441.63564 168.876923 
L 443.032872 168.395745 
L 443.96436 168.086416 
L 445.827335 167.467758 
L 446.758823 167.158429 
L 448.621799 166.78036 
L 449.087543 166.574141 
L 449.553286 166.505401 
L 450.484774 166.092962 
L 450.950518 166.024223 
L 451.416262 165.783633 
L 452.34775 165.611784 
L 453.744982 165.096236 
L 454.676469 164.993126 
L 456.073701 164.683797 
L 458.402421 164.271358 
L 470.511762 160.69689 
L 470.977506 160.215712 
L 471.908994 159.837643 
L 475.634945 158.428478 
L 476.100689 158.153519 
L 477.49792 157.74108 
L 478.429408 157.500491 
L 478.895152 157.191162 
L 479.360896 157.088052 
L 479.82664 156.675614 
L 481.223871 156.400655 
L 482.155359 155.953846 
L 482.621103 155.403928 
L 484.484079 154.957119 
L 487.744286 154.269722 
L 488.21003 154.269722 
L 488.675774 154.063502 
L 490.538749 153.719804 
L 491.004493 153.513584 
L 492.867469 153.169885 
L 493.798957 152.757447 
L 494.730444 152.585597 
L 497.059164 152.001309 
L 498.92214 151.417021 
L 499.387883 151.313912 
L 499.853627 151.073322 
L 500.785115 150.832733 
L 501.716603 150.454664 
L 502.648091 150.110966 
L 503.113835 149.801637 
L 504.045322 149.526678 
L 507.771274 148.220622 
L 508.702761 148.151882 
L 510.565737 147.601964 
L 511.031481 147.327005 
L 511.962969 147.052046 
L 514.291688 145.986579 
L 514.757432 145.952209 
L 519.880615 144.130606 
L 522.209334 143.511948 
L 523.140822 143.065139 
L 524.538054 142.75581 
L 526.401029 141.243535 
L 527.332517 140.968576 
L 527.798261 140.590507 
L 530.592724 139.525041 
L 531.058468 139.215712 
L 531.989956 138.940753 
L 532.4557 138.631424 
L 534.78442 137.875286 
L 536.181651 137.050409 
L 536.647395 136.9473 
L 538.976115 135.675614 
L 540.373346 135.056956 
L 540.83909 134.713257 
L 541.770578 134.403928 
L 542.702066 133.85401 
L 543.16781 133.68216 
L 543.633554 133.338462 
L 549.688224 131.207529 
L 550.153968 131.104419 
L 550.619712 130.79509 
L 552.482688 130.417021 
L 553.414175 130.038953 
L 556.208639 128.698527 
L 556.674383 128.629787 
L 558.071614 127.83928 
L 559.468846 127.358101 
L 562.729053 126.017676 
L 563.194797 125.880196 
L 563.660541 125.570867 
L 564.592029 125.467758 
L 565.057773 125.158429 
L 565.989261 124.986579 
L 566.920748 124.539771 
L 567.386492 124.333552 
L 567.852236 124.264812 
L 568.783724 123.955483 
L 572.043931 122.821277 
L 573.441163 122.511948 
L 574.838395 121.962029 
L 576.70137 120.930933 
L 577.632858 120.552864 
L 578.098602 120.243535 
L 579.03009 120.037316 
L 579.495834 119.762357 
L 579.961578 119.659247 
L 581.358809 118.86874 
L 582.290297 118.490671 
L 584.153273 117.768903 
L 586.481992 116.978396 
L 587.41348 116.497218 
L 589.742199 115.70671 
L 592.536663 114.572504 
L 594.399638 113.713257 
L 599.057077 111.891653 
L 599.522821 111.582324 
L 601.385797 110.963666 
L 601.851541 110.963666 
L 602.783028 110.551227 
L 604.646004 109.038953 
L 605.111748 108.901473 
L 605.577492 108.626514 
L 606.043236 108.523404 
L 606.50898 108.282815 
L 606.974724 108.214075 
L 607.440467 107.870376 
L 607.906211 107.767267 
L 608.837699 107.182979 
L 610.234931 106.461211 
L 611.166419 106.083142 
L 611.632162 105.842553 
L 613.029394 105.533224 
L 615.358114 104.742717 
L 616.289601 104.433388 
L 617.686833 103.71162 
L 618.618321 103.264812 
L 619.549809 103.024223 
L 620.94704 102.371195 
L 625.138735 100.82455 
L 626.535967 99.965303 
L 627.001711 99.862193 
L 627.933199 99.415385 
L 628.864687 99.071686 
L 629.330431 98.659247 
L 630.261918 98.281178 
L 631.65915 97.8 
L 632.124894 97.421931 
L 632.590638 97.387561 
L 633.522126 97.112602 
L 634.453613 96.803273 
L 634.919357 96.562684 
L 635.385101 96.493944 
L 636.782333 95.978396 
L 638.179565 95.462848 
L 640.04254 94.637971 
L 640.508284 94.569231 
L 644.234235 93.022586 
L 645.631467 92.575777 
L 646.562955 92.507038 
L 647.494443 92.128969 
L 650.288906 91.304092 
L 651.220394 91.269722 
L 654.946345 90.066776 
L 655.877833 89.551227 
L 656.343577 89.138789 
L 657.740808 88.313912 
L 658.672296 87.763993 
L 661.466759 86.870376 
L 661.932503 86.492308 
L 664.726967 85.323732 
L 666.589942 84.808183 
L 667.52143 84.395745 
L 667.987174 84.155155 
L 668.918662 83.880196 
L 669.384406 83.605237 
L 670.315893 83.433388 
L 674.041845 81.818003 
L 674.507589 81.749264 
L 674.973332 81.439935 
L 675.439076 81.268085 
L 675.90482 80.855646 
L 676.370564 80.786907 
L 678.23354 80.065139 
L 680.096515 79.618331 
L 680.562259 79.549591 
L 681.028003 79.343372 
L 681.493747 79.309002 
L 682.425235 78.999673 
L 682.890979 78.965303 
L 684.28821 78.415385 
L 686.151186 77.865466 
L 687.082674 77.178069 
L 688.945649 76.146972 
L 690.342881 75.665794 
L 694.068832 73.91293 
L 694.534576 73.67234 
L 695.00032 73.225532 
L 697.794783 72.331915 
L 698.726271 71.953846 
L 699.657759 71.713257 
L 700.123503 71.472668 
L 700.589247 71.094599 
L 702.452222 70.613421 
L 702.917966 70.269722 
L 708.972637 68.070049 
L 709.904125 67.8982 
L 714.09582 66.420295 
L 715.027308 66.179705 
L 715.493051 65.973486 
L 715.958795 65.973486 
L 716.890283 65.595417 
L 717.821771 65.045499 
L 720.15049 64.254992 
L 721.547722 63.773813 
L 722.013466 63.705074 
L 722.944954 63.327005 
L 724.342185 63.017676 
L 725.739417 62.570867 
L 726.205161 62.467758 
L 726.670905 62.158429 
L 727.602393 61.952209 
L 736.917271 59.271358 
L 739.24599 58.85892 
L 740.177478 58.412111 
L 740.643222 58.102782 
L 744.369173 56.796727 
L 745.300661 56.521768 
L 747.163636 55.8 
L 747.163636 55.8 
" clip-path="url(#pd92c95177d)" style="fill: none; stroke: #1f77b4; stroke-width: 1.5; stroke-linecap: square"/>
   </g>
   <g id="line2d_34">
    <path d="M 138.902108 307.8 
L 143.093803 307.69689 
L 146.819754 307.525041 
L 148.682729 307.525041 
L 149.148473 307.387561 
L 151.477193 307.284452 
L 154.271656 306.975123 
L 157.066119 306.872013 
L 157.997607 306.768903 
L 161.257815 306.631424 
L 164.518022 306.528314 
L 166.846741 306.459574 
L 172.901412 306.356465 
L 175.230131 306.287725 
L 178.490339 306.184615 
L 180.819058 306.115876 
L 185.942241 306.012766 
L 187.805217 305.840917 
L 189.668192 305.806547 
L 192.462656 305.703437 
L 194.325631 305.669067 
L 196.654351 305.600327 
L 198.517326 305.428478 
L 202.709021 305.325368 
L 203.640509 305.256628 
L 205.503485 305.153519 
L 208.297948 305.050409 
L 210.160924 304.9473 
L 218.544314 304.431751 
L 221.804521 304.328642 
L 223.201753 304.191162 
L 225.530472 304.088052 
L 230.187911 303.847463 
L 234.84535 303.778723 
L 236.708326 303.572504 
L 238.571301 303.469394 
L 243.694484 302.988216 
L 246.954692 302.610147 
L 248.351923 302.541408 
L 252.077874 302.060229 
L 254.872338 301.991489 
L 256.269569 301.85401 
L 257.666801 301.7509 
L 270.70763 300.754173 
L 271.639118 300.582324 
L 274.433581 300.479214 
L 281.885484 300.032406 
L 285.145691 299.929296 
L 287.008667 299.723077 
L 289.337386 299.619967 
L 292.131849 299.516858 
L 294.460569 299.413748 
L 296.323545 299.379378 
L 298.652264 299.310638 
L 299.583752 299.173159 
L 306.104166 299.070049 
L 307.035654 298.966939 
L 312.624581 298.86383 
L 316.816276 298.65761 
L 320.076483 298.554501 
L 321.939459 298.348282 
L 325.199666 298.245172 
L 326.131154 298.073322 
L 328.459873 298.004583 
L 333.117312 297.935843 
L 334.980288 297.763993 
L 336.843264 297.729624 
L 338.240495 297.626514 
L 340.103471 297.454664 
L 344.76091 297.214075 
L 349.418349 297.110966 
L 353.610044 296.904746 
L 355.007276 296.870376 
L 355.938763 296.732897 
L 358.267483 296.629787 
L 359.198971 296.561047 
L 360.130458 296.492308 
L 361.061946 296.423568 
L 365.253641 296.354828 
L 366.650873 296.251718 
L 379.225958 295.426841 
L 381.554678 295.323732 
L 383.883397 295.254992 
L 390.403812 295.151882 
L 391.335299 295.014403 
L 397.855714 294.911293 
L 402.513153 294.670704 
L 403.444641 294.636334 
L 404.376129 294.533224 
L 406.704848 294.430115 
L 409.033568 294.361375 
L 411.362287 294.258265 
L 413.691006 294.189525 
L 417.882702 294.086416 
L 420.677165 293.983306 
L 427.197579 293.880196 
L 432.320762 293.605237 
L 434.183738 293.536498 
L 435.58097 293.433388 
L 442.101384 293.330278 
L 444.895848 293.227169 
L 453.279238 293.124059 
L 455.142213 293.089689 
L 460.73114 293.020949 
L 461.662628 292.952209 
L 468.183042 292.8491 
L 470.046018 292.81473 
L 482.155359 292.71162 
L 483.552591 292.574141 
L 504.511066 292.471031 
L 506.839786 292.402291 
L 518.949127 292.333552 
L 519.880615 292.264812 
L 522.209334 292.196072 
L 523.606566 292.058592 
L 526.401029 291.955483 
L 529.661237 291.818003 
L 533.852932 291.714894 
L 536.181651 291.646154 
L 539.441859 291.543044 
L 543.16781 291.371195 
L 545.496529 291.268085 
L 547.359505 291.233715 
L 551.5512 291.130606 
L 553.414175 291.096236 
L 559.468846 290.993126 
L 561.331822 290.958756 
L 563.660541 290.855646 
L 566.455005 290.752537 
L 569.715212 290.683797 
L 570.6467 290.615057 
L 581.824553 290.511948 
L 587.879224 290.168249 
L 590.207943 290.099509 
L 591.139431 289.996399 
L 592.070919 289.92766 
L 595.79687 289.82455 
L 598.591333 289.72144 
L 603.248772 289.618331 
L 605.577492 289.377741 
L 610.234931 289.274632 
L 611.166419 289.171522 
L 615.823858 289.068412 
L 618.152577 288.999673 
L 623.27576 288.965303 
L 624.207248 288.862193 
L 629.330431 288.759083 
L 630.261918 288.690344 
L 640.508284 288.587234 
L 643.302747 288.484124 
L 650.288906 288.381015 
L 652.151881 288.346645 
L 656.343577 288.277905 
L 657.275064 288.174795 
L 663.329735 288.071686 
L 665.658454 288.002946 
L 674.041845 287.899836 
L 675.439076 287.796727 
L 676.836308 287.693617 
L 678.23354 287.590507 
L 685.219698 287.487398 
L 688.014162 287.384288 
L 700.589247 287.281178 
L 704.780942 287.074959 
L 710.369869 286.971849 
L 711.301356 286.90311 
L 718.287515 286.83437 
L 719.219003 286.76563 
L 724.342185 286.66252 
L 726.205161 286.628151 
L 732.725576 286.525041 
L 735.520039 286.421931 
L 743.437685 286.318822 
L 745.300661 286.284452 
L 747.163636 286.250082 
L 747.163636 286.250082 
" clip-path="url(#pd92c95177d)" style="fill: none; stroke: #ff7f0e; stroke-width: 1.5; stroke-linecap: square"/>
   </g>
   <g id="patch_3">
    <path d="M 108 320.4 
L 108 43.2 
" style="fill: none; stroke: #a9a9a9; stroke-width: 0.8; stroke-linejoin: miter; stroke-linecap: square"/>
   </g>
   <g id="patch_4">
    <path d="M 777.6 320.4 
L 777.6 43.2 
" style="fill: none"/>
   </g>
   <g id="patch_5">
    <path d="M 108 320.4 
L 777.6 320.4 
" style="fill: none; stroke: #a9a9a9; stroke-width: 0.8; stroke-linejoin: miter; stroke-linecap: square"/>
   </g>
   <g id="patch_6">
    <path d="M 108 43.2 
L 777.6 43.2 
" style="fill: none"/>
   </g>
   <g id="text_17">
    <!-- get_subscribe history -->
    <g style="fill: #a9a9a9" transform="translate(378.6075 37.2) scale(0.12 -0.12)">
     <defs>
      <path id="DejaVuSans-67" d="M 2906 1791 
Q 2906 2416 2648 2759 
Q 2391 3103 1925 3103 
Q 1463 3103 1205 2759 
Q 947 2416 947 1791 
Q 947 1169 1205 825 
Q 1463 481 1925 481 
Q 2391 481 2648 825 
Q 2906 1169 2906 1791 
z
M 3481 434 
Q 3481 -459 3084 -895 
Q 2688 -1331 1869 -1331 
Q 1566 -1331 1297 -1286 
Q 1028 -1241 775 -1147 
L 775 -588 
Q 1028 -725 1275 -790 
Q 1522 -856 1778 -856 
Q 2344 -856 2625 -561 
Q 2906 -266 2906 331 
L 2906 616 
Q 2728 306 2450 153 
Q 2172 0 1784 0 
Q 1141 0 747 490 
Q 353 981 353 1791 
Q 353 2603 747 3093 
Q 1141 3584 1784 3584 
Q 2172 3584 2450 3431 
Q 2728 3278 2906 2969 
L 2906 3500 
L 3481 3500 
L 3481 434 
z
" transform="scale(0.015625)"/>
      <path id="DejaVuSans-65" d="M 3597 1894 
L 3597 1613 
L 953 1613 
Q 991 1019 1311 708 
Q 1631 397 2203 397 
Q 2534 397 2845 478 
Q 3156 559 3463 722 
L 3463 178 
Q 3153 47 2828 -22 
Q 2503 -91 2169 -91 
Q 1331 -91 842 396 
Q 353 884 353 1716 
Q 353 2575 817 3079 
Q 1281 3584 2069 3584 
Q 2775 3584 3186 3129 
Q 3597 2675 3597 1894 
z
M 3022 2063 
Q 3016 2534 2758 2815 
Q 2500 3097 2075 3097 
Q 1594 3097 1305 2825 
Q 1016 2553 972 2059 
L 3022 2063 
z
" transform="scale(0.015625)"/>
      <path id="DejaVuSans-74" d="M 1172 4494 
L 1172 3500 
L 2356 3500 
L 2356 3053 
L 1172 3053 
L 1172 1153 
Q 1172 725 1289 603 
Q 1406 481 1766 481 
L 2356 481 
L 2356 0 
L 1766 0 
Q 1100 0 847 248 
Q 594 497 594 1153 
L 594 3053 
L 172 3053 
L 172 3500 
L 594 3500 
L 594 4494 
L 1172 4494 
z
" transform="scale(0.015625)"/>
      <path id="DejaVuSans-5f" d="M 3263 -1063 
L 3263 -1509 
L -63 -1509 
L -63 -1063 
L 3263 -1063 
z
" transform="scale(0.015625)"/>
      <path id="DejaVuSans-73" d="M 2834 3397 
L 2834 2853 
Q 2591 2978 2328 3040 
Q 2066 3103 1784 3103 
Q 1356 3103 1142 2972 
Q 928 2841 928 2578 
Q 928 2378 1081 2264 
Q 1234 2150 1697 2047 
L 1894 2003 
Q 2506 1872 2764 1633 
Q 3022 1394 3022 966 
Q 3022 478 2636 193 
Q 2250 -91 1575 -91 
Q 1294 -91 989 -36 
Q 684 19 347 128 
L 347 722 
Q 666 556 975 473 
Q 1284 391 1588 391 
Q 1994 391 2212 530 
Q 2431 669 2431 922 
Q 2431 1156 2273 1281 
Q 2116 1406 1581 1522 
L 1381 1569 
Q 847 1681 609 1914 
Q 372 2147 372 2553 
Q 372 3047 722 3315 
Q 1072 3584 1716 3584 
Q 2034 3584 2315 3537 
Q 2597 3491 2834 3397 
z
" transform="scale(0.015625)"/>
      <path id="DejaVuSans-75" d="M 544 1381 
L 544 3500 
L 1119 3500 
L 1119 1403 
Q 1119 906 1312 657 
Q 1506 409 1894 409 
Q 2359 409 2629 706 
Q 2900 1003 2900 1516 
L 2900 3500 
L 3475 3500 
L 3475 0 
L 2900 0 
L 2900 538 
Q 2691 219 2414 64 
Q 2138 -91 1772 -91 
Q 1169 -91 856 284 
Q 544 659 544 1381 
z
M 1991 3584 
L 1991 3584 
z
" transform="scale(0.015625)"/>
      <path id="DejaVuSans-62" d="M 3116 1747 
Q 3116 2381 2855 2742 
Q 2594 3103 2138 3103 
Q 1681 3103 1420 2742 
Q 1159 2381 1159 1747 
Q 1159 1113 1420 752 
Q 1681 391 2138 391 
Q 2594 391 2855 752 
Q 3116 1113 3116 1747 
z
M 1159 2969 
Q 1341 3281 1617 3432 
Q 1894 3584 2278 3584 
Q 2916 3584 3314 3078 
Q 3713 2572 3713 1747 
Q 3713 922 3314 415 
Q 2916 -91 2278 -91 
Q 1894 -91 1617 61 
Q 1341 213 1159 525 
L 1159 0 
L 581 0 
L 581 4863 
L 1159 4863 
L 1159 2969 
z
" transform="scale(0.015625)"/>
      <path id="DejaVuSans-63" d="M 3122 3366 
L 3122 2828 
Q 2878 2963 2633 3030 
Q 2388 3097 2138 3097 
Q 1578 3097 1268 2742 
Q 959 2388 959 1747 
Q 959 1106 1268 751 
Q 1578 397 2138 397 
Q 2388 397 2633 464 
Q 2878 531 3122 666 
L 3122 134 
Q 2881 22 2623 -34 
Q 2366 -91 2075 -91 
Q 1284 -91 818 406 
Q 353 903 353 1747 
Q 353 2603 823 3093 
Q 1294 3584 2113 3584 
Q 2378 3584 2631 3529 
Q 2884 3475 3122 3366 
z
" transform="scale(0.015625)"/>
      <path id="DejaVuSans-72" d="M 2631 2963 
Q 2534 3019 2420 3045 
Q 2306 3072 2169 3072 
Q 1681 3072 1420 2755 
Q 1159 2438 1159 1844 
L 1159 0 
L 581 0 
L 581 3500 
L 1159 3500 
L 1159 2956 
Q 1341 3275 1631 3429 
Q 1922 3584 2338 3584 
Q 2397 3584 2469 3576 
Q 2541 3569 2628 3553 
L 2631 2963 
z
" transform="scale(0.015625)"/>
      <path id="DejaVuSans-69" d="M 603 3500 
L 1178 3500 
L 1178 0 
L 603 0 
L 603 3500 
z
M 603 4863 
L 1178 4863 
L 1178 4134 
L 603 4134 
L 603 4863 
z
" transform="scale(0.015625)"/>
      <path id="DejaVuSans-20" transform="scale(0.015625)"/>
      <path id="DejaVuSans-68" d="M 3513 2113 
L 3513 0 
L 2938 0 
L 2938 2094 
Q 2938 2591 2744 2837 
Q 2550 3084 2163 3084 
Q 1697 3084 1428 2787 
Q 1159 2491 1159 1978 
L 1159 0 
L 581 0 
L 581 4863 
L 1159 4863 
L 1159 2956 
Q 1366 3272 1645 3428 
Q 1925 3584 2291 3584 
Q 2894 3584 3203 3211 
Q 3513 2838 3513 2113 
z
" transform="scale(0.015625)"/>
      <path id="DejaVuSans-6f" d="M 1959 3097 
Q 1497 3097 1228 2736 
Q 959 2375 959 1747 
Q 959 1119 1226 758 
Q 1494 397 1959 397 
Q 2419 397 2687 759 
Q 2956 1122 2956 1747 
Q 2956 2369 2687 2733 
Q 2419 3097 1959 3097 
z
M 1959 3584 
Q 2709 3584 3137 3096 
Q 3566 2609 3566 1747 
Q 3566 888 3137 398 
Q 2709 -91 1959 -91 
Q 1206 -91 779 398 
Q 353 888 353 1747 
Q 353 2609 779 3096 
Q 1206 3584 1959 3584 
z
" transform="scale(0.015625)"/>
      <path id="DejaVuSans-79" d="M 2059 -325 
Q 1816 -950 1584 -1140 
Q 1353 -1331 966 -1331 
L 506 -1331 
L 506 -850 
L 844 -850 
Q 1081 -850 1212 -737 
Q 1344 -625 1503 -206 
L 1606 56 
L 191 3500 
L 800 3500 
L 1894 763 
L 2988 3500 
L 3597 3500 
L 2059 -325 
z
" transform="scale(0.015625)"/>
     </defs>
     <use xlink:href="#DejaVuSans-67"/>
     <use xlink:href="#DejaVuSans-65" transform="translate(63.476562 0)"/>
     <use xlink:href="#DejaVuSans-74" transform="translate(125 0)"/>
     <use xlink:href="#DejaVuSans-5f" transform="translate(164.208984 0)"/>
     <use xlink:href="#DejaVuSans-73" transform="translate(214.208984 0)"/>
     <use xlink:href="#DejaVuSans-75" transform="translate(266.308594 0)"/>
     <use xlink:href="#DejaVuSans-62" transform="translate(329.6875 0)"/>
     <use xlink:href="#DejaVuSans-73" transform="translate(393.164062 0)"/>
     <use xlink:href="#DejaVuSans-63" transform="translate(445.263672 0)"/>
     <use xlink:href="#DejaVuSans-72" transform="translate(500.244141 0)"/>
     <use xlink:href="#DejaVuSans-69" transform="translate(541.357422 0)"/>
     <use xlink:href="#DejaVuSans-62" transform="translate(569.140625 0)"/>
     <use xlink:href="#DejaVuSans-65" transform="translate(632.617188 0)"/>
     <use xlink:href="#DejaVuSans-20" transform="translate(694.140625 0)"/>
     <use xlink:href="#DejaVuSans-68" transform="translate(725.927734 0)"/>
     <use xlink:href="#DejaVuSans-69" transform="translate(789.306641 0)"/>
     <use xlink:href="#DejaVuSans-73" transform="translate(817.089844 0)"/>
     <use xlink:href="#DejaVuSans-74" transform="translate(869.189453 0)"/>
     <use xlink:href="#DejaVuSans-6f" transform="translate(908.398438 0)"/>
     <use xlink:href="#DejaVuSans-72" transform="translate(969.580078 0)"/>
     <use xlink:href="#DejaVuSans-79" transform="translate(1010.693359 0)"/>
    </g>
   </g>
   <g id="legend_1">
    <g id="line2d_35">
     <path d="M 815.08 328.498438 
L 825.08 328.498438 
L 835.08 328.498438 
" style="fill: none; stroke: #1f77b4; stroke-width: 1.5; stroke-linecap: square"/>
    </g>
    <g id="text_18">
     <!-- star -->
     <g style="fill: #a9a9a9" transform="translate(843.08 331.998438) scale(0.1 -0.1)">
      <defs>
       <path id="DejaVuSans-61" d="M 2194 1759 
Q 1497 1759 1228 1600 
Q 959 1441 959 1056 
Q 959 750 1161 570 
Q 1363 391 1709 391 
Q 2188 391 2477 730 
Q 2766 1069 2766 1631 
L 2766 1759 
L 2194 1759 
z
M 3341 1997 
L 3341 0 
L 2766 0 
L 2766 531 
Q 2569 213 2275 61 
Q 1981 -91 1556 -91 
Q 1019 -91 701 211 
Q 384 513 384 1019 
Q 384 1609 779 1909 
Q 1175 2209 1959 2209 
L 2766 2209 
L 2766 2266 
Q 2766 2663 2505 2880 
Q 2244 3097 1772 3097 
Q 1472 3097 1187 3025 
Q 903 2953 641 2809 
L 641 3341 
Q 956 3463 1253 3523 
Q 1550 3584 1831 3584 
Q 2591 3584 2966 3190 
Q 3341 2797 3341 1997 
z
" transform="scale(0.015625)"/>
      </defs>
      <use xlink:href="#DejaVuSans-73"/>
      <use xlink:href="#DejaVuSans-74" transform="translate(52.099609 0)"/>
      <use xlink:href="#DejaVuSans-61" transform="translate(91.308594 0)"/>
      <use xlink:href="#DejaVuSans-72" transform="translate(152.587891 0)"/>
     </g>
    </g>
    <g id="line2d_36">
     <path d="M 815.08 343.176562 
L 825.08 343.176562 
L 835.08 343.176562 
" style="fill: none; stroke: #ff7f0e; stroke-width: 1.5; stroke-linecap: square"/>
    </g>
    <g id="text_19">
     <!-- fork -->
     <g style="fill: #a9a9a9" transform="translate(843.08 346.676562) scale(0.1 -0.1)">
      <defs>
       <path id="DejaVuSans-66" d="M 2375 4863 
L 2375 4384 
L 1825 4384 
Q 1516 4384 1395 4259 
Q 1275 4134 1275 3809 
L 1275 3500 
L 2222 3500 
L 2222 3053 
L 1275 3053 
L 1275 0 
L 697 0 
L 697 3053 
L 147 3053 
L 147 3500 
L 697 3500 
L 697 3744 
Q 697 4328 969 4595 
Q 1241 4863 1831 4863 
L 2375 4863 
z
" transform="scale(0.015625)"/>
       <path id="DejaVuSans-6b" d="M 581 4863 
L 1159 4863 
L 1159 1991 
L 2875 3500 
L 3609 3500 
L 1753 1863 
L 3688 0 
L 2938 0 
L 1159 1709 
L 1159 0 
L 581 0 
L 581 4863 
z
" transform="scale(0.015625)"/>
      </defs>
      <use xlink:href="#DejaVuSans-66"/>
      <use xlink:href="#DejaVuSans-6f" transform="translate(35.205078 0)"/>
      <use xlink:href="#DejaVuSans-72" transform="translate(96.386719 0)"/>
      <use xlink:href="#DejaVuSans-6b" transform="translate(137.5 0)"/>
     </g>
    </g>
   </g>
  </g>
 </g>
 <defs>
  <clipPath id="pd92c95177d">
   <rect x="108" y="43.2" width="669.6" height="277.2"/>
  </clipPath>
 </defs>
</svg>
