<?xml version="1.0" encoding="utf-8" standalone="no"?>
<!DOCTYPE svg PUBLIC "-//W3C//DTD SVG 1.1//EN"
  "http://www.w3.org/Graphics/SVG/1.1/DTD/svg11.dtd">
<svg xmlns:xlink="http://www.w3.org/1999/xlink" width="864pt" height="360pt" viewBox="0 0 864 360" xmlns="http://www.w3.org/2000/svg" version="1.1">
 <metadata>
  <rdf:RDF xmlns:dc="http://purl.org/dc/elements/1.1/" xmlns:cc="http://creativecommons.org/ns#" xmlns:rdf="http://www.w3.org/1999/02/22-rdf-syntax-ns#">
   <cc:Work>
    <dc:type rdf:resource="http://purl.org/dc/dcmitype/StillImage"/>
    <dc:date>2024-09-17T20:05:25.136757</dc:date>
    <dc:format>image/svg+xml</dc:format>
    <dc:creator>
     <cc:Agent>
      <dc:title>Matplotlib v3.9.2, https://matplotlib.org/</dc:title>
     </cc:Agent>
    </dc:creator>
   </cc:Work>
  </rdf:RDF>
 </metadata>
 <defs>
  <style type="text/css">*{stroke-linejoin: round; stroke-linecap: butt}</style>
 </defs>
 <g id="figure_1">
  <g id="patch_1">
   <path d="M 0 360 
L 864 360 
L 864 0 
L 0 0 
L 0 360 
z
" style="fill: none; opacity: 0"/>
  </g>
  <g id="axes_1">
   <g id="patch_2">
    <path d="M 108 320.4 
L 777.6 320.4 
L 777.6 43.2 
L 108 43.2 
L 108 320.4 
z
" style="fill: none; opacity: 0"/>
   </g>
   <g id="matplotlib.axis_1">
    <g id="xtick_1">
     <g id="line2d_1">
      <path d="M 159.062223 320.4 
L 159.062223 43.2 
" clip-path="url(#p045169f887)" style="fill: none; stroke-dasharray: 5.12,1.28,0.8,1.28; stroke-dashoffset: 0; stroke: #b0b0b0; stroke-width: 0.8"/>
     </g>
     <g id="line2d_2">
      <defs>
       <path id="mc18f0709ed" d="M 0 0 
L 0 3.5 
" style="stroke: #a9a9a9; stroke-width: 0.8"/>
      </defs>
      <g>
       <use xlink:href="#mc18f0709ed" x="159.062223" y="320.4" style="fill: #a9a9a9; stroke: #a9a9a9; stroke-width: 0.8"/>
      </g>
     </g>
     <g id="text_1">
      <!-- 2021-09 -->
      <g style="fill: #a9a9a9" transform="translate(138.170816 334.998438) scale(0.1 -0.1)">
       <defs>
        <path id="DejaVuSans-32" d="M 1228 531 
L 3431 531 
L 3431 0 
L 469 0 
L 469 531 
Q 828 903 1448 1529 
Q 2069 2156 2228 2338 
Q 2531 2678 2651 2914 
Q 2772 3150 2772 3378 
Q 2772 3750 2511 3984 
Q 2250 4219 1831 4219 
Q 1534 4219 1204 4116 
Q 875 4013 500 3803 
L 500 4441 
Q 881 4594 1212 4672 
Q 1544 4750 1819 4750 
Q 2544 4750 2975 4387 
Q 3406 4025 3406 3419 
Q 3406 3131 3298 2873 
Q 3191 2616 2906 2266 
Q 2828 2175 2409 1742 
Q 1991 1309 1228 531 
z
" transform="scale(0.015625)"/>
        <path id="DejaVuSans-30" d="M 2034 4250 
Q 1547 4250 1301 3770 
Q 1056 3291 1056 2328 
Q 1056 1369 1301 889 
Q 1547 409 2034 409 
Q 2525 409 2770 889 
Q 3016 1369 3016 2328 
Q 3016 3291 2770 3770 
Q 2525 4250 2034 4250 
z
M 2034 4750 
Q 2819 4750 3233 4129 
Q 3647 3509 3647 2328 
Q 3647 1150 3233 529 
Q 2819 -91 2034 -91 
Q 1250 -91 836 529 
Q 422 1150 422 2328 
Q 422 3509 836 4129 
Q 1250 4750 2034 4750 
z
" transform="scale(0.015625)"/>
        <path id="DejaVuSans-31" d="M 794 531 
L 1825 531 
L 1825 4091 
L 703 3866 
L 703 4441 
L 1819 4666 
L 2450 4666 
L 2450 531 
L 3481 531 
L 3481 0 
L 794 0 
L 794 531 
z
" transform="scale(0.015625)"/>
        <path id="DejaVuSans-2d" d="M 313 2009 
L 1997 2009 
L 1997 1497 
L 313 1497 
L 313 2009 
z
" transform="scale(0.015625)"/>
        <path id="DejaVuSans-39" d="M 703 97 
L 703 672 
Q 941 559 1184 500 
Q 1428 441 1663 441 
Q 2288 441 2617 861 
Q 2947 1281 2994 2138 
Q 2813 1869 2534 1725 
Q 2256 1581 1919 1581 
Q 1219 1581 811 2004 
Q 403 2428 403 3163 
Q 403 3881 828 4315 
Q 1253 4750 1959 4750 
Q 2769 4750 3195 4129 
Q 3622 3509 3622 2328 
Q 3622 1225 3098 567 
Q 2575 -91 1691 -91 
Q 1453 -91 1209 -44 
Q 966 3 703 97 
z
M 1959 2075 
Q 2384 2075 2632 2365 
Q 2881 2656 2881 3163 
Q 2881 3666 2632 3958 
Q 2384 4250 1959 4250 
Q 1534 4250 1286 3958 
Q 1038 3666 1038 3163 
Q 1038 2656 1286 2365 
Q 1534 2075 1959 2075 
z
" transform="scale(0.015625)"/>
       </defs>
       <use xlink:href="#DejaVuSans-32"/>
       <use xlink:href="#DejaVuSans-30" x="63.623047"/>
       <use xlink:href="#DejaVuSans-32" x="127.246094"/>
       <use xlink:href="#DejaVuSans-31" x="190.869141"/>
       <use xlink:href="#DejaVuSans-2d" x="254.492188"/>
       <use xlink:href="#DejaVuSans-30" x="290.576172"/>
       <use xlink:href="#DejaVuSans-39" x="354.199219"/>
      </g>
     </g>
    </g>
    <g id="xtick_2">
     <g id="line2d_3">
      <path d="M 223.58414 320.4 
L 223.58414 43.2 
" clip-path="url(#p045169f887)" style="fill: none; stroke-dasharray: 5.12,1.28,0.8,1.28; stroke-dashoffset: 0; stroke: #b0b0b0; stroke-width: 0.8"/>
     </g>
     <g id="line2d_4">
      <g>
       <use xlink:href="#mc18f0709ed" x="223.58414" y="320.4" style="fill: #a9a9a9; stroke: #a9a9a9; stroke-width: 0.8"/>
      </g>
     </g>
     <g id="text_2">
      <!-- 2022-01 -->
      <g style="fill: #a9a9a9" transform="translate(202.692734 334.998438) scale(0.1 -0.1)">
       <use xlink:href="#DejaVuSans-32"/>
       <use xlink:href="#DejaVuSans-30" x="63.623047"/>
       <use xlink:href="#DejaVuSans-32" x="127.246094"/>
       <use xlink:href="#DejaVuSans-32" x="190.869141"/>
       <use xlink:href="#DejaVuSans-2d" x="254.492188"/>
       <use xlink:href="#DejaVuSans-30" x="290.576172"/>
       <use xlink:href="#DejaVuSans-31" x="354.199219"/>
      </g>
     </g>
    </g>
    <g id="xtick_3">
     <g id="line2d_5">
      <path d="M 287.048322 320.4 
L 287.048322 43.2 
" clip-path="url(#p045169f887)" style="fill: none; stroke-dasharray: 5.12,1.28,0.8,1.28; stroke-dashoffset: 0; stroke: #b0b0b0; stroke-width: 0.8"/>
     </g>
     <g id="line2d_6">
      <g>
       <use xlink:href="#mc18f0709ed" x="287.048322" y="320.4" style="fill: #a9a9a9; stroke: #a9a9a9; stroke-width: 0.8"/>
      </g>
     </g>
     <g id="text_3">
      <!-- 2022-05 -->
      <g style="fill: #a9a9a9" transform="translate(266.156915 334.998438) scale(0.1 -0.1)">
       <defs>
        <path id="DejaVuSans-35" d="M 691 4666 
L 3169 4666 
L 3169 4134 
L 1269 4134 
L 1269 2991 
Q 1406 3038 1543 3061 
Q 1681 3084 1819 3084 
Q 2600 3084 3056 2656 
Q 3513 2228 3513 1497 
Q 3513 744 3044 326 
Q 2575 -91 1722 -91 
Q 1428 -91 1123 -41 
Q 819 9 494 109 
L 494 744 
Q 775 591 1075 516 
Q 1375 441 1709 441 
Q 2250 441 2565 725 
Q 2881 1009 2881 1497 
Q 2881 1984 2565 2268 
Q 2250 2553 1709 2553 
Q 1456 2553 1204 2497 
Q 953 2441 691 2322 
L 691 4666 
z
" transform="scale(0.015625)"/>
       </defs>
       <use xlink:href="#DejaVuSans-32"/>
       <use xlink:href="#DejaVuSans-30" x="63.623047"/>
       <use xlink:href="#DejaVuSans-32" x="127.246094"/>
       <use xlink:href="#DejaVuSans-32" x="190.869141"/>
       <use xlink:href="#DejaVuSans-2d" x="254.492188"/>
       <use xlink:href="#DejaVuSans-30" x="290.576172"/>
       <use xlink:href="#DejaVuSans-35" x="354.199219"/>
      </g>
     </g>
    </g>
    <g id="xtick_4">
     <g id="line2d_7">
      <path d="M 352.099107 320.4 
L 352.099107 43.2 
" clip-path="url(#p045169f887)" style="fill: none; stroke-dasharray: 5.12,1.28,0.8,1.28; stroke-dashoffset: 0; stroke: #b0b0b0; stroke-width: 0.8"/>
     </g>
     <g id="line2d_8">
      <g>
       <use xlink:href="#mc18f0709ed" x="352.099107" y="320.4" style="fill: #a9a9a9; stroke: #a9a9a9; stroke-width: 0.8"/>
      </g>
     </g>
     <g id="text_4">
      <!-- 2022-09 -->
      <g style="fill: #a9a9a9" transform="translate(331.207701 334.998438) scale(0.1 -0.1)">
       <use xlink:href="#DejaVuSans-32"/>
       <use xlink:href="#DejaVuSans-30" x="63.623047"/>
       <use xlink:href="#DejaVuSans-32" x="127.246094"/>
       <use xlink:href="#DejaVuSans-32" x="190.869141"/>
       <use xlink:href="#DejaVuSans-2d" x="254.492188"/>
       <use xlink:href="#DejaVuSans-30" x="290.576172"/>
       <use xlink:href="#DejaVuSans-39" x="354.199219"/>
      </g>
     </g>
    </g>
    <g id="xtick_5">
     <g id="line2d_9">
      <path d="M 416.621025 320.4 
L 416.621025 43.2 
" clip-path="url(#p045169f887)" style="fill: none; stroke-dasharray: 5.12,1.28,0.8,1.28; stroke-dashoffset: 0; stroke: #b0b0b0; stroke-width: 0.8"/>
     </g>
     <g id="line2d_10">
      <g>
       <use xlink:href="#mc18f0709ed" x="416.621025" y="320.4" style="fill: #a9a9a9; stroke: #a9a9a9; stroke-width: 0.8"/>
      </g>
     </g>
     <g id="text_5">
      <!-- 2023-01 -->
      <g style="fill: #a9a9a9" transform="translate(395.729619 334.998438) scale(0.1 -0.1)">
       <defs>
        <path id="DejaVuSans-33" d="M 2597 2516 
Q 3050 2419 3304 2112 
Q 3559 1806 3559 1356 
Q 3559 666 3084 287 
Q 2609 -91 1734 -91 
Q 1441 -91 1130 -33 
Q 819 25 488 141 
L 488 750 
Q 750 597 1062 519 
Q 1375 441 1716 441 
Q 2309 441 2620 675 
Q 2931 909 2931 1356 
Q 2931 1769 2642 2001 
Q 2353 2234 1838 2234 
L 1294 2234 
L 1294 2753 
L 1863 2753 
Q 2328 2753 2575 2939 
Q 2822 3125 2822 3475 
Q 2822 3834 2567 4026 
Q 2313 4219 1838 4219 
Q 1578 4219 1281 4162 
Q 984 4106 628 3988 
L 628 4550 
Q 988 4650 1302 4700 
Q 1616 4750 1894 4750 
Q 2613 4750 3031 4423 
Q 3450 4097 3450 3541 
Q 3450 3153 3228 2886 
Q 3006 2619 2597 2516 
z
" transform="scale(0.015625)"/>
       </defs>
       <use xlink:href="#DejaVuSans-32"/>
       <use xlink:href="#DejaVuSans-30" x="63.623047"/>
       <use xlink:href="#DejaVuSans-32" x="127.246094"/>
       <use xlink:href="#DejaVuSans-33" x="190.869141"/>
       <use xlink:href="#DejaVuSans-2d" x="254.492188"/>
       <use xlink:href="#DejaVuSans-30" x="290.576172"/>
       <use xlink:href="#DejaVuSans-31" x="354.199219"/>
      </g>
     </g>
    </g>
    <g id="xtick_6">
     <g id="line2d_11">
      <path d="M 480.085207 320.4 
L 480.085207 43.2 
" clip-path="url(#p045169f887)" style="fill: none; stroke-dasharray: 5.12,1.28,0.8,1.28; stroke-dashoffset: 0; stroke: #b0b0b0; stroke-width: 0.8"/>
     </g>
     <g id="line2d_12">
      <g>
       <use xlink:href="#mc18f0709ed" x="480.085207" y="320.4" style="fill: #a9a9a9; stroke: #a9a9a9; stroke-width: 0.8"/>
      </g>
     </g>
     <g id="text_6">
      <!-- 2023-05 -->
      <g style="fill: #a9a9a9" transform="translate(459.1938 334.998438) scale(0.1 -0.1)">
       <use xlink:href="#DejaVuSans-32"/>
       <use xlink:href="#DejaVuSans-30" x="63.623047"/>
       <use xlink:href="#DejaVuSans-32" x="127.246094"/>
       <use xlink:href="#DejaVuSans-33" x="190.869141"/>
       <use xlink:href="#DejaVuSans-2d" x="254.492188"/>
       <use xlink:href="#DejaVuSans-30" x="290.576172"/>
       <use xlink:href="#DejaVuSans-35" x="354.199219"/>
      </g>
     </g>
    </g>
    <g id="xtick_7">
     <g id="line2d_13">
      <path d="M 545.135992 320.4 
L 545.135992 43.2 
" clip-path="url(#p045169f887)" style="fill: none; stroke-dasharray: 5.12,1.28,0.8,1.28; stroke-dashoffset: 0; stroke: #b0b0b0; stroke-width: 0.8"/>
     </g>
     <g id="line2d_14">
      <g>
       <use xlink:href="#mc18f0709ed" x="545.135992" y="320.4" style="fill: #a9a9a9; stroke: #a9a9a9; stroke-width: 0.8"/>
      </g>
     </g>
     <g id="text_7">
      <!-- 2023-09 -->
      <g style="fill: #a9a9a9" transform="translate(524.244586 334.998438) scale(0.1 -0.1)">
       <use xlink:href="#DejaVuSans-32"/>
       <use xlink:href="#DejaVuSans-30" x="63.623047"/>
       <use xlink:href="#DejaVuSans-32" x="127.246094"/>
       <use xlink:href="#DejaVuSans-33" x="190.869141"/>
       <use xlink:href="#DejaVuSans-2d" x="254.492188"/>
       <use xlink:href="#DejaVuSans-30" x="290.576172"/>
       <use xlink:href="#DejaVuSans-39" x="354.199219"/>
      </g>
     </g>
    </g>
    <g id="xtick_8">
     <g id="line2d_15">
      <path d="M 609.65791 320.4 
L 609.65791 43.2 
" clip-path="url(#p045169f887)" style="fill: none; stroke-dasharray: 5.12,1.28,0.8,1.28; stroke-dashoffset: 0; stroke: #b0b0b0; stroke-width: 0.8"/>
     </g>
     <g id="line2d_16">
      <g>
       <use xlink:href="#mc18f0709ed" x="609.65791" y="320.4" style="fill: #a9a9a9; stroke: #a9a9a9; stroke-width: 0.8"/>
      </g>
     </g>
     <g id="text_8">
      <!-- 2024-01 -->
      <g style="fill: #a9a9a9" transform="translate(588.766504 334.998438) scale(0.1 -0.1)">
       <defs>
        <path id="DejaVuSans-34" d="M 2419 4116 
L 825 1625 
L 2419 1625 
L 2419 4116 
z
M 2253 4666 
L 3047 4666 
L 3047 1625 
L 3713 1625 
L 3713 1100 
L 3047 1100 
L 3047 0 
L 2419 0 
L 2419 1100 
L 313 1100 
L 313 1709 
L 2253 4666 
z
" transform="scale(0.015625)"/>
       </defs>
       <use xlink:href="#DejaVuSans-32"/>
       <use xlink:href="#DejaVuSans-30" x="63.623047"/>
       <use xlink:href="#DejaVuSans-32" x="127.246094"/>
       <use xlink:href="#DejaVuSans-34" x="190.869141"/>
       <use xlink:href="#DejaVuSans-2d" x="254.492188"/>
       <use xlink:href="#DejaVuSans-30" x="290.576172"/>
       <use xlink:href="#DejaVuSans-31" x="354.199219"/>
      </g>
     </g>
    </g>
    <g id="xtick_9">
     <g id="line2d_17">
      <path d="M 673.65096 320.4 
L 673.65096 43.2 
" clip-path="url(#p045169f887)" style="fill: none; stroke-dasharray: 5.12,1.28,0.8,1.28; stroke-dashoffset: 0; stroke: #b0b0b0; stroke-width: 0.8"/>
     </g>
     <g id="line2d_18">
      <g>
       <use xlink:href="#mc18f0709ed" x="673.65096" y="320.4" style="fill: #a9a9a9; stroke: #a9a9a9; stroke-width: 0.8"/>
      </g>
     </g>
     <g id="text_9">
      <!-- 2024-05 -->
      <g style="fill: #a9a9a9" transform="translate(652.759553 334.998438) scale(0.1 -0.1)">
       <use xlink:href="#DejaVuSans-32"/>
       <use xlink:href="#DejaVuSans-30" x="63.623047"/>
       <use xlink:href="#DejaVuSans-32" x="127.246094"/>
       <use xlink:href="#DejaVuSans-34" x="190.869141"/>
       <use xlink:href="#DejaVuSans-2d" x="254.492188"/>
       <use xlink:href="#DejaVuSans-30" x="290.576172"/>
       <use xlink:href="#DejaVuSans-35" x="354.199219"/>
      </g>
     </g>
    </g>
    <g id="xtick_10">
     <g id="line2d_19">
      <path d="M 738.701746 320.4 
L 738.701746 43.2 
" clip-path="url(#p045169f887)" style="fill: none; stroke-dasharray: 5.12,1.28,0.8,1.28; stroke-dashoffset: 0; stroke: #b0b0b0; stroke-width: 0.8"/>
     </g>
     <g id="line2d_20">
      <g>
       <use xlink:href="#mc18f0709ed" x="738.701746" y="320.4" style="fill: #a9a9a9; stroke: #a9a9a9; stroke-width: 0.8"/>
      </g>
     </g>
     <g id="text_10">
      <!-- 2024-09 -->
      <g style="fill: #a9a9a9" transform="translate(717.810339 334.998438) scale(0.1 -0.1)">
       <use xlink:href="#DejaVuSans-32"/>
       <use xlink:href="#DejaVuSans-30" x="63.623047"/>
       <use xlink:href="#DejaVuSans-32" x="127.246094"/>
       <use xlink:href="#DejaVuSans-34" x="190.869141"/>
       <use xlink:href="#DejaVuSans-2d" x="254.492188"/>
       <use xlink:href="#DejaVuSans-30" x="290.576172"/>
       <use xlink:href="#DejaVuSans-39" x="354.199219"/>
      </g>
     </g>
    </g>
   </g>
   <g id="matplotlib.axis_2">
    <g id="ytick_1">
     <g id="line2d_21">
      <path d="M 108 307.837696 
L 777.6 307.837696 
" clip-path="url(#p045169f887)" style="fill: none; stroke-dasharray: 5.12,1.28,0.8,1.28; stroke-dashoffset: 0; stroke: #b0b0b0; stroke-width: 0.8"/>
     </g>
     <g id="line2d_22">
      <defs>
       <path id="m3f85d74104" d="M 0 0 
L -3.5 0 
" style="stroke: #a9a9a9; stroke-width: 0.8"/>
      </defs>
      <g>
       <use xlink:href="#m3f85d74104" x="108" y="307.837696" style="fill: #a9a9a9; stroke: #a9a9a9; stroke-width: 0.8"/>
      </g>
     </g>
     <g id="text_11">
      <!-- 0 -->
      <g style="fill: #a9a9a9" transform="translate(94.6375 311.636915) scale(0.1 -0.1)">
       <use xlink:href="#DejaVuSans-30"/>
      </g>
     </g>
    </g>
    <g id="ytick_2">
     <g id="line2d_23">
      <path d="M 108 277.680628 
L 777.6 277.680628 
" clip-path="url(#p045169f887)" style="fill: none; stroke-dasharray: 5.12,1.28,0.8,1.28; stroke-dashoffset: 0; stroke: #b0b0b0; stroke-width: 0.8"/>
     </g>
     <g id="line2d_24">
      <g>
       <use xlink:href="#m3f85d74104" x="108" y="277.680628" style="fill: #a9a9a9; stroke: #a9a9a9; stroke-width: 0.8"/>
      </g>
     </g>
     <g id="text_12">
      <!-- 800 -->
      <g style="fill: #a9a9a9" transform="translate(81.9125 281.479847) scale(0.1 -0.1)">
       <defs>
        <path id="DejaVuSans-38" d="M 2034 2216 
Q 1584 2216 1326 1975 
Q 1069 1734 1069 1313 
Q 1069 891 1326 650 
Q 1584 409 2034 409 
Q 2484 409 2743 651 
Q 3003 894 3003 1313 
Q 3003 1734 2745 1975 
Q 2488 2216 2034 2216 
z
M 1403 2484 
Q 997 2584 770 2862 
Q 544 3141 544 3541 
Q 544 4100 942 4425 
Q 1341 4750 2034 4750 
Q 2731 4750 3128 4425 
Q 3525 4100 3525 3541 
Q 3525 3141 3298 2862 
Q 3072 2584 2669 2484 
Q 3125 2378 3379 2068 
Q 3634 1759 3634 1313 
Q 3634 634 3220 271 
Q 2806 -91 2034 -91 
Q 1263 -91 848 271 
Q 434 634 434 1313 
Q 434 1759 690 2068 
Q 947 2378 1403 2484 
z
M 1172 3481 
Q 1172 3119 1398 2916 
Q 1625 2713 2034 2713 
Q 2441 2713 2670 2916 
Q 2900 3119 2900 3481 
Q 2900 3844 2670 4047 
Q 2441 4250 2034 4250 
Q 1625 4250 1398 4047 
Q 1172 3844 1172 3481 
z
" transform="scale(0.015625)"/>
       </defs>
       <use xlink:href="#DejaVuSans-38"/>
       <use xlink:href="#DejaVuSans-30" x="63.623047"/>
       <use xlink:href="#DejaVuSans-30" x="127.246094"/>
      </g>
     </g>
    </g>
    <g id="ytick_3">
     <g id="line2d_25">
      <path d="M 108 247.52356 
L 777.6 247.52356 
" clip-path="url(#p045169f887)" style="fill: none; stroke-dasharray: 5.12,1.28,0.8,1.28; stroke-dashoffset: 0; stroke: #b0b0b0; stroke-width: 0.8"/>
     </g>
     <g id="line2d_26">
      <g>
       <use xlink:href="#m3f85d74104" x="108" y="247.52356" style="fill: #a9a9a9; stroke: #a9a9a9; stroke-width: 0.8"/>
      </g>
     </g>
     <g id="text_13">
      <!-- 1600 -->
      <g style="fill: #a9a9a9" transform="translate(75.55 251.322779) scale(0.1 -0.1)">
       <defs>
        <path id="DejaVuSans-36" d="M 2113 2584 
Q 1688 2584 1439 2293 
Q 1191 2003 1191 1497 
Q 1191 994 1439 701 
Q 1688 409 2113 409 
Q 2538 409 2786 701 
Q 3034 994 3034 1497 
Q 3034 2003 2786 2293 
Q 2538 2584 2113 2584 
z
M 3366 4563 
L 3366 3988 
Q 3128 4100 2886 4159 
Q 2644 4219 2406 4219 
Q 1781 4219 1451 3797 
Q 1122 3375 1075 2522 
Q 1259 2794 1537 2939 
Q 1816 3084 2150 3084 
Q 2853 3084 3261 2657 
Q 3669 2231 3669 1497 
Q 3669 778 3244 343 
Q 2819 -91 2113 -91 
Q 1303 -91 875 529 
Q 447 1150 447 2328 
Q 447 3434 972 4092 
Q 1497 4750 2381 4750 
Q 2619 4750 2861 4703 
Q 3103 4656 3366 4563 
z
" transform="scale(0.015625)"/>
       </defs>
       <use xlink:href="#DejaVuSans-31"/>
       <use xlink:href="#DejaVuSans-36" x="63.623047"/>
       <use xlink:href="#DejaVuSans-30" x="127.246094"/>
       <use xlink:href="#DejaVuSans-30" x="190.869141"/>
      </g>
     </g>
    </g>
    <g id="ytick_4">
     <g id="line2d_27">
      <path d="M 108 217.366492 
L 777.6 217.366492 
" clip-path="url(#p045169f887)" style="fill: none; stroke-dasharray: 5.12,1.28,0.8,1.28; stroke-dashoffset: 0; stroke: #b0b0b0; stroke-width: 0.8"/>
     </g>
     <g id="line2d_28">
      <g>
       <use xlink:href="#m3f85d74104" x="108" y="217.366492" style="fill: #a9a9a9; stroke: #a9a9a9; stroke-width: 0.8"/>
      </g>
     </g>
     <g id="text_14">
      <!-- 2400 -->
      <g style="fill: #a9a9a9" transform="translate(75.55 221.165711) scale(0.1 -0.1)">
       <use xlink:href="#DejaVuSans-32"/>
       <use xlink:href="#DejaVuSans-34" x="63.623047"/>
       <use xlink:href="#DejaVuSans-30" x="127.246094"/>
       <use xlink:href="#DejaVuSans-30" x="190.869141"/>
      </g>
     </g>
    </g>
    <g id="ytick_5">
     <g id="line2d_29">
      <path d="M 108 187.209424 
L 777.6 187.209424 
" clip-path="url(#p045169f887)" style="fill: none; stroke-dasharray: 5.12,1.28,0.8,1.28; stroke-dashoffset: 0; stroke: #b0b0b0; stroke-width: 0.8"/>
     </g>
     <g id="line2d_30">
      <g>
       <use xlink:href="#m3f85d74104" x="108" y="187.209424" style="fill: #a9a9a9; stroke: #a9a9a9; stroke-width: 0.8"/>
      </g>
     </g>
     <g id="text_15">
      <!-- 3200 -->
      <g style="fill: #a9a9a9" transform="translate(75.55 191.008643) scale(0.1 -0.1)">
       <use xlink:href="#DejaVuSans-33"/>
       <use xlink:href="#DejaVuSans-32" x="63.623047"/>
       <use xlink:href="#DejaVuSans-30" x="127.246094"/>
       <use xlink:href="#DejaVuSans-30" x="190.869141"/>
      </g>
     </g>
    </g>
    <g id="ytick_6">
     <g id="line2d_31">
      <path d="M 108 157.052356 
L 777.6 157.052356 
" clip-path="url(#p045169f887)" style="fill: none; stroke-dasharray: 5.12,1.28,0.8,1.28; stroke-dashoffset: 0; stroke: #b0b0b0; stroke-width: 0.8"/>
     </g>
     <g id="line2d_32">
      <g>
       <use xlink:href="#m3f85d74104" x="108" y="157.052356" style="fill: #a9a9a9; stroke: #a9a9a9; stroke-width: 0.8"/>
      </g>
     </g>
     <g id="text_16">
      <!-- 4000 -->
      <g style="fill: #a9a9a9" transform="translate(75.55 160.851575) scale(0.1 -0.1)">
       <use xlink:href="#DejaVuSans-34"/>
       <use xlink:href="#DejaVuSans-30" x="63.623047"/>
       <use xlink:href="#DejaVuSans-30" x="127.246094"/>
       <use xlink:href="#DejaVuSans-30" x="190.869141"/>
      </g>
     </g>
    </g>
    <g id="ytick_7">
     <g id="line2d_33">
      <path d="M 108 126.895288 
L 777.6 126.895288 
" clip-path="url(#p045169f887)" style="fill: none; stroke-dasharray: 5.12,1.28,0.8,1.28; stroke-dashoffset: 0; stroke: #b0b0b0; stroke-width: 0.8"/>
     </g>
     <g id="line2d_34">
      <g>
       <use xlink:href="#m3f85d74104" x="108" y="126.895288" style="fill: #a9a9a9; stroke: #a9a9a9; stroke-width: 0.8"/>
      </g>
     </g>
     <g id="text_17">
      <!-- 4800 -->
      <g style="fill: #a9a9a9" transform="translate(75.55 130.694507) scale(0.1 -0.1)">
       <use xlink:href="#DejaVuSans-34"/>
       <use xlink:href="#DejaVuSans-38" x="63.623047"/>
       <use xlink:href="#DejaVuSans-30" x="127.246094"/>
       <use xlink:href="#DejaVuSans-30" x="190.869141"/>
      </g>
     </g>
    </g>
    <g id="ytick_8">
     <g id="line2d_35">
      <path d="M 108 96.73822 
L 777.6 96.73822 
" clip-path="url(#p045169f887)" style="fill: none; stroke-dasharray: 5.12,1.28,0.8,1.28; stroke-dashoffset: 0; stroke: #b0b0b0; stroke-width: 0.8"/>
     </g>
     <g id="line2d_36">
      <g>
       <use xlink:href="#m3f85d74104" x="108" y="96.73822" style="fill: #a9a9a9; stroke: #a9a9a9; stroke-width: 0.8"/>
      </g>
     </g>
     <g id="text_18">
      <!-- 5600 -->
      <g style="fill: #a9a9a9" transform="translate(75.55 100.537439) scale(0.1 -0.1)">
       <use xlink:href="#DejaVuSans-35"/>
       <use xlink:href="#DejaVuSans-36" x="63.623047"/>
       <use xlink:href="#DejaVuSans-30" x="127.246094"/>
       <use xlink:href="#DejaVuSans-30" x="190.869141"/>
      </g>
     </g>
    </g>
    <g id="ytick_9">
     <g id="line2d_37">
      <path d="M 108 66.581152 
L 777.6 66.581152 
" clip-path="url(#p045169f887)" style="fill: none; stroke-dasharray: 5.12,1.28,0.8,1.28; stroke-dashoffset: 0; stroke: #b0b0b0; stroke-width: 0.8"/>
     </g>
     <g id="line2d_38">
      <g>
       <use xlink:href="#m3f85d74104" x="108" y="66.581152" style="fill: #a9a9a9; stroke: #a9a9a9; stroke-width: 0.8"/>
      </g>
     </g>
     <g id="text_19">
      <!-- 6400 -->
      <g style="fill: #a9a9a9" transform="translate(75.55 70.380371) scale(0.1 -0.1)">
       <use xlink:href="#DejaVuSans-36"/>
       <use xlink:href="#DejaVuSans-34" x="63.623047"/>
       <use xlink:href="#DejaVuSans-30" x="127.246094"/>
       <use xlink:href="#DejaVuSans-30" x="190.869141"/>
      </g>
     </g>
    </g>
   </g>
   <g id="line2d_39">
    <path d="M 138.436364 307.724607 
L 141.609573 307.460733 
L 142.138441 307.234555 
L 143.725045 307.08377 
L 147.427123 306.405236 
L 150.071464 306.179058 
L 151.1292 305.764398 
L 151.658068 305.085864 
L 152.186936 304.708901 
L 152.715804 303.540314 
L 153.244673 303.464921 
L 153.773541 303.050262 
L 154.831277 302.522513 
L 156.94675 300.863874 
L 159.062223 299.846073 
L 160.648827 299.129843 
L 161.177695 298.300524 
L 162.235432 297.546597 
L 162.7643 297.320419 
L 168.052982 296.566492 
L 168.58185 296.340314 
L 172.283927 296.038743 
L 174.3994 295.548691 
L 178.630345 294.983246 
L 179.159213 294.681675 
L 179.688082 294.606283 
L 180.745818 294.267016 
L 184.447895 293.663874 
L 185.505631 293.362304 
L 187.092236 293.211518 
L 188.149972 293.098429 
L 190.794313 292.419895 
L 191.85205 292.344503 
L 192.909786 292.193717 
L 193.967522 291.967539 
L 194.49639 291.816754 
L 195.025259 291.100524 
L 196.611863 290.497382 
L 198.198468 290.082723 
L 198.727336 289.818848 
L 199.256204 289.781152 
L 201.900545 289.027225 
L 202.958281 288.951832 
L 203.48715 288.87644 
L 205.073754 288.386387 
L 207.189227 287.858639 
L 207.718095 287.632461 
L 208.246963 287.557068 
L 208.775831 287.293194 
L 214.064513 286.501571 
L 216.708854 285.747644 
L 217.237722 285.408377 
L 219.882063 284.541361 
L 220.939799 283.825131 
L 222.526404 283.52356 
L 232.574899 280.620942 
L 233.632636 280.206283 
L 234.690372 280.13089 
L 236.276977 279.678534 
L 236.805845 279.678534 
L 237.334713 279.452356 
L 238.392449 279.339267 
L 238.921317 279.150785 
L 239.979054 279.113089 
L 242.094526 278.849215 
L 243.152263 278.321466 
L 249.498681 275.494241 
L 250.027549 274.928796 
L 251.085286 273.34555 
L 251.614154 273.194764 
L 252.143022 273.194764 
L 253.200758 272.403141 
L 254.787363 271.875393 
L 255.316231 271.38534 
L 256.373967 270.970681 
L 257.431704 270.480628 
L 258.48944 268.972775 
L 259.018308 268.633508 
L 259.547176 267.728796 
L 260.076045 267.163351 
L 263.249254 265.504712 
L 264.30699 264.675393 
L 264.835858 264.336126 
L 265.364726 263.544503 
L 265.893595 262.375916 
L 266.422463 261.584293 
L 266.951331 261.169634 
L 267.480199 260.943455 
L 269.595672 259.134031 
L 270.653408 258.267016 
L 271.182276 257.81466 
L 271.711144 257.098429 
L 272.768881 256.156021 
L 274.884354 254.761257 
L 275.413222 254.308901 
L 276.470958 253.969634 
L 278.057563 253.064921 
L 279.644167 252.04712 
L 281.75964 250.162304 
L 282.817376 249.747644 
L 283.875113 249.031414 
L 284.403981 248.729843 
L 284.932849 248.65445 
L 288.634926 246.354974 
L 290.750399 245.224084 
L 291.279267 244.734031 
L 299.741158 241.793717 
L 300.798894 240.851309 
L 301.856631 240.361257 
L 302.914367 239.795812 
L 303.443235 239.494241 
L 304.500971 239.19267 
L 305.02984 238.853403 
L 305.558708 238.702618 
L 307.145312 237.684817 
L 309.789653 237.081675 
L 311.376258 236.176963 
L 311.905126 236.101571 
L 312.962862 235.837696 
L 313.491731 235.686911 
L 315.078335 234.480628 
L 317.193808 233.915183 
L 317.722676 233.500524 
L 320.895885 232.445026 
L 321.424753 232.40733 
L 323.011358 231.841885 
L 326.713435 230.522513 
L 327.771171 230.371728 
L 329.357776 229.843979 
L 332.002117 228.6 
L 334.117589 227.46911 
L 338.348535 225.772775 
L 338.877403 225.697382 
L 339.935139 225.056545 
L 340.464008 224.981152 
L 342.57948 224.114136 
L 344.694953 223.812565 
L 345.752689 223.284817 
L 346.281558 222.832461 
L 346.810426 221.890052 
L 348.925898 221.324607 
L 350.512503 220.532984 
L 351.041371 220.419895 
L 355.272317 218.42199 
L 356.858921 218.082723 
L 357.916657 217.554974 
L 358.445526 217.328796 
L 358.974394 217.253403 
L 361.089867 216.310995 
L 362.676471 215.33089 
L 363.205339 215.255497 
L 363.734207 215.067016 
L 364.263076 215.029319 
L 366.907416 214.388482 
L 367.436285 213.973822 
L 369.022889 213.408377 
L 371.138362 212.579058 
L 371.66723 212.202094 
L 372.196098 212.013613 
L 373.253835 211.448168 
L 375.898175 210.581152 
L 377.48478 209.337173 
L 378.013648 209.224084 
L 379.071385 208.394764 
L 379.600253 208.319372 
L 380.129121 207.490052 
L 380.657989 207.263874 
L 381.186857 206.849215 
L 381.715725 206.773822 
L 382.773462 206.132984 
L 383.831198 205.793717 
L 384.360066 205.379058 
L 384.888935 205.190576 
L 386.475539 204.097382 
L 388.591012 203.004188 
L 389.11988 202.928796 
L 390.706484 202.137173 
L 391.235353 201.270157 
L 391.764221 200.817801 
L 392.293089 200.51623 
L 392.821957 200.403141 
L 393.879694 199.724607 
L 394.408562 199.611518 
L 395.466298 199.08377 
L 397.052903 198.405236 
L 398.110639 197.651309 
L 399.697244 196.218848 
L 400.75498 195.615707 
L 401.283848 195.050262 
L 403.399321 193.617801 
L 403.928189 193.01466 
L 404.457057 192.6 
L 405.514793 192.223037 
L 406.57253 191.506806 
L 408.159134 190.715183 
L 408.688003 190.639791 
L 410.274607 189.810471 
L 411.332343 189.169634 
L 416.621025 187.284817 
L 417.149893 186.870157 
L 419.265366 186.078534 
L 419.794234 185.927749 
L 420.323102 185.513089 
L 422.967443 184.080628 
L 424.02518 182.00733 
L 425.082916 180.801047 
L 426.140652 180.160209 
L 427.727257 179.519372 
L 428.256125 179.443979 
L 428.784993 179.142408 
L 431.429334 178.313089 
L 431.958202 178.086911 
L 433.015939 177.370681 
L 434.602543 176.692147 
L 435.66028 176.126702 
L 436.189148 175.749738 
L 436.718016 175.52356 
L 437.246884 175.146597 
L 437.775752 174.581152 
L 438.833489 174.015707 
L 441.47783 172.620942 
L 444.651039 171.075393 
L 445.708775 170.736126 
L 447.29538 170.246073 
L 449.410852 169.303665 
L 450.468589 168.889005 
L 450.997457 168.474346 
L 452.055193 168.135079 
L 455.228402 166.514136 
L 456.286139 165.684817 
L 457.343875 165.307853 
L 457.872743 164.855497 
L 458.401611 164.780105 
L 459.459348 163.988482 
L 460.517084 163.460733 
L 461.045952 163.234555 
L 461.57482 162.706806 
L 465.276898 161.274346 
L 466.334634 160.82199 
L 467.921238 160.331937 
L 468.978975 160.181152 
L 469.507843 159.954974 
L 470.036711 159.879581 
L 471.094448 159.427225 
L 471.623316 159.389529 
L 473.738788 158.597906 
L 475.325393 157.504712 
L 477.969734 156.260733 
L 480.614075 154.828272 
L 481.142943 154.715183 
L 482.729547 153.810471 
L 484.316152 153.282723 
L 485.373888 152.943455 
L 487.489361 152.264921 
L 488.547097 151.925654 
L 490.133702 151.66178 
L 492.249175 150.983246 
L 492.778043 150.757068 
L 493.306911 150.681675 
L 493.835779 150.417801 
L 494.893516 150.229319 
L 496.48012 149.663874 
L 497.537856 149.550785 
L 499.124461 149.211518 
L 500.182197 149.023037 
L 501.239934 148.834555 
L 502.29767 148.608377 
L 505.470879 147.816754 
L 505.999747 147.515183 
L 508.644088 146.874346 
L 509.701825 146.535079 
L 515.519374 144.838743 
L 516.048243 144.310995 
L 517.105979 143.896335 
L 520.279188 142.765445 
L 520.808056 142.426178 
L 521.336924 142.313089 
L 521.865793 142.011518 
L 523.452397 141.559162 
L 524.510133 141.295288 
L 525.039002 140.956021 
L 525.56787 140.842932 
L 526.096738 140.390576 
L 527.683343 140.089005 
L 528.741079 139.598953 
L 529.269947 138.995812 
L 531.38542 138.505759 
L 535.087497 137.751832 
L 535.616365 137.751832 
L 536.145233 137.525654 
L 538.260706 137.148691 
L 538.789574 136.922513 
L 540.905047 136.54555 
L 541.962783 136.093194 
L 542.491652 136.055497 
L 551.482411 133.379058 
L 552.011279 133.15288 
L 552.540147 132.775916 
L 553.597883 132.474346 
L 554.65562 132.135079 
L 555.713356 131.720419 
L 557.299961 131.041885 
L 558.886565 130.928796 
L 561.002038 130.325654 
L 561.530906 129.986387 
L 562.588642 129.684817 
L 565.232983 128.51623 
L 565.761851 128.478534 
L 571.579401 126.480628 
L 574.223742 125.802094 
L 575.281479 125.312042 
L 576.339215 125.085864 
L 576.868083 124.972775 
L 577.396951 124.558115 
L 577.925819 124.294241 
L 578.454688 123.653403 
L 578.983556 123.27644 
L 580.041292 122.974869 
L 580.57016 122.560209 
L 583.214501 121.467016 
L 583.743369 121.353927 
L 584.272238 121.01466 
L 585.329974 120.713089 
L 585.858842 120.373822 
L 588.503183 119.506806 
L 590.089788 118.602094 
L 590.618656 118.489005 
L 591.676392 117.885864 
L 592.20526 117.659686 
L 593.262997 117.018848 
L 594.849601 116.264921 
L 595.378469 115.887958 
L 596.436206 115.548691 
L 597.493942 114.94555 
L 598.02281 114.757068 
L 598.551678 114.380105 
L 605.426965 112.005236 
L 605.955833 111.892147 
L 606.484701 111.55288 
L 607.013569 111.477487 
L 608.071306 111.213613 
L 609.129042 110.987435 
L 612.831119 109.17801 
L 613.359987 109.102618 
L 614.946592 108.235602 
L 618.119801 106.991623 
L 620.235274 106.162304 
L 620.764142 106.011518 
L 621.29301 105.672251 
L 622.350746 105.521466 
L 622.879615 105.182199 
L 623.408483 105.144503 
L 624.466219 104.805236 
L 625.523955 104.277487 
L 626.052824 104.202094 
L 628.697165 103.146597 
L 630.283769 102.694241 
L 631.341505 102.430366 
L 632.92811 101.97801 
L 633.985846 101.563351 
L 636.101319 100.432461 
L 637.159055 100.017801 
L 637.687924 99.678534 
L 638.74566 99.452356 
L 639.274528 99.150785 
L 639.803396 99.037696 
L 641.390001 98.208377 
L 642.447737 97.793717 
L 644.034342 97.077487 
L 645.620946 96.662827 
L 648.794155 95.418848 
L 650.38076 94.891099 
L 658.313782 91.498429 
L 658.842651 91.423037 
L 660.958123 90.593717 
L 662.544728 89.726702 
L 663.073596 89.613613 
L 664.131332 89.198953 
L 664.660201 89.198953 
L 665.717937 88.746597 
L 666.775673 87.804188 
L 667.304542 87.351832 
L 668.891146 86.597906 
L 669.420014 86.484817 
L 669.948882 86.220942 
L 670.477751 86.14555 
L 671.006619 85.768586 
L 671.535487 85.655497 
L 672.593223 85.01466 
L 674.179828 84.223037 
L 675.237564 83.808377 
L 675.766432 83.544503 
L 678.410773 82.903665 
L 678.939641 82.639791 
L 680.526246 82.187435 
L 682.641719 81.169634 
L 683.699455 80.679581 
L 684.757191 80.415707 
L 688.459269 78.681675 
L 691.10361 77.739267 
L 692.690214 76.796859 
L 693.219082 76.68377 
L 694.276819 76.156021 
L 695.334555 75.779058 
L 695.863423 75.326702 
L 696.392291 75.025131 
L 697.978896 74.535079 
L 699.036632 73.818848 
L 699.5655 73.781152 
L 700.623237 73.479581 
L 701.680973 73.140314 
L 702.209841 72.87644 
L 702.738709 72.801047 
L 704.325314 72.235602 
L 705.911918 71.670157 
L 706.969655 71.255497 
L 707.498523 70.840838 
L 709.085128 70.426178 
L 709.613996 70.124607 
L 710.671732 69.860733 
L 712.258337 68.993717 
L 712.787205 68.956021 
L 714.373809 68.465969 
L 715.431546 68.35288 
L 716.489282 67.93822 
L 719.662491 67.033508 
L 720.720227 66.995812 
L 723.893437 65.97801 
L 724.422305 65.902618 
L 726.008909 65.073298 
L 726.537777 64.620942 
L 727.595514 64.017801 
L 729.182118 63 
L 732.355327 61.906806 
L 732.884196 61.492147 
L 734.4708 60.775916 
L 734.999668 60.662827 
L 736.057405 60.172775 
L 737.644009 59.758115 
L 739.230614 59.079581 
L 740.28835 58.589529 
L 741.874955 57.948691 
L 742.403823 57.835602 
L 743.990427 57.081675 
L 744.519295 56.93089 
L 745.577032 56.21466 
L 747.163636 55.8 
L 747.163636 55.8 
" clip-path="url(#p045169f887)" style="fill: none; stroke: #1f77b4; stroke-width: 1.5; stroke-linecap: square"/>
   </g>
   <g id="line2d_40">
    <path d="M 138.965232 307.8 
L 140.551836 307.724607 
L 142.138441 307.686911 
L 145.31165 307.611518 
L 147.955991 307.498429 
L 150.071464 307.498429 
L 150.600332 307.347644 
L 152.715804 307.272251 
L 154.302409 307.08377 
L 155.889014 306.932984 
L 159.062223 306.782199 
L 159.591091 306.782199 
L 160.648827 306.66911 
L 163.822036 306.518325 
L 167.524113 306.442932 
L 170.168454 306.329843 
L 176.514872 306.25445 
L 179.159213 306.141361 
L 182.332422 306.065969 
L 184.447895 305.990576 
L 189.207709 305.915183 
L 190.794313 305.877487 
L 192.380918 305.839791 
L 193.967522 305.651309 
L 197.140731 305.613613 
L 198.198468 305.53822 
L 202.429413 305.462827 
L 207.718095 305.161257 
L 211.420172 305.085864 
L 212.477909 305.010471 
L 214.064513 304.935079 
L 217.237722 304.784293 
L 219.353195 304.746597 
L 220.939799 304.595812 
L 227.815086 304.181152 
L 230.459427 304.105759 
L 235.21924 303.841885 
L 236.805845 303.766492 
L 242.094526 303.464921 
L 247.912076 303.389529 
L 250.027549 303.163351 
L 251.085286 303.087958 
L 257.960572 302.522513 
L 261.133781 302.107853 
L 263.249254 302.032461 
L 267.480199 301.467016 
L 270.653408 301.391623 
L 272.240013 301.240838 
L 273.297749 301.203141 
L 274.355485 301.090052 
L 275.94209 301.01466 
L 277.528694 300.788482 
L 278.057563 300.788482 
L 279.644167 300.562304 
L 281.75964 300.486911 
L 282.817376 300.411518 
L 284.932849 300.336126 
L 285.990585 300.260733 
L 288.634926 299.996859 
L 289.692663 299.808377 
L 291.279267 299.770681 
L 292.337003 299.695288 
L 294.981344 299.619895 
L 301.856631 299.205236 
L 303.443235 299.129843 
L 310.318521 298.715183 
L 314.020599 298.639791 
L 315.078335 298.526702 
L 318.780412 298.451309 
L 322.48249 298.262827 
L 328.300039 298.187435 
L 332.002117 297.998953 
L 336.233062 297.92356 
L 340.464008 297.697382 
L 344.166085 297.62199 
L 354.21458 296.981152 
L 359.503262 296.905759 
L 361.618735 296.679581 
L 363.205339 296.641885 
L 364.791944 296.604188 
L 366.907416 296.37801 
L 372.196098 296.07644 
L 375.369307 296.001047 
L 376.955912 295.963351 
L 378.542516 295.925654 
L 380.129121 295.774869 
L 384.360066 295.699476 
L 385.417803 295.548691 
L 386.475539 295.473298 
L 389.11988 295.360209 
L 390.177616 295.284817 
L 391.235353 295.209424 
L 395.995166 295.134031 
L 397.052903 295.020942 
L 399.168375 294.983246 
L 400.226112 294.870157 
L 401.812716 294.681675 
L 402.870453 294.606283 
L 407.630266 294.342408 
L 408.688003 294.304712 
L 410.274607 294.153927 
L 411.861212 294.11623 
L 413.447816 294.040838 
L 416.092157 293.927749 
L 423.496312 293.852356 
L 427.198389 293.663874 
L 431.429334 293.588482 
L 433.544807 293.513089 
L 435.66028 293.475393 
L 436.718016 293.362304 
L 438.833489 293.286911 
L 444.12217 292.98534 
L 447.29538 292.947644 
L 448.881984 292.796859 
L 450.468589 292.759162 
L 454.170666 292.68377 
L 456.286139 292.608377 
L 462.632557 292.532984 
L 465.276898 292.419895 
L 468.450107 292.344503 
L 470.036711 292.156021 
L 473.20992 292.118325 
L 474.796525 291.967539 
L 476.911997 291.892147 
L 483.258416 291.816754 
L 485.902756 291.703665 
L 494.893516 291.665969 
L 495.951252 291.590576 
L 497.537856 291.55288 
L 504.413143 291.477487 
L 505.470879 291.402094 
L 511.288429 291.326702 
L 513.403902 291.251309 
L 523.452397 291.175916 
L 525.039002 291.13822 
L 529.798815 291.062827 
L 530.856552 290.987435 
L 543.549388 290.912042 
L 545.135992 290.874346 
L 559.415433 290.798953 
L 561.002038 290.761257 
L 570.521665 290.685864 
L 571.579401 290.610471 
L 574.223742 290.535079 
L 575.810347 290.384293 
L 578.454688 290.308901 
L 581.627897 290.158115 
L 585.858842 290.082723 
L 586.916578 290.00733 
L 591.147524 289.931937 
L 594.320733 289.781152 
L 596.965074 289.705759 
L 601.196019 289.479581 
L 604.369228 289.404188 
L 606.484701 289.328796 
L 613.359987 289.253403 
L 615.47546 289.17801 
L 619.706405 289.102618 
L 623.408483 288.914136 
L 628.168296 288.838743 
L 629.226033 288.763351 
L 638.74566 288.687958 
L 640.332264 288.650262 
L 642.976605 288.612565 
L 645.092078 288.386387 
L 646.678683 288.348691 
L 649.851892 288.273298 
L 655.140573 287.971728 
L 657.784914 287.896335 
L 659.900387 287.820942 
L 665.717937 287.74555 
L 668.362278 287.443979 
L 670.477751 287.368586 
L 674.179828 287.293194 
L 675.237564 287.180105 
L 679.46851 287.104712 
L 682.11285 286.991623 
L 688.988137 286.953927 
L 690.045873 286.840838 
L 693.74795 286.765445 
L 695.334555 286.727749 
L 697.978896 286.652356 
L 699.5655 286.61466 
L 708.556259 286.539267 
L 711.2006 286.426178 
L 718.604755 286.350785 
L 720.720227 286.275393 
L 726.537777 286.2 
L 727.595514 286.086911 
L 732.355327 286.049215 
L 733.413064 285.973822 
L 736.057405 285.898429 
L 737.644009 285.860733 
L 744.519295 285.78534 
L 746.1059 285.747644 
L 747.163636 285.672251 
L 747.163636 285.672251 
" clip-path="url(#p045169f887)" style="fill: none; stroke: #ff7f0e; stroke-width: 1.5; stroke-linecap: square"/>
   </g>
   <g id="patch_3">
    <path d="M 108 320.4 
L 108 43.2 
" style="fill: none; stroke: #a9a9a9; stroke-width: 0.8; stroke-linejoin: miter; stroke-linecap: square"/>
   </g>
   <g id="patch_4">
    <path d="M 777.6 320.4 
L 777.6 43.2 
" style="fill: none"/>
   </g>
   <g id="patch_5">
    <path d="M 108 320.4 
L 777.6 320.4 
" style="fill: none; stroke: #a9a9a9; stroke-width: 0.8; stroke-linejoin: miter; stroke-linecap: square"/>
   </g>
   <g id="patch_6">
    <path d="M 108 43.2 
L 777.6 43.2 
" style="fill: none"/>
   </g>
   <g id="text_20">
    <!-- get_subscribe history -->
    <g style="fill: #a9a9a9" transform="translate(378.6075 37.2) scale(0.12 -0.12)">
     <defs>
      <path id="DejaVuSans-67" d="M 2906 1791 
Q 2906 2416 2648 2759 
Q 2391 3103 1925 3103 
Q 1463 3103 1205 2759 
Q 947 2416 947 1791 
Q 947 1169 1205 825 
Q 1463 481 1925 481 
Q 2391 481 2648 825 
Q 2906 1169 2906 1791 
z
M 3481 434 
Q 3481 -459 3084 -895 
Q 2688 -1331 1869 -1331 
Q 1566 -1331 1297 -1286 
Q 1028 -1241 775 -1147 
L 775 -588 
Q 1028 -725 1275 -790 
Q 1522 -856 1778 -856 
Q 2344 -856 2625 -561 
Q 2906 -266 2906 331 
L 2906 616 
Q 2728 306 2450 153 
Q 2172 0 1784 0 
Q 1141 0 747 490 
Q 353 981 353 1791 
Q 353 2603 747 3093 
Q 1141 3584 1784 3584 
Q 2172 3584 2450 3431 
Q 2728 3278 2906 2969 
L 2906 3500 
L 3481 3500 
L 3481 434 
z
" transform="scale(0.015625)"/>
      <path id="DejaVuSans-65" d="M 3597 1894 
L 3597 1613 
L 953 1613 
Q 991 1019 1311 708 
Q 1631 397 2203 397 
Q 2534 397 2845 478 
Q 3156 559 3463 722 
L 3463 178 
Q 3153 47 2828 -22 
Q 2503 -91 2169 -91 
Q 1331 -91 842 396 
Q 353 884 353 1716 
Q 353 2575 817 3079 
Q 1281 3584 2069 3584 
Q 2775 3584 3186 3129 
Q 3597 2675 3597 1894 
z
M 3022 2063 
Q 3016 2534 2758 2815 
Q 2500 3097 2075 3097 
Q 1594 3097 1305 2825 
Q 1016 2553 972 2059 
L 3022 2063 
z
" transform="scale(0.015625)"/>
      <path id="DejaVuSans-74" d="M 1172 4494 
L 1172 3500 
L 2356 3500 
L 2356 3053 
L 1172 3053 
L 1172 1153 
Q 1172 725 1289 603 
Q 1406 481 1766 481 
L 2356 481 
L 2356 0 
L 1766 0 
Q 1100 0 847 248 
Q 594 497 594 1153 
L 594 3053 
L 172 3053 
L 172 3500 
L 594 3500 
L 594 4494 
L 1172 4494 
z
" transform="scale(0.015625)"/>
      <path id="DejaVuSans-5f" d="M 3263 -1063 
L 3263 -1509 
L -63 -1509 
L -63 -1063 
L 3263 -1063 
z
" transform="scale(0.015625)"/>
      <path id="DejaVuSans-73" d="M 2834 3397 
L 2834 2853 
Q 2591 2978 2328 3040 
Q 2066 3103 1784 3103 
Q 1356 3103 1142 2972 
Q 928 2841 928 2578 
Q 928 2378 1081 2264 
Q 1234 2150 1697 2047 
L 1894 2003 
Q 2506 1872 2764 1633 
Q 3022 1394 3022 966 
Q 3022 478 2636 193 
Q 2250 -91 1575 -91 
Q 1294 -91 989 -36 
Q 684 19 347 128 
L 347 722 
Q 666 556 975 473 
Q 1284 391 1588 391 
Q 1994 391 2212 530 
Q 2431 669 2431 922 
Q 2431 1156 2273 1281 
Q 2116 1406 1581 1522 
L 1381 1569 
Q 847 1681 609 1914 
Q 372 2147 372 2553 
Q 372 3047 722 3315 
Q 1072 3584 1716 3584 
Q 2034 3584 2315 3537 
Q 2597 3491 2834 3397 
z
" transform="scale(0.015625)"/>
      <path id="DejaVuSans-75" d="M 544 1381 
L 544 3500 
L 1119 3500 
L 1119 1403 
Q 1119 906 1312 657 
Q 1506 409 1894 409 
Q 2359 409 2629 706 
Q 2900 1003 2900 1516 
L 2900 3500 
L 3475 3500 
L 3475 0 
L 2900 0 
L 2900 538 
Q 2691 219 2414 64 
Q 2138 -91 1772 -91 
Q 1169 -91 856 284 
Q 544 659 544 1381 
z
M 1991 3584 
L 1991 3584 
z
" transform="scale(0.015625)"/>
      <path id="DejaVuSans-62" d="M 3116 1747 
Q 3116 2381 2855 2742 
Q 2594 3103 2138 3103 
Q 1681 3103 1420 2742 
Q 1159 2381 1159 1747 
Q 1159 1113 1420 752 
Q 1681 391 2138 391 
Q 2594 391 2855 752 
Q 3116 1113 3116 1747 
z
M 1159 2969 
Q 1341 3281 1617 3432 
Q 1894 3584 2278 3584 
Q 2916 3584 3314 3078 
Q 3713 2572 3713 1747 
Q 3713 922 3314 415 
Q 2916 -91 2278 -91 
Q 1894 -91 1617 61 
Q 1341 213 1159 525 
L 1159 0 
L 581 0 
L 581 4863 
L 1159 4863 
L 1159 2969 
z
" transform="scale(0.015625)"/>
      <path id="DejaVuSans-63" d="M 3122 3366 
L 3122 2828 
Q 2878 2963 2633 3030 
Q 2388 3097 2138 3097 
Q 1578 3097 1268 2742 
Q 959 2388 959 1747 
Q 959 1106 1268 751 
Q 1578 397 2138 397 
Q 2388 397 2633 464 
Q 2878 531 3122 666 
L 3122 134 
Q 2881 22 2623 -34 
Q 2366 -91 2075 -91 
Q 1284 -91 818 406 
Q 353 903 353 1747 
Q 353 2603 823 3093 
Q 1294 3584 2113 3584 
Q 2378 3584 2631 3529 
Q 2884 3475 3122 3366 
z
" transform="scale(0.015625)"/>
      <path id="DejaVuSans-72" d="M 2631 2963 
Q 2534 3019 2420 3045 
Q 2306 3072 2169 3072 
Q 1681 3072 1420 2755 
Q 1159 2438 1159 1844 
L 1159 0 
L 581 0 
L 581 3500 
L 1159 3500 
L 1159 2956 
Q 1341 3275 1631 3429 
Q 1922 3584 2338 3584 
Q 2397 3584 2469 3576 
Q 2541 3569 2628 3553 
L 2631 2963 
z
" transform="scale(0.015625)"/>
      <path id="DejaVuSans-69" d="M 603 3500 
L 1178 3500 
L 1178 0 
L 603 0 
L 603 3500 
z
M 603 4863 
L 1178 4863 
L 1178 4134 
L 603 4134 
L 603 4863 
z
" transform="scale(0.015625)"/>
      <path id="DejaVuSans-20" transform="scale(0.015625)"/>
      <path id="DejaVuSans-68" d="M 3513 2113 
L 3513 0 
L 2938 0 
L 2938 2094 
Q 2938 2591 2744 2837 
Q 2550 3084 2163 3084 
Q 1697 3084 1428 2787 
Q 1159 2491 1159 1978 
L 1159 0 
L 581 0 
L 581 4863 
L 1159 4863 
L 1159 2956 
Q 1366 3272 1645 3428 
Q 1925 3584 2291 3584 
Q 2894 3584 3203 3211 
Q 3513 2838 3513 2113 
z
" transform="scale(0.015625)"/>
      <path id="DejaVuSans-6f" d="M 1959 3097 
Q 1497 3097 1228 2736 
Q 959 2375 959 1747 
Q 959 1119 1226 758 
Q 1494 397 1959 397 
Q 2419 397 2687 759 
Q 2956 1122 2956 1747 
Q 2956 2369 2687 2733 
Q 2419 3097 1959 3097 
z
M 1959 3584 
Q 2709 3584 3137 3096 
Q 3566 2609 3566 1747 
Q 3566 888 3137 398 
Q 2709 -91 1959 -91 
Q 1206 -91 779 398 
Q 353 888 353 1747 
Q 353 2609 779 3096 
Q 1206 3584 1959 3584 
z
" transform="scale(0.015625)"/>
      <path id="DejaVuSans-79" d="M 2059 -325 
Q 1816 -950 1584 -1140 
Q 1353 -1331 966 -1331 
L 506 -1331 
L 506 -850 
L 844 -850 
Q 1081 -850 1212 -737 
Q 1344 -625 1503 -206 
L 1606 56 
L 191 3500 
L 800 3500 
L 1894 763 
L 2988 3500 
L 3597 3500 
L 2059 -325 
z
" transform="scale(0.015625)"/>
     </defs>
     <use xlink:href="#DejaVuSans-67"/>
     <use xlink:href="#DejaVuSans-65" x="63.476562"/>
     <use xlink:href="#DejaVuSans-74" x="125"/>
     <use xlink:href="#DejaVuSans-5f" x="164.208984"/>
     <use xlink:href="#DejaVuSans-73" x="214.208984"/>
     <use xlink:href="#DejaVuSans-75" x="266.308594"/>
     <use xlink:href="#DejaVuSans-62" x="329.6875"/>
     <use xlink:href="#DejaVuSans-73" x="393.164062"/>
     <use xlink:href="#DejaVuSans-63" x="445.263672"/>
     <use xlink:href="#DejaVuSans-72" x="500.244141"/>
     <use xlink:href="#DejaVuSans-69" x="541.357422"/>
     <use xlink:href="#DejaVuSans-62" x="569.140625"/>
     <use xlink:href="#DejaVuSans-65" x="632.617188"/>
     <use xlink:href="#DejaVuSans-20" x="694.140625"/>
     <use xlink:href="#DejaVuSans-68" x="725.927734"/>
     <use xlink:href="#DejaVuSans-69" x="789.306641"/>
     <use xlink:href="#DejaVuSans-73" x="817.089844"/>
     <use xlink:href="#DejaVuSans-74" x="869.189453"/>
     <use xlink:href="#DejaVuSans-6f" x="908.398438"/>
     <use xlink:href="#DejaVuSans-72" x="969.580078"/>
     <use xlink:href="#DejaVuSans-79" x="1010.693359"/>
    </g>
   </g>
   <g id="legend_1">
    <g id="line2d_41">
     <path d="M 815.08 328.498438 
L 825.08 328.498438 
L 835.08 328.498438 
" style="fill: none; stroke: #1f77b4; stroke-width: 1.5; stroke-linecap: square"/>
    </g>
    <g id="text_21">
     <!-- star -->
     <g style="fill: #a9a9a9" transform="translate(843.08 331.998438) scale(0.1 -0.1)">
      <defs>
       <path id="DejaVuSans-61" d="M 2194 1759 
Q 1497 1759 1228 1600 
Q 959 1441 959 1056 
Q 959 750 1161 570 
Q 1363 391 1709 391 
Q 2188 391 2477 730 
Q 2766 1069 2766 1631 
L 2766 1759 
L 2194 1759 
z
M 3341 1997 
L 3341 0 
L 2766 0 
L 2766 531 
Q 2569 213 2275 61 
Q 1981 -91 1556 -91 
Q 1019 -91 701 211 
Q 384 513 384 1019 
Q 384 1609 779 1909 
Q 1175 2209 1959 2209 
L 2766 2209 
L 2766 2266 
Q 2766 2663 2505 2880 
Q 2244 3097 1772 3097 
Q 1472 3097 1187 3025 
Q 903 2953 641 2809 
L 641 3341 
Q 956 3463 1253 3523 
Q 1550 3584 1831 3584 
Q 2591 3584 2966 3190 
Q 3341 2797 3341 1997 
z
" transform="scale(0.015625)"/>
      </defs>
      <use xlink:href="#DejaVuSans-73"/>
      <use xlink:href="#DejaVuSans-74" x="52.099609"/>
      <use xlink:href="#DejaVuSans-61" x="91.308594"/>
      <use xlink:href="#DejaVuSans-72" x="152.587891"/>
     </g>
    </g>
    <g id="line2d_42">
     <path d="M 815.08 343.176562 
L 825.08 343.176562 
L 835.08 343.176562 
" style="fill: none; stroke: #ff7f0e; stroke-width: 1.5; stroke-linecap: square"/>
    </g>
    <g id="text_22">
     <!-- fork -->
     <g style="fill: #a9a9a9" transform="translate(843.08 346.676562) scale(0.1 -0.1)">
      <defs>
       <path id="DejaVuSans-66" d="M 2375 4863 
L 2375 4384 
L 1825 4384 
Q 1516 4384 1395 4259 
Q 1275 4134 1275 3809 
L 1275 3500 
L 2222 3500 
L 2222 3053 
L 1275 3053 
L 1275 0 
L 697 0 
L 697 3053 
L 147 3053 
L 147 3500 
L 697 3500 
L 697 3744 
Q 697 4328 969 4595 
Q 1241 4863 1831 4863 
L 2375 4863 
z
" transform="scale(0.015625)"/>
       <path id="DejaVuSans-6b" d="M 581 4863 
L 1159 4863 
L 1159 1991 
L 2875 3500 
L 3609 3500 
L 1753 1863 
L 3688 0 
L 2938 0 
L 1159 1709 
L 1159 0 
L 581 0 
L 581 4863 
z
" transform="scale(0.015625)"/>
      </defs>
      <use xlink:href="#DejaVuSans-66"/>
      <use xlink:href="#DejaVuSans-6f" x="35.205078"/>
      <use xlink:href="#DejaVuSans-72" x="96.386719"/>
      <use xlink:href="#DejaVuSans-6b" x="137.5"/>
     </g>
    </g>
   </g>
  </g>
 </g>
 <defs>
  <clipPath id="p045169f887">
   <rect x="108" y="43.2" width="669.6" height="277.2"/>
  </clipPath>
 </defs>
</svg>
