<?xml version="1.0" encoding="utf-8" standalone="no"?>
<!DOCTYPE svg PUBLIC "-//W3C//DTD SVG 1.1//EN"
  "http://www.w3.org/Graphics/SVG/1.1/DTD/svg11.dtd">
<svg xmlns:xlink="http://www.w3.org/1999/xlink" width="864pt" height="360pt" viewBox="0 0 864 360" xmlns="http://www.w3.org/2000/svg" version="1.1">
 <metadata>
  <rdf:RDF xmlns:dc="http://purl.org/dc/elements/1.1/" xmlns:cc="http://creativecommons.org/ns#" xmlns:rdf="http://www.w3.org/1999/02/22-rdf-syntax-ns#">
   <cc:Work>
    <dc:type rdf:resource="http://purl.org/dc/dcmitype/StillImage"/>
    <dc:date>2025-05-17T20:06:49.152793</dc:date>
    <dc:format>image/svg+xml</dc:format>
    <dc:creator>
     <cc:Agent>
      <dc:title>Matplotlib v3.10.3, https://matplotlib.org/</dc:title>
     </cc:Agent>
    </dc:creator>
   </cc:Work>
  </rdf:RDF>
 </metadata>
 <defs>
  <style type="text/css">*{stroke-linejoin: round; stroke-linecap: butt}</style>
 </defs>
 <g id="figure_1">
  <g id="patch_1">
   <path d="M 0 360 
L 864 360 
L 864 0 
L 0 0 
L 0 360 
z
" style="fill: none; opacity: 0"/>
  </g>
  <g id="axes_1">
   <g id="patch_2">
    <path d="M 108 320.4 
L 777.6 320.4 
L 777.6 43.2 
L 108 43.2 
L 108 320.4 
z
" style="fill: none; opacity: 0"/>
   </g>
   <g id="matplotlib.axis_1">
    <g id="xtick_1">
     <g id="line2d_1">
      <path d="M 128.38559 320.4 
L 128.38559 43.2 
" clip-path="url(#p27c2dcef49)" style="fill: none; stroke-dasharray: 5.12,1.28,0.8,1.28; stroke-dashoffset: 0; stroke: #b0b0b0; stroke-width: 0.8"/>
     </g>
     <g id="line2d_2">
      <defs>
       <path id="m71b04d781e" d="M 0 0 
L 0 3.5 
" style="stroke: #a9a9a9; stroke-width: 0.8"/>
      </defs>
      <g>
       <use xlink:href="#m71b04d781e" x="128.38559" y="320.4" style="fill: #a9a9a9; stroke: #a9a9a9; stroke-width: 0.8"/>
      </g>
     </g>
     <g id="text_1">
      <!-- 2021-07 -->
      <g style="fill: #a9a9a9" transform="translate(107.494184 334.998438) scale(0.1 -0.1)">
       <defs>
        <path id="DejaVuSans-32" d="M 1228 531 
L 3431 531 
L 3431 0 
L 469 0 
L 469 531 
Q 828 903 1448 1529 
Q 2069 2156 2228 2338 
Q 2531 2678 2651 2914 
Q 2772 3150 2772 3378 
Q 2772 3750 2511 3984 
Q 2250 4219 1831 4219 
Q 1534 4219 1204 4116 
Q 875 4013 500 3803 
L 500 4441 
Q 881 4594 1212 4672 
Q 1544 4750 1819 4750 
Q 2544 4750 2975 4387 
Q 3406 4025 3406 3419 
Q 3406 3131 3298 2873 
Q 3191 2616 2906 2266 
Q 2828 2175 2409 1742 
Q 1991 1309 1228 531 
z
" transform="scale(0.015625)"/>
        <path id="DejaVuSans-30" d="M 2034 4250 
Q 1547 4250 1301 3770 
Q 1056 3291 1056 2328 
Q 1056 1369 1301 889 
Q 1547 409 2034 409 
Q 2525 409 2770 889 
Q 3016 1369 3016 2328 
Q 3016 3291 2770 3770 
Q 2525 4250 2034 4250 
z
M 2034 4750 
Q 2819 4750 3233 4129 
Q 3647 3509 3647 2328 
Q 3647 1150 3233 529 
Q 2819 -91 2034 -91 
Q 1250 -91 836 529 
Q 422 1150 422 2328 
Q 422 3509 836 4129 
Q 1250 4750 2034 4750 
z
" transform="scale(0.015625)"/>
        <path id="DejaVuSans-31" d="M 794 531 
L 1825 531 
L 1825 4091 
L 703 3866 
L 703 4441 
L 1819 4666 
L 2450 4666 
L 2450 531 
L 3481 531 
L 3481 0 
L 794 0 
L 794 531 
z
" transform="scale(0.015625)"/>
        <path id="DejaVuSans-2d" d="M 313 2009 
L 1997 2009 
L 1997 1497 
L 313 1497 
L 313 2009 
z
" transform="scale(0.015625)"/>
        <path id="DejaVuSans-37" d="M 525 4666 
L 3525 4666 
L 3525 4397 
L 1831 0 
L 1172 0 
L 2766 4134 
L 525 4134 
L 525 4666 
z
" transform="scale(0.015625)"/>
       </defs>
       <use xlink:href="#DejaVuSans-32"/>
       <use xlink:href="#DejaVuSans-30" transform="translate(63.623047 0)"/>
       <use xlink:href="#DejaVuSans-32" transform="translate(127.246094 0)"/>
       <use xlink:href="#DejaVuSans-31" transform="translate(190.869141 0)"/>
       <use xlink:href="#DejaVuSans-2d" transform="translate(254.492188 0)"/>
       <use xlink:href="#DejaVuSans-30" transform="translate(290.576172 0)"/>
       <use xlink:href="#DejaVuSans-37" transform="translate(354.199219 0)"/>
      </g>
     </g>
    </g>
    <g id="xtick_2">
     <g id="line2d_3">
      <path d="M 208.791777 320.4 
L 208.791777 43.2 
" clip-path="url(#p27c2dcef49)" style="fill: none; stroke-dasharray: 5.12,1.28,0.8,1.28; stroke-dashoffset: 0; stroke: #b0b0b0; stroke-width: 0.8"/>
     </g>
     <g id="line2d_4">
      <g>
       <use xlink:href="#m71b04d781e" x="208.791777" y="320.4" style="fill: #a9a9a9; stroke: #a9a9a9; stroke-width: 0.8"/>
      </g>
     </g>
     <g id="text_2">
      <!-- 2022-01 -->
      <g style="fill: #a9a9a9" transform="translate(187.900371 334.998438) scale(0.1 -0.1)">
       <use xlink:href="#DejaVuSans-32"/>
       <use xlink:href="#DejaVuSans-30" transform="translate(63.623047 0)"/>
       <use xlink:href="#DejaVuSans-32" transform="translate(127.246094 0)"/>
       <use xlink:href="#DejaVuSans-32" transform="translate(190.869141 0)"/>
       <use xlink:href="#DejaVuSans-2d" transform="translate(254.492188 0)"/>
       <use xlink:href="#DejaVuSans-30" transform="translate(290.576172 0)"/>
       <use xlink:href="#DejaVuSans-31" transform="translate(354.199219 0)"/>
      </g>
     </g>
    </g>
    <g id="xtick_3">
     <g id="line2d_5">
      <path d="M 287.886993 320.4 
L 287.886993 43.2 
" clip-path="url(#p27c2dcef49)" style="fill: none; stroke-dasharray: 5.12,1.28,0.8,1.28; stroke-dashoffset: 0; stroke: #b0b0b0; stroke-width: 0.8"/>
     </g>
     <g id="line2d_6">
      <g>
       <use xlink:href="#m71b04d781e" x="287.886993" y="320.4" style="fill: #a9a9a9; stroke: #a9a9a9; stroke-width: 0.8"/>
      </g>
     </g>
     <g id="text_3">
      <!-- 2022-07 -->
      <g style="fill: #a9a9a9" transform="translate(266.995587 334.998438) scale(0.1 -0.1)">
       <use xlink:href="#DejaVuSans-32"/>
       <use xlink:href="#DejaVuSans-30" transform="translate(63.623047 0)"/>
       <use xlink:href="#DejaVuSans-32" transform="translate(127.246094 0)"/>
       <use xlink:href="#DejaVuSans-32" transform="translate(190.869141 0)"/>
       <use xlink:href="#DejaVuSans-2d" transform="translate(254.492188 0)"/>
       <use xlink:href="#DejaVuSans-30" transform="translate(290.576172 0)"/>
       <use xlink:href="#DejaVuSans-37" transform="translate(354.199219 0)"/>
      </g>
     </g>
    </g>
    <g id="xtick_4">
     <g id="line2d_7">
      <path d="M 368.29318 320.4 
L 368.29318 43.2 
" clip-path="url(#p27c2dcef49)" style="fill: none; stroke-dasharray: 5.12,1.28,0.8,1.28; stroke-dashoffset: 0; stroke: #b0b0b0; stroke-width: 0.8"/>
     </g>
     <g id="line2d_8">
      <g>
       <use xlink:href="#m71b04d781e" x="368.29318" y="320.4" style="fill: #a9a9a9; stroke: #a9a9a9; stroke-width: 0.8"/>
      </g>
     </g>
     <g id="text_4">
      <!-- 2023-01 -->
      <g style="fill: #a9a9a9" transform="translate(347.401774 334.998438) scale(0.1 -0.1)">
       <defs>
        <path id="DejaVuSans-33" d="M 2597 2516 
Q 3050 2419 3304 2112 
Q 3559 1806 3559 1356 
Q 3559 666 3084 287 
Q 2609 -91 1734 -91 
Q 1441 -91 1130 -33 
Q 819 25 488 141 
L 488 750 
Q 750 597 1062 519 
Q 1375 441 1716 441 
Q 2309 441 2620 675 
Q 2931 909 2931 1356 
Q 2931 1769 2642 2001 
Q 2353 2234 1838 2234 
L 1294 2234 
L 1294 2753 
L 1863 2753 
Q 2328 2753 2575 2939 
Q 2822 3125 2822 3475 
Q 2822 3834 2567 4026 
Q 2313 4219 1838 4219 
Q 1578 4219 1281 4162 
Q 984 4106 628 3988 
L 628 4550 
Q 988 4650 1302 4700 
Q 1616 4750 1894 4750 
Q 2613 4750 3031 4423 
Q 3450 4097 3450 3541 
Q 3450 3153 3228 2886 
Q 3006 2619 2597 2516 
z
" transform="scale(0.015625)"/>
       </defs>
       <use xlink:href="#DejaVuSans-32"/>
       <use xlink:href="#DejaVuSans-30" transform="translate(63.623047 0)"/>
       <use xlink:href="#DejaVuSans-32" transform="translate(127.246094 0)"/>
       <use xlink:href="#DejaVuSans-33" transform="translate(190.869141 0)"/>
       <use xlink:href="#DejaVuSans-2d" transform="translate(254.492188 0)"/>
       <use xlink:href="#DejaVuSans-30" transform="translate(290.576172 0)"/>
       <use xlink:href="#DejaVuSans-31" transform="translate(354.199219 0)"/>
      </g>
     </g>
    </g>
    <g id="xtick_5">
     <g id="line2d_9">
      <path d="M 447.388397 320.4 
L 447.388397 43.2 
" clip-path="url(#p27c2dcef49)" style="fill: none; stroke-dasharray: 5.12,1.28,0.8,1.28; stroke-dashoffset: 0; stroke: #b0b0b0; stroke-width: 0.8"/>
     </g>
     <g id="line2d_10">
      <g>
       <use xlink:href="#m71b04d781e" x="447.388397" y="320.4" style="fill: #a9a9a9; stroke: #a9a9a9; stroke-width: 0.8"/>
      </g>
     </g>
     <g id="text_5">
      <!-- 2023-07 -->
      <g style="fill: #a9a9a9" transform="translate(426.49699 334.998438) scale(0.1 -0.1)">
       <use xlink:href="#DejaVuSans-32"/>
       <use xlink:href="#DejaVuSans-30" transform="translate(63.623047 0)"/>
       <use xlink:href="#DejaVuSans-32" transform="translate(127.246094 0)"/>
       <use xlink:href="#DejaVuSans-33" transform="translate(190.869141 0)"/>
       <use xlink:href="#DejaVuSans-2d" transform="translate(254.492188 0)"/>
       <use xlink:href="#DejaVuSans-30" transform="translate(290.576172 0)"/>
       <use xlink:href="#DejaVuSans-37" transform="translate(354.199219 0)"/>
      </g>
     </g>
    </g>
    <g id="xtick_6">
     <g id="line2d_11">
      <path d="M 527.794583 320.4 
L 527.794583 43.2 
" clip-path="url(#p27c2dcef49)" style="fill: none; stroke-dasharray: 5.12,1.28,0.8,1.28; stroke-dashoffset: 0; stroke: #b0b0b0; stroke-width: 0.8"/>
     </g>
     <g id="line2d_12">
      <g>
       <use xlink:href="#m71b04d781e" x="527.794583" y="320.4" style="fill: #a9a9a9; stroke: #a9a9a9; stroke-width: 0.8"/>
      </g>
     </g>
     <g id="text_6">
      <!-- 2024-01 -->
      <g style="fill: #a9a9a9" transform="translate(506.903177 334.998438) scale(0.1 -0.1)">
       <defs>
        <path id="DejaVuSans-34" d="M 2419 4116 
L 825 1625 
L 2419 1625 
L 2419 4116 
z
M 2253 4666 
L 3047 4666 
L 3047 1625 
L 3713 1625 
L 3713 1100 
L 3047 1100 
L 3047 0 
L 2419 0 
L 2419 1100 
L 313 1100 
L 313 1709 
L 2253 4666 
z
" transform="scale(0.015625)"/>
       </defs>
       <use xlink:href="#DejaVuSans-32"/>
       <use xlink:href="#DejaVuSans-30" transform="translate(63.623047 0)"/>
       <use xlink:href="#DejaVuSans-32" transform="translate(127.246094 0)"/>
       <use xlink:href="#DejaVuSans-34" transform="translate(190.869141 0)"/>
       <use xlink:href="#DejaVuSans-2d" transform="translate(254.492188 0)"/>
       <use xlink:href="#DejaVuSans-30" transform="translate(290.576172 0)"/>
       <use xlink:href="#DejaVuSans-31" transform="translate(354.199219 0)"/>
      </g>
     </g>
    </g>
    <g id="xtick_7">
     <g id="line2d_13">
      <path d="M 607.32679 320.4 
L 607.32679 43.2 
" clip-path="url(#p27c2dcef49)" style="fill: none; stroke-dasharray: 5.12,1.28,0.8,1.28; stroke-dashoffset: 0; stroke: #b0b0b0; stroke-width: 0.8"/>
     </g>
     <g id="line2d_14">
      <g>
       <use xlink:href="#m71b04d781e" x="607.32679" y="320.4" style="fill: #a9a9a9; stroke: #a9a9a9; stroke-width: 0.8"/>
      </g>
     </g>
     <g id="text_7">
      <!-- 2024-07 -->
      <g style="fill: #a9a9a9" transform="translate(586.435384 334.998438) scale(0.1 -0.1)">
       <use xlink:href="#DejaVuSans-32"/>
       <use xlink:href="#DejaVuSans-30" transform="translate(63.623047 0)"/>
       <use xlink:href="#DejaVuSans-32" transform="translate(127.246094 0)"/>
       <use xlink:href="#DejaVuSans-34" transform="translate(190.869141 0)"/>
       <use xlink:href="#DejaVuSans-2d" transform="translate(254.492188 0)"/>
       <use xlink:href="#DejaVuSans-30" transform="translate(290.576172 0)"/>
       <use xlink:href="#DejaVuSans-37" transform="translate(354.199219 0)"/>
      </g>
     </g>
    </g>
    <g id="xtick_8">
     <g id="line2d_15">
      <path d="M 687.732977 320.4 
L 687.732977 43.2 
" clip-path="url(#p27c2dcef49)" style="fill: none; stroke-dasharray: 5.12,1.28,0.8,1.28; stroke-dashoffset: 0; stroke: #b0b0b0; stroke-width: 0.8"/>
     </g>
     <g id="line2d_16">
      <g>
       <use xlink:href="#m71b04d781e" x="687.732977" y="320.4" style="fill: #a9a9a9; stroke: #a9a9a9; stroke-width: 0.8"/>
      </g>
     </g>
     <g id="text_8">
      <!-- 2025-01 -->
      <g style="fill: #a9a9a9" transform="translate(666.84157 334.998438) scale(0.1 -0.1)">
       <defs>
        <path id="DejaVuSans-35" d="M 691 4666 
L 3169 4666 
L 3169 4134 
L 1269 4134 
L 1269 2991 
Q 1406 3038 1543 3061 
Q 1681 3084 1819 3084 
Q 2600 3084 3056 2656 
Q 3513 2228 3513 1497 
Q 3513 744 3044 326 
Q 2575 -91 1722 -91 
Q 1428 -91 1123 -41 
Q 819 9 494 109 
L 494 744 
Q 775 591 1075 516 
Q 1375 441 1709 441 
Q 2250 441 2565 725 
Q 2881 1009 2881 1497 
Q 2881 1984 2565 2268 
Q 2250 2553 1709 2553 
Q 1456 2553 1204 2497 
Q 953 2441 691 2322 
L 691 4666 
z
" transform="scale(0.015625)"/>
       </defs>
       <use xlink:href="#DejaVuSans-32"/>
       <use xlink:href="#DejaVuSans-30" transform="translate(63.623047 0)"/>
       <use xlink:href="#DejaVuSans-32" transform="translate(127.246094 0)"/>
       <use xlink:href="#DejaVuSans-35" transform="translate(190.869141 0)"/>
       <use xlink:href="#DejaVuSans-2d" transform="translate(254.492188 0)"/>
       <use xlink:href="#DejaVuSans-30" transform="translate(290.576172 0)"/>
       <use xlink:href="#DejaVuSans-31" transform="translate(354.199219 0)"/>
      </g>
     </g>
    </g>
    <g id="xtick_9">
     <g id="line2d_17">
      <path d="M 766.828193 320.4 
L 766.828193 43.2 
" clip-path="url(#p27c2dcef49)" style="fill: none; stroke-dasharray: 5.12,1.28,0.8,1.28; stroke-dashoffset: 0; stroke: #b0b0b0; stroke-width: 0.8"/>
     </g>
     <g id="line2d_18">
      <g>
       <use xlink:href="#m71b04d781e" x="766.828193" y="320.4" style="fill: #a9a9a9; stroke: #a9a9a9; stroke-width: 0.8"/>
      </g>
     </g>
     <g id="text_9">
      <!-- 2025-07 -->
      <g style="fill: #a9a9a9" transform="translate(745.936787 334.998438) scale(0.1 -0.1)">
       <use xlink:href="#DejaVuSans-32"/>
       <use xlink:href="#DejaVuSans-30" transform="translate(63.623047 0)"/>
       <use xlink:href="#DejaVuSans-32" transform="translate(127.246094 0)"/>
       <use xlink:href="#DejaVuSans-35" transform="translate(190.869141 0)"/>
       <use xlink:href="#DejaVuSans-2d" transform="translate(254.492188 0)"/>
       <use xlink:href="#DejaVuSans-30" transform="translate(290.576172 0)"/>
       <use xlink:href="#DejaVuSans-37" transform="translate(354.199219 0)"/>
      </g>
     </g>
    </g>
   </g>
   <g id="matplotlib.axis_2">
    <g id="ytick_1">
     <g id="line2d_19">
      <path d="M 108 307.833006 
L 777.6 307.833006 
" clip-path="url(#p27c2dcef49)" style="fill: none; stroke-dasharray: 5.12,1.28,0.8,1.28; stroke-dashoffset: 0; stroke: #b0b0b0; stroke-width: 0.8"/>
     </g>
     <g id="line2d_20">
      <defs>
       <path id="md8a6db41f5" d="M 0 0 
L -3.5 0 
" style="stroke: #a9a9a9; stroke-width: 0.8"/>
      </defs>
      <g>
       <use xlink:href="#md8a6db41f5" x="108" y="307.833006" style="fill: #a9a9a9; stroke: #a9a9a9; stroke-width: 0.8"/>
      </g>
     </g>
     <g id="text_10">
      <!-- 0 -->
      <g style="fill: #a9a9a9" transform="translate(94.6375 311.632225) scale(0.1 -0.1)">
       <use xlink:href="#DejaVuSans-30"/>
      </g>
     </g>
    </g>
    <g id="ytick_2">
     <g id="line2d_21">
      <path d="M 108 274.827112 
L 777.6 274.827112 
" clip-path="url(#p27c2dcef49)" style="fill: none; stroke-dasharray: 5.12,1.28,0.8,1.28; stroke-dashoffset: 0; stroke: #b0b0b0; stroke-width: 0.8"/>
     </g>
     <g id="line2d_22">
      <g>
       <use xlink:href="#md8a6db41f5" x="108" y="274.827112" style="fill: #a9a9a9; stroke: #a9a9a9; stroke-width: 0.8"/>
      </g>
     </g>
     <g id="text_11">
      <!-- 1000 -->
      <g style="fill: #a9a9a9" transform="translate(75.55 278.626331) scale(0.1 -0.1)">
       <use xlink:href="#DejaVuSans-31"/>
       <use xlink:href="#DejaVuSans-30" transform="translate(63.623047 0)"/>
       <use xlink:href="#DejaVuSans-30" transform="translate(127.246094 0)"/>
       <use xlink:href="#DejaVuSans-30" transform="translate(190.869141 0)"/>
      </g>
     </g>
    </g>
    <g id="ytick_3">
     <g id="line2d_23">
      <path d="M 108 241.821218 
L 777.6 241.821218 
" clip-path="url(#p27c2dcef49)" style="fill: none; stroke-dasharray: 5.12,1.28,0.8,1.28; stroke-dashoffset: 0; stroke: #b0b0b0; stroke-width: 0.8"/>
     </g>
     <g id="line2d_24">
      <g>
       <use xlink:href="#md8a6db41f5" x="108" y="241.821218" style="fill: #a9a9a9; stroke: #a9a9a9; stroke-width: 0.8"/>
      </g>
     </g>
     <g id="text_12">
      <!-- 2000 -->
      <g style="fill: #a9a9a9" transform="translate(75.55 245.620437) scale(0.1 -0.1)">
       <use xlink:href="#DejaVuSans-32"/>
       <use xlink:href="#DejaVuSans-30" transform="translate(63.623047 0)"/>
       <use xlink:href="#DejaVuSans-30" transform="translate(127.246094 0)"/>
       <use xlink:href="#DejaVuSans-30" transform="translate(190.869141 0)"/>
      </g>
     </g>
    </g>
    <g id="ytick_4">
     <g id="line2d_25">
      <path d="M 108 208.815324 
L 777.6 208.815324 
" clip-path="url(#p27c2dcef49)" style="fill: none; stroke-dasharray: 5.12,1.28,0.8,1.28; stroke-dashoffset: 0; stroke: #b0b0b0; stroke-width: 0.8"/>
     </g>
     <g id="line2d_26">
      <g>
       <use xlink:href="#md8a6db41f5" x="108" y="208.815324" style="fill: #a9a9a9; stroke: #a9a9a9; stroke-width: 0.8"/>
      </g>
     </g>
     <g id="text_13">
      <!-- 3000 -->
      <g style="fill: #a9a9a9" transform="translate(75.55 212.614543) scale(0.1 -0.1)">
       <use xlink:href="#DejaVuSans-33"/>
       <use xlink:href="#DejaVuSans-30" transform="translate(63.623047 0)"/>
       <use xlink:href="#DejaVuSans-30" transform="translate(127.246094 0)"/>
       <use xlink:href="#DejaVuSans-30" transform="translate(190.869141 0)"/>
      </g>
     </g>
    </g>
    <g id="ytick_5">
     <g id="line2d_27">
      <path d="M 108 175.80943 
L 777.6 175.80943 
" clip-path="url(#p27c2dcef49)" style="fill: none; stroke-dasharray: 5.12,1.28,0.8,1.28; stroke-dashoffset: 0; stroke: #b0b0b0; stroke-width: 0.8"/>
     </g>
     <g id="line2d_28">
      <g>
       <use xlink:href="#md8a6db41f5" x="108" y="175.80943" style="fill: #a9a9a9; stroke: #a9a9a9; stroke-width: 0.8"/>
      </g>
     </g>
     <g id="text_14">
      <!-- 4000 -->
      <g style="fill: #a9a9a9" transform="translate(75.55 179.608649) scale(0.1 -0.1)">
       <use xlink:href="#DejaVuSans-34"/>
       <use xlink:href="#DejaVuSans-30" transform="translate(63.623047 0)"/>
       <use xlink:href="#DejaVuSans-30" transform="translate(127.246094 0)"/>
       <use xlink:href="#DejaVuSans-30" transform="translate(190.869141 0)"/>
      </g>
     </g>
    </g>
    <g id="ytick_6">
     <g id="line2d_29">
      <path d="M 108 142.803536 
L 777.6 142.803536 
" clip-path="url(#p27c2dcef49)" style="fill: none; stroke-dasharray: 5.12,1.28,0.8,1.28; stroke-dashoffset: 0; stroke: #b0b0b0; stroke-width: 0.8"/>
     </g>
     <g id="line2d_30">
      <g>
       <use xlink:href="#md8a6db41f5" x="108" y="142.803536" style="fill: #a9a9a9; stroke: #a9a9a9; stroke-width: 0.8"/>
      </g>
     </g>
     <g id="text_15">
      <!-- 5000 -->
      <g style="fill: #a9a9a9" transform="translate(75.55 146.602755) scale(0.1 -0.1)">
       <use xlink:href="#DejaVuSans-35"/>
       <use xlink:href="#DejaVuSans-30" transform="translate(63.623047 0)"/>
       <use xlink:href="#DejaVuSans-30" transform="translate(127.246094 0)"/>
       <use xlink:href="#DejaVuSans-30" transform="translate(190.869141 0)"/>
      </g>
     </g>
    </g>
    <g id="ytick_7">
     <g id="line2d_31">
      <path d="M 108 109.797642 
L 777.6 109.797642 
" clip-path="url(#p27c2dcef49)" style="fill: none; stroke-dasharray: 5.12,1.28,0.8,1.28; stroke-dashoffset: 0; stroke: #b0b0b0; stroke-width: 0.8"/>
     </g>
     <g id="line2d_32">
      <g>
       <use xlink:href="#md8a6db41f5" x="108" y="109.797642" style="fill: #a9a9a9; stroke: #a9a9a9; stroke-width: 0.8"/>
      </g>
     </g>
     <g id="text_16">
      <!-- 6000 -->
      <g style="fill: #a9a9a9" transform="translate(75.55 113.596861) scale(0.1 -0.1)">
       <defs>
        <path id="DejaVuSans-36" d="M 2113 2584 
Q 1688 2584 1439 2293 
Q 1191 2003 1191 1497 
Q 1191 994 1439 701 
Q 1688 409 2113 409 
Q 2538 409 2786 701 
Q 3034 994 3034 1497 
Q 3034 2003 2786 2293 
Q 2538 2584 2113 2584 
z
M 3366 4563 
L 3366 3988 
Q 3128 4100 2886 4159 
Q 2644 4219 2406 4219 
Q 1781 4219 1451 3797 
Q 1122 3375 1075 2522 
Q 1259 2794 1537 2939 
Q 1816 3084 2150 3084 
Q 2853 3084 3261 2657 
Q 3669 2231 3669 1497 
Q 3669 778 3244 343 
Q 2819 -91 2113 -91 
Q 1303 -91 875 529 
Q 447 1150 447 2328 
Q 447 3434 972 4092 
Q 1497 4750 2381 4750 
Q 2619 4750 2861 4703 
Q 3103 4656 3366 4563 
z
" transform="scale(0.015625)"/>
       </defs>
       <use xlink:href="#DejaVuSans-36"/>
       <use xlink:href="#DejaVuSans-30" transform="translate(63.623047 0)"/>
       <use xlink:href="#DejaVuSans-30" transform="translate(127.246094 0)"/>
       <use xlink:href="#DejaVuSans-30" transform="translate(190.869141 0)"/>
      </g>
     </g>
    </g>
    <g id="ytick_8">
     <g id="line2d_33">
      <path d="M 108 76.791749 
L 777.6 76.791749 
" clip-path="url(#p27c2dcef49)" style="fill: none; stroke-dasharray: 5.12,1.28,0.8,1.28; stroke-dashoffset: 0; stroke: #b0b0b0; stroke-width: 0.8"/>
     </g>
     <g id="line2d_34">
      <g>
       <use xlink:href="#md8a6db41f5" x="108" y="76.791749" style="fill: #a9a9a9; stroke: #a9a9a9; stroke-width: 0.8"/>
      </g>
     </g>
     <g id="text_17">
      <!-- 7000 -->
      <g style="fill: #a9a9a9" transform="translate(75.55 80.590967) scale(0.1 -0.1)">
       <use xlink:href="#DejaVuSans-37"/>
       <use xlink:href="#DejaVuSans-30" transform="translate(63.623047 0)"/>
       <use xlink:href="#DejaVuSans-30" transform="translate(127.246094 0)"/>
       <use xlink:href="#DejaVuSans-30" transform="translate(190.869141 0)"/>
      </g>
     </g>
    </g>
    <g id="ytick_9">
     <g id="line2d_35">
      <path d="M 108 43.785855 
L 777.6 43.785855 
" clip-path="url(#p27c2dcef49)" style="fill: none; stroke-dasharray: 5.12,1.28,0.8,1.28; stroke-dashoffset: 0; stroke: #b0b0b0; stroke-width: 0.8"/>
     </g>
     <g id="line2d_36">
      <g>
       <use xlink:href="#md8a6db41f5" x="108" y="43.785855" style="fill: #a9a9a9; stroke: #a9a9a9; stroke-width: 0.8"/>
      </g>
     </g>
     <g id="text_18">
      <!-- 8000 -->
      <g style="fill: #a9a9a9" transform="translate(75.55 47.585073) scale(0.1 -0.1)">
       <defs>
        <path id="DejaVuSans-38" d="M 2034 2216 
Q 1584 2216 1326 1975 
Q 1069 1734 1069 1313 
Q 1069 891 1326 650 
Q 1584 409 2034 409 
Q 2484 409 2743 651 
Q 3003 894 3003 1313 
Q 3003 1734 2745 1975 
Q 2488 2216 2034 2216 
z
M 1403 2484 
Q 997 2584 770 2862 
Q 544 3141 544 3541 
Q 544 4100 942 4425 
Q 1341 4750 2034 4750 
Q 2731 4750 3128 4425 
Q 3525 4100 3525 3541 
Q 3525 3141 3298 2862 
Q 3072 2584 2669 2484 
Q 3125 2378 3379 2068 
Q 3634 1759 3634 1313 
Q 3634 634 3220 271 
Q 2806 -91 2034 -91 
Q 1263 -91 848 271 
Q 434 634 434 1313 
Q 434 1759 690 2068 
Q 947 2378 1403 2484 
z
M 1172 3481 
Q 1172 3119 1398 2916 
Q 1625 2713 2034 2713 
Q 2441 2713 2670 2916 
Q 2900 3119 2900 3481 
Q 2900 3844 2670 4047 
Q 2441 4250 2034 4250 
Q 1625 4250 1398 4047 
Q 1172 3844 1172 3481 
z
" transform="scale(0.015625)"/>
       </defs>
       <use xlink:href="#DejaVuSans-38"/>
       <use xlink:href="#DejaVuSans-30" transform="translate(63.623047 0)"/>
       <use xlink:href="#DejaVuSans-30" transform="translate(127.246094 0)"/>
       <use xlink:href="#DejaVuSans-30" transform="translate(190.869141 0)"/>
      </g>
     </g>
    </g>
   </g>
   <g id="line2d_37">
    <path d="M 138.436364 307.733988 
L 141.058305 307.502947 
L 141.495295 307.304912 
L 143.243255 307.07387 
L 144.991216 306.710806 
L 145.865196 306.578782 
L 148.050147 306.380747 
L 148.924127 306.017682 
L 149.361117 305.423576 
L 149.798107 305.126523 
L 150.235098 304.136346 
L 150.672088 304.070334 
L 151.109078 303.707269 
L 151.983058 303.245187 
L 153.731019 301.792927 
L 155.478979 300.901768 
L 156.78995 300.274656 
L 157.22694 299.548527 
L 158.10092 298.888409 
L 158.53791 298.690373 
L 162.907812 298.030255 
L 163.344802 297.83222 
L 166.403733 297.568173 
L 168.151694 297.139096 
L 171.647615 296.644008 
L 172.084605 296.412967 
L 172.521595 296.346955 
L 173.395575 296.049902 
L 176.454506 295.521807 
L 177.328487 295.25776 
L 181.261398 294.597642 
L 182.135378 294.399607 
L 183.009358 294.366601 
L 184.757319 293.937525 
L 185.194309 293.310413 
L 186.50528 292.782318 
L 187.81625 292.419253 
L 188.25324 292.188212 
L 189.127221 292.023183 
L 190.875181 291.495088 
L 191.749161 291.429077 
L 192.623142 291.198035 
L 194.371102 290.735953 
L 194.808092 290.702947 
L 195.682073 290.27387 
L 196.119063 290.207859 
L 196.556053 289.976817 
L 201.362945 289.15167 
L 203.110905 288.623576 
L 203.547895 288.326523 
L 205.732846 287.600393 
L 206.606826 286.973281 
L 207.917797 286.709234 
L 217.53158 283.837721 
L 217.96857 283.804715 
L 219.279541 283.408644 
L 219.716531 283.408644 
L 220.153521 283.210609 
L 221.027501 283.111591 
L 221.464491 282.946562 
L 223.212452 282.88055 
L 224.086432 282.715521 
L 224.960412 282.253438 
L 226.271383 281.75835 
L 227.145363 281.296267 
L 228.019343 280.834185 
L 228.893324 280.537132 
L 229.330314 280.405108 
L 230.204294 279.844008 
L 230.641284 279.348919 
L 231.515265 277.962672 
L 231.952255 277.830648 
L 232.389245 277.830648 
L 233.700215 277.038507 
L 234.137206 276.807466 
L 234.574196 276.708448 
L 235.011186 276.279371 
L 235.885166 275.916306 
L 236.759146 275.48723 
L 238.944097 272.615717 
L 241.566038 271.163458 
L 242.440018 270.437328 
L 242.877008 270.173281 
L 243.313999 269.546169 
L 243.750989 268.522986 
L 244.187979 267.829862 
L 244.624969 267.466798 
L 245.061959 267.268762 
L 248.55788 263.968173 
L 249.431861 263.143026 
L 252.053801 261.459725 
L 252.490792 261.294695 
L 254.238752 260.238507 
L 254.675742 260.040472 
L 256.860693 257.994106 
L 257.734673 257.631041 
L 258.608654 257.003929 
L 259.045644 256.739882 
L 259.482634 256.67387 
L 260.793604 255.914735 
L 261.230595 255.419646 
L 263.415545 254.198428 
L 263.852535 254.033399 
L 265.163506 253.109234 
L 271.718358 250.732809 
L 272.592338 249.907662 
L 273.903309 249.247544 
L 274.777289 248.686444 
L 275.651269 248.422397 
L 276.088259 248.125344 
L 276.52525 247.99332 
L 277.83622 247.102161 
L 280.021171 246.607073 
L 281.332141 245.814931 
L 282.643112 245.517878 
L 283.080102 245.418861 
L 284.391072 244.395678 
L 286.139033 243.900589 
L 286.576023 243.537525 
L 289.197964 242.61336 
L 290.071944 242.44833 
L 290.945924 242.085265 
L 294.004855 240.930059 
L 294.878836 240.798035 
L 296.189806 240.335953 
L 298.374757 239.246758 
L 300.122717 238.256582 
L 303.618639 236.771316 
L 304.055629 236.705305 
L 304.929609 236.144204 
L 305.803589 235.913163 
L 307.11456 235.385069 
L 308.86252 235.154028 
L 309.736501 234.691945 
L 310.173491 234.295874 
L 310.610481 233.503733 
L 312.358442 233.008644 
L 313.669412 232.315521 
L 314.543392 232.018468 
L 315.417373 231.556385 
L 318.039313 230.467191 
L 318.913294 230.269155 
L 319.787274 229.807073 
L 320.224264 229.609037 
L 320.661254 229.543026 
L 322.846205 228.453831 
L 323.720185 227.892731 
L 325.031156 227.628684 
L 327.216107 227.067583 
L 327.653097 226.704519 
L 328.527077 226.407466 
L 330.712028 225.516306 
L 331.149018 225.186248 
L 331.586008 225.021218 
L 332.459988 224.52613 
L 334.207949 223.965029 
L 335.081929 223.403929 
L 335.518919 222.941847 
L 335.955909 222.6778 
L 336.3929 222.578782 
L 337.26688 221.852652 
L 337.70387 221.78664 
L 338.14086 221.060511 
L 338.57785 220.862475 
L 339.01484 220.499411 
L 339.451831 220.433399 
L 340.325811 219.872299 
L 341.199791 219.575246 
L 341.636781 219.245187 
L 342.073771 219.080157 
L 343.821732 217.891945 
L 345.132702 217.198821 
L 346.006683 216.96778 
L 346.880663 216.472692 
L 347.317653 215.713556 
L 348.191633 215.053438 
L 348.628624 214.95442 
L 351.250565 213.667191 
L 352.124545 213.304126 
L 352.998525 212.677014 
L 353.872505 211.785855 
L 357.805417 208.683301 
L 358.242407 208.320236 
L 359.116387 208.023183 
L 359.990367 207.429077 
L 361.301338 206.735953 
L 361.738328 206.669941 
L 363.049298 205.943811 
L 363.923279 205.382711 
L 368.29318 203.732417 
L 368.73017 203.369352 
L 370.478131 202.676228 
L 370.915121 202.544204 
L 371.789101 201.950098 
L 372.663082 201.587033 
L 373.537062 200.959921 
L 374.411042 199.177603 
L 375.285023 198.121415 
L 376.595993 197.428291 
L 377.469973 197.065226 
L 377.906963 196.999214 
L 378.343954 196.735167 
L 380.528904 196.009037 
L 380.965894 195.811002 
L 381.839875 195.216896 
L 383.150845 194.655796 
L 384.024825 194.160707 
L 384.898806 193.632613 
L 385.335796 193.33556 
L 385.772786 192.840472 
L 387.083756 192.081336 
L 387.520747 191.916306 
L 388.394727 191.388212 
L 390.142687 190.431041 
L 390.579678 190.332024 
L 391.016668 189.968959 
L 394.075599 188.945776 
L 394.512589 188.615717 
L 395.386569 188.35167 
L 396.26055 187.988605 
L 396.69754 187.62554 
L 398.4455 186.998428 
L 399.319481 186.371316 
L 400.193461 186.008251 
L 401.067441 185.315128 
L 401.941421 185.051081 
L 402.378412 184.65501 
L 402.815402 184.588998 
L 403.689382 183.895874 
L 404.563362 183.433792 
L 405.000352 183.235756 
L 405.437343 182.773674 
L 408.496274 181.51945 
L 409.370254 181.123379 
L 410.681224 180.694303 
L 411.555205 180.562279 
L 411.992195 180.364244 
L 412.429185 180.298232 
L 413.303165 179.902161 
L 413.740155 179.869155 
L 415.488116 179.209037 
L 416.799086 178.251866 
L 417.236076 178.086837 
L 418.110057 177.591749 
L 418.547047 177.459725 
L 421.168988 175.97446 
L 421.605978 175.875442 
L 422.916948 175.083301 
L 424.227919 174.621218 
L 425.101899 174.324165 
L 426.84986 173.730059 
L 427.72384 173.433006 
L 429.471801 173.069941 
L 429.908791 172.871906 
L 430.782771 172.640864 
L 431.219761 172.442829 
L 431.656751 172.376817 
L 432.093741 172.145776 
L 432.967722 171.980747 
L 434.278692 171.485658 
L 435.152672 171.38664 
L 436.463643 171.089587 
L 438.648594 170.693517 
L 450.010337 167.260904 
L 450.447328 166.798821 
L 453.069268 165.709627 
L 454.817229 165.115521 
L 455.254219 164.851473 
L 456.56519 164.455403 
L 457.43917 164.224361 
L 457.87616 163.927308 
L 458.31315 163.828291 
L 458.75014 163.43222 
L 460.061111 163.168173 
L 460.935091 162.739096 
L 461.372081 162.211002 
L 463.120042 161.781925 
L 466.178973 161.121807 
L 466.615963 161.121807 
L 467.052953 160.923772 
L 468.800914 160.593713 
L 469.237904 160.395678 
L 470.985864 160.065619 
L 471.859845 159.702554 
L 472.733825 159.537525 
L 474.918776 158.976424 
L 476.666736 158.415324 
L 477.103726 158.316306 
L 477.540717 158.085265 
L 478.414697 157.854224 
L 479.288677 157.491159 
L 480.162657 157.1611 
L 480.599648 156.864047 
L 481.473628 156.6 
L 484.532559 155.444794 
L 486.280519 155.213752 
L 489.776441 153.926523 
L 490.213431 153.596464 
L 490.650421 153.497446 
L 491.087411 153.266405 
L 491.524401 153.233399 
L 496.331293 151.484086 
L 498.516244 150.88998 
L 499.390224 150.460904 
L 500.701194 150.163851 
L 502.449155 148.711591 
L 504.197115 147.952456 
L 505.071096 147.556385 
L 507.693037 146.533202 
L 508.130027 146.236149 
L 510.314977 145.51002 
L 511.625948 144.750884 
L 512.062938 144.651866 
L 513.810899 143.66169 
L 515.558859 142.869548 
L 515.995849 142.539489 
L 516.86983 142.242436 
L 519.05478 141.120236 
L 520.365751 140.658153 
L 522.113711 139.932024 
L 523.424682 139.436935 
L 523.861672 139.271906 
L 524.735652 139.139882 
L 525.172642 138.842829 
L 526.920603 138.479764 
L 527.794583 138.116699 
L 529.542544 137.291552 
L 535.660406 134.585069 
L 536.971376 134.155992 
L 537.408367 133.858939 
L 538.282347 133.759921 
L 538.719337 133.462868 
L 539.593317 133.297839 
L 540.467298 132.868762 
L 540.904288 132.670727 
L 541.778268 132.439686 
L 542.652248 132.175639 
L 543.963219 131.68055 
L 545.274189 131.251473 
L 546.58516 130.95442 
L 548.33312 130.228291 
L 549.2071 129.733202 
L 550.955061 128.842043 
L 551.829041 128.644008 
L 552.266031 128.379961 
L 552.703022 128.280943 
L 554.013992 127.521807 
L 554.887972 127.158743 
L 564.501756 123.429077 
L 566.249716 122.603929 
L 570.619618 120.887623 
L 571.493598 120.458546 
L 571.930588 120.359528 
L 572.367578 120.128487 
L 574.115539 119.633399 
L 575.863499 118.181139 
L 576.300489 118.049116 
L 576.73748 117.785069 
L 578.04845 117.422004 
L 578.48544 117.091945 
L 578.92243 116.992927 
L 580.233401 116.200786 
L 580.670391 115.903733 
L 581.981361 115.408644 
L 582.418351 115.177603 
L 583.729322 114.88055 
L 585.914273 114.121415 
L 586.788253 113.824361 
L 588.099223 113.164244 
L 588.973204 112.735167 
L 589.847184 112.504126 
L 591.158154 111.877014 
L 595.091066 110.391749 
L 596.402036 109.566601 
L 596.839026 109.467583 
L 597.713007 109.038507 
L 598.586987 108.708448 
L 599.023977 108.312377 
L 599.897957 107.949312 
L 601.208928 107.48723 
L 601.645918 107.124165 
L 602.082908 107.091159 
L 602.956888 106.827112 
L 603.830869 106.530059 
L 604.267859 106.332024 
L 604.704849 106.266012 
L 606.015819 105.770923 
L 607.32679 105.275835 
L 609.07475 104.483694 
L 609.948731 104.252652 
L 610.385721 103.988605 
L 611.259701 103.757564 
L 612.570672 102.998428 
L 613.007662 102.965422 
L 614.318632 102.536346 
L 615.192612 102.470334 
L 615.629603 102.239293 
L 616.503583 102.008251 
L 616.940573 101.77721 
L 619.125524 101.348134 
L 619.999504 101.183104 
L 621.310474 100.688016 
L 622.621445 100.390963 
L 623.932415 99.697839 
L 624.369405 99.301768 
L 625.680376 98.509627 
L 626.117366 98.179568 
L 627.428336 97.750491 
L 628.302317 97.486444 
L 628.739307 97.255403 
L 629.176297 97.156385 
L 629.613287 96.79332 
L 632.235228 95.67112 
L 633.983189 95.209037 
L 634.857169 94.812967 
L 635.294159 94.581925 
L 636.168139 94.317878 
L 636.60513 94.053831 
L 637.47911 93.888802 
L 640.975031 92.37053 
L 641.412021 92.304519 
L 642.722992 91.446365 
L 643.159982 91.380354 
L 644.907942 90.68723 
L 646.655903 90.258153 
L 647.092893 90.192141 
L 647.529883 89.994106 
L 647.966873 89.9611 
L 648.840854 89.664047 
L 649.277844 89.631041 
L 650.588814 89.102947 
L 652.336775 88.607859 
L 653.210755 87.947741 
L 654.958716 86.957564 
L 656.269686 86.495481 
L 659.765607 84.812181 
L 660.202597 84.581139 
L 660.639588 84.185069 
L 662.824538 83.590963 
L 664.135509 82.996857 
L 665.009489 82.765815 
L 665.446479 82.534774 
L 665.883469 82.171709 
L 667.63143 81.709627 
L 668.06842 81.379568 
L 673.749292 79.300196 
L 674.623272 79.135167 
L 676.808223 78.442043 
L 677.682203 78.078978 
L 678.556184 77.748919 
L 679.430164 77.517878 
L 679.867154 77.319843 
L 680.304144 77.319843 
L 681.178124 76.956778 
L 682.052105 76.428684 
L 685.111036 75.405501 
L 686.858996 74.811395 
L 688.169967 74.514342 
L 689.480937 74.085265 
L 689.917927 73.986248 
L 690.354917 73.689194 
L 691.228898 73.491159 
L 692.976858 72.996071 
L 693.413848 72.963065 
L 694.287829 72.566994 
L 697.34676 71.807859 
L 698.22074 71.444794 
L 702.590642 70.454617 
L 703.901612 69.761493 
L 705.212582 69.365422 
L 709.582484 67.748134 
L 710.019474 67.418075 
L 711.330444 67.121022 
L 712.204425 66.856974 
L 713.078405 66.427898 
L 713.515395 66.064833 
L 714.389375 65.800786 
L 714.826366 65.536739 
L 715.700346 65.437721 
L 718.759277 64.579568 
L 720.070247 64.315521 
L 722.692188 63.457367 
L 724.440149 62.63222 
L 729.24704 60.849902 
L 730.121021 60.717878 
L 730.995001 60.552849 
L 731.431991 60.552849 
L 733.179952 59.991749 
L 733.616942 59.925737 
L 734.490922 59.562672 
L 735.364902 59.331631 
L 737.986843 58.605501 
L 738.860824 58.37446 
L 739.297814 58.275442 
L 739.734804 58.011395 
L 740.608784 57.846365 
L 741.482764 57.747348 
L 741.919755 57.516306 
L 742.356745 57.483301 
L 743.230725 56.9222 
L 744.978686 56.52613 
L 745.852666 56.130059 
L 746.726646 55.833006 
L 747.163636 55.8 
L 747.163636 55.8 
" clip-path="url(#p27c2dcef49)" style="fill: none; stroke: #1f77b4; stroke-width: 1.5; stroke-linecap: square"/>
   </g>
   <g id="line2d_38">
    <path d="M 138.873354 307.8 
L 142.806265 307.700982 
L 146.302186 307.535953 
L 148.050147 307.535953 
L 148.487137 307.403929 
L 150.672088 307.304912 
L 153.294029 307.007859 
L 155.915969 306.908841 
L 156.78995 306.809823 
L 159.848881 306.6778 
L 162.907812 306.578782 
L 165.092763 306.51277 
L 170.773634 306.413752 
L 172.958585 306.347741 
L 176.891496 306.248723 
L 178.639457 306.215717 
L 183.009358 306.116699 
L 184.757319 305.95167 
L 186.50528 305.918664 
L 189.127221 305.819646 
L 190.875181 305.78664 
L 193.060132 305.720629 
L 194.808092 305.555599 
L 198.741004 305.456582 
L 199.614984 305.39057 
L 201.362945 305.291552 
L 203.984885 305.192534 
L 205.732846 305.093517 
L 213.598669 304.598428 
L 216.6576 304.499411 
L 217.96857 304.367387 
L 220.153521 304.268369 
L 224.523422 304.037328 
L 228.893324 303.971316 
L 230.641284 303.773281 
L 232.389245 303.674263 
L 237.196137 303.212181 
L 240.255068 302.849116 
L 241.566038 302.783104 
L 245.061959 302.321022 
L 247.6839 302.25501 
L 248.99487 302.122986 
L 250.305841 302.023969 
L 262.541565 301.066798 
L 263.415545 300.901768 
L 266.037486 300.80275 
L 273.029328 300.373674 
L 276.088259 300.274656 
L 277.83622 300.076621 
L 280.021171 299.977603 
L 282.643112 299.878585 
L 284.828062 299.779568 
L 286.576023 299.746562 
L 288.760974 299.68055 
L 289.634954 299.548527 
L 295.752816 299.449509 
L 296.626796 299.350491 
L 301.870678 299.251473 
L 305.803589 299.053438 
L 308.86252 298.95442 
L 310.610481 298.756385 
L 313.669412 298.657367 
L 314.543392 298.492338 
L 316.728343 298.426326 
L 321.098244 298.360314 
L 322.846205 298.195285 
L 324.594166 298.162279 
L 325.905136 298.063261 
L 327.653097 297.898232 
L 332.022998 297.667191 
L 336.3929 297.568173 
L 340.325811 297.370138 
L 341.636781 297.337132 
L 342.510762 297.205108 
L 344.695712 297.10609 
L 345.569693 297.040079 
L 346.443673 296.974067 
L 347.317653 296.908055 
L 351.250565 296.842043 
L 352.561535 296.743026 
L 364.360269 295.950884 
L 366.54522 295.851866 
L 368.73017 295.785855 
L 374.848032 295.686837 
L 375.722013 295.554813 
L 381.839875 295.455796 
L 386.209776 295.224754 
L 387.083756 295.191749 
L 387.957737 295.092731 
L 390.142687 294.993713 
L 392.327638 294.927701 
L 394.512589 294.828684 
L 396.69754 294.762672 
L 400.630451 294.663654 
L 403.252392 294.564637 
L 409.370254 294.465619 
L 414.177145 294.201572 
L 415.925106 294.13556 
L 417.236076 294.036542 
L 423.353939 293.937525 
L 425.975879 293.838507 
L 433.841702 293.739489 
L 435.589663 293.706483 
L 440.833544 293.640472 
L 441.707525 293.57446 
L 447.825387 293.475442 
L 449.573347 293.442436 
L 460.935091 293.343418 
L 463.557032 293.244401 
L 481.910618 293.145383 
L 484.095569 293.079371 
L 495.457313 293.01336 
L 496.331293 292.947348 
L 498.516244 292.881336 
L 499.827214 292.749312 
L 502.449155 292.650295 
L 505.508086 292.518271 
L 509.440997 292.419253 
L 511.625948 292.353242 
L 514.684879 292.254224 
L 518.1808 292.089194 
L 520.365751 291.990177 
L 522.113711 291.957171 
L 526.046623 291.858153 
L 527.794583 291.825147 
L 533.475455 291.72613 
L 535.223416 291.693124 
L 537.408367 291.594106 
L 540.030307 291.495088 
L 543.089238 291.429077 
L 543.963219 291.363065 
L 554.450982 291.264047 
L 560.131854 290.933988 
L 562.316805 290.867976 
L 563.190785 290.768959 
L 564.064765 290.702947 
L 567.560687 290.603929 
L 570.182627 290.504912 
L 574.552529 290.405894 
L 576.73748 290.174853 
L 581.107381 290.075835 
L 581.981361 289.976817 
L 586.351263 289.8778 
L 588.536214 289.811788 
L 593.343105 289.778782 
L 594.217085 289.679764 
L 599.023977 289.580747 
L 599.897957 289.514735 
L 609.511741 289.415717 
L 612.133681 289.316699 
L 618.688534 289.217682 
L 620.436494 289.184676 
L 624.369405 289.118664 
L 625.243386 289.019646 
L 630.924258 288.920629 
L 633.109208 288.854617 
L 640.975031 288.755599 
L 642.286001 288.656582 
L 643.596972 288.557564 
L 644.907942 288.458546 
L 651.462794 288.359528 
L 654.084735 288.260511 
L 665.883469 288.161493 
L 669.816381 287.963458 
L 675.060262 287.86444 
L 675.934243 287.798428 
L 682.489095 287.732417 
L 683.363075 287.666405 
L 688.169967 287.567387 
L 689.917927 287.534381 
L 696.035789 287.435363 
L 698.65773 287.336346 
L 706.086563 287.237328 
L 707.834523 287.204322 
L 711.767435 287.105305 
L 715.263356 286.940275 
L 720.070247 286.841257 
L 723.129178 286.709234 
L 727.06209 286.610216 
L 727.93607 286.544204 
L 736.675873 286.445187 
L 738.860824 286.379175 
L 741.482764 286.280157 
L 744.104705 286.181139 
L 747.163636 286.115128 
L 747.163636 286.115128 
" clip-path="url(#p27c2dcef49)" style="fill: none; stroke: #ff7f0e; stroke-width: 1.5; stroke-linecap: square"/>
   </g>
   <g id="patch_3">
    <path d="M 108 320.4 
L 108 43.2 
" style="fill: none; stroke: #a9a9a9; stroke-width: 0.8; stroke-linejoin: miter; stroke-linecap: square"/>
   </g>
   <g id="patch_4">
    <path d="M 777.6 320.4 
L 777.6 43.2 
" style="fill: none"/>
   </g>
   <g id="patch_5">
    <path d="M 108 320.4 
L 777.6 320.4 
" style="fill: none; stroke: #a9a9a9; stroke-width: 0.8; stroke-linejoin: miter; stroke-linecap: square"/>
   </g>
   <g id="patch_6">
    <path d="M 108 43.2 
L 777.6 43.2 
" style="fill: none"/>
   </g>
   <g id="text_19">
    <!-- get_subscribe history -->
    <g style="fill: #a9a9a9" transform="translate(378.6075 37.2) scale(0.12 -0.12)">
     <defs>
      <path id="DejaVuSans-67" d="M 2906 1791 
Q 2906 2416 2648 2759 
Q 2391 3103 1925 3103 
Q 1463 3103 1205 2759 
Q 947 2416 947 1791 
Q 947 1169 1205 825 
Q 1463 481 1925 481 
Q 2391 481 2648 825 
Q 2906 1169 2906 1791 
z
M 3481 434 
Q 3481 -459 3084 -895 
Q 2688 -1331 1869 -1331 
Q 1566 -1331 1297 -1286 
Q 1028 -1241 775 -1147 
L 775 -588 
Q 1028 -725 1275 -790 
Q 1522 -856 1778 -856 
Q 2344 -856 2625 -561 
Q 2906 -266 2906 331 
L 2906 616 
Q 2728 306 2450 153 
Q 2172 0 1784 0 
Q 1141 0 747 490 
Q 353 981 353 1791 
Q 353 2603 747 3093 
Q 1141 3584 1784 3584 
Q 2172 3584 2450 3431 
Q 2728 3278 2906 2969 
L 2906 3500 
L 3481 3500 
L 3481 434 
z
" transform="scale(0.015625)"/>
      <path id="DejaVuSans-65" d="M 3597 1894 
L 3597 1613 
L 953 1613 
Q 991 1019 1311 708 
Q 1631 397 2203 397 
Q 2534 397 2845 478 
Q 3156 559 3463 722 
L 3463 178 
Q 3153 47 2828 -22 
Q 2503 -91 2169 -91 
Q 1331 -91 842 396 
Q 353 884 353 1716 
Q 353 2575 817 3079 
Q 1281 3584 2069 3584 
Q 2775 3584 3186 3129 
Q 3597 2675 3597 1894 
z
M 3022 2063 
Q 3016 2534 2758 2815 
Q 2500 3097 2075 3097 
Q 1594 3097 1305 2825 
Q 1016 2553 972 2059 
L 3022 2063 
z
" transform="scale(0.015625)"/>
      <path id="DejaVuSans-74" d="M 1172 4494 
L 1172 3500 
L 2356 3500 
L 2356 3053 
L 1172 3053 
L 1172 1153 
Q 1172 725 1289 603 
Q 1406 481 1766 481 
L 2356 481 
L 2356 0 
L 1766 0 
Q 1100 0 847 248 
Q 594 497 594 1153 
L 594 3053 
L 172 3053 
L 172 3500 
L 594 3500 
L 594 4494 
L 1172 4494 
z
" transform="scale(0.015625)"/>
      <path id="DejaVuSans-5f" d="M 3263 -1063 
L 3263 -1509 
L -63 -1509 
L -63 -1063 
L 3263 -1063 
z
" transform="scale(0.015625)"/>
      <path id="DejaVuSans-73" d="M 2834 3397 
L 2834 2853 
Q 2591 2978 2328 3040 
Q 2066 3103 1784 3103 
Q 1356 3103 1142 2972 
Q 928 2841 928 2578 
Q 928 2378 1081 2264 
Q 1234 2150 1697 2047 
L 1894 2003 
Q 2506 1872 2764 1633 
Q 3022 1394 3022 966 
Q 3022 478 2636 193 
Q 2250 -91 1575 -91 
Q 1294 -91 989 -36 
Q 684 19 347 128 
L 347 722 
Q 666 556 975 473 
Q 1284 391 1588 391 
Q 1994 391 2212 530 
Q 2431 669 2431 922 
Q 2431 1156 2273 1281 
Q 2116 1406 1581 1522 
L 1381 1569 
Q 847 1681 609 1914 
Q 372 2147 372 2553 
Q 372 3047 722 3315 
Q 1072 3584 1716 3584 
Q 2034 3584 2315 3537 
Q 2597 3491 2834 3397 
z
" transform="scale(0.015625)"/>
      <path id="DejaVuSans-75" d="M 544 1381 
L 544 3500 
L 1119 3500 
L 1119 1403 
Q 1119 906 1312 657 
Q 1506 409 1894 409 
Q 2359 409 2629 706 
Q 2900 1003 2900 1516 
L 2900 3500 
L 3475 3500 
L 3475 0 
L 2900 0 
L 2900 538 
Q 2691 219 2414 64 
Q 2138 -91 1772 -91 
Q 1169 -91 856 284 
Q 544 659 544 1381 
z
M 1991 3584 
L 1991 3584 
z
" transform="scale(0.015625)"/>
      <path id="DejaVuSans-62" d="M 3116 1747 
Q 3116 2381 2855 2742 
Q 2594 3103 2138 3103 
Q 1681 3103 1420 2742 
Q 1159 2381 1159 1747 
Q 1159 1113 1420 752 
Q 1681 391 2138 391 
Q 2594 391 2855 752 
Q 3116 1113 3116 1747 
z
M 1159 2969 
Q 1341 3281 1617 3432 
Q 1894 3584 2278 3584 
Q 2916 3584 3314 3078 
Q 3713 2572 3713 1747 
Q 3713 922 3314 415 
Q 2916 -91 2278 -91 
Q 1894 -91 1617 61 
Q 1341 213 1159 525 
L 1159 0 
L 581 0 
L 581 4863 
L 1159 4863 
L 1159 2969 
z
" transform="scale(0.015625)"/>
      <path id="DejaVuSans-63" d="M 3122 3366 
L 3122 2828 
Q 2878 2963 2633 3030 
Q 2388 3097 2138 3097 
Q 1578 3097 1268 2742 
Q 959 2388 959 1747 
Q 959 1106 1268 751 
Q 1578 397 2138 397 
Q 2388 397 2633 464 
Q 2878 531 3122 666 
L 3122 134 
Q 2881 22 2623 -34 
Q 2366 -91 2075 -91 
Q 1284 -91 818 406 
Q 353 903 353 1747 
Q 353 2603 823 3093 
Q 1294 3584 2113 3584 
Q 2378 3584 2631 3529 
Q 2884 3475 3122 3366 
z
" transform="scale(0.015625)"/>
      <path id="DejaVuSans-72" d="M 2631 2963 
Q 2534 3019 2420 3045 
Q 2306 3072 2169 3072 
Q 1681 3072 1420 2755 
Q 1159 2438 1159 1844 
L 1159 0 
L 581 0 
L 581 3500 
L 1159 3500 
L 1159 2956 
Q 1341 3275 1631 3429 
Q 1922 3584 2338 3584 
Q 2397 3584 2469 3576 
Q 2541 3569 2628 3553 
L 2631 2963 
z
" transform="scale(0.015625)"/>
      <path id="DejaVuSans-69" d="M 603 3500 
L 1178 3500 
L 1178 0 
L 603 0 
L 603 3500 
z
M 603 4863 
L 1178 4863 
L 1178 4134 
L 603 4134 
L 603 4863 
z
" transform="scale(0.015625)"/>
      <path id="DejaVuSans-20" transform="scale(0.015625)"/>
      <path id="DejaVuSans-68" d="M 3513 2113 
L 3513 0 
L 2938 0 
L 2938 2094 
Q 2938 2591 2744 2837 
Q 2550 3084 2163 3084 
Q 1697 3084 1428 2787 
Q 1159 2491 1159 1978 
L 1159 0 
L 581 0 
L 581 4863 
L 1159 4863 
L 1159 2956 
Q 1366 3272 1645 3428 
Q 1925 3584 2291 3584 
Q 2894 3584 3203 3211 
Q 3513 2838 3513 2113 
z
" transform="scale(0.015625)"/>
      <path id="DejaVuSans-6f" d="M 1959 3097 
Q 1497 3097 1228 2736 
Q 959 2375 959 1747 
Q 959 1119 1226 758 
Q 1494 397 1959 397 
Q 2419 397 2687 759 
Q 2956 1122 2956 1747 
Q 2956 2369 2687 2733 
Q 2419 3097 1959 3097 
z
M 1959 3584 
Q 2709 3584 3137 3096 
Q 3566 2609 3566 1747 
Q 3566 888 3137 398 
Q 2709 -91 1959 -91 
Q 1206 -91 779 398 
Q 353 888 353 1747 
Q 353 2609 779 3096 
Q 1206 3584 1959 3584 
z
" transform="scale(0.015625)"/>
      <path id="DejaVuSans-79" d="M 2059 -325 
Q 1816 -950 1584 -1140 
Q 1353 -1331 966 -1331 
L 506 -1331 
L 506 -850 
L 844 -850 
Q 1081 -850 1212 -737 
Q 1344 -625 1503 -206 
L 1606 56 
L 191 3500 
L 800 3500 
L 1894 763 
L 2988 3500 
L 3597 3500 
L 2059 -325 
z
" transform="scale(0.015625)"/>
     </defs>
     <use xlink:href="#DejaVuSans-67"/>
     <use xlink:href="#DejaVuSans-65" transform="translate(63.476562 0)"/>
     <use xlink:href="#DejaVuSans-74" transform="translate(125 0)"/>
     <use xlink:href="#DejaVuSans-5f" transform="translate(164.208984 0)"/>
     <use xlink:href="#DejaVuSans-73" transform="translate(214.208984 0)"/>
     <use xlink:href="#DejaVuSans-75" transform="translate(266.308594 0)"/>
     <use xlink:href="#DejaVuSans-62" transform="translate(329.6875 0)"/>
     <use xlink:href="#DejaVuSans-73" transform="translate(393.164062 0)"/>
     <use xlink:href="#DejaVuSans-63" transform="translate(445.263672 0)"/>
     <use xlink:href="#DejaVuSans-72" transform="translate(500.244141 0)"/>
     <use xlink:href="#DejaVuSans-69" transform="translate(541.357422 0)"/>
     <use xlink:href="#DejaVuSans-62" transform="translate(569.140625 0)"/>
     <use xlink:href="#DejaVuSans-65" transform="translate(632.617188 0)"/>
     <use xlink:href="#DejaVuSans-20" transform="translate(694.140625 0)"/>
     <use xlink:href="#DejaVuSans-68" transform="translate(725.927734 0)"/>
     <use xlink:href="#DejaVuSans-69" transform="translate(789.306641 0)"/>
     <use xlink:href="#DejaVuSans-73" transform="translate(817.089844 0)"/>
     <use xlink:href="#DejaVuSans-74" transform="translate(869.189453 0)"/>
     <use xlink:href="#DejaVuSans-6f" transform="translate(908.398438 0)"/>
     <use xlink:href="#DejaVuSans-72" transform="translate(969.580078 0)"/>
     <use xlink:href="#DejaVuSans-79" transform="translate(1010.693359 0)"/>
    </g>
   </g>
   <g id="legend_1">
    <g id="line2d_39">
     <path d="M 815.08 328.498438 
L 825.08 328.498438 
L 835.08 328.498438 
" style="fill: none; stroke: #1f77b4; stroke-width: 1.5; stroke-linecap: square"/>
    </g>
    <g id="text_20">
     <!-- star -->
     <g style="fill: #a9a9a9" transform="translate(843.08 331.998438) scale(0.1 -0.1)">
      <defs>
       <path id="DejaVuSans-61" d="M 2194 1759 
Q 1497 1759 1228 1600 
Q 959 1441 959 1056 
Q 959 750 1161 570 
Q 1363 391 1709 391 
Q 2188 391 2477 730 
Q 2766 1069 2766 1631 
L 2766 1759 
L 2194 1759 
z
M 3341 1997 
L 3341 0 
L 2766 0 
L 2766 531 
Q 2569 213 2275 61 
Q 1981 -91 1556 -91 
Q 1019 -91 701 211 
Q 384 513 384 1019 
Q 384 1609 779 1909 
Q 1175 2209 1959 2209 
L 2766 2209 
L 2766 2266 
Q 2766 2663 2505 2880 
Q 2244 3097 1772 3097 
Q 1472 3097 1187 3025 
Q 903 2953 641 2809 
L 641 3341 
Q 956 3463 1253 3523 
Q 1550 3584 1831 3584 
Q 2591 3584 2966 3190 
Q 3341 2797 3341 1997 
z
" transform="scale(0.015625)"/>
      </defs>
      <use xlink:href="#DejaVuSans-73"/>
      <use xlink:href="#DejaVuSans-74" transform="translate(52.099609 0)"/>
      <use xlink:href="#DejaVuSans-61" transform="translate(91.308594 0)"/>
      <use xlink:href="#DejaVuSans-72" transform="translate(152.587891 0)"/>
     </g>
    </g>
    <g id="line2d_40">
     <path d="M 815.08 343.176562 
L 825.08 343.176562 
L 835.08 343.176562 
" style="fill: none; stroke: #ff7f0e; stroke-width: 1.5; stroke-linecap: square"/>
    </g>
    <g id="text_21">
     <!-- fork -->
     <g style="fill: #a9a9a9" transform="translate(843.08 346.676562) scale(0.1 -0.1)">
      <defs>
       <path id="DejaVuSans-66" d="M 2375 4863 
L 2375 4384 
L 1825 4384 
Q 1516 4384 1395 4259 
Q 1275 4134 1275 3809 
L 1275 3500 
L 2222 3500 
L 2222 3053 
L 1275 3053 
L 1275 0 
L 697 0 
L 697 3053 
L 147 3053 
L 147 3500 
L 697 3500 
L 697 3744 
Q 697 4328 969 4595 
Q 1241 4863 1831 4863 
L 2375 4863 
z
" transform="scale(0.015625)"/>
       <path id="DejaVuSans-6b" d="M 581 4863 
L 1159 4863 
L 1159 1991 
L 2875 3500 
L 3609 3500 
L 1753 1863 
L 3688 0 
L 2938 0 
L 1159 1709 
L 1159 0 
L 581 0 
L 581 4863 
z
" transform="scale(0.015625)"/>
      </defs>
      <use xlink:href="#DejaVuSans-66"/>
      <use xlink:href="#DejaVuSans-6f" transform="translate(35.205078 0)"/>
      <use xlink:href="#DejaVuSans-72" transform="translate(96.386719 0)"/>
      <use xlink:href="#DejaVuSans-6b" transform="translate(137.5 0)"/>
     </g>
    </g>
   </g>
  </g>
 </g>
 <defs>
  <clipPath id="p27c2dcef49">
   <rect x="108" y="43.2" width="669.6" height="277.2"/>
  </clipPath>
 </defs>
</svg>
