<?xml version="1.0" encoding="utf-8" standalone="no"?>
<!DOCTYPE svg PUBLIC "-//W3C//DTD SVG 1.1//EN"
  "http://www.w3.org/Graphics/SVG/1.1/DTD/svg11.dtd">
<svg xmlns:xlink="http://www.w3.org/1999/xlink" width="864pt" height="360pt" viewBox="0 0 864 360" xmlns="http://www.w3.org/2000/svg" version="1.1">
 <metadata>
  <rdf:RDF xmlns:dc="http://purl.org/dc/elements/1.1/" xmlns:cc="http://creativecommons.org/ns#" xmlns:rdf="http://www.w3.org/1999/02/22-rdf-syntax-ns#">
   <cc:Work>
    <dc:type rdf:resource="http://purl.org/dc/dcmitype/StillImage"/>
    <dc:date>2025-04-12T08:14:39.264965</dc:date>
    <dc:format>image/svg+xml</dc:format>
    <dc:creator>
     <cc:Agent>
      <dc:title>Matplotlib v3.10.1, https://matplotlib.org/</dc:title>
     </cc:Agent>
    </dc:creator>
   </cc:Work>
  </rdf:RDF>
 </metadata>
 <defs>
  <style type="text/css">*{stroke-linejoin: round; stroke-linecap: butt}</style>
 </defs>
 <g id="figure_1">
  <g id="patch_1">
   <path d="M 0 360 
L 864 360 
L 864 0 
L 0 0 
L 0 360 
z
" style="fill: none; opacity: 0"/>
  </g>
  <g id="axes_1">
   <g id="patch_2">
    <path d="M 108 320.4 
L 777.6 320.4 
L 777.6 43.2 
L 108 43.2 
L 108 320.4 
z
" style="fill: none; opacity: 0"/>
   </g>
   <g id="matplotlib.axis_1">
    <g id="xtick_1">
     <g id="line2d_1">
      <path d="M 128.12655 320.4 
L 128.12655 43.2 
" clip-path="url(#p34893c6b9a)" style="fill: none; stroke-dasharray: 5.12,1.28,0.8,1.28; stroke-dashoffset: 0; stroke: #b0b0b0; stroke-width: 0.8"/>
     </g>
     <g id="line2d_2">
      <defs>
       <path id="m37d7a8e363" d="M 0 0 
L 0 3.5 
" style="stroke: #a9a9a9; stroke-width: 0.8"/>
      </defs>
      <g>
       <use xlink:href="#m37d7a8e363" x="128.12655" y="320.4" style="fill: #a9a9a9; stroke: #a9a9a9; stroke-width: 0.8"/>
      </g>
     </g>
     <g id="text_1">
      <!-- 2021-07 -->
      <g style="fill: #a9a9a9" transform="translate(107.235143 334.998438) scale(0.1 -0.1)">
       <defs>
        <path id="DejaVuSans-32" d="M 1228 531 
L 3431 531 
L 3431 0 
L 469 0 
L 469 531 
Q 828 903 1448 1529 
Q 2069 2156 2228 2338 
Q 2531 2678 2651 2914 
Q 2772 3150 2772 3378 
Q 2772 3750 2511 3984 
Q 2250 4219 1831 4219 
Q 1534 4219 1204 4116 
Q 875 4013 500 3803 
L 500 4441 
Q 881 4594 1212 4672 
Q 1544 4750 1819 4750 
Q 2544 4750 2975 4387 
Q 3406 4025 3406 3419 
Q 3406 3131 3298 2873 
Q 3191 2616 2906 2266 
Q 2828 2175 2409 1742 
Q 1991 1309 1228 531 
z
" transform="scale(0.015625)"/>
        <path id="DejaVuSans-30" d="M 2034 4250 
Q 1547 4250 1301 3770 
Q 1056 3291 1056 2328 
Q 1056 1369 1301 889 
Q 1547 409 2034 409 
Q 2525 409 2770 889 
Q 3016 1369 3016 2328 
Q 3016 3291 2770 3770 
Q 2525 4250 2034 4250 
z
M 2034 4750 
Q 2819 4750 3233 4129 
Q 3647 3509 3647 2328 
Q 3647 1150 3233 529 
Q 2819 -91 2034 -91 
Q 1250 -91 836 529 
Q 422 1150 422 2328 
Q 422 3509 836 4129 
Q 1250 4750 2034 4750 
z
" transform="scale(0.015625)"/>
        <path id="DejaVuSans-31" d="M 794 531 
L 1825 531 
L 1825 4091 
L 703 3866 
L 703 4441 
L 1819 4666 
L 2450 4666 
L 2450 531 
L 3481 531 
L 3481 0 
L 794 0 
L 794 531 
z
" transform="scale(0.015625)"/>
        <path id="DejaVuSans-2d" d="M 313 2009 
L 1997 2009 
L 1997 1497 
L 313 1497 
L 313 2009 
z
" transform="scale(0.015625)"/>
        <path id="DejaVuSans-37" d="M 525 4666 
L 3525 4666 
L 3525 4397 
L 1831 0 
L 1172 0 
L 2766 4134 
L 525 4134 
L 525 4666 
z
" transform="scale(0.015625)"/>
       </defs>
       <use xlink:href="#DejaVuSans-32"/>
       <use xlink:href="#DejaVuSans-30" transform="translate(63.623047 0)"/>
       <use xlink:href="#DejaVuSans-32" transform="translate(127.246094 0)"/>
       <use xlink:href="#DejaVuSans-31" transform="translate(190.869141 0)"/>
       <use xlink:href="#DejaVuSans-2d" transform="translate(254.492188 0)"/>
       <use xlink:href="#DejaVuSans-30" transform="translate(290.576172 0)"/>
       <use xlink:href="#DejaVuSans-37" transform="translate(354.199219 0)"/>
      </g>
     </g>
    </g>
    <g id="xtick_2">
     <g id="line2d_3">
      <path d="M 210.605061 320.4 
L 210.605061 43.2 
" clip-path="url(#p34893c6b9a)" style="fill: none; stroke-dasharray: 5.12,1.28,0.8,1.28; stroke-dashoffset: 0; stroke: #b0b0b0; stroke-width: 0.8"/>
     </g>
     <g id="line2d_4">
      <g>
       <use xlink:href="#m37d7a8e363" x="210.605061" y="320.4" style="fill: #a9a9a9; stroke: #a9a9a9; stroke-width: 0.8"/>
      </g>
     </g>
     <g id="text_2">
      <!-- 2022-01 -->
      <g style="fill: #a9a9a9" transform="translate(189.713655 334.998438) scale(0.1 -0.1)">
       <use xlink:href="#DejaVuSans-32"/>
       <use xlink:href="#DejaVuSans-30" transform="translate(63.623047 0)"/>
       <use xlink:href="#DejaVuSans-32" transform="translate(127.246094 0)"/>
       <use xlink:href="#DejaVuSans-32" transform="translate(190.869141 0)"/>
       <use xlink:href="#DejaVuSans-2d" transform="translate(254.492188 0)"/>
       <use xlink:href="#DejaVuSans-30" transform="translate(290.576172 0)"/>
       <use xlink:href="#DejaVuSans-31" transform="translate(354.199219 0)"/>
      </g>
     </g>
    </g>
    <g id="xtick_3">
     <g id="line2d_5">
      <path d="M 291.738814 320.4 
L 291.738814 43.2 
" clip-path="url(#p34893c6b9a)" style="fill: none; stroke-dasharray: 5.12,1.28,0.8,1.28; stroke-dashoffset: 0; stroke: #b0b0b0; stroke-width: 0.8"/>
     </g>
     <g id="line2d_6">
      <g>
       <use xlink:href="#m37d7a8e363" x="291.738814" y="320.4" style="fill: #a9a9a9; stroke: #a9a9a9; stroke-width: 0.8"/>
      </g>
     </g>
     <g id="text_3">
      <!-- 2022-07 -->
      <g style="fill: #a9a9a9" transform="translate(270.847408 334.998438) scale(0.1 -0.1)">
       <use xlink:href="#DejaVuSans-32"/>
       <use xlink:href="#DejaVuSans-30" transform="translate(63.623047 0)"/>
       <use xlink:href="#DejaVuSans-32" transform="translate(127.246094 0)"/>
       <use xlink:href="#DejaVuSans-32" transform="translate(190.869141 0)"/>
       <use xlink:href="#DejaVuSans-2d" transform="translate(254.492188 0)"/>
       <use xlink:href="#DejaVuSans-30" transform="translate(290.576172 0)"/>
       <use xlink:href="#DejaVuSans-37" transform="translate(354.199219 0)"/>
      </g>
     </g>
    </g>
    <g id="xtick_4">
     <g id="line2d_7">
      <path d="M 374.217325 320.4 
L 374.217325 43.2 
" clip-path="url(#p34893c6b9a)" style="fill: none; stroke-dasharray: 5.12,1.28,0.8,1.28; stroke-dashoffset: 0; stroke: #b0b0b0; stroke-width: 0.8"/>
     </g>
     <g id="line2d_8">
      <g>
       <use xlink:href="#m37d7a8e363" x="374.217325" y="320.4" style="fill: #a9a9a9; stroke: #a9a9a9; stroke-width: 0.8"/>
      </g>
     </g>
     <g id="text_4">
      <!-- 2023-01 -->
      <g style="fill: #a9a9a9" transform="translate(353.325919 334.998438) scale(0.1 -0.1)">
       <defs>
        <path id="DejaVuSans-33" d="M 2597 2516 
Q 3050 2419 3304 2112 
Q 3559 1806 3559 1356 
Q 3559 666 3084 287 
Q 2609 -91 1734 -91 
Q 1441 -91 1130 -33 
Q 819 25 488 141 
L 488 750 
Q 750 597 1062 519 
Q 1375 441 1716 441 
Q 2309 441 2620 675 
Q 2931 909 2931 1356 
Q 2931 1769 2642 2001 
Q 2353 2234 1838 2234 
L 1294 2234 
L 1294 2753 
L 1863 2753 
Q 2328 2753 2575 2939 
Q 2822 3125 2822 3475 
Q 2822 3834 2567 4026 
Q 2313 4219 1838 4219 
Q 1578 4219 1281 4162 
Q 984 4106 628 3988 
L 628 4550 
Q 988 4650 1302 4700 
Q 1616 4750 1894 4750 
Q 2613 4750 3031 4423 
Q 3450 4097 3450 3541 
Q 3450 3153 3228 2886 
Q 3006 2619 2597 2516 
z
" transform="scale(0.015625)"/>
       </defs>
       <use xlink:href="#DejaVuSans-32"/>
       <use xlink:href="#DejaVuSans-30" transform="translate(63.623047 0)"/>
       <use xlink:href="#DejaVuSans-32" transform="translate(127.246094 0)"/>
       <use xlink:href="#DejaVuSans-33" transform="translate(190.869141 0)"/>
       <use xlink:href="#DejaVuSans-2d" transform="translate(254.492188 0)"/>
       <use xlink:href="#DejaVuSans-30" transform="translate(290.576172 0)"/>
       <use xlink:href="#DejaVuSans-31" transform="translate(354.199219 0)"/>
      </g>
     </g>
    </g>
    <g id="xtick_5">
     <g id="line2d_9">
      <path d="M 455.351078 320.4 
L 455.351078 43.2 
" clip-path="url(#p34893c6b9a)" style="fill: none; stroke-dasharray: 5.12,1.28,0.8,1.28; stroke-dashoffset: 0; stroke: #b0b0b0; stroke-width: 0.8"/>
     </g>
     <g id="line2d_10">
      <g>
       <use xlink:href="#m37d7a8e363" x="455.351078" y="320.4" style="fill: #a9a9a9; stroke: #a9a9a9; stroke-width: 0.8"/>
      </g>
     </g>
     <g id="text_5">
      <!-- 2023-07 -->
      <g style="fill: #a9a9a9" transform="translate(434.459672 334.998438) scale(0.1 -0.1)">
       <use xlink:href="#DejaVuSans-32"/>
       <use xlink:href="#DejaVuSans-30" transform="translate(63.623047 0)"/>
       <use xlink:href="#DejaVuSans-32" transform="translate(127.246094 0)"/>
       <use xlink:href="#DejaVuSans-33" transform="translate(190.869141 0)"/>
       <use xlink:href="#DejaVuSans-2d" transform="translate(254.492188 0)"/>
       <use xlink:href="#DejaVuSans-30" transform="translate(290.576172 0)"/>
       <use xlink:href="#DejaVuSans-37" transform="translate(354.199219 0)"/>
      </g>
     </g>
    </g>
    <g id="xtick_6">
     <g id="line2d_11">
      <path d="M 537.829589 320.4 
L 537.829589 43.2 
" clip-path="url(#p34893c6b9a)" style="fill: none; stroke-dasharray: 5.12,1.28,0.8,1.28; stroke-dashoffset: 0; stroke: #b0b0b0; stroke-width: 0.8"/>
     </g>
     <g id="line2d_12">
      <g>
       <use xlink:href="#m37d7a8e363" x="537.829589" y="320.4" style="fill: #a9a9a9; stroke: #a9a9a9; stroke-width: 0.8"/>
      </g>
     </g>
     <g id="text_6">
      <!-- 2024-01 -->
      <g style="fill: #a9a9a9" transform="translate(516.938183 334.998438) scale(0.1 -0.1)">
       <defs>
        <path id="DejaVuSans-34" d="M 2419 4116 
L 825 1625 
L 2419 1625 
L 2419 4116 
z
M 2253 4666 
L 3047 4666 
L 3047 1625 
L 3713 1625 
L 3713 1100 
L 3047 1100 
L 3047 0 
L 2419 0 
L 2419 1100 
L 313 1100 
L 313 1709 
L 2253 4666 
z
" transform="scale(0.015625)"/>
       </defs>
       <use xlink:href="#DejaVuSans-32"/>
       <use xlink:href="#DejaVuSans-30" transform="translate(63.623047 0)"/>
       <use xlink:href="#DejaVuSans-32" transform="translate(127.246094 0)"/>
       <use xlink:href="#DejaVuSans-34" transform="translate(190.869141 0)"/>
       <use xlink:href="#DejaVuSans-2d" transform="translate(254.492188 0)"/>
       <use xlink:href="#DejaVuSans-30" transform="translate(290.576172 0)"/>
       <use xlink:href="#DejaVuSans-31" transform="translate(354.199219 0)"/>
      </g>
     </g>
    </g>
    <g id="xtick_7">
     <g id="line2d_13">
      <path d="M 619.411595 320.4 
L 619.411595 43.2 
" clip-path="url(#p34893c6b9a)" style="fill: none; stroke-dasharray: 5.12,1.28,0.8,1.28; stroke-dashoffset: 0; stroke: #b0b0b0; stroke-width: 0.8"/>
     </g>
     <g id="line2d_14">
      <g>
       <use xlink:href="#m37d7a8e363" x="619.411595" y="320.4" style="fill: #a9a9a9; stroke: #a9a9a9; stroke-width: 0.8"/>
      </g>
     </g>
     <g id="text_7">
      <!-- 2024-07 -->
      <g style="fill: #a9a9a9" transform="translate(598.520188 334.998438) scale(0.1 -0.1)">
       <use xlink:href="#DejaVuSans-32"/>
       <use xlink:href="#DejaVuSans-30" transform="translate(63.623047 0)"/>
       <use xlink:href="#DejaVuSans-32" transform="translate(127.246094 0)"/>
       <use xlink:href="#DejaVuSans-34" transform="translate(190.869141 0)"/>
       <use xlink:href="#DejaVuSans-2d" transform="translate(254.492188 0)"/>
       <use xlink:href="#DejaVuSans-30" transform="translate(290.576172 0)"/>
       <use xlink:href="#DejaVuSans-37" transform="translate(354.199219 0)"/>
      </g>
     </g>
    </g>
    <g id="xtick_8">
     <g id="line2d_15">
      <path d="M 701.890106 320.4 
L 701.890106 43.2 
" clip-path="url(#p34893c6b9a)" style="fill: none; stroke-dasharray: 5.12,1.28,0.8,1.28; stroke-dashoffset: 0; stroke: #b0b0b0; stroke-width: 0.8"/>
     </g>
     <g id="line2d_16">
      <g>
       <use xlink:href="#m37d7a8e363" x="701.890106" y="320.4" style="fill: #a9a9a9; stroke: #a9a9a9; stroke-width: 0.8"/>
      </g>
     </g>
     <g id="text_8">
      <!-- 2025-01 -->
      <g style="fill: #a9a9a9" transform="translate(680.9987 334.998438) scale(0.1 -0.1)">
       <defs>
        <path id="DejaVuSans-35" d="M 691 4666 
L 3169 4666 
L 3169 4134 
L 1269 4134 
L 1269 2991 
Q 1406 3038 1543 3061 
Q 1681 3084 1819 3084 
Q 2600 3084 3056 2656 
Q 3513 2228 3513 1497 
Q 3513 744 3044 326 
Q 2575 -91 1722 -91 
Q 1428 -91 1123 -41 
Q 819 9 494 109 
L 494 744 
Q 775 591 1075 516 
Q 1375 441 1709 441 
Q 2250 441 2565 725 
Q 2881 1009 2881 1497 
Q 2881 1984 2565 2268 
Q 2250 2553 1709 2553 
Q 1456 2553 1204 2497 
Q 953 2441 691 2322 
L 691 4666 
z
" transform="scale(0.015625)"/>
       </defs>
       <use xlink:href="#DejaVuSans-32"/>
       <use xlink:href="#DejaVuSans-30" transform="translate(63.623047 0)"/>
       <use xlink:href="#DejaVuSans-32" transform="translate(127.246094 0)"/>
       <use xlink:href="#DejaVuSans-35" transform="translate(190.869141 0)"/>
       <use xlink:href="#DejaVuSans-2d" transform="translate(254.492188 0)"/>
       <use xlink:href="#DejaVuSans-30" transform="translate(290.576172 0)"/>
       <use xlink:href="#DejaVuSans-31" transform="translate(354.199219 0)"/>
      </g>
     </g>
    </g>
   </g>
   <g id="matplotlib.axis_2">
    <g id="ytick_1">
     <g id="line2d_17">
      <path d="M 108 307.83352 
L 777.6 307.83352 
" clip-path="url(#p34893c6b9a)" style="fill: none; stroke-dasharray: 5.12,1.28,0.8,1.28; stroke-dashoffset: 0; stroke: #b0b0b0; stroke-width: 0.8"/>
     </g>
     <g id="line2d_18">
      <defs>
       <path id="mc30151c52f" d="M 0 0 
L -3.5 0 
" style="stroke: #a9a9a9; stroke-width: 0.8"/>
      </defs>
      <g>
       <use xlink:href="#mc30151c52f" x="108" y="307.83352" style="fill: #a9a9a9; stroke: #a9a9a9; stroke-width: 0.8"/>
      </g>
     </g>
     <g id="text_9">
      <!-- 0 -->
      <g style="fill: #a9a9a9" transform="translate(94.6375 311.632738) scale(0.1 -0.1)">
       <use xlink:href="#DejaVuSans-30"/>
      </g>
     </g>
    </g>
    <g id="ytick_2">
     <g id="line2d_19">
      <path d="M 108 274.313966 
L 777.6 274.313966 
" clip-path="url(#p34893c6b9a)" style="fill: none; stroke-dasharray: 5.12,1.28,0.8,1.28; stroke-dashoffset: 0; stroke: #b0b0b0; stroke-width: 0.8"/>
     </g>
     <g id="line2d_20">
      <g>
       <use xlink:href="#mc30151c52f" x="108" y="274.313966" style="fill: #a9a9a9; stroke: #a9a9a9; stroke-width: 0.8"/>
      </g>
     </g>
     <g id="text_10">
      <!-- 1000 -->
      <g style="fill: #a9a9a9" transform="translate(75.55 278.113185) scale(0.1 -0.1)">
       <use xlink:href="#DejaVuSans-31"/>
       <use xlink:href="#DejaVuSans-30" transform="translate(63.623047 0)"/>
       <use xlink:href="#DejaVuSans-30" transform="translate(127.246094 0)"/>
       <use xlink:href="#DejaVuSans-30" transform="translate(190.869141 0)"/>
      </g>
     </g>
    </g>
    <g id="ytick_3">
     <g id="line2d_21">
      <path d="M 108 240.794413 
L 777.6 240.794413 
" clip-path="url(#p34893c6b9a)" style="fill: none; stroke-dasharray: 5.12,1.28,0.8,1.28; stroke-dashoffset: 0; stroke: #b0b0b0; stroke-width: 0.8"/>
     </g>
     <g id="line2d_22">
      <g>
       <use xlink:href="#mc30151c52f" x="108" y="240.794413" style="fill: #a9a9a9; stroke: #a9a9a9; stroke-width: 0.8"/>
      </g>
     </g>
     <g id="text_11">
      <!-- 2000 -->
      <g style="fill: #a9a9a9" transform="translate(75.55 244.593632) scale(0.1 -0.1)">
       <use xlink:href="#DejaVuSans-32"/>
       <use xlink:href="#DejaVuSans-30" transform="translate(63.623047 0)"/>
       <use xlink:href="#DejaVuSans-30" transform="translate(127.246094 0)"/>
       <use xlink:href="#DejaVuSans-30" transform="translate(190.869141 0)"/>
      </g>
     </g>
    </g>
    <g id="ytick_4">
     <g id="line2d_23">
      <path d="M 108 207.27486 
L 777.6 207.27486 
" clip-path="url(#p34893c6b9a)" style="fill: none; stroke-dasharray: 5.12,1.28,0.8,1.28; stroke-dashoffset: 0; stroke: #b0b0b0; stroke-width: 0.8"/>
     </g>
     <g id="line2d_24">
      <g>
       <use xlink:href="#mc30151c52f" x="108" y="207.27486" style="fill: #a9a9a9; stroke: #a9a9a9; stroke-width: 0.8"/>
      </g>
     </g>
     <g id="text_12">
      <!-- 3000 -->
      <g style="fill: #a9a9a9" transform="translate(75.55 211.074079) scale(0.1 -0.1)">
       <use xlink:href="#DejaVuSans-33"/>
       <use xlink:href="#DejaVuSans-30" transform="translate(63.623047 0)"/>
       <use xlink:href="#DejaVuSans-30" transform="translate(127.246094 0)"/>
       <use xlink:href="#DejaVuSans-30" transform="translate(190.869141 0)"/>
      </g>
     </g>
    </g>
    <g id="ytick_5">
     <g id="line2d_25">
      <path d="M 108 173.755307 
L 777.6 173.755307 
" clip-path="url(#p34893c6b9a)" style="fill: none; stroke-dasharray: 5.12,1.28,0.8,1.28; stroke-dashoffset: 0; stroke: #b0b0b0; stroke-width: 0.8"/>
     </g>
     <g id="line2d_26">
      <g>
       <use xlink:href="#mc30151c52f" x="108" y="173.755307" style="fill: #a9a9a9; stroke: #a9a9a9; stroke-width: 0.8"/>
      </g>
     </g>
     <g id="text_13">
      <!-- 4000 -->
      <g style="fill: #a9a9a9" transform="translate(75.55 177.554526) scale(0.1 -0.1)">
       <use xlink:href="#DejaVuSans-34"/>
       <use xlink:href="#DejaVuSans-30" transform="translate(63.623047 0)"/>
       <use xlink:href="#DejaVuSans-30" transform="translate(127.246094 0)"/>
       <use xlink:href="#DejaVuSans-30" transform="translate(190.869141 0)"/>
      </g>
     </g>
    </g>
    <g id="ytick_6">
     <g id="line2d_27">
      <path d="M 108 140.235754 
L 777.6 140.235754 
" clip-path="url(#p34893c6b9a)" style="fill: none; stroke-dasharray: 5.12,1.28,0.8,1.28; stroke-dashoffset: 0; stroke: #b0b0b0; stroke-width: 0.8"/>
     </g>
     <g id="line2d_28">
      <g>
       <use xlink:href="#mc30151c52f" x="108" y="140.235754" style="fill: #a9a9a9; stroke: #a9a9a9; stroke-width: 0.8"/>
      </g>
     </g>
     <g id="text_14">
      <!-- 5000 -->
      <g style="fill: #a9a9a9" transform="translate(75.55 144.034973) scale(0.1 -0.1)">
       <use xlink:href="#DejaVuSans-35"/>
       <use xlink:href="#DejaVuSans-30" transform="translate(63.623047 0)"/>
       <use xlink:href="#DejaVuSans-30" transform="translate(127.246094 0)"/>
       <use xlink:href="#DejaVuSans-30" transform="translate(190.869141 0)"/>
      </g>
     </g>
    </g>
    <g id="ytick_7">
     <g id="line2d_29">
      <path d="M 108 106.716201 
L 777.6 106.716201 
" clip-path="url(#p34893c6b9a)" style="fill: none; stroke-dasharray: 5.12,1.28,0.8,1.28; stroke-dashoffset: 0; stroke: #b0b0b0; stroke-width: 0.8"/>
     </g>
     <g id="line2d_30">
      <g>
       <use xlink:href="#mc30151c52f" x="108" y="106.716201" style="fill: #a9a9a9; stroke: #a9a9a9; stroke-width: 0.8"/>
      </g>
     </g>
     <g id="text_15">
      <!-- 6000 -->
      <g style="fill: #a9a9a9" transform="translate(75.55 110.51542) scale(0.1 -0.1)">
       <defs>
        <path id="DejaVuSans-36" d="M 2113 2584 
Q 1688 2584 1439 2293 
Q 1191 2003 1191 1497 
Q 1191 994 1439 701 
Q 1688 409 2113 409 
Q 2538 409 2786 701 
Q 3034 994 3034 1497 
Q 3034 2003 2786 2293 
Q 2538 2584 2113 2584 
z
M 3366 4563 
L 3366 3988 
Q 3128 4100 2886 4159 
Q 2644 4219 2406 4219 
Q 1781 4219 1451 3797 
Q 1122 3375 1075 2522 
Q 1259 2794 1537 2939 
Q 1816 3084 2150 3084 
Q 2853 3084 3261 2657 
Q 3669 2231 3669 1497 
Q 3669 778 3244 343 
Q 2819 -91 2113 -91 
Q 1303 -91 875 529 
Q 447 1150 447 2328 
Q 447 3434 972 4092 
Q 1497 4750 2381 4750 
Q 2619 4750 2861 4703 
Q 3103 4656 3366 4563 
z
" transform="scale(0.015625)"/>
       </defs>
       <use xlink:href="#DejaVuSans-36"/>
       <use xlink:href="#DejaVuSans-30" transform="translate(63.623047 0)"/>
       <use xlink:href="#DejaVuSans-30" transform="translate(127.246094 0)"/>
       <use xlink:href="#DejaVuSans-30" transform="translate(190.869141 0)"/>
      </g>
     </g>
    </g>
    <g id="ytick_8">
     <g id="line2d_31">
      <path d="M 108 73.196648 
L 777.6 73.196648 
" clip-path="url(#p34893c6b9a)" style="fill: none; stroke-dasharray: 5.12,1.28,0.8,1.28; stroke-dashoffset: 0; stroke: #b0b0b0; stroke-width: 0.8"/>
     </g>
     <g id="line2d_32">
      <g>
       <use xlink:href="#mc30151c52f" x="108" y="73.196648" style="fill: #a9a9a9; stroke: #a9a9a9; stroke-width: 0.8"/>
      </g>
     </g>
     <g id="text_16">
      <!-- 7000 -->
      <g style="fill: #a9a9a9" transform="translate(75.55 76.995867) scale(0.1 -0.1)">
       <use xlink:href="#DejaVuSans-37"/>
       <use xlink:href="#DejaVuSans-30" transform="translate(63.623047 0)"/>
       <use xlink:href="#DejaVuSans-30" transform="translate(127.246094 0)"/>
       <use xlink:href="#DejaVuSans-30" transform="translate(190.869141 0)"/>
      </g>
     </g>
    </g>
   </g>
   <g id="line2d_33">
    <path d="M 138.436364 307.732961 
L 141.12588 307.498324 
L 141.574133 307.297207 
L 143.367144 307.06257 
L 145.160155 306.693855 
L 146.056661 306.559777 
L 148.297925 306.358659 
L 149.19443 305.989944 
L 149.642683 305.386592 
L 150.090936 305.084916 
L 150.539189 304.07933 
L 150.987441 304.012291 
L 151.435694 303.643575 
L 152.3322 303.174302 
L 154.125211 301.699441 
L 155.918222 300.794413 
L 157.26298 300.157542 
L 157.711233 299.420112 
L 158.607739 298.749721 
L 159.055991 298.548603 
L 163.538519 297.878212 
L 163.986772 297.677095 
L 167.124541 297.408939 
L 168.917553 296.973184 
L 172.503575 296.470391 
L 172.951828 296.235754 
L 173.40008 296.168715 
L 174.296586 295.867039 
L 177.434355 295.330726 
L 178.330861 295.06257 
L 182.365136 294.358659 
L 183.261641 294.157542 
L 184.158147 294.124022 
L 185.951158 293.688268 
L 186.399411 293.051397 
L 187.744169 292.515084 
L 189.088928 292.146369 
L 189.53718 291.911732 
L 190.433686 291.744134 
L 192.226697 291.207821 
L 193.123203 291.140782 
L 194.019708 290.906145 
L 195.812719 290.436872 
L 196.260972 290.403352 
L 197.157478 289.967598 
L 197.60573 289.900559 
L 198.053983 289.665922 
L 202.984764 288.827933 
L 204.777775 288.29162 
L 205.226028 287.989944 
L 207.467291 287.252514 
L 208.363797 286.615642 
L 209.708555 286.347486 
L 219.570116 283.431285 
L 220.018369 283.397765 
L 221.363128 282.995531 
L 221.81138 282.995531 
L 222.259633 282.794413 
L 223.156139 282.693855 
L 223.604391 282.526257 
L 225.397403 282.459218 
L 226.293908 282.29162 
L 227.190414 281.822346 
L 228.535172 281.319553 
L 228.983425 281.017877 
L 229.87993 280.615642 
L 230.328183 280.381006 
L 231.224689 280.07933 
L 231.672941 279.945251 
L 232.569447 279.375419 
L 233.0177 278.872626 
L 233.914205 277.464804 
L 234.362458 277.330726 
L 234.810711 277.330726 
L 236.155469 276.526257 
L 236.603722 276.29162 
L 237.051975 276.191061 
L 237.500228 275.755307 
L 238.396733 275.386592 
L 239.293239 274.950838 
L 241.534503 272.034637 
L 244.224019 270.559777 
L 245.120525 269.822346 
L 245.568778 269.52067 
L 246.01703 268.883799 
L 246.465283 267.844693 
L 246.913536 267.140782 
L 247.361789 266.772067 
L 247.810042 266.57095 
L 251.396064 263.218994 
L 252.292569 262.381006 
L 254.982086 260.671508 
L 255.430339 260.503911 
L 256.775097 259.699441 
L 258.119855 258.794413 
L 259.912867 257.151955 
L 260.809372 256.78324 
L 261.705878 256.146369 
L 262.15413 255.878212 
L 262.602383 255.811173 
L 263.947142 255.040223 
L 264.395394 254.53743 
L 266.636658 253.297207 
L 267.084911 253.129609 
L 268.429669 252.191061 
L 275.153461 249.777654 
L 276.049967 248.939665 
L 277.394725 248.269274 
L 278.29123 247.699441 
L 279.187736 247.431285 
L 279.635989 247.129609 
L 280.084242 246.995531 
L 281.429 246.090503 
L 283.670264 245.587709 
L 285.015022 244.78324 
L 286.35978 244.481564 
L 286.808033 244.381006 
L 288.152792 243.341899 
L 289.945803 242.839106 
L 290.394055 242.470391 
L 293.083572 241.531844 
L 293.980078 241.364246 
L 294.876583 240.995531 
L 298.014353 239.822346 
L 298.910858 239.688268 
L 300.255617 239.218994 
L 302.49688 238.112849 
L 304.289892 237.107263 
L 307.875914 235.598883 
L 308.324167 235.531844 
L 309.220672 234.962011 
L 310.117178 234.727374 
L 311.461936 234.191061 
L 313.254947 233.956425 
L 314.151453 233.487151 
L 314.599705 233.084916 
L 315.047958 232.246927 
L 316.840969 231.744134 
L 318.185728 231.040223 
L 319.082233 230.738547 
L 319.978739 230.269274 
L 322.668255 229.163128 
L 323.564761 228.962011 
L 324.461267 228.492737 
L 324.909519 228.29162 
L 325.357772 228.224581 
L 327.599036 227.118436 
L 328.495542 226.548603 
L 329.8403 226.280447 
L 332.081564 225.710615 
L 332.529817 225.341899 
L 333.426322 225.040223 
L 335.667586 224.135196 
L 336.115839 223.8 
L 336.564092 223.632402 
L 337.460597 223.129609 
L 339.253608 222.559777 
L 340.150114 221.989944 
L 340.598367 221.52067 
L 341.046619 221.252514 
L 341.494872 221.151955 
L 342.391378 220.414525 
L 342.83963 220.347486 
L 343.287883 219.610056 
L 343.736136 219.408939 
L 344.184389 219.040223 
L 344.632642 218.973184 
L 345.529147 218.403352 
L 346.425653 218.101676 
L 346.873905 217.76648 
L 347.322158 217.598883 
L 349.115169 216.392179 
L 350.459928 215.688268 
L 351.356433 215.453631 
L 352.252939 214.950838 
L 352.701192 214.179888 
L 353.597697 213.509497 
L 354.04595 213.408939 
L 356.735467 212.101676 
L 357.631972 211.732961 
L 358.97673 210.593296 
L 359.873236 209.822346 
L 360.769742 209.286034 
L 361.217994 208.78324 
L 361.666247 208.481564 
L 362.562753 207.744134 
L 363.011005 207.543017 
L 363.907511 206.637989 
L 364.804017 206.336313 
L 365.700522 205.732961 
L 367.04528 205.02905 
L 367.493533 204.962011 
L 368.838292 204.224581 
L 369.734797 203.654749 
L 374.217325 201.978771 
L 374.665578 201.610056 
L 376.458589 200.906145 
L 376.906842 200.772067 
L 377.803347 200.168715 
L 378.699853 199.8 
L 379.596358 199.163128 
L 380.492864 197.353073 
L 381.389369 196.280447 
L 382.734128 195.576536 
L 383.630633 195.207821 
L 384.078886 195.140782 
L 384.527139 194.872626 
L 386.768403 194.135196 
L 387.216656 193.934078 
L 388.113161 193.330726 
L 389.457919 192.760894 
L 390.354425 192.258101 
L 391.250931 191.721788 
L 391.699183 191.420112 
L 392.147436 190.917318 
L 393.043942 190.414525 
L 395.285206 189.174302 
L 397.974722 187.83352 
L 399.319481 187.431285 
L 400.664239 186.894972 
L 401.112492 186.559777 
L 402.008997 186.29162 
L 402.905503 185.922905 
L 403.353756 185.55419 
L 405.146767 184.917318 
L 406.043272 184.280447 
L 406.939778 183.911732 
L 407.836283 183.207821 
L 408.732789 182.939665 
L 409.181042 182.53743 
L 409.629294 182.470391 
L 410.5258 181.76648 
L 411.422306 181.297207 
L 411.870558 181.096089 
L 412.318811 180.626816 
L 415.456581 179.353073 
L 416.353086 178.950838 
L 417.697844 178.515084 
L 418.59435 178.381006 
L 419.042603 178.179888 
L 419.490856 178.112849 
L 420.387361 177.710615 
L 420.835614 177.677095 
L 422.628625 177.006704 
L 423.973383 176.034637 
L 424.421636 175.867039 
L 425.318142 175.364246 
L 425.766394 175.230168 
L 428.455911 173.688268 
L 428.904164 173.587709 
L 430.248922 172.78324 
L 431.593681 172.313966 
L 432.490186 172.012291 
L 434.283197 171.408939 
L 435.179703 171.107263 
L 436.972714 170.738547 
L 437.420967 170.53743 
L 438.317472 170.302793 
L 438.765725 170.101676 
L 439.213978 170.034637 
L 439.662231 169.8 
L 440.558736 169.632402 
L 441.903494 169.129609 
L 442.8 169.02905 
L 444.144758 168.727374 
L 446.386022 168.32514 
L 458.040594 164.839106 
L 458.488847 164.369832 
L 459.385353 164.001117 
L 462.971375 162.626816 
L 463.419628 162.358659 
L 464.764386 161.956425 
L 465.660892 161.721788 
L 466.109144 161.420112 
L 466.557397 161.319553 
L 467.00565 160.917318 
L 468.350408 160.649162 
L 469.246914 160.213408 
L 469.695167 159.677095 
L 471.488178 159.241341 
L 474.625947 158.57095 
L 475.0742 158.57095 
L 475.522453 158.369832 
L 477.315464 158.034637 
L 477.763717 157.83352 
L 479.556728 157.498324 
L 480.453233 157.129609 
L 481.349739 156.962011 
L 483.591003 156.392179 
L 485.384014 155.822346 
L 485.832267 155.721788 
L 486.280519 155.487151 
L 487.177025 155.252514 
L 488.073531 154.883799 
L 488.970036 154.548603 
L 489.418289 154.246927 
L 490.314794 153.978771 
L 493.900817 152.738547 
L 494.797322 152.671508 
L 496.590333 152.135196 
L 497.038586 151.867039 
L 497.935092 151.598883 
L 500.176356 150.559777 
L 500.624608 150.526257 
L 505.555389 148.749721 
L 507.796653 148.146369 
L 508.693158 147.710615 
L 510.037917 147.408939 
L 511.830928 145.934078 
L 513.623939 145.163128 
L 514.520445 144.760894 
L 517.209961 143.721788 
L 517.658214 143.420112 
L 519.899478 142.682682 
L 521.244236 141.911732 
L 521.692489 141.811173 
L 523.4855 140.805587 
L 525.278511 140.001117 
L 525.726764 139.665922 
L 526.62327 139.364246 
L 528.864533 138.224581 
L 530.209292 137.755307 
L 532.002303 137.017877 
L 533.347061 136.515084 
L 533.795314 136.347486 
L 534.69182 136.213408 
L 535.140072 135.911732 
L 536.933083 135.543017 
L 537.829589 135.174302 
L 539.6226 134.336313 
L 545.898139 131.587709 
L 547.242897 131.151955 
L 547.69115 130.850279 
L 548.587656 130.749721 
L 549.035908 130.448045 
L 549.932414 130.280447 
L 550.82892 129.844693 
L 551.277172 129.643575 
L 552.173678 129.408939 
L 553.070183 129.140782 
L 554.414942 128.637989 
L 555.7597 128.202235 
L 557.104458 127.900559 
L 558.89747 127.163128 
L 559.793975 126.660335 
L 561.586986 125.755307 
L 562.483492 125.55419 
L 562.931745 125.286034 
L 563.379997 125.185475 
L 564.724756 124.414525 
L 565.621261 124.04581 
L 567.414272 123.341899 
L 569.655536 122.57095 
L 570.552042 122.101676 
L 572.793306 121.330726 
L 575.482822 120.224581 
L 577.275833 119.386592 
L 581.758361 117.643575 
L 582.654867 117.207821 
L 583.10312 117.107263 
L 583.551372 116.872626 
L 585.344383 116.369832 
L 587.137395 114.894972 
L 587.585647 114.760894 
L 588.0339 114.492737 
L 589.378658 114.124022 
L 589.826911 113.788827 
L 590.275164 113.688268 
L 591.17167 113.118436 
L 592.516428 112.414525 
L 593.412933 112.04581 
L 593.861186 111.811173 
L 595.205945 111.509497 
L 597.447208 110.738547 
L 598.343714 110.436872 
L 599.688472 109.732961 
L 600.584978 109.297207 
L 601.481483 109.06257 
L 602.826242 108.425698 
L 606.860517 106.917318 
L 608.205275 106.07933 
L 608.653528 105.978771 
L 609.550033 105.543017 
L 610.446539 105.207821 
L 610.894792 104.805587 
L 611.791297 104.436872 
L 613.136056 103.967598 
L 613.584308 103.598883 
L 614.032561 103.565363 
L 614.929067 103.297207 
L 615.825572 102.995531 
L 616.273825 102.794413 
L 616.722078 102.727374 
L 618.066836 102.224581 
L 619.411595 101.721788 
L 621.204606 100.917318 
L 621.652858 100.850279 
L 625.238881 99.341899 
L 626.583639 98.906145 
L 627.480145 98.839106 
L 628.37665 98.470391 
L 631.066167 97.665922 
L 631.962672 97.632402 
L 635.548695 96.459218 
L 636.4452 95.989944 
L 636.893453 95.587709 
L 638.238211 94.78324 
L 638.686464 94.448045 
L 640.031222 94.012291 
L 640.927728 93.744134 
L 641.375981 93.509497 
L 641.824233 93.408939 
L 642.272486 93.040223 
L 644.962003 91.900559 
L 646.755014 91.431285 
L 647.65152 91.02905 
L 648.099772 90.794413 
L 648.996278 90.526257 
L 649.444531 90.258101 
L 650.341036 90.090503 
L 653.927059 88.548603 
L 654.375311 88.481564 
L 654.823564 88.179888 
L 655.271817 88.012291 
L 655.72007 87.610056 
L 656.168322 87.543017 
L 657.961334 86.839106 
L 659.754345 86.403352 
L 660.202597 86.336313 
L 660.65085 86.135196 
L 661.099103 86.101676 
L 661.995609 85.8 
L 662.443861 85.76648 
L 663.78862 85.230168 
L 665.581631 84.693855 
L 666.478136 84.023464 
L 668.271147 83.017877 
L 669.615906 82.548603 
L 673.201928 80.839106 
L 673.650181 80.604469 
L 674.098434 80.168715 
L 676.339697 79.565363 
L 677.684456 78.962011 
L 678.580961 78.727374 
L 679.029214 78.492737 
L 679.477467 78.124022 
L 681.270478 77.654749 
L 681.718731 77.319553 
L 687.546017 75.207821 
L 688.442522 75.040223 
L 690.683786 74.336313 
L 691.580292 73.967598 
L 692.476797 73.632402 
L 693.373303 73.397765 
L 693.821556 73.196648 
L 694.269809 73.196648 
L 695.166314 72.827933 
L 696.06282 72.29162 
L 699.200589 71.252514 
L 700.9936 70.649162 
L 702.338359 70.347486 
L 703.683117 69.911732 
L 704.13137 69.811173 
L 704.579622 69.509497 
L 705.476128 69.30838 
L 714.441184 66.727374 
L 716.682447 66.32514 
L 717.578953 65.889385 
L 718.475459 65.453631 
L 719.820217 65.051397 
L 724.302745 63.408939 
L 724.750997 63.073743 
L 726.095756 62.772067 
L 726.992261 62.503911 
L 727.888767 62.068156 
L 728.33702 61.665922 
L 729.233525 61.364246 
L 729.681778 61.096089 
L 730.578284 60.995531 
L 733.716053 60.124022 
L 735.060811 59.855866 
L 737.750328 58.950838 
L 739.543339 58.07933 
L 744.922372 56.168715 
L 746.715384 55.8 
L 747.163636 55.8 
L 747.163636 55.8 
" clip-path="url(#p34893c6b9a)" style="fill: none; stroke: #1f77b4; stroke-width: 1.5; stroke-linecap: square"/>
   </g>
   <g id="line2d_34">
    <path d="M 138.884616 307.8 
L 142.918891 307.699441 
L 146.504914 307.531844 
L 148.297925 307.531844 
L 148.746178 307.397765 
L 150.987441 307.297207 
L 153.676958 306.995531 
L 156.366475 306.894972 
L 157.26298 306.794413 
L 160.40075 306.660335 
L 163.538519 306.559777 
L 165.779783 306.492737 
L 171.607069 306.392179 
L 173.848333 306.32514 
L 177.882608 306.224581 
L 179.675619 306.191061 
L 184.158147 306.090503 
L 185.951158 305.922905 
L 187.744169 305.889385 
L 190.433686 305.788827 
L 192.226697 305.755307 
L 194.467961 305.688268 
L 196.260972 305.52067 
L 200.295247 305.420112 
L 201.191753 305.353073 
L 202.984764 305.252514 
L 205.67428 305.151955 
L 207.467291 305.051397 
L 215.535841 304.548603 
L 218.673611 304.448045 
L 220.018369 304.313966 
L 222.259633 304.213408 
L 226.742161 303.978771 
L 231.224689 303.911732 
L 233.0177 303.710615 
L 234.810711 303.610056 
L 239.741491 303.140782 
L 242.879261 302.772067 
L 244.224019 302.705028 
L 247.810042 302.235754 
L 250.499558 302.168715 
L 251.844317 302.034637 
L 253.189075 301.934078 
L 265.740153 300.962011 
L 266.636658 300.794413 
L 269.326175 300.693855 
L 276.498219 300.258101 
L 279.635989 300.157542 
L 281.429 299.956425 
L 283.670264 299.855866 
L 286.35978 299.755307 
L 288.601044 299.654749 
L 290.394055 299.621229 
L 292.635319 299.55419 
L 293.531825 299.420112 
L 299.807364 299.319553 
L 300.703869 299.218994 
L 306.082903 299.118436 
L 310.117178 298.917318 
L 313.254947 298.81676 
L 315.047958 298.615642 
L 318.185728 298.515084 
L 319.082233 298.347486 
L 321.323497 298.280447 
L 325.806025 298.213408 
L 327.599036 298.04581 
L 329.392047 298.012291 
L 330.736805 297.911732 
L 332.529817 297.744134 
L 337.012344 297.509497 
L 341.494872 297.408939 
L 345.529147 297.207821 
L 346.873905 297.174302 
L 347.770411 297.040223 
L 350.011675 296.939665 
L 350.90818 296.872626 
L 351.804686 296.805587 
L 352.701192 296.738547 
L 356.735467 296.671508 
L 358.080225 296.57095 
L 370.18305 295.76648 
L 372.424314 295.665922 
L 374.665578 295.598883 
L 380.941117 295.498324 
L 381.837622 295.364246 
L 388.113161 295.263687 
L 392.595689 295.02905 
L 393.492194 294.995531 
L 394.3887 294.894972 
L 396.629964 294.794413 
L 398.871228 294.727374 
L 401.112492 294.626816 
L 403.353756 294.559777 
L 407.388031 294.459218 
L 410.077547 294.358659 
L 416.353086 294.258101 
L 421.283867 293.989944 
L 423.076878 293.922905 
L 424.421636 293.822346 
L 430.697175 293.721788 
L 433.386692 293.621229 
L 441.455242 293.52067 
L 443.248253 293.487151 
L 448.627286 293.420112 
L 449.523792 293.353073 
L 455.799331 293.252514 
L 457.592342 293.218994 
L 469.246914 293.118436 
L 471.936431 293.017877 
L 490.763047 292.917318 
L 493.004311 292.850279 
L 504.658883 292.78324 
L 505.555389 292.716201 
L 507.796653 292.649162 
L 509.141411 292.515084 
L 511.830928 292.414525 
L 514.968697 292.280447 
L 519.002972 292.179888 
L 521.244236 292.112849 
L 524.382006 292.012291 
L 527.968028 291.844693 
L 530.209292 291.744134 
L 532.002303 291.710615 
L 536.036578 291.610056 
L 537.829589 291.576536 
L 543.656875 291.475978 
L 545.449886 291.442458 
L 547.69115 291.341899 
L 550.380667 291.241341 
L 553.518436 291.174302 
L 554.414942 291.107263 
L 565.173008 291.006704 
L 571.000295 290.671508 
L 573.241558 290.604469 
L 574.138064 290.503911 
L 575.03457 290.436872 
L 578.620592 290.336313 
L 581.310108 290.235754 
L 585.792636 290.135196 
L 588.0339 289.900559 
L 592.516428 289.8 
L 593.412933 289.699441 
L 597.895461 289.598883 
L 600.136725 289.531844 
L 605.067506 289.498324 
L 605.964011 289.397765 
L 610.894792 289.297207 
L 611.791297 289.230168 
L 621.652858 289.129609 
L 624.342375 289.02905 
L 631.066167 288.928492 
L 632.859178 288.894972 
L 636.893453 288.827933 
L 637.789958 288.727374 
L 643.617245 288.626816 
L 645.858509 288.559777 
L 653.927059 288.459218 
L 655.271817 288.358659 
L 656.616575 288.258101 
L 657.961334 288.157542 
L 664.685125 288.056983 
L 667.374642 287.956425 
L 679.477467 287.855866 
L 683.511742 287.654749 
L 688.890775 287.55419 
L 689.787281 287.487151 
L 696.511072 287.420112 
L 697.407578 287.353073 
L 702.338359 287.252514 
L 704.13137 287.218994 
L 710.406909 287.118436 
L 713.096425 287.017877 
L 720.716722 286.917318 
L 722.509734 286.883799 
L 726.544009 286.78324 
L 730.130031 286.615642 
L 735.060811 286.515084 
L 738.198581 286.381006 
L 742.232856 286.280447 
L 743.129361 286.213408 
L 747.163636 286.146369 
L 747.163636 286.146369 
" clip-path="url(#p34893c6b9a)" style="fill: none; stroke: #ff7f0e; stroke-width: 1.5; stroke-linecap: square"/>
   </g>
   <g id="patch_3">
    <path d="M 108 320.4 
L 108 43.2 
" style="fill: none; stroke: #a9a9a9; stroke-width: 0.8; stroke-linejoin: miter; stroke-linecap: square"/>
   </g>
   <g id="patch_4">
    <path d="M 777.6 320.4 
L 777.6 43.2 
" style="fill: none"/>
   </g>
   <g id="patch_5">
    <path d="M 108 320.4 
L 777.6 320.4 
" style="fill: none; stroke: #a9a9a9; stroke-width: 0.8; stroke-linejoin: miter; stroke-linecap: square"/>
   </g>
   <g id="patch_6">
    <path d="M 108 43.2 
L 777.6 43.2 
" style="fill: none"/>
   </g>
   <g id="text_17">
    <!-- get_subscribe history -->
    <g style="fill: #a9a9a9" transform="translate(378.6075 37.2) scale(0.12 -0.12)">
     <defs>
      <path id="DejaVuSans-67" d="M 2906 1791 
Q 2906 2416 2648 2759 
Q 2391 3103 1925 3103 
Q 1463 3103 1205 2759 
Q 947 2416 947 1791 
Q 947 1169 1205 825 
Q 1463 481 1925 481 
Q 2391 481 2648 825 
Q 2906 1169 2906 1791 
z
M 3481 434 
Q 3481 -459 3084 -895 
Q 2688 -1331 1869 -1331 
Q 1566 -1331 1297 -1286 
Q 1028 -1241 775 -1147 
L 775 -588 
Q 1028 -725 1275 -790 
Q 1522 -856 1778 -856 
Q 2344 -856 2625 -561 
Q 2906 -266 2906 331 
L 2906 616 
Q 2728 306 2450 153 
Q 2172 0 1784 0 
Q 1141 0 747 490 
Q 353 981 353 1791 
Q 353 2603 747 3093 
Q 1141 3584 1784 3584 
Q 2172 3584 2450 3431 
Q 2728 3278 2906 2969 
L 2906 3500 
L 3481 3500 
L 3481 434 
z
" transform="scale(0.015625)"/>
      <path id="DejaVuSans-65" d="M 3597 1894 
L 3597 1613 
L 953 1613 
Q 991 1019 1311 708 
Q 1631 397 2203 397 
Q 2534 397 2845 478 
Q 3156 559 3463 722 
L 3463 178 
Q 3153 47 2828 -22 
Q 2503 -91 2169 -91 
Q 1331 -91 842 396 
Q 353 884 353 1716 
Q 353 2575 817 3079 
Q 1281 3584 2069 3584 
Q 2775 3584 3186 3129 
Q 3597 2675 3597 1894 
z
M 3022 2063 
Q 3016 2534 2758 2815 
Q 2500 3097 2075 3097 
Q 1594 3097 1305 2825 
Q 1016 2553 972 2059 
L 3022 2063 
z
" transform="scale(0.015625)"/>
      <path id="DejaVuSans-74" d="M 1172 4494 
L 1172 3500 
L 2356 3500 
L 2356 3053 
L 1172 3053 
L 1172 1153 
Q 1172 725 1289 603 
Q 1406 481 1766 481 
L 2356 481 
L 2356 0 
L 1766 0 
Q 1100 0 847 248 
Q 594 497 594 1153 
L 594 3053 
L 172 3053 
L 172 3500 
L 594 3500 
L 594 4494 
L 1172 4494 
z
" transform="scale(0.015625)"/>
      <path id="DejaVuSans-5f" d="M 3263 -1063 
L 3263 -1509 
L -63 -1509 
L -63 -1063 
L 3263 -1063 
z
" transform="scale(0.015625)"/>
      <path id="DejaVuSans-73" d="M 2834 3397 
L 2834 2853 
Q 2591 2978 2328 3040 
Q 2066 3103 1784 3103 
Q 1356 3103 1142 2972 
Q 928 2841 928 2578 
Q 928 2378 1081 2264 
Q 1234 2150 1697 2047 
L 1894 2003 
Q 2506 1872 2764 1633 
Q 3022 1394 3022 966 
Q 3022 478 2636 193 
Q 2250 -91 1575 -91 
Q 1294 -91 989 -36 
Q 684 19 347 128 
L 347 722 
Q 666 556 975 473 
Q 1284 391 1588 391 
Q 1994 391 2212 530 
Q 2431 669 2431 922 
Q 2431 1156 2273 1281 
Q 2116 1406 1581 1522 
L 1381 1569 
Q 847 1681 609 1914 
Q 372 2147 372 2553 
Q 372 3047 722 3315 
Q 1072 3584 1716 3584 
Q 2034 3584 2315 3537 
Q 2597 3491 2834 3397 
z
" transform="scale(0.015625)"/>
      <path id="DejaVuSans-75" d="M 544 1381 
L 544 3500 
L 1119 3500 
L 1119 1403 
Q 1119 906 1312 657 
Q 1506 409 1894 409 
Q 2359 409 2629 706 
Q 2900 1003 2900 1516 
L 2900 3500 
L 3475 3500 
L 3475 0 
L 2900 0 
L 2900 538 
Q 2691 219 2414 64 
Q 2138 -91 1772 -91 
Q 1169 -91 856 284 
Q 544 659 544 1381 
z
M 1991 3584 
L 1991 3584 
z
" transform="scale(0.015625)"/>
      <path id="DejaVuSans-62" d="M 3116 1747 
Q 3116 2381 2855 2742 
Q 2594 3103 2138 3103 
Q 1681 3103 1420 2742 
Q 1159 2381 1159 1747 
Q 1159 1113 1420 752 
Q 1681 391 2138 391 
Q 2594 391 2855 752 
Q 3116 1113 3116 1747 
z
M 1159 2969 
Q 1341 3281 1617 3432 
Q 1894 3584 2278 3584 
Q 2916 3584 3314 3078 
Q 3713 2572 3713 1747 
Q 3713 922 3314 415 
Q 2916 -91 2278 -91 
Q 1894 -91 1617 61 
Q 1341 213 1159 525 
L 1159 0 
L 581 0 
L 581 4863 
L 1159 4863 
L 1159 2969 
z
" transform="scale(0.015625)"/>
      <path id="DejaVuSans-63" d="M 3122 3366 
L 3122 2828 
Q 2878 2963 2633 3030 
Q 2388 3097 2138 3097 
Q 1578 3097 1268 2742 
Q 959 2388 959 1747 
Q 959 1106 1268 751 
Q 1578 397 2138 397 
Q 2388 397 2633 464 
Q 2878 531 3122 666 
L 3122 134 
Q 2881 22 2623 -34 
Q 2366 -91 2075 -91 
Q 1284 -91 818 406 
Q 353 903 353 1747 
Q 353 2603 823 3093 
Q 1294 3584 2113 3584 
Q 2378 3584 2631 3529 
Q 2884 3475 3122 3366 
z
" transform="scale(0.015625)"/>
      <path id="DejaVuSans-72" d="M 2631 2963 
Q 2534 3019 2420 3045 
Q 2306 3072 2169 3072 
Q 1681 3072 1420 2755 
Q 1159 2438 1159 1844 
L 1159 0 
L 581 0 
L 581 3500 
L 1159 3500 
L 1159 2956 
Q 1341 3275 1631 3429 
Q 1922 3584 2338 3584 
Q 2397 3584 2469 3576 
Q 2541 3569 2628 3553 
L 2631 2963 
z
" transform="scale(0.015625)"/>
      <path id="DejaVuSans-69" d="M 603 3500 
L 1178 3500 
L 1178 0 
L 603 0 
L 603 3500 
z
M 603 4863 
L 1178 4863 
L 1178 4134 
L 603 4134 
L 603 4863 
z
" transform="scale(0.015625)"/>
      <path id="DejaVuSans-20" transform="scale(0.015625)"/>
      <path id="DejaVuSans-68" d="M 3513 2113 
L 3513 0 
L 2938 0 
L 2938 2094 
Q 2938 2591 2744 2837 
Q 2550 3084 2163 3084 
Q 1697 3084 1428 2787 
Q 1159 2491 1159 1978 
L 1159 0 
L 581 0 
L 581 4863 
L 1159 4863 
L 1159 2956 
Q 1366 3272 1645 3428 
Q 1925 3584 2291 3584 
Q 2894 3584 3203 3211 
Q 3513 2838 3513 2113 
z
" transform="scale(0.015625)"/>
      <path id="DejaVuSans-6f" d="M 1959 3097 
Q 1497 3097 1228 2736 
Q 959 2375 959 1747 
Q 959 1119 1226 758 
Q 1494 397 1959 397 
Q 2419 397 2687 759 
Q 2956 1122 2956 1747 
Q 2956 2369 2687 2733 
Q 2419 3097 1959 3097 
z
M 1959 3584 
Q 2709 3584 3137 3096 
Q 3566 2609 3566 1747 
Q 3566 888 3137 398 
Q 2709 -91 1959 -91 
Q 1206 -91 779 398 
Q 353 888 353 1747 
Q 353 2609 779 3096 
Q 1206 3584 1959 3584 
z
" transform="scale(0.015625)"/>
      <path id="DejaVuSans-79" d="M 2059 -325 
Q 1816 -950 1584 -1140 
Q 1353 -1331 966 -1331 
L 506 -1331 
L 506 -850 
L 844 -850 
Q 1081 -850 1212 -737 
Q 1344 -625 1503 -206 
L 1606 56 
L 191 3500 
L 800 3500 
L 1894 763 
L 2988 3500 
L 3597 3500 
L 2059 -325 
z
" transform="scale(0.015625)"/>
     </defs>
     <use xlink:href="#DejaVuSans-67"/>
     <use xlink:href="#DejaVuSans-65" transform="translate(63.476562 0)"/>
     <use xlink:href="#DejaVuSans-74" transform="translate(125 0)"/>
     <use xlink:href="#DejaVuSans-5f" transform="translate(164.208984 0)"/>
     <use xlink:href="#DejaVuSans-73" transform="translate(214.208984 0)"/>
     <use xlink:href="#DejaVuSans-75" transform="translate(266.308594 0)"/>
     <use xlink:href="#DejaVuSans-62" transform="translate(329.6875 0)"/>
     <use xlink:href="#DejaVuSans-73" transform="translate(393.164062 0)"/>
     <use xlink:href="#DejaVuSans-63" transform="translate(445.263672 0)"/>
     <use xlink:href="#DejaVuSans-72" transform="translate(500.244141 0)"/>
     <use xlink:href="#DejaVuSans-69" transform="translate(541.357422 0)"/>
     <use xlink:href="#DejaVuSans-62" transform="translate(569.140625 0)"/>
     <use xlink:href="#DejaVuSans-65" transform="translate(632.617188 0)"/>
     <use xlink:href="#DejaVuSans-20" transform="translate(694.140625 0)"/>
     <use xlink:href="#DejaVuSans-68" transform="translate(725.927734 0)"/>
     <use xlink:href="#DejaVuSans-69" transform="translate(789.306641 0)"/>
     <use xlink:href="#DejaVuSans-73" transform="translate(817.089844 0)"/>
     <use xlink:href="#DejaVuSans-74" transform="translate(869.189453 0)"/>
     <use xlink:href="#DejaVuSans-6f" transform="translate(908.398438 0)"/>
     <use xlink:href="#DejaVuSans-72" transform="translate(969.580078 0)"/>
     <use xlink:href="#DejaVuSans-79" transform="translate(1010.693359 0)"/>
    </g>
   </g>
   <g id="legend_1">
    <g id="line2d_35">
     <path d="M 815.08 328.498438 
L 825.08 328.498438 
L 835.08 328.498438 
" style="fill: none; stroke: #1f77b4; stroke-width: 1.5; stroke-linecap: square"/>
    </g>
    <g id="text_18">
     <!-- star -->
     <g style="fill: #a9a9a9" transform="translate(843.08 331.998438) scale(0.1 -0.1)">
      <defs>
       <path id="DejaVuSans-61" d="M 2194 1759 
Q 1497 1759 1228 1600 
Q 959 1441 959 1056 
Q 959 750 1161 570 
Q 1363 391 1709 391 
Q 2188 391 2477 730 
Q 2766 1069 2766 1631 
L 2766 1759 
L 2194 1759 
z
M 3341 1997 
L 3341 0 
L 2766 0 
L 2766 531 
Q 2569 213 2275 61 
Q 1981 -91 1556 -91 
Q 1019 -91 701 211 
Q 384 513 384 1019 
Q 384 1609 779 1909 
Q 1175 2209 1959 2209 
L 2766 2209 
L 2766 2266 
Q 2766 2663 2505 2880 
Q 2244 3097 1772 3097 
Q 1472 3097 1187 3025 
Q 903 2953 641 2809 
L 641 3341 
Q 956 3463 1253 3523 
Q 1550 3584 1831 3584 
Q 2591 3584 2966 3190 
Q 3341 2797 3341 1997 
z
" transform="scale(0.015625)"/>
      </defs>
      <use xlink:href="#DejaVuSans-73"/>
      <use xlink:href="#DejaVuSans-74" transform="translate(52.099609 0)"/>
      <use xlink:href="#DejaVuSans-61" transform="translate(91.308594 0)"/>
      <use xlink:href="#DejaVuSans-72" transform="translate(152.587891 0)"/>
     </g>
    </g>
    <g id="line2d_36">
     <path d="M 815.08 343.176562 
L 825.08 343.176562 
L 835.08 343.176562 
" style="fill: none; stroke: #ff7f0e; stroke-width: 1.5; stroke-linecap: square"/>
    </g>
    <g id="text_19">
     <!-- fork -->
     <g style="fill: #a9a9a9" transform="translate(843.08 346.676562) scale(0.1 -0.1)">
      <defs>
       <path id="DejaVuSans-66" d="M 2375 4863 
L 2375 4384 
L 1825 4384 
Q 1516 4384 1395 4259 
Q 1275 4134 1275 3809 
L 1275 3500 
L 2222 3500 
L 2222 3053 
L 1275 3053 
L 1275 0 
L 697 0 
L 697 3053 
L 147 3053 
L 147 3500 
L 697 3500 
L 697 3744 
Q 697 4328 969 4595 
Q 1241 4863 1831 4863 
L 2375 4863 
z
" transform="scale(0.015625)"/>
       <path id="DejaVuSans-6b" d="M 581 4863 
L 1159 4863 
L 1159 1991 
L 2875 3500 
L 3609 3500 
L 1753 1863 
L 3688 0 
L 2938 0 
L 1159 1709 
L 1159 0 
L 581 0 
L 581 4863 
z
" transform="scale(0.015625)"/>
      </defs>
      <use xlink:href="#DejaVuSans-66"/>
      <use xlink:href="#DejaVuSans-6f" transform="translate(35.205078 0)"/>
      <use xlink:href="#DejaVuSans-72" transform="translate(96.386719 0)"/>
      <use xlink:href="#DejaVuSans-6b" transform="translate(137.5 0)"/>
     </g>
    </g>
   </g>
  </g>
 </g>
 <defs>
  <clipPath id="p34893c6b9a">
   <rect x="108" y="43.2" width="669.6" height="277.2"/>
  </clipPath>
 </defs>
</svg>
