<?xml version="1.0" encoding="utf-8" standalone="no"?>
<!DOCTYPE svg PUBLIC "-//W3C//DTD SVG 1.1//EN"
  "http://www.w3.org/Graphics/SVG/1.1/DTD/svg11.dtd">
<svg xmlns:xlink="http://www.w3.org/1999/xlink" width="864pt" height="360pt" viewBox="0 0 864 360" xmlns="http://www.w3.org/2000/svg" version="1.1">
 <metadata>
  <rdf:RDF xmlns:dc="http://purl.org/dc/elements/1.1/" xmlns:cc="http://creativecommons.org/ns#" xmlns:rdf="http://www.w3.org/1999/02/22-rdf-syntax-ns#">
   <cc:Work>
    <dc:type rdf:resource="http://purl.org/dc/dcmitype/StillImage"/>
    <dc:date>2025-04-13T08:39:52.207656</dc:date>
    <dc:format>image/svg+xml</dc:format>
    <dc:creator>
     <cc:Agent>
      <dc:title>Matplotlib v3.10.1, https://matplotlib.org/</dc:title>
     </cc:Agent>
    </dc:creator>
   </cc:Work>
  </rdf:RDF>
 </metadata>
 <defs>
  <style type="text/css">*{stroke-linejoin: round; stroke-linecap: butt}</style>
 </defs>
 <g id="figure_1">
  <g id="patch_1">
   <path d="M 0 360 
L 864 360 
L 864 0 
L 0 0 
L 0 360 
z
" style="fill: none; opacity: 0"/>
  </g>
  <g id="axes_1">
   <g id="patch_2">
    <path d="M 108 320.4 
L 777.6 320.4 
L 777.6 43.2 
L 108 43.2 
L 108 320.4 
z
" style="fill: none; opacity: 0"/>
   </g>
   <g id="matplotlib.axis_1">
    <g id="xtick_1">
     <g id="line2d_1">
      <path d="M 128.134136 320.4 
L 128.134136 43.2 
" clip-path="url(#pfc384e9799)" style="fill: none; stroke-dasharray: 5.12,1.28,0.8,1.28; stroke-dashoffset: 0; stroke: #b0b0b0; stroke-width: 0.8"/>
     </g>
     <g id="line2d_2">
      <defs>
       <path id="m54f2c7a738" d="M 0 0 
L 0 3.5 
" style="stroke: #a9a9a9; stroke-width: 0.8"/>
      </defs>
      <g>
       <use xlink:href="#m54f2c7a738" x="128.134136" y="320.4" style="fill: #a9a9a9; stroke: #a9a9a9; stroke-width: 0.8"/>
      </g>
     </g>
     <g id="text_1">
      <!-- 2021-07 -->
      <g style="fill: #a9a9a9" transform="translate(107.24273 334.998438) scale(0.1 -0.1)">
       <defs>
        <path id="DejaVuSans-32" d="M 1228 531 
L 3431 531 
L 3431 0 
L 469 0 
L 469 531 
Q 828 903 1448 1529 
Q 2069 2156 2228 2338 
Q 2531 2678 2651 2914 
Q 2772 3150 2772 3378 
Q 2772 3750 2511 3984 
Q 2250 4219 1831 4219 
Q 1534 4219 1204 4116 
Q 875 4013 500 3803 
L 500 4441 
Q 881 4594 1212 4672 
Q 1544 4750 1819 4750 
Q 2544 4750 2975 4387 
Q 3406 4025 3406 3419 
Q 3406 3131 3298 2873 
Q 3191 2616 2906 2266 
Q 2828 2175 2409 1742 
Q 1991 1309 1228 531 
z
" transform="scale(0.015625)"/>
        <path id="DejaVuSans-30" d="M 2034 4250 
Q 1547 4250 1301 3770 
Q 1056 3291 1056 2328 
Q 1056 1369 1301 889 
Q 1547 409 2034 409 
Q 2525 409 2770 889 
Q 3016 1369 3016 2328 
Q 3016 3291 2770 3770 
Q 2525 4250 2034 4250 
z
M 2034 4750 
Q 2819 4750 3233 4129 
Q 3647 3509 3647 2328 
Q 3647 1150 3233 529 
Q 2819 -91 2034 -91 
Q 1250 -91 836 529 
Q 422 1150 422 2328 
Q 422 3509 836 4129 
Q 1250 4750 2034 4750 
z
" transform="scale(0.015625)"/>
        <path id="DejaVuSans-31" d="M 794 531 
L 1825 531 
L 1825 4091 
L 703 3866 
L 703 4441 
L 1819 4666 
L 2450 4666 
L 2450 531 
L 3481 531 
L 3481 0 
L 794 0 
L 794 531 
z
" transform="scale(0.015625)"/>
        <path id="DejaVuSans-2d" d="M 313 2009 
L 1997 2009 
L 1997 1497 
L 313 1497 
L 313 2009 
z
" transform="scale(0.015625)"/>
        <path id="DejaVuSans-37" d="M 525 4666 
L 3525 4666 
L 3525 4397 
L 1831 0 
L 1172 0 
L 2766 4134 
L 525 4134 
L 525 4666 
z
" transform="scale(0.015625)"/>
       </defs>
       <use xlink:href="#DejaVuSans-32"/>
       <use xlink:href="#DejaVuSans-30" transform="translate(63.623047 0)"/>
       <use xlink:href="#DejaVuSans-32" transform="translate(127.246094 0)"/>
       <use xlink:href="#DejaVuSans-31" transform="translate(190.869141 0)"/>
       <use xlink:href="#DejaVuSans-2d" transform="translate(254.492188 0)"/>
       <use xlink:href="#DejaVuSans-30" transform="translate(290.576172 0)"/>
       <use xlink:href="#DejaVuSans-37" transform="translate(354.199219 0)"/>
      </g>
     </g>
    </g>
    <g id="xtick_2">
     <g id="line2d_3">
      <path d="M 210.551957 320.4 
L 210.551957 43.2 
" clip-path="url(#pfc384e9799)" style="fill: none; stroke-dasharray: 5.12,1.28,0.8,1.28; stroke-dashoffset: 0; stroke: #b0b0b0; stroke-width: 0.8"/>
     </g>
     <g id="line2d_4">
      <g>
       <use xlink:href="#m54f2c7a738" x="210.551957" y="320.4" style="fill: #a9a9a9; stroke: #a9a9a9; stroke-width: 0.8"/>
      </g>
     </g>
     <g id="text_2">
      <!-- 2022-01 -->
      <g style="fill: #a9a9a9" transform="translate(189.66055 334.998438) scale(0.1 -0.1)">
       <use xlink:href="#DejaVuSans-32"/>
       <use xlink:href="#DejaVuSans-30" transform="translate(63.623047 0)"/>
       <use xlink:href="#DejaVuSans-32" transform="translate(127.246094 0)"/>
       <use xlink:href="#DejaVuSans-32" transform="translate(190.869141 0)"/>
       <use xlink:href="#DejaVuSans-2d" transform="translate(254.492188 0)"/>
       <use xlink:href="#DejaVuSans-30" transform="translate(290.576172 0)"/>
       <use xlink:href="#DejaVuSans-31" transform="translate(354.199219 0)"/>
      </g>
     </g>
    </g>
    <g id="xtick_3">
     <g id="line2d_5">
      <path d="M 291.626008 320.4 
L 291.626008 43.2 
" clip-path="url(#pfc384e9799)" style="fill: none; stroke-dasharray: 5.12,1.28,0.8,1.28; stroke-dashoffset: 0; stroke: #b0b0b0; stroke-width: 0.8"/>
     </g>
     <g id="line2d_6">
      <g>
       <use xlink:href="#m54f2c7a738" x="291.626008" y="320.4" style="fill: #a9a9a9; stroke: #a9a9a9; stroke-width: 0.8"/>
      </g>
     </g>
     <g id="text_3">
      <!-- 2022-07 -->
      <g style="fill: #a9a9a9" transform="translate(270.734602 334.998438) scale(0.1 -0.1)">
       <use xlink:href="#DejaVuSans-32"/>
       <use xlink:href="#DejaVuSans-30" transform="translate(63.623047 0)"/>
       <use xlink:href="#DejaVuSans-32" transform="translate(127.246094 0)"/>
       <use xlink:href="#DejaVuSans-32" transform="translate(190.869141 0)"/>
       <use xlink:href="#DejaVuSans-2d" transform="translate(254.492188 0)"/>
       <use xlink:href="#DejaVuSans-30" transform="translate(290.576172 0)"/>
       <use xlink:href="#DejaVuSans-37" transform="translate(354.199219 0)"/>
      </g>
     </g>
    </g>
    <g id="xtick_4">
     <g id="line2d_7">
      <path d="M 374.043829 320.4 
L 374.043829 43.2 
" clip-path="url(#pfc384e9799)" style="fill: none; stroke-dasharray: 5.12,1.28,0.8,1.28; stroke-dashoffset: 0; stroke: #b0b0b0; stroke-width: 0.8"/>
     </g>
     <g id="line2d_8">
      <g>
       <use xlink:href="#m54f2c7a738" x="374.043829" y="320.4" style="fill: #a9a9a9; stroke: #a9a9a9; stroke-width: 0.8"/>
      </g>
     </g>
     <g id="text_4">
      <!-- 2023-01 -->
      <g style="fill: #a9a9a9" transform="translate(353.152423 334.998438) scale(0.1 -0.1)">
       <defs>
        <path id="DejaVuSans-33" d="M 2597 2516 
Q 3050 2419 3304 2112 
Q 3559 1806 3559 1356 
Q 3559 666 3084 287 
Q 2609 -91 1734 -91 
Q 1441 -91 1130 -33 
Q 819 25 488 141 
L 488 750 
Q 750 597 1062 519 
Q 1375 441 1716 441 
Q 2309 441 2620 675 
Q 2931 909 2931 1356 
Q 2931 1769 2642 2001 
Q 2353 2234 1838 2234 
L 1294 2234 
L 1294 2753 
L 1863 2753 
Q 2328 2753 2575 2939 
Q 2822 3125 2822 3475 
Q 2822 3834 2567 4026 
Q 2313 4219 1838 4219 
Q 1578 4219 1281 4162 
Q 984 4106 628 3988 
L 628 4550 
Q 988 4650 1302 4700 
Q 1616 4750 1894 4750 
Q 2613 4750 3031 4423 
Q 3450 4097 3450 3541 
Q 3450 3153 3228 2886 
Q 3006 2619 2597 2516 
z
" transform="scale(0.015625)"/>
       </defs>
       <use xlink:href="#DejaVuSans-32"/>
       <use xlink:href="#DejaVuSans-30" transform="translate(63.623047 0)"/>
       <use xlink:href="#DejaVuSans-32" transform="translate(127.246094 0)"/>
       <use xlink:href="#DejaVuSans-33" transform="translate(190.869141 0)"/>
       <use xlink:href="#DejaVuSans-2d" transform="translate(254.492188 0)"/>
       <use xlink:href="#DejaVuSans-30" transform="translate(290.576172 0)"/>
       <use xlink:href="#DejaVuSans-31" transform="translate(354.199219 0)"/>
      </g>
     </g>
    </g>
    <g id="xtick_5">
     <g id="line2d_9">
      <path d="M 455.117881 320.4 
L 455.117881 43.2 
" clip-path="url(#pfc384e9799)" style="fill: none; stroke-dasharray: 5.12,1.28,0.8,1.28; stroke-dashoffset: 0; stroke: #b0b0b0; stroke-width: 0.8"/>
     </g>
     <g id="line2d_10">
      <g>
       <use xlink:href="#m54f2c7a738" x="455.117881" y="320.4" style="fill: #a9a9a9; stroke: #a9a9a9; stroke-width: 0.8"/>
      </g>
     </g>
     <g id="text_5">
      <!-- 2023-07 -->
      <g style="fill: #a9a9a9" transform="translate(434.226475 334.998438) scale(0.1 -0.1)">
       <use xlink:href="#DejaVuSans-32"/>
       <use xlink:href="#DejaVuSans-30" transform="translate(63.623047 0)"/>
       <use xlink:href="#DejaVuSans-32" transform="translate(127.246094 0)"/>
       <use xlink:href="#DejaVuSans-33" transform="translate(190.869141 0)"/>
       <use xlink:href="#DejaVuSans-2d" transform="translate(254.492188 0)"/>
       <use xlink:href="#DejaVuSans-30" transform="translate(290.576172 0)"/>
       <use xlink:href="#DejaVuSans-37" transform="translate(354.199219 0)"/>
      </g>
     </g>
    </g>
    <g id="xtick_6">
     <g id="line2d_11">
      <path d="M 537.535701 320.4 
L 537.535701 43.2 
" clip-path="url(#pfc384e9799)" style="fill: none; stroke-dasharray: 5.12,1.28,0.8,1.28; stroke-dashoffset: 0; stroke: #b0b0b0; stroke-width: 0.8"/>
     </g>
     <g id="line2d_12">
      <g>
       <use xlink:href="#m54f2c7a738" x="537.535701" y="320.4" style="fill: #a9a9a9; stroke: #a9a9a9; stroke-width: 0.8"/>
      </g>
     </g>
     <g id="text_6">
      <!-- 2024-01 -->
      <g style="fill: #a9a9a9" transform="translate(516.644295 334.998438) scale(0.1 -0.1)">
       <defs>
        <path id="DejaVuSans-34" d="M 2419 4116 
L 825 1625 
L 2419 1625 
L 2419 4116 
z
M 2253 4666 
L 3047 4666 
L 3047 1625 
L 3713 1625 
L 3713 1100 
L 3047 1100 
L 3047 0 
L 2419 0 
L 2419 1100 
L 313 1100 
L 313 1709 
L 2253 4666 
z
" transform="scale(0.015625)"/>
       </defs>
       <use xlink:href="#DejaVuSans-32"/>
       <use xlink:href="#DejaVuSans-30" transform="translate(63.623047 0)"/>
       <use xlink:href="#DejaVuSans-32" transform="translate(127.246094 0)"/>
       <use xlink:href="#DejaVuSans-34" transform="translate(190.869141 0)"/>
       <use xlink:href="#DejaVuSans-2d" transform="translate(254.492188 0)"/>
       <use xlink:href="#DejaVuSans-30" transform="translate(290.576172 0)"/>
       <use xlink:href="#DejaVuSans-31" transform="translate(354.199219 0)"/>
      </g>
     </g>
    </g>
    <g id="xtick_7">
     <g id="line2d_13">
      <path d="M 619.057676 320.4 
L 619.057676 43.2 
" clip-path="url(#pfc384e9799)" style="fill: none; stroke-dasharray: 5.12,1.28,0.8,1.28; stroke-dashoffset: 0; stroke: #b0b0b0; stroke-width: 0.8"/>
     </g>
     <g id="line2d_14">
      <g>
       <use xlink:href="#m54f2c7a738" x="619.057676" y="320.4" style="fill: #a9a9a9; stroke: #a9a9a9; stroke-width: 0.8"/>
      </g>
     </g>
     <g id="text_7">
      <!-- 2024-07 -->
      <g style="fill: #a9a9a9" transform="translate(598.16627 334.998438) scale(0.1 -0.1)">
       <use xlink:href="#DejaVuSans-32"/>
       <use xlink:href="#DejaVuSans-30" transform="translate(63.623047 0)"/>
       <use xlink:href="#DejaVuSans-32" transform="translate(127.246094 0)"/>
       <use xlink:href="#DejaVuSans-34" transform="translate(190.869141 0)"/>
       <use xlink:href="#DejaVuSans-2d" transform="translate(254.492188 0)"/>
       <use xlink:href="#DejaVuSans-30" transform="translate(290.576172 0)"/>
       <use xlink:href="#DejaVuSans-37" transform="translate(354.199219 0)"/>
      </g>
     </g>
    </g>
    <g id="xtick_8">
     <g id="line2d_15">
      <path d="M 701.475497 320.4 
L 701.475497 43.2 
" clip-path="url(#pfc384e9799)" style="fill: none; stroke-dasharray: 5.12,1.28,0.8,1.28; stroke-dashoffset: 0; stroke: #b0b0b0; stroke-width: 0.8"/>
     </g>
     <g id="line2d_16">
      <g>
       <use xlink:href="#m54f2c7a738" x="701.475497" y="320.4" style="fill: #a9a9a9; stroke: #a9a9a9; stroke-width: 0.8"/>
      </g>
     </g>
     <g id="text_8">
      <!-- 2025-01 -->
      <g style="fill: #a9a9a9" transform="translate(680.58409 334.998438) scale(0.1 -0.1)">
       <defs>
        <path id="DejaVuSans-35" d="M 691 4666 
L 3169 4666 
L 3169 4134 
L 1269 4134 
L 1269 2991 
Q 1406 3038 1543 3061 
Q 1681 3084 1819 3084 
Q 2600 3084 3056 2656 
Q 3513 2228 3513 1497 
Q 3513 744 3044 326 
Q 2575 -91 1722 -91 
Q 1428 -91 1123 -41 
Q 819 9 494 109 
L 494 744 
Q 775 591 1075 516 
Q 1375 441 1709 441 
Q 2250 441 2565 725 
Q 2881 1009 2881 1497 
Q 2881 1984 2565 2268 
Q 2250 2553 1709 2553 
Q 1456 2553 1204 2497 
Q 953 2441 691 2322 
L 691 4666 
z
" transform="scale(0.015625)"/>
       </defs>
       <use xlink:href="#DejaVuSans-32"/>
       <use xlink:href="#DejaVuSans-30" transform="translate(63.623047 0)"/>
       <use xlink:href="#DejaVuSans-32" transform="translate(127.246094 0)"/>
       <use xlink:href="#DejaVuSans-35" transform="translate(190.869141 0)"/>
       <use xlink:href="#DejaVuSans-2d" transform="translate(254.492188 0)"/>
       <use xlink:href="#DejaVuSans-30" transform="translate(290.576172 0)"/>
       <use xlink:href="#DejaVuSans-31" transform="translate(354.199219 0)"/>
      </g>
     </g>
    </g>
   </g>
   <g id="matplotlib.axis_2">
    <g id="ytick_1">
     <g id="line2d_17">
      <path d="M 108 307.833497 
L 777.6 307.833497 
" clip-path="url(#pfc384e9799)" style="fill: none; stroke-dasharray: 5.12,1.28,0.8,1.28; stroke-dashoffset: 0; stroke: #b0b0b0; stroke-width: 0.8"/>
     </g>
     <g id="line2d_18">
      <defs>
       <path id="me132625ce3" d="M 0 0 
L -3.5 0 
" style="stroke: #a9a9a9; stroke-width: 0.8"/>
      </defs>
      <g>
       <use xlink:href="#me132625ce3" x="108" y="307.833497" style="fill: #a9a9a9; stroke: #a9a9a9; stroke-width: 0.8"/>
      </g>
     </g>
     <g id="text_9">
      <!-- 0 -->
      <g style="fill: #a9a9a9" transform="translate(94.6375 311.632716) scale(0.1 -0.1)">
       <use xlink:href="#DejaVuSans-30"/>
      </g>
     </g>
    </g>
    <g id="ytick_2">
     <g id="line2d_19">
      <path d="M 108 274.336222 
L 777.6 274.336222 
" clip-path="url(#pfc384e9799)" style="fill: none; stroke-dasharray: 5.12,1.28,0.8,1.28; stroke-dashoffset: 0; stroke: #b0b0b0; stroke-width: 0.8"/>
     </g>
     <g id="line2d_20">
      <g>
       <use xlink:href="#me132625ce3" x="108" y="274.336222" style="fill: #a9a9a9; stroke: #a9a9a9; stroke-width: 0.8"/>
      </g>
     </g>
     <g id="text_10">
      <!-- 1000 -->
      <g style="fill: #a9a9a9" transform="translate(75.55 278.135441) scale(0.1 -0.1)">
       <use xlink:href="#DejaVuSans-31"/>
       <use xlink:href="#DejaVuSans-30" transform="translate(63.623047 0)"/>
       <use xlink:href="#DejaVuSans-30" transform="translate(127.246094 0)"/>
       <use xlink:href="#DejaVuSans-30" transform="translate(190.869141 0)"/>
      </g>
     </g>
    </g>
    <g id="ytick_3">
     <g id="line2d_21">
      <path d="M 108 240.838947 
L 777.6 240.838947 
" clip-path="url(#pfc384e9799)" style="fill: none; stroke-dasharray: 5.12,1.28,0.8,1.28; stroke-dashoffset: 0; stroke: #b0b0b0; stroke-width: 0.8"/>
     </g>
     <g id="line2d_22">
      <g>
       <use xlink:href="#me132625ce3" x="108" y="240.838947" style="fill: #a9a9a9; stroke: #a9a9a9; stroke-width: 0.8"/>
      </g>
     </g>
     <g id="text_11">
      <!-- 2000 -->
      <g style="fill: #a9a9a9" transform="translate(75.55 244.638166) scale(0.1 -0.1)">
       <use xlink:href="#DejaVuSans-32"/>
       <use xlink:href="#DejaVuSans-30" transform="translate(63.623047 0)"/>
       <use xlink:href="#DejaVuSans-30" transform="translate(127.246094 0)"/>
       <use xlink:href="#DejaVuSans-30" transform="translate(190.869141 0)"/>
      </g>
     </g>
    </g>
    <g id="ytick_4">
     <g id="line2d_23">
      <path d="M 108 207.341672 
L 777.6 207.341672 
" clip-path="url(#pfc384e9799)" style="fill: none; stroke-dasharray: 5.12,1.28,0.8,1.28; stroke-dashoffset: 0; stroke: #b0b0b0; stroke-width: 0.8"/>
     </g>
     <g id="line2d_24">
      <g>
       <use xlink:href="#me132625ce3" x="108" y="207.341672" style="fill: #a9a9a9; stroke: #a9a9a9; stroke-width: 0.8"/>
      </g>
     </g>
     <g id="text_12">
      <!-- 3000 -->
      <g style="fill: #a9a9a9" transform="translate(75.55 211.140891) scale(0.1 -0.1)">
       <use xlink:href="#DejaVuSans-33"/>
       <use xlink:href="#DejaVuSans-30" transform="translate(63.623047 0)"/>
       <use xlink:href="#DejaVuSans-30" transform="translate(127.246094 0)"/>
       <use xlink:href="#DejaVuSans-30" transform="translate(190.869141 0)"/>
      </g>
     </g>
    </g>
    <g id="ytick_5">
     <g id="line2d_25">
      <path d="M 108 173.844397 
L 777.6 173.844397 
" clip-path="url(#pfc384e9799)" style="fill: none; stroke-dasharray: 5.12,1.28,0.8,1.28; stroke-dashoffset: 0; stroke: #b0b0b0; stroke-width: 0.8"/>
     </g>
     <g id="line2d_26">
      <g>
       <use xlink:href="#me132625ce3" x="108" y="173.844397" style="fill: #a9a9a9; stroke: #a9a9a9; stroke-width: 0.8"/>
      </g>
     </g>
     <g id="text_13">
      <!-- 4000 -->
      <g style="fill: #a9a9a9" transform="translate(75.55 177.643616) scale(0.1 -0.1)">
       <use xlink:href="#DejaVuSans-34"/>
       <use xlink:href="#DejaVuSans-30" transform="translate(63.623047 0)"/>
       <use xlink:href="#DejaVuSans-30" transform="translate(127.246094 0)"/>
       <use xlink:href="#DejaVuSans-30" transform="translate(190.869141 0)"/>
      </g>
     </g>
    </g>
    <g id="ytick_6">
     <g id="line2d_27">
      <path d="M 108 140.347122 
L 777.6 140.347122 
" clip-path="url(#pfc384e9799)" style="fill: none; stroke-dasharray: 5.12,1.28,0.8,1.28; stroke-dashoffset: 0; stroke: #b0b0b0; stroke-width: 0.8"/>
     </g>
     <g id="line2d_28">
      <g>
       <use xlink:href="#me132625ce3" x="108" y="140.347122" style="fill: #a9a9a9; stroke: #a9a9a9; stroke-width: 0.8"/>
      </g>
     </g>
     <g id="text_14">
      <!-- 5000 -->
      <g style="fill: #a9a9a9" transform="translate(75.55 144.146341) scale(0.1 -0.1)">
       <use xlink:href="#DejaVuSans-35"/>
       <use xlink:href="#DejaVuSans-30" transform="translate(63.623047 0)"/>
       <use xlink:href="#DejaVuSans-30" transform="translate(127.246094 0)"/>
       <use xlink:href="#DejaVuSans-30" transform="translate(190.869141 0)"/>
      </g>
     </g>
    </g>
    <g id="ytick_7">
     <g id="line2d_29">
      <path d="M 108 106.849847 
L 777.6 106.849847 
" clip-path="url(#pfc384e9799)" style="fill: none; stroke-dasharray: 5.12,1.28,0.8,1.28; stroke-dashoffset: 0; stroke: #b0b0b0; stroke-width: 0.8"/>
     </g>
     <g id="line2d_30">
      <g>
       <use xlink:href="#me132625ce3" x="108" y="106.849847" style="fill: #a9a9a9; stroke: #a9a9a9; stroke-width: 0.8"/>
      </g>
     </g>
     <g id="text_15">
      <!-- 6000 -->
      <g style="fill: #a9a9a9" transform="translate(75.55 110.649066) scale(0.1 -0.1)">
       <defs>
        <path id="DejaVuSans-36" d="M 2113 2584 
Q 1688 2584 1439 2293 
Q 1191 2003 1191 1497 
Q 1191 994 1439 701 
Q 1688 409 2113 409 
Q 2538 409 2786 701 
Q 3034 994 3034 1497 
Q 3034 2003 2786 2293 
Q 2538 2584 2113 2584 
z
M 3366 4563 
L 3366 3988 
Q 3128 4100 2886 4159 
Q 2644 4219 2406 4219 
Q 1781 4219 1451 3797 
Q 1122 3375 1075 2522 
Q 1259 2794 1537 2939 
Q 1816 3084 2150 3084 
Q 2853 3084 3261 2657 
Q 3669 2231 3669 1497 
Q 3669 778 3244 343 
Q 2819 -91 2113 -91 
Q 1303 -91 875 529 
Q 447 1150 447 2328 
Q 447 3434 972 4092 
Q 1497 4750 2381 4750 
Q 2619 4750 2861 4703 
Q 3103 4656 3366 4563 
z
" transform="scale(0.015625)"/>
       </defs>
       <use xlink:href="#DejaVuSans-36"/>
       <use xlink:href="#DejaVuSans-30" transform="translate(63.623047 0)"/>
       <use xlink:href="#DejaVuSans-30" transform="translate(127.246094 0)"/>
       <use xlink:href="#DejaVuSans-30" transform="translate(190.869141 0)"/>
      </g>
     </g>
    </g>
    <g id="ytick_8">
     <g id="line2d_31">
      <path d="M 108 73.352572 
L 777.6 73.352572 
" clip-path="url(#pfc384e9799)" style="fill: none; stroke-dasharray: 5.12,1.28,0.8,1.28; stroke-dashoffset: 0; stroke: #b0b0b0; stroke-width: 0.8"/>
     </g>
     <g id="line2d_32">
      <g>
       <use xlink:href="#me132625ce3" x="108" y="73.352572" style="fill: #a9a9a9; stroke: #a9a9a9; stroke-width: 0.8"/>
      </g>
     </g>
     <g id="text_16">
      <!-- 7000 -->
      <g style="fill: #a9a9a9" transform="translate(75.55 77.151791) scale(0.1 -0.1)">
       <use xlink:href="#DejaVuSans-37"/>
       <use xlink:href="#DejaVuSans-30" transform="translate(63.623047 0)"/>
       <use xlink:href="#DejaVuSans-30" transform="translate(127.246094 0)"/>
       <use xlink:href="#DejaVuSans-30" transform="translate(190.869141 0)"/>
      </g>
     </g>
    </g>
   </g>
   <g id="line2d_33">
    <path d="M 138.436364 307.733005 
L 141.123901 307.498525 
L 141.571824 307.297541 
L 143.363516 307.06306 
L 145.155208 306.69459 
L 146.051054 306.560601 
L 148.290668 306.359617 
L 149.186514 305.991147 
L 149.634437 305.388196 
L 150.08236 305.086721 
L 150.530283 304.081802 
L 150.978206 304.014808 
L 151.426129 303.646338 
L 152.321975 303.177376 
L 154.113666 301.703496 
L 155.905358 300.79907 
L 157.249127 300.162621 
L 157.69705 299.425681 
L 158.592896 298.755736 
L 159.040819 298.554752 
L 163.520048 297.884807 
L 163.967971 297.683823 
L 167.103432 297.415845 
L 168.895123 296.98038 
L 172.478507 296.477921 
L 172.92643 296.24344 
L 173.374353 296.176446 
L 174.270199 295.87497 
L 177.405659 295.339014 
L 178.301505 295.071035 
L 182.332812 294.367593 
L 183.228657 294.166609 
L 184.124503 294.133112 
L 185.916195 293.697647 
L 186.364118 293.061199 
L 187.707887 292.525243 
L 189.051656 292.156773 
L 189.499579 291.922292 
L 190.395424 291.754805 
L 192.187116 291.218849 
L 193.082962 291.151854 
L 193.978808 290.917373 
L 195.7705 290.448412 
L 196.218423 290.414914 
L 197.114269 289.97945 
L 197.562191 289.912455 
L 198.010114 289.677974 
L 202.937267 288.840542 
L 204.728958 288.304586 
L 205.176881 288.00311 
L 207.416496 287.26617 
L 208.312342 286.629722 
L 209.656111 286.361744 
L 219.510415 283.447481 
L 219.958338 283.413984 
L 221.302107 283.012016 
L 221.75003 283.012016 
L 222.197953 282.811033 
L 223.093799 282.710541 
L 223.541722 282.543055 
L 225.333414 282.47606 
L 226.229259 282.308574 
L 227.125105 281.839612 
L 228.468874 281.337153 
L 228.916797 281.035677 
L 229.812643 280.63371 
L 230.260566 280.399229 
L 231.156412 280.097754 
L 231.604335 279.963764 
L 232.500181 279.394311 
L 232.948104 278.891852 
L 233.843949 277.484966 
L 234.291872 277.350977 
L 234.739795 277.350977 
L 236.083564 276.547042 
L 236.531487 276.312561 
L 236.97941 276.21207 
L 237.427333 275.776605 
L 238.323179 275.408135 
L 239.219025 274.97267 
L 241.458639 272.058408 
L 244.146177 270.584527 
L 245.042023 269.847587 
L 245.489946 269.546112 
L 245.937869 268.909664 
L 246.385792 267.871248 
L 246.833715 267.167805 
L 247.281638 266.799335 
L 247.729561 266.598352 
L 251.312944 263.248624 
L 252.20879 262.411192 
L 254.896328 260.702831 
L 255.34425 260.535345 
L 256.688019 259.73141 
L 258.031788 258.826984 
L 259.82348 257.185617 
L 260.719326 256.817147 
L 261.615172 256.180699 
L 262.063095 255.912721 
L 262.511017 255.845726 
L 263.854786 255.075289 
L 264.302709 254.57283 
L 266.542324 253.333431 
L 266.990247 253.165944 
L 268.334016 252.228021 
L 275.05286 249.816217 
L 275.948706 248.978785 
L 277.292474 248.30884 
L 278.18832 247.739386 
L 279.084166 247.471408 
L 279.532089 247.169932 
L 279.980012 247.035943 
L 281.323781 246.131517 
L 283.563396 245.629058 
L 284.907164 244.825123 
L 286.250933 244.523647 
L 286.698856 244.423156 
L 288.042625 243.38474 
L 289.834317 242.882281 
L 290.28224 242.513811 
L 292.969777 241.575887 
L 293.865623 241.408401 
L 294.761469 241.039931 
L 297.89693 239.867526 
L 298.792775 239.733537 
L 300.136544 239.264575 
L 302.376159 238.159165 
L 304.167851 237.154247 
L 307.751234 235.64687 
L 308.199157 235.579875 
L 309.095003 235.010421 
L 309.990849 234.77594 
L 311.334618 234.239984 
L 313.126309 234.005503 
L 314.022155 233.536541 
L 314.470078 233.134574 
L 314.918001 232.297142 
L 316.709693 231.794683 
L 318.053462 231.09124 
L 318.949308 230.789765 
L 319.845154 230.320803 
L 322.532691 229.215393 
L 323.428537 229.014409 
L 324.324383 228.545447 
L 324.772306 228.344464 
L 325.220229 228.277469 
L 327.459843 227.172059 
L 328.355689 226.602605 
L 329.699458 226.334627 
L 331.939073 225.765173 
L 332.386996 225.396703 
L 333.282842 225.095228 
L 335.522456 224.190802 
L 335.970379 223.855829 
L 336.418302 223.688342 
L 337.314148 223.185883 
L 339.10584 222.61643 
L 340.001686 222.046976 
L 340.449609 221.578014 
L 340.897532 221.310036 
L 341.345455 221.209544 
L 342.2413 220.472604 
L 342.689223 220.405609 
L 343.137146 219.668669 
L 343.585069 219.467686 
L 344.032992 219.099216 
L 344.480915 219.032221 
L 345.376761 218.462768 
L 346.272607 218.161292 
L 346.72053 217.826319 
L 347.168453 217.658833 
L 348.960144 216.452931 
L 350.303913 215.749488 
L 351.199759 215.515007 
L 352.095605 215.012548 
L 352.543528 214.242111 
L 353.439374 213.572165 
L 353.887297 213.471674 
L 356.574834 212.16528 
L 357.47068 211.79681 
L 358.814449 210.657902 
L 359.710295 209.887465 
L 360.606141 209.351509 
L 361.054064 208.84905 
L 361.501987 208.547574 
L 362.397833 207.810634 
L 362.845756 207.60965 
L 363.741601 206.705224 
L 364.637447 206.403749 
L 365.533293 205.800798 
L 366.877062 205.097355 
L 367.324985 205.03036 
L 368.668754 204.29342 
L 369.5646 203.723967 
L 374.043829 202.049103 
L 374.491752 201.680633 
L 376.283444 200.97719 
L 376.731367 200.843201 
L 377.627213 200.24025 
L 378.523058 199.87178 
L 379.418904 199.235332 
L 380.31475 197.426479 
L 381.210596 196.354566 
L 382.554365 195.651123 
L 383.450211 195.282653 
L 383.898134 195.215659 
L 384.346057 194.94768 
L 386.585671 194.21074 
L 387.033594 194.009757 
L 387.92944 193.406806 
L 389.273209 192.837352 
L 390.169055 192.334893 
L 391.064901 191.798937 
L 391.512824 191.497461 
L 391.960747 190.995002 
L 392.856592 190.492543 
L 395.096207 189.253144 
L 397.783745 187.913253 
L 399.127514 187.511285 
L 400.471282 186.975329 
L 400.919205 186.640356 
L 401.815051 186.372378 
L 402.710897 186.003908 
L 403.15882 185.635438 
L 404.950512 184.99899 
L 405.846358 184.362542 
L 406.742203 183.994072 
L 407.638049 183.290629 
L 408.533895 183.022651 
L 408.981818 182.620683 
L 409.429741 182.553689 
L 410.325587 181.850246 
L 411.221433 181.381284 
L 411.669356 181.1803 
L 412.117279 180.711339 
L 415.252739 179.438442 
L 416.148585 179.036475 
L 417.492354 178.60101 
L 418.3882 178.467021 
L 418.836123 178.266037 
L 419.284046 178.199043 
L 420.179892 177.797076 
L 420.627815 177.763578 
L 422.419506 177.093633 
L 423.763275 176.122212 
L 424.211198 175.954726 
L 425.107044 175.452266 
L 425.554967 175.318277 
L 428.242505 173.777403 
L 428.690427 173.676911 
L 430.034196 172.872976 
L 431.377965 172.404014 
L 432.273811 172.102539 
L 434.065503 171.499588 
L 434.961349 171.198112 
L 436.75304 170.829642 
L 437.200963 170.628659 
L 438.096809 170.394178 
L 438.544732 170.193194 
L 438.992655 170.1262 
L 439.440578 169.891719 
L 440.336424 169.724232 
L 441.680193 169.221773 
L 442.576039 169.121281 
L 443.919807 168.819806 
L 446.159422 168.417839 
L 457.805418 164.934122 
L 458.253341 164.46516 
L 459.149187 164.09669 
L 462.732571 162.723302 
L 463.180494 162.455324 
L 464.524262 162.053356 
L 465.420108 161.818875 
L 465.868031 161.5174 
L 466.315954 161.416908 
L 466.763877 161.014941 
L 468.107646 160.746963 
L 469.003492 160.311498 
L 469.451415 159.775542 
L 471.243107 159.340077 
L 474.378567 158.670132 
L 474.82649 158.670132 
L 475.274413 158.469148 
L 477.066105 158.134175 
L 477.514028 157.933192 
L 479.305719 157.598219 
L 480.201565 157.229749 
L 481.097411 157.062262 
L 483.337026 156.492809 
L 485.128718 155.923355 
L 485.576641 155.822863 
L 486.024564 155.588382 
L 486.920409 155.353901 
L 487.816255 154.985431 
L 488.712101 154.650459 
L 489.160024 154.348983 
L 490.05587 154.081005 
L 493.639253 152.841606 
L 494.535099 152.774611 
L 496.326791 152.238655 
L 496.774714 151.970677 
L 497.67056 151.702698 
L 499.910175 150.664283 
L 500.358098 150.630786 
L 505.28525 148.85543 
L 507.524865 148.252479 
L 508.42071 147.817014 
L 509.764479 147.515539 
L 511.556171 146.041659 
L 513.347863 145.271222 
L 514.243709 144.869254 
L 516.931246 143.830839 
L 517.379169 143.529363 
L 519.618784 142.792423 
L 520.962553 142.021986 
L 521.410476 141.921494 
L 523.202167 140.916576 
L 524.993859 140.112641 
L 525.441782 139.777668 
L 526.337628 139.476193 
L 528.577243 138.337286 
L 529.921011 137.868324 
L 531.712703 137.131384 
L 533.056472 136.628925 
L 533.504395 136.461438 
L 534.400241 136.327449 
L 534.848164 136.025974 
L 536.639856 135.657504 
L 537.535701 135.289034 
L 539.327393 134.451602 
L 545.598314 131.704825 
L 546.942083 131.269361 
L 547.390006 130.967885 
L 548.285852 130.867393 
L 548.733775 130.565918 
L 549.629621 130.398431 
L 550.525467 129.962967 
L 550.97339 129.761983 
L 551.869235 129.527502 
L 552.765081 129.259524 
L 554.10885 128.757065 
L 555.452619 128.3216 
L 556.796388 128.020125 
L 558.588079 127.283185 
L 559.483925 126.780726 
L 561.275617 125.876299 
L 562.171463 125.675316 
L 562.619386 125.407337 
L 563.067309 125.306846 
L 564.411078 124.536408 
L 565.306924 124.167938 
L 567.098615 123.464496 
L 569.33823 122.694058 
L 570.234076 122.225096 
L 572.473691 121.454659 
L 575.161228 120.349249 
L 576.95292 119.511817 
L 581.432149 117.769959 
L 582.327995 117.334494 
L 582.775918 117.234002 
L 583.223841 116.999521 
L 585.015533 116.497062 
L 586.807225 115.023182 
L 587.255148 114.889193 
L 587.70307 114.621215 
L 589.046839 114.252745 
L 589.494762 113.917772 
L 589.942685 113.81728 
L 590.838531 113.247827 
L 592.1823 112.544384 
L 593.078146 112.175914 
L 593.526069 111.941433 
L 594.869837 111.639957 
L 597.109452 110.86952 
L 598.005298 110.568045 
L 599.349067 109.864602 
L 600.244913 109.429137 
L 601.140759 109.194656 
L 602.484527 108.558208 
L 606.515834 107.050831 
L 607.859603 106.213399 
L 608.307526 106.112907 
L 609.203371 105.677443 
L 610.099217 105.34247 
L 610.54714 104.940502 
L 611.442986 104.572032 
L 612.786755 104.103071 
L 613.234678 103.734601 
L 613.682601 103.701103 
L 614.578447 103.433125 
L 615.474293 103.13165 
L 615.922216 102.930666 
L 616.370138 102.863671 
L 617.713907 102.361212 
L 619.057676 101.858753 
L 620.849368 101.054819 
L 621.297291 100.987824 
L 624.880674 99.480447 
L 626.224443 99.044982 
L 627.120289 98.977988 
L 628.016135 98.609517 
L 630.703672 97.805583 
L 631.599518 97.772086 
L 635.182902 96.599681 
L 636.078748 96.130719 
L 636.526671 95.728752 
L 637.870439 94.924817 
L 638.318362 94.589844 
L 639.662131 94.15438 
L 640.557977 93.886402 
L 641.0059 93.651921 
L 641.453823 93.551429 
L 641.901746 93.182959 
L 644.589284 92.044052 
L 646.380975 91.57509 
L 647.276821 91.173122 
L 647.724744 90.938641 
L 648.62059 90.670663 
L 649.068513 90.402685 
L 649.964359 90.235199 
L 653.547742 88.694324 
L 653.995665 88.62733 
L 654.443588 88.325854 
L 654.891511 88.158368 
L 655.339434 87.7564 
L 655.787357 87.689406 
L 657.579049 86.985963 
L 659.370741 86.550498 
L 659.818663 86.483504 
L 660.266586 86.28252 
L 660.714509 86.249023 
L 661.610355 85.947548 
L 662.058278 85.91405 
L 663.402047 85.378094 
L 665.193739 84.842137 
L 666.089585 84.172192 
L 667.881276 83.167274 
L 669.225045 82.698312 
L 672.808429 80.989951 
L 673.256352 80.75547 
L 673.704275 80.320005 
L 675.943889 79.717054 
L 677.287658 79.114103 
L 678.183504 78.879622 
L 678.631427 78.645142 
L 679.07935 78.276672 
L 680.871042 77.80771 
L 681.318964 77.472737 
L 687.141963 75.362409 
L 688.037809 75.194922 
L 690.277423 74.491479 
L 691.173269 74.123009 
L 692.069115 73.788037 
L 692.964961 73.553556 
L 693.412884 73.352572 
L 693.860807 73.352572 
L 694.756653 72.984102 
L 695.652498 72.448146 
L 698.787959 71.40973 
L 700.579651 70.806779 
L 701.92342 70.505304 
L 703.267188 70.069839 
L 703.715111 69.969347 
L 704.163034 69.667872 
L 705.05888 69.466888 
L 714.017339 66.887598 
L 716.256954 66.485631 
L 717.1528 66.050166 
L 718.048645 65.614702 
L 719.392414 65.212734 
L 723.871644 63.571368 
L 724.319567 63.236395 
L 725.663335 62.93492 
L 726.559181 62.666941 
L 727.455027 62.231477 
L 727.90295 61.82951 
L 728.798796 61.528034 
L 729.246719 61.260056 
L 730.142565 61.159564 
L 733.278025 60.288635 
L 734.621794 60.020657 
L 737.309332 59.11623 
L 739.101023 58.245301 
L 744.476099 56.335956 
L 747.163636 55.8 
L 747.163636 55.8 
" clip-path="url(#pfc384e9799)" style="fill: none; stroke: #1f77b4; stroke-width: 1.5; stroke-linecap: square"/>
   </g>
   <g id="line2d_34">
    <path d="M 138.884287 307.8 
L 142.915593 307.699508 
L 146.498977 307.532022 
L 148.290668 307.532022 
L 148.738591 307.398033 
L 150.978206 307.297541 
L 153.665744 306.996065 
L 156.353281 306.895574 
L 157.249127 306.795082 
L 160.384588 306.661093 
L 163.520048 306.560601 
L 165.759663 306.493606 
L 171.582661 306.393114 
L 173.822276 306.32612 
L 177.853582 306.225628 
L 179.645274 306.192131 
L 184.124503 306.091639 
L 185.916195 305.924153 
L 187.707887 305.890655 
L 190.395424 305.790163 
L 192.187116 305.756666 
L 194.426731 305.689672 
L 196.218423 305.522185 
L 200.249729 305.421693 
L 201.145575 305.354699 
L 202.937267 305.254207 
L 205.624804 305.153715 
L 207.416496 305.053223 
L 215.479109 304.550764 
L 218.61457 304.450272 
L 219.958338 304.316283 
L 222.197953 304.215792 
L 226.677182 303.981311 
L 231.156412 303.914316 
L 232.948104 303.713332 
L 234.739795 303.612841 
L 239.666948 303.143879 
L 242.802408 302.775409 
L 244.146177 302.708414 
L 247.729561 302.239452 
L 250.417098 302.172458 
L 251.760867 302.038469 
L 253.104636 301.937977 
L 265.646478 300.966556 
L 266.542324 300.79907 
L 269.229862 300.698578 
L 276.396629 300.263113 
L 279.532089 300.162621 
L 281.323781 299.961638 
L 283.563396 299.861146 
L 286.250933 299.760654 
L 288.490548 299.660162 
L 290.28224 299.626665 
L 292.521854 299.55967 
L 293.4177 299.425681 
L 299.688621 299.325189 
L 300.584467 299.224698 
L 305.959542 299.124206 
L 309.990849 298.923222 
L 313.126309 298.82273 
L 314.918001 298.621747 
L 318.053462 298.521255 
L 318.949308 298.353768 
L 321.188922 298.286774 
L 325.668152 298.219779 
L 327.459843 298.052293 
L 329.251535 298.018796 
L 330.595304 297.918304 
L 332.386996 297.750817 
L 336.866225 297.516337 
L 341.345455 297.415845 
L 345.376761 297.214861 
L 346.72053 297.181364 
L 347.616376 297.047375 
L 349.85599 296.946883 
L 350.751836 296.879888 
L 351.647682 296.812894 
L 352.543528 296.745899 
L 356.574834 296.678905 
L 357.918603 296.578413 
L 370.012523 295.774478 
L 372.252137 295.673986 
L 374.491752 295.606992 
L 380.762673 295.5065 
L 381.658519 295.372511 
L 387.92944 295.272019 
L 392.408669 295.037538 
L 393.304515 295.004041 
L 394.200361 294.903549 
L 396.439976 294.803057 
L 398.679591 294.736063 
L 400.919205 294.635571 
L 403.15882 294.568576 
L 407.190126 294.468085 
L 409.877664 294.367593 
L 416.148585 294.267101 
L 421.075738 293.999123 
L 422.867429 293.932128 
L 424.211198 293.831636 
L 430.482119 293.731144 
L 433.169657 293.630653 
L 441.23227 293.530161 
L 443.023961 293.496664 
L 448.399037 293.429669 
L 449.294883 293.362674 
L 455.565804 293.262183 
L 457.357495 293.228685 
L 469.003492 293.128194 
L 471.69103 293.027702 
L 490.503793 292.92721 
L 492.743408 292.860215 
L 504.389404 292.793221 
L 505.28525 292.726226 
L 507.524865 292.659232 
L 508.868633 292.525243 
L 511.556171 292.424751 
L 514.691632 292.290762 
L 518.722938 292.19027 
L 520.962553 292.123275 
L 524.098013 292.022783 
L 527.681397 291.855297 
L 529.921011 291.754805 
L 531.712703 291.721308 
L 535.74401 291.620816 
L 537.535701 291.587319 
L 543.3587 291.486827 
L 545.150391 291.45333 
L 547.390006 291.352838 
L 550.077544 291.252346 
L 553.213004 291.185352 
L 554.10885 291.118357 
L 564.859001 291.017865 
L 570.681999 290.682892 
L 572.921613 290.615898 
L 573.817459 290.515406 
L 574.713305 290.448412 
L 578.296689 290.34792 
L 580.984226 290.247428 
L 585.463456 290.146936 
L 587.70307 289.912455 
L 592.1823 289.811963 
L 593.078146 289.711471 
L 597.557375 289.61098 
L 599.79699 289.543985 
L 604.724142 289.510488 
L 605.619988 289.409996 
L 610.54714 289.309504 
L 611.442986 289.24251 
L 621.297291 289.142018 
L 623.984828 289.041526 
L 630.703672 288.941034 
L 632.495364 288.907537 
L 636.526671 288.840542 
L 637.422517 288.740051 
L 643.245515 288.639559 
L 645.485129 288.572564 
L 653.547742 288.472072 
L 654.891511 288.37158 
L 656.23528 288.271089 
L 657.579049 288.170597 
L 664.297893 288.070105 
L 666.98543 287.969613 
L 679.07935 287.869121 
L 683.110656 287.668138 
L 688.485731 287.567646 
L 689.381577 287.500651 
L 696.100421 287.433657 
L 696.996267 287.366662 
L 701.92342 287.26617 
L 703.715111 287.232673 
L 709.986033 287.132181 
L 712.67357 287.031689 
L 720.28826 286.931198 
L 722.079952 286.8977 
L 726.111258 286.797209 
L 729.694642 286.629722 
L 734.621794 286.52923 
L 737.757255 286.395241 
L 741.788561 286.294749 
L 742.684407 286.227755 
L 747.163636 286.16076 
L 747.163636 286.16076 
" clip-path="url(#pfc384e9799)" style="fill: none; stroke: #ff7f0e; stroke-width: 1.5; stroke-linecap: square"/>
   </g>
   <g id="patch_3">
    <path d="M 108 320.4 
L 108 43.2 
" style="fill: none; stroke: #a9a9a9; stroke-width: 0.8; stroke-linejoin: miter; stroke-linecap: square"/>
   </g>
   <g id="patch_4">
    <path d="M 777.6 320.4 
L 777.6 43.2 
" style="fill: none"/>
   </g>
   <g id="patch_5">
    <path d="M 108 320.4 
L 777.6 320.4 
" style="fill: none; stroke: #a9a9a9; stroke-width: 0.8; stroke-linejoin: miter; stroke-linecap: square"/>
   </g>
   <g id="patch_6">
    <path d="M 108 43.2 
L 777.6 43.2 
" style="fill: none"/>
   </g>
   <g id="text_17">
    <!-- get_subscribe history -->
    <g style="fill: #a9a9a9" transform="translate(378.6075 37.2) scale(0.12 -0.12)">
     <defs>
      <path id="DejaVuSans-67" d="M 2906 1791 
Q 2906 2416 2648 2759 
Q 2391 3103 1925 3103 
Q 1463 3103 1205 2759 
Q 947 2416 947 1791 
Q 947 1169 1205 825 
Q 1463 481 1925 481 
Q 2391 481 2648 825 
Q 2906 1169 2906 1791 
z
M 3481 434 
Q 3481 -459 3084 -895 
Q 2688 -1331 1869 -1331 
Q 1566 -1331 1297 -1286 
Q 1028 -1241 775 -1147 
L 775 -588 
Q 1028 -725 1275 -790 
Q 1522 -856 1778 -856 
Q 2344 -856 2625 -561 
Q 2906 -266 2906 331 
L 2906 616 
Q 2728 306 2450 153 
Q 2172 0 1784 0 
Q 1141 0 747 490 
Q 353 981 353 1791 
Q 353 2603 747 3093 
Q 1141 3584 1784 3584 
Q 2172 3584 2450 3431 
Q 2728 3278 2906 2969 
L 2906 3500 
L 3481 3500 
L 3481 434 
z
" transform="scale(0.015625)"/>
      <path id="DejaVuSans-65" d="M 3597 1894 
L 3597 1613 
L 953 1613 
Q 991 1019 1311 708 
Q 1631 397 2203 397 
Q 2534 397 2845 478 
Q 3156 559 3463 722 
L 3463 178 
Q 3153 47 2828 -22 
Q 2503 -91 2169 -91 
Q 1331 -91 842 396 
Q 353 884 353 1716 
Q 353 2575 817 3079 
Q 1281 3584 2069 3584 
Q 2775 3584 3186 3129 
Q 3597 2675 3597 1894 
z
M 3022 2063 
Q 3016 2534 2758 2815 
Q 2500 3097 2075 3097 
Q 1594 3097 1305 2825 
Q 1016 2553 972 2059 
L 3022 2063 
z
" transform="scale(0.015625)"/>
      <path id="DejaVuSans-74" d="M 1172 4494 
L 1172 3500 
L 2356 3500 
L 2356 3053 
L 1172 3053 
L 1172 1153 
Q 1172 725 1289 603 
Q 1406 481 1766 481 
L 2356 481 
L 2356 0 
L 1766 0 
Q 1100 0 847 248 
Q 594 497 594 1153 
L 594 3053 
L 172 3053 
L 172 3500 
L 594 3500 
L 594 4494 
L 1172 4494 
z
" transform="scale(0.015625)"/>
      <path id="DejaVuSans-5f" d="M 3263 -1063 
L 3263 -1509 
L -63 -1509 
L -63 -1063 
L 3263 -1063 
z
" transform="scale(0.015625)"/>
      <path id="DejaVuSans-73" d="M 2834 3397 
L 2834 2853 
Q 2591 2978 2328 3040 
Q 2066 3103 1784 3103 
Q 1356 3103 1142 2972 
Q 928 2841 928 2578 
Q 928 2378 1081 2264 
Q 1234 2150 1697 2047 
L 1894 2003 
Q 2506 1872 2764 1633 
Q 3022 1394 3022 966 
Q 3022 478 2636 193 
Q 2250 -91 1575 -91 
Q 1294 -91 989 -36 
Q 684 19 347 128 
L 347 722 
Q 666 556 975 473 
Q 1284 391 1588 391 
Q 1994 391 2212 530 
Q 2431 669 2431 922 
Q 2431 1156 2273 1281 
Q 2116 1406 1581 1522 
L 1381 1569 
Q 847 1681 609 1914 
Q 372 2147 372 2553 
Q 372 3047 722 3315 
Q 1072 3584 1716 3584 
Q 2034 3584 2315 3537 
Q 2597 3491 2834 3397 
z
" transform="scale(0.015625)"/>
      <path id="DejaVuSans-75" d="M 544 1381 
L 544 3500 
L 1119 3500 
L 1119 1403 
Q 1119 906 1312 657 
Q 1506 409 1894 409 
Q 2359 409 2629 706 
Q 2900 1003 2900 1516 
L 2900 3500 
L 3475 3500 
L 3475 0 
L 2900 0 
L 2900 538 
Q 2691 219 2414 64 
Q 2138 -91 1772 -91 
Q 1169 -91 856 284 
Q 544 659 544 1381 
z
M 1991 3584 
L 1991 3584 
z
" transform="scale(0.015625)"/>
      <path id="DejaVuSans-62" d="M 3116 1747 
Q 3116 2381 2855 2742 
Q 2594 3103 2138 3103 
Q 1681 3103 1420 2742 
Q 1159 2381 1159 1747 
Q 1159 1113 1420 752 
Q 1681 391 2138 391 
Q 2594 391 2855 752 
Q 3116 1113 3116 1747 
z
M 1159 2969 
Q 1341 3281 1617 3432 
Q 1894 3584 2278 3584 
Q 2916 3584 3314 3078 
Q 3713 2572 3713 1747 
Q 3713 922 3314 415 
Q 2916 -91 2278 -91 
Q 1894 -91 1617 61 
Q 1341 213 1159 525 
L 1159 0 
L 581 0 
L 581 4863 
L 1159 4863 
L 1159 2969 
z
" transform="scale(0.015625)"/>
      <path id="DejaVuSans-63" d="M 3122 3366 
L 3122 2828 
Q 2878 2963 2633 3030 
Q 2388 3097 2138 3097 
Q 1578 3097 1268 2742 
Q 959 2388 959 1747 
Q 959 1106 1268 751 
Q 1578 397 2138 397 
Q 2388 397 2633 464 
Q 2878 531 3122 666 
L 3122 134 
Q 2881 22 2623 -34 
Q 2366 -91 2075 -91 
Q 1284 -91 818 406 
Q 353 903 353 1747 
Q 353 2603 823 3093 
Q 1294 3584 2113 3584 
Q 2378 3584 2631 3529 
Q 2884 3475 3122 3366 
z
" transform="scale(0.015625)"/>
      <path id="DejaVuSans-72" d="M 2631 2963 
Q 2534 3019 2420 3045 
Q 2306 3072 2169 3072 
Q 1681 3072 1420 2755 
Q 1159 2438 1159 1844 
L 1159 0 
L 581 0 
L 581 3500 
L 1159 3500 
L 1159 2956 
Q 1341 3275 1631 3429 
Q 1922 3584 2338 3584 
Q 2397 3584 2469 3576 
Q 2541 3569 2628 3553 
L 2631 2963 
z
" transform="scale(0.015625)"/>
      <path id="DejaVuSans-69" d="M 603 3500 
L 1178 3500 
L 1178 0 
L 603 0 
L 603 3500 
z
M 603 4863 
L 1178 4863 
L 1178 4134 
L 603 4134 
L 603 4863 
z
" transform="scale(0.015625)"/>
      <path id="DejaVuSans-20" transform="scale(0.015625)"/>
      <path id="DejaVuSans-68" d="M 3513 2113 
L 3513 0 
L 2938 0 
L 2938 2094 
Q 2938 2591 2744 2837 
Q 2550 3084 2163 3084 
Q 1697 3084 1428 2787 
Q 1159 2491 1159 1978 
L 1159 0 
L 581 0 
L 581 4863 
L 1159 4863 
L 1159 2956 
Q 1366 3272 1645 3428 
Q 1925 3584 2291 3584 
Q 2894 3584 3203 3211 
Q 3513 2838 3513 2113 
z
" transform="scale(0.015625)"/>
      <path id="DejaVuSans-6f" d="M 1959 3097 
Q 1497 3097 1228 2736 
Q 959 2375 959 1747 
Q 959 1119 1226 758 
Q 1494 397 1959 397 
Q 2419 397 2687 759 
Q 2956 1122 2956 1747 
Q 2956 2369 2687 2733 
Q 2419 3097 1959 3097 
z
M 1959 3584 
Q 2709 3584 3137 3096 
Q 3566 2609 3566 1747 
Q 3566 888 3137 398 
Q 2709 -91 1959 -91 
Q 1206 -91 779 398 
Q 353 888 353 1747 
Q 353 2609 779 3096 
Q 1206 3584 1959 3584 
z
" transform="scale(0.015625)"/>
      <path id="DejaVuSans-79" d="M 2059 -325 
Q 1816 -950 1584 -1140 
Q 1353 -1331 966 -1331 
L 506 -1331 
L 506 -850 
L 844 -850 
Q 1081 -850 1212 -737 
Q 1344 -625 1503 -206 
L 1606 56 
L 191 3500 
L 800 3500 
L 1894 763 
L 2988 3500 
L 3597 3500 
L 2059 -325 
z
" transform="scale(0.015625)"/>
     </defs>
     <use xlink:href="#DejaVuSans-67"/>
     <use xlink:href="#DejaVuSans-65" transform="translate(63.476562 0)"/>
     <use xlink:href="#DejaVuSans-74" transform="translate(125 0)"/>
     <use xlink:href="#DejaVuSans-5f" transform="translate(164.208984 0)"/>
     <use xlink:href="#DejaVuSans-73" transform="translate(214.208984 0)"/>
     <use xlink:href="#DejaVuSans-75" transform="translate(266.308594 0)"/>
     <use xlink:href="#DejaVuSans-62" transform="translate(329.6875 0)"/>
     <use xlink:href="#DejaVuSans-73" transform="translate(393.164062 0)"/>
     <use xlink:href="#DejaVuSans-63" transform="translate(445.263672 0)"/>
     <use xlink:href="#DejaVuSans-72" transform="translate(500.244141 0)"/>
     <use xlink:href="#DejaVuSans-69" transform="translate(541.357422 0)"/>
     <use xlink:href="#DejaVuSans-62" transform="translate(569.140625 0)"/>
     <use xlink:href="#DejaVuSans-65" transform="translate(632.617188 0)"/>
     <use xlink:href="#DejaVuSans-20" transform="translate(694.140625 0)"/>
     <use xlink:href="#DejaVuSans-68" transform="translate(725.927734 0)"/>
     <use xlink:href="#DejaVuSans-69" transform="translate(789.306641 0)"/>
     <use xlink:href="#DejaVuSans-73" transform="translate(817.089844 0)"/>
     <use xlink:href="#DejaVuSans-74" transform="translate(869.189453 0)"/>
     <use xlink:href="#DejaVuSans-6f" transform="translate(908.398438 0)"/>
     <use xlink:href="#DejaVuSans-72" transform="translate(969.580078 0)"/>
     <use xlink:href="#DejaVuSans-79" transform="translate(1010.693359 0)"/>
    </g>
   </g>
   <g id="legend_1">
    <g id="line2d_35">
     <path d="M 815.08 328.498438 
L 825.08 328.498438 
L 835.08 328.498438 
" style="fill: none; stroke: #1f77b4; stroke-width: 1.5; stroke-linecap: square"/>
    </g>
    <g id="text_18">
     <!-- star -->
     <g style="fill: #a9a9a9" transform="translate(843.08 331.998438) scale(0.1 -0.1)">
      <defs>
       <path id="DejaVuSans-61" d="M 2194 1759 
Q 1497 1759 1228 1600 
Q 959 1441 959 1056 
Q 959 750 1161 570 
Q 1363 391 1709 391 
Q 2188 391 2477 730 
Q 2766 1069 2766 1631 
L 2766 1759 
L 2194 1759 
z
M 3341 1997 
L 3341 0 
L 2766 0 
L 2766 531 
Q 2569 213 2275 61 
Q 1981 -91 1556 -91 
Q 1019 -91 701 211 
Q 384 513 384 1019 
Q 384 1609 779 1909 
Q 1175 2209 1959 2209 
L 2766 2209 
L 2766 2266 
Q 2766 2663 2505 2880 
Q 2244 3097 1772 3097 
Q 1472 3097 1187 3025 
Q 903 2953 641 2809 
L 641 3341 
Q 956 3463 1253 3523 
Q 1550 3584 1831 3584 
Q 2591 3584 2966 3190 
Q 3341 2797 3341 1997 
z
" transform="scale(0.015625)"/>
      </defs>
      <use xlink:href="#DejaVuSans-73"/>
      <use xlink:href="#DejaVuSans-74" transform="translate(52.099609 0)"/>
      <use xlink:href="#DejaVuSans-61" transform="translate(91.308594 0)"/>
      <use xlink:href="#DejaVuSans-72" transform="translate(152.587891 0)"/>
     </g>
    </g>
    <g id="line2d_36">
     <path d="M 815.08 343.176562 
L 825.08 343.176562 
L 835.08 343.176562 
" style="fill: none; stroke: #ff7f0e; stroke-width: 1.5; stroke-linecap: square"/>
    </g>
    <g id="text_19">
     <!-- fork -->
     <g style="fill: #a9a9a9" transform="translate(843.08 346.676562) scale(0.1 -0.1)">
      <defs>
       <path id="DejaVuSans-66" d="M 2375 4863 
L 2375 4384 
L 1825 4384 
Q 1516 4384 1395 4259 
Q 1275 4134 1275 3809 
L 1275 3500 
L 2222 3500 
L 2222 3053 
L 1275 3053 
L 1275 0 
L 697 0 
L 697 3053 
L 147 3053 
L 147 3500 
L 697 3500 
L 697 3744 
Q 697 4328 969 4595 
Q 1241 4863 1831 4863 
L 2375 4863 
z
" transform="scale(0.015625)"/>
       <path id="DejaVuSans-6b" d="M 581 4863 
L 1159 4863 
L 1159 1991 
L 2875 3500 
L 3609 3500 
L 1753 1863 
L 3688 0 
L 2938 0 
L 1159 1709 
L 1159 0 
L 581 0 
L 581 4863 
z
" transform="scale(0.015625)"/>
      </defs>
      <use xlink:href="#DejaVuSans-66"/>
      <use xlink:href="#DejaVuSans-6f" transform="translate(35.205078 0)"/>
      <use xlink:href="#DejaVuSans-72" transform="translate(96.386719 0)"/>
      <use xlink:href="#DejaVuSans-6b" transform="translate(137.5 0)"/>
     </g>
    </g>
   </g>
  </g>
 </g>
 <defs>
  <clipPath id="pfc384e9799">
   <rect x="108" y="43.2" width="669.6" height="277.2"/>
  </clipPath>
 </defs>
</svg>
