<?xml version="1.0" encoding="utf-8" standalone="no"?>
<!DOCTYPE svg PUBLIC "-//W3C//DTD SVG 1.1//EN"
  "http://www.w3.org/Graphics/SVG/1.1/DTD/svg11.dtd">
<svg xmlns:xlink="http://www.w3.org/1999/xlink" width="864pt" height="360pt" viewBox="0 0 864 360" xmlns="http://www.w3.org/2000/svg" version="1.1">
 <metadata>
  <rdf:RDF xmlns:dc="http://purl.org/dc/elements/1.1/" xmlns:cc="http://creativecommons.org/ns#" xmlns:rdf="http://www.w3.org/1999/02/22-rdf-syntax-ns#">
   <cc:Work>
    <dc:type rdf:resource="http://purl.org/dc/dcmitype/StillImage"/>
    <dc:date>2025-05-15T08:13:54.472263</dc:date>
    <dc:format>image/svg+xml</dc:format>
    <dc:creator>
     <cc:Agent>
      <dc:title>Matplotlib v3.10.3, https://matplotlib.org/</dc:title>
     </cc:Agent>
    </dc:creator>
   </cc:Work>
  </rdf:RDF>
 </metadata>
 <defs>
  <style type="text/css">*{stroke-linejoin: round; stroke-linecap: butt}</style>
 </defs>
 <g id="figure_1">
  <g id="patch_1">
   <path d="M 0 360 
L 864 360 
L 864 0 
L 0 0 
L 0 360 
z
" style="fill: none; opacity: 0"/>
  </g>
  <g id="axes_1">
   <g id="patch_2">
    <path d="M 108 320.4 
L 777.6 320.4 
L 777.6 43.2 
L 108 43.2 
L 108 320.4 
z
" style="fill: none; opacity: 0"/>
   </g>
   <g id="matplotlib.axis_1">
    <g id="xtick_1">
     <g id="line2d_1">
      <path d="M 128.371139 320.4 
L 128.371139 43.2 
" clip-path="url(#p618ecc066e)" style="fill: none; stroke-dasharray: 5.12,1.28,0.8,1.28; stroke-dashoffset: 0; stroke: #b0b0b0; stroke-width: 0.8"/>
     </g>
     <g id="line2d_2">
      <defs>
       <path id="m40fd8ff51a" d="M 0 0 
L 0 3.5 
" style="stroke: #a9a9a9; stroke-width: 0.8"/>
      </defs>
      <g>
       <use xlink:href="#m40fd8ff51a" x="128.371139" y="320.4" style="fill: #a9a9a9; stroke: #a9a9a9; stroke-width: 0.8"/>
      </g>
     </g>
     <g id="text_1">
      <!-- 2021-07 -->
      <g style="fill: #a9a9a9" transform="translate(107.479733 334.998438) scale(0.1 -0.1)">
       <defs>
        <path id="DejaVuSans-32" d="M 1228 531 
L 3431 531 
L 3431 0 
L 469 0 
L 469 531 
Q 828 903 1448 1529 
Q 2069 2156 2228 2338 
Q 2531 2678 2651 2914 
Q 2772 3150 2772 3378 
Q 2772 3750 2511 3984 
Q 2250 4219 1831 4219 
Q 1534 4219 1204 4116 
Q 875 4013 500 3803 
L 500 4441 
Q 881 4594 1212 4672 
Q 1544 4750 1819 4750 
Q 2544 4750 2975 4387 
Q 3406 4025 3406 3419 
Q 3406 3131 3298 2873 
Q 3191 2616 2906 2266 
Q 2828 2175 2409 1742 
Q 1991 1309 1228 531 
z
" transform="scale(0.015625)"/>
        <path id="DejaVuSans-30" d="M 2034 4250 
Q 1547 4250 1301 3770 
Q 1056 3291 1056 2328 
Q 1056 1369 1301 889 
Q 1547 409 2034 409 
Q 2525 409 2770 889 
Q 3016 1369 3016 2328 
Q 3016 3291 2770 3770 
Q 2525 4250 2034 4250 
z
M 2034 4750 
Q 2819 4750 3233 4129 
Q 3647 3509 3647 2328 
Q 3647 1150 3233 529 
Q 2819 -91 2034 -91 
Q 1250 -91 836 529 
Q 422 1150 422 2328 
Q 422 3509 836 4129 
Q 1250 4750 2034 4750 
z
" transform="scale(0.015625)"/>
        <path id="DejaVuSans-31" d="M 794 531 
L 1825 531 
L 1825 4091 
L 703 3866 
L 703 4441 
L 1819 4666 
L 2450 4666 
L 2450 531 
L 3481 531 
L 3481 0 
L 794 0 
L 794 531 
z
" transform="scale(0.015625)"/>
        <path id="DejaVuSans-2d" d="M 313 2009 
L 1997 2009 
L 1997 1497 
L 313 1497 
L 313 2009 
z
" transform="scale(0.015625)"/>
        <path id="DejaVuSans-37" d="M 525 4666 
L 3525 4666 
L 3525 4397 
L 1831 0 
L 1172 0 
L 2766 4134 
L 525 4134 
L 525 4666 
z
" transform="scale(0.015625)"/>
       </defs>
       <use xlink:href="#DejaVuSans-32"/>
       <use xlink:href="#DejaVuSans-30" transform="translate(63.623047 0)"/>
       <use xlink:href="#DejaVuSans-32" transform="translate(127.246094 0)"/>
       <use xlink:href="#DejaVuSans-31" transform="translate(190.869141 0)"/>
       <use xlink:href="#DejaVuSans-2d" transform="translate(254.492188 0)"/>
       <use xlink:href="#DejaVuSans-30" transform="translate(290.576172 0)"/>
       <use xlink:href="#DejaVuSans-37" transform="translate(354.199219 0)"/>
      </g>
     </g>
    </g>
    <g id="xtick_2">
     <g id="line2d_3">
      <path d="M 208.892935 320.4 
L 208.892935 43.2 
" clip-path="url(#p618ecc066e)" style="fill: none; stroke-dasharray: 5.12,1.28,0.8,1.28; stroke-dashoffset: 0; stroke: #b0b0b0; stroke-width: 0.8"/>
     </g>
     <g id="line2d_4">
      <g>
       <use xlink:href="#m40fd8ff51a" x="208.892935" y="320.4" style="fill: #a9a9a9; stroke: #a9a9a9; stroke-width: 0.8"/>
      </g>
     </g>
     <g id="text_2">
      <!-- 2022-01 -->
      <g style="fill: #a9a9a9" transform="translate(188.001529 334.998438) scale(0.1 -0.1)">
       <use xlink:href="#DejaVuSans-32"/>
       <use xlink:href="#DejaVuSans-30" transform="translate(63.623047 0)"/>
       <use xlink:href="#DejaVuSans-32" transform="translate(127.246094 0)"/>
       <use xlink:href="#DejaVuSans-32" transform="translate(190.869141 0)"/>
       <use xlink:href="#DejaVuSans-2d" transform="translate(254.492188 0)"/>
       <use xlink:href="#DejaVuSans-30" transform="translate(290.576172 0)"/>
       <use xlink:href="#DejaVuSans-31" transform="translate(354.199219 0)"/>
      </g>
     </g>
    </g>
    <g id="xtick_3">
     <g id="line2d_5">
      <path d="M 288.101876 320.4 
L 288.101876 43.2 
" clip-path="url(#p618ecc066e)" style="fill: none; stroke-dasharray: 5.12,1.28,0.8,1.28; stroke-dashoffset: 0; stroke: #b0b0b0; stroke-width: 0.8"/>
     </g>
     <g id="line2d_6">
      <g>
       <use xlink:href="#m40fd8ff51a" x="288.101876" y="320.4" style="fill: #a9a9a9; stroke: #a9a9a9; stroke-width: 0.8"/>
      </g>
     </g>
     <g id="text_3">
      <!-- 2022-07 -->
      <g style="fill: #a9a9a9" transform="translate(267.210469 334.998438) scale(0.1 -0.1)">
       <use xlink:href="#DejaVuSans-32"/>
       <use xlink:href="#DejaVuSans-30" transform="translate(63.623047 0)"/>
       <use xlink:href="#DejaVuSans-32" transform="translate(127.246094 0)"/>
       <use xlink:href="#DejaVuSans-32" transform="translate(190.869141 0)"/>
       <use xlink:href="#DejaVuSans-2d" transform="translate(254.492188 0)"/>
       <use xlink:href="#DejaVuSans-30" transform="translate(290.576172 0)"/>
       <use xlink:href="#DejaVuSans-37" transform="translate(354.199219 0)"/>
      </g>
     </g>
    </g>
    <g id="xtick_4">
     <g id="line2d_7">
      <path d="M 368.623672 320.4 
L 368.623672 43.2 
" clip-path="url(#p618ecc066e)" style="fill: none; stroke-dasharray: 5.12,1.28,0.8,1.28; stroke-dashoffset: 0; stroke: #b0b0b0; stroke-width: 0.8"/>
     </g>
     <g id="line2d_8">
      <g>
       <use xlink:href="#m40fd8ff51a" x="368.623672" y="320.4" style="fill: #a9a9a9; stroke: #a9a9a9; stroke-width: 0.8"/>
      </g>
     </g>
     <g id="text_4">
      <!-- 2023-01 -->
      <g style="fill: #a9a9a9" transform="translate(347.732265 334.998438) scale(0.1 -0.1)">
       <defs>
        <path id="DejaVuSans-33" d="M 2597 2516 
Q 3050 2419 3304 2112 
Q 3559 1806 3559 1356 
Q 3559 666 3084 287 
Q 2609 -91 1734 -91 
Q 1441 -91 1130 -33 
Q 819 25 488 141 
L 488 750 
Q 750 597 1062 519 
Q 1375 441 1716 441 
Q 2309 441 2620 675 
Q 2931 909 2931 1356 
Q 2931 1769 2642 2001 
Q 2353 2234 1838 2234 
L 1294 2234 
L 1294 2753 
L 1863 2753 
Q 2328 2753 2575 2939 
Q 2822 3125 2822 3475 
Q 2822 3834 2567 4026 
Q 2313 4219 1838 4219 
Q 1578 4219 1281 4162 
Q 984 4106 628 3988 
L 628 4550 
Q 988 4650 1302 4700 
Q 1616 4750 1894 4750 
Q 2613 4750 3031 4423 
Q 3450 4097 3450 3541 
Q 3450 3153 3228 2886 
Q 3006 2619 2597 2516 
z
" transform="scale(0.015625)"/>
       </defs>
       <use xlink:href="#DejaVuSans-32"/>
       <use xlink:href="#DejaVuSans-30" transform="translate(63.623047 0)"/>
       <use xlink:href="#DejaVuSans-32" transform="translate(127.246094 0)"/>
       <use xlink:href="#DejaVuSans-33" transform="translate(190.869141 0)"/>
       <use xlink:href="#DejaVuSans-2d" transform="translate(254.492188 0)"/>
       <use xlink:href="#DejaVuSans-30" transform="translate(290.576172 0)"/>
       <use xlink:href="#DejaVuSans-31" transform="translate(354.199219 0)"/>
      </g>
     </g>
    </g>
    <g id="xtick_5">
     <g id="line2d_9">
      <path d="M 447.832612 320.4 
L 447.832612 43.2 
" clip-path="url(#p618ecc066e)" style="fill: none; stroke-dasharray: 5.12,1.28,0.8,1.28; stroke-dashoffset: 0; stroke: #b0b0b0; stroke-width: 0.8"/>
     </g>
     <g id="line2d_10">
      <g>
       <use xlink:href="#m40fd8ff51a" x="447.832612" y="320.4" style="fill: #a9a9a9; stroke: #a9a9a9; stroke-width: 0.8"/>
      </g>
     </g>
     <g id="text_5">
      <!-- 2023-07 -->
      <g style="fill: #a9a9a9" transform="translate(426.941206 334.998438) scale(0.1 -0.1)">
       <use xlink:href="#DejaVuSans-32"/>
       <use xlink:href="#DejaVuSans-30" transform="translate(63.623047 0)"/>
       <use xlink:href="#DejaVuSans-32" transform="translate(127.246094 0)"/>
       <use xlink:href="#DejaVuSans-33" transform="translate(190.869141 0)"/>
       <use xlink:href="#DejaVuSans-2d" transform="translate(254.492188 0)"/>
       <use xlink:href="#DejaVuSans-30" transform="translate(290.576172 0)"/>
       <use xlink:href="#DejaVuSans-37" transform="translate(354.199219 0)"/>
      </g>
     </g>
    </g>
    <g id="xtick_6">
     <g id="line2d_11">
      <path d="M 528.354408 320.4 
L 528.354408 43.2 
" clip-path="url(#p618ecc066e)" style="fill: none; stroke-dasharray: 5.12,1.28,0.8,1.28; stroke-dashoffset: 0; stroke: #b0b0b0; stroke-width: 0.8"/>
     </g>
     <g id="line2d_12">
      <g>
       <use xlink:href="#m40fd8ff51a" x="528.354408" y="320.4" style="fill: #a9a9a9; stroke: #a9a9a9; stroke-width: 0.8"/>
      </g>
     </g>
     <g id="text_6">
      <!-- 2024-01 -->
      <g style="fill: #a9a9a9" transform="translate(507.463002 334.998438) scale(0.1 -0.1)">
       <defs>
        <path id="DejaVuSans-34" d="M 2419 4116 
L 825 1625 
L 2419 1625 
L 2419 4116 
z
M 2253 4666 
L 3047 4666 
L 3047 1625 
L 3713 1625 
L 3713 1100 
L 3047 1100 
L 3047 0 
L 2419 0 
L 2419 1100 
L 313 1100 
L 313 1709 
L 2253 4666 
z
" transform="scale(0.015625)"/>
       </defs>
       <use xlink:href="#DejaVuSans-32"/>
       <use xlink:href="#DejaVuSans-30" transform="translate(63.623047 0)"/>
       <use xlink:href="#DejaVuSans-32" transform="translate(127.246094 0)"/>
       <use xlink:href="#DejaVuSans-34" transform="translate(190.869141 0)"/>
       <use xlink:href="#DejaVuSans-2d" transform="translate(254.492188 0)"/>
       <use xlink:href="#DejaVuSans-30" transform="translate(290.576172 0)"/>
       <use xlink:href="#DejaVuSans-31" transform="translate(354.199219 0)"/>
      </g>
     </g>
    </g>
    <g id="xtick_7">
     <g id="line2d_13">
      <path d="M 608.000967 320.4 
L 608.000967 43.2 
" clip-path="url(#p618ecc066e)" style="fill: none; stroke-dasharray: 5.12,1.28,0.8,1.28; stroke-dashoffset: 0; stroke: #b0b0b0; stroke-width: 0.8"/>
     </g>
     <g id="line2d_14">
      <g>
       <use xlink:href="#m40fd8ff51a" x="608.000967" y="320.4" style="fill: #a9a9a9; stroke: #a9a9a9; stroke-width: 0.8"/>
      </g>
     </g>
     <g id="text_7">
      <!-- 2024-07 -->
      <g style="fill: #a9a9a9" transform="translate(587.109561 334.998438) scale(0.1 -0.1)">
       <use xlink:href="#DejaVuSans-32"/>
       <use xlink:href="#DejaVuSans-30" transform="translate(63.623047 0)"/>
       <use xlink:href="#DejaVuSans-32" transform="translate(127.246094 0)"/>
       <use xlink:href="#DejaVuSans-34" transform="translate(190.869141 0)"/>
       <use xlink:href="#DejaVuSans-2d" transform="translate(254.492188 0)"/>
       <use xlink:href="#DejaVuSans-30" transform="translate(290.576172 0)"/>
       <use xlink:href="#DejaVuSans-37" transform="translate(354.199219 0)"/>
      </g>
     </g>
    </g>
    <g id="xtick_8">
     <g id="line2d_15">
      <path d="M 688.522763 320.4 
L 688.522763 43.2 
" clip-path="url(#p618ecc066e)" style="fill: none; stroke-dasharray: 5.12,1.28,0.8,1.28; stroke-dashoffset: 0; stroke: #b0b0b0; stroke-width: 0.8"/>
     </g>
     <g id="line2d_16">
      <g>
       <use xlink:href="#m40fd8ff51a" x="688.522763" y="320.4" style="fill: #a9a9a9; stroke: #a9a9a9; stroke-width: 0.8"/>
      </g>
     </g>
     <g id="text_8">
      <!-- 2025-01 -->
      <g style="fill: #a9a9a9" transform="translate(667.631357 334.998438) scale(0.1 -0.1)">
       <defs>
        <path id="DejaVuSans-35" d="M 691 4666 
L 3169 4666 
L 3169 4134 
L 1269 4134 
L 1269 2991 
Q 1406 3038 1543 3061 
Q 1681 3084 1819 3084 
Q 2600 3084 3056 2656 
Q 3513 2228 3513 1497 
Q 3513 744 3044 326 
Q 2575 -91 1722 -91 
Q 1428 -91 1123 -41 
Q 819 9 494 109 
L 494 744 
Q 775 591 1075 516 
Q 1375 441 1709 441 
Q 2250 441 2565 725 
Q 2881 1009 2881 1497 
Q 2881 1984 2565 2268 
Q 2250 2553 1709 2553 
Q 1456 2553 1204 2497 
Q 953 2441 691 2322 
L 691 4666 
z
" transform="scale(0.015625)"/>
       </defs>
       <use xlink:href="#DejaVuSans-32"/>
       <use xlink:href="#DejaVuSans-30" transform="translate(63.623047 0)"/>
       <use xlink:href="#DejaVuSans-32" transform="translate(127.246094 0)"/>
       <use xlink:href="#DejaVuSans-35" transform="translate(190.869141 0)"/>
       <use xlink:href="#DejaVuSans-2d" transform="translate(254.492188 0)"/>
       <use xlink:href="#DejaVuSans-30" transform="translate(290.576172 0)"/>
       <use xlink:href="#DejaVuSans-31" transform="translate(354.199219 0)"/>
      </g>
     </g>
    </g>
    <g id="xtick_9">
     <g id="line2d_17">
      <path d="M 767.731704 320.4 
L 767.731704 43.2 
" clip-path="url(#p618ecc066e)" style="fill: none; stroke-dasharray: 5.12,1.28,0.8,1.28; stroke-dashoffset: 0; stroke: #b0b0b0; stroke-width: 0.8"/>
     </g>
     <g id="line2d_18">
      <g>
       <use xlink:href="#m40fd8ff51a" x="767.731704" y="320.4" style="fill: #a9a9a9; stroke: #a9a9a9; stroke-width: 0.8"/>
      </g>
     </g>
     <g id="text_9">
      <!-- 2025-07 -->
      <g style="fill: #a9a9a9" transform="translate(746.840298 334.998438) scale(0.1 -0.1)">
       <use xlink:href="#DejaVuSans-32"/>
       <use xlink:href="#DejaVuSans-30" transform="translate(63.623047 0)"/>
       <use xlink:href="#DejaVuSans-32" transform="translate(127.246094 0)"/>
       <use xlink:href="#DejaVuSans-35" transform="translate(190.869141 0)"/>
       <use xlink:href="#DejaVuSans-2d" transform="translate(254.492188 0)"/>
       <use xlink:href="#DejaVuSans-30" transform="translate(290.576172 0)"/>
       <use xlink:href="#DejaVuSans-37" transform="translate(354.199219 0)"/>
      </g>
     </g>
    </g>
   </g>
   <g id="matplotlib.axis_2">
    <g id="ytick_1">
     <g id="line2d_19">
      <path d="M 108 307.833045 
L 777.6 307.833045 
" clip-path="url(#p618ecc066e)" style="fill: none; stroke-dasharray: 5.12,1.28,0.8,1.28; stroke-dashoffset: 0; stroke: #b0b0b0; stroke-width: 0.8"/>
     </g>
     <g id="line2d_20">
      <defs>
       <path id="m12af3eebe7" d="M 0 0 
L -3.5 0 
" style="stroke: #a9a9a9; stroke-width: 0.8"/>
      </defs>
      <g>
       <use xlink:href="#m12af3eebe7" x="108" y="307.833045" style="fill: #a9a9a9; stroke: #a9a9a9; stroke-width: 0.8"/>
      </g>
     </g>
     <g id="text_10">
      <!-- 0 -->
      <g style="fill: #a9a9a9" transform="translate(94.6375 311.632264) scale(0.1 -0.1)">
       <use xlink:href="#DejaVuSans-30"/>
      </g>
     </g>
    </g>
    <g id="ytick_2">
     <g id="line2d_21">
      <path d="M 108 274.788198 
L 777.6 274.788198 
" clip-path="url(#p618ecc066e)" style="fill: none; stroke-dasharray: 5.12,1.28,0.8,1.28; stroke-dashoffset: 0; stroke: #b0b0b0; stroke-width: 0.8"/>
     </g>
     <g id="line2d_22">
      <g>
       <use xlink:href="#m12af3eebe7" x="108" y="274.788198" style="fill: #a9a9a9; stroke: #a9a9a9; stroke-width: 0.8"/>
      </g>
     </g>
     <g id="text_11">
      <!-- 1000 -->
      <g style="fill: #a9a9a9" transform="translate(75.55 278.587417) scale(0.1 -0.1)">
       <use xlink:href="#DejaVuSans-31"/>
       <use xlink:href="#DejaVuSans-30" transform="translate(63.623047 0)"/>
       <use xlink:href="#DejaVuSans-30" transform="translate(127.246094 0)"/>
       <use xlink:href="#DejaVuSans-30" transform="translate(190.869141 0)"/>
      </g>
     </g>
    </g>
    <g id="ytick_3">
     <g id="line2d_23">
      <path d="M 108 241.743352 
L 777.6 241.743352 
" clip-path="url(#p618ecc066e)" style="fill: none; stroke-dasharray: 5.12,1.28,0.8,1.28; stroke-dashoffset: 0; stroke: #b0b0b0; stroke-width: 0.8"/>
     </g>
     <g id="line2d_24">
      <g>
       <use xlink:href="#m12af3eebe7" x="108" y="241.743352" style="fill: #a9a9a9; stroke: #a9a9a9; stroke-width: 0.8"/>
      </g>
     </g>
     <g id="text_12">
      <!-- 2000 -->
      <g style="fill: #a9a9a9" transform="translate(75.55 245.54257) scale(0.1 -0.1)">
       <use xlink:href="#DejaVuSans-32"/>
       <use xlink:href="#DejaVuSans-30" transform="translate(63.623047 0)"/>
       <use xlink:href="#DejaVuSans-30" transform="translate(127.246094 0)"/>
       <use xlink:href="#DejaVuSans-30" transform="translate(190.869141 0)"/>
      </g>
     </g>
    </g>
    <g id="ytick_4">
     <g id="line2d_25">
      <path d="M 108 208.698505 
L 777.6 208.698505 
" clip-path="url(#p618ecc066e)" style="fill: none; stroke-dasharray: 5.12,1.28,0.8,1.28; stroke-dashoffset: 0; stroke: #b0b0b0; stroke-width: 0.8"/>
     </g>
     <g id="line2d_26">
      <g>
       <use xlink:href="#m12af3eebe7" x="108" y="208.698505" style="fill: #a9a9a9; stroke: #a9a9a9; stroke-width: 0.8"/>
      </g>
     </g>
     <g id="text_13">
      <!-- 3000 -->
      <g style="fill: #a9a9a9" transform="translate(75.55 212.497724) scale(0.1 -0.1)">
       <use xlink:href="#DejaVuSans-33"/>
       <use xlink:href="#DejaVuSans-30" transform="translate(63.623047 0)"/>
       <use xlink:href="#DejaVuSans-30" transform="translate(127.246094 0)"/>
       <use xlink:href="#DejaVuSans-30" transform="translate(190.869141 0)"/>
      </g>
     </g>
    </g>
    <g id="ytick_5">
     <g id="line2d_27">
      <path d="M 108 175.653659 
L 777.6 175.653659 
" clip-path="url(#p618ecc066e)" style="fill: none; stroke-dasharray: 5.12,1.28,0.8,1.28; stroke-dashoffset: 0; stroke: #b0b0b0; stroke-width: 0.8"/>
     </g>
     <g id="line2d_28">
      <g>
       <use xlink:href="#m12af3eebe7" x="108" y="175.653659" style="fill: #a9a9a9; stroke: #a9a9a9; stroke-width: 0.8"/>
      </g>
     </g>
     <g id="text_14">
      <!-- 4000 -->
      <g style="fill: #a9a9a9" transform="translate(75.55 179.452877) scale(0.1 -0.1)">
       <use xlink:href="#DejaVuSans-34"/>
       <use xlink:href="#DejaVuSans-30" transform="translate(63.623047 0)"/>
       <use xlink:href="#DejaVuSans-30" transform="translate(127.246094 0)"/>
       <use xlink:href="#DejaVuSans-30" transform="translate(190.869141 0)"/>
      </g>
     </g>
    </g>
    <g id="ytick_6">
     <g id="line2d_29">
      <path d="M 108 142.608812 
L 777.6 142.608812 
" clip-path="url(#p618ecc066e)" style="fill: none; stroke-dasharray: 5.12,1.28,0.8,1.28; stroke-dashoffset: 0; stroke: #b0b0b0; stroke-width: 0.8"/>
     </g>
     <g id="line2d_30">
      <g>
       <use xlink:href="#m12af3eebe7" x="108" y="142.608812" style="fill: #a9a9a9; stroke: #a9a9a9; stroke-width: 0.8"/>
      </g>
     </g>
     <g id="text_15">
      <!-- 5000 -->
      <g style="fill: #a9a9a9" transform="translate(75.55 146.408031) scale(0.1 -0.1)">
       <use xlink:href="#DejaVuSans-35"/>
       <use xlink:href="#DejaVuSans-30" transform="translate(63.623047 0)"/>
       <use xlink:href="#DejaVuSans-30" transform="translate(127.246094 0)"/>
       <use xlink:href="#DejaVuSans-30" transform="translate(190.869141 0)"/>
      </g>
     </g>
    </g>
    <g id="ytick_7">
     <g id="line2d_31">
      <path d="M 108 109.563965 
L 777.6 109.563965 
" clip-path="url(#p618ecc066e)" style="fill: none; stroke-dasharray: 5.12,1.28,0.8,1.28; stroke-dashoffset: 0; stroke: #b0b0b0; stroke-width: 0.8"/>
     </g>
     <g id="line2d_32">
      <g>
       <use xlink:href="#m12af3eebe7" x="108" y="109.563965" style="fill: #a9a9a9; stroke: #a9a9a9; stroke-width: 0.8"/>
      </g>
     </g>
     <g id="text_16">
      <!-- 6000 -->
      <g style="fill: #a9a9a9" transform="translate(75.55 113.363184) scale(0.1 -0.1)">
       <defs>
        <path id="DejaVuSans-36" d="M 2113 2584 
Q 1688 2584 1439 2293 
Q 1191 2003 1191 1497 
Q 1191 994 1439 701 
Q 1688 409 2113 409 
Q 2538 409 2786 701 
Q 3034 994 3034 1497 
Q 3034 2003 2786 2293 
Q 2538 2584 2113 2584 
z
M 3366 4563 
L 3366 3988 
Q 3128 4100 2886 4159 
Q 2644 4219 2406 4219 
Q 1781 4219 1451 3797 
Q 1122 3375 1075 2522 
Q 1259 2794 1537 2939 
Q 1816 3084 2150 3084 
Q 2853 3084 3261 2657 
Q 3669 2231 3669 1497 
Q 3669 778 3244 343 
Q 2819 -91 2113 -91 
Q 1303 -91 875 529 
Q 447 1150 447 2328 
Q 447 3434 972 4092 
Q 1497 4750 2381 4750 
Q 2619 4750 2861 4703 
Q 3103 4656 3366 4563 
z
" transform="scale(0.015625)"/>
       </defs>
       <use xlink:href="#DejaVuSans-36"/>
       <use xlink:href="#DejaVuSans-30" transform="translate(63.623047 0)"/>
       <use xlink:href="#DejaVuSans-30" transform="translate(127.246094 0)"/>
       <use xlink:href="#DejaVuSans-30" transform="translate(190.869141 0)"/>
      </g>
     </g>
    </g>
    <g id="ytick_8">
     <g id="line2d_33">
      <path d="M 108 76.519119 
L 777.6 76.519119 
" clip-path="url(#p618ecc066e)" style="fill: none; stroke-dasharray: 5.12,1.28,0.8,1.28; stroke-dashoffset: 0; stroke: #b0b0b0; stroke-width: 0.8"/>
     </g>
     <g id="line2d_34">
      <g>
       <use xlink:href="#m12af3eebe7" x="108" y="76.519119" style="fill: #a9a9a9; stroke: #a9a9a9; stroke-width: 0.8"/>
      </g>
     </g>
     <g id="text_17">
      <!-- 7000 -->
      <g style="fill: #a9a9a9" transform="translate(75.55 80.318338) scale(0.1 -0.1)">
       <use xlink:href="#DejaVuSans-37"/>
       <use xlink:href="#DejaVuSans-30" transform="translate(63.623047 0)"/>
       <use xlink:href="#DejaVuSans-30" transform="translate(127.246094 0)"/>
       <use xlink:href="#DejaVuSans-30" transform="translate(190.869141 0)"/>
      </g>
     </g>
    </g>
    <g id="ytick_9">
     <g id="line2d_35">
      <path d="M 108 43.474272 
L 777.6 43.474272 
" clip-path="url(#p618ecc066e)" style="fill: none; stroke-dasharray: 5.12,1.28,0.8,1.28; stroke-dashoffset: 0; stroke: #b0b0b0; stroke-width: 0.8"/>
     </g>
     <g id="line2d_36">
      <g>
       <use xlink:href="#m12af3eebe7" x="108" y="43.474272" style="fill: #a9a9a9; stroke: #a9a9a9; stroke-width: 0.8"/>
      </g>
     </g>
     <g id="text_18">
      <!-- 8000 -->
      <g style="fill: #a9a9a9" transform="translate(75.55 47.273491) scale(0.1 -0.1)">
       <defs>
        <path id="DejaVuSans-38" d="M 2034 2216 
Q 1584 2216 1326 1975 
Q 1069 1734 1069 1313 
Q 1069 891 1326 650 
Q 1584 409 2034 409 
Q 2484 409 2743 651 
Q 3003 894 3003 1313 
Q 3003 1734 2745 1975 
Q 2488 2216 2034 2216 
z
M 1403 2484 
Q 997 2584 770 2862 
Q 544 3141 544 3541 
Q 544 4100 942 4425 
Q 1341 4750 2034 4750 
Q 2731 4750 3128 4425 
Q 3525 4100 3525 3541 
Q 3525 3141 3298 2862 
Q 3072 2584 2669 2484 
Q 3125 2378 3379 2068 
Q 3634 1759 3634 1313 
Q 3634 634 3220 271 
Q 2806 -91 2034 -91 
Q 1263 -91 848 271 
Q 434 634 434 1313 
Q 434 1759 690 2068 
Q 947 2378 1403 2484 
z
M 1172 3481 
Q 1172 3119 1398 2916 
Q 1625 2713 2034 2713 
Q 2441 2713 2670 2916 
Q 2900 3119 2900 3481 
Q 2900 3844 2670 4047 
Q 2441 4250 2034 4250 
Q 1625 4250 1398 4047 
Q 1172 3844 1172 3481 
z
" transform="scale(0.015625)"/>
       </defs>
       <use xlink:href="#DejaVuSans-38"/>
       <use xlink:href="#DejaVuSans-30" transform="translate(63.623047 0)"/>
       <use xlink:href="#DejaVuSans-30" transform="translate(127.246094 0)"/>
       <use xlink:href="#DejaVuSans-30" transform="translate(190.869141 0)"/>
      </g>
     </g>
    </g>
   </g>
   <g id="line2d_37">
    <path d="M 138.436364 307.73391 
L 141.062074 307.502596 
L 141.499693 307.304327 
L 143.250167 307.073013 
L 145.00064 306.70952 
L 145.875877 306.577341 
L 148.06397 306.379072 
L 148.939207 306.015578 
L 149.376825 305.420771 
L 149.814444 305.123367 
L 150.252062 304.132022 
L 150.68968 304.065932 
L 151.127299 303.702439 
L 152.002536 303.239811 
L 153.75301 301.785838 
L 155.503483 300.893627 
L 156.816339 300.265775 
L 157.253957 299.538788 
L 158.129194 298.877891 
L 158.566813 298.679622 
L 162.942997 298.018725 
L 163.380616 297.820456 
L 166.443945 297.556098 
L 168.194419 297.126515 
L 171.695366 296.630842 
L 172.132985 296.399528 
L 172.570603 296.333438 
L 173.44584 296.036035 
L 176.509169 295.507317 
L 177.384406 295.242958 
L 181.322972 294.582061 
L 182.198209 294.383792 
L 183.073446 294.350747 
L 184.82392 293.921164 
L 185.261538 293.293312 
L 186.574394 292.764595 
L 187.887249 292.401101 
L 188.324868 292.169788 
L 189.200105 292.004563 
L 190.950578 291.475846 
L 191.825815 291.409756 
L 192.701052 291.178442 
L 194.451526 290.715814 
L 194.889145 290.682769 
L 195.764381 290.253186 
L 196.202 290.187097 
L 196.639618 289.955783 
L 201.453421 289.129662 
L 203.203895 288.600944 
L 203.641514 288.303541 
L 205.829606 287.576554 
L 206.704843 286.948702 
L 208.017698 286.684343 
L 217.645304 283.809441 
L 218.082923 283.776397 
L 219.395778 283.379858 
L 219.833397 283.379858 
L 220.271015 283.181589 
L 221.146252 283.082455 
L 221.58387 282.917231 
L 223.334344 282.851141 
L 224.209581 282.685917 
L 225.084818 282.223289 
L 226.397673 281.727616 
L 227.27291 281.264988 
L 228.148147 280.80236 
L 229.023384 280.504957 
L 229.461003 280.372777 
L 230.336239 279.811015 
L 230.773858 279.315342 
L 231.649095 277.927459 
L 232.086713 277.795279 
L 232.524332 277.795279 
L 233.837187 277.002203 
L 234.274806 276.770889 
L 234.712424 276.671755 
L 235.150042 276.242172 
L 236.025279 275.878678 
L 236.900516 275.449095 
L 239.088609 272.574194 
L 241.714319 271.12022 
L 242.589556 270.393234 
L 243.027175 270.128875 
L 243.464793 269.501023 
L 243.902412 268.476633 
L 244.34003 267.782691 
L 244.777649 267.419197 
L 245.215267 267.220928 
L 248.716215 263.916444 
L 249.591452 263.090323 
L 252.217162 261.405035 
L 252.654781 261.239811 
L 254.405255 260.182376 
L 254.842873 259.984107 
L 257.030965 257.935327 
L 257.906202 257.571833 
L 258.781439 256.943981 
L 259.219058 256.679622 
L 259.656676 256.613533 
L 260.969531 255.853501 
L 261.40715 255.357828 
L 263.595242 254.135169 
L 264.032861 253.969945 
L 265.345716 253.044689 
L 271.909993 250.66546 
L 272.78523 249.839339 
L 274.098085 249.178442 
L 274.973322 248.61668 
L 275.848559 248.352321 
L 276.286177 248.054917 
L 276.723796 247.922738 
L 278.036651 247.030527 
L 280.224743 246.534854 
L 281.537599 245.741778 
L 282.850454 245.444375 
L 283.288073 245.34524 
L 284.600928 244.32085 
L 286.351402 243.825177 
L 286.78902 243.461684 
L 289.414731 242.536428 
L 290.289968 242.371204 
L 291.165205 242.00771 
L 294.228534 240.851141 
L 295.103771 240.718961 
L 296.416626 240.256334 
L 298.604719 239.165854 
L 300.355192 238.174508 
L 303.85614 236.68749 
L 304.293759 236.6214 
L 305.168995 236.059638 
L 306.044232 235.828324 
L 307.357088 235.299607 
L 309.107562 235.068293 
L 309.982799 234.605665 
L 310.420417 234.209127 
L 310.858035 233.41605 
L 312.608509 232.920378 
L 313.921365 232.226436 
L 314.796602 231.929032 
L 315.671838 231.466404 
L 318.297549 230.375924 
L 319.172786 230.177655 
L 320.048023 229.715028 
L 320.485641 229.516758 
L 320.92326 229.450669 
L 323.111352 228.360189 
L 323.986589 227.798426 
L 325.299444 227.534068 
L 327.487537 226.972305 
L 327.925155 226.608812 
L 328.800392 226.311408 
L 330.988484 225.419197 
L 331.426103 225.088749 
L 331.863721 224.923525 
L 332.738958 224.427852 
L 334.489432 223.86609 
L 335.364669 223.304327 
L 335.802287 222.841699 
L 336.239906 222.577341 
L 336.677524 222.478206 
L 337.552761 221.75122 
L 337.99038 221.68513 
L 338.427998 220.958143 
L 338.865617 220.759874 
L 339.303235 220.396381 
L 339.740854 220.330291 
L 340.61609 219.768529 
L 341.491327 219.471125 
L 341.928946 219.140677 
L 342.366564 218.975452 
L 344.117038 217.785838 
L 345.429893 217.091896 
L 346.30513 216.860582 
L 347.180367 216.36491 
L 347.617986 215.604878 
L 348.493223 214.943981 
L 348.930841 214.844847 
L 351.556552 213.556098 
L 352.431789 213.192604 
L 353.307026 212.564752 
L 354.182263 211.672541 
L 358.120829 208.566326 
L 358.558447 208.202832 
L 359.433684 207.905429 
L 360.308921 207.310622 
L 361.621776 206.61668 
L 362.059395 206.55059 
L 363.37225 205.823603 
L 364.247487 205.261841 
L 368.623672 203.609599 
L 369.06129 203.246105 
L 370.811764 202.552164 
L 371.249382 202.419984 
L 372.124619 201.825177 
L 372.999856 201.461684 
L 373.875093 200.833832 
L 374.75033 199.04941 
L 375.625567 197.991975 
L 376.938422 197.298033 
L 377.813659 196.93454 
L 378.251278 196.86845 
L 378.688896 196.604091 
L 380.876988 195.877105 
L 381.314607 195.678836 
L 382.189844 195.084028 
L 383.502699 194.522266 
L 384.377936 194.026593 
L 385.253173 193.497876 
L 385.690791 193.200472 
L 386.12841 192.704799 
L 387.441265 191.944768 
L 387.878884 191.779544 
L 388.754121 191.250826 
L 390.504594 190.292526 
L 390.942213 190.193391 
L 391.379831 189.829898 
L 394.443161 188.805507 
L 394.880779 188.475059 
L 395.756016 188.2107 
L 396.631253 187.847207 
L 397.068871 187.483714 
L 398.819345 186.855862 
L 399.694582 186.228009 
L 400.569819 185.864516 
L 401.445056 185.170574 
L 402.320293 184.906216 
L 402.757911 184.509677 
L 403.19553 184.443588 
L 404.070767 183.749646 
L 404.946004 183.287018 
L 405.383622 183.088749 
L 405.82124 182.626121 
L 408.88457 181.370417 
L 409.759807 180.973879 
L 411.072662 180.544296 
L 411.947899 180.412116 
L 412.385517 180.213847 
L 412.823136 180.147758 
L 413.698373 179.75122 
L 414.135991 179.718175 
L 415.886465 179.057278 
L 417.19932 178.098977 
L 417.636939 177.933753 
L 418.512176 177.43808 
L 418.949794 177.305901 
L 421.575505 175.818883 
L 422.013123 175.719748 
L 423.325979 174.926672 
L 424.638834 174.464044 
L 425.514071 174.16664 
L 427.264545 173.571833 
L 428.139782 173.27443 
L 429.890256 172.910936 
L 430.327874 172.712667 
L 431.203111 172.481353 
L 431.640729 172.283084 
L 432.078348 172.216994 
L 432.515966 171.985681 
L 433.391203 171.820456 
L 434.704059 171.324784 
L 435.579295 171.225649 
L 436.892151 170.928245 
L 439.080243 170.531707 
L 450.458323 167.095043 
L 450.895941 166.632415 
L 453.521652 165.541935 
L 455.272126 164.947128 
L 455.709744 164.682769 
L 457.0226 164.286231 
L 457.897837 164.054917 
L 458.335455 163.757514 
L 458.773074 163.658379 
L 459.210692 163.261841 
L 460.523547 162.997482 
L 461.398784 162.567899 
L 461.836403 162.039182 
L 463.586877 161.609599 
L 466.650206 160.948702 
L 467.087824 160.948702 
L 467.525443 160.750433 
L 469.275917 160.419984 
L 469.713535 160.221715 
L 471.464009 159.891267 
L 472.339246 159.527773 
L 473.214483 159.362549 
L 475.402575 158.800787 
L 477.153049 158.239024 
L 477.590667 158.13989 
L 478.028286 157.908576 
L 478.903523 157.677262 
L 479.77876 157.313769 
L 480.653996 156.98332 
L 481.091615 156.685917 
L 481.966852 156.421558 
L 485.030181 155.264988 
L 486.780655 155.033674 
L 490.281603 153.744925 
L 490.719221 153.414477 
L 491.156839 153.315342 
L 491.594458 153.084028 
L 492.032076 153.050983 
L 496.845879 151.299607 
L 499.033972 150.704799 
L 499.909209 150.275216 
L 501.222064 149.977813 
L 502.972538 148.523839 
L 504.723012 147.763808 
L 505.598248 147.36727 
L 508.223959 146.34288 
L 508.661578 146.045476 
L 510.84967 145.318489 
L 512.162525 144.558458 
L 512.600144 144.459323 
L 514.350618 143.467978 
L 516.101091 142.674902 
L 516.53871 142.344453 
L 517.413947 142.04705 
L 519.602039 140.923525 
L 520.914894 140.460897 
L 522.665368 139.73391 
L 523.978224 139.238238 
L 524.415842 139.073013 
L 525.291079 138.940834 
L 525.728697 138.64343 
L 527.479171 138.279937 
L 528.354408 137.916444 
L 530.104882 137.090323 
L 536.23154 134.380645 
L 537.544396 133.951062 
L 537.982014 133.653659 
L 538.857251 133.554524 
L 539.29487 133.25712 
L 540.170107 133.091896 
L 541.045343 132.662313 
L 541.482962 132.464044 
L 542.358199 132.23273 
L 543.233436 131.968371 
L 544.546291 131.472699 
L 545.859146 131.043116 
L 547.172002 130.745712 
L 548.922476 130.018725 
L 549.797713 129.523053 
L 551.548186 128.630842 
L 552.423423 128.432573 
L 552.861042 128.168214 
L 553.29866 128.069079 
L 554.611516 127.309048 
L 555.486752 126.945555 
L 565.114359 123.211487 
L 566.864832 122.385366 
L 571.241017 120.667034 
L 572.116254 120.237451 
L 572.553872 120.138316 
L 572.991491 119.907002 
L 574.741965 119.41133 
L 576.492438 117.957356 
L 576.930057 117.825177 
L 577.367675 117.560818 
L 578.680531 117.197325 
L 579.118149 116.866876 
L 579.555768 116.767742 
L 580.868623 115.974666 
L 581.306241 115.677262 
L 582.619097 115.181589 
L 583.056715 114.950275 
L 584.369571 114.652872 
L 586.557663 113.89284 
L 587.4329 113.595437 
L 588.745755 112.93454 
L 589.620992 112.504957 
L 590.496229 112.273643 
L 591.809084 111.645791 
L 595.74765 110.158773 
L 597.060506 109.332651 
L 597.498124 109.233517 
L 598.373361 108.803934 
L 599.248598 108.473485 
L 599.686217 108.076947 
L 600.561453 107.713454 
L 601.874309 107.250826 
L 602.311927 106.887333 
L 602.749546 106.854288 
L 603.624783 106.589929 
L 604.50002 106.292526 
L 604.937638 106.094256 
L 605.375257 106.028167 
L 606.688112 105.532494 
L 608.000967 105.036821 
L 609.751441 104.243745 
L 610.626678 104.012431 
L 611.064296 103.748072 
L 611.939533 103.516758 
L 613.252389 102.756727 
L 613.690007 102.723682 
L 615.002863 102.294099 
L 615.878099 102.228009 
L 616.315718 101.996696 
L 617.190955 101.765382 
L 617.628573 101.534068 
L 619.816666 101.104485 
L 620.691902 100.93926 
L 622.004758 100.443588 
L 623.317613 100.146184 
L 624.630469 99.452242 
L 625.068087 99.055704 
L 626.380942 98.262628 
L 626.818561 97.932179 
L 628.131416 97.502596 
L 629.006653 97.238238 
L 629.444272 97.006924 
L 629.88189 96.907789 
L 630.319509 96.544296 
L 632.945219 95.420771 
L 634.695693 94.958143 
L 635.57093 94.561605 
L 636.008548 94.330291 
L 636.883785 94.065932 
L 637.321404 93.801574 
L 638.196641 93.636349 
L 641.697588 92.116286 
L 642.135207 92.050197 
L 643.448062 91.191031 
L 643.885681 91.124941 
L 645.636154 90.430999 
L 647.386628 90.001416 
L 647.824247 89.935327 
L 648.261865 89.737057 
L 648.699484 89.704013 
L 649.574721 89.406609 
L 650.012339 89.373564 
L 651.325194 88.844847 
L 653.075668 88.349174 
L 653.950905 87.688277 
L 655.701379 86.696932 
L 657.014234 86.234304 
L 660.515182 84.549017 
L 660.9528 84.317703 
L 661.390419 83.921164 
L 663.578511 83.326357 
L 664.891367 82.73155 
L 665.766603 82.500236 
L 666.204222 82.268922 
L 666.64184 81.905429 
L 668.392314 81.442801 
L 668.829933 81.112352 
L 674.518973 79.030527 
L 675.39421 78.865303 
L 677.582302 78.171361 
L 678.457539 77.807868 
L 679.332776 77.477419 
L 680.208013 77.246105 
L 680.645631 77.047836 
L 681.083249 77.047836 
L 681.958486 76.684343 
L 682.833723 76.155625 
L 685.897052 75.131235 
L 687.647526 74.536428 
L 688.960382 74.239024 
L 690.273237 73.809441 
L 690.710855 73.710307 
L 691.148474 73.412903 
L 692.023711 73.214634 
L 693.774185 72.718961 
L 694.211803 72.685917 
L 695.08704 72.289378 
L 698.150369 71.529347 
L 699.025606 71.165854 
L 703.401791 70.174508 
L 704.714646 69.480566 
L 706.027501 69.084028 
L 710.403686 67.464831 
L 710.841304 67.134382 
L 712.15416 66.836979 
L 713.029397 66.57262 
L 713.904634 66.143037 
L 714.342252 65.779544 
L 715.217489 65.515185 
L 715.655108 65.250826 
L 716.530344 65.151692 
L 719.593674 64.292526 
L 720.906529 64.028167 
L 723.53224 63.169001 
L 725.282714 62.34288 
L 730.096517 60.558458 
L 730.971753 60.426279 
L 731.84699 60.261054 
L 732.284609 60.261054 
L 734.035083 59.699292 
L 734.472701 59.633202 
L 735.347938 59.269709 
L 736.660793 58.873171 
L 737.973649 58.443588 
L 740.161741 57.947915 
L 740.59936 57.683556 
L 741.474596 57.518332 
L 742.349833 57.419197 
L 742.787452 57.187884 
L 743.22507 57.154839 
L 744.100307 56.593076 
L 745.850781 56.196538 
L 746.726018 55.8 
L 747.163636 55.8 
L 747.163636 55.8 
" clip-path="url(#p618ecc066e)" style="fill: none; stroke: #1f77b4; stroke-width: 1.5; stroke-linecap: square"/>
   </g>
   <g id="line2d_38">
    <path d="M 138.873982 307.8 
L 142.812548 307.700865 
L 146.313496 307.535641 
L 148.06397 307.535641 
L 148.501588 307.403462 
L 150.68968 307.304327 
L 153.315391 307.006924 
L 155.941102 306.907789 
L 156.816339 306.808655 
L 159.879668 306.676475 
L 162.942997 306.577341 
L 165.131089 306.511251 
L 170.820129 306.412116 
L 173.008222 306.346027 
L 176.946788 306.246892 
L 178.697262 306.213847 
L 183.073446 306.114713 
L 184.82392 305.949489 
L 186.574394 305.916444 
L 189.200105 305.817309 
L 190.950578 305.784264 
L 193.138671 305.718175 
L 194.889145 305.55295 
L 198.827711 305.453816 
L 199.702948 305.387726 
L 201.453421 305.288592 
L 204.079132 305.189457 
L 205.829606 305.090323 
L 213.706738 304.59465 
L 216.770067 304.495515 
L 218.082923 304.363336 
L 220.271015 304.264201 
L 224.6472 304.032887 
L 229.023384 303.966798 
L 230.773858 303.768529 
L 232.524332 303.669394 
L 237.338135 303.206766 
L 240.401464 302.843273 
L 241.714319 302.777183 
L 245.215267 302.314555 
L 247.840978 302.248466 
L 249.153833 302.116286 
L 250.466688 302.017152 
L 262.720005 301.058851 
L 263.595242 300.893627 
L 266.220953 300.794493 
L 273.222848 300.36491 
L 276.286177 300.265775 
L 278.036651 300.067506 
L 280.224743 299.968371 
L 282.850454 299.869237 
L 285.038547 299.770102 
L 286.78902 299.737057 
L 288.977113 299.670968 
L 289.85235 299.538788 
L 295.979008 299.439654 
L 296.854245 299.340519 
L 302.105666 299.241385 
L 306.044232 299.043116 
L 309.107562 298.943981 
L 310.858035 298.745712 
L 313.921365 298.646577 
L 314.796602 298.481353 
L 316.984694 298.415264 
L 321.360878 298.349174 
L 323.111352 298.18395 
L 324.861826 298.150905 
L 326.174681 298.05177 
L 327.925155 297.886546 
L 332.30134 297.655232 
L 336.677524 297.556098 
L 340.61609 297.357828 
L 341.928946 297.324784 
L 342.804183 297.192604 
L 344.992275 297.09347 
L 345.867512 297.02738 
L 346.742749 296.96129 
L 347.617986 296.895201 
L 351.556552 296.829111 
L 352.869407 296.729976 
L 364.685106 295.9369 
L 366.873198 295.837766 
L 369.06129 295.771676 
L 375.187949 295.672541 
L 376.063185 295.540362 
L 382.189844 295.441227 
L 386.566028 295.209913 
L 387.441265 295.176869 
L 388.316502 295.077734 
L 390.504594 294.9786 
L 392.692687 294.91251 
L 394.880779 294.813375 
L 397.068871 294.747286 
L 401.007437 294.648151 
L 403.633148 294.549017 
L 409.759807 294.449882 
L 414.57361 294.185523 
L 416.324083 294.119434 
L 417.636939 294.020299 
L 423.763597 293.921164 
L 426.389308 293.82203 
L 434.26644 293.722895 
L 436.016914 293.689851 
L 441.268335 293.623761 
L 442.143572 293.557671 
L 448.270231 293.458537 
L 450.020705 293.425492 
L 461.398784 293.326357 
L 464.024495 293.227223 
L 482.40447 293.128088 
L 484.592563 293.061998 
L 495.970642 292.995909 
L 496.845879 292.929819 
L 499.033972 292.863729 
L 500.346827 292.73155 
L 502.972538 292.632415 
L 506.035867 292.500236 
L 509.974433 292.401101 
L 512.162525 292.335012 
L 515.225855 292.235877 
L 518.726802 292.070653 
L 520.914894 291.971518 
L 522.665368 291.938474 
L 526.603934 291.839339 
L 528.354408 291.806294 
L 534.043448 291.70716 
L 535.793922 291.674115 
L 537.982014 291.57498 
L 540.607725 291.475846 
L 543.671054 291.409756 
L 544.546291 291.343666 
L 555.049134 291.244532 
L 560.738174 290.914083 
L 562.926266 290.847994 
L 563.801503 290.748859 
L 564.67674 290.682769 
L 568.177688 290.583635 
L 570.803398 290.4845 
L 575.179583 290.385366 
L 577.367675 290.154052 
L 581.74386 290.054917 
L 582.619097 289.955783 
L 586.995281 289.856648 
L 589.183374 289.790559 
L 593.997177 289.757514 
L 594.872414 289.658379 
L 599.686217 289.559245 
L 600.561453 289.493155 
L 610.18906 289.39402 
L 612.81477 289.294886 
L 619.379047 289.195751 
L 621.129521 289.162707 
L 625.068087 289.096617 
L 625.943324 288.997482 
L 631.632364 288.898348 
L 633.820456 288.832258 
L 641.697588 288.733124 
L 643.010444 288.633989 
L 644.323299 288.534854 
L 645.636154 288.43572 
L 652.200431 288.336585 
L 654.826142 288.237451 
L 666.64184 288.138316 
L 670.580407 287.940047 
L 675.831828 287.840913 
L 676.707065 287.774823 
L 683.271342 287.708733 
L 684.146579 287.642644 
L 688.960382 287.543509 
L 690.710855 287.510464 
L 696.837514 287.41133 
L 699.463225 287.312195 
L 706.902738 287.213061 
L 708.653212 287.180016 
L 712.591778 287.080881 
L 716.092726 286.915657 
L 720.906529 286.816522 
L 723.969858 286.684343 
L 727.908424 286.585208 
L 728.783661 286.519119 
L 737.53603 286.419984 
L 739.724123 286.353895 
L 742.349833 286.25476 
L 744.975544 286.155625 
L 747.163636 286.089536 
L 747.163636 286.089536 
" clip-path="url(#p618ecc066e)" style="fill: none; stroke: #ff7f0e; stroke-width: 1.5; stroke-linecap: square"/>
   </g>
   <g id="patch_3">
    <path d="M 108 320.4 
L 108 43.2 
" style="fill: none; stroke: #a9a9a9; stroke-width: 0.8; stroke-linejoin: miter; stroke-linecap: square"/>
   </g>
   <g id="patch_4">
    <path d="M 777.6 320.4 
L 777.6 43.2 
" style="fill: none"/>
   </g>
   <g id="patch_5">
    <path d="M 108 320.4 
L 777.6 320.4 
" style="fill: none; stroke: #a9a9a9; stroke-width: 0.8; stroke-linejoin: miter; stroke-linecap: square"/>
   </g>
   <g id="patch_6">
    <path d="M 108 43.2 
L 777.6 43.2 
" style="fill: none"/>
   </g>
   <g id="text_19">
    <!-- get_subscribe history -->
    <g style="fill: #a9a9a9" transform="translate(378.6075 37.2) scale(0.12 -0.12)">
     <defs>
      <path id="DejaVuSans-67" d="M 2906 1791 
Q 2906 2416 2648 2759 
Q 2391 3103 1925 3103 
Q 1463 3103 1205 2759 
Q 947 2416 947 1791 
Q 947 1169 1205 825 
Q 1463 481 1925 481 
Q 2391 481 2648 825 
Q 2906 1169 2906 1791 
z
M 3481 434 
Q 3481 -459 3084 -895 
Q 2688 -1331 1869 -1331 
Q 1566 -1331 1297 -1286 
Q 1028 -1241 775 -1147 
L 775 -588 
Q 1028 -725 1275 -790 
Q 1522 -856 1778 -856 
Q 2344 -856 2625 -561 
Q 2906 -266 2906 331 
L 2906 616 
Q 2728 306 2450 153 
Q 2172 0 1784 0 
Q 1141 0 747 490 
Q 353 981 353 1791 
Q 353 2603 747 3093 
Q 1141 3584 1784 3584 
Q 2172 3584 2450 3431 
Q 2728 3278 2906 2969 
L 2906 3500 
L 3481 3500 
L 3481 434 
z
" transform="scale(0.015625)"/>
      <path id="DejaVuSans-65" d="M 3597 1894 
L 3597 1613 
L 953 1613 
Q 991 1019 1311 708 
Q 1631 397 2203 397 
Q 2534 397 2845 478 
Q 3156 559 3463 722 
L 3463 178 
Q 3153 47 2828 -22 
Q 2503 -91 2169 -91 
Q 1331 -91 842 396 
Q 353 884 353 1716 
Q 353 2575 817 3079 
Q 1281 3584 2069 3584 
Q 2775 3584 3186 3129 
Q 3597 2675 3597 1894 
z
M 3022 2063 
Q 3016 2534 2758 2815 
Q 2500 3097 2075 3097 
Q 1594 3097 1305 2825 
Q 1016 2553 972 2059 
L 3022 2063 
z
" transform="scale(0.015625)"/>
      <path id="DejaVuSans-74" d="M 1172 4494 
L 1172 3500 
L 2356 3500 
L 2356 3053 
L 1172 3053 
L 1172 1153 
Q 1172 725 1289 603 
Q 1406 481 1766 481 
L 2356 481 
L 2356 0 
L 1766 0 
Q 1100 0 847 248 
Q 594 497 594 1153 
L 594 3053 
L 172 3053 
L 172 3500 
L 594 3500 
L 594 4494 
L 1172 4494 
z
" transform="scale(0.015625)"/>
      <path id="DejaVuSans-5f" d="M 3263 -1063 
L 3263 -1509 
L -63 -1509 
L -63 -1063 
L 3263 -1063 
z
" transform="scale(0.015625)"/>
      <path id="DejaVuSans-73" d="M 2834 3397 
L 2834 2853 
Q 2591 2978 2328 3040 
Q 2066 3103 1784 3103 
Q 1356 3103 1142 2972 
Q 928 2841 928 2578 
Q 928 2378 1081 2264 
Q 1234 2150 1697 2047 
L 1894 2003 
Q 2506 1872 2764 1633 
Q 3022 1394 3022 966 
Q 3022 478 2636 193 
Q 2250 -91 1575 -91 
Q 1294 -91 989 -36 
Q 684 19 347 128 
L 347 722 
Q 666 556 975 473 
Q 1284 391 1588 391 
Q 1994 391 2212 530 
Q 2431 669 2431 922 
Q 2431 1156 2273 1281 
Q 2116 1406 1581 1522 
L 1381 1569 
Q 847 1681 609 1914 
Q 372 2147 372 2553 
Q 372 3047 722 3315 
Q 1072 3584 1716 3584 
Q 2034 3584 2315 3537 
Q 2597 3491 2834 3397 
z
" transform="scale(0.015625)"/>
      <path id="DejaVuSans-75" d="M 544 1381 
L 544 3500 
L 1119 3500 
L 1119 1403 
Q 1119 906 1312 657 
Q 1506 409 1894 409 
Q 2359 409 2629 706 
Q 2900 1003 2900 1516 
L 2900 3500 
L 3475 3500 
L 3475 0 
L 2900 0 
L 2900 538 
Q 2691 219 2414 64 
Q 2138 -91 1772 -91 
Q 1169 -91 856 284 
Q 544 659 544 1381 
z
M 1991 3584 
L 1991 3584 
z
" transform="scale(0.015625)"/>
      <path id="DejaVuSans-62" d="M 3116 1747 
Q 3116 2381 2855 2742 
Q 2594 3103 2138 3103 
Q 1681 3103 1420 2742 
Q 1159 2381 1159 1747 
Q 1159 1113 1420 752 
Q 1681 391 2138 391 
Q 2594 391 2855 752 
Q 3116 1113 3116 1747 
z
M 1159 2969 
Q 1341 3281 1617 3432 
Q 1894 3584 2278 3584 
Q 2916 3584 3314 3078 
Q 3713 2572 3713 1747 
Q 3713 922 3314 415 
Q 2916 -91 2278 -91 
Q 1894 -91 1617 61 
Q 1341 213 1159 525 
L 1159 0 
L 581 0 
L 581 4863 
L 1159 4863 
L 1159 2969 
z
" transform="scale(0.015625)"/>
      <path id="DejaVuSans-63" d="M 3122 3366 
L 3122 2828 
Q 2878 2963 2633 3030 
Q 2388 3097 2138 3097 
Q 1578 3097 1268 2742 
Q 959 2388 959 1747 
Q 959 1106 1268 751 
Q 1578 397 2138 397 
Q 2388 397 2633 464 
Q 2878 531 3122 666 
L 3122 134 
Q 2881 22 2623 -34 
Q 2366 -91 2075 -91 
Q 1284 -91 818 406 
Q 353 903 353 1747 
Q 353 2603 823 3093 
Q 1294 3584 2113 3584 
Q 2378 3584 2631 3529 
Q 2884 3475 3122 3366 
z
" transform="scale(0.015625)"/>
      <path id="DejaVuSans-72" d="M 2631 2963 
Q 2534 3019 2420 3045 
Q 2306 3072 2169 3072 
Q 1681 3072 1420 2755 
Q 1159 2438 1159 1844 
L 1159 0 
L 581 0 
L 581 3500 
L 1159 3500 
L 1159 2956 
Q 1341 3275 1631 3429 
Q 1922 3584 2338 3584 
Q 2397 3584 2469 3576 
Q 2541 3569 2628 3553 
L 2631 2963 
z
" transform="scale(0.015625)"/>
      <path id="DejaVuSans-69" d="M 603 3500 
L 1178 3500 
L 1178 0 
L 603 0 
L 603 3500 
z
M 603 4863 
L 1178 4863 
L 1178 4134 
L 603 4134 
L 603 4863 
z
" transform="scale(0.015625)"/>
      <path id="DejaVuSans-20" transform="scale(0.015625)"/>
      <path id="DejaVuSans-68" d="M 3513 2113 
L 3513 0 
L 2938 0 
L 2938 2094 
Q 2938 2591 2744 2837 
Q 2550 3084 2163 3084 
Q 1697 3084 1428 2787 
Q 1159 2491 1159 1978 
L 1159 0 
L 581 0 
L 581 4863 
L 1159 4863 
L 1159 2956 
Q 1366 3272 1645 3428 
Q 1925 3584 2291 3584 
Q 2894 3584 3203 3211 
Q 3513 2838 3513 2113 
z
" transform="scale(0.015625)"/>
      <path id="DejaVuSans-6f" d="M 1959 3097 
Q 1497 3097 1228 2736 
Q 959 2375 959 1747 
Q 959 1119 1226 758 
Q 1494 397 1959 397 
Q 2419 397 2687 759 
Q 2956 1122 2956 1747 
Q 2956 2369 2687 2733 
Q 2419 3097 1959 3097 
z
M 1959 3584 
Q 2709 3584 3137 3096 
Q 3566 2609 3566 1747 
Q 3566 888 3137 398 
Q 2709 -91 1959 -91 
Q 1206 -91 779 398 
Q 353 888 353 1747 
Q 353 2609 779 3096 
Q 1206 3584 1959 3584 
z
" transform="scale(0.015625)"/>
      <path id="DejaVuSans-79" d="M 2059 -325 
Q 1816 -950 1584 -1140 
Q 1353 -1331 966 -1331 
L 506 -1331 
L 506 -850 
L 844 -850 
Q 1081 -850 1212 -737 
Q 1344 -625 1503 -206 
L 1606 56 
L 191 3500 
L 800 3500 
L 1894 763 
L 2988 3500 
L 3597 3500 
L 2059 -325 
z
" transform="scale(0.015625)"/>
     </defs>
     <use xlink:href="#DejaVuSans-67"/>
     <use xlink:href="#DejaVuSans-65" transform="translate(63.476562 0)"/>
     <use xlink:href="#DejaVuSans-74" transform="translate(125 0)"/>
     <use xlink:href="#DejaVuSans-5f" transform="translate(164.208984 0)"/>
     <use xlink:href="#DejaVuSans-73" transform="translate(214.208984 0)"/>
     <use xlink:href="#DejaVuSans-75" transform="translate(266.308594 0)"/>
     <use xlink:href="#DejaVuSans-62" transform="translate(329.6875 0)"/>
     <use xlink:href="#DejaVuSans-73" transform="translate(393.164062 0)"/>
     <use xlink:href="#DejaVuSans-63" transform="translate(445.263672 0)"/>
     <use xlink:href="#DejaVuSans-72" transform="translate(500.244141 0)"/>
     <use xlink:href="#DejaVuSans-69" transform="translate(541.357422 0)"/>
     <use xlink:href="#DejaVuSans-62" transform="translate(569.140625 0)"/>
     <use xlink:href="#DejaVuSans-65" transform="translate(632.617188 0)"/>
     <use xlink:href="#DejaVuSans-20" transform="translate(694.140625 0)"/>
     <use xlink:href="#DejaVuSans-68" transform="translate(725.927734 0)"/>
     <use xlink:href="#DejaVuSans-69" transform="translate(789.306641 0)"/>
     <use xlink:href="#DejaVuSans-73" transform="translate(817.089844 0)"/>
     <use xlink:href="#DejaVuSans-74" transform="translate(869.189453 0)"/>
     <use xlink:href="#DejaVuSans-6f" transform="translate(908.398438 0)"/>
     <use xlink:href="#DejaVuSans-72" transform="translate(969.580078 0)"/>
     <use xlink:href="#DejaVuSans-79" transform="translate(1010.693359 0)"/>
    </g>
   </g>
   <g id="legend_1">
    <g id="line2d_39">
     <path d="M 815.08 328.498438 
L 825.08 328.498438 
L 835.08 328.498438 
" style="fill: none; stroke: #1f77b4; stroke-width: 1.5; stroke-linecap: square"/>
    </g>
    <g id="text_20">
     <!-- star -->
     <g style="fill: #a9a9a9" transform="translate(843.08 331.998438) scale(0.1 -0.1)">
      <defs>
       <path id="DejaVuSans-61" d="M 2194 1759 
Q 1497 1759 1228 1600 
Q 959 1441 959 1056 
Q 959 750 1161 570 
Q 1363 391 1709 391 
Q 2188 391 2477 730 
Q 2766 1069 2766 1631 
L 2766 1759 
L 2194 1759 
z
M 3341 1997 
L 3341 0 
L 2766 0 
L 2766 531 
Q 2569 213 2275 61 
Q 1981 -91 1556 -91 
Q 1019 -91 701 211 
Q 384 513 384 1019 
Q 384 1609 779 1909 
Q 1175 2209 1959 2209 
L 2766 2209 
L 2766 2266 
Q 2766 2663 2505 2880 
Q 2244 3097 1772 3097 
Q 1472 3097 1187 3025 
Q 903 2953 641 2809 
L 641 3341 
Q 956 3463 1253 3523 
Q 1550 3584 1831 3584 
Q 2591 3584 2966 3190 
Q 3341 2797 3341 1997 
z
" transform="scale(0.015625)"/>
      </defs>
      <use xlink:href="#DejaVuSans-73"/>
      <use xlink:href="#DejaVuSans-74" transform="translate(52.099609 0)"/>
      <use xlink:href="#DejaVuSans-61" transform="translate(91.308594 0)"/>
      <use xlink:href="#DejaVuSans-72" transform="translate(152.587891 0)"/>
     </g>
    </g>
    <g id="line2d_40">
     <path d="M 815.08 343.176562 
L 825.08 343.176562 
L 835.08 343.176562 
" style="fill: none; stroke: #ff7f0e; stroke-width: 1.5; stroke-linecap: square"/>
    </g>
    <g id="text_21">
     <!-- fork -->
     <g style="fill: #a9a9a9" transform="translate(843.08 346.676562) scale(0.1 -0.1)">
      <defs>
       <path id="DejaVuSans-66" d="M 2375 4863 
L 2375 4384 
L 1825 4384 
Q 1516 4384 1395 4259 
Q 1275 4134 1275 3809 
L 1275 3500 
L 2222 3500 
L 2222 3053 
L 1275 3053 
L 1275 0 
L 697 0 
L 697 3053 
L 147 3053 
L 147 3500 
L 697 3500 
L 697 3744 
Q 697 4328 969 4595 
Q 1241 4863 1831 4863 
L 2375 4863 
z
" transform="scale(0.015625)"/>
       <path id="DejaVuSans-6b" d="M 581 4863 
L 1159 4863 
L 1159 1991 
L 2875 3500 
L 3609 3500 
L 1753 1863 
L 3688 0 
L 2938 0 
L 1159 1709 
L 1159 0 
L 581 0 
L 581 4863 
z
" transform="scale(0.015625)"/>
      </defs>
      <use xlink:href="#DejaVuSans-66"/>
      <use xlink:href="#DejaVuSans-6f" transform="translate(35.205078 0)"/>
      <use xlink:href="#DejaVuSans-72" transform="translate(96.386719 0)"/>
      <use xlink:href="#DejaVuSans-6b" transform="translate(137.5 0)"/>
     </g>
    </g>
   </g>
  </g>
 </g>
 <defs>
  <clipPath id="p618ecc066e">
   <rect x="108" y="43.2" width="669.6" height="277.2"/>
  </clipPath>
 </defs>
</svg>
