<?xml version="1.0" encoding="utf-8" standalone="no"?>
<!DOCTYPE svg PUBLIC "-//W3C//DTD SVG 1.1//EN"
  "http://www.w3.org/Graphics/SVG/1.1/DTD/svg11.dtd">
<svg xmlns:xlink="http://www.w3.org/1999/xlink" width="864pt" height="360pt" viewBox="0 0 864 360" xmlns="http://www.w3.org/2000/svg" version="1.1">
 <metadata>
  <rdf:RDF xmlns:dc="http://purl.org/dc/elements/1.1/" xmlns:cc="http://creativecommons.org/ns#" xmlns:rdf="http://www.w3.org/1999/02/22-rdf-syntax-ns#">
   <cc:Work>
    <dc:type rdf:resource="http://purl.org/dc/dcmitype/StillImage"/>
    <dc:date>2025-05-13T20:07:21.047617</dc:date>
    <dc:format>image/svg+xml</dc:format>
    <dc:creator>
     <cc:Agent>
      <dc:title>Matplotlib v3.10.3, https://matplotlib.org/</dc:title>
     </cc:Agent>
    </dc:creator>
   </cc:Work>
  </rdf:RDF>
 </metadata>
 <defs>
  <style type="text/css">*{stroke-linejoin: round; stroke-linecap: butt}</style>
 </defs>
 <g id="figure_1">
  <g id="patch_1">
   <path d="M 0 360 
L 864 360 
L 864 0 
L 0 0 
L 0 360 
z
" style="fill: none; opacity: 0"/>
  </g>
  <g id="axes_1">
   <g id="patch_2">
    <path d="M 108 320.4 
L 777.6 320.4 
L 777.6 43.2 
L 108 43.2 
L 108 320.4 
z
" style="fill: none; opacity: 0"/>
   </g>
   <g id="matplotlib.axis_1">
    <g id="xtick_1">
     <g id="line2d_1">
      <path d="M 128.356646 320.4 
L 128.356646 43.2 
" clip-path="url(#pcb66d0690f)" style="fill: none; stroke-dasharray: 5.12,1.28,0.8,1.28; stroke-dashoffset: 0; stroke: #b0b0b0; stroke-width: 0.8"/>
     </g>
     <g id="line2d_2">
      <defs>
       <path id="m5eb2cf0af0" d="M 0 0 
L 0 3.5 
" style="stroke: #a9a9a9; stroke-width: 0.8"/>
      </defs>
      <g>
       <use xlink:href="#m5eb2cf0af0" x="128.356646" y="320.4" style="fill: #a9a9a9; stroke: #a9a9a9; stroke-width: 0.8"/>
      </g>
     </g>
     <g id="text_1">
      <!-- 2021-07 -->
      <g style="fill: #a9a9a9" transform="translate(107.46524 334.998438) scale(0.1 -0.1)">
       <defs>
        <path id="DejaVuSans-32" d="M 1228 531 
L 3431 531 
L 3431 0 
L 469 0 
L 469 531 
Q 828 903 1448 1529 
Q 2069 2156 2228 2338 
Q 2531 2678 2651 2914 
Q 2772 3150 2772 3378 
Q 2772 3750 2511 3984 
Q 2250 4219 1831 4219 
Q 1534 4219 1204 4116 
Q 875 4013 500 3803 
L 500 4441 
Q 881 4594 1212 4672 
Q 1544 4750 1819 4750 
Q 2544 4750 2975 4387 
Q 3406 4025 3406 3419 
Q 3406 3131 3298 2873 
Q 3191 2616 2906 2266 
Q 2828 2175 2409 1742 
Q 1991 1309 1228 531 
z
" transform="scale(0.015625)"/>
        <path id="DejaVuSans-30" d="M 2034 4250 
Q 1547 4250 1301 3770 
Q 1056 3291 1056 2328 
Q 1056 1369 1301 889 
Q 1547 409 2034 409 
Q 2525 409 2770 889 
Q 3016 1369 3016 2328 
Q 3016 3291 2770 3770 
Q 2525 4250 2034 4250 
z
M 2034 4750 
Q 2819 4750 3233 4129 
Q 3647 3509 3647 2328 
Q 3647 1150 3233 529 
Q 2819 -91 2034 -91 
Q 1250 -91 836 529 
Q 422 1150 422 2328 
Q 422 3509 836 4129 
Q 1250 4750 2034 4750 
z
" transform="scale(0.015625)"/>
        <path id="DejaVuSans-31" d="M 794 531 
L 1825 531 
L 1825 4091 
L 703 3866 
L 703 4441 
L 1819 4666 
L 2450 4666 
L 2450 531 
L 3481 531 
L 3481 0 
L 794 0 
L 794 531 
z
" transform="scale(0.015625)"/>
        <path id="DejaVuSans-2d" d="M 313 2009 
L 1997 2009 
L 1997 1497 
L 313 1497 
L 313 2009 
z
" transform="scale(0.015625)"/>
        <path id="DejaVuSans-37" d="M 525 4666 
L 3525 4666 
L 3525 4397 
L 1831 0 
L 1172 0 
L 2766 4134 
L 525 4134 
L 525 4666 
z
" transform="scale(0.015625)"/>
       </defs>
       <use xlink:href="#DejaVuSans-32"/>
       <use xlink:href="#DejaVuSans-30" transform="translate(63.623047 0)"/>
       <use xlink:href="#DejaVuSans-32" transform="translate(127.246094 0)"/>
       <use xlink:href="#DejaVuSans-31" transform="translate(190.869141 0)"/>
       <use xlink:href="#DejaVuSans-2d" transform="translate(254.492188 0)"/>
       <use xlink:href="#DejaVuSans-30" transform="translate(290.576172 0)"/>
       <use xlink:href="#DejaVuSans-37" transform="translate(354.199219 0)"/>
      </g>
     </g>
    </g>
    <g id="xtick_2">
     <g id="line2d_3">
      <path d="M 208.994384 320.4 
L 208.994384 43.2 
" clip-path="url(#pcb66d0690f)" style="fill: none; stroke-dasharray: 5.12,1.28,0.8,1.28; stroke-dashoffset: 0; stroke: #b0b0b0; stroke-width: 0.8"/>
     </g>
     <g id="line2d_4">
      <g>
       <use xlink:href="#m5eb2cf0af0" x="208.994384" y="320.4" style="fill: #a9a9a9; stroke: #a9a9a9; stroke-width: 0.8"/>
      </g>
     </g>
     <g id="text_2">
      <!-- 2022-01 -->
      <g style="fill: #a9a9a9" transform="translate(188.102978 334.998438) scale(0.1 -0.1)">
       <use xlink:href="#DejaVuSans-32"/>
       <use xlink:href="#DejaVuSans-30" transform="translate(63.623047 0)"/>
       <use xlink:href="#DejaVuSans-32" transform="translate(127.246094 0)"/>
       <use xlink:href="#DejaVuSans-32" transform="translate(190.869141 0)"/>
       <use xlink:href="#DejaVuSans-2d" transform="translate(254.492188 0)"/>
       <use xlink:href="#DejaVuSans-30" transform="translate(290.576172 0)"/>
       <use xlink:href="#DejaVuSans-31" transform="translate(354.199219 0)"/>
      </g>
     </g>
    </g>
    <g id="xtick_3">
     <g id="line2d_5">
      <path d="M 288.317377 320.4 
L 288.317377 43.2 
" clip-path="url(#pcb66d0690f)" style="fill: none; stroke-dasharray: 5.12,1.28,0.8,1.28; stroke-dashoffset: 0; stroke: #b0b0b0; stroke-width: 0.8"/>
     </g>
     <g id="line2d_6">
      <g>
       <use xlink:href="#m5eb2cf0af0" x="288.317377" y="320.4" style="fill: #a9a9a9; stroke: #a9a9a9; stroke-width: 0.8"/>
      </g>
     </g>
     <g id="text_3">
      <!-- 2022-07 -->
      <g style="fill: #a9a9a9" transform="translate(267.425971 334.998438) scale(0.1 -0.1)">
       <use xlink:href="#DejaVuSans-32"/>
       <use xlink:href="#DejaVuSans-30" transform="translate(63.623047 0)"/>
       <use xlink:href="#DejaVuSans-32" transform="translate(127.246094 0)"/>
       <use xlink:href="#DejaVuSans-32" transform="translate(190.869141 0)"/>
       <use xlink:href="#DejaVuSans-2d" transform="translate(254.492188 0)"/>
       <use xlink:href="#DejaVuSans-30" transform="translate(290.576172 0)"/>
       <use xlink:href="#DejaVuSans-37" transform="translate(354.199219 0)"/>
      </g>
     </g>
    </g>
    <g id="xtick_4">
     <g id="line2d_7">
      <path d="M 368.955115 320.4 
L 368.955115 43.2 
" clip-path="url(#pcb66d0690f)" style="fill: none; stroke-dasharray: 5.12,1.28,0.8,1.28; stroke-dashoffset: 0; stroke: #b0b0b0; stroke-width: 0.8"/>
     </g>
     <g id="line2d_8">
      <g>
       <use xlink:href="#m5eb2cf0af0" x="368.955115" y="320.4" style="fill: #a9a9a9; stroke: #a9a9a9; stroke-width: 0.8"/>
      </g>
     </g>
     <g id="text_4">
      <!-- 2023-01 -->
      <g style="fill: #a9a9a9" transform="translate(348.063709 334.998438) scale(0.1 -0.1)">
       <defs>
        <path id="DejaVuSans-33" d="M 2597 2516 
Q 3050 2419 3304 2112 
Q 3559 1806 3559 1356 
Q 3559 666 3084 287 
Q 2609 -91 1734 -91 
Q 1441 -91 1130 -33 
Q 819 25 488 141 
L 488 750 
Q 750 597 1062 519 
Q 1375 441 1716 441 
Q 2309 441 2620 675 
Q 2931 909 2931 1356 
Q 2931 1769 2642 2001 
Q 2353 2234 1838 2234 
L 1294 2234 
L 1294 2753 
L 1863 2753 
Q 2328 2753 2575 2939 
Q 2822 3125 2822 3475 
Q 2822 3834 2567 4026 
Q 2313 4219 1838 4219 
Q 1578 4219 1281 4162 
Q 984 4106 628 3988 
L 628 4550 
Q 988 4650 1302 4700 
Q 1616 4750 1894 4750 
Q 2613 4750 3031 4423 
Q 3450 4097 3450 3541 
Q 3450 3153 3228 2886 
Q 3006 2619 2597 2516 
z
" transform="scale(0.015625)"/>
       </defs>
       <use xlink:href="#DejaVuSans-32"/>
       <use xlink:href="#DejaVuSans-30" transform="translate(63.623047 0)"/>
       <use xlink:href="#DejaVuSans-32" transform="translate(127.246094 0)"/>
       <use xlink:href="#DejaVuSans-33" transform="translate(190.869141 0)"/>
       <use xlink:href="#DejaVuSans-2d" transform="translate(254.492188 0)"/>
       <use xlink:href="#DejaVuSans-30" transform="translate(290.576172 0)"/>
       <use xlink:href="#DejaVuSans-31" transform="translate(354.199219 0)"/>
      </g>
     </g>
    </g>
    <g id="xtick_5">
     <g id="line2d_9">
      <path d="M 448.278107 320.4 
L 448.278107 43.2 
" clip-path="url(#pcb66d0690f)" style="fill: none; stroke-dasharray: 5.12,1.28,0.8,1.28; stroke-dashoffset: 0; stroke: #b0b0b0; stroke-width: 0.8"/>
     </g>
     <g id="line2d_10">
      <g>
       <use xlink:href="#m5eb2cf0af0" x="448.278107" y="320.4" style="fill: #a9a9a9; stroke: #a9a9a9; stroke-width: 0.8"/>
      </g>
     </g>
     <g id="text_5">
      <!-- 2023-07 -->
      <g style="fill: #a9a9a9" transform="translate(427.386701 334.998438) scale(0.1 -0.1)">
       <use xlink:href="#DejaVuSans-32"/>
       <use xlink:href="#DejaVuSans-30" transform="translate(63.623047 0)"/>
       <use xlink:href="#DejaVuSans-32" transform="translate(127.246094 0)"/>
       <use xlink:href="#DejaVuSans-33" transform="translate(190.869141 0)"/>
       <use xlink:href="#DejaVuSans-2d" transform="translate(254.492188 0)"/>
       <use xlink:href="#DejaVuSans-30" transform="translate(290.576172 0)"/>
       <use xlink:href="#DejaVuSans-37" transform="translate(354.199219 0)"/>
      </g>
     </g>
    </g>
    <g id="xtick_6">
     <g id="line2d_11">
      <path d="M 528.915845 320.4 
L 528.915845 43.2 
" clip-path="url(#pcb66d0690f)" style="fill: none; stroke-dasharray: 5.12,1.28,0.8,1.28; stroke-dashoffset: 0; stroke: #b0b0b0; stroke-width: 0.8"/>
     </g>
     <g id="line2d_12">
      <g>
       <use xlink:href="#m5eb2cf0af0" x="528.915845" y="320.4" style="fill: #a9a9a9; stroke: #a9a9a9; stroke-width: 0.8"/>
      </g>
     </g>
     <g id="text_6">
      <!-- 2024-01 -->
      <g style="fill: #a9a9a9" transform="translate(508.024439 334.998438) scale(0.1 -0.1)">
       <defs>
        <path id="DejaVuSans-34" d="M 2419 4116 
L 825 1625 
L 2419 1625 
L 2419 4116 
z
M 2253 4666 
L 3047 4666 
L 3047 1625 
L 3713 1625 
L 3713 1100 
L 3047 1100 
L 3047 0 
L 2419 0 
L 2419 1100 
L 313 1100 
L 313 1709 
L 2253 4666 
z
" transform="scale(0.015625)"/>
       </defs>
       <use xlink:href="#DejaVuSans-32"/>
       <use xlink:href="#DejaVuSans-30" transform="translate(63.623047 0)"/>
       <use xlink:href="#DejaVuSans-32" transform="translate(127.246094 0)"/>
       <use xlink:href="#DejaVuSans-34" transform="translate(190.869141 0)"/>
       <use xlink:href="#DejaVuSans-2d" transform="translate(254.492188 0)"/>
       <use xlink:href="#DejaVuSans-30" transform="translate(290.576172 0)"/>
       <use xlink:href="#DejaVuSans-31" transform="translate(354.199219 0)"/>
      </g>
     </g>
    </g>
    <g id="xtick_7">
     <g id="line2d_13">
      <path d="M 608.677086 320.4 
L 608.677086 43.2 
" clip-path="url(#pcb66d0690f)" style="fill: none; stroke-dasharray: 5.12,1.28,0.8,1.28; stroke-dashoffset: 0; stroke: #b0b0b0; stroke-width: 0.8"/>
     </g>
     <g id="line2d_14">
      <g>
       <use xlink:href="#m5eb2cf0af0" x="608.677086" y="320.4" style="fill: #a9a9a9; stroke: #a9a9a9; stroke-width: 0.8"/>
      </g>
     </g>
     <g id="text_7">
      <!-- 2024-07 -->
      <g style="fill: #a9a9a9" transform="translate(587.78568 334.998438) scale(0.1 -0.1)">
       <use xlink:href="#DejaVuSans-32"/>
       <use xlink:href="#DejaVuSans-30" transform="translate(63.623047 0)"/>
       <use xlink:href="#DejaVuSans-32" transform="translate(127.246094 0)"/>
       <use xlink:href="#DejaVuSans-34" transform="translate(190.869141 0)"/>
       <use xlink:href="#DejaVuSans-2d" transform="translate(254.492188 0)"/>
       <use xlink:href="#DejaVuSans-30" transform="translate(290.576172 0)"/>
       <use xlink:href="#DejaVuSans-37" transform="translate(354.199219 0)"/>
      </g>
     </g>
    </g>
    <g id="xtick_8">
     <g id="line2d_15">
      <path d="M 689.314824 320.4 
L 689.314824 43.2 
" clip-path="url(#pcb66d0690f)" style="fill: none; stroke-dasharray: 5.12,1.28,0.8,1.28; stroke-dashoffset: 0; stroke: #b0b0b0; stroke-width: 0.8"/>
     </g>
     <g id="line2d_16">
      <g>
       <use xlink:href="#m5eb2cf0af0" x="689.314824" y="320.4" style="fill: #a9a9a9; stroke: #a9a9a9; stroke-width: 0.8"/>
      </g>
     </g>
     <g id="text_8">
      <!-- 2025-01 -->
      <g style="fill: #a9a9a9" transform="translate(668.423418 334.998438) scale(0.1 -0.1)">
       <defs>
        <path id="DejaVuSans-35" d="M 691 4666 
L 3169 4666 
L 3169 4134 
L 1269 4134 
L 1269 2991 
Q 1406 3038 1543 3061 
Q 1681 3084 1819 3084 
Q 2600 3084 3056 2656 
Q 3513 2228 3513 1497 
Q 3513 744 3044 326 
Q 2575 -91 1722 -91 
Q 1428 -91 1123 -41 
Q 819 9 494 109 
L 494 744 
Q 775 591 1075 516 
Q 1375 441 1709 441 
Q 2250 441 2565 725 
Q 2881 1009 2881 1497 
Q 2881 1984 2565 2268 
Q 2250 2553 1709 2553 
Q 1456 2553 1204 2497 
Q 953 2441 691 2322 
L 691 4666 
z
" transform="scale(0.015625)"/>
       </defs>
       <use xlink:href="#DejaVuSans-32"/>
       <use xlink:href="#DejaVuSans-30" transform="translate(63.623047 0)"/>
       <use xlink:href="#DejaVuSans-32" transform="translate(127.246094 0)"/>
       <use xlink:href="#DejaVuSans-35" transform="translate(190.869141 0)"/>
       <use xlink:href="#DejaVuSans-2d" transform="translate(254.492188 0)"/>
       <use xlink:href="#DejaVuSans-30" transform="translate(290.576172 0)"/>
       <use xlink:href="#DejaVuSans-31" transform="translate(354.199219 0)"/>
      </g>
     </g>
    </g>
    <g id="xtick_9">
     <g id="line2d_17">
      <path d="M 768.637817 320.4 
L 768.637817 43.2 
" clip-path="url(#pcb66d0690f)" style="fill: none; stroke-dasharray: 5.12,1.28,0.8,1.28; stroke-dashoffset: 0; stroke: #b0b0b0; stroke-width: 0.8"/>
     </g>
     <g id="line2d_18">
      <g>
       <use xlink:href="#m5eb2cf0af0" x="768.637817" y="320.4" style="fill: #a9a9a9; stroke: #a9a9a9; stroke-width: 0.8"/>
      </g>
     </g>
     <g id="text_9">
      <!-- 2025-07 -->
      <g style="fill: #a9a9a9" transform="translate(747.74641 334.998438) scale(0.1 -0.1)">
       <use xlink:href="#DejaVuSans-32"/>
       <use xlink:href="#DejaVuSans-30" transform="translate(63.623047 0)"/>
       <use xlink:href="#DejaVuSans-32" transform="translate(127.246094 0)"/>
       <use xlink:href="#DejaVuSans-35" transform="translate(190.869141 0)"/>
       <use xlink:href="#DejaVuSans-2d" transform="translate(254.492188 0)"/>
       <use xlink:href="#DejaVuSans-30" transform="translate(290.576172 0)"/>
       <use xlink:href="#DejaVuSans-37" transform="translate(354.199219 0)"/>
      </g>
     </g>
    </g>
   </g>
   <g id="matplotlib.axis_2">
    <g id="ytick_1">
     <g id="line2d_19">
      <path d="M 108 307.833071 
L 777.6 307.833071 
" clip-path="url(#pcb66d0690f)" style="fill: none; stroke-dasharray: 5.12,1.28,0.8,1.28; stroke-dashoffset: 0; stroke: #b0b0b0; stroke-width: 0.8"/>
     </g>
     <g id="line2d_20">
      <defs>
       <path id="m898d620129" d="M 0 0 
L -3.5 0 
" style="stroke: #a9a9a9; stroke-width: 0.8"/>
      </defs>
      <g>
       <use xlink:href="#m898d620129" x="108" y="307.833071" style="fill: #a9a9a9; stroke: #a9a9a9; stroke-width: 0.8"/>
      </g>
     </g>
     <g id="text_10">
      <!-- 0 -->
      <g style="fill: #a9a9a9" transform="translate(94.6375 311.63229) scale(0.1 -0.1)">
       <use xlink:href="#DejaVuSans-30"/>
      </g>
     </g>
    </g>
    <g id="ytick_2">
     <g id="line2d_21">
      <path d="M 108 274.762205 
L 777.6 274.762205 
" clip-path="url(#pcb66d0690f)" style="fill: none; stroke-dasharray: 5.12,1.28,0.8,1.28; stroke-dashoffset: 0; stroke: #b0b0b0; stroke-width: 0.8"/>
     </g>
     <g id="line2d_22">
      <g>
       <use xlink:href="#m898d620129" x="108" y="274.762205" style="fill: #a9a9a9; stroke: #a9a9a9; stroke-width: 0.8"/>
      </g>
     </g>
     <g id="text_11">
      <!-- 1000 -->
      <g style="fill: #a9a9a9" transform="translate(75.55 278.561423) scale(0.1 -0.1)">
       <use xlink:href="#DejaVuSans-31"/>
       <use xlink:href="#DejaVuSans-30" transform="translate(63.623047 0)"/>
       <use xlink:href="#DejaVuSans-30" transform="translate(127.246094 0)"/>
       <use xlink:href="#DejaVuSans-30" transform="translate(190.869141 0)"/>
      </g>
     </g>
    </g>
    <g id="ytick_3">
     <g id="line2d_23">
      <path d="M 108 241.691339 
L 777.6 241.691339 
" clip-path="url(#pcb66d0690f)" style="fill: none; stroke-dasharray: 5.12,1.28,0.8,1.28; stroke-dashoffset: 0; stroke: #b0b0b0; stroke-width: 0.8"/>
     </g>
     <g id="line2d_24">
      <g>
       <use xlink:href="#m898d620129" x="108" y="241.691339" style="fill: #a9a9a9; stroke: #a9a9a9; stroke-width: 0.8"/>
      </g>
     </g>
     <g id="text_12">
      <!-- 2000 -->
      <g style="fill: #a9a9a9" transform="translate(75.55 245.490557) scale(0.1 -0.1)">
       <use xlink:href="#DejaVuSans-32"/>
       <use xlink:href="#DejaVuSans-30" transform="translate(63.623047 0)"/>
       <use xlink:href="#DejaVuSans-30" transform="translate(127.246094 0)"/>
       <use xlink:href="#DejaVuSans-30" transform="translate(190.869141 0)"/>
      </g>
     </g>
    </g>
    <g id="ytick_4">
     <g id="line2d_25">
      <path d="M 108 208.620472 
L 777.6 208.620472 
" clip-path="url(#pcb66d0690f)" style="fill: none; stroke-dasharray: 5.12,1.28,0.8,1.28; stroke-dashoffset: 0; stroke: #b0b0b0; stroke-width: 0.8"/>
     </g>
     <g id="line2d_26">
      <g>
       <use xlink:href="#m898d620129" x="108" y="208.620472" style="fill: #a9a9a9; stroke: #a9a9a9; stroke-width: 0.8"/>
      </g>
     </g>
     <g id="text_13">
      <!-- 3000 -->
      <g style="fill: #a9a9a9" transform="translate(75.55 212.419691) scale(0.1 -0.1)">
       <use xlink:href="#DejaVuSans-33"/>
       <use xlink:href="#DejaVuSans-30" transform="translate(63.623047 0)"/>
       <use xlink:href="#DejaVuSans-30" transform="translate(127.246094 0)"/>
       <use xlink:href="#DejaVuSans-30" transform="translate(190.869141 0)"/>
      </g>
     </g>
    </g>
    <g id="ytick_5">
     <g id="line2d_27">
      <path d="M 108 175.549606 
L 777.6 175.549606 
" clip-path="url(#pcb66d0690f)" style="fill: none; stroke-dasharray: 5.12,1.28,0.8,1.28; stroke-dashoffset: 0; stroke: #b0b0b0; stroke-width: 0.8"/>
     </g>
     <g id="line2d_28">
      <g>
       <use xlink:href="#m898d620129" x="108" y="175.549606" style="fill: #a9a9a9; stroke: #a9a9a9; stroke-width: 0.8"/>
      </g>
     </g>
     <g id="text_14">
      <!-- 4000 -->
      <g style="fill: #a9a9a9" transform="translate(75.55 179.348825) scale(0.1 -0.1)">
       <use xlink:href="#DejaVuSans-34"/>
       <use xlink:href="#DejaVuSans-30" transform="translate(63.623047 0)"/>
       <use xlink:href="#DejaVuSans-30" transform="translate(127.246094 0)"/>
       <use xlink:href="#DejaVuSans-30" transform="translate(190.869141 0)"/>
      </g>
     </g>
    </g>
    <g id="ytick_6">
     <g id="line2d_29">
      <path d="M 108 142.47874 
L 777.6 142.47874 
" clip-path="url(#pcb66d0690f)" style="fill: none; stroke-dasharray: 5.12,1.28,0.8,1.28; stroke-dashoffset: 0; stroke: #b0b0b0; stroke-width: 0.8"/>
     </g>
     <g id="line2d_30">
      <g>
       <use xlink:href="#m898d620129" x="108" y="142.47874" style="fill: #a9a9a9; stroke: #a9a9a9; stroke-width: 0.8"/>
      </g>
     </g>
     <g id="text_15">
      <!-- 5000 -->
      <g style="fill: #a9a9a9" transform="translate(75.55 146.277959) scale(0.1 -0.1)">
       <use xlink:href="#DejaVuSans-35"/>
       <use xlink:href="#DejaVuSans-30" transform="translate(63.623047 0)"/>
       <use xlink:href="#DejaVuSans-30" transform="translate(127.246094 0)"/>
       <use xlink:href="#DejaVuSans-30" transform="translate(190.869141 0)"/>
      </g>
     </g>
    </g>
    <g id="ytick_7">
     <g id="line2d_31">
      <path d="M 108 109.407874 
L 777.6 109.407874 
" clip-path="url(#pcb66d0690f)" style="fill: none; stroke-dasharray: 5.12,1.28,0.8,1.28; stroke-dashoffset: 0; stroke: #b0b0b0; stroke-width: 0.8"/>
     </g>
     <g id="line2d_32">
      <g>
       <use xlink:href="#m898d620129" x="108" y="109.407874" style="fill: #a9a9a9; stroke: #a9a9a9; stroke-width: 0.8"/>
      </g>
     </g>
     <g id="text_16">
      <!-- 6000 -->
      <g style="fill: #a9a9a9" transform="translate(75.55 113.207093) scale(0.1 -0.1)">
       <defs>
        <path id="DejaVuSans-36" d="M 2113 2584 
Q 1688 2584 1439 2293 
Q 1191 2003 1191 1497 
Q 1191 994 1439 701 
Q 1688 409 2113 409 
Q 2538 409 2786 701 
Q 3034 994 3034 1497 
Q 3034 2003 2786 2293 
Q 2538 2584 2113 2584 
z
M 3366 4563 
L 3366 3988 
Q 3128 4100 2886 4159 
Q 2644 4219 2406 4219 
Q 1781 4219 1451 3797 
Q 1122 3375 1075 2522 
Q 1259 2794 1537 2939 
Q 1816 3084 2150 3084 
Q 2853 3084 3261 2657 
Q 3669 2231 3669 1497 
Q 3669 778 3244 343 
Q 2819 -91 2113 -91 
Q 1303 -91 875 529 
Q 447 1150 447 2328 
Q 447 3434 972 4092 
Q 1497 4750 2381 4750 
Q 2619 4750 2861 4703 
Q 3103 4656 3366 4563 
z
" transform="scale(0.015625)"/>
       </defs>
       <use xlink:href="#DejaVuSans-36"/>
       <use xlink:href="#DejaVuSans-30" transform="translate(63.623047 0)"/>
       <use xlink:href="#DejaVuSans-30" transform="translate(127.246094 0)"/>
       <use xlink:href="#DejaVuSans-30" transform="translate(190.869141 0)"/>
      </g>
     </g>
    </g>
    <g id="ytick_8">
     <g id="line2d_33">
      <path d="M 108 76.337008 
L 777.6 76.337008 
" clip-path="url(#pcb66d0690f)" style="fill: none; stroke-dasharray: 5.12,1.28,0.8,1.28; stroke-dashoffset: 0; stroke: #b0b0b0; stroke-width: 0.8"/>
     </g>
     <g id="line2d_34">
      <g>
       <use xlink:href="#m898d620129" x="108" y="76.337008" style="fill: #a9a9a9; stroke: #a9a9a9; stroke-width: 0.8"/>
      </g>
     </g>
     <g id="text_17">
      <!-- 7000 -->
      <g style="fill: #a9a9a9" transform="translate(75.55 80.136227) scale(0.1 -0.1)">
       <use xlink:href="#DejaVuSans-37"/>
       <use xlink:href="#DejaVuSans-30" transform="translate(63.623047 0)"/>
       <use xlink:href="#DejaVuSans-30" transform="translate(127.246094 0)"/>
       <use xlink:href="#DejaVuSans-30" transform="translate(190.869141 0)"/>
      </g>
     </g>
    </g>
    <g id="ytick_9">
     <g id="line2d_35">
      <path d="M 108 43.266142 
L 777.6 43.266142 
" clip-path="url(#pcb66d0690f)" style="fill: none; stroke-dasharray: 5.12,1.28,0.8,1.28; stroke-dashoffset: 0; stroke: #b0b0b0; stroke-width: 0.8"/>
     </g>
     <g id="line2d_36">
      <g>
       <use xlink:href="#m898d620129" x="108" y="43.266142" style="fill: #a9a9a9; stroke: #a9a9a9; stroke-width: 0.8"/>
      </g>
     </g>
     <g id="text_18">
      <!-- 8000 -->
      <g style="fill: #a9a9a9" transform="translate(75.55 47.06536) scale(0.1 -0.1)">
       <defs>
        <path id="DejaVuSans-38" d="M 2034 2216 
Q 1584 2216 1326 1975 
Q 1069 1734 1069 1313 
Q 1069 891 1326 650 
Q 1584 409 2034 409 
Q 2484 409 2743 651 
Q 3003 894 3003 1313 
Q 3003 1734 2745 1975 
Q 2488 2216 2034 2216 
z
M 1403 2484 
Q 997 2584 770 2862 
Q 544 3141 544 3541 
Q 544 4100 942 4425 
Q 1341 4750 2034 4750 
Q 2731 4750 3128 4425 
Q 3525 4100 3525 3541 
Q 3525 3141 3298 2862 
Q 3072 2584 2669 2484 
Q 3125 2378 3379 2068 
Q 3634 1759 3634 1313 
Q 3634 634 3220 271 
Q 2806 -91 2034 -91 
Q 1263 -91 848 271 
Q 434 634 434 1313 
Q 434 1759 690 2068 
Q 947 2378 1403 2484 
z
M 1172 3481 
Q 1172 3119 1398 2916 
Q 1625 2713 2034 2713 
Q 2441 2713 2670 2916 
Q 2900 3119 2900 3481 
Q 2900 3844 2670 4047 
Q 2441 4250 2034 4250 
Q 1625 4250 1398 4047 
Q 1172 3844 1172 3481 
z
" transform="scale(0.015625)"/>
       </defs>
       <use xlink:href="#DejaVuSans-38"/>
       <use xlink:href="#DejaVuSans-30" transform="translate(63.623047 0)"/>
       <use xlink:href="#DejaVuSans-30" transform="translate(127.246094 0)"/>
       <use xlink:href="#DejaVuSans-30" transform="translate(190.869141 0)"/>
      </g>
     </g>
    </g>
   </g>
   <g id="line2d_37">
    <path d="M 138.436364 307.733858 
L 141.065855 307.502362 
L 141.504104 307.303937 
L 143.257098 307.072441 
L 145.010092 306.708661 
L 145.886589 306.576378 
L 148.077832 306.377953 
L 148.954329 306.014173 
L 149.392578 305.418898 
L 149.830827 305.12126 
L 150.269075 304.129134 
L 150.707324 304.062992 
L 151.145572 303.699213 
L 152.02207 303.23622 
L 153.775064 301.781102 
L 155.528058 300.888189 
L 156.842804 300.259843 
L 157.281052 299.532283 
L 158.15755 298.870866 
L 158.595798 298.672441 
L 162.978284 298.011024 
L 163.416532 297.812598 
L 166.484273 297.548031 
L 168.237267 297.11811 
L 171.743255 296.622047 
L 172.181504 296.390551 
L 172.619753 296.324409 
L 173.49625 296.026772 
L 176.56399 295.497638 
L 177.440487 295.233071 
L 181.384724 294.538583 
L 182.261221 294.340157 
L 183.137718 294.307087 
L 184.890713 293.877165 
L 185.328961 293.248819 
L 186.643707 292.719685 
L 187.958453 292.355906 
L 188.396701 292.124409 
L 189.273199 291.959055 
L 191.026193 291.429921 
L 191.90269 291.36378 
L 192.779187 291.132283 
L 194.532181 290.669291 
L 194.97043 290.63622 
L 195.846927 290.206299 
L 196.285176 290.140157 
L 196.723424 289.908661 
L 201.544159 289.08189 
L 203.297153 288.552756 
L 203.735402 288.255118 
L 205.926644 287.527559 
L 206.803142 286.899213 
L 208.117887 286.634646 
L 217.759356 283.75748 
L 218.197605 283.724409 
L 219.51235 283.327559 
L 219.950599 283.327559 
L 220.388847 283.129134 
L 221.265345 283.029921 
L 221.703593 282.864567 
L 223.456587 282.798425 
L 224.333085 282.633071 
L 225.209582 282.170079 
L 226.524328 281.674016 
L 227.400825 281.211024 
L 228.277322 280.748031 
L 229.153819 280.450394 
L 229.592068 280.31811 
L 230.468565 279.755906 
L 230.906813 279.259843 
L 231.78331 277.870866 
L 232.221559 277.738583 
L 232.659808 277.738583 
L 233.974553 276.944882 
L 234.412802 276.713386 
L 234.85105 276.614173 
L 235.289299 276.184252 
L 236.165796 275.820472 
L 237.042293 275.390551 
L 239.233536 272.513386 
L 241.863028 271.058268 
L 242.739525 270.330709 
L 243.177773 270.066142 
L 243.616022 269.437795 
L 244.054271 268.412598 
L 244.492519 267.71811 
L 244.930768 267.354331 
L 245.369016 267.155906 
L 248.875005 263.848819 
L 249.751502 263.022047 
L 252.380994 261.335433 
L 252.819242 261.170079 
L 254.572236 260.111811 
L 255.010485 259.913386 
L 257.201728 257.862992 
L 258.078225 257.499213 
L 258.954722 256.870866 
L 259.392971 256.606299 
L 259.831219 256.540157 
L 261.145965 255.779528 
L 261.584214 255.283465 
L 263.775457 254.059843 
L 264.213705 253.894488 
L 265.528451 252.968504 
L 272.102179 250.587402 
L 272.978677 249.76063 
L 274.293422 249.099213 
L 275.169919 248.537008 
L 276.046417 248.272441 
L 276.484665 247.974803 
L 276.922914 247.84252 
L 278.23766 246.949606 
L 280.428902 246.453543 
L 281.743648 245.659843 
L 283.058394 245.362205 
L 283.496642 245.262992 
L 284.811388 244.237795 
L 286.564382 243.741732 
L 287.002631 243.377953 
L 289.632123 242.451969 
L 290.50862 242.286614 
L 291.385117 241.922835 
L 294.452857 240.765354 
L 295.329354 240.633071 
L 296.6441 240.170079 
L 298.835343 239.07874 
L 300.588337 238.086614 
L 304.094326 236.598425 
L 304.532574 236.532283 
L 305.409071 235.970079 
L 306.285568 235.738583 
L 307.600314 235.209449 
L 309.353308 234.977953 
L 310.229806 234.514961 
L 310.668054 234.11811 
L 311.106303 233.324409 
L 312.859297 232.828346 
L 314.174043 232.133858 
L 315.05054 231.83622 
L 315.927037 231.373228 
L 318.556529 230.28189 
L 319.433026 230.083465 
L 320.309523 229.620472 
L 320.747771 229.422047 
L 321.18602 229.355906 
L 323.377263 228.264567 
L 324.25376 227.702362 
L 325.568506 227.437795 
L 327.759749 226.875591 
L 328.197997 226.511811 
L 329.074494 226.214173 
L 331.265737 225.32126 
L 331.703986 224.990551 
L 332.142234 224.825197 
L 333.018732 224.329134 
L 334.771726 223.766929 
L 335.648223 223.204724 
L 336.086472 222.741732 
L 336.52472 222.477165 
L 336.962969 222.377953 
L 337.839466 221.650394 
L 338.277715 221.584252 
L 338.715963 220.856693 
L 339.154212 220.658268 
L 339.59246 220.294488 
L 340.030709 220.228346 
L 340.907206 219.666142 
L 341.783703 219.368504 
L 342.221952 219.037795 
L 342.6602 218.872441 
L 344.413195 217.68189 
L 345.72794 216.987402 
L 346.604437 216.755906 
L 347.480935 216.259843 
L 347.919183 215.499213 
L 348.79568 214.837795 
L 349.233929 214.738583 
L 351.86342 213.448819 
L 352.739918 213.085039 
L 353.616415 212.456693 
L 354.492912 211.56378 
L 358.437149 208.455118 
L 358.875398 208.091339 
L 359.751895 207.793701 
L 360.628392 207.198425 
L 361.943138 206.503937 
L 362.381386 206.437795 
L 363.696132 205.710236 
L 364.572629 205.148031 
L 368.955115 203.494488 
L 369.393363 203.130709 
L 371.146358 202.43622 
L 371.584606 202.303937 
L 372.461103 201.708661 
L 373.337601 201.344882 
L 374.214098 200.716535 
L 375.090595 198.930709 
L 375.967092 197.872441 
L 377.281838 197.177953 
L 378.158335 196.814173 
L 378.596584 196.748031 
L 379.034832 196.483465 
L 381.226075 195.755906 
L 381.664324 195.55748 
L 382.540821 194.962205 
L 383.855566 194.4 
L 384.732064 193.903937 
L 385.608561 193.374803 
L 386.046809 193.077165 
L 386.485058 192.581102 
L 387.799804 191.820472 
L 388.238052 191.655118 
L 389.114549 191.125984 
L 390.867544 190.166929 
L 391.305792 190.067717 
L 391.744041 189.703937 
L 394.811781 188.67874 
L 395.250029 188.348031 
L 396.126527 188.083465 
L 397.003024 187.719685 
L 397.441272 187.355906 
L 399.194267 186.727559 
L 400.070764 186.099213 
L 400.947261 185.735433 
L 401.823758 185.040945 
L 402.700255 184.776378 
L 403.138504 184.379528 
L 403.576752 184.313386 
L 404.45325 183.618898 
L 405.329747 183.155906 
L 405.767995 182.95748 
L 406.206244 182.494488 
L 409.273984 181.237795 
L 410.150481 180.840945 
L 411.465227 180.411024 
L 412.341724 180.27874 
L 412.779973 180.080315 
L 413.218221 180.014173 
L 414.094718 179.617323 
L 414.532967 179.584252 
L 416.285961 178.922835 
L 417.600707 177.96378 
L 418.038955 177.798425 
L 418.915453 177.302362 
L 419.353701 177.170079 
L 421.983193 175.68189 
L 422.421441 175.582677 
L 423.736187 174.788976 
L 425.050933 174.325984 
L 425.92743 174.028346 
L 427.680424 173.433071 
L 428.556921 173.135433 
L 430.309916 172.771654 
L 430.748164 172.573228 
L 431.624661 172.341732 
L 432.06291 172.143307 
L 432.501158 172.077165 
L 432.939407 171.845669 
L 433.815904 171.680315 
L 435.13065 171.184252 
L 436.007147 171.085039 
L 437.321893 170.787402 
L 439.513136 170.390551 
L 450.907599 166.951181 
L 451.345847 166.488189 
L 453.975339 165.39685 
L 455.728333 164.801575 
L 456.166582 164.537008 
L 457.481327 164.140157 
L 458.357824 163.908661 
L 458.796073 163.611024 
L 459.234322 163.511811 
L 459.67257 163.114961 
L 460.987316 162.850394 
L 461.863813 162.420472 
L 462.302062 161.891339 
L 464.055056 161.461417 
L 467.122796 160.8 
L 467.561045 160.8 
L 467.999293 160.601575 
L 469.752287 160.270866 
L 470.190536 160.072441 
L 471.94353 159.741732 
L 472.820027 159.377953 
L 473.696525 159.212598 
L 475.887768 158.650394 
L 477.640762 158.088189 
L 478.07901 157.988976 
L 478.517259 157.75748 
L 479.393756 157.525984 
L 480.270253 157.162205 
L 481.14675 156.831496 
L 481.584999 156.533858 
L 482.461496 156.269291 
L 485.529236 155.111811 
L 487.282231 154.880315 
L 490.788219 153.590551 
L 491.226468 153.259843 
L 491.664716 153.16063 
L 492.102965 152.929134 
L 492.541213 152.896063 
L 497.361948 151.143307 
L 499.553191 150.548031 
L 500.429688 150.11811 
L 501.744434 149.820472 
L 503.497428 148.365354 
L 505.250422 147.604724 
L 506.126919 147.207874 
L 508.756411 146.182677 
L 509.194659 145.885039 
L 511.385902 145.15748 
L 512.700648 144.39685 
L 513.138897 144.297638 
L 514.891891 143.305512 
L 516.644885 142.511811 
L 517.083134 142.181102 
L 517.959631 141.883465 
L 520.150874 140.759055 
L 521.465619 140.296063 
L 523.218614 139.568504 
L 524.53336 139.072441 
L 524.971608 138.907087 
L 525.848105 138.774803 
L 526.286354 138.477165 
L 528.039348 138.113386 
L 528.915845 137.749606 
L 530.66884 136.922835 
L 536.80432 134.211024 
L 538.119065 133.781102 
L 538.557314 133.483465 
L 539.433811 133.384252 
L 539.87206 133.086614 
L 540.748557 132.92126 
L 541.625054 132.491339 
L 542.063303 132.292913 
L 542.9398 132.061417 
L 543.816297 131.79685 
L 545.131043 131.300787 
L 546.445788 130.870866 
L 547.760534 130.573228 
L 549.513528 129.845669 
L 550.390026 129.349606 
L 552.14302 128.456693 
L 553.019517 128.258268 
L 553.457766 127.993701 
L 553.896014 127.894488 
L 555.21076 127.133858 
L 556.087257 126.770079 
L 565.728726 123.033071 
L 567.48172 122.206299 
L 571.864206 120.486614 
L 572.740703 120.056693 
L 573.178952 119.95748 
L 573.6172 119.725984 
L 575.370194 119.229921 
L 577.123189 117.774803 
L 577.561437 117.64252 
L 577.999686 117.377953 
L 579.314432 117.014173 
L 579.75268 116.683465 
L 580.190929 116.584252 
L 581.067426 116.022047 
L 582.382172 115.327559 
L 583.258669 114.96378 
L 583.696917 114.732283 
L 585.011663 114.434646 
L 587.202906 113.674016 
L 588.079403 113.376378 
L 589.394149 112.714961 
L 590.270646 112.285039 
L 591.147143 112.053543 
L 592.461889 111.425197 
L 596.406126 109.937008 
L 597.720872 109.110236 
L 598.15912 109.011024 
L 599.035618 108.581102 
L 599.912115 108.250394 
L 600.350363 107.853543 
L 601.22686 107.489764 
L 602.541606 107.026772 
L 602.979855 106.662992 
L 603.418103 106.629921 
L 604.2946 106.365354 
L 605.171098 106.067717 
L 605.609346 105.869291 
L 606.047595 105.80315 
L 607.36234 105.307087 
L 608.677086 104.811024 
L 610.430081 104.017323 
L 611.306578 103.785827 
L 611.744826 103.52126 
L 612.621323 103.289764 
L 613.936069 102.529134 
L 614.374318 102.496063 
L 615.689063 102.066142 
L 616.565561 102 
L 617.003809 101.768504 
L 617.880306 101.537008 
L 618.318555 101.305512 
L 620.509798 100.875591 
L 621.386295 100.710236 
L 622.701041 100.214173 
L 624.015786 99.916535 
L 625.330532 99.222047 
L 625.768781 98.825197 
L 627.083526 98.031496 
L 627.521775 97.700787 
L 628.836521 97.270866 
L 629.713018 97.006299 
L 630.151266 96.774803 
L 630.589515 96.675591 
L 631.027764 96.311811 
L 633.657255 95.187402 
L 635.410249 94.724409 
L 636.286747 94.327559 
L 636.724995 94.096063 
L 637.601492 93.831496 
L 638.039741 93.566929 
L 638.916238 93.401575 
L 642.422227 91.880315 
L 642.860475 91.814173 
L 644.175221 90.954331 
L 644.613469 90.888189 
L 646.366464 90.193701 
L 648.119458 89.76378 
L 648.557707 89.697638 
L 648.995955 89.499213 
L 649.434204 89.466142 
L 650.310701 89.168504 
L 650.74895 89.135433 
L 652.063695 88.606299 
L 653.81669 88.110236 
L 654.693187 87.448819 
L 656.446181 86.456693 
L 657.760927 85.993701 
L 661.266915 84.307087 
L 661.705164 84.075591 
L 662.143413 83.67874 
L 664.334655 83.083465 
L 665.649401 82.488189 
L 666.525898 82.256693 
L 666.964147 82.025197 
L 667.402395 81.661417 
L 669.15539 81.198425 
L 669.593638 80.867717 
L 675.29087 78.784252 
L 676.167367 78.618898 
L 678.35861 77.924409 
L 679.235107 77.56063 
L 680.111604 77.229921 
L 680.988101 76.998425 
L 681.42635 76.8 
L 681.864598 76.8 
L 682.741096 76.43622 
L 683.617593 75.907087 
L 686.685333 74.88189 
L 688.438327 74.286614 
L 689.753073 73.988976 
L 691.067819 73.559055 
L 691.506067 73.459843 
L 691.944316 73.162205 
L 692.820813 72.96378 
L 694.573807 72.467717 
L 695.012056 72.434646 
L 695.888553 72.037795 
L 698.956293 71.277165 
L 699.83279 70.913386 
L 704.215276 69.92126 
L 705.530022 69.226772 
L 706.844767 68.829921 
L 711.227253 67.209449 
L 711.665502 66.87874 
L 712.980247 66.581102 
L 713.856745 66.316535 
L 714.733242 65.886614 
L 715.17149 65.522835 
L 716.047987 65.258268 
L 716.486236 64.993701 
L 717.362733 64.894488 
L 720.430473 64.034646 
L 721.745219 63.770079 
L 724.37471 62.910236 
L 726.127705 62.083465 
L 730.948439 60.297638 
L 731.824936 60.165354 
L 732.701433 60 
L 733.139682 60 
L 734.892676 59.437795 
L 735.330925 59.371654 
L 736.207422 59.007874 
L 737.522168 58.611024 
L 738.836913 58.181102 
L 741.028156 57.685039 
L 741.466405 57.420472 
L 742.342902 57.255118 
L 743.219399 57.155906 
L 743.657648 56.924409 
L 744.095896 56.891339 
L 744.972393 56.329134 
L 747.163636 55.8 
L 747.163636 55.8 
" clip-path="url(#pcb66d0690f)" style="fill: none; stroke: #1f77b4; stroke-width: 1.5; stroke-linecap: square"/>
   </g>
   <g id="line2d_38">
    <path d="M 138.874612 307.8 
L 142.818849 307.700787 
L 146.324838 307.535433 
L 148.077832 307.535433 
L 148.516081 307.40315 
L 150.707324 307.303937 
L 153.336815 307.006299 
L 155.966307 306.907087 
L 156.842804 306.807874 
L 159.910544 306.675591 
L 162.978284 306.576378 
L 165.169527 306.510236 
L 170.866758 306.411024 
L 173.058001 306.344882 
L 177.002238 306.245669 
L 178.755233 306.212598 
L 183.137718 306.113386 
L 184.890713 305.948031 
L 186.643707 305.914961 
L 189.273199 305.815748 
L 191.026193 305.782677 
L 193.217436 305.716535 
L 194.97043 305.551181 
L 198.914667 305.451969 
L 199.791164 305.385827 
L 201.544159 305.286614 
L 204.17365 305.187402 
L 205.926644 305.088189 
L 213.815119 304.592126 
L 216.882859 304.492913 
L 218.197605 304.36063 
L 220.388847 304.261417 
L 224.771333 304.029921 
L 229.153819 303.96378 
L 230.906813 303.765354 
L 232.659808 303.666142 
L 237.480542 303.20315 
L 240.548282 302.83937 
L 241.863028 302.773228 
L 245.369016 302.310236 
L 247.998508 302.244094 
L 249.313253 302.111811 
L 250.627999 302.012598 
L 262.898959 301.053543 
L 263.775457 300.888189 
L 266.404948 300.788976 
L 273.416925 300.359055 
L 276.484665 300.259843 
L 278.23766 300.061417 
L 280.428902 299.962205 
L 283.058394 299.862992 
L 285.249637 299.76378 
L 287.002631 299.730709 
L 289.193874 299.664567 
L 290.070371 299.532283 
L 296.205851 299.433071 
L 297.082348 299.333858 
L 302.341331 299.234646 
L 306.285568 299.03622 
L 309.353308 298.937008 
L 311.106303 298.738583 
L 314.174043 298.63937 
L 315.05054 298.474016 
L 317.241783 298.407874 
L 321.624269 298.341732 
L 323.377263 298.176378 
L 325.130257 298.143307 
L 326.445003 298.044094 
L 328.197997 297.87874 
L 332.580483 297.647244 
L 336.962969 297.548031 
L 340.907206 297.349606 
L 342.221952 297.316535 
L 343.098449 297.184252 
L 345.289692 297.085039 
L 346.166189 297.018898 
L 347.042686 296.952756 
L 347.919183 296.886614 
L 351.86342 296.820472 
L 353.178166 296.72126 
L 365.010878 295.927559 
L 367.202121 295.828346 
L 369.393363 295.762205 
L 375.528844 295.662992 
L 376.405341 295.530709 
L 382.540821 295.431496 
L 386.923306 295.2 
L 387.799804 295.166929 
L 388.676301 295.067717 
L 390.867544 294.968504 
L 393.058787 294.902362 
L 395.250029 294.80315 
L 397.441272 294.737008 
L 401.38551 294.637795 
L 404.015001 294.538583 
L 410.150481 294.43937 
L 414.971215 294.174803 
L 416.72421 294.108661 
L 418.038955 294.009449 
L 424.174435 293.910236 
L 426.803927 293.811024 
L 434.692401 293.711811 
L 436.445396 293.67874 
L 441.704379 293.612598 
L 442.580876 293.546457 
L 448.716356 293.447244 
L 450.46935 293.414173 
L 461.863813 293.314961 
L 464.493305 293.215748 
L 482.899745 293.116535 
L 485.090988 293.050394 
L 496.485451 292.984252 
L 497.361948 292.91811 
L 499.553191 292.851969 
L 500.867936 292.719685 
L 503.497428 292.620472 
L 506.565168 292.488189 
L 510.509405 292.388976 
L 512.700648 292.322835 
L 515.768388 292.223622 
L 519.274377 292.058268 
L 521.465619 291.959055 
L 523.218614 291.925984 
L 527.162851 291.826772 
L 528.915845 291.793701 
L 534.613077 291.694488 
L 536.366071 291.661417 
L 538.557314 291.562205 
L 541.186805 291.462992 
L 544.254545 291.39685 
L 545.131043 291.330709 
L 555.649008 291.231496 
L 561.34624 290.900787 
L 563.537483 290.834646 
L 564.41398 290.735433 
L 565.290477 290.669291 
L 568.796466 290.570079 
L 571.425957 290.470866 
L 575.808443 290.371654 
L 577.999686 290.140157 
L 582.382172 290.040945 
L 583.258669 289.941732 
L 587.641155 289.84252 
L 589.832397 289.776378 
L 594.653132 289.743307 
L 595.529629 289.644094 
L 600.350363 289.544882 
L 601.22686 289.47874 
L 610.868329 289.379528 
L 613.497821 289.280315 
L 620.071549 289.181102 
L 621.824543 289.148031 
L 625.768781 289.08189 
L 626.645278 288.982677 
L 632.342509 288.883465 
L 634.533752 288.817323 
L 642.422227 288.71811 
L 643.736972 288.618898 
L 645.051718 288.519685 
L 646.366464 288.420472 
L 652.940192 288.32126 
L 655.569684 288.222047 
L 667.402395 288.122835 
L 671.346633 287.924409 
L 676.605616 287.825197 
L 677.482113 287.759055 
L 684.055841 287.692913 
L 684.932339 287.626772 
L 689.753073 287.527559 
L 691.506067 287.494488 
L 697.641547 287.395276 
L 700.271039 287.296063 
L 707.721264 287.19685 
L 709.474259 287.16378 
L 713.418496 287.064567 
L 716.924485 286.899213 
L 721.745219 286.8 
L 724.812959 286.667717 
L 728.757196 286.568504 
L 729.633693 286.502362 
L 738.398665 286.40315 
L 740.589908 286.337008 
L 743.219399 286.237795 
L 745.848891 286.138583 
L 747.163636 286.072441 
L 747.163636 286.072441 
" clip-path="url(#pcb66d0690f)" style="fill: none; stroke: #ff7f0e; stroke-width: 1.5; stroke-linecap: square"/>
   </g>
   <g id="patch_3">
    <path d="M 108 320.4 
L 108 43.2 
" style="fill: none; stroke: #a9a9a9; stroke-width: 0.8; stroke-linejoin: miter; stroke-linecap: square"/>
   </g>
   <g id="patch_4">
    <path d="M 777.6 320.4 
L 777.6 43.2 
" style="fill: none"/>
   </g>
   <g id="patch_5">
    <path d="M 108 320.4 
L 777.6 320.4 
" style="fill: none; stroke: #a9a9a9; stroke-width: 0.8; stroke-linejoin: miter; stroke-linecap: square"/>
   </g>
   <g id="patch_6">
    <path d="M 108 43.2 
L 777.6 43.2 
" style="fill: none"/>
   </g>
   <g id="text_19">
    <!-- get_subscribe history -->
    <g style="fill: #a9a9a9" transform="translate(378.6075 37.2) scale(0.12 -0.12)">
     <defs>
      <path id="DejaVuSans-67" d="M 2906 1791 
Q 2906 2416 2648 2759 
Q 2391 3103 1925 3103 
Q 1463 3103 1205 2759 
Q 947 2416 947 1791 
Q 947 1169 1205 825 
Q 1463 481 1925 481 
Q 2391 481 2648 825 
Q 2906 1169 2906 1791 
z
M 3481 434 
Q 3481 -459 3084 -895 
Q 2688 -1331 1869 -1331 
Q 1566 -1331 1297 -1286 
Q 1028 -1241 775 -1147 
L 775 -588 
Q 1028 -725 1275 -790 
Q 1522 -856 1778 -856 
Q 2344 -856 2625 -561 
Q 2906 -266 2906 331 
L 2906 616 
Q 2728 306 2450 153 
Q 2172 0 1784 0 
Q 1141 0 747 490 
Q 353 981 353 1791 
Q 353 2603 747 3093 
Q 1141 3584 1784 3584 
Q 2172 3584 2450 3431 
Q 2728 3278 2906 2969 
L 2906 3500 
L 3481 3500 
L 3481 434 
z
" transform="scale(0.015625)"/>
      <path id="DejaVuSans-65" d="M 3597 1894 
L 3597 1613 
L 953 1613 
Q 991 1019 1311 708 
Q 1631 397 2203 397 
Q 2534 397 2845 478 
Q 3156 559 3463 722 
L 3463 178 
Q 3153 47 2828 -22 
Q 2503 -91 2169 -91 
Q 1331 -91 842 396 
Q 353 884 353 1716 
Q 353 2575 817 3079 
Q 1281 3584 2069 3584 
Q 2775 3584 3186 3129 
Q 3597 2675 3597 1894 
z
M 3022 2063 
Q 3016 2534 2758 2815 
Q 2500 3097 2075 3097 
Q 1594 3097 1305 2825 
Q 1016 2553 972 2059 
L 3022 2063 
z
" transform="scale(0.015625)"/>
      <path id="DejaVuSans-74" d="M 1172 4494 
L 1172 3500 
L 2356 3500 
L 2356 3053 
L 1172 3053 
L 1172 1153 
Q 1172 725 1289 603 
Q 1406 481 1766 481 
L 2356 481 
L 2356 0 
L 1766 0 
Q 1100 0 847 248 
Q 594 497 594 1153 
L 594 3053 
L 172 3053 
L 172 3500 
L 594 3500 
L 594 4494 
L 1172 4494 
z
" transform="scale(0.015625)"/>
      <path id="DejaVuSans-5f" d="M 3263 -1063 
L 3263 -1509 
L -63 -1509 
L -63 -1063 
L 3263 -1063 
z
" transform="scale(0.015625)"/>
      <path id="DejaVuSans-73" d="M 2834 3397 
L 2834 2853 
Q 2591 2978 2328 3040 
Q 2066 3103 1784 3103 
Q 1356 3103 1142 2972 
Q 928 2841 928 2578 
Q 928 2378 1081 2264 
Q 1234 2150 1697 2047 
L 1894 2003 
Q 2506 1872 2764 1633 
Q 3022 1394 3022 966 
Q 3022 478 2636 193 
Q 2250 -91 1575 -91 
Q 1294 -91 989 -36 
Q 684 19 347 128 
L 347 722 
Q 666 556 975 473 
Q 1284 391 1588 391 
Q 1994 391 2212 530 
Q 2431 669 2431 922 
Q 2431 1156 2273 1281 
Q 2116 1406 1581 1522 
L 1381 1569 
Q 847 1681 609 1914 
Q 372 2147 372 2553 
Q 372 3047 722 3315 
Q 1072 3584 1716 3584 
Q 2034 3584 2315 3537 
Q 2597 3491 2834 3397 
z
" transform="scale(0.015625)"/>
      <path id="DejaVuSans-75" d="M 544 1381 
L 544 3500 
L 1119 3500 
L 1119 1403 
Q 1119 906 1312 657 
Q 1506 409 1894 409 
Q 2359 409 2629 706 
Q 2900 1003 2900 1516 
L 2900 3500 
L 3475 3500 
L 3475 0 
L 2900 0 
L 2900 538 
Q 2691 219 2414 64 
Q 2138 -91 1772 -91 
Q 1169 -91 856 284 
Q 544 659 544 1381 
z
M 1991 3584 
L 1991 3584 
z
" transform="scale(0.015625)"/>
      <path id="DejaVuSans-62" d="M 3116 1747 
Q 3116 2381 2855 2742 
Q 2594 3103 2138 3103 
Q 1681 3103 1420 2742 
Q 1159 2381 1159 1747 
Q 1159 1113 1420 752 
Q 1681 391 2138 391 
Q 2594 391 2855 752 
Q 3116 1113 3116 1747 
z
M 1159 2969 
Q 1341 3281 1617 3432 
Q 1894 3584 2278 3584 
Q 2916 3584 3314 3078 
Q 3713 2572 3713 1747 
Q 3713 922 3314 415 
Q 2916 -91 2278 -91 
Q 1894 -91 1617 61 
Q 1341 213 1159 525 
L 1159 0 
L 581 0 
L 581 4863 
L 1159 4863 
L 1159 2969 
z
" transform="scale(0.015625)"/>
      <path id="DejaVuSans-63" d="M 3122 3366 
L 3122 2828 
Q 2878 2963 2633 3030 
Q 2388 3097 2138 3097 
Q 1578 3097 1268 2742 
Q 959 2388 959 1747 
Q 959 1106 1268 751 
Q 1578 397 2138 397 
Q 2388 397 2633 464 
Q 2878 531 3122 666 
L 3122 134 
Q 2881 22 2623 -34 
Q 2366 -91 2075 -91 
Q 1284 -91 818 406 
Q 353 903 353 1747 
Q 353 2603 823 3093 
Q 1294 3584 2113 3584 
Q 2378 3584 2631 3529 
Q 2884 3475 3122 3366 
z
" transform="scale(0.015625)"/>
      <path id="DejaVuSans-72" d="M 2631 2963 
Q 2534 3019 2420 3045 
Q 2306 3072 2169 3072 
Q 1681 3072 1420 2755 
Q 1159 2438 1159 1844 
L 1159 0 
L 581 0 
L 581 3500 
L 1159 3500 
L 1159 2956 
Q 1341 3275 1631 3429 
Q 1922 3584 2338 3584 
Q 2397 3584 2469 3576 
Q 2541 3569 2628 3553 
L 2631 2963 
z
" transform="scale(0.015625)"/>
      <path id="DejaVuSans-69" d="M 603 3500 
L 1178 3500 
L 1178 0 
L 603 0 
L 603 3500 
z
M 603 4863 
L 1178 4863 
L 1178 4134 
L 603 4134 
L 603 4863 
z
" transform="scale(0.015625)"/>
      <path id="DejaVuSans-20" transform="scale(0.015625)"/>
      <path id="DejaVuSans-68" d="M 3513 2113 
L 3513 0 
L 2938 0 
L 2938 2094 
Q 2938 2591 2744 2837 
Q 2550 3084 2163 3084 
Q 1697 3084 1428 2787 
Q 1159 2491 1159 1978 
L 1159 0 
L 581 0 
L 581 4863 
L 1159 4863 
L 1159 2956 
Q 1366 3272 1645 3428 
Q 1925 3584 2291 3584 
Q 2894 3584 3203 3211 
Q 3513 2838 3513 2113 
z
" transform="scale(0.015625)"/>
      <path id="DejaVuSans-6f" d="M 1959 3097 
Q 1497 3097 1228 2736 
Q 959 2375 959 1747 
Q 959 1119 1226 758 
Q 1494 397 1959 397 
Q 2419 397 2687 759 
Q 2956 1122 2956 1747 
Q 2956 2369 2687 2733 
Q 2419 3097 1959 3097 
z
M 1959 3584 
Q 2709 3584 3137 3096 
Q 3566 2609 3566 1747 
Q 3566 888 3137 398 
Q 2709 -91 1959 -91 
Q 1206 -91 779 398 
Q 353 888 353 1747 
Q 353 2609 779 3096 
Q 1206 3584 1959 3584 
z
" transform="scale(0.015625)"/>
      <path id="DejaVuSans-79" d="M 2059 -325 
Q 1816 -950 1584 -1140 
Q 1353 -1331 966 -1331 
L 506 -1331 
L 506 -850 
L 844 -850 
Q 1081 -850 1212 -737 
Q 1344 -625 1503 -206 
L 1606 56 
L 191 3500 
L 800 3500 
L 1894 763 
L 2988 3500 
L 3597 3500 
L 2059 -325 
z
" transform="scale(0.015625)"/>
     </defs>
     <use xlink:href="#DejaVuSans-67"/>
     <use xlink:href="#DejaVuSans-65" transform="translate(63.476562 0)"/>
     <use xlink:href="#DejaVuSans-74" transform="translate(125 0)"/>
     <use xlink:href="#DejaVuSans-5f" transform="translate(164.208984 0)"/>
     <use xlink:href="#DejaVuSans-73" transform="translate(214.208984 0)"/>
     <use xlink:href="#DejaVuSans-75" transform="translate(266.308594 0)"/>
     <use xlink:href="#DejaVuSans-62" transform="translate(329.6875 0)"/>
     <use xlink:href="#DejaVuSans-73" transform="translate(393.164062 0)"/>
     <use xlink:href="#DejaVuSans-63" transform="translate(445.263672 0)"/>
     <use xlink:href="#DejaVuSans-72" transform="translate(500.244141 0)"/>
     <use xlink:href="#DejaVuSans-69" transform="translate(541.357422 0)"/>
     <use xlink:href="#DejaVuSans-62" transform="translate(569.140625 0)"/>
     <use xlink:href="#DejaVuSans-65" transform="translate(632.617188 0)"/>
     <use xlink:href="#DejaVuSans-20" transform="translate(694.140625 0)"/>
     <use xlink:href="#DejaVuSans-68" transform="translate(725.927734 0)"/>
     <use xlink:href="#DejaVuSans-69" transform="translate(789.306641 0)"/>
     <use xlink:href="#DejaVuSans-73" transform="translate(817.089844 0)"/>
     <use xlink:href="#DejaVuSans-74" transform="translate(869.189453 0)"/>
     <use xlink:href="#DejaVuSans-6f" transform="translate(908.398438 0)"/>
     <use xlink:href="#DejaVuSans-72" transform="translate(969.580078 0)"/>
     <use xlink:href="#DejaVuSans-79" transform="translate(1010.693359 0)"/>
    </g>
   </g>
   <g id="legend_1">
    <g id="line2d_39">
     <path d="M 815.08 328.498438 
L 825.08 328.498438 
L 835.08 328.498438 
" style="fill: none; stroke: #1f77b4; stroke-width: 1.5; stroke-linecap: square"/>
    </g>
    <g id="text_20">
     <!-- star -->
     <g style="fill: #a9a9a9" transform="translate(843.08 331.998438) scale(0.1 -0.1)">
      <defs>
       <path id="DejaVuSans-61" d="M 2194 1759 
Q 1497 1759 1228 1600 
Q 959 1441 959 1056 
Q 959 750 1161 570 
Q 1363 391 1709 391 
Q 2188 391 2477 730 
Q 2766 1069 2766 1631 
L 2766 1759 
L 2194 1759 
z
M 3341 1997 
L 3341 0 
L 2766 0 
L 2766 531 
Q 2569 213 2275 61 
Q 1981 -91 1556 -91 
Q 1019 -91 701 211 
Q 384 513 384 1019 
Q 384 1609 779 1909 
Q 1175 2209 1959 2209 
L 2766 2209 
L 2766 2266 
Q 2766 2663 2505 2880 
Q 2244 3097 1772 3097 
Q 1472 3097 1187 3025 
Q 903 2953 641 2809 
L 641 3341 
Q 956 3463 1253 3523 
Q 1550 3584 1831 3584 
Q 2591 3584 2966 3190 
Q 3341 2797 3341 1997 
z
" transform="scale(0.015625)"/>
      </defs>
      <use xlink:href="#DejaVuSans-73"/>
      <use xlink:href="#DejaVuSans-74" transform="translate(52.099609 0)"/>
      <use xlink:href="#DejaVuSans-61" transform="translate(91.308594 0)"/>
      <use xlink:href="#DejaVuSans-72" transform="translate(152.587891 0)"/>
     </g>
    </g>
    <g id="line2d_40">
     <path d="M 815.08 343.176562 
L 825.08 343.176562 
L 835.08 343.176562 
" style="fill: none; stroke: #ff7f0e; stroke-width: 1.5; stroke-linecap: square"/>
    </g>
    <g id="text_21">
     <!-- fork -->
     <g style="fill: #a9a9a9" transform="translate(843.08 346.676562) scale(0.1 -0.1)">
      <defs>
       <path id="DejaVuSans-66" d="M 2375 4863 
L 2375 4384 
L 1825 4384 
Q 1516 4384 1395 4259 
Q 1275 4134 1275 3809 
L 1275 3500 
L 2222 3500 
L 2222 3053 
L 1275 3053 
L 1275 0 
L 697 0 
L 697 3053 
L 147 3053 
L 147 3500 
L 697 3500 
L 697 3744 
Q 697 4328 969 4595 
Q 1241 4863 1831 4863 
L 2375 4863 
z
" transform="scale(0.015625)"/>
       <path id="DejaVuSans-6b" d="M 581 4863 
L 1159 4863 
L 1159 1991 
L 2875 3500 
L 3609 3500 
L 1753 1863 
L 3688 0 
L 2938 0 
L 1159 1709 
L 1159 0 
L 581 0 
L 581 4863 
z
" transform="scale(0.015625)"/>
      </defs>
      <use xlink:href="#DejaVuSans-66"/>
      <use xlink:href="#DejaVuSans-6f" transform="translate(35.205078 0)"/>
      <use xlink:href="#DejaVuSans-72" transform="translate(96.386719 0)"/>
      <use xlink:href="#DejaVuSans-6b" transform="translate(137.5 0)"/>
     </g>
    </g>
   </g>
  </g>
 </g>
 <defs>
  <clipPath id="pcb66d0690f">
   <rect x="108" y="43.2" width="669.6" height="277.2"/>
  </clipPath>
 </defs>
</svg>
