<?xml version="1.0" encoding="utf-8" standalone="no"?>
<!DOCTYPE svg PUBLIC "-//W3C//DTD SVG 1.1//EN"
  "http://www.w3.org/Graphics/SVG/1.1/DTD/svg11.dtd">
<svg xmlns:xlink="http://www.w3.org/1999/xlink" width="864pt" height="360pt" viewBox="0 0 864 360" xmlns="http://www.w3.org/2000/svg" version="1.1">
 <metadata>
  <rdf:RDF xmlns:dc="http://purl.org/dc/elements/1.1/" xmlns:cc="http://creativecommons.org/ns#" xmlns:rdf="http://www.w3.org/1999/02/22-rdf-syntax-ns#">
   <cc:Work>
    <dc:type rdf:resource="http://purl.org/dc/dcmitype/StillImage"/>
    <dc:date>2025-02-20T08:14:21.034395</dc:date>
    <dc:format>image/svg+xml</dc:format>
    <dc:creator>
     <cc:Agent>
      <dc:title>Matplotlib v3.10.0, https://matplotlib.org/</dc:title>
     </cc:Agent>
    </dc:creator>
   </cc:Work>
  </rdf:RDF>
 </metadata>
 <defs>
  <style type="text/css">*{stroke-linejoin: round; stroke-linecap: butt}</style>
 </defs>
 <g id="figure_1">
  <g id="patch_1">
   <path d="M 0 360 
L 864 360 
L 864 0 
L 0 0 
L 0 360 
z
" style="fill: none; opacity: 0"/>
  </g>
  <g id="axes_1">
   <g id="patch_2">
    <path d="M 108 320.4 
L 777.6 320.4 
L 777.6 43.2 
L 108 43.2 
L 108 320.4 
z
" style="fill: none; opacity: 0"/>
   </g>
   <g id="matplotlib.axis_1">
    <g id="xtick_1">
     <g id="line2d_1">
      <path d="M 127.724254 320.4 
L 127.724254 43.2 
" clip-path="url(#p15a4434aae)" style="fill: none; stroke-dasharray: 5.12,1.28,0.8,1.28; stroke-dashoffset: 0; stroke: #b0b0b0; stroke-width: 0.8"/>
     </g>
     <g id="line2d_2">
      <defs>
       <path id="m731ffc43ba" d="M 0 0 
L 0 3.5 
" style="stroke: #a9a9a9; stroke-width: 0.8"/>
      </defs>
      <g>
       <use xlink:href="#m731ffc43ba" x="127.724254" y="320.4" style="fill: #a9a9a9; stroke: #a9a9a9; stroke-width: 0.8"/>
      </g>
     </g>
     <g id="text_1">
      <!-- 2021-07 -->
      <g style="fill: #a9a9a9" transform="translate(106.832848 334.998438) scale(0.1 -0.1)">
       <defs>
        <path id="DejaVuSans-32" d="M 1228 531 
L 3431 531 
L 3431 0 
L 469 0 
L 469 531 
Q 828 903 1448 1529 
Q 2069 2156 2228 2338 
Q 2531 2678 2651 2914 
Q 2772 3150 2772 3378 
Q 2772 3750 2511 3984 
Q 2250 4219 1831 4219 
Q 1534 4219 1204 4116 
Q 875 4013 500 3803 
L 500 4441 
Q 881 4594 1212 4672 
Q 1544 4750 1819 4750 
Q 2544 4750 2975 4387 
Q 3406 4025 3406 3419 
Q 3406 3131 3298 2873 
Q 3191 2616 2906 2266 
Q 2828 2175 2409 1742 
Q 1991 1309 1228 531 
z
" transform="scale(0.015625)"/>
        <path id="DejaVuSans-30" d="M 2034 4250 
Q 1547 4250 1301 3770 
Q 1056 3291 1056 2328 
Q 1056 1369 1301 889 
Q 1547 409 2034 409 
Q 2525 409 2770 889 
Q 3016 1369 3016 2328 
Q 3016 3291 2770 3770 
Q 2525 4250 2034 4250 
z
M 2034 4750 
Q 2819 4750 3233 4129 
Q 3647 3509 3647 2328 
Q 3647 1150 3233 529 
Q 2819 -91 2034 -91 
Q 1250 -91 836 529 
Q 422 1150 422 2328 
Q 422 3509 836 4129 
Q 1250 4750 2034 4750 
z
" transform="scale(0.015625)"/>
        <path id="DejaVuSans-31" d="M 794 531 
L 1825 531 
L 1825 4091 
L 703 3866 
L 703 4441 
L 1819 4666 
L 2450 4666 
L 2450 531 
L 3481 531 
L 3481 0 
L 794 0 
L 794 531 
z
" transform="scale(0.015625)"/>
        <path id="DejaVuSans-2d" d="M 313 2009 
L 1997 2009 
L 1997 1497 
L 313 1497 
L 313 2009 
z
" transform="scale(0.015625)"/>
        <path id="DejaVuSans-37" d="M 525 4666 
L 3525 4666 
L 3525 4397 
L 1831 0 
L 1172 0 
L 2766 4134 
L 525 4134 
L 525 4666 
z
" transform="scale(0.015625)"/>
       </defs>
       <use xlink:href="#DejaVuSans-32"/>
       <use xlink:href="#DejaVuSans-30" transform="translate(63.623047 0)"/>
       <use xlink:href="#DejaVuSans-32" transform="translate(127.246094 0)"/>
       <use xlink:href="#DejaVuSans-31" transform="translate(190.869141 0)"/>
       <use xlink:href="#DejaVuSans-2d" transform="translate(254.492188 0)"/>
       <use xlink:href="#DejaVuSans-30" transform="translate(290.576172 0)"/>
       <use xlink:href="#DejaVuSans-37" transform="translate(354.199219 0)"/>
      </g>
     </g>
    </g>
    <g id="xtick_2">
     <g id="line2d_3">
      <path d="M 213.421131 320.4 
L 213.421131 43.2 
" clip-path="url(#p15a4434aae)" style="fill: none; stroke-dasharray: 5.12,1.28,0.8,1.28; stroke-dashoffset: 0; stroke: #b0b0b0; stroke-width: 0.8"/>
     </g>
     <g id="line2d_4">
      <g>
       <use xlink:href="#m731ffc43ba" x="213.421131" y="320.4" style="fill: #a9a9a9; stroke: #a9a9a9; stroke-width: 0.8"/>
      </g>
     </g>
     <g id="text_2">
      <!-- 2022-01 -->
      <g style="fill: #a9a9a9" transform="translate(192.529725 334.998438) scale(0.1 -0.1)">
       <use xlink:href="#DejaVuSans-32"/>
       <use xlink:href="#DejaVuSans-30" transform="translate(63.623047 0)"/>
       <use xlink:href="#DejaVuSans-32" transform="translate(127.246094 0)"/>
       <use xlink:href="#DejaVuSans-32" transform="translate(190.869141 0)"/>
       <use xlink:href="#DejaVuSans-2d" transform="translate(254.492188 0)"/>
       <use xlink:href="#DejaVuSans-30" transform="translate(290.576172 0)"/>
       <use xlink:href="#DejaVuSans-31" transform="translate(354.199219 0)"/>
      </g>
     </g>
    </g>
    <g id="xtick_3">
     <g id="line2d_5">
      <path d="M 297.720776 320.4 
L 297.720776 43.2 
" clip-path="url(#p15a4434aae)" style="fill: none; stroke-dasharray: 5.12,1.28,0.8,1.28; stroke-dashoffset: 0; stroke: #b0b0b0; stroke-width: 0.8"/>
     </g>
     <g id="line2d_6">
      <g>
       <use xlink:href="#m731ffc43ba" x="297.720776" y="320.4" style="fill: #a9a9a9; stroke: #a9a9a9; stroke-width: 0.8"/>
      </g>
     </g>
     <g id="text_3">
      <!-- 2022-07 -->
      <g style="fill: #a9a9a9" transform="translate(276.82937 334.998438) scale(0.1 -0.1)">
       <use xlink:href="#DejaVuSans-32"/>
       <use xlink:href="#DejaVuSans-30" transform="translate(63.623047 0)"/>
       <use xlink:href="#DejaVuSans-32" transform="translate(127.246094 0)"/>
       <use xlink:href="#DejaVuSans-32" transform="translate(190.869141 0)"/>
       <use xlink:href="#DejaVuSans-2d" transform="translate(254.492188 0)"/>
       <use xlink:href="#DejaVuSans-30" transform="translate(290.576172 0)"/>
       <use xlink:href="#DejaVuSans-37" transform="translate(354.199219 0)"/>
      </g>
     </g>
    </g>
    <g id="xtick_4">
     <g id="line2d_7">
      <path d="M 383.417653 320.4 
L 383.417653 43.2 
" clip-path="url(#p15a4434aae)" style="fill: none; stroke-dasharray: 5.12,1.28,0.8,1.28; stroke-dashoffset: 0; stroke: #b0b0b0; stroke-width: 0.8"/>
     </g>
     <g id="line2d_8">
      <g>
       <use xlink:href="#m731ffc43ba" x="383.417653" y="320.4" style="fill: #a9a9a9; stroke: #a9a9a9; stroke-width: 0.8"/>
      </g>
     </g>
     <g id="text_4">
      <!-- 2023-01 -->
      <g style="fill: #a9a9a9" transform="translate(362.526247 334.998438) scale(0.1 -0.1)">
       <defs>
        <path id="DejaVuSans-33" d="M 2597 2516 
Q 3050 2419 3304 2112 
Q 3559 1806 3559 1356 
Q 3559 666 3084 287 
Q 2609 -91 1734 -91 
Q 1441 -91 1130 -33 
Q 819 25 488 141 
L 488 750 
Q 750 597 1062 519 
Q 1375 441 1716 441 
Q 2309 441 2620 675 
Q 2931 909 2931 1356 
Q 2931 1769 2642 2001 
Q 2353 2234 1838 2234 
L 1294 2234 
L 1294 2753 
L 1863 2753 
Q 2328 2753 2575 2939 
Q 2822 3125 2822 3475 
Q 2822 3834 2567 4026 
Q 2313 4219 1838 4219 
Q 1578 4219 1281 4162 
Q 984 4106 628 3988 
L 628 4550 
Q 988 4650 1302 4700 
Q 1616 4750 1894 4750 
Q 2613 4750 3031 4423 
Q 3450 4097 3450 3541 
Q 3450 3153 3228 2886 
Q 3006 2619 2597 2516 
z
" transform="scale(0.015625)"/>
       </defs>
       <use xlink:href="#DejaVuSans-32"/>
       <use xlink:href="#DejaVuSans-30" transform="translate(63.623047 0)"/>
       <use xlink:href="#DejaVuSans-32" transform="translate(127.246094 0)"/>
       <use xlink:href="#DejaVuSans-33" transform="translate(190.869141 0)"/>
       <use xlink:href="#DejaVuSans-2d" transform="translate(254.492188 0)"/>
       <use xlink:href="#DejaVuSans-30" transform="translate(290.576172 0)"/>
       <use xlink:href="#DejaVuSans-31" transform="translate(354.199219 0)"/>
      </g>
     </g>
    </g>
    <g id="xtick_5">
     <g id="line2d_9">
      <path d="M 467.717298 320.4 
L 467.717298 43.2 
" clip-path="url(#p15a4434aae)" style="fill: none; stroke-dasharray: 5.12,1.28,0.8,1.28; stroke-dashoffset: 0; stroke: #b0b0b0; stroke-width: 0.8"/>
     </g>
     <g id="line2d_10">
      <g>
       <use xlink:href="#m731ffc43ba" x="467.717298" y="320.4" style="fill: #a9a9a9; stroke: #a9a9a9; stroke-width: 0.8"/>
      </g>
     </g>
     <g id="text_5">
      <!-- 2023-07 -->
      <g style="fill: #a9a9a9" transform="translate(446.825892 334.998438) scale(0.1 -0.1)">
       <use xlink:href="#DejaVuSans-32"/>
       <use xlink:href="#DejaVuSans-30" transform="translate(63.623047 0)"/>
       <use xlink:href="#DejaVuSans-32" transform="translate(127.246094 0)"/>
       <use xlink:href="#DejaVuSans-33" transform="translate(190.869141 0)"/>
       <use xlink:href="#DejaVuSans-2d" transform="translate(254.492188 0)"/>
       <use xlink:href="#DejaVuSans-30" transform="translate(290.576172 0)"/>
       <use xlink:href="#DejaVuSans-37" transform="translate(354.199219 0)"/>
      </g>
     </g>
    </g>
    <g id="xtick_6">
     <g id="line2d_11">
      <path d="M 553.414175 320.4 
L 553.414175 43.2 
" clip-path="url(#p15a4434aae)" style="fill: none; stroke-dasharray: 5.12,1.28,0.8,1.28; stroke-dashoffset: 0; stroke: #b0b0b0; stroke-width: 0.8"/>
     </g>
     <g id="line2d_12">
      <g>
       <use xlink:href="#m731ffc43ba" x="553.414175" y="320.4" style="fill: #a9a9a9; stroke: #a9a9a9; stroke-width: 0.8"/>
      </g>
     </g>
     <g id="text_6">
      <!-- 2024-01 -->
      <g style="fill: #a9a9a9" transform="translate(532.522769 334.998438) scale(0.1 -0.1)">
       <defs>
        <path id="DejaVuSans-34" d="M 2419 4116 
L 825 1625 
L 2419 1625 
L 2419 4116 
z
M 2253 4666 
L 3047 4666 
L 3047 1625 
L 3713 1625 
L 3713 1100 
L 3047 1100 
L 3047 0 
L 2419 0 
L 2419 1100 
L 313 1100 
L 313 1709 
L 2253 4666 
z
" transform="scale(0.015625)"/>
       </defs>
       <use xlink:href="#DejaVuSans-32"/>
       <use xlink:href="#DejaVuSans-30" transform="translate(63.623047 0)"/>
       <use xlink:href="#DejaVuSans-32" transform="translate(127.246094 0)"/>
       <use xlink:href="#DejaVuSans-34" transform="translate(190.869141 0)"/>
       <use xlink:href="#DejaVuSans-2d" transform="translate(254.492188 0)"/>
       <use xlink:href="#DejaVuSans-30" transform="translate(290.576172 0)"/>
       <use xlink:href="#DejaVuSans-31" transform="translate(354.199219 0)"/>
      </g>
     </g>
    </g>
    <g id="xtick_7">
     <g id="line2d_13">
      <path d="M 638.179565 320.4 
L 638.179565 43.2 
" clip-path="url(#p15a4434aae)" style="fill: none; stroke-dasharray: 5.12,1.28,0.8,1.28; stroke-dashoffset: 0; stroke: #b0b0b0; stroke-width: 0.8"/>
     </g>
     <g id="line2d_14">
      <g>
       <use xlink:href="#m731ffc43ba" x="638.179565" y="320.4" style="fill: #a9a9a9; stroke: #a9a9a9; stroke-width: 0.8"/>
      </g>
     </g>
     <g id="text_7">
      <!-- 2024-07 -->
      <g style="fill: #a9a9a9" transform="translate(617.288158 334.998438) scale(0.1 -0.1)">
       <use xlink:href="#DejaVuSans-32"/>
       <use xlink:href="#DejaVuSans-30" transform="translate(63.623047 0)"/>
       <use xlink:href="#DejaVuSans-32" transform="translate(127.246094 0)"/>
       <use xlink:href="#DejaVuSans-34" transform="translate(190.869141 0)"/>
       <use xlink:href="#DejaVuSans-2d" transform="translate(254.492188 0)"/>
       <use xlink:href="#DejaVuSans-30" transform="translate(290.576172 0)"/>
       <use xlink:href="#DejaVuSans-37" transform="translate(354.199219 0)"/>
      </g>
     </g>
    </g>
    <g id="xtick_8">
     <g id="line2d_15">
      <path d="M 723.876442 320.4 
L 723.876442 43.2 
" clip-path="url(#p15a4434aae)" style="fill: none; stroke-dasharray: 5.12,1.28,0.8,1.28; stroke-dashoffset: 0; stroke: #b0b0b0; stroke-width: 0.8"/>
     </g>
     <g id="line2d_16">
      <g>
       <use xlink:href="#m731ffc43ba" x="723.876442" y="320.4" style="fill: #a9a9a9; stroke: #a9a9a9; stroke-width: 0.8"/>
      </g>
     </g>
     <g id="text_8">
      <!-- 2025-01 -->
      <g style="fill: #a9a9a9" transform="translate(702.985035 334.998438) scale(0.1 -0.1)">
       <defs>
        <path id="DejaVuSans-35" d="M 691 4666 
L 3169 4666 
L 3169 4134 
L 1269 4134 
L 1269 2991 
Q 1406 3038 1543 3061 
Q 1681 3084 1819 3084 
Q 2600 3084 3056 2656 
Q 3513 2228 3513 1497 
Q 3513 744 3044 326 
Q 2575 -91 1722 -91 
Q 1428 -91 1123 -41 
Q 819 9 494 109 
L 494 744 
Q 775 591 1075 516 
Q 1375 441 1709 441 
Q 2250 441 2565 725 
Q 2881 1009 2881 1497 
Q 2881 1984 2565 2268 
Q 2250 2553 1709 2553 
Q 1456 2553 1204 2497 
Q 953 2441 691 2322 
L 691 4666 
z
" transform="scale(0.015625)"/>
       </defs>
       <use xlink:href="#DejaVuSans-32"/>
       <use xlink:href="#DejaVuSans-30" transform="translate(63.623047 0)"/>
       <use xlink:href="#DejaVuSans-32" transform="translate(127.246094 0)"/>
       <use xlink:href="#DejaVuSans-35" transform="translate(190.869141 0)"/>
       <use xlink:href="#DejaVuSans-2d" transform="translate(254.492188 0)"/>
       <use xlink:href="#DejaVuSans-30" transform="translate(290.576172 0)"/>
       <use xlink:href="#DejaVuSans-31" transform="translate(354.199219 0)"/>
      </g>
     </g>
    </g>
   </g>
   <g id="matplotlib.axis_2">
    <g id="ytick_1">
     <g id="line2d_17">
      <path d="M 108 307.834393 
L 777.6 307.834393 
" clip-path="url(#p15a4434aae)" style="fill: none; stroke-dasharray: 5.12,1.28,0.8,1.28; stroke-dashoffset: 0; stroke: #b0b0b0; stroke-width: 0.8"/>
     </g>
     <g id="line2d_18">
      <defs>
       <path id="ma2f91bb360" d="M 0 0 
L -3.5 0 
" style="stroke: #a9a9a9; stroke-width: 0.8"/>
      </defs>
      <g>
       <use xlink:href="#ma2f91bb360" x="108" y="307.834393" style="fill: #a9a9a9; stroke: #a9a9a9; stroke-width: 0.8"/>
      </g>
     </g>
     <g id="text_9">
      <!-- 0 -->
      <g style="fill: #a9a9a9" transform="translate(94.6375 311.633612) scale(0.1 -0.1)">
       <use xlink:href="#DejaVuSans-30"/>
      </g>
     </g>
    </g>
    <g id="ytick_2">
     <g id="line2d_19">
      <path d="M 108 273.441054 
L 777.6 273.441054 
" clip-path="url(#p15a4434aae)" style="fill: none; stroke-dasharray: 5.12,1.28,0.8,1.28; stroke-dashoffset: 0; stroke: #b0b0b0; stroke-width: 0.8"/>
     </g>
     <g id="line2d_20">
      <g>
       <use xlink:href="#ma2f91bb360" x="108" y="273.441054" style="fill: #a9a9a9; stroke: #a9a9a9; stroke-width: 0.8"/>
      </g>
     </g>
     <g id="text_10">
      <!-- 1000 -->
      <g style="fill: #a9a9a9" transform="translate(75.55 277.240272) scale(0.1 -0.1)">
       <use xlink:href="#DejaVuSans-31"/>
       <use xlink:href="#DejaVuSans-30" transform="translate(63.623047 0)"/>
       <use xlink:href="#DejaVuSans-30" transform="translate(127.246094 0)"/>
       <use xlink:href="#DejaVuSans-30" transform="translate(190.869141 0)"/>
      </g>
     </g>
    </g>
    <g id="ytick_3">
     <g id="line2d_21">
      <path d="M 108 239.047714 
L 777.6 239.047714 
" clip-path="url(#p15a4434aae)" style="fill: none; stroke-dasharray: 5.12,1.28,0.8,1.28; stroke-dashoffset: 0; stroke: #b0b0b0; stroke-width: 0.8"/>
     </g>
     <g id="line2d_22">
      <g>
       <use xlink:href="#ma2f91bb360" x="108" y="239.047714" style="fill: #a9a9a9; stroke: #a9a9a9; stroke-width: 0.8"/>
      </g>
     </g>
     <g id="text_11">
      <!-- 2000 -->
      <g style="fill: #a9a9a9" transform="translate(75.55 242.846933) scale(0.1 -0.1)">
       <use xlink:href="#DejaVuSans-32"/>
       <use xlink:href="#DejaVuSans-30" transform="translate(63.623047 0)"/>
       <use xlink:href="#DejaVuSans-30" transform="translate(127.246094 0)"/>
       <use xlink:href="#DejaVuSans-30" transform="translate(190.869141 0)"/>
      </g>
     </g>
    </g>
    <g id="ytick_4">
     <g id="line2d_23">
      <path d="M 108 204.654374 
L 777.6 204.654374 
" clip-path="url(#p15a4434aae)" style="fill: none; stroke-dasharray: 5.12,1.28,0.8,1.28; stroke-dashoffset: 0; stroke: #b0b0b0; stroke-width: 0.8"/>
     </g>
     <g id="line2d_24">
      <g>
       <use xlink:href="#ma2f91bb360" x="108" y="204.654374" style="fill: #a9a9a9; stroke: #a9a9a9; stroke-width: 0.8"/>
      </g>
     </g>
     <g id="text_12">
      <!-- 3000 -->
      <g style="fill: #a9a9a9" transform="translate(75.55 208.453593) scale(0.1 -0.1)">
       <use xlink:href="#DejaVuSans-33"/>
       <use xlink:href="#DejaVuSans-30" transform="translate(63.623047 0)"/>
       <use xlink:href="#DejaVuSans-30" transform="translate(127.246094 0)"/>
       <use xlink:href="#DejaVuSans-30" transform="translate(190.869141 0)"/>
      </g>
     </g>
    </g>
    <g id="ytick_5">
     <g id="line2d_25">
      <path d="M 108 170.261035 
L 777.6 170.261035 
" clip-path="url(#p15a4434aae)" style="fill: none; stroke-dasharray: 5.12,1.28,0.8,1.28; stroke-dashoffset: 0; stroke: #b0b0b0; stroke-width: 0.8"/>
     </g>
     <g id="line2d_26">
      <g>
       <use xlink:href="#ma2f91bb360" x="108" y="170.261035" style="fill: #a9a9a9; stroke: #a9a9a9; stroke-width: 0.8"/>
      </g>
     </g>
     <g id="text_13">
      <!-- 4000 -->
      <g style="fill: #a9a9a9" transform="translate(75.55 174.060253) scale(0.1 -0.1)">
       <use xlink:href="#DejaVuSans-34"/>
       <use xlink:href="#DejaVuSans-30" transform="translate(63.623047 0)"/>
       <use xlink:href="#DejaVuSans-30" transform="translate(127.246094 0)"/>
       <use xlink:href="#DejaVuSans-30" transform="translate(190.869141 0)"/>
      </g>
     </g>
    </g>
    <g id="ytick_6">
     <g id="line2d_27">
      <path d="M 108 135.867695 
L 777.6 135.867695 
" clip-path="url(#p15a4434aae)" style="fill: none; stroke-dasharray: 5.12,1.28,0.8,1.28; stroke-dashoffset: 0; stroke: #b0b0b0; stroke-width: 0.8"/>
     </g>
     <g id="line2d_28">
      <g>
       <use xlink:href="#ma2f91bb360" x="108" y="135.867695" style="fill: #a9a9a9; stroke: #a9a9a9; stroke-width: 0.8"/>
      </g>
     </g>
     <g id="text_14">
      <!-- 5000 -->
      <g style="fill: #a9a9a9" transform="translate(75.55 139.666914) scale(0.1 -0.1)">
       <use xlink:href="#DejaVuSans-35"/>
       <use xlink:href="#DejaVuSans-30" transform="translate(63.623047 0)"/>
       <use xlink:href="#DejaVuSans-30" transform="translate(127.246094 0)"/>
       <use xlink:href="#DejaVuSans-30" transform="translate(190.869141 0)"/>
      </g>
     </g>
    </g>
    <g id="ytick_7">
     <g id="line2d_29">
      <path d="M 108 101.474355 
L 777.6 101.474355 
" clip-path="url(#p15a4434aae)" style="fill: none; stroke-dasharray: 5.12,1.28,0.8,1.28; stroke-dashoffset: 0; stroke: #b0b0b0; stroke-width: 0.8"/>
     </g>
     <g id="line2d_30">
      <g>
       <use xlink:href="#ma2f91bb360" x="108" y="101.474355" style="fill: #a9a9a9; stroke: #a9a9a9; stroke-width: 0.8"/>
      </g>
     </g>
     <g id="text_15">
      <!-- 6000 -->
      <g style="fill: #a9a9a9" transform="translate(75.55 105.273574) scale(0.1 -0.1)">
       <defs>
        <path id="DejaVuSans-36" d="M 2113 2584 
Q 1688 2584 1439 2293 
Q 1191 2003 1191 1497 
Q 1191 994 1439 701 
Q 1688 409 2113 409 
Q 2538 409 2786 701 
Q 3034 994 3034 1497 
Q 3034 2003 2786 2293 
Q 2538 2584 2113 2584 
z
M 3366 4563 
L 3366 3988 
Q 3128 4100 2886 4159 
Q 2644 4219 2406 4219 
Q 1781 4219 1451 3797 
Q 1122 3375 1075 2522 
Q 1259 2794 1537 2939 
Q 1816 3084 2150 3084 
Q 2853 3084 3261 2657 
Q 3669 2231 3669 1497 
Q 3669 778 3244 343 
Q 2819 -91 2113 -91 
Q 1303 -91 875 529 
Q 447 1150 447 2328 
Q 447 3434 972 4092 
Q 1497 4750 2381 4750 
Q 2619 4750 2861 4703 
Q 3103 4656 3366 4563 
z
" transform="scale(0.015625)"/>
       </defs>
       <use xlink:href="#DejaVuSans-36"/>
       <use xlink:href="#DejaVuSans-30" transform="translate(63.623047 0)"/>
       <use xlink:href="#DejaVuSans-30" transform="translate(127.246094 0)"/>
       <use xlink:href="#DejaVuSans-30" transform="translate(190.869141 0)"/>
      </g>
     </g>
    </g>
    <g id="ytick_8">
     <g id="line2d_31">
      <path d="M 108 67.081015 
L 777.6 67.081015 
" clip-path="url(#p15a4434aae)" style="fill: none; stroke-dasharray: 5.12,1.28,0.8,1.28; stroke-dashoffset: 0; stroke: #b0b0b0; stroke-width: 0.8"/>
     </g>
     <g id="line2d_32">
      <g>
       <use xlink:href="#ma2f91bb360" x="108" y="67.081015" style="fill: #a9a9a9; stroke: #a9a9a9; stroke-width: 0.8"/>
      </g>
     </g>
     <g id="text_16">
      <!-- 7000 -->
      <g style="fill: #a9a9a9" transform="translate(75.55 70.880234) scale(0.1 -0.1)">
       <use xlink:href="#DejaVuSans-37"/>
       <use xlink:href="#DejaVuSans-30" transform="translate(63.623047 0)"/>
       <use xlink:href="#DejaVuSans-30" transform="translate(127.246094 0)"/>
       <use xlink:href="#DejaVuSans-30" transform="translate(190.869141 0)"/>
      </g>
     </g>
    </g>
   </g>
   <g id="line2d_33">
    <path d="M 138.436364 307.731213 
L 141.230827 307.49046 
L 141.696571 307.2841 
L 143.559546 307.043347 
L 145.422522 306.66502 
L 146.35401 306.527446 
L 148.682729 306.321086 
L 149.614217 305.94276 
L 150.079961 305.32368 
L 150.545705 305.014139 
L 151.011449 303.947946 
L 151.477193 303.879159 
L 151.942937 303.500833 
L 152.874424 303.019326 
L 154.7374 301.506019 
L 156.600376 300.577399 
L 157.997607 299.923925 
L 158.463351 299.167272 
L 159.394839 298.479405 
L 159.860583 298.273045 
L 164.518022 297.585178 
L 164.983766 297.378818 
L 168.243973 297.103671 
L 170.106949 296.656558 
L 173.8329 296.140658 
L 174.298644 295.899904 
L 174.764388 295.831118 
L 175.695875 295.521578 
L 178.956083 294.971284 
L 179.88757 294.696138 
L 184.079265 293.973877 
L 185.010753 293.767517 
L 185.942241 293.733124 
L 187.805217 293.286011 
L 188.270961 292.632537 
L 189.668192 292.082244 
L 191.065424 291.703917 
L 191.531168 291.463164 
L 192.462656 291.291197 
L 194.325631 290.740904 
L 195.257119 290.672117 
L 196.188607 290.431363 
L 198.051582 289.949857 
L 198.517326 289.915463 
L 199.448814 289.46835 
L 199.914558 289.399563 
L 200.380302 289.15881 
L 205.503485 288.298976 
L 207.36646 287.748683 
L 207.832204 287.439143 
L 210.160924 286.648096 
L 211.092411 285.994623 
L 212.489643 285.719476 
L 224.598984 282.245749 
L 225.064728 282.245749 
L 225.530472 282.039389 
L 226.46196 281.936209 
L 226.927704 281.764242 
L 228.79068 281.695455 
L 229.722167 281.523488 
L 230.653655 281.041982 
L 232.050887 280.526082 
L 232.516631 280.216542 
L 233.448119 279.803821 
L 233.913862 279.563068 
L 234.84535 279.253528 
L 235.311094 279.115955 
L 236.242582 278.531268 
L 236.708326 278.015368 
L 237.639814 276.570848 
L 238.105557 276.433274 
L 238.571301 276.433274 
L 239.968533 275.607834 
L 240.434277 275.367081 
L 240.900021 275.263901 
L 241.365765 274.816787 
L 242.297253 274.43846 
L 243.22874 273.991347 
L 245.55746 270.999127 
L 248.351923 269.48582 
L 249.283411 268.729166 
L 249.749155 268.419626 
L 250.214899 267.766153 
L 250.680643 266.699959 
L 251.146387 265.977699 
L 251.61213 265.599372 
L 252.077874 265.393012 
L 255.803826 261.953678 
L 256.735313 261.093845 
L 259.529777 259.339784 
L 259.995521 259.167818 
L 261.392752 258.342378 
L 262.789984 257.413757 
L 264.65296 255.728484 
L 265.584447 255.350157 
L 266.515935 254.696683 
L 266.981679 254.421537 
L 267.447423 254.35275 
L 268.844655 253.561703 
L 269.310399 253.045803 
L 271.639118 251.77325 
L 272.104862 251.601283 
L 273.502094 250.638269 
L 280.488252 248.161949 
L 281.41974 247.302115 
L 282.816972 246.614249 
L 283.748459 246.029562 
L 284.679947 245.754415 
L 285.145691 245.444875 
L 285.611435 245.307302 
L 287.008667 244.378682 
L 289.337386 243.828388 
L 290.734618 243.002948 
L 292.131849 242.693408 
L 292.597593 242.555835 
L 293.994825 241.489641 
L 295.857801 240.973741 
L 296.323545 240.595414 
L 299.118008 239.632401 
L 300.049496 239.460434 
L 300.980984 239.082107 
L 304.241191 237.87834 
L 305.172679 237.740767 
L 306.56991 237.25926 
L 308.89863 236.12428 
L 310.761605 235.09248 
L 314.487557 233.54478 
L 314.9533 233.475993 
L 315.884788 232.891306 
L 316.350532 232.822519 
L 318.213508 232.065866 
L 320.076483 231.825113 
L 321.007971 231.343606 
L 321.473715 230.930886 
L 321.939459 230.071052 
L 323.802434 229.555152 
L 325.199666 228.832892 
L 326.131154 228.523352 
L 327.062642 228.041845 
L 329.857105 226.906865 
L 330.788593 226.700505 
L 331.720081 226.218998 
L 332.185825 226.012638 
L 332.651568 225.943852 
L 334.514544 225.084018 
L 335.911776 224.189791 
L 337.309007 223.914644 
L 339.171983 223.398744 
L 339.637727 223.364351 
L 340.103471 222.986024 
L 341.034959 222.676484 
L 343.363678 221.747864 
L 343.829422 221.403931 
L 344.295166 221.231964 
L 345.226654 220.716064 
L 347.089629 220.131377 
L 347.555373 219.890624 
L 348.952605 218.755644 
L 349.418349 218.652463 
L 350.349837 217.89581 
L 350.81558 217.827023 
L 351.281324 217.07037 
L 351.747068 216.86401 
L 352.212812 216.485683 
L 352.678556 216.416896 
L 353.610044 215.83221 
L 354.541532 215.52267 
L 355.007276 215.178736 
L 355.473019 215.006769 
L 357.335995 213.768609 
L 358.733227 213.046349 
L 359.664714 212.805596 
L 360.596202 212.289696 
L 361.061946 211.498649 
L 361.993434 210.810782 
L 362.459178 210.707602 
L 365.253641 209.366262 
L 366.185129 208.987935 
L 367.582361 207.818561 
L 368.513849 207.027515 
L 369.445336 206.477221 
L 369.91108 205.961321 
L 370.376824 205.651781 
L 371.308312 204.895128 
L 371.774056 204.688768 
L 372.705544 203.760147 
L 373.637031 203.416214 
L 374.568519 202.797134 
L 375.965751 202.074874 
L 376.431495 202.006087 
L 377.828726 201.249434 
L 378.760214 200.664747 
L 383.417653 198.94508 
L 383.883397 198.566753 
L 385.746373 197.844493 
L 386.212117 197.70692 
L 387.143604 197.087839 
L 388.075092 196.675119 
L 389.00658 196.021646 
L 389.938068 194.164406 
L 390.869556 193.063819 
L 392.266787 192.341559 
L 393.198275 191.963232 
L 393.664019 191.894445 
L 394.129763 191.619298 
L 396.458482 190.862645 
L 396.924226 190.656285 
L 397.855714 190.002812 
L 399.252946 189.383731 
L 400.184433 188.867831 
L 402.978897 186.941804 
L 405.307616 185.669251 
L 408.10208 184.259124 
L 409.499311 183.846404 
L 410.896543 183.29611 
L 411.362287 182.952177 
L 412.293775 182.67703 
L 413.225263 182.298703 
L 413.691006 181.920377 
L 415.553982 181.266903 
L 416.48547 180.579036 
L 417.416958 180.20071 
L 418.348445 179.47845 
L 419.279933 179.203303 
L 419.745677 178.790583 
L 420.211421 178.721796 
L 421.142909 177.999536 
L 422.074397 177.518029 
L 422.540141 177.311669 
L 423.005884 176.830162 
L 426.266092 175.523216 
L 427.197579 175.110495 
L 428.594811 174.663382 
L 429.526299 174.525809 
L 429.992043 174.319449 
L 430.457787 174.250662 
L 431.389275 173.837942 
L 431.855018 173.803549 
L 433.717994 173.115682 
L 435.115226 172.118275 
L 435.58097 171.946308 
L 436.512457 171.430408 
L 436.978201 171.292835 
L 439.772665 169.710741 
L 440.238409 169.607561 
L 441.63564 168.782121 
L 443.032872 168.300614 
L 443.96436 167.991074 
L 445.827335 167.371994 
L 446.758823 167.062454 
L 448.621799 166.684127 
L 449.087543 166.477767 
L 449.553286 166.40898 
L 450.484774 165.99626 
L 450.950518 165.927474 
L 451.416262 165.68672 
L 452.34775 165.514754 
L 453.744982 164.998854 
L 454.676469 164.895674 
L 456.073701 164.586133 
L 458.402421 164.173413 
L 470.511762 160.596506 
L 470.977506 160.114999 
L 471.908994 159.736673 
L 475.634945 158.326546 
L 476.100689 158.051399 
L 477.49792 157.638679 
L 478.429408 157.397925 
L 478.895152 157.088385 
L 479.360896 156.985205 
L 479.82664 156.572485 
L 481.223871 156.297339 
L 482.155359 155.850225 
L 482.621103 155.299932 
L 484.484079 154.852818 
L 487.744286 154.164952 
L 488.21003 154.164952 
L 488.675774 153.958592 
L 490.538749 153.614658 
L 491.004493 153.408298 
L 492.867469 153.064365 
L 493.798957 152.651645 
L 494.730444 152.479678 
L 497.059164 151.894991 
L 498.92214 151.310304 
L 499.387883 151.207124 
L 499.853627 150.966371 
L 500.785115 150.725618 
L 501.716603 150.347291 
L 502.648091 150.003357 
L 503.113835 149.693817 
L 504.045322 149.418671 
L 507.771274 148.111724 
L 508.702761 148.042937 
L 510.565737 147.492644 
L 511.031481 147.217497 
L 511.962969 146.94235 
L 514.291688 145.876157 
L 514.757432 145.841763 
L 519.880615 144.018916 
L 522.209334 143.399836 
L 523.140822 142.952723 
L 524.538054 142.643183 
L 526.401029 141.129876 
L 527.332517 140.854729 
L 527.798261 140.476402 
L 530.592724 139.410209 
L 531.058468 139.100669 
L 531.989956 138.825522 
L 532.4557 138.515982 
L 534.78442 137.759329 
L 536.181651 136.933888 
L 536.647395 136.830708 
L 538.976115 135.558155 
L 540.373346 134.939075 
L 540.83909 134.595141 
L 541.770578 134.285601 
L 542.702066 133.735308 
L 543.16781 133.563341 
L 543.633554 133.219408 
L 549.688224 131.087021 
L 550.153968 130.983841 
L 550.619712 130.674301 
L 552.482688 130.295974 
L 553.414175 129.917647 
L 556.208639 128.576307 
L 556.674383 128.50752 
L 558.071614 127.716473 
L 559.468846 127.234967 
L 562.729053 125.893626 
L 563.194797 125.756053 
L 563.660541 125.446513 
L 564.592029 125.343333 
L 565.057773 125.033793 
L 565.989261 124.861826 
L 566.920748 124.414713 
L 567.386492 124.208353 
L 567.852236 124.139566 
L 568.783724 123.830026 
L 572.043931 122.695046 
L 573.441163 122.385506 
L 574.838395 121.835212 
L 576.70137 120.803412 
L 577.632858 120.425085 
L 578.098602 120.115545 
L 579.03009 119.909185 
L 579.495834 119.634038 
L 579.961578 119.530858 
L 581.358809 118.739812 
L 582.290297 118.361485 
L 584.153273 117.639225 
L 586.481992 116.848178 
L 587.41348 116.366671 
L 589.742199 115.575624 
L 592.536663 114.440644 
L 594.399638 113.580811 
L 599.057077 111.757964 
L 599.522821 111.448424 
L 601.385797 110.829344 
L 601.851541 110.829344 
L 602.783028 110.416623 
L 604.646004 108.903317 
L 605.111748 108.765743 
L 605.577492 108.490596 
L 606.043236 108.387416 
L 606.50898 108.146663 
L 606.974724 108.077876 
L 607.440467 107.733943 
L 607.906211 107.630763 
L 608.837699 107.046076 
L 610.234931 106.323816 
L 611.166419 105.945489 
L 611.632162 105.704736 
L 613.029394 105.395196 
L 615.358114 104.604149 
L 616.289601 104.294609 
L 617.686833 103.572349 
L 618.618321 103.125235 
L 619.549809 102.884482 
L 620.94704 102.231009 
L 625.138735 100.683308 
L 626.535967 99.823475 
L 627.001711 99.720295 
L 627.933199 99.273181 
L 628.864687 98.929248 
L 629.330431 98.516528 
L 630.261918 98.138201 
L 631.65915 97.656694 
L 632.124894 97.278368 
L 632.590638 97.243974 
L 633.522126 96.968828 
L 634.453613 96.659288 
L 634.919357 96.418534 
L 635.385101 96.349748 
L 636.782333 95.833847 
L 638.179565 95.317947 
L 640.04254 94.492507 
L 640.508284 94.42372 
L 644.234235 92.87602 
L 645.631467 92.428907 
L 646.562955 92.36012 
L 647.494443 91.981793 
L 650.288906 91.156353 
L 651.220394 91.12196 
L 654.946345 89.918193 
L 655.877833 89.402293 
L 656.343577 88.989573 
L 657.740808 88.164133 
L 658.672296 87.613839 
L 661.466759 86.719612 
L 661.932503 86.341286 
L 664.726967 85.171912 
L 666.589942 84.656012 
L 667.52143 84.243292 
L 667.987174 84.002539 
L 668.918662 83.727392 
L 669.384406 83.452245 
L 670.315893 83.280278 
L 674.041845 81.663791 
L 674.507589 81.595005 
L 674.973332 81.285465 
L 675.439076 81.113498 
L 675.90482 80.700778 
L 676.370564 80.631991 
L 678.23354 79.909731 
L 680.096515 79.462618 
L 680.562259 79.393831 
L 681.028003 79.187471 
L 681.493747 79.153078 
L 682.425235 78.843538 
L 682.890979 78.809144 
L 684.28821 78.258851 
L 686.151186 77.708557 
L 687.082674 77.020691 
L 688.945649 75.98889 
L 690.342881 75.507384 
L 694.068832 73.753323 
L 694.534576 73.51257 
L 695.00032 73.065457 
L 697.794783 72.17123 
L 698.726271 71.792903 
L 699.657759 71.55215 
L 700.123503 71.311396 
L 700.589247 70.898676 
L 702.452222 70.417169 
L 702.917966 70.073236 
L 708.972637 67.872062 
L 709.904125 67.700096 
L 714.09582 66.221182 
L 715.027308 65.980429 
L 715.493051 65.774069 
L 715.958795 65.774069 
L 716.890283 65.395742 
L 717.821771 64.845448 
L 720.15049 64.054402 
L 721.547722 63.572895 
L 722.013466 63.504108 
L 722.944954 63.125781 
L 724.342185 62.816241 
L 725.739417 62.369128 
L 726.205161 62.265948 
L 726.670905 61.956408 
L 727.602393 61.750048 
L 736.917271 59.067367 
L 739.24599 58.654647 
L 740.177478 58.207534 
L 740.643222 57.897994 
L 744.369173 56.591047 
L 745.300661 56.3159 
L 746.697892 55.8 
L 747.163636 55.8 
L 747.163636 55.8 
" clip-path="url(#p15a4434aae)" style="fill: none; stroke: #1f77b4; stroke-width: 1.5; stroke-linecap: square"/>
   </g>
   <g id="line2d_34">
    <path d="M 138.902108 307.8 
L 143.093803 307.69682 
L 146.819754 307.524853 
L 148.682729 307.524853 
L 149.148473 307.38728 
L 151.477193 307.2841 
L 154.271656 306.97456 
L 157.066119 306.87138 
L 157.997607 306.7682 
L 161.257815 306.630626 
L 164.518022 306.527446 
L 166.846741 306.45866 
L 172.901412 306.35548 
L 175.230131 306.286693 
L 178.490339 306.183513 
L 180.819058 306.114726 
L 185.942241 306.011546 
L 187.805217 305.83958 
L 189.668192 305.805186 
L 192.462656 305.702006 
L 194.325631 305.667613 
L 196.654351 305.598826 
L 198.517326 305.42686 
L 202.709021 305.32368 
L 203.640509 305.254893 
L 205.503485 305.151713 
L 208.297948 305.048533 
L 210.160924 304.945353 
L 218.544314 304.429453 
L 221.804521 304.326273 
L 223.201753 304.188699 
L 225.530472 304.085519 
L 230.187911 303.844766 
L 234.84535 303.775979 
L 236.708326 303.569619 
L 238.571301 303.466439 
L 243.694484 302.984932 
L 246.954692 302.606606 
L 248.351923 302.537819 
L 252.077874 302.056312 
L 254.872338 301.987526 
L 256.269569 301.849952 
L 257.666801 301.746772 
L 270.70763 300.749365 
L 271.639118 300.577399 
L 274.433581 300.474219 
L 281.885484 300.027105 
L 285.145691 299.923925 
L 287.008667 299.717565 
L 289.337386 299.614385 
L 292.131849 299.511205 
L 294.460569 299.408025 
L 296.323545 299.373632 
L 298.652264 299.304845 
L 299.583752 299.167272 
L 306.104166 299.064092 
L 307.035654 298.960912 
L 312.624581 298.857732 
L 316.816276 298.651372 
L 320.076483 298.548192 
L 321.939459 298.341832 
L 325.199666 298.238652 
L 326.131154 298.066685 
L 328.459873 297.997898 
L 333.117312 297.929112 
L 334.980288 297.757145 
L 336.843264 297.722751 
L 338.240495 297.619571 
L 340.103471 297.447605 
L 344.76091 297.206851 
L 349.418349 297.103671 
L 353.610044 296.897311 
L 355.007276 296.862918 
L 355.938763 296.725345 
L 358.267483 296.622165 
L 359.198971 296.553378 
L 360.130458 296.484591 
L 361.061946 296.415805 
L 365.253641 296.347018 
L 366.650873 296.243838 
L 379.225958 295.418398 
L 381.554678 295.315218 
L 383.883397 295.246431 
L 390.403812 295.143251 
L 391.335299 295.005678 
L 397.855714 294.902498 
L 402.513153 294.661744 
L 403.444641 294.627351 
L 404.376129 294.524171 
L 406.704848 294.420991 
L 409.033568 294.352204 
L 411.362287 294.249024 
L 413.691006 294.180237 
L 417.882702 294.077057 
L 420.677165 293.973877 
L 427.197579 293.870697 
L 432.320762 293.595551 
L 434.183738 293.526764 
L 435.58097 293.423584 
L 442.101384 293.320404 
L 444.895848 293.217224 
L 453.279238 293.114044 
L 455.142213 293.079651 
L 460.73114 293.010864 
L 461.662628 292.942077 
L 468.183042 292.838897 
L 470.046018 292.804504 
L 482.155359 292.701324 
L 483.552591 292.563751 
L 504.511066 292.46057 
L 506.839786 292.391784 
L 518.949127 292.322997 
L 519.880615 292.25421 
L 522.209334 292.185424 
L 523.606566 292.04785 
L 526.401029 291.94467 
L 529.661237 291.807097 
L 533.852932 291.703917 
L 536.181651 291.63513 
L 539.441859 291.53195 
L 543.16781 291.359984 
L 545.496529 291.256804 
L 547.359505 291.22241 
L 551.5512 291.11923 
L 553.414175 291.084837 
L 559.468846 290.981657 
L 561.331822 290.947264 
L 563.660541 290.844084 
L 566.455005 290.740904 
L 569.715212 290.672117 
L 570.6467 290.60333 
L 581.824553 290.50015 
L 587.879224 290.156217 
L 590.207943 290.08743 
L 591.139431 289.98425 
L 592.070919 289.915463 
L 595.79687 289.812283 
L 598.591333 289.709103 
L 603.248772 289.605923 
L 605.577492 289.36517 
L 610.234931 289.26199 
L 611.166419 289.15881 
L 615.823858 289.05563 
L 618.152577 288.986843 
L 623.27576 288.95245 
L 624.207248 288.84927 
L 629.330431 288.74609 
L 630.261918 288.677303 
L 640.508284 288.574123 
L 643.302747 288.470943 
L 650.288906 288.367763 
L 652.151881 288.33337 
L 656.343577 288.264583 
L 657.275064 288.161403 
L 663.329735 288.058223 
L 665.658454 287.989436 
L 674.041845 287.886256 
L 675.439076 287.783076 
L 676.836308 287.679896 
L 678.23354 287.576716 
L 685.219698 287.473536 
L 688.014162 287.370356 
L 700.589247 287.267176 
L 704.780942 287.060816 
L 710.369869 286.957636 
L 711.301356 286.888849 
L 718.287515 286.820063 
L 719.219003 286.751276 
L 724.342185 286.648096 
L 726.205161 286.613703 
L 732.725576 286.510523 
L 735.520039 286.407343 
L 743.437685 286.304163 
L 745.300661 286.269769 
L 747.163636 286.269769 
L 747.163636 286.269769 
" clip-path="url(#p15a4434aae)" style="fill: none; stroke: #ff7f0e; stroke-width: 1.5; stroke-linecap: square"/>
   </g>
   <g id="patch_3">
    <path d="M 108 320.4 
L 108 43.2 
" style="fill: none; stroke: #a9a9a9; stroke-width: 0.8; stroke-linejoin: miter; stroke-linecap: square"/>
   </g>
   <g id="patch_4">
    <path d="M 777.6 320.4 
L 777.6 43.2 
" style="fill: none"/>
   </g>
   <g id="patch_5">
    <path d="M 108 320.4 
L 777.6 320.4 
" style="fill: none; stroke: #a9a9a9; stroke-width: 0.8; stroke-linejoin: miter; stroke-linecap: square"/>
   </g>
   <g id="patch_6">
    <path d="M 108 43.2 
L 777.6 43.2 
" style="fill: none"/>
   </g>
   <g id="text_17">
    <!-- get_subscribe history -->
    <g style="fill: #a9a9a9" transform="translate(378.6075 37.2) scale(0.12 -0.12)">
     <defs>
      <path id="DejaVuSans-67" d="M 2906 1791 
Q 2906 2416 2648 2759 
Q 2391 3103 1925 3103 
Q 1463 3103 1205 2759 
Q 947 2416 947 1791 
Q 947 1169 1205 825 
Q 1463 481 1925 481 
Q 2391 481 2648 825 
Q 2906 1169 2906 1791 
z
M 3481 434 
Q 3481 -459 3084 -895 
Q 2688 -1331 1869 -1331 
Q 1566 -1331 1297 -1286 
Q 1028 -1241 775 -1147 
L 775 -588 
Q 1028 -725 1275 -790 
Q 1522 -856 1778 -856 
Q 2344 -856 2625 -561 
Q 2906 -266 2906 331 
L 2906 616 
Q 2728 306 2450 153 
Q 2172 0 1784 0 
Q 1141 0 747 490 
Q 353 981 353 1791 
Q 353 2603 747 3093 
Q 1141 3584 1784 3584 
Q 2172 3584 2450 3431 
Q 2728 3278 2906 2969 
L 2906 3500 
L 3481 3500 
L 3481 434 
z
" transform="scale(0.015625)"/>
      <path id="DejaVuSans-65" d="M 3597 1894 
L 3597 1613 
L 953 1613 
Q 991 1019 1311 708 
Q 1631 397 2203 397 
Q 2534 397 2845 478 
Q 3156 559 3463 722 
L 3463 178 
Q 3153 47 2828 -22 
Q 2503 -91 2169 -91 
Q 1331 -91 842 396 
Q 353 884 353 1716 
Q 353 2575 817 3079 
Q 1281 3584 2069 3584 
Q 2775 3584 3186 3129 
Q 3597 2675 3597 1894 
z
M 3022 2063 
Q 3016 2534 2758 2815 
Q 2500 3097 2075 3097 
Q 1594 3097 1305 2825 
Q 1016 2553 972 2059 
L 3022 2063 
z
" transform="scale(0.015625)"/>
      <path id="DejaVuSans-74" d="M 1172 4494 
L 1172 3500 
L 2356 3500 
L 2356 3053 
L 1172 3053 
L 1172 1153 
Q 1172 725 1289 603 
Q 1406 481 1766 481 
L 2356 481 
L 2356 0 
L 1766 0 
Q 1100 0 847 248 
Q 594 497 594 1153 
L 594 3053 
L 172 3053 
L 172 3500 
L 594 3500 
L 594 4494 
L 1172 4494 
z
" transform="scale(0.015625)"/>
      <path id="DejaVuSans-5f" d="M 3263 -1063 
L 3263 -1509 
L -63 -1509 
L -63 -1063 
L 3263 -1063 
z
" transform="scale(0.015625)"/>
      <path id="DejaVuSans-73" d="M 2834 3397 
L 2834 2853 
Q 2591 2978 2328 3040 
Q 2066 3103 1784 3103 
Q 1356 3103 1142 2972 
Q 928 2841 928 2578 
Q 928 2378 1081 2264 
Q 1234 2150 1697 2047 
L 1894 2003 
Q 2506 1872 2764 1633 
Q 3022 1394 3022 966 
Q 3022 478 2636 193 
Q 2250 -91 1575 -91 
Q 1294 -91 989 -36 
Q 684 19 347 128 
L 347 722 
Q 666 556 975 473 
Q 1284 391 1588 391 
Q 1994 391 2212 530 
Q 2431 669 2431 922 
Q 2431 1156 2273 1281 
Q 2116 1406 1581 1522 
L 1381 1569 
Q 847 1681 609 1914 
Q 372 2147 372 2553 
Q 372 3047 722 3315 
Q 1072 3584 1716 3584 
Q 2034 3584 2315 3537 
Q 2597 3491 2834 3397 
z
" transform="scale(0.015625)"/>
      <path id="DejaVuSans-75" d="M 544 1381 
L 544 3500 
L 1119 3500 
L 1119 1403 
Q 1119 906 1312 657 
Q 1506 409 1894 409 
Q 2359 409 2629 706 
Q 2900 1003 2900 1516 
L 2900 3500 
L 3475 3500 
L 3475 0 
L 2900 0 
L 2900 538 
Q 2691 219 2414 64 
Q 2138 -91 1772 -91 
Q 1169 -91 856 284 
Q 544 659 544 1381 
z
M 1991 3584 
L 1991 3584 
z
" transform="scale(0.015625)"/>
      <path id="DejaVuSans-62" d="M 3116 1747 
Q 3116 2381 2855 2742 
Q 2594 3103 2138 3103 
Q 1681 3103 1420 2742 
Q 1159 2381 1159 1747 
Q 1159 1113 1420 752 
Q 1681 391 2138 391 
Q 2594 391 2855 752 
Q 3116 1113 3116 1747 
z
M 1159 2969 
Q 1341 3281 1617 3432 
Q 1894 3584 2278 3584 
Q 2916 3584 3314 3078 
Q 3713 2572 3713 1747 
Q 3713 922 3314 415 
Q 2916 -91 2278 -91 
Q 1894 -91 1617 61 
Q 1341 213 1159 525 
L 1159 0 
L 581 0 
L 581 4863 
L 1159 4863 
L 1159 2969 
z
" transform="scale(0.015625)"/>
      <path id="DejaVuSans-63" d="M 3122 3366 
L 3122 2828 
Q 2878 2963 2633 3030 
Q 2388 3097 2138 3097 
Q 1578 3097 1268 2742 
Q 959 2388 959 1747 
Q 959 1106 1268 751 
Q 1578 397 2138 397 
Q 2388 397 2633 464 
Q 2878 531 3122 666 
L 3122 134 
Q 2881 22 2623 -34 
Q 2366 -91 2075 -91 
Q 1284 -91 818 406 
Q 353 903 353 1747 
Q 353 2603 823 3093 
Q 1294 3584 2113 3584 
Q 2378 3584 2631 3529 
Q 2884 3475 3122 3366 
z
" transform="scale(0.015625)"/>
      <path id="DejaVuSans-72" d="M 2631 2963 
Q 2534 3019 2420 3045 
Q 2306 3072 2169 3072 
Q 1681 3072 1420 2755 
Q 1159 2438 1159 1844 
L 1159 0 
L 581 0 
L 581 3500 
L 1159 3500 
L 1159 2956 
Q 1341 3275 1631 3429 
Q 1922 3584 2338 3584 
Q 2397 3584 2469 3576 
Q 2541 3569 2628 3553 
L 2631 2963 
z
" transform="scale(0.015625)"/>
      <path id="DejaVuSans-69" d="M 603 3500 
L 1178 3500 
L 1178 0 
L 603 0 
L 603 3500 
z
M 603 4863 
L 1178 4863 
L 1178 4134 
L 603 4134 
L 603 4863 
z
" transform="scale(0.015625)"/>
      <path id="DejaVuSans-20" transform="scale(0.015625)"/>
      <path id="DejaVuSans-68" d="M 3513 2113 
L 3513 0 
L 2938 0 
L 2938 2094 
Q 2938 2591 2744 2837 
Q 2550 3084 2163 3084 
Q 1697 3084 1428 2787 
Q 1159 2491 1159 1978 
L 1159 0 
L 581 0 
L 581 4863 
L 1159 4863 
L 1159 2956 
Q 1366 3272 1645 3428 
Q 1925 3584 2291 3584 
Q 2894 3584 3203 3211 
Q 3513 2838 3513 2113 
z
" transform="scale(0.015625)"/>
      <path id="DejaVuSans-6f" d="M 1959 3097 
Q 1497 3097 1228 2736 
Q 959 2375 959 1747 
Q 959 1119 1226 758 
Q 1494 397 1959 397 
Q 2419 397 2687 759 
Q 2956 1122 2956 1747 
Q 2956 2369 2687 2733 
Q 2419 3097 1959 3097 
z
M 1959 3584 
Q 2709 3584 3137 3096 
Q 3566 2609 3566 1747 
Q 3566 888 3137 398 
Q 2709 -91 1959 -91 
Q 1206 -91 779 398 
Q 353 888 353 1747 
Q 353 2609 779 3096 
Q 1206 3584 1959 3584 
z
" transform="scale(0.015625)"/>
      <path id="DejaVuSans-79" d="M 2059 -325 
Q 1816 -950 1584 -1140 
Q 1353 -1331 966 -1331 
L 506 -1331 
L 506 -850 
L 844 -850 
Q 1081 -850 1212 -737 
Q 1344 -625 1503 -206 
L 1606 56 
L 191 3500 
L 800 3500 
L 1894 763 
L 2988 3500 
L 3597 3500 
L 2059 -325 
z
" transform="scale(0.015625)"/>
     </defs>
     <use xlink:href="#DejaVuSans-67"/>
     <use xlink:href="#DejaVuSans-65" transform="translate(63.476562 0)"/>
     <use xlink:href="#DejaVuSans-74" transform="translate(125 0)"/>
     <use xlink:href="#DejaVuSans-5f" transform="translate(164.208984 0)"/>
     <use xlink:href="#DejaVuSans-73" transform="translate(214.208984 0)"/>
     <use xlink:href="#DejaVuSans-75" transform="translate(266.308594 0)"/>
     <use xlink:href="#DejaVuSans-62" transform="translate(329.6875 0)"/>
     <use xlink:href="#DejaVuSans-73" transform="translate(393.164062 0)"/>
     <use xlink:href="#DejaVuSans-63" transform="translate(445.263672 0)"/>
     <use xlink:href="#DejaVuSans-72" transform="translate(500.244141 0)"/>
     <use xlink:href="#DejaVuSans-69" transform="translate(541.357422 0)"/>
     <use xlink:href="#DejaVuSans-62" transform="translate(569.140625 0)"/>
     <use xlink:href="#DejaVuSans-65" transform="translate(632.617188 0)"/>
     <use xlink:href="#DejaVuSans-20" transform="translate(694.140625 0)"/>
     <use xlink:href="#DejaVuSans-68" transform="translate(725.927734 0)"/>
     <use xlink:href="#DejaVuSans-69" transform="translate(789.306641 0)"/>
     <use xlink:href="#DejaVuSans-73" transform="translate(817.089844 0)"/>
     <use xlink:href="#DejaVuSans-74" transform="translate(869.189453 0)"/>
     <use xlink:href="#DejaVuSans-6f" transform="translate(908.398438 0)"/>
     <use xlink:href="#DejaVuSans-72" transform="translate(969.580078 0)"/>
     <use xlink:href="#DejaVuSans-79" transform="translate(1010.693359 0)"/>
    </g>
   </g>
   <g id="legend_1">
    <g id="line2d_35">
     <path d="M 815.08 328.498438 
L 825.08 328.498438 
L 835.08 328.498438 
" style="fill: none; stroke: #1f77b4; stroke-width: 1.5; stroke-linecap: square"/>
    </g>
    <g id="text_18">
     <!-- star -->
     <g style="fill: #a9a9a9" transform="translate(843.08 331.998438) scale(0.1 -0.1)">
      <defs>
       <path id="DejaVuSans-61" d="M 2194 1759 
Q 1497 1759 1228 1600 
Q 959 1441 959 1056 
Q 959 750 1161 570 
Q 1363 391 1709 391 
Q 2188 391 2477 730 
Q 2766 1069 2766 1631 
L 2766 1759 
L 2194 1759 
z
M 3341 1997 
L 3341 0 
L 2766 0 
L 2766 531 
Q 2569 213 2275 61 
Q 1981 -91 1556 -91 
Q 1019 -91 701 211 
Q 384 513 384 1019 
Q 384 1609 779 1909 
Q 1175 2209 1959 2209 
L 2766 2209 
L 2766 2266 
Q 2766 2663 2505 2880 
Q 2244 3097 1772 3097 
Q 1472 3097 1187 3025 
Q 903 2953 641 2809 
L 641 3341 
Q 956 3463 1253 3523 
Q 1550 3584 1831 3584 
Q 2591 3584 2966 3190 
Q 3341 2797 3341 1997 
z
" transform="scale(0.015625)"/>
      </defs>
      <use xlink:href="#DejaVuSans-73"/>
      <use xlink:href="#DejaVuSans-74" transform="translate(52.099609 0)"/>
      <use xlink:href="#DejaVuSans-61" transform="translate(91.308594 0)"/>
      <use xlink:href="#DejaVuSans-72" transform="translate(152.587891 0)"/>
     </g>
    </g>
    <g id="line2d_36">
     <path d="M 815.08 343.176562 
L 825.08 343.176562 
L 835.08 343.176562 
" style="fill: none; stroke: #ff7f0e; stroke-width: 1.5; stroke-linecap: square"/>
    </g>
    <g id="text_19">
     <!-- fork -->
     <g style="fill: #a9a9a9" transform="translate(843.08 346.676562) scale(0.1 -0.1)">
      <defs>
       <path id="DejaVuSans-66" d="M 2375 4863 
L 2375 4384 
L 1825 4384 
Q 1516 4384 1395 4259 
Q 1275 4134 1275 3809 
L 1275 3500 
L 2222 3500 
L 2222 3053 
L 1275 3053 
L 1275 0 
L 697 0 
L 697 3053 
L 147 3053 
L 147 3500 
L 697 3500 
L 697 3744 
Q 697 4328 969 4595 
Q 1241 4863 1831 4863 
L 2375 4863 
z
" transform="scale(0.015625)"/>
       <path id="DejaVuSans-6b" d="M 581 4863 
L 1159 4863 
L 1159 1991 
L 2875 3500 
L 3609 3500 
L 1753 1863 
L 3688 0 
L 2938 0 
L 1159 1709 
L 1159 0 
L 581 0 
L 581 4863 
z
" transform="scale(0.015625)"/>
      </defs>
      <use xlink:href="#DejaVuSans-66"/>
      <use xlink:href="#DejaVuSans-6f" transform="translate(35.205078 0)"/>
      <use xlink:href="#DejaVuSans-72" transform="translate(96.386719 0)"/>
      <use xlink:href="#DejaVuSans-6b" transform="translate(137.5 0)"/>
     </g>
    </g>
   </g>
  </g>
 </g>
 <defs>
  <clipPath id="p15a4434aae">
   <rect x="108" y="43.2" width="669.6" height="277.2"/>
  </clipPath>
 </defs>
</svg>
