<?xml version="1.0" encoding="utf-8" standalone="no"?>
<!DOCTYPE svg PUBLIC "-//W3C//DTD SVG 1.1//EN"
  "http://www.w3.org/Graphics/SVG/1.1/DTD/svg11.dtd">
<svg xmlns:xlink="http://www.w3.org/1999/xlink" width="864pt" height="360pt" viewBox="0 0 864 360" xmlns="http://www.w3.org/2000/svg" version="1.1">
 <metadata>
  <rdf:RDF xmlns:dc="http://purl.org/dc/elements/1.1/" xmlns:cc="http://creativecommons.org/ns#" xmlns:rdf="http://www.w3.org/1999/02/22-rdf-syntax-ns#">
   <cc:Work>
    <dc:type rdf:resource="http://purl.org/dc/dcmitype/StillImage"/>
    <dc:date>2025-04-12T20:05:58.196610</dc:date>
    <dc:format>image/svg+xml</dc:format>
    <dc:creator>
     <cc:Agent>
      <dc:title>Matplotlib v3.10.1, https://matplotlib.org/</dc:title>
     </cc:Agent>
    </dc:creator>
   </cc:Work>
  </rdf:RDF>
 </metadata>
 <defs>
  <style type="text/css">*{stroke-linejoin: round; stroke-linecap: butt}</style>
 </defs>
 <g id="figure_1">
  <g id="patch_1">
   <path d="M 0 360 
L 864 360 
L 864 0 
L 0 0 
L 0 360 
z
" style="fill: none; opacity: 0"/>
  </g>
  <g id="axes_1">
   <g id="patch_2">
    <path d="M 108 320.4 
L 777.6 320.4 
L 777.6 43.2 
L 108 43.2 
L 108 320.4 
z
" style="fill: none; opacity: 0"/>
   </g>
   <g id="matplotlib.axis_1">
    <g id="xtick_1">
     <g id="line2d_1">
      <path d="M 128.12655 320.4 
L 128.12655 43.2 
" clip-path="url(#p6615d87a79)" style="fill: none; stroke-dasharray: 5.12,1.28,0.8,1.28; stroke-dashoffset: 0; stroke: #b0b0b0; stroke-width: 0.8"/>
     </g>
     <g id="line2d_2">
      <defs>
       <path id="m9fd15e30ab" d="M 0 0 
L 0 3.5 
" style="stroke: #a9a9a9; stroke-width: 0.8"/>
      </defs>
      <g>
       <use xlink:href="#m9fd15e30ab" x="128.12655" y="320.4" style="fill: #a9a9a9; stroke: #a9a9a9; stroke-width: 0.8"/>
      </g>
     </g>
     <g id="text_1">
      <!-- 2021-07 -->
      <g style="fill: #a9a9a9" transform="translate(107.235143 334.998438) scale(0.1 -0.1)">
       <defs>
        <path id="DejaVuSans-32" d="M 1228 531 
L 3431 531 
L 3431 0 
L 469 0 
L 469 531 
Q 828 903 1448 1529 
Q 2069 2156 2228 2338 
Q 2531 2678 2651 2914 
Q 2772 3150 2772 3378 
Q 2772 3750 2511 3984 
Q 2250 4219 1831 4219 
Q 1534 4219 1204 4116 
Q 875 4013 500 3803 
L 500 4441 
Q 881 4594 1212 4672 
Q 1544 4750 1819 4750 
Q 2544 4750 2975 4387 
Q 3406 4025 3406 3419 
Q 3406 3131 3298 2873 
Q 3191 2616 2906 2266 
Q 2828 2175 2409 1742 
Q 1991 1309 1228 531 
z
" transform="scale(0.015625)"/>
        <path id="DejaVuSans-30" d="M 2034 4250 
Q 1547 4250 1301 3770 
Q 1056 3291 1056 2328 
Q 1056 1369 1301 889 
Q 1547 409 2034 409 
Q 2525 409 2770 889 
Q 3016 1369 3016 2328 
Q 3016 3291 2770 3770 
Q 2525 4250 2034 4250 
z
M 2034 4750 
Q 2819 4750 3233 4129 
Q 3647 3509 3647 2328 
Q 3647 1150 3233 529 
Q 2819 -91 2034 -91 
Q 1250 -91 836 529 
Q 422 1150 422 2328 
Q 422 3509 836 4129 
Q 1250 4750 2034 4750 
z
" transform="scale(0.015625)"/>
        <path id="DejaVuSans-31" d="M 794 531 
L 1825 531 
L 1825 4091 
L 703 3866 
L 703 4441 
L 1819 4666 
L 2450 4666 
L 2450 531 
L 3481 531 
L 3481 0 
L 794 0 
L 794 531 
z
" transform="scale(0.015625)"/>
        <path id="DejaVuSans-2d" d="M 313 2009 
L 1997 2009 
L 1997 1497 
L 313 1497 
L 313 2009 
z
" transform="scale(0.015625)"/>
        <path id="DejaVuSans-37" d="M 525 4666 
L 3525 4666 
L 3525 4397 
L 1831 0 
L 1172 0 
L 2766 4134 
L 525 4134 
L 525 4666 
z
" transform="scale(0.015625)"/>
       </defs>
       <use xlink:href="#DejaVuSans-32"/>
       <use xlink:href="#DejaVuSans-30" transform="translate(63.623047 0)"/>
       <use xlink:href="#DejaVuSans-32" transform="translate(127.246094 0)"/>
       <use xlink:href="#DejaVuSans-31" transform="translate(190.869141 0)"/>
       <use xlink:href="#DejaVuSans-2d" transform="translate(254.492188 0)"/>
       <use xlink:href="#DejaVuSans-30" transform="translate(290.576172 0)"/>
       <use xlink:href="#DejaVuSans-37" transform="translate(354.199219 0)"/>
      </g>
     </g>
    </g>
    <g id="xtick_2">
     <g id="line2d_3">
      <path d="M 210.605061 320.4 
L 210.605061 43.2 
" clip-path="url(#p6615d87a79)" style="fill: none; stroke-dasharray: 5.12,1.28,0.8,1.28; stroke-dashoffset: 0; stroke: #b0b0b0; stroke-width: 0.8"/>
     </g>
     <g id="line2d_4">
      <g>
       <use xlink:href="#m9fd15e30ab" x="210.605061" y="320.4" style="fill: #a9a9a9; stroke: #a9a9a9; stroke-width: 0.8"/>
      </g>
     </g>
     <g id="text_2">
      <!-- 2022-01 -->
      <g style="fill: #a9a9a9" transform="translate(189.713655 334.998438) scale(0.1 -0.1)">
       <use xlink:href="#DejaVuSans-32"/>
       <use xlink:href="#DejaVuSans-30" transform="translate(63.623047 0)"/>
       <use xlink:href="#DejaVuSans-32" transform="translate(127.246094 0)"/>
       <use xlink:href="#DejaVuSans-32" transform="translate(190.869141 0)"/>
       <use xlink:href="#DejaVuSans-2d" transform="translate(254.492188 0)"/>
       <use xlink:href="#DejaVuSans-30" transform="translate(290.576172 0)"/>
       <use xlink:href="#DejaVuSans-31" transform="translate(354.199219 0)"/>
      </g>
     </g>
    </g>
    <g id="xtick_3">
     <g id="line2d_5">
      <path d="M 291.738814 320.4 
L 291.738814 43.2 
" clip-path="url(#p6615d87a79)" style="fill: none; stroke-dasharray: 5.12,1.28,0.8,1.28; stroke-dashoffset: 0; stroke: #b0b0b0; stroke-width: 0.8"/>
     </g>
     <g id="line2d_6">
      <g>
       <use xlink:href="#m9fd15e30ab" x="291.738814" y="320.4" style="fill: #a9a9a9; stroke: #a9a9a9; stroke-width: 0.8"/>
      </g>
     </g>
     <g id="text_3">
      <!-- 2022-07 -->
      <g style="fill: #a9a9a9" transform="translate(270.847408 334.998438) scale(0.1 -0.1)">
       <use xlink:href="#DejaVuSans-32"/>
       <use xlink:href="#DejaVuSans-30" transform="translate(63.623047 0)"/>
       <use xlink:href="#DejaVuSans-32" transform="translate(127.246094 0)"/>
       <use xlink:href="#DejaVuSans-32" transform="translate(190.869141 0)"/>
       <use xlink:href="#DejaVuSans-2d" transform="translate(254.492188 0)"/>
       <use xlink:href="#DejaVuSans-30" transform="translate(290.576172 0)"/>
       <use xlink:href="#DejaVuSans-37" transform="translate(354.199219 0)"/>
      </g>
     </g>
    </g>
    <g id="xtick_4">
     <g id="line2d_7">
      <path d="M 374.217325 320.4 
L 374.217325 43.2 
" clip-path="url(#p6615d87a79)" style="fill: none; stroke-dasharray: 5.12,1.28,0.8,1.28; stroke-dashoffset: 0; stroke: #b0b0b0; stroke-width: 0.8"/>
     </g>
     <g id="line2d_8">
      <g>
       <use xlink:href="#m9fd15e30ab" x="374.217325" y="320.4" style="fill: #a9a9a9; stroke: #a9a9a9; stroke-width: 0.8"/>
      </g>
     </g>
     <g id="text_4">
      <!-- 2023-01 -->
      <g style="fill: #a9a9a9" transform="translate(353.325919 334.998438) scale(0.1 -0.1)">
       <defs>
        <path id="DejaVuSans-33" d="M 2597 2516 
Q 3050 2419 3304 2112 
Q 3559 1806 3559 1356 
Q 3559 666 3084 287 
Q 2609 -91 1734 -91 
Q 1441 -91 1130 -33 
Q 819 25 488 141 
L 488 750 
Q 750 597 1062 519 
Q 1375 441 1716 441 
Q 2309 441 2620 675 
Q 2931 909 2931 1356 
Q 2931 1769 2642 2001 
Q 2353 2234 1838 2234 
L 1294 2234 
L 1294 2753 
L 1863 2753 
Q 2328 2753 2575 2939 
Q 2822 3125 2822 3475 
Q 2822 3834 2567 4026 
Q 2313 4219 1838 4219 
Q 1578 4219 1281 4162 
Q 984 4106 628 3988 
L 628 4550 
Q 988 4650 1302 4700 
Q 1616 4750 1894 4750 
Q 2613 4750 3031 4423 
Q 3450 4097 3450 3541 
Q 3450 3153 3228 2886 
Q 3006 2619 2597 2516 
z
" transform="scale(0.015625)"/>
       </defs>
       <use xlink:href="#DejaVuSans-32"/>
       <use xlink:href="#DejaVuSans-30" transform="translate(63.623047 0)"/>
       <use xlink:href="#DejaVuSans-32" transform="translate(127.246094 0)"/>
       <use xlink:href="#DejaVuSans-33" transform="translate(190.869141 0)"/>
       <use xlink:href="#DejaVuSans-2d" transform="translate(254.492188 0)"/>
       <use xlink:href="#DejaVuSans-30" transform="translate(290.576172 0)"/>
       <use xlink:href="#DejaVuSans-31" transform="translate(354.199219 0)"/>
      </g>
     </g>
    </g>
    <g id="xtick_5">
     <g id="line2d_9">
      <path d="M 455.351078 320.4 
L 455.351078 43.2 
" clip-path="url(#p6615d87a79)" style="fill: none; stroke-dasharray: 5.12,1.28,0.8,1.28; stroke-dashoffset: 0; stroke: #b0b0b0; stroke-width: 0.8"/>
     </g>
     <g id="line2d_10">
      <g>
       <use xlink:href="#m9fd15e30ab" x="455.351078" y="320.4" style="fill: #a9a9a9; stroke: #a9a9a9; stroke-width: 0.8"/>
      </g>
     </g>
     <g id="text_5">
      <!-- 2023-07 -->
      <g style="fill: #a9a9a9" transform="translate(434.459672 334.998438) scale(0.1 -0.1)">
       <use xlink:href="#DejaVuSans-32"/>
       <use xlink:href="#DejaVuSans-30" transform="translate(63.623047 0)"/>
       <use xlink:href="#DejaVuSans-32" transform="translate(127.246094 0)"/>
       <use xlink:href="#DejaVuSans-33" transform="translate(190.869141 0)"/>
       <use xlink:href="#DejaVuSans-2d" transform="translate(254.492188 0)"/>
       <use xlink:href="#DejaVuSans-30" transform="translate(290.576172 0)"/>
       <use xlink:href="#DejaVuSans-37" transform="translate(354.199219 0)"/>
      </g>
     </g>
    </g>
    <g id="xtick_6">
     <g id="line2d_11">
      <path d="M 537.829589 320.4 
L 537.829589 43.2 
" clip-path="url(#p6615d87a79)" style="fill: none; stroke-dasharray: 5.12,1.28,0.8,1.28; stroke-dashoffset: 0; stroke: #b0b0b0; stroke-width: 0.8"/>
     </g>
     <g id="line2d_12">
      <g>
       <use xlink:href="#m9fd15e30ab" x="537.829589" y="320.4" style="fill: #a9a9a9; stroke: #a9a9a9; stroke-width: 0.8"/>
      </g>
     </g>
     <g id="text_6">
      <!-- 2024-01 -->
      <g style="fill: #a9a9a9" transform="translate(516.938183 334.998438) scale(0.1 -0.1)">
       <defs>
        <path id="DejaVuSans-34" d="M 2419 4116 
L 825 1625 
L 2419 1625 
L 2419 4116 
z
M 2253 4666 
L 3047 4666 
L 3047 1625 
L 3713 1625 
L 3713 1100 
L 3047 1100 
L 3047 0 
L 2419 0 
L 2419 1100 
L 313 1100 
L 313 1709 
L 2253 4666 
z
" transform="scale(0.015625)"/>
       </defs>
       <use xlink:href="#DejaVuSans-32"/>
       <use xlink:href="#DejaVuSans-30" transform="translate(63.623047 0)"/>
       <use xlink:href="#DejaVuSans-32" transform="translate(127.246094 0)"/>
       <use xlink:href="#DejaVuSans-34" transform="translate(190.869141 0)"/>
       <use xlink:href="#DejaVuSans-2d" transform="translate(254.492188 0)"/>
       <use xlink:href="#DejaVuSans-30" transform="translate(290.576172 0)"/>
       <use xlink:href="#DejaVuSans-31" transform="translate(354.199219 0)"/>
      </g>
     </g>
    </g>
    <g id="xtick_7">
     <g id="line2d_13">
      <path d="M 619.411595 320.4 
L 619.411595 43.2 
" clip-path="url(#p6615d87a79)" style="fill: none; stroke-dasharray: 5.12,1.28,0.8,1.28; stroke-dashoffset: 0; stroke: #b0b0b0; stroke-width: 0.8"/>
     </g>
     <g id="line2d_14">
      <g>
       <use xlink:href="#m9fd15e30ab" x="619.411595" y="320.4" style="fill: #a9a9a9; stroke: #a9a9a9; stroke-width: 0.8"/>
      </g>
     </g>
     <g id="text_7">
      <!-- 2024-07 -->
      <g style="fill: #a9a9a9" transform="translate(598.520188 334.998438) scale(0.1 -0.1)">
       <use xlink:href="#DejaVuSans-32"/>
       <use xlink:href="#DejaVuSans-30" transform="translate(63.623047 0)"/>
       <use xlink:href="#DejaVuSans-32" transform="translate(127.246094 0)"/>
       <use xlink:href="#DejaVuSans-34" transform="translate(190.869141 0)"/>
       <use xlink:href="#DejaVuSans-2d" transform="translate(254.492188 0)"/>
       <use xlink:href="#DejaVuSans-30" transform="translate(290.576172 0)"/>
       <use xlink:href="#DejaVuSans-37" transform="translate(354.199219 0)"/>
      </g>
     </g>
    </g>
    <g id="xtick_8">
     <g id="line2d_15">
      <path d="M 701.890106 320.4 
L 701.890106 43.2 
" clip-path="url(#p6615d87a79)" style="fill: none; stroke-dasharray: 5.12,1.28,0.8,1.28; stroke-dashoffset: 0; stroke: #b0b0b0; stroke-width: 0.8"/>
     </g>
     <g id="line2d_16">
      <g>
       <use xlink:href="#m9fd15e30ab" x="701.890106" y="320.4" style="fill: #a9a9a9; stroke: #a9a9a9; stroke-width: 0.8"/>
      </g>
     </g>
     <g id="text_8">
      <!-- 2025-01 -->
      <g style="fill: #a9a9a9" transform="translate(680.9987 334.998438) scale(0.1 -0.1)">
       <defs>
        <path id="DejaVuSans-35" d="M 691 4666 
L 3169 4666 
L 3169 4134 
L 1269 4134 
L 1269 2991 
Q 1406 3038 1543 3061 
Q 1681 3084 1819 3084 
Q 2600 3084 3056 2656 
Q 3513 2228 3513 1497 
Q 3513 744 3044 326 
Q 2575 -91 1722 -91 
Q 1428 -91 1123 -41 
Q 819 9 494 109 
L 494 744 
Q 775 591 1075 516 
Q 1375 441 1709 441 
Q 2250 441 2565 725 
Q 2881 1009 2881 1497 
Q 2881 1984 2565 2268 
Q 2250 2553 1709 2553 
Q 1456 2553 1204 2497 
Q 953 2441 691 2322 
L 691 4666 
z
" transform="scale(0.015625)"/>
       </defs>
       <use xlink:href="#DejaVuSans-32"/>
       <use xlink:href="#DejaVuSans-30" transform="translate(63.623047 0)"/>
       <use xlink:href="#DejaVuSans-32" transform="translate(127.246094 0)"/>
       <use xlink:href="#DejaVuSans-35" transform="translate(190.869141 0)"/>
       <use xlink:href="#DejaVuSans-2d" transform="translate(254.492188 0)"/>
       <use xlink:href="#DejaVuSans-30" transform="translate(290.576172 0)"/>
       <use xlink:href="#DejaVuSans-31" transform="translate(354.199219 0)"/>
      </g>
     </g>
    </g>
   </g>
   <g id="matplotlib.axis_2">
    <g id="ytick_1">
     <g id="line2d_17">
      <path d="M 108 307.833515 
L 777.6 307.833515 
" clip-path="url(#p6615d87a79)" style="fill: none; stroke-dasharray: 5.12,1.28,0.8,1.28; stroke-dashoffset: 0; stroke: #b0b0b0; stroke-width: 0.8"/>
     </g>
     <g id="line2d_18">
      <defs>
       <path id="m6409fefbc5" d="M 0 0 
L -3.5 0 
" style="stroke: #a9a9a9; stroke-width: 0.8"/>
      </defs>
      <g>
       <use xlink:href="#m6409fefbc5" x="108" y="307.833515" style="fill: #a9a9a9; stroke: #a9a9a9; stroke-width: 0.8"/>
      </g>
     </g>
     <g id="text_9">
      <!-- 0 -->
      <g style="fill: #a9a9a9" transform="translate(94.6375 311.632734) scale(0.1 -0.1)">
       <use xlink:href="#DejaVuSans-30"/>
      </g>
     </g>
    </g>
    <g id="ytick_2">
     <g id="line2d_19">
      <path d="M 108 274.31842 
L 777.6 274.31842 
" clip-path="url(#p6615d87a79)" style="fill: none; stroke-dasharray: 5.12,1.28,0.8,1.28; stroke-dashoffset: 0; stroke: #b0b0b0; stroke-width: 0.8"/>
     </g>
     <g id="line2d_20">
      <g>
       <use xlink:href="#m6409fefbc5" x="108" y="274.31842" style="fill: #a9a9a9; stroke: #a9a9a9; stroke-width: 0.8"/>
      </g>
     </g>
     <g id="text_10">
      <!-- 1000 -->
      <g style="fill: #a9a9a9" transform="translate(75.55 278.117639) scale(0.1 -0.1)">
       <use xlink:href="#DejaVuSans-31"/>
       <use xlink:href="#DejaVuSans-30" transform="translate(63.623047 0)"/>
       <use xlink:href="#DejaVuSans-30" transform="translate(127.246094 0)"/>
       <use xlink:href="#DejaVuSans-30" transform="translate(190.869141 0)"/>
      </g>
     </g>
    </g>
    <g id="ytick_3">
     <g id="line2d_21">
      <path d="M 108 240.803325 
L 777.6 240.803325 
" clip-path="url(#p6615d87a79)" style="fill: none; stroke-dasharray: 5.12,1.28,0.8,1.28; stroke-dashoffset: 0; stroke: #b0b0b0; stroke-width: 0.8"/>
     </g>
     <g id="line2d_22">
      <g>
       <use xlink:href="#m6409fefbc5" x="108" y="240.803325" style="fill: #a9a9a9; stroke: #a9a9a9; stroke-width: 0.8"/>
      </g>
     </g>
     <g id="text_11">
      <!-- 2000 -->
      <g style="fill: #a9a9a9" transform="translate(75.55 244.602544) scale(0.1 -0.1)">
       <use xlink:href="#DejaVuSans-32"/>
       <use xlink:href="#DejaVuSans-30" transform="translate(63.623047 0)"/>
       <use xlink:href="#DejaVuSans-30" transform="translate(127.246094 0)"/>
       <use xlink:href="#DejaVuSans-30" transform="translate(190.869141 0)"/>
      </g>
     </g>
    </g>
    <g id="ytick_4">
     <g id="line2d_23">
      <path d="M 108 207.28823 
L 777.6 207.28823 
" clip-path="url(#p6615d87a79)" style="fill: none; stroke-dasharray: 5.12,1.28,0.8,1.28; stroke-dashoffset: 0; stroke: #b0b0b0; stroke-width: 0.8"/>
     </g>
     <g id="line2d_24">
      <g>
       <use xlink:href="#m6409fefbc5" x="108" y="207.28823" style="fill: #a9a9a9; stroke: #a9a9a9; stroke-width: 0.8"/>
      </g>
     </g>
     <g id="text_12">
      <!-- 3000 -->
      <g style="fill: #a9a9a9" transform="translate(75.55 211.087449) scale(0.1 -0.1)">
       <use xlink:href="#DejaVuSans-33"/>
       <use xlink:href="#DejaVuSans-30" transform="translate(63.623047 0)"/>
       <use xlink:href="#DejaVuSans-30" transform="translate(127.246094 0)"/>
       <use xlink:href="#DejaVuSans-30" transform="translate(190.869141 0)"/>
      </g>
     </g>
    </g>
    <g id="ytick_5">
     <g id="line2d_25">
      <path d="M 108 173.773135 
L 777.6 173.773135 
" clip-path="url(#p6615d87a79)" style="fill: none; stroke-dasharray: 5.12,1.28,0.8,1.28; stroke-dashoffset: 0; stroke: #b0b0b0; stroke-width: 0.8"/>
     </g>
     <g id="line2d_26">
      <g>
       <use xlink:href="#m6409fefbc5" x="108" y="173.773135" style="fill: #a9a9a9; stroke: #a9a9a9; stroke-width: 0.8"/>
      </g>
     </g>
     <g id="text_13">
      <!-- 4000 -->
      <g style="fill: #a9a9a9" transform="translate(75.55 177.572353) scale(0.1 -0.1)">
       <use xlink:href="#DejaVuSans-34"/>
       <use xlink:href="#DejaVuSans-30" transform="translate(63.623047 0)"/>
       <use xlink:href="#DejaVuSans-30" transform="translate(127.246094 0)"/>
       <use xlink:href="#DejaVuSans-30" transform="translate(190.869141 0)"/>
      </g>
     </g>
    </g>
    <g id="ytick_6">
     <g id="line2d_27">
      <path d="M 108 140.25804 
L 777.6 140.25804 
" clip-path="url(#p6615d87a79)" style="fill: none; stroke-dasharray: 5.12,1.28,0.8,1.28; stroke-dashoffset: 0; stroke: #b0b0b0; stroke-width: 0.8"/>
     </g>
     <g id="line2d_28">
      <g>
       <use xlink:href="#m6409fefbc5" x="108" y="140.25804" style="fill: #a9a9a9; stroke: #a9a9a9; stroke-width: 0.8"/>
      </g>
     </g>
     <g id="text_14">
      <!-- 5000 -->
      <g style="fill: #a9a9a9" transform="translate(75.55 144.057258) scale(0.1 -0.1)">
       <use xlink:href="#DejaVuSans-35"/>
       <use xlink:href="#DejaVuSans-30" transform="translate(63.623047 0)"/>
       <use xlink:href="#DejaVuSans-30" transform="translate(127.246094 0)"/>
       <use xlink:href="#DejaVuSans-30" transform="translate(190.869141 0)"/>
      </g>
     </g>
    </g>
    <g id="ytick_7">
     <g id="line2d_29">
      <path d="M 108 106.742945 
L 777.6 106.742945 
" clip-path="url(#p6615d87a79)" style="fill: none; stroke-dasharray: 5.12,1.28,0.8,1.28; stroke-dashoffset: 0; stroke: #b0b0b0; stroke-width: 0.8"/>
     </g>
     <g id="line2d_30">
      <g>
       <use xlink:href="#m6409fefbc5" x="108" y="106.742945" style="fill: #a9a9a9; stroke: #a9a9a9; stroke-width: 0.8"/>
      </g>
     </g>
     <g id="text_15">
      <!-- 6000 -->
      <g style="fill: #a9a9a9" transform="translate(75.55 110.542163) scale(0.1 -0.1)">
       <defs>
        <path id="DejaVuSans-36" d="M 2113 2584 
Q 1688 2584 1439 2293 
Q 1191 2003 1191 1497 
Q 1191 994 1439 701 
Q 1688 409 2113 409 
Q 2538 409 2786 701 
Q 3034 994 3034 1497 
Q 3034 2003 2786 2293 
Q 2538 2584 2113 2584 
z
M 3366 4563 
L 3366 3988 
Q 3128 4100 2886 4159 
Q 2644 4219 2406 4219 
Q 1781 4219 1451 3797 
Q 1122 3375 1075 2522 
Q 1259 2794 1537 2939 
Q 1816 3084 2150 3084 
Q 2853 3084 3261 2657 
Q 3669 2231 3669 1497 
Q 3669 778 3244 343 
Q 2819 -91 2113 -91 
Q 1303 -91 875 529 
Q 447 1150 447 2328 
Q 447 3434 972 4092 
Q 1497 4750 2381 4750 
Q 2619 4750 2861 4703 
Q 3103 4656 3366 4563 
z
" transform="scale(0.015625)"/>
       </defs>
       <use xlink:href="#DejaVuSans-36"/>
       <use xlink:href="#DejaVuSans-30" transform="translate(63.623047 0)"/>
       <use xlink:href="#DejaVuSans-30" transform="translate(127.246094 0)"/>
       <use xlink:href="#DejaVuSans-30" transform="translate(190.869141 0)"/>
      </g>
     </g>
    </g>
    <g id="ytick_8">
     <g id="line2d_31">
      <path d="M 108 73.227849 
L 777.6 73.227849 
" clip-path="url(#p6615d87a79)" style="fill: none; stroke-dasharray: 5.12,1.28,0.8,1.28; stroke-dashoffset: 0; stroke: #b0b0b0; stroke-width: 0.8"/>
     </g>
     <g id="line2d_32">
      <g>
       <use xlink:href="#m6409fefbc5" x="108" y="73.227849" style="fill: #a9a9a9; stroke: #a9a9a9; stroke-width: 0.8"/>
      </g>
     </g>
     <g id="text_16">
      <!-- 7000 -->
      <g style="fill: #a9a9a9" transform="translate(75.55 77.027068) scale(0.1 -0.1)">
       <use xlink:href="#DejaVuSans-37"/>
       <use xlink:href="#DejaVuSans-30" transform="translate(63.623047 0)"/>
       <use xlink:href="#DejaVuSans-30" transform="translate(127.246094 0)"/>
       <use xlink:href="#DejaVuSans-30" transform="translate(190.869141 0)"/>
      </g>
     </g>
    </g>
   </g>
   <g id="line2d_33">
    <path d="M 138.436364 307.73297 
L 141.12588 307.498364 
L 141.574133 307.297274 
L 143.367144 307.062668 
L 145.160155 306.694002 
L 146.056661 306.559941 
L 148.297925 306.358851 
L 149.19443 305.990185 
L 149.642683 305.386913 
L 150.090936 305.085277 
L 150.539189 304.079824 
L 150.987441 304.012794 
L 151.435694 303.644128 
L 152.3322 303.174917 
L 154.125211 301.700253 
L 155.918222 300.795345 
L 157.26298 300.158558 
L 157.711233 299.421226 
L 158.607739 298.750924 
L 159.055991 298.549834 
L 163.538519 297.879532 
L 163.986772 297.678441 
L 167.124541 297.410321 
L 168.917553 296.974624 
L 172.503575 296.471898 
L 172.951828 296.237292 
L 173.40008 296.170262 
L 174.296586 295.868626 
L 177.434355 295.332385 
L 178.330861 295.064264 
L 182.365136 294.360447 
L 183.261641 294.159356 
L 184.158147 294.125841 
L 185.951158 293.690145 
L 186.399411 293.053358 
L 187.744169 292.517117 
L 189.088928 292.148451 
L 189.53718 291.913845 
L 190.433686 291.746269 
L 192.226697 291.210028 
L 193.123203 291.142998 
L 194.019708 290.908392 
L 195.812719 290.439181 
L 196.260972 290.405666 
L 197.157478 289.969969 
L 197.60573 289.902939 
L 198.053983 289.668334 
L 202.984764 288.830456 
L 204.777775 288.294215 
L 205.226028 287.992579 
L 207.467291 287.255247 
L 208.363797 286.61846 
L 209.708555 286.350339 
L 219.570116 283.434526 
L 220.018369 283.401011 
L 221.363128 282.99883 
L 221.81138 282.99883 
L 222.259633 282.797739 
L 223.156139 282.697194 
L 223.604391 282.529618 
L 225.397403 282.462588 
L 226.293908 282.295013 
L 227.190414 281.825801 
L 228.535172 281.323075 
L 228.983425 281.021439 
L 229.87993 280.619258 
L 230.328183 280.384652 
L 231.224689 280.083016 
L 231.672941 279.948956 
L 232.569447 279.379199 
L 233.0177 278.876473 
L 233.914205 277.468839 
L 234.362458 277.334779 
L 234.810711 277.334779 
L 236.155469 276.530416 
L 236.603722 276.295811 
L 237.051975 276.195265 
L 237.500228 275.759569 
L 238.396733 275.390903 
L 239.293239 274.955207 
L 241.534503 272.039394 
L 244.224019 270.564729 
L 245.120525 269.827397 
L 245.568778 269.525761 
L 246.01703 268.888975 
L 246.465283 267.850007 
L 246.913536 267.14619 
L 247.361789 266.777524 
L 247.810042 266.576433 
L 251.396064 263.224924 
L 252.292569 262.387046 
L 254.982086 260.677776 
L 255.430339 260.510201 
L 256.775097 259.705839 
L 258.119855 258.800931 
L 259.912867 257.158691 
L 260.809372 256.790025 
L 261.705878 256.153238 
L 262.15413 255.885118 
L 262.602383 255.818088 
L 263.947142 255.04724 
L 264.395394 254.544514 
L 266.636658 253.304455 
L 267.084911 253.13688 
L 268.429669 252.198457 
L 275.153461 249.78537 
L 276.049967 248.947493 
L 277.394725 248.277191 
L 278.29123 247.707434 
L 279.187736 247.439314 
L 279.635989 247.137678 
L 280.084242 247.003618 
L 281.429 246.09871 
L 283.670264 245.595984 
L 285.015022 244.791621 
L 286.35978 244.489985 
L 286.808033 244.38944 
L 288.152792 243.350472 
L 289.945803 242.847746 
L 290.394055 242.47908 
L 293.083572 241.540657 
L 293.980078 241.373082 
L 294.876583 241.004415 
L 298.014353 239.831387 
L 298.910858 239.697327 
L 300.255617 239.228115 
L 302.49688 238.122117 
L 304.289892 237.116664 
L 307.875914 235.608485 
L 308.324167 235.541455 
L 309.220672 234.971698 
L 310.117178 234.737093 
L 311.461936 234.200851 
L 313.254947 233.966246 
L 314.151453 233.497034 
L 314.599705 233.094853 
L 315.047958 232.256976 
L 316.840969 231.754249 
L 318.185728 231.050432 
L 319.082233 230.748796 
L 319.978739 230.279585 
L 322.668255 229.173587 
L 323.564761 228.972496 
L 324.461267 228.503285 
L 324.909519 228.302194 
L 325.357772 228.235164 
L 327.599036 227.129166 
L 328.495542 226.559409 
L 329.8403 226.291289 
L 332.081564 225.721532 
L 332.529817 225.352866 
L 333.426322 225.05123 
L 335.667586 224.146323 
L 336.115839 223.811172 
L 336.564092 223.643596 
L 337.460597 223.14087 
L 339.253608 222.571113 
L 340.150114 222.001357 
L 340.598367 221.532145 
L 341.046619 221.264024 
L 341.494872 221.163479 
L 342.391378 220.426147 
L 342.83963 220.359117 
L 343.287883 219.621785 
L 343.736136 219.420694 
L 344.184389 219.052028 
L 344.632642 218.984998 
L 345.529147 218.415241 
L 346.425653 218.113606 
L 346.873905 217.778455 
L 347.322158 217.610879 
L 349.115169 216.404336 
L 350.459928 215.700519 
L 351.356433 215.465913 
L 352.252939 214.963187 
L 352.701192 214.192339 
L 353.597697 213.522038 
L 354.04595 213.421492 
L 356.735467 212.114404 
L 357.631972 211.745737 
L 358.97673 210.606224 
L 359.873236 209.835377 
L 360.769742 209.299136 
L 361.217994 208.796409 
L 361.666247 208.494773 
L 362.562753 207.757441 
L 363.011005 207.556351 
L 363.907511 206.651443 
L 364.804017 206.349807 
L 365.700522 205.746535 
L 367.04528 205.042718 
L 367.493533 204.975688 
L 368.838292 204.238356 
L 369.734797 203.6686 
L 374.217325 201.992845 
L 374.665578 201.624179 
L 376.458589 200.920362 
L 376.906842 200.786301 
L 377.803347 200.18303 
L 378.699853 199.814364 
L 379.596358 199.177577 
L 380.492864 197.367762 
L 381.389369 196.295279 
L 382.734128 195.591462 
L 383.630633 195.222796 
L 384.078886 195.155765 
L 384.527139 194.887645 
L 386.768403 194.150313 
L 387.216656 193.949222 
L 388.113161 193.34595 
L 389.457919 192.776194 
L 390.354425 192.273467 
L 391.250931 191.737226 
L 391.699183 191.43559 
L 392.147436 190.932863 
L 393.043942 190.430137 
L 395.285206 189.190078 
L 397.974722 187.849475 
L 399.319481 187.447294 
L 400.664239 186.911052 
L 401.112492 186.575901 
L 402.008997 186.30778 
L 402.905503 185.939114 
L 403.353756 185.570448 
L 405.146767 184.933661 
L 406.043272 184.296875 
L 406.939778 183.928209 
L 407.836283 183.224392 
L 408.732789 182.956271 
L 409.181042 182.55409 
L 409.629294 182.487059 
L 410.5258 181.783242 
L 411.422306 181.314031 
L 411.870558 181.112941 
L 412.318811 180.643729 
L 415.456581 179.370156 
L 416.353086 178.967974 
L 417.697844 178.532278 
L 418.59435 178.398218 
L 419.042603 178.197127 
L 419.490856 178.130097 
L 420.387361 177.727916 
L 420.835614 177.694401 
L 422.628625 177.024099 
L 423.973383 176.052161 
L 424.421636 175.884586 
L 425.318142 175.381859 
L 425.766394 175.247799 
L 428.455911 173.706105 
L 428.904164 173.605559 
L 430.248922 172.801197 
L 431.593681 172.331986 
L 432.490186 172.03035 
L 434.283197 171.427078 
L 435.179703 171.125442 
L 436.972714 170.756776 
L 437.420967 170.555686 
L 438.317472 170.32108 
L 438.765725 170.119989 
L 439.213978 170.052959 
L 439.662231 169.818354 
L 440.558736 169.650778 
L 441.903494 169.148052 
L 442.8 169.047506 
L 444.144758 168.74587 
L 446.386022 168.343689 
L 458.040594 164.858119 
L 458.488847 164.388908 
L 459.385353 164.020242 
L 462.971375 162.646123 
L 463.419628 162.378002 
L 464.764386 161.975821 
L 465.660892 161.741216 
L 466.109144 161.43958 
L 466.557397 161.339034 
L 467.00565 160.936853 
L 468.350408 160.668733 
L 469.246914 160.233036 
L 469.695167 159.696795 
L 471.488178 159.261099 
L 474.625947 158.590797 
L 475.0742 158.590797 
L 475.522453 158.389706 
L 477.315464 158.054555 
L 477.763717 157.853465 
L 479.556728 157.518314 
L 480.453233 157.149648 
L 481.349739 156.982072 
L 483.591003 156.412315 
L 485.384014 155.842559 
L 485.832267 155.742014 
L 486.280519 155.507408 
L 487.177025 155.272802 
L 488.073531 154.904136 
L 488.970036 154.568985 
L 489.418289 154.267349 
L 490.314794 153.999229 
L 493.900817 152.75917 
L 494.797322 152.69214 
L 496.590333 152.155898 
L 497.038586 151.887778 
L 497.935092 151.619657 
L 500.176356 150.580689 
L 500.624608 150.547174 
L 505.555389 148.770874 
L 507.796653 148.167602 
L 508.693158 147.731906 
L 510.037917 147.43027 
L 511.830928 145.955606 
L 513.623939 145.184759 
L 514.520445 144.782577 
L 517.209961 143.74361 
L 517.658214 143.441974 
L 519.899478 142.704642 
L 521.244236 141.933794 
L 521.692489 141.833249 
L 523.4855 140.827796 
L 525.278511 140.023434 
L 525.726764 139.688283 
L 526.62327 139.386647 
L 528.864533 138.247134 
L 530.209292 137.777923 
L 532.002303 137.040591 
L 533.347061 136.537864 
L 533.795314 136.370289 
L 534.69182 136.236228 
L 535.140072 135.934592 
L 536.933083 135.565926 
L 537.829589 135.19726 
L 539.6226 134.359383 
L 545.898139 131.611145 
L 547.242897 131.175449 
L 547.69115 130.873813 
L 548.587656 130.773268 
L 549.035908 130.471632 
L 549.932414 130.304056 
L 550.82892 129.86836 
L 551.277172 129.66727 
L 552.173678 129.432664 
L 553.070183 129.164543 
L 554.414942 128.661817 
L 555.7597 128.22612 
L 557.104458 127.924485 
L 558.89747 127.187153 
L 559.793975 126.684426 
L 561.586986 125.779519 
L 562.483492 125.578428 
L 562.931745 125.310307 
L 563.379997 125.209762 
L 564.724756 124.438915 
L 565.621261 124.070249 
L 567.414272 123.366432 
L 569.655536 122.595585 
L 570.552042 122.126373 
L 572.793306 121.355526 
L 575.482822 120.249528 
L 577.275833 119.41165 
L 581.758361 117.668866 
L 582.654867 117.233169 
L 583.10312 117.132624 
L 583.551372 116.898018 
L 585.344383 116.395292 
L 587.137395 114.920628 
L 587.585647 114.786567 
L 588.0339 114.518447 
L 589.378658 114.149781 
L 589.826911 113.81463 
L 590.275164 113.714084 
L 591.17167 113.144328 
L 592.516428 112.440511 
L 593.412933 112.071845 
L 593.861186 111.837239 
L 595.205945 111.535603 
L 597.447208 110.764756 
L 598.343714 110.46312 
L 599.688472 109.759303 
L 600.584978 109.323607 
L 601.481483 109.089001 
L 602.826242 108.452214 
L 606.860517 106.944035 
L 608.205275 106.106158 
L 608.653528 106.005612 
L 609.550033 105.569916 
L 610.446539 105.234765 
L 610.894792 104.832584 
L 611.791297 104.463918 
L 613.136056 103.994707 
L 613.584308 103.626041 
L 614.032561 103.592526 
L 614.929067 103.324405 
L 615.825572 103.022769 
L 616.273825 102.821678 
L 616.722078 102.754648 
L 618.066836 102.251922 
L 619.411595 101.749195 
L 621.204606 100.944833 
L 621.652858 100.877803 
L 625.238881 99.369624 
L 626.583639 98.933927 
L 627.480145 98.866897 
L 628.37665 98.498231 
L 631.066167 97.693869 
L 631.962672 97.660354 
L 635.548695 96.487325 
L 636.4452 96.018114 
L 636.893453 95.615933 
L 638.238211 94.811571 
L 638.686464 94.47642 
L 640.031222 94.040724 
L 640.927728 93.772603 
L 641.375981 93.537997 
L 641.824233 93.437452 
L 642.272486 93.068786 
L 644.962003 91.929273 
L 646.755014 91.460061 
L 647.65152 91.05788 
L 648.099772 90.823274 
L 648.996278 90.555154 
L 649.444531 90.287033 
L 650.341036 90.119457 
L 653.927059 88.577763 
L 654.375311 88.510733 
L 654.823564 88.209097 
L 655.271817 88.041521 
L 655.72007 87.63934 
L 656.168322 87.57231 
L 657.961334 86.868493 
L 659.754345 86.432797 
L 660.202597 86.365767 
L 660.65085 86.164676 
L 661.099103 86.131161 
L 661.995609 85.829525 
L 662.443861 85.79601 
L 663.78862 85.259769 
L 665.581631 84.723527 
L 666.478136 84.053225 
L 668.271147 83.047772 
L 669.615906 82.578561 
L 673.201928 80.869291 
L 673.650181 80.634685 
L 674.098434 80.198989 
L 676.339697 79.595718 
L 677.684456 78.992446 
L 678.580961 78.75784 
L 679.029214 78.523234 
L 679.477467 78.154568 
L 681.270478 77.685357 
L 681.718731 77.350206 
L 687.546017 75.238755 
L 688.442522 75.07118 
L 690.683786 74.367363 
L 691.580292 73.998697 
L 692.476797 73.663546 
L 693.373303 73.42894 
L 693.821556 73.227849 
L 694.269809 73.227849 
L 695.166314 72.859183 
L 696.06282 72.322942 
L 699.200589 71.283974 
L 700.9936 70.680702 
L 702.338359 70.379066 
L 703.683117 69.94337 
L 704.13137 69.842825 
L 704.579622 69.541189 
L 705.476128 69.340098 
L 714.441184 66.759436 
L 716.682447 66.357255 
L 717.578953 65.921559 
L 718.475459 65.485862 
L 719.820217 65.083681 
L 724.302745 63.441442 
L 724.750997 63.106291 
L 726.095756 62.804655 
L 726.992261 62.536534 
L 727.888767 62.100838 
L 728.33702 61.698657 
L 729.233525 61.397021 
L 729.681778 61.1289 
L 730.578284 61.028355 
L 733.716053 60.156962 
L 735.060811 59.888842 
L 737.750328 58.983934 
L 739.543339 58.112542 
L 744.922372 56.202181 
L 747.163636 55.8 
L 747.163636 55.8 
" clip-path="url(#p6615d87a79)" style="fill: none; stroke: #1f77b4; stroke-width: 1.5; stroke-linecap: square"/>
   </g>
   <g id="line2d_34">
    <path d="M 138.884616 307.8 
L 142.918891 307.699455 
L 146.504914 307.531879 
L 148.297925 307.531879 
L 148.746178 307.397819 
L 150.987441 307.297274 
L 153.676958 306.995638 
L 156.366475 306.895092 
L 157.26298 306.794547 
L 160.40075 306.660487 
L 163.538519 306.559941 
L 165.779783 306.492911 
L 171.607069 306.392366 
L 173.848333 306.325336 
L 177.882608 306.224791 
L 179.675619 306.191275 
L 184.158147 306.09073 
L 185.951158 305.923155 
L 187.744169 305.88964 
L 190.433686 305.789094 
L 192.226697 305.755579 
L 194.467961 305.688549 
L 196.260972 305.520974 
L 200.295247 305.420428 
L 201.191753 305.353398 
L 202.984764 305.252853 
L 205.67428 305.152307 
L 207.467291 305.051762 
L 215.535841 304.549036 
L 218.673611 304.44849 
L 220.018369 304.31443 
L 222.259633 304.213885 
L 226.742161 303.979279 
L 231.224689 303.912249 
L 233.0177 303.711158 
L 234.810711 303.610613 
L 239.741491 303.141402 
L 242.879261 302.772736 
L 244.224019 302.705706 
L 247.810042 302.236494 
L 250.499558 302.169464 
L 251.844317 302.035404 
L 253.189075 301.934858 
L 265.740153 300.962921 
L 266.636658 300.795345 
L 269.326175 300.6948 
L 276.498219 300.259104 
L 279.635989 300.158558 
L 281.429 299.957468 
L 283.670264 299.856922 
L 286.35978 299.756377 
L 288.601044 299.655832 
L 290.394055 299.622317 
L 292.635319 299.555287 
L 293.531825 299.421226 
L 299.807364 299.320681 
L 300.703869 299.220136 
L 306.082903 299.11959 
L 310.117178 298.9185 
L 313.254947 298.817955 
L 315.047958 298.616864 
L 318.185728 298.516319 
L 319.082233 298.348743 
L 321.323497 298.281713 
L 325.806025 298.214683 
L 327.599036 298.047107 
L 329.392047 298.013592 
L 330.736805 297.913047 
L 332.529817 297.745471 
L 337.012344 297.510866 
L 341.494872 297.410321 
L 345.529147 297.20923 
L 346.873905 297.175715 
L 347.770411 297.041654 
L 350.011675 296.941109 
L 350.90818 296.874079 
L 351.804686 296.807049 
L 352.701192 296.740019 
L 356.735467 296.672988 
L 358.080225 296.572443 
L 370.18305 295.768081 
L 372.424314 295.667536 
L 374.665578 295.600505 
L 380.941117 295.49996 
L 381.837622 295.3659 
L 388.113161 295.265354 
L 392.595689 295.030749 
L 393.492194 294.997234 
L 394.3887 294.896688 
L 396.629964 294.796143 
L 398.871228 294.729113 
L 401.112492 294.628568 
L 403.353756 294.561537 
L 407.388031 294.460992 
L 410.077547 294.360447 
L 416.353086 294.259902 
L 421.283867 293.991781 
L 423.076878 293.924751 
L 424.421636 293.824205 
L 430.697175 293.72366 
L 433.386692 293.623115 
L 441.455242 293.522569 
L 443.248253 293.489054 
L 448.627286 293.422024 
L 449.523792 293.354994 
L 455.799331 293.254449 
L 457.592342 293.220934 
L 469.246914 293.120388 
L 471.936431 293.019843 
L 490.763047 292.919298 
L 493.004311 292.852268 
L 504.658883 292.785237 
L 505.555389 292.718207 
L 507.796653 292.651177 
L 509.141411 292.517117 
L 511.830928 292.416571 
L 514.968697 292.282511 
L 519.002972 292.181966 
L 521.244236 292.114935 
L 524.382006 292.01439 
L 527.968028 291.846815 
L 530.209292 291.746269 
L 532.002303 291.712754 
L 536.036578 291.612209 
L 537.829589 291.578694 
L 543.656875 291.478149 
L 545.449886 291.444634 
L 547.69115 291.344088 
L 550.380667 291.243543 
L 553.518436 291.176513 
L 554.414942 291.109483 
L 565.173008 291.008937 
L 571.000295 290.673786 
L 573.241558 290.606756 
L 574.138064 290.506211 
L 575.03457 290.439181 
L 578.620592 290.338635 
L 581.310108 290.23809 
L 585.792636 290.137545 
L 588.0339 289.902939 
L 592.516428 289.802394 
L 593.412933 289.701849 
L 597.895461 289.601303 
L 600.136725 289.534273 
L 605.067506 289.500758 
L 605.964011 289.400213 
L 610.894792 289.299668 
L 611.791297 289.232637 
L 621.652858 289.132092 
L 624.342375 289.031547 
L 631.066167 288.931001 
L 632.859178 288.897486 
L 636.893453 288.830456 
L 637.789958 288.729911 
L 643.617245 288.629366 
L 645.858509 288.562335 
L 653.927059 288.46179 
L 655.271817 288.361245 
L 656.616575 288.2607 
L 657.961334 288.160154 
L 664.685125 288.059609 
L 667.374642 287.959064 
L 679.477467 287.858518 
L 683.511742 287.657428 
L 688.890775 287.556883 
L 689.787281 287.489852 
L 696.511072 287.422822 
L 697.407578 287.355792 
L 702.338359 287.255247 
L 704.13137 287.221732 
L 710.406909 287.121186 
L 713.096425 287.020641 
L 720.716722 286.920096 
L 722.509734 286.886581 
L 726.544009 286.786035 
L 730.130031 286.61846 
L 735.060811 286.517915 
L 738.198581 286.383854 
L 742.232856 286.283309 
L 743.129361 286.216279 
L 747.163636 286.149249 
L 747.163636 286.149249 
" clip-path="url(#p6615d87a79)" style="fill: none; stroke: #ff7f0e; stroke-width: 1.5; stroke-linecap: square"/>
   </g>
   <g id="patch_3">
    <path d="M 108 320.4 
L 108 43.2 
" style="fill: none; stroke: #a9a9a9; stroke-width: 0.8; stroke-linejoin: miter; stroke-linecap: square"/>
   </g>
   <g id="patch_4">
    <path d="M 777.6 320.4 
L 777.6 43.2 
" style="fill: none"/>
   </g>
   <g id="patch_5">
    <path d="M 108 320.4 
L 777.6 320.4 
" style="fill: none; stroke: #a9a9a9; stroke-width: 0.8; stroke-linejoin: miter; stroke-linecap: square"/>
   </g>
   <g id="patch_6">
    <path d="M 108 43.2 
L 777.6 43.2 
" style="fill: none"/>
   </g>
   <g id="text_17">
    <!-- get_subscribe history -->
    <g style="fill: #a9a9a9" transform="translate(378.6075 37.2) scale(0.12 -0.12)">
     <defs>
      <path id="DejaVuSans-67" d="M 2906 1791 
Q 2906 2416 2648 2759 
Q 2391 3103 1925 3103 
Q 1463 3103 1205 2759 
Q 947 2416 947 1791 
Q 947 1169 1205 825 
Q 1463 481 1925 481 
Q 2391 481 2648 825 
Q 2906 1169 2906 1791 
z
M 3481 434 
Q 3481 -459 3084 -895 
Q 2688 -1331 1869 -1331 
Q 1566 -1331 1297 -1286 
Q 1028 -1241 775 -1147 
L 775 -588 
Q 1028 -725 1275 -790 
Q 1522 -856 1778 -856 
Q 2344 -856 2625 -561 
Q 2906 -266 2906 331 
L 2906 616 
Q 2728 306 2450 153 
Q 2172 0 1784 0 
Q 1141 0 747 490 
Q 353 981 353 1791 
Q 353 2603 747 3093 
Q 1141 3584 1784 3584 
Q 2172 3584 2450 3431 
Q 2728 3278 2906 2969 
L 2906 3500 
L 3481 3500 
L 3481 434 
z
" transform="scale(0.015625)"/>
      <path id="DejaVuSans-65" d="M 3597 1894 
L 3597 1613 
L 953 1613 
Q 991 1019 1311 708 
Q 1631 397 2203 397 
Q 2534 397 2845 478 
Q 3156 559 3463 722 
L 3463 178 
Q 3153 47 2828 -22 
Q 2503 -91 2169 -91 
Q 1331 -91 842 396 
Q 353 884 353 1716 
Q 353 2575 817 3079 
Q 1281 3584 2069 3584 
Q 2775 3584 3186 3129 
Q 3597 2675 3597 1894 
z
M 3022 2063 
Q 3016 2534 2758 2815 
Q 2500 3097 2075 3097 
Q 1594 3097 1305 2825 
Q 1016 2553 972 2059 
L 3022 2063 
z
" transform="scale(0.015625)"/>
      <path id="DejaVuSans-74" d="M 1172 4494 
L 1172 3500 
L 2356 3500 
L 2356 3053 
L 1172 3053 
L 1172 1153 
Q 1172 725 1289 603 
Q 1406 481 1766 481 
L 2356 481 
L 2356 0 
L 1766 0 
Q 1100 0 847 248 
Q 594 497 594 1153 
L 594 3053 
L 172 3053 
L 172 3500 
L 594 3500 
L 594 4494 
L 1172 4494 
z
" transform="scale(0.015625)"/>
      <path id="DejaVuSans-5f" d="M 3263 -1063 
L 3263 -1509 
L -63 -1509 
L -63 -1063 
L 3263 -1063 
z
" transform="scale(0.015625)"/>
      <path id="DejaVuSans-73" d="M 2834 3397 
L 2834 2853 
Q 2591 2978 2328 3040 
Q 2066 3103 1784 3103 
Q 1356 3103 1142 2972 
Q 928 2841 928 2578 
Q 928 2378 1081 2264 
Q 1234 2150 1697 2047 
L 1894 2003 
Q 2506 1872 2764 1633 
Q 3022 1394 3022 966 
Q 3022 478 2636 193 
Q 2250 -91 1575 -91 
Q 1294 -91 989 -36 
Q 684 19 347 128 
L 347 722 
Q 666 556 975 473 
Q 1284 391 1588 391 
Q 1994 391 2212 530 
Q 2431 669 2431 922 
Q 2431 1156 2273 1281 
Q 2116 1406 1581 1522 
L 1381 1569 
Q 847 1681 609 1914 
Q 372 2147 372 2553 
Q 372 3047 722 3315 
Q 1072 3584 1716 3584 
Q 2034 3584 2315 3537 
Q 2597 3491 2834 3397 
z
" transform="scale(0.015625)"/>
      <path id="DejaVuSans-75" d="M 544 1381 
L 544 3500 
L 1119 3500 
L 1119 1403 
Q 1119 906 1312 657 
Q 1506 409 1894 409 
Q 2359 409 2629 706 
Q 2900 1003 2900 1516 
L 2900 3500 
L 3475 3500 
L 3475 0 
L 2900 0 
L 2900 538 
Q 2691 219 2414 64 
Q 2138 -91 1772 -91 
Q 1169 -91 856 284 
Q 544 659 544 1381 
z
M 1991 3584 
L 1991 3584 
z
" transform="scale(0.015625)"/>
      <path id="DejaVuSans-62" d="M 3116 1747 
Q 3116 2381 2855 2742 
Q 2594 3103 2138 3103 
Q 1681 3103 1420 2742 
Q 1159 2381 1159 1747 
Q 1159 1113 1420 752 
Q 1681 391 2138 391 
Q 2594 391 2855 752 
Q 3116 1113 3116 1747 
z
M 1159 2969 
Q 1341 3281 1617 3432 
Q 1894 3584 2278 3584 
Q 2916 3584 3314 3078 
Q 3713 2572 3713 1747 
Q 3713 922 3314 415 
Q 2916 -91 2278 -91 
Q 1894 -91 1617 61 
Q 1341 213 1159 525 
L 1159 0 
L 581 0 
L 581 4863 
L 1159 4863 
L 1159 2969 
z
" transform="scale(0.015625)"/>
      <path id="DejaVuSans-63" d="M 3122 3366 
L 3122 2828 
Q 2878 2963 2633 3030 
Q 2388 3097 2138 3097 
Q 1578 3097 1268 2742 
Q 959 2388 959 1747 
Q 959 1106 1268 751 
Q 1578 397 2138 397 
Q 2388 397 2633 464 
Q 2878 531 3122 666 
L 3122 134 
Q 2881 22 2623 -34 
Q 2366 -91 2075 -91 
Q 1284 -91 818 406 
Q 353 903 353 1747 
Q 353 2603 823 3093 
Q 1294 3584 2113 3584 
Q 2378 3584 2631 3529 
Q 2884 3475 3122 3366 
z
" transform="scale(0.015625)"/>
      <path id="DejaVuSans-72" d="M 2631 2963 
Q 2534 3019 2420 3045 
Q 2306 3072 2169 3072 
Q 1681 3072 1420 2755 
Q 1159 2438 1159 1844 
L 1159 0 
L 581 0 
L 581 3500 
L 1159 3500 
L 1159 2956 
Q 1341 3275 1631 3429 
Q 1922 3584 2338 3584 
Q 2397 3584 2469 3576 
Q 2541 3569 2628 3553 
L 2631 2963 
z
" transform="scale(0.015625)"/>
      <path id="DejaVuSans-69" d="M 603 3500 
L 1178 3500 
L 1178 0 
L 603 0 
L 603 3500 
z
M 603 4863 
L 1178 4863 
L 1178 4134 
L 603 4134 
L 603 4863 
z
" transform="scale(0.015625)"/>
      <path id="DejaVuSans-20" transform="scale(0.015625)"/>
      <path id="DejaVuSans-68" d="M 3513 2113 
L 3513 0 
L 2938 0 
L 2938 2094 
Q 2938 2591 2744 2837 
Q 2550 3084 2163 3084 
Q 1697 3084 1428 2787 
Q 1159 2491 1159 1978 
L 1159 0 
L 581 0 
L 581 4863 
L 1159 4863 
L 1159 2956 
Q 1366 3272 1645 3428 
Q 1925 3584 2291 3584 
Q 2894 3584 3203 3211 
Q 3513 2838 3513 2113 
z
" transform="scale(0.015625)"/>
      <path id="DejaVuSans-6f" d="M 1959 3097 
Q 1497 3097 1228 2736 
Q 959 2375 959 1747 
Q 959 1119 1226 758 
Q 1494 397 1959 397 
Q 2419 397 2687 759 
Q 2956 1122 2956 1747 
Q 2956 2369 2687 2733 
Q 2419 3097 1959 3097 
z
M 1959 3584 
Q 2709 3584 3137 3096 
Q 3566 2609 3566 1747 
Q 3566 888 3137 398 
Q 2709 -91 1959 -91 
Q 1206 -91 779 398 
Q 353 888 353 1747 
Q 353 2609 779 3096 
Q 1206 3584 1959 3584 
z
" transform="scale(0.015625)"/>
      <path id="DejaVuSans-79" d="M 2059 -325 
Q 1816 -950 1584 -1140 
Q 1353 -1331 966 -1331 
L 506 -1331 
L 506 -850 
L 844 -850 
Q 1081 -850 1212 -737 
Q 1344 -625 1503 -206 
L 1606 56 
L 191 3500 
L 800 3500 
L 1894 763 
L 2988 3500 
L 3597 3500 
L 2059 -325 
z
" transform="scale(0.015625)"/>
     </defs>
     <use xlink:href="#DejaVuSans-67"/>
     <use xlink:href="#DejaVuSans-65" transform="translate(63.476562 0)"/>
     <use xlink:href="#DejaVuSans-74" transform="translate(125 0)"/>
     <use xlink:href="#DejaVuSans-5f" transform="translate(164.208984 0)"/>
     <use xlink:href="#DejaVuSans-73" transform="translate(214.208984 0)"/>
     <use xlink:href="#DejaVuSans-75" transform="translate(266.308594 0)"/>
     <use xlink:href="#DejaVuSans-62" transform="translate(329.6875 0)"/>
     <use xlink:href="#DejaVuSans-73" transform="translate(393.164062 0)"/>
     <use xlink:href="#DejaVuSans-63" transform="translate(445.263672 0)"/>
     <use xlink:href="#DejaVuSans-72" transform="translate(500.244141 0)"/>
     <use xlink:href="#DejaVuSans-69" transform="translate(541.357422 0)"/>
     <use xlink:href="#DejaVuSans-62" transform="translate(569.140625 0)"/>
     <use xlink:href="#DejaVuSans-65" transform="translate(632.617188 0)"/>
     <use xlink:href="#DejaVuSans-20" transform="translate(694.140625 0)"/>
     <use xlink:href="#DejaVuSans-68" transform="translate(725.927734 0)"/>
     <use xlink:href="#DejaVuSans-69" transform="translate(789.306641 0)"/>
     <use xlink:href="#DejaVuSans-73" transform="translate(817.089844 0)"/>
     <use xlink:href="#DejaVuSans-74" transform="translate(869.189453 0)"/>
     <use xlink:href="#DejaVuSans-6f" transform="translate(908.398438 0)"/>
     <use xlink:href="#DejaVuSans-72" transform="translate(969.580078 0)"/>
     <use xlink:href="#DejaVuSans-79" transform="translate(1010.693359 0)"/>
    </g>
   </g>
   <g id="legend_1">
    <g id="line2d_35">
     <path d="M 815.08 328.498438 
L 825.08 328.498438 
L 835.08 328.498438 
" style="fill: none; stroke: #1f77b4; stroke-width: 1.5; stroke-linecap: square"/>
    </g>
    <g id="text_18">
     <!-- star -->
     <g style="fill: #a9a9a9" transform="translate(843.08 331.998438) scale(0.1 -0.1)">
      <defs>
       <path id="DejaVuSans-61" d="M 2194 1759 
Q 1497 1759 1228 1600 
Q 959 1441 959 1056 
Q 959 750 1161 570 
Q 1363 391 1709 391 
Q 2188 391 2477 730 
Q 2766 1069 2766 1631 
L 2766 1759 
L 2194 1759 
z
M 3341 1997 
L 3341 0 
L 2766 0 
L 2766 531 
Q 2569 213 2275 61 
Q 1981 -91 1556 -91 
Q 1019 -91 701 211 
Q 384 513 384 1019 
Q 384 1609 779 1909 
Q 1175 2209 1959 2209 
L 2766 2209 
L 2766 2266 
Q 2766 2663 2505 2880 
Q 2244 3097 1772 3097 
Q 1472 3097 1187 3025 
Q 903 2953 641 2809 
L 641 3341 
Q 956 3463 1253 3523 
Q 1550 3584 1831 3584 
Q 2591 3584 2966 3190 
Q 3341 2797 3341 1997 
z
" transform="scale(0.015625)"/>
      </defs>
      <use xlink:href="#DejaVuSans-73"/>
      <use xlink:href="#DejaVuSans-74" transform="translate(52.099609 0)"/>
      <use xlink:href="#DejaVuSans-61" transform="translate(91.308594 0)"/>
      <use xlink:href="#DejaVuSans-72" transform="translate(152.587891 0)"/>
     </g>
    </g>
    <g id="line2d_36">
     <path d="M 815.08 343.176562 
L 825.08 343.176562 
L 835.08 343.176562 
" style="fill: none; stroke: #ff7f0e; stroke-width: 1.5; stroke-linecap: square"/>
    </g>
    <g id="text_19">
     <!-- fork -->
     <g style="fill: #a9a9a9" transform="translate(843.08 346.676562) scale(0.1 -0.1)">
      <defs>
       <path id="DejaVuSans-66" d="M 2375 4863 
L 2375 4384 
L 1825 4384 
Q 1516 4384 1395 4259 
Q 1275 4134 1275 3809 
L 1275 3500 
L 2222 3500 
L 2222 3053 
L 1275 3053 
L 1275 0 
L 697 0 
L 697 3053 
L 147 3053 
L 147 3500 
L 697 3500 
L 697 3744 
Q 697 4328 969 4595 
Q 1241 4863 1831 4863 
L 2375 4863 
z
" transform="scale(0.015625)"/>
       <path id="DejaVuSans-6b" d="M 581 4863 
L 1159 4863 
L 1159 1991 
L 2875 3500 
L 3609 3500 
L 1753 1863 
L 3688 0 
L 2938 0 
L 1159 1709 
L 1159 0 
L 581 0 
L 581 4863 
z
" transform="scale(0.015625)"/>
      </defs>
      <use xlink:href="#DejaVuSans-66"/>
      <use xlink:href="#DejaVuSans-6f" transform="translate(35.205078 0)"/>
      <use xlink:href="#DejaVuSans-72" transform="translate(96.386719 0)"/>
      <use xlink:href="#DejaVuSans-6b" transform="translate(137.5 0)"/>
     </g>
    </g>
   </g>
  </g>
 </g>
 <defs>
  <clipPath id="p6615d87a79">
   <rect x="108" y="43.2" width="669.6" height="277.2"/>
  </clipPath>
 </defs>
</svg>
