<?xml version="1.0" encoding="utf-8" standalone="no"?>
<!DOCTYPE svg PUBLIC "-//W3C//DTD SVG 1.1//EN"
  "http://www.w3.org/Graphics/SVG/1.1/DTD/svg11.dtd">
<svg xmlns:xlink="http://www.w3.org/1999/xlink" width="864pt" height="360pt" viewBox="0 0 864 360" xmlns="http://www.w3.org/2000/svg" version="1.1">
 <metadata>
  <rdf:RDF xmlns:dc="http://purl.org/dc/elements/1.1/" xmlns:cc="http://creativecommons.org/ns#" xmlns:rdf="http://www.w3.org/1999/02/22-rdf-syntax-ns#">
   <cc:Work>
    <dc:type rdf:resource="http://purl.org/dc/dcmitype/StillImage"/>
    <dc:date>2024-09-19T20:05:47.717657</dc:date>
    <dc:format>image/svg+xml</dc:format>
    <dc:creator>
     <cc:Agent>
      <dc:title>Matplotlib v3.9.2, https://matplotlib.org/</dc:title>
     </cc:Agent>
    </dc:creator>
   </cc:Work>
  </rdf:RDF>
 </metadata>
 <defs>
  <style type="text/css">*{stroke-linejoin: round; stroke-linecap: butt}</style>
 </defs>
 <g id="figure_1">
  <g id="patch_1">
   <path d="M 0 360 
L 864 360 
L 864 0 
L 0 0 
L 0 360 
z
" style="fill: none; opacity: 0"/>
  </g>
  <g id="axes_1">
   <g id="patch_2">
    <path d="M 108 320.4 
L 777.6 320.4 
L 777.6 43.2 
L 108 43.2 
L 108 320.4 
z
" style="fill: none; opacity: 0"/>
   </g>
   <g id="matplotlib.axis_1">
    <g id="xtick_1">
     <g id="line2d_1">
      <path d="M 159.026445 320.4 
L 159.026445 43.2 
" clip-path="url(#p6c28b1e344)" style="fill: none; stroke-dasharray: 5.12,1.28,0.8,1.28; stroke-dashoffset: 0; stroke: #b0b0b0; stroke-width: 0.8"/>
     </g>
     <g id="line2d_2">
      <defs>
       <path id="mecd0e2a25f" d="M 0 0 
L 0 3.5 
" style="stroke: #a9a9a9; stroke-width: 0.8"/>
      </defs>
      <g>
       <use xlink:href="#mecd0e2a25f" x="159.026445" y="320.4" style="fill: #a9a9a9; stroke: #a9a9a9; stroke-width: 0.8"/>
      </g>
     </g>
     <g id="text_1">
      <!-- 2021-09 -->
      <g style="fill: #a9a9a9" transform="translate(138.135039 334.998438) scale(0.1 -0.1)">
       <defs>
        <path id="DejaVuSans-32" d="M 1228 531 
L 3431 531 
L 3431 0 
L 469 0 
L 469 531 
Q 828 903 1448 1529 
Q 2069 2156 2228 2338 
Q 2531 2678 2651 2914 
Q 2772 3150 2772 3378 
Q 2772 3750 2511 3984 
Q 2250 4219 1831 4219 
Q 1534 4219 1204 4116 
Q 875 4013 500 3803 
L 500 4441 
Q 881 4594 1212 4672 
Q 1544 4750 1819 4750 
Q 2544 4750 2975 4387 
Q 3406 4025 3406 3419 
Q 3406 3131 3298 2873 
Q 3191 2616 2906 2266 
Q 2828 2175 2409 1742 
Q 1991 1309 1228 531 
z
" transform="scale(0.015625)"/>
        <path id="DejaVuSans-30" d="M 2034 4250 
Q 1547 4250 1301 3770 
Q 1056 3291 1056 2328 
Q 1056 1369 1301 889 
Q 1547 409 2034 409 
Q 2525 409 2770 889 
Q 3016 1369 3016 2328 
Q 3016 3291 2770 3770 
Q 2525 4250 2034 4250 
z
M 2034 4750 
Q 2819 4750 3233 4129 
Q 3647 3509 3647 2328 
Q 3647 1150 3233 529 
Q 2819 -91 2034 -91 
Q 1250 -91 836 529 
Q 422 1150 422 2328 
Q 422 3509 836 4129 
Q 1250 4750 2034 4750 
z
" transform="scale(0.015625)"/>
        <path id="DejaVuSans-31" d="M 794 531 
L 1825 531 
L 1825 4091 
L 703 3866 
L 703 4441 
L 1819 4666 
L 2450 4666 
L 2450 531 
L 3481 531 
L 3481 0 
L 794 0 
L 794 531 
z
" transform="scale(0.015625)"/>
        <path id="DejaVuSans-2d" d="M 313 2009 
L 1997 2009 
L 1997 1497 
L 313 1497 
L 313 2009 
z
" transform="scale(0.015625)"/>
        <path id="DejaVuSans-39" d="M 703 97 
L 703 672 
Q 941 559 1184 500 
Q 1428 441 1663 441 
Q 2288 441 2617 861 
Q 2947 1281 2994 2138 
Q 2813 1869 2534 1725 
Q 2256 1581 1919 1581 
Q 1219 1581 811 2004 
Q 403 2428 403 3163 
Q 403 3881 828 4315 
Q 1253 4750 1959 4750 
Q 2769 4750 3195 4129 
Q 3622 3509 3622 2328 
Q 3622 1225 3098 567 
Q 2575 -91 1691 -91 
Q 1453 -91 1209 -44 
Q 966 3 703 97 
z
M 1959 2075 
Q 2384 2075 2632 2365 
Q 2881 2656 2881 3163 
Q 2881 3666 2632 3958 
Q 2384 4250 1959 4250 
Q 1534 4250 1286 3958 
Q 1038 3666 1038 3163 
Q 1038 2656 1286 2365 
Q 1534 2075 1959 2075 
z
" transform="scale(0.015625)"/>
       </defs>
       <use xlink:href="#DejaVuSans-32"/>
       <use xlink:href="#DejaVuSans-30" x="63.623047"/>
       <use xlink:href="#DejaVuSans-32" x="127.246094"/>
       <use xlink:href="#DejaVuSans-31" x="190.869141"/>
       <use xlink:href="#DejaVuSans-2d" x="254.492188"/>
       <use xlink:href="#DejaVuSans-30" x="290.576172"/>
       <use xlink:href="#DejaVuSans-39" x="354.199219"/>
      </g>
     </g>
    </g>
    <g id="xtick_2">
     <g id="line2d_3">
      <path d="M 223.436442 320.4 
L 223.436442 43.2 
" clip-path="url(#p6c28b1e344)" style="fill: none; stroke-dasharray: 5.12,1.28,0.8,1.28; stroke-dashoffset: 0; stroke: #b0b0b0; stroke-width: 0.8"/>
     </g>
     <g id="line2d_4">
      <g>
       <use xlink:href="#mecd0e2a25f" x="223.436442" y="320.4" style="fill: #a9a9a9; stroke: #a9a9a9; stroke-width: 0.8"/>
      </g>
     </g>
     <g id="text_2">
      <!-- 2022-01 -->
      <g style="fill: #a9a9a9" transform="translate(202.545036 334.998438) scale(0.1 -0.1)">
       <use xlink:href="#DejaVuSans-32"/>
       <use xlink:href="#DejaVuSans-30" x="63.623047"/>
       <use xlink:href="#DejaVuSans-32" x="127.246094"/>
       <use xlink:href="#DejaVuSans-32" x="190.869141"/>
       <use xlink:href="#DejaVuSans-2d" x="254.492188"/>
       <use xlink:href="#DejaVuSans-30" x="290.576172"/>
       <use xlink:href="#DejaVuSans-31" x="354.199219"/>
      </g>
     </g>
    </g>
    <g id="xtick_3">
     <g id="line2d_5">
      <path d="M 286.790539 320.4 
L 286.790539 43.2 
" clip-path="url(#p6c28b1e344)" style="fill: none; stroke-dasharray: 5.12,1.28,0.8,1.28; stroke-dashoffset: 0; stroke: #b0b0b0; stroke-width: 0.8"/>
     </g>
     <g id="line2d_6">
      <g>
       <use xlink:href="#mecd0e2a25f" x="286.790539" y="320.4" style="fill: #a9a9a9; stroke: #a9a9a9; stroke-width: 0.8"/>
      </g>
     </g>
     <g id="text_3">
      <!-- 2022-05 -->
      <g style="fill: #a9a9a9" transform="translate(265.899132 334.998438) scale(0.1 -0.1)">
       <defs>
        <path id="DejaVuSans-35" d="M 691 4666 
L 3169 4666 
L 3169 4134 
L 1269 4134 
L 1269 2991 
Q 1406 3038 1543 3061 
Q 1681 3084 1819 3084 
Q 2600 3084 3056 2656 
Q 3513 2228 3513 1497 
Q 3513 744 3044 326 
Q 2575 -91 1722 -91 
Q 1428 -91 1123 -41 
Q 819 9 494 109 
L 494 744 
Q 775 591 1075 516 
Q 1375 441 1709 441 
Q 2250 441 2565 725 
Q 2881 1009 2881 1497 
Q 2881 1984 2565 2268 
Q 2250 2553 1709 2553 
Q 1456 2553 1204 2497 
Q 953 2441 691 2322 
L 691 4666 
z
" transform="scale(0.015625)"/>
       </defs>
       <use xlink:href="#DejaVuSans-32"/>
       <use xlink:href="#DejaVuSans-30" x="63.623047"/>
       <use xlink:href="#DejaVuSans-32" x="127.246094"/>
       <use xlink:href="#DejaVuSans-32" x="190.869141"/>
       <use xlink:href="#DejaVuSans-2d" x="254.492188"/>
       <use xlink:href="#DejaVuSans-30" x="290.576172"/>
       <use xlink:href="#DejaVuSans-35" x="354.199219"/>
      </g>
     </g>
    </g>
    <g id="xtick_4">
     <g id="line2d_7">
      <path d="M 351.728487 320.4 
L 351.728487 43.2 
" clip-path="url(#p6c28b1e344)" style="fill: none; stroke-dasharray: 5.12,1.28,0.8,1.28; stroke-dashoffset: 0; stroke: #b0b0b0; stroke-width: 0.8"/>
     </g>
     <g id="line2d_8">
      <g>
       <use xlink:href="#mecd0e2a25f" x="351.728487" y="320.4" style="fill: #a9a9a9; stroke: #a9a9a9; stroke-width: 0.8"/>
      </g>
     </g>
     <g id="text_4">
      <!-- 2022-09 -->
      <g style="fill: #a9a9a9" transform="translate(330.837081 334.998438) scale(0.1 -0.1)">
       <use xlink:href="#DejaVuSans-32"/>
       <use xlink:href="#DejaVuSans-30" x="63.623047"/>
       <use xlink:href="#DejaVuSans-32" x="127.246094"/>
       <use xlink:href="#DejaVuSans-32" x="190.869141"/>
       <use xlink:href="#DejaVuSans-2d" x="254.492188"/>
       <use xlink:href="#DejaVuSans-30" x="290.576172"/>
       <use xlink:href="#DejaVuSans-39" x="354.199219"/>
      </g>
     </g>
    </g>
    <g id="xtick_5">
     <g id="line2d_9">
      <path d="M 416.138485 320.4 
L 416.138485 43.2 
" clip-path="url(#p6c28b1e344)" style="fill: none; stroke-dasharray: 5.12,1.28,0.8,1.28; stroke-dashoffset: 0; stroke: #b0b0b0; stroke-width: 0.8"/>
     </g>
     <g id="line2d_10">
      <g>
       <use xlink:href="#mecd0e2a25f" x="416.138485" y="320.4" style="fill: #a9a9a9; stroke: #a9a9a9; stroke-width: 0.8"/>
      </g>
     </g>
     <g id="text_5">
      <!-- 2023-01 -->
      <g style="fill: #a9a9a9" transform="translate(395.247078 334.998438) scale(0.1 -0.1)">
       <defs>
        <path id="DejaVuSans-33" d="M 2597 2516 
Q 3050 2419 3304 2112 
Q 3559 1806 3559 1356 
Q 3559 666 3084 287 
Q 2609 -91 1734 -91 
Q 1441 -91 1130 -33 
Q 819 25 488 141 
L 488 750 
Q 750 597 1062 519 
Q 1375 441 1716 441 
Q 2309 441 2620 675 
Q 2931 909 2931 1356 
Q 2931 1769 2642 2001 
Q 2353 2234 1838 2234 
L 1294 2234 
L 1294 2753 
L 1863 2753 
Q 2328 2753 2575 2939 
Q 2822 3125 2822 3475 
Q 2822 3834 2567 4026 
Q 2313 4219 1838 4219 
Q 1578 4219 1281 4162 
Q 984 4106 628 3988 
L 628 4550 
Q 988 4650 1302 4700 
Q 1616 4750 1894 4750 
Q 2613 4750 3031 4423 
Q 3450 4097 3450 3541 
Q 3450 3153 3228 2886 
Q 3006 2619 2597 2516 
z
" transform="scale(0.015625)"/>
       </defs>
       <use xlink:href="#DejaVuSans-32"/>
       <use xlink:href="#DejaVuSans-30" x="63.623047"/>
       <use xlink:href="#DejaVuSans-32" x="127.246094"/>
       <use xlink:href="#DejaVuSans-33" x="190.869141"/>
       <use xlink:href="#DejaVuSans-2d" x="254.492188"/>
       <use xlink:href="#DejaVuSans-30" x="290.576172"/>
       <use xlink:href="#DejaVuSans-31" x="354.199219"/>
      </g>
     </g>
    </g>
    <g id="xtick_6">
     <g id="line2d_11">
      <path d="M 479.492581 320.4 
L 479.492581 43.2 
" clip-path="url(#p6c28b1e344)" style="fill: none; stroke-dasharray: 5.12,1.28,0.8,1.28; stroke-dashoffset: 0; stroke: #b0b0b0; stroke-width: 0.8"/>
     </g>
     <g id="line2d_12">
      <g>
       <use xlink:href="#mecd0e2a25f" x="479.492581" y="320.4" style="fill: #a9a9a9; stroke: #a9a9a9; stroke-width: 0.8"/>
      </g>
     </g>
     <g id="text_6">
      <!-- 2023-05 -->
      <g style="fill: #a9a9a9" transform="translate(458.601174 334.998438) scale(0.1 -0.1)">
       <use xlink:href="#DejaVuSans-32"/>
       <use xlink:href="#DejaVuSans-30" x="63.623047"/>
       <use xlink:href="#DejaVuSans-32" x="127.246094"/>
       <use xlink:href="#DejaVuSans-33" x="190.869141"/>
       <use xlink:href="#DejaVuSans-2d" x="254.492188"/>
       <use xlink:href="#DejaVuSans-30" x="290.576172"/>
       <use xlink:href="#DejaVuSans-35" x="354.199219"/>
      </g>
     </g>
    </g>
    <g id="xtick_7">
     <g id="line2d_13">
      <path d="M 544.430529 320.4 
L 544.430529 43.2 
" clip-path="url(#p6c28b1e344)" style="fill: none; stroke-dasharray: 5.12,1.28,0.8,1.28; stroke-dashoffset: 0; stroke: #b0b0b0; stroke-width: 0.8"/>
     </g>
     <g id="line2d_14">
      <g>
       <use xlink:href="#mecd0e2a25f" x="544.430529" y="320.4" style="fill: #a9a9a9; stroke: #a9a9a9; stroke-width: 0.8"/>
      </g>
     </g>
     <g id="text_7">
      <!-- 2023-09 -->
      <g style="fill: #a9a9a9" transform="translate(523.539123 334.998438) scale(0.1 -0.1)">
       <use xlink:href="#DejaVuSans-32"/>
       <use xlink:href="#DejaVuSans-30" x="63.623047"/>
       <use xlink:href="#DejaVuSans-32" x="127.246094"/>
       <use xlink:href="#DejaVuSans-33" x="190.869141"/>
       <use xlink:href="#DejaVuSans-2d" x="254.492188"/>
       <use xlink:href="#DejaVuSans-30" x="290.576172"/>
       <use xlink:href="#DejaVuSans-39" x="354.199219"/>
      </g>
     </g>
    </g>
    <g id="xtick_8">
     <g id="line2d_15">
      <path d="M 608.840527 320.4 
L 608.840527 43.2 
" clip-path="url(#p6c28b1e344)" style="fill: none; stroke-dasharray: 5.12,1.28,0.8,1.28; stroke-dashoffset: 0; stroke: #b0b0b0; stroke-width: 0.8"/>
     </g>
     <g id="line2d_16">
      <g>
       <use xlink:href="#mecd0e2a25f" x="608.840527" y="320.4" style="fill: #a9a9a9; stroke: #a9a9a9; stroke-width: 0.8"/>
      </g>
     </g>
     <g id="text_8">
      <!-- 2024-01 -->
      <g style="fill: #a9a9a9" transform="translate(587.94912 334.998438) scale(0.1 -0.1)">
       <defs>
        <path id="DejaVuSans-34" d="M 2419 4116 
L 825 1625 
L 2419 1625 
L 2419 4116 
z
M 2253 4666 
L 3047 4666 
L 3047 1625 
L 3713 1625 
L 3713 1100 
L 3047 1100 
L 3047 0 
L 2419 0 
L 2419 1100 
L 313 1100 
L 313 1709 
L 2253 4666 
z
" transform="scale(0.015625)"/>
       </defs>
       <use xlink:href="#DejaVuSans-32"/>
       <use xlink:href="#DejaVuSans-30" x="63.623047"/>
       <use xlink:href="#DejaVuSans-32" x="127.246094"/>
       <use xlink:href="#DejaVuSans-34" x="190.869141"/>
       <use xlink:href="#DejaVuSans-2d" x="254.492188"/>
       <use xlink:href="#DejaVuSans-30" x="290.576172"/>
       <use xlink:href="#DejaVuSans-31" x="354.199219"/>
      </g>
     </g>
    </g>
    <g id="xtick_9">
     <g id="line2d_17">
      <path d="M 672.722574 320.4 
L 672.722574 43.2 
" clip-path="url(#p6c28b1e344)" style="fill: none; stroke-dasharray: 5.12,1.28,0.8,1.28; stroke-dashoffset: 0; stroke: #b0b0b0; stroke-width: 0.8"/>
     </g>
     <g id="line2d_18">
      <g>
       <use xlink:href="#mecd0e2a25f" x="672.722574" y="320.4" style="fill: #a9a9a9; stroke: #a9a9a9; stroke-width: 0.8"/>
      </g>
     </g>
     <g id="text_9">
      <!-- 2024-05 -->
      <g style="fill: #a9a9a9" transform="translate(651.831167 334.998438) scale(0.1 -0.1)">
       <use xlink:href="#DejaVuSans-32"/>
       <use xlink:href="#DejaVuSans-30" x="63.623047"/>
       <use xlink:href="#DejaVuSans-32" x="127.246094"/>
       <use xlink:href="#DejaVuSans-34" x="190.869141"/>
       <use xlink:href="#DejaVuSans-2d" x="254.492188"/>
       <use xlink:href="#DejaVuSans-30" x="290.576172"/>
       <use xlink:href="#DejaVuSans-35" x="354.199219"/>
      </g>
     </g>
    </g>
    <g id="xtick_10">
     <g id="line2d_19">
      <path d="M 737.660522 320.4 
L 737.660522 43.2 
" clip-path="url(#p6c28b1e344)" style="fill: none; stroke-dasharray: 5.12,1.28,0.8,1.28; stroke-dashoffset: 0; stroke: #b0b0b0; stroke-width: 0.8"/>
     </g>
     <g id="line2d_20">
      <g>
       <use xlink:href="#mecd0e2a25f" x="737.660522" y="320.4" style="fill: #a9a9a9; stroke: #a9a9a9; stroke-width: 0.8"/>
      </g>
     </g>
     <g id="text_10">
      <!-- 2024-09 -->
      <g style="fill: #a9a9a9" transform="translate(716.769116 334.998438) scale(0.1 -0.1)">
       <use xlink:href="#DejaVuSans-32"/>
       <use xlink:href="#DejaVuSans-30" x="63.623047"/>
       <use xlink:href="#DejaVuSans-32" x="127.246094"/>
       <use xlink:href="#DejaVuSans-34" x="190.869141"/>
       <use xlink:href="#DejaVuSans-2d" x="254.492188"/>
       <use xlink:href="#DejaVuSans-30" x="290.576172"/>
       <use xlink:href="#DejaVuSans-39" x="354.199219"/>
      </g>
     </g>
    </g>
   </g>
   <g id="matplotlib.axis_2">
    <g id="ytick_1">
     <g id="line2d_21">
      <path d="M 108 307.837623 
L 777.6 307.837623 
" clip-path="url(#p6c28b1e344)" style="fill: none; stroke-dasharray: 5.12,1.28,0.8,1.28; stroke-dashoffset: 0; stroke: #b0b0b0; stroke-width: 0.8"/>
     </g>
     <g id="line2d_22">
      <defs>
       <path id="m7c9e482b22" d="M 0 0 
L -3.5 0 
" style="stroke: #a9a9a9; stroke-width: 0.8"/>
      </defs>
      <g>
       <use xlink:href="#m7c9e482b22" x="108" y="307.837623" style="fill: #a9a9a9; stroke: #a9a9a9; stroke-width: 0.8"/>
      </g>
     </g>
     <g id="text_11">
      <!-- 0 -->
      <g style="fill: #a9a9a9" transform="translate(94.6375 311.636842) scale(0.1 -0.1)">
       <use xlink:href="#DejaVuSans-30"/>
      </g>
     </g>
    </g>
    <g id="ytick_2">
     <g id="line2d_23">
      <path d="M 108 277.739086 
L 777.6 277.739086 
" clip-path="url(#p6c28b1e344)" style="fill: none; stroke-dasharray: 5.12,1.28,0.8,1.28; stroke-dashoffset: 0; stroke: #b0b0b0; stroke-width: 0.8"/>
     </g>
     <g id="line2d_24">
      <g>
       <use xlink:href="#m7c9e482b22" x="108" y="277.739086" style="fill: #a9a9a9; stroke: #a9a9a9; stroke-width: 0.8"/>
      </g>
     </g>
     <g id="text_12">
      <!-- 800 -->
      <g style="fill: #a9a9a9" transform="translate(81.9125 281.538305) scale(0.1 -0.1)">
       <defs>
        <path id="DejaVuSans-38" d="M 2034 2216 
Q 1584 2216 1326 1975 
Q 1069 1734 1069 1313 
Q 1069 891 1326 650 
Q 1584 409 2034 409 
Q 2484 409 2743 651 
Q 3003 894 3003 1313 
Q 3003 1734 2745 1975 
Q 2488 2216 2034 2216 
z
M 1403 2484 
Q 997 2584 770 2862 
Q 544 3141 544 3541 
Q 544 4100 942 4425 
Q 1341 4750 2034 4750 
Q 2731 4750 3128 4425 
Q 3525 4100 3525 3541 
Q 3525 3141 3298 2862 
Q 3072 2584 2669 2484 
Q 3125 2378 3379 2068 
Q 3634 1759 3634 1313 
Q 3634 634 3220 271 
Q 2806 -91 2034 -91 
Q 1263 -91 848 271 
Q 434 634 434 1313 
Q 434 1759 690 2068 
Q 947 2378 1403 2484 
z
M 1172 3481 
Q 1172 3119 1398 2916 
Q 1625 2713 2034 2713 
Q 2441 2713 2670 2916 
Q 2900 3119 2900 3481 
Q 2900 3844 2670 4047 
Q 2441 4250 2034 4250 
Q 1625 4250 1398 4047 
Q 1172 3844 1172 3481 
z
" transform="scale(0.015625)"/>
       </defs>
       <use xlink:href="#DejaVuSans-38"/>
       <use xlink:href="#DejaVuSans-30" x="63.623047"/>
       <use xlink:href="#DejaVuSans-30" x="127.246094"/>
      </g>
     </g>
    </g>
    <g id="ytick_3">
     <g id="line2d_25">
      <path d="M 108 247.640549 
L 777.6 247.640549 
" clip-path="url(#p6c28b1e344)" style="fill: none; stroke-dasharray: 5.12,1.28,0.8,1.28; stroke-dashoffset: 0; stroke: #b0b0b0; stroke-width: 0.8"/>
     </g>
     <g id="line2d_26">
      <g>
       <use xlink:href="#m7c9e482b22" x="108" y="247.640549" style="fill: #a9a9a9; stroke: #a9a9a9; stroke-width: 0.8"/>
      </g>
     </g>
     <g id="text_13">
      <!-- 1600 -->
      <g style="fill: #a9a9a9" transform="translate(75.55 251.439768) scale(0.1 -0.1)">
       <defs>
        <path id="DejaVuSans-36" d="M 2113 2584 
Q 1688 2584 1439 2293 
Q 1191 2003 1191 1497 
Q 1191 994 1439 701 
Q 1688 409 2113 409 
Q 2538 409 2786 701 
Q 3034 994 3034 1497 
Q 3034 2003 2786 2293 
Q 2538 2584 2113 2584 
z
M 3366 4563 
L 3366 3988 
Q 3128 4100 2886 4159 
Q 2644 4219 2406 4219 
Q 1781 4219 1451 3797 
Q 1122 3375 1075 2522 
Q 1259 2794 1537 2939 
Q 1816 3084 2150 3084 
Q 2853 3084 3261 2657 
Q 3669 2231 3669 1497 
Q 3669 778 3244 343 
Q 2819 -91 2113 -91 
Q 1303 -91 875 529 
Q 447 1150 447 2328 
Q 447 3434 972 4092 
Q 1497 4750 2381 4750 
Q 2619 4750 2861 4703 
Q 3103 4656 3366 4563 
z
" transform="scale(0.015625)"/>
       </defs>
       <use xlink:href="#DejaVuSans-31"/>
       <use xlink:href="#DejaVuSans-36" x="63.623047"/>
       <use xlink:href="#DejaVuSans-30" x="127.246094"/>
       <use xlink:href="#DejaVuSans-30" x="190.869141"/>
      </g>
     </g>
    </g>
    <g id="ytick_4">
     <g id="line2d_27">
      <path d="M 108 217.542013 
L 777.6 217.542013 
" clip-path="url(#p6c28b1e344)" style="fill: none; stroke-dasharray: 5.12,1.28,0.8,1.28; stroke-dashoffset: 0; stroke: #b0b0b0; stroke-width: 0.8"/>
     </g>
     <g id="line2d_28">
      <g>
       <use xlink:href="#m7c9e482b22" x="108" y="217.542013" style="fill: #a9a9a9; stroke: #a9a9a9; stroke-width: 0.8"/>
      </g>
     </g>
     <g id="text_14">
      <!-- 2400 -->
      <g style="fill: #a9a9a9" transform="translate(75.55 221.341231) scale(0.1 -0.1)">
       <use xlink:href="#DejaVuSans-32"/>
       <use xlink:href="#DejaVuSans-34" x="63.623047"/>
       <use xlink:href="#DejaVuSans-30" x="127.246094"/>
       <use xlink:href="#DejaVuSans-30" x="190.869141"/>
      </g>
     </g>
    </g>
    <g id="ytick_5">
     <g id="line2d_29">
      <path d="M 108 187.443476 
L 777.6 187.443476 
" clip-path="url(#p6c28b1e344)" style="fill: none; stroke-dasharray: 5.12,1.28,0.8,1.28; stroke-dashoffset: 0; stroke: #b0b0b0; stroke-width: 0.8"/>
     </g>
     <g id="line2d_30">
      <g>
       <use xlink:href="#m7c9e482b22" x="108" y="187.443476" style="fill: #a9a9a9; stroke: #a9a9a9; stroke-width: 0.8"/>
      </g>
     </g>
     <g id="text_15">
      <!-- 3200 -->
      <g style="fill: #a9a9a9" transform="translate(75.55 191.242694) scale(0.1 -0.1)">
       <use xlink:href="#DejaVuSans-33"/>
       <use xlink:href="#DejaVuSans-32" x="63.623047"/>
       <use xlink:href="#DejaVuSans-30" x="127.246094"/>
       <use xlink:href="#DejaVuSans-30" x="190.869141"/>
      </g>
     </g>
    </g>
    <g id="ytick_6">
     <g id="line2d_31">
      <path d="M 108 157.344939 
L 777.6 157.344939 
" clip-path="url(#p6c28b1e344)" style="fill: none; stroke-dasharray: 5.12,1.28,0.8,1.28; stroke-dashoffset: 0; stroke: #b0b0b0; stroke-width: 0.8"/>
     </g>
     <g id="line2d_32">
      <g>
       <use xlink:href="#m7c9e482b22" x="108" y="157.344939" style="fill: #a9a9a9; stroke: #a9a9a9; stroke-width: 0.8"/>
      </g>
     </g>
     <g id="text_16">
      <!-- 4000 -->
      <g style="fill: #a9a9a9" transform="translate(75.55 161.144158) scale(0.1 -0.1)">
       <use xlink:href="#DejaVuSans-34"/>
       <use xlink:href="#DejaVuSans-30" x="63.623047"/>
       <use xlink:href="#DejaVuSans-30" x="127.246094"/>
       <use xlink:href="#DejaVuSans-30" x="190.869141"/>
      </g>
     </g>
    </g>
    <g id="ytick_7">
     <g id="line2d_33">
      <path d="M 108 127.246402 
L 777.6 127.246402 
" clip-path="url(#p6c28b1e344)" style="fill: none; stroke-dasharray: 5.12,1.28,0.8,1.28; stroke-dashoffset: 0; stroke: #b0b0b0; stroke-width: 0.8"/>
     </g>
     <g id="line2d_34">
      <g>
       <use xlink:href="#m7c9e482b22" x="108" y="127.246402" style="fill: #a9a9a9; stroke: #a9a9a9; stroke-width: 0.8"/>
      </g>
     </g>
     <g id="text_17">
      <!-- 4800 -->
      <g style="fill: #a9a9a9" transform="translate(75.55 131.045621) scale(0.1 -0.1)">
       <use xlink:href="#DejaVuSans-34"/>
       <use xlink:href="#DejaVuSans-38" x="63.623047"/>
       <use xlink:href="#DejaVuSans-30" x="127.246094"/>
       <use xlink:href="#DejaVuSans-30" x="190.869141"/>
      </g>
     </g>
    </g>
    <g id="ytick_8">
     <g id="line2d_35">
      <path d="M 108 97.147865 
L 777.6 97.147865 
" clip-path="url(#p6c28b1e344)" style="fill: none; stroke-dasharray: 5.12,1.28,0.8,1.28; stroke-dashoffset: 0; stroke: #b0b0b0; stroke-width: 0.8"/>
     </g>
     <g id="line2d_36">
      <g>
       <use xlink:href="#m7c9e482b22" x="108" y="97.147865" style="fill: #a9a9a9; stroke: #a9a9a9; stroke-width: 0.8"/>
      </g>
     </g>
     <g id="text_18">
      <!-- 5600 -->
      <g style="fill: #a9a9a9" transform="translate(75.55 100.947084) scale(0.1 -0.1)">
       <use xlink:href="#DejaVuSans-35"/>
       <use xlink:href="#DejaVuSans-36" x="63.623047"/>
       <use xlink:href="#DejaVuSans-30" x="127.246094"/>
       <use xlink:href="#DejaVuSans-30" x="190.869141"/>
      </g>
     </g>
    </g>
    <g id="ytick_9">
     <g id="line2d_37">
      <path d="M 108 67.049328 
L 777.6 67.049328 
" clip-path="url(#p6c28b1e344)" style="fill: none; stroke-dasharray: 5.12,1.28,0.8,1.28; stroke-dashoffset: 0; stroke: #b0b0b0; stroke-width: 0.8"/>
     </g>
     <g id="line2d_38">
      <g>
       <use xlink:href="#m7c9e482b22" x="108" y="67.049328" style="fill: #a9a9a9; stroke: #a9a9a9; stroke-width: 0.8"/>
      </g>
     </g>
     <g id="text_19">
      <!-- 6400 -->
      <g style="fill: #a9a9a9" transform="translate(75.55 70.848547) scale(0.1 -0.1)">
       <use xlink:href="#DejaVuSans-36"/>
       <use xlink:href="#DejaVuSans-34" x="63.623047"/>
       <use xlink:href="#DejaVuSans-30" x="127.246094"/>
       <use xlink:href="#DejaVuSans-30" x="190.869141"/>
      </g>
     </g>
    </g>
   </g>
   <g id="line2d_39">
    <path d="M 138.436364 307.724754 
L 141.604068 307.461391 
L 142.132019 307.235652 
L 143.715872 307.08516 
L 147.411527 306.407943 
L 150.051281 306.182204 
L 151.107183 305.768349 
L 151.635134 305.091132 
L 152.163084 304.7149 
L 152.691035 303.548582 
L 153.218986 303.473335 
L 153.746937 303.05948 
L 154.802838 302.532756 
L 156.914642 300.877337 
L 159.026445 299.861511 
L 160.610297 299.146671 
L 161.138248 298.318961 
L 162.19415 297.566497 
L 162.7221 297.340758 
L 168.001608 296.588295 
L 168.529559 296.362556 
L 172.225215 296.061571 
L 174.337018 295.572469 
L 178.560624 295.008122 
L 179.088575 294.707136 
L 179.616526 294.63189 
L 180.672428 294.293282 
L 184.368083 293.691311 
L 185.423985 293.390325 
L 187.007837 293.239833 
L 188.063739 293.126963 
L 190.703493 292.449746 
L 191.759394 292.3745 
L 192.815296 292.224007 
L 193.871198 291.998268 
L 194.399148 291.847775 
L 194.927099 291.132935 
L 196.510952 290.530964 
L 198.094804 290.11711 
L 198.622755 289.853747 
L 199.150706 289.816124 
L 201.79046 289.063661 
L 202.846361 288.988414 
L 203.374312 288.913168 
L 204.958164 288.424067 
L 207.069968 287.897342 
L 207.597918 287.671603 
L 208.125869 287.596357 
L 208.65382 287.332995 
L 213.933328 286.542908 
L 216.573082 285.790445 
L 217.101033 285.451836 
L 219.740787 284.586503 
L 220.796688 283.871663 
L 222.380541 283.570678 
L 232.411606 280.673694 
L 233.467508 280.259839 
L 234.523409 280.184592 
L 236.107262 279.733114 
L 236.635212 279.733114 
L 237.163163 279.507375 
L 238.219065 279.394506 
L 238.747016 279.20639 
L 239.802917 279.168767 
L 241.91472 278.905405 
L 242.970622 278.37868 
L 249.306032 275.556942 
L 249.833982 274.992595 
L 250.889884 273.412422 
L 251.417835 273.261929 
L 251.945786 273.261929 
L 253.001687 272.471842 
L 254.58554 271.945118 
L 255.11349 271.456017 
L 256.169392 271.042162 
L 257.225294 270.553061 
L 258.281195 269.048134 
L 258.809146 268.709525 
L 259.337097 267.806569 
L 259.865048 267.242222 
L 263.032753 265.586802 
L 264.088654 264.759092 
L 264.616605 264.420484 
L 265.144556 263.630397 
L 265.672507 262.464079 
L 266.200457 261.673992 
L 266.728408 261.260137 
L 267.256359 261.034398 
L 269.368162 259.228486 
L 270.424064 258.363153 
L 270.952015 257.911675 
L 271.479965 257.196835 
L 272.535867 256.256256 
L 274.64767 254.864198 
L 275.175621 254.41272 
L 276.231523 254.074112 
L 277.815375 253.171156 
L 279.399227 252.15533 
L 281.511031 250.274171 
L 282.566932 249.860317 
L 283.622834 249.145476 
L 284.150785 248.844491 
L 284.678735 248.769245 
L 288.374391 246.474231 
L 290.486194 245.345536 
L 291.014145 244.856435 
L 299.461358 241.921827 
L 300.517259 240.981248 
L 301.573161 240.492147 
L 302.629063 239.927799 
L 303.157013 239.626814 
L 304.212915 239.325829 
L 304.740866 238.98722 
L 305.268817 238.836727 
L 306.852669 237.820902 
L 309.492423 237.218931 
L 311.076275 236.315975 
L 311.604226 236.240729 
L 312.660128 235.977366 
L 313.188079 235.826874 
L 314.771931 234.622932 
L 316.883734 234.058585 
L 317.411685 233.64473 
L 320.57939 232.591281 
L 321.107341 232.553658 
L 322.691193 231.98931 
L 326.386849 230.672499 
L 327.44275 230.522007 
L 329.026603 229.995282 
L 331.666357 228.753718 
L 333.77816 227.625022 
L 338.001766 225.93198 
L 338.529717 225.856733 
L 339.585619 225.217139 
L 340.113569 225.141893 
L 342.225373 224.27656 
L 344.337176 223.975575 
L 345.393077 223.44885 
L 345.921028 222.997372 
L 346.448979 222.056793 
L 348.560782 221.492446 
L 350.144635 220.702359 
L 350.672585 220.589489 
L 354.896192 218.595461 
L 356.480044 218.256853 
L 357.535946 217.730128 
L 358.063897 217.504389 
L 358.591847 217.429143 
L 360.703651 216.488564 
L 362.287503 215.510361 
L 362.815454 215.435115 
L 363.343405 215.246999 
L 363.871355 215.209376 
L 366.511109 214.569782 
L 367.03906 214.155927 
L 368.622913 213.59158 
L 370.734716 212.76387 
L 371.262667 212.387638 
L 371.790617 212.199522 
L 372.846519 211.635175 
L 375.486273 210.769842 
L 377.070125 209.528277 
L 377.598076 209.415408 
L 378.653978 208.587698 
L 379.181929 208.512451 
L 379.709879 207.684742 
L 380.23783 207.459003 
L 380.765781 207.045148 
L 381.293732 206.969901 
L 382.349633 206.330308 
L 383.405535 205.991699 
L 383.933486 205.577844 
L 384.461437 205.389728 
L 386.045289 204.298656 
L 388.157092 203.207584 
L 388.685043 203.132338 
L 390.268895 202.342251 
L 390.796846 201.476918 
L 391.324797 201.02544 
L 391.852748 200.724455 
L 392.380699 200.611586 
L 393.4366 199.934368 
L 393.964551 199.821499 
L 395.020453 199.294775 
L 396.604305 198.617557 
L 397.660207 197.865094 
L 399.244059 196.435414 
L 400.299961 195.833443 
L 400.827911 195.269095 
L 402.939715 193.839415 
L 403.467665 193.237444 
L 403.995616 192.823589 
L 405.051518 192.447357 
L 406.107419 191.732517 
L 407.691272 190.942431 
L 408.219223 190.867184 
L 409.803075 190.039474 
L 410.858977 189.399881 
L 416.138485 187.518722 
L 416.666435 187.104867 
L 418.778239 186.314781 
L 419.306189 186.164288 
L 419.83414 185.750433 
L 422.473894 184.320752 
L 423.529796 182.251478 
L 424.585697 181.047537 
L 425.641599 180.407943 
L 427.225451 179.768349 
L 427.753402 179.693102 
L 428.281353 179.392117 
L 430.921107 178.564407 
L 431.449058 178.338668 
L 432.504959 177.623828 
L 434.088812 176.946611 
L 435.144713 176.382263 
L 435.672664 176.006032 
L 436.200615 175.780293 
L 436.728566 175.404061 
L 437.256517 174.839713 
L 438.312418 174.275366 
L 440.952172 172.883308 
L 444.119877 171.340758 
L 445.175779 171.00215 
L 446.759631 170.513049 
L 448.871434 169.572469 
L 449.927336 169.158615 
L 450.455287 168.74476 
L 451.511188 168.406151 
L 454.678893 166.788355 
L 455.734795 165.960645 
L 456.790696 165.584413 
L 457.318647 165.132935 
L 457.846598 165.057689 
L 458.902499 164.267602 
L 459.958401 163.740878 
L 460.486352 163.515139 
L 461.014303 162.988414 
L 464.709958 161.558734 
L 465.76586 161.107256 
L 467.349712 160.618155 
L 468.405614 160.467662 
L 468.933565 160.241923 
L 469.461515 160.166677 
L 470.517417 159.715199 
L 471.045368 159.677575 
L 473.157171 158.887489 
L 474.741023 157.796417 
L 477.380777 156.554852 
L 480.020531 155.125172 
L 480.548482 155.012302 
L 482.132335 154.109346 
L 483.716187 153.582622 
L 484.772089 153.244013 
L 486.883892 152.566796 
L 487.939793 152.228188 
L 489.523646 151.964825 
L 491.635449 151.287608 
L 492.1634 151.061869 
L 492.691351 150.986623 
L 493.219301 150.723261 
L 494.275203 150.535145 
L 495.859055 149.970797 
L 496.914957 149.857928 
L 498.498809 149.519319 
L 499.554711 149.331203 
L 500.610613 149.143087 
L 501.666514 148.917348 
L 504.834219 148.127262 
L 505.36217 147.826277 
L 508.001924 147.186683 
L 509.057825 146.848074 
L 514.865284 145.155031 
L 515.393235 144.628307 
L 516.449137 144.214452 
L 519.616841 143.085757 
L 520.144792 142.747148 
L 520.672743 142.634279 
L 521.200694 142.333294 
L 522.784546 141.881815 
L 523.840448 141.618453 
L 524.368399 141.279845 
L 524.896349 141.166975 
L 525.4243 140.715497 
L 527.008153 140.414512 
L 528.064054 139.925411 
L 528.592005 139.32344 
L 530.703808 138.834339 
L 534.399464 138.081875 
L 534.927415 138.081875 
L 535.455365 137.856136 
L 537.567169 137.479904 
L 538.095119 137.254165 
L 540.206923 136.877934 
L 541.262824 136.426456 
L 541.790775 136.388832 
L 550.765939 133.717587 
L 551.293889 133.491848 
L 551.82184 133.115617 
L 552.877742 132.814631 
L 553.933643 132.476023 
L 554.989545 132.062168 
L 556.573397 131.384951 
L 558.15725 131.272081 
L 560.269053 130.67011 
L 560.797004 130.331502 
L 561.852905 130.030517 
L 564.492659 128.864198 
L 565.02061 128.826575 
L 570.828069 126.832547 
L 573.467823 126.15533 
L 574.523725 125.666229 
L 575.579626 125.44049 
L 576.107577 125.32762 
L 576.635528 124.913765 
L 577.163479 124.650403 
L 577.691429 124.010809 
L 578.21938 123.634577 
L 579.275282 123.333592 
L 579.803233 122.919737 
L 582.442987 121.828665 
L 582.970937 121.715796 
L 583.498888 121.377187 
L 584.55479 121.076202 
L 585.082741 120.737593 
L 587.722495 119.87226 
L 589.306347 118.969304 
L 589.834298 118.856435 
L 590.890199 118.254464 
L 591.41815 118.028725 
L 592.474052 117.389131 
L 594.057904 116.636668 
L 594.585855 116.260436 
L 595.641757 115.921827 
L 596.697658 115.319857 
L 597.225609 115.131741 
L 597.75356 114.755509 
L 604.61692 112.385249 
L 605.144871 112.27238 
L 605.672822 111.933771 
L 606.200773 111.858525 
L 607.256674 111.595163 
L 608.312576 111.369424 
L 612.008231 109.563511 
L 612.536182 109.488265 
L 614.120035 108.622932 
L 617.287739 107.381368 
L 619.399543 106.553658 
L 619.927493 106.403165 
L 620.455444 106.064557 
L 621.511346 105.914064 
L 622.039297 105.575455 
L 622.567247 105.537832 
L 623.623149 105.199224 
L 624.679051 104.672499 
L 625.207001 104.597253 
L 627.846755 103.543804 
L 629.430608 103.092326 
L 630.48651 102.828964 
L 632.070362 102.377486 
L 633.126264 101.963631 
L 635.238067 100.834936 
L 636.293968 100.421081 
L 636.821919 100.082472 
L 637.877821 99.856733 
L 638.405772 99.555748 
L 638.933722 99.442878 
L 640.517575 98.615169 
L 641.573476 98.201314 
L 643.157329 97.486474 
L 644.741181 97.072619 
L 647.908886 95.831054 
L 649.492738 95.30433 
L 657.412 91.918244 
L 657.939951 91.842998 
L 660.051754 91.052911 
L 661.635607 90.187578 
L 662.163558 90.074709 
L 663.219459 89.660854 
L 663.74741 89.660854 
L 664.803312 89.209376 
L 665.859213 88.268797 
L 666.387164 87.817319 
L 667.971016 87.064855 
L 668.498967 86.951986 
L 669.026918 86.688623 
L 669.554869 86.613377 
L 670.08282 86.237145 
L 670.61077 86.124276 
L 671.666672 85.484682 
L 673.250524 84.694595 
L 674.306426 84.280741 
L 674.834377 84.017378 
L 677.474131 83.377784 
L 678.002082 83.114422 
L 679.585934 82.662944 
L 681.697737 81.647119 
L 682.753639 81.158017 
L 683.80954 80.894655 
L 687.505196 79.163989 
L 690.14495 78.22341 
L 691.728802 77.282831 
L 692.256753 77.169961 
L 693.312655 76.643237 
L 694.368556 76.267005 
L 694.896507 75.815527 
L 695.424458 75.514542 
L 697.00831 75.02544 
L 698.064212 74.3106 
L 698.592163 74.272977 
L 699.648064 73.971992 
L 700.703966 73.633383 
L 701.231917 73.370021 
L 701.759868 73.294775 
L 703.34372 72.730427 
L 704.927572 72.166079 
L 705.983474 71.752225 
L 706.511425 71.33837 
L 708.095277 70.924515 
L 708.623228 70.623529 
L 709.67913 70.360167 
L 711.262982 69.494834 
L 711.790933 69.457211 
L 713.374785 68.96811 
L 714.430687 68.85524 
L 715.486588 68.441385 
L 718.654293 67.538429 
L 719.710195 67.500806 
L 722.8779 66.484981 
L 723.40585 66.409734 
L 724.989703 65.582024 
L 725.517654 65.130546 
L 726.573555 64.528576 
L 728.157408 63.51275 
L 731.325112 62.421678 
L 731.853063 62.007823 
L 733.436916 61.292983 
L 733.964866 61.180113 
L 735.020768 60.691012 
L 736.60462 60.277157 
L 738.188473 59.59994 
L 739.244374 59.110839 
L 740.828227 58.471245 
L 741.356178 58.358376 
L 742.94003 57.605912 
L 743.467981 57.45542 
L 744.523882 56.740579 
L 746.107735 56.289101 
L 746.635686 55.91287 
L 747.163636 55.8 
L 747.163636 55.8 
" clip-path="url(#p6c28b1e344)" style="fill: none; stroke: #1f77b4; stroke-width: 1.5; stroke-linecap: square"/>
   </g>
   <g id="line2d_40">
    <path d="M 138.964314 307.8 
L 140.548167 307.724754 
L 142.132019 307.68713 
L 145.299724 307.611884 
L 147.939478 307.499015 
L 150.051281 307.499015 
L 150.579232 307.348522 
L 152.691035 307.273276 
L 154.274888 307.08516 
L 155.85874 306.934667 
L 159.026445 306.784174 
L 159.554396 306.784174 
L 160.610297 306.671305 
L 163.778002 306.520812 
L 167.473658 306.445566 
L 170.113412 306.332696 
L 176.448821 306.25745 
L 179.088575 306.14458 
L 182.25628 306.069334 
L 184.368083 305.994088 
L 189.11964 305.918841 
L 190.703493 305.881218 
L 192.287345 305.843595 
L 193.871198 305.655479 
L 197.038902 305.617856 
L 198.094804 305.54261 
L 202.31841 305.467363 
L 207.597918 305.166378 
L 211.293574 305.091132 
L 212.349476 305.015885 
L 213.933328 304.940639 
L 217.101033 304.790146 
L 219.212836 304.752523 
L 220.796688 304.60203 
L 227.660049 304.188176 
L 230.299803 304.112929 
L 235.05136 303.849567 
L 236.635212 303.774321 
L 241.91472 303.473335 
L 247.722179 303.398089 
L 249.833982 303.17235 
L 250.889884 303.097104 
L 257.753245 302.532756 
L 260.920949 302.118901 
L 263.032753 302.043655 
L 267.256359 301.479307 
L 270.424064 301.404061 
L 272.007916 301.253568 
L 273.063818 301.215945 
L 274.119719 301.103076 
L 275.703572 301.027829 
L 277.287424 300.80209 
L 277.815375 300.80209 
L 279.399227 300.576351 
L 281.511031 300.501105 
L 282.566932 300.425858 
L 284.678735 300.350612 
L 285.734637 300.275366 
L 288.374391 300.012004 
L 289.430293 299.823888 
L 291.014145 299.786265 
L 292.070047 299.711018 
L 294.709801 299.635772 
L 301.573161 299.221917 
L 303.157013 299.146671 
L 310.020374 298.732816 
L 313.716029 298.657569 
L 314.771931 298.5447 
L 318.467587 298.469454 
L 322.163242 298.281338 
L 327.970701 298.206091 
L 331.666357 298.017976 
L 335.889963 297.942729 
L 340.113569 297.71699 
L 343.809225 297.641744 
L 353.84029 297.00215 
L 359.119798 296.926904 
L 361.231601 296.701165 
L 362.815454 296.663541 
L 364.399306 296.625918 
L 366.511109 296.400179 
L 371.790617 296.099194 
L 374.958322 296.023947 
L 376.542175 295.986324 
L 378.126027 295.948701 
L 379.709879 295.798208 
L 383.933486 295.722962 
L 384.989387 295.572469 
L 386.045289 295.497223 
L 388.685043 295.384354 
L 389.740945 295.309107 
L 390.796846 295.233861 
L 395.548403 295.158615 
L 396.604305 295.045745 
L 398.716108 295.008122 
L 399.77201 294.895252 
L 401.355862 294.707136 
L 402.411764 294.63189 
L 407.163321 294.368528 
L 408.219223 294.330905 
L 409.803075 294.180412 
L 411.386927 294.142789 
L 412.97078 294.067543 
L 415.610534 293.954673 
L 423.001845 293.879427 
L 426.697501 293.691311 
L 430.921107 293.616064 
L 433.03291 293.540818 
L 435.144713 293.503195 
L 436.200615 293.390325 
L 438.312418 293.315079 
L 443.591926 293.014094 
L 446.759631 292.976471 
L 448.343483 292.825978 
L 449.927336 292.788355 
L 453.622991 292.713108 
L 455.734795 292.637862 
L 462.070204 292.562616 
L 464.709958 292.449746 
L 467.877663 292.3745 
L 469.461515 292.186384 
L 472.62922 292.148761 
L 474.213073 291.998268 
L 476.324876 291.923022 
L 482.660285 291.847775 
L 485.300039 291.734906 
L 494.275203 291.697283 
L 495.331105 291.622036 
L 496.914957 291.584413 
L 503.778317 291.509167 
L 504.834219 291.433921 
L 510.641678 291.358674 
L 512.753481 291.283428 
L 522.784546 291.208182 
L 524.368399 291.170558 
L 529.119956 291.095312 
L 530.175857 291.020066 
L 542.846677 290.944819 
L 544.430529 290.907196 
L 558.685201 290.83195 
L 560.269053 290.794327 
L 569.772167 290.71908 
L 570.828069 290.643834 
L 573.467823 290.568588 
L 575.051675 290.418095 
L 577.691429 290.342849 
L 580.859134 290.192356 
L 585.082741 290.11711 
L 586.138642 290.041863 
L 590.362249 289.966617 
L 593.529953 289.816124 
L 596.169707 289.740878 
L 600.393314 289.515139 
L 603.561019 289.439893 
L 605.672822 289.364646 
L 612.536182 289.2894 
L 614.647985 289.214153 
L 618.871592 289.138907 
L 622.567247 288.950791 
L 627.318805 288.875545 
L 628.374706 288.800299 
L 637.877821 288.725052 
L 639.461673 288.687429 
L 642.101427 288.649806 
L 644.21323 288.424067 
L 645.797083 288.386444 
L 648.964788 288.311197 
L 654.244296 288.010212 
L 656.88405 287.934966 
L 658.995853 287.859719 
L 664.803312 287.784473 
L 667.443066 287.483488 
L 669.554869 287.408241 
L 673.250524 287.332995 
L 674.306426 287.220125 
L 678.530032 287.144879 
L 681.169786 287.03201 
L 688.033147 286.994386 
L 689.089048 286.881517 
L 692.784704 286.806271 
L 694.368556 286.768647 
L 697.00831 286.693401 
L 698.592163 286.655778 
L 707.567326 286.580532 
L 710.20708 286.467662 
L 717.598392 286.392416 
L 719.710195 286.317169 
L 725.517654 286.241923 
L 726.573555 286.129053 
L 731.325112 286.09143 
L 732.381014 286.016184 
L 735.020768 285.940938 
L 736.60462 285.903314 
L 743.467981 285.828068 
L 745.051833 285.790445 
L 746.107735 285.715199 
L 747.163636 285.677575 
L 747.163636 285.677575 
" clip-path="url(#p6c28b1e344)" style="fill: none; stroke: #ff7f0e; stroke-width: 1.5; stroke-linecap: square"/>
   </g>
   <g id="patch_3">
    <path d="M 108 320.4 
L 108 43.2 
" style="fill: none; stroke: #a9a9a9; stroke-width: 0.8; stroke-linejoin: miter; stroke-linecap: square"/>
   </g>
   <g id="patch_4">
    <path d="M 777.6 320.4 
L 777.6 43.2 
" style="fill: none"/>
   </g>
   <g id="patch_5">
    <path d="M 108 320.4 
L 777.6 320.4 
" style="fill: none; stroke: #a9a9a9; stroke-width: 0.8; stroke-linejoin: miter; stroke-linecap: square"/>
   </g>
   <g id="patch_6">
    <path d="M 108 43.2 
L 777.6 43.2 
" style="fill: none"/>
   </g>
   <g id="text_20">
    <!-- get_subscribe history -->
    <g style="fill: #a9a9a9" transform="translate(378.6075 37.2) scale(0.12 -0.12)">
     <defs>
      <path id="DejaVuSans-67" d="M 2906 1791 
Q 2906 2416 2648 2759 
Q 2391 3103 1925 3103 
Q 1463 3103 1205 2759 
Q 947 2416 947 1791 
Q 947 1169 1205 825 
Q 1463 481 1925 481 
Q 2391 481 2648 825 
Q 2906 1169 2906 1791 
z
M 3481 434 
Q 3481 -459 3084 -895 
Q 2688 -1331 1869 -1331 
Q 1566 -1331 1297 -1286 
Q 1028 -1241 775 -1147 
L 775 -588 
Q 1028 -725 1275 -790 
Q 1522 -856 1778 -856 
Q 2344 -856 2625 -561 
Q 2906 -266 2906 331 
L 2906 616 
Q 2728 306 2450 153 
Q 2172 0 1784 0 
Q 1141 0 747 490 
Q 353 981 353 1791 
Q 353 2603 747 3093 
Q 1141 3584 1784 3584 
Q 2172 3584 2450 3431 
Q 2728 3278 2906 2969 
L 2906 3500 
L 3481 3500 
L 3481 434 
z
" transform="scale(0.015625)"/>
      <path id="DejaVuSans-65" d="M 3597 1894 
L 3597 1613 
L 953 1613 
Q 991 1019 1311 708 
Q 1631 397 2203 397 
Q 2534 397 2845 478 
Q 3156 559 3463 722 
L 3463 178 
Q 3153 47 2828 -22 
Q 2503 -91 2169 -91 
Q 1331 -91 842 396 
Q 353 884 353 1716 
Q 353 2575 817 3079 
Q 1281 3584 2069 3584 
Q 2775 3584 3186 3129 
Q 3597 2675 3597 1894 
z
M 3022 2063 
Q 3016 2534 2758 2815 
Q 2500 3097 2075 3097 
Q 1594 3097 1305 2825 
Q 1016 2553 972 2059 
L 3022 2063 
z
" transform="scale(0.015625)"/>
      <path id="DejaVuSans-74" d="M 1172 4494 
L 1172 3500 
L 2356 3500 
L 2356 3053 
L 1172 3053 
L 1172 1153 
Q 1172 725 1289 603 
Q 1406 481 1766 481 
L 2356 481 
L 2356 0 
L 1766 0 
Q 1100 0 847 248 
Q 594 497 594 1153 
L 594 3053 
L 172 3053 
L 172 3500 
L 594 3500 
L 594 4494 
L 1172 4494 
z
" transform="scale(0.015625)"/>
      <path id="DejaVuSans-5f" d="M 3263 -1063 
L 3263 -1509 
L -63 -1509 
L -63 -1063 
L 3263 -1063 
z
" transform="scale(0.015625)"/>
      <path id="DejaVuSans-73" d="M 2834 3397 
L 2834 2853 
Q 2591 2978 2328 3040 
Q 2066 3103 1784 3103 
Q 1356 3103 1142 2972 
Q 928 2841 928 2578 
Q 928 2378 1081 2264 
Q 1234 2150 1697 2047 
L 1894 2003 
Q 2506 1872 2764 1633 
Q 3022 1394 3022 966 
Q 3022 478 2636 193 
Q 2250 -91 1575 -91 
Q 1294 -91 989 -36 
Q 684 19 347 128 
L 347 722 
Q 666 556 975 473 
Q 1284 391 1588 391 
Q 1994 391 2212 530 
Q 2431 669 2431 922 
Q 2431 1156 2273 1281 
Q 2116 1406 1581 1522 
L 1381 1569 
Q 847 1681 609 1914 
Q 372 2147 372 2553 
Q 372 3047 722 3315 
Q 1072 3584 1716 3584 
Q 2034 3584 2315 3537 
Q 2597 3491 2834 3397 
z
" transform="scale(0.015625)"/>
      <path id="DejaVuSans-75" d="M 544 1381 
L 544 3500 
L 1119 3500 
L 1119 1403 
Q 1119 906 1312 657 
Q 1506 409 1894 409 
Q 2359 409 2629 706 
Q 2900 1003 2900 1516 
L 2900 3500 
L 3475 3500 
L 3475 0 
L 2900 0 
L 2900 538 
Q 2691 219 2414 64 
Q 2138 -91 1772 -91 
Q 1169 -91 856 284 
Q 544 659 544 1381 
z
M 1991 3584 
L 1991 3584 
z
" transform="scale(0.015625)"/>
      <path id="DejaVuSans-62" d="M 3116 1747 
Q 3116 2381 2855 2742 
Q 2594 3103 2138 3103 
Q 1681 3103 1420 2742 
Q 1159 2381 1159 1747 
Q 1159 1113 1420 752 
Q 1681 391 2138 391 
Q 2594 391 2855 752 
Q 3116 1113 3116 1747 
z
M 1159 2969 
Q 1341 3281 1617 3432 
Q 1894 3584 2278 3584 
Q 2916 3584 3314 3078 
Q 3713 2572 3713 1747 
Q 3713 922 3314 415 
Q 2916 -91 2278 -91 
Q 1894 -91 1617 61 
Q 1341 213 1159 525 
L 1159 0 
L 581 0 
L 581 4863 
L 1159 4863 
L 1159 2969 
z
" transform="scale(0.015625)"/>
      <path id="DejaVuSans-63" d="M 3122 3366 
L 3122 2828 
Q 2878 2963 2633 3030 
Q 2388 3097 2138 3097 
Q 1578 3097 1268 2742 
Q 959 2388 959 1747 
Q 959 1106 1268 751 
Q 1578 397 2138 397 
Q 2388 397 2633 464 
Q 2878 531 3122 666 
L 3122 134 
Q 2881 22 2623 -34 
Q 2366 -91 2075 -91 
Q 1284 -91 818 406 
Q 353 903 353 1747 
Q 353 2603 823 3093 
Q 1294 3584 2113 3584 
Q 2378 3584 2631 3529 
Q 2884 3475 3122 3366 
z
" transform="scale(0.015625)"/>
      <path id="DejaVuSans-72" d="M 2631 2963 
Q 2534 3019 2420 3045 
Q 2306 3072 2169 3072 
Q 1681 3072 1420 2755 
Q 1159 2438 1159 1844 
L 1159 0 
L 581 0 
L 581 3500 
L 1159 3500 
L 1159 2956 
Q 1341 3275 1631 3429 
Q 1922 3584 2338 3584 
Q 2397 3584 2469 3576 
Q 2541 3569 2628 3553 
L 2631 2963 
z
" transform="scale(0.015625)"/>
      <path id="DejaVuSans-69" d="M 603 3500 
L 1178 3500 
L 1178 0 
L 603 0 
L 603 3500 
z
M 603 4863 
L 1178 4863 
L 1178 4134 
L 603 4134 
L 603 4863 
z
" transform="scale(0.015625)"/>
      <path id="DejaVuSans-20" transform="scale(0.015625)"/>
      <path id="DejaVuSans-68" d="M 3513 2113 
L 3513 0 
L 2938 0 
L 2938 2094 
Q 2938 2591 2744 2837 
Q 2550 3084 2163 3084 
Q 1697 3084 1428 2787 
Q 1159 2491 1159 1978 
L 1159 0 
L 581 0 
L 581 4863 
L 1159 4863 
L 1159 2956 
Q 1366 3272 1645 3428 
Q 1925 3584 2291 3584 
Q 2894 3584 3203 3211 
Q 3513 2838 3513 2113 
z
" transform="scale(0.015625)"/>
      <path id="DejaVuSans-6f" d="M 1959 3097 
Q 1497 3097 1228 2736 
Q 959 2375 959 1747 
Q 959 1119 1226 758 
Q 1494 397 1959 397 
Q 2419 397 2687 759 
Q 2956 1122 2956 1747 
Q 2956 2369 2687 2733 
Q 2419 3097 1959 3097 
z
M 1959 3584 
Q 2709 3584 3137 3096 
Q 3566 2609 3566 1747 
Q 3566 888 3137 398 
Q 2709 -91 1959 -91 
Q 1206 -91 779 398 
Q 353 888 353 1747 
Q 353 2609 779 3096 
Q 1206 3584 1959 3584 
z
" transform="scale(0.015625)"/>
      <path id="DejaVuSans-79" d="M 2059 -325 
Q 1816 -950 1584 -1140 
Q 1353 -1331 966 -1331 
L 506 -1331 
L 506 -850 
L 844 -850 
Q 1081 -850 1212 -737 
Q 1344 -625 1503 -206 
L 1606 56 
L 191 3500 
L 800 3500 
L 1894 763 
L 2988 3500 
L 3597 3500 
L 2059 -325 
z
" transform="scale(0.015625)"/>
     </defs>
     <use xlink:href="#DejaVuSans-67"/>
     <use xlink:href="#DejaVuSans-65" x="63.476562"/>
     <use xlink:href="#DejaVuSans-74" x="125"/>
     <use xlink:href="#DejaVuSans-5f" x="164.208984"/>
     <use xlink:href="#DejaVuSans-73" x="214.208984"/>
     <use xlink:href="#DejaVuSans-75" x="266.308594"/>
     <use xlink:href="#DejaVuSans-62" x="329.6875"/>
     <use xlink:href="#DejaVuSans-73" x="393.164062"/>
     <use xlink:href="#DejaVuSans-63" x="445.263672"/>
     <use xlink:href="#DejaVuSans-72" x="500.244141"/>
     <use xlink:href="#DejaVuSans-69" x="541.357422"/>
     <use xlink:href="#DejaVuSans-62" x="569.140625"/>
     <use xlink:href="#DejaVuSans-65" x="632.617188"/>
     <use xlink:href="#DejaVuSans-20" x="694.140625"/>
     <use xlink:href="#DejaVuSans-68" x="725.927734"/>
     <use xlink:href="#DejaVuSans-69" x="789.306641"/>
     <use xlink:href="#DejaVuSans-73" x="817.089844"/>
     <use xlink:href="#DejaVuSans-74" x="869.189453"/>
     <use xlink:href="#DejaVuSans-6f" x="908.398438"/>
     <use xlink:href="#DejaVuSans-72" x="969.580078"/>
     <use xlink:href="#DejaVuSans-79" x="1010.693359"/>
    </g>
   </g>
   <g id="legend_1">
    <g id="line2d_41">
     <path d="M 815.08 328.498438 
L 825.08 328.498438 
L 835.08 328.498438 
" style="fill: none; stroke: #1f77b4; stroke-width: 1.5; stroke-linecap: square"/>
    </g>
    <g id="text_21">
     <!-- star -->
     <g style="fill: #a9a9a9" transform="translate(843.08 331.998438) scale(0.1 -0.1)">
      <defs>
       <path id="DejaVuSans-61" d="M 2194 1759 
Q 1497 1759 1228 1600 
Q 959 1441 959 1056 
Q 959 750 1161 570 
Q 1363 391 1709 391 
Q 2188 391 2477 730 
Q 2766 1069 2766 1631 
L 2766 1759 
L 2194 1759 
z
M 3341 1997 
L 3341 0 
L 2766 0 
L 2766 531 
Q 2569 213 2275 61 
Q 1981 -91 1556 -91 
Q 1019 -91 701 211 
Q 384 513 384 1019 
Q 384 1609 779 1909 
Q 1175 2209 1959 2209 
L 2766 2209 
L 2766 2266 
Q 2766 2663 2505 2880 
Q 2244 3097 1772 3097 
Q 1472 3097 1187 3025 
Q 903 2953 641 2809 
L 641 3341 
Q 956 3463 1253 3523 
Q 1550 3584 1831 3584 
Q 2591 3584 2966 3190 
Q 3341 2797 3341 1997 
z
" transform="scale(0.015625)"/>
      </defs>
      <use xlink:href="#DejaVuSans-73"/>
      <use xlink:href="#DejaVuSans-74" x="52.099609"/>
      <use xlink:href="#DejaVuSans-61" x="91.308594"/>
      <use xlink:href="#DejaVuSans-72" x="152.587891"/>
     </g>
    </g>
    <g id="line2d_42">
     <path d="M 815.08 343.176562 
L 825.08 343.176562 
L 835.08 343.176562 
" style="fill: none; stroke: #ff7f0e; stroke-width: 1.5; stroke-linecap: square"/>
    </g>
    <g id="text_22">
     <!-- fork -->
     <g style="fill: #a9a9a9" transform="translate(843.08 346.676562) scale(0.1 -0.1)">
      <defs>
       <path id="DejaVuSans-66" d="M 2375 4863 
L 2375 4384 
L 1825 4384 
Q 1516 4384 1395 4259 
Q 1275 4134 1275 3809 
L 1275 3500 
L 2222 3500 
L 2222 3053 
L 1275 3053 
L 1275 0 
L 697 0 
L 697 3053 
L 147 3053 
L 147 3500 
L 697 3500 
L 697 3744 
Q 697 4328 969 4595 
Q 1241 4863 1831 4863 
L 2375 4863 
z
" transform="scale(0.015625)"/>
       <path id="DejaVuSans-6b" d="M 581 4863 
L 1159 4863 
L 1159 1991 
L 2875 3500 
L 3609 3500 
L 1753 1863 
L 3688 0 
L 2938 0 
L 1159 1709 
L 1159 0 
L 581 0 
L 581 4863 
z
" transform="scale(0.015625)"/>
      </defs>
      <use xlink:href="#DejaVuSans-66"/>
      <use xlink:href="#DejaVuSans-6f" x="35.205078"/>
      <use xlink:href="#DejaVuSans-72" x="96.386719"/>
      <use xlink:href="#DejaVuSans-6b" x="137.5"/>
     </g>
    </g>
   </g>
  </g>
 </g>
 <defs>
  <clipPath id="p6c28b1e344">
   <rect x="108" y="43.2" width="669.6" height="277.2"/>
  </clipPath>
 </defs>
</svg>
