<?xml version="1.0" encoding="utf-8" standalone="no"?>
<!DOCTYPE svg PUBLIC "-//W3C//DTD SVG 1.1//EN"
  "http://www.w3.org/Graphics/SVG/1.1/DTD/svg11.dtd">
<svg xmlns:xlink="http://www.w3.org/1999/xlink" width="864pt" height="360pt" viewBox="0 0 864 360" xmlns="http://www.w3.org/2000/svg" version="1.1">
 <metadata>
  <rdf:RDF xmlns:dc="http://purl.org/dc/elements/1.1/" xmlns:cc="http://creativecommons.org/ns#" xmlns:rdf="http://www.w3.org/1999/02/22-rdf-syntax-ns#">
   <cc:Work>
    <dc:type rdf:resource="http://purl.org/dc/dcmitype/StillImage"/>
    <dc:date>2025-05-12T20:07:09.352147</dc:date>
    <dc:format>image/svg+xml</dc:format>
    <dc:creator>
     <cc:Agent>
      <dc:title>Matplotlib v3.10.3, https://matplotlib.org/</dc:title>
     </cc:Agent>
    </dc:creator>
   </cc:Work>
  </rdf:RDF>
 </metadata>
 <defs>
  <style type="text/css">*{stroke-linejoin: round; stroke-linecap: butt}</style>
 </defs>
 <g id="figure_1">
  <g id="patch_1">
   <path d="M 0 360 
L 864 360 
L 864 0 
L 0 0 
L 0 360 
z
" style="fill: none; opacity: 0"/>
  </g>
  <g id="axes_1">
   <g id="patch_2">
    <path d="M 108 320.4 
L 777.6 320.4 
L 777.6 43.2 
L 108 43.2 
L 108 320.4 
z
" style="fill: none; opacity: 0"/>
   </g>
   <g id="matplotlib.axis_1">
    <g id="xtick_1">
     <g id="line2d_1">
      <path d="M 128.349384 320.4 
L 128.349384 43.2 
" clip-path="url(#pa54de87bc2)" style="fill: none; stroke-dasharray: 5.12,1.28,0.8,1.28; stroke-dashoffset: 0; stroke: #b0b0b0; stroke-width: 0.8"/>
     </g>
     <g id="line2d_2">
      <defs>
       <path id="m591622fa39" d="M 0 0 
L 0 3.5 
" style="stroke: #a9a9a9; stroke-width: 0.8"/>
      </defs>
      <g>
       <use xlink:href="#m591622fa39" x="128.349384" y="320.4" style="fill: #a9a9a9; stroke: #a9a9a9; stroke-width: 0.8"/>
      </g>
     </g>
     <g id="text_1">
      <!-- 2021-07 -->
      <g style="fill: #a9a9a9" transform="translate(107.457978 334.998438) scale(0.1 -0.1)">
       <defs>
        <path id="DejaVuSans-32" d="M 1228 531 
L 3431 531 
L 3431 0 
L 469 0 
L 469 531 
Q 828 903 1448 1529 
Q 2069 2156 2228 2338 
Q 2531 2678 2651 2914 
Q 2772 3150 2772 3378 
Q 2772 3750 2511 3984 
Q 2250 4219 1831 4219 
Q 1534 4219 1204 4116 
Q 875 4013 500 3803 
L 500 4441 
Q 881 4594 1212 4672 
Q 1544 4750 1819 4750 
Q 2544 4750 2975 4387 
Q 3406 4025 3406 3419 
Q 3406 3131 3298 2873 
Q 3191 2616 2906 2266 
Q 2828 2175 2409 1742 
Q 1991 1309 1228 531 
z
" transform="scale(0.015625)"/>
        <path id="DejaVuSans-30" d="M 2034 4250 
Q 1547 4250 1301 3770 
Q 1056 3291 1056 2328 
Q 1056 1369 1301 889 
Q 1547 409 2034 409 
Q 2525 409 2770 889 
Q 3016 1369 3016 2328 
Q 3016 3291 2770 3770 
Q 2525 4250 2034 4250 
z
M 2034 4750 
Q 2819 4750 3233 4129 
Q 3647 3509 3647 2328 
Q 3647 1150 3233 529 
Q 2819 -91 2034 -91 
Q 1250 -91 836 529 
Q 422 1150 422 2328 
Q 422 3509 836 4129 
Q 1250 4750 2034 4750 
z
" transform="scale(0.015625)"/>
        <path id="DejaVuSans-31" d="M 794 531 
L 1825 531 
L 1825 4091 
L 703 3866 
L 703 4441 
L 1819 4666 
L 2450 4666 
L 2450 531 
L 3481 531 
L 3481 0 
L 794 0 
L 794 531 
z
" transform="scale(0.015625)"/>
        <path id="DejaVuSans-2d" d="M 313 2009 
L 1997 2009 
L 1997 1497 
L 313 1497 
L 313 2009 
z
" transform="scale(0.015625)"/>
        <path id="DejaVuSans-37" d="M 525 4666 
L 3525 4666 
L 3525 4397 
L 1831 0 
L 1172 0 
L 2766 4134 
L 525 4134 
L 525 4666 
z
" transform="scale(0.015625)"/>
       </defs>
       <use xlink:href="#DejaVuSans-32"/>
       <use xlink:href="#DejaVuSans-30" transform="translate(63.623047 0)"/>
       <use xlink:href="#DejaVuSans-32" transform="translate(127.246094 0)"/>
       <use xlink:href="#DejaVuSans-31" transform="translate(190.869141 0)"/>
       <use xlink:href="#DejaVuSans-2d" transform="translate(254.492188 0)"/>
       <use xlink:href="#DejaVuSans-30" transform="translate(290.576172 0)"/>
       <use xlink:href="#DejaVuSans-37" transform="translate(354.199219 0)"/>
      </g>
     </g>
    </g>
    <g id="xtick_2">
     <g id="line2d_3">
      <path d="M 209.045219 320.4 
L 209.045219 43.2 
" clip-path="url(#pa54de87bc2)" style="fill: none; stroke-dasharray: 5.12,1.28,0.8,1.28; stroke-dashoffset: 0; stroke: #b0b0b0; stroke-width: 0.8"/>
     </g>
     <g id="line2d_4">
      <g>
       <use xlink:href="#m591622fa39" x="209.045219" y="320.4" style="fill: #a9a9a9; stroke: #a9a9a9; stroke-width: 0.8"/>
      </g>
     </g>
     <g id="text_2">
      <!-- 2022-01 -->
      <g style="fill: #a9a9a9" transform="translate(188.153813 334.998438) scale(0.1 -0.1)">
       <use xlink:href="#DejaVuSans-32"/>
       <use xlink:href="#DejaVuSans-30" transform="translate(63.623047 0)"/>
       <use xlink:href="#DejaVuSans-32" transform="translate(127.246094 0)"/>
       <use xlink:href="#DejaVuSans-32" transform="translate(190.869141 0)"/>
       <use xlink:href="#DejaVuSans-2d" transform="translate(254.492188 0)"/>
       <use xlink:href="#DejaVuSans-30" transform="translate(290.576172 0)"/>
       <use xlink:href="#DejaVuSans-31" transform="translate(354.199219 0)"/>
      </g>
     </g>
    </g>
    <g id="xtick_3">
     <g id="line2d_5">
      <path d="M 288.42536 320.4 
L 288.42536 43.2 
" clip-path="url(#pa54de87bc2)" style="fill: none; stroke-dasharray: 5.12,1.28,0.8,1.28; stroke-dashoffset: 0; stroke: #b0b0b0; stroke-width: 0.8"/>
     </g>
     <g id="line2d_6">
      <g>
       <use xlink:href="#m591622fa39" x="288.42536" y="320.4" style="fill: #a9a9a9; stroke: #a9a9a9; stroke-width: 0.8"/>
      </g>
     </g>
     <g id="text_3">
      <!-- 2022-07 -->
      <g style="fill: #a9a9a9" transform="translate(267.533954 334.998438) scale(0.1 -0.1)">
       <use xlink:href="#DejaVuSans-32"/>
       <use xlink:href="#DejaVuSans-30" transform="translate(63.623047 0)"/>
       <use xlink:href="#DejaVuSans-32" transform="translate(127.246094 0)"/>
       <use xlink:href="#DejaVuSans-32" transform="translate(190.869141 0)"/>
       <use xlink:href="#DejaVuSans-2d" transform="translate(254.492188 0)"/>
       <use xlink:href="#DejaVuSans-30" transform="translate(290.576172 0)"/>
       <use xlink:href="#DejaVuSans-37" transform="translate(354.199219 0)"/>
      </g>
     </g>
    </g>
    <g id="xtick_4">
     <g id="line2d_7">
      <path d="M 369.121195 320.4 
L 369.121195 43.2 
" clip-path="url(#pa54de87bc2)" style="fill: none; stroke-dasharray: 5.12,1.28,0.8,1.28; stroke-dashoffset: 0; stroke: #b0b0b0; stroke-width: 0.8"/>
     </g>
     <g id="line2d_8">
      <g>
       <use xlink:href="#m591622fa39" x="369.121195" y="320.4" style="fill: #a9a9a9; stroke: #a9a9a9; stroke-width: 0.8"/>
      </g>
     </g>
     <g id="text_4">
      <!-- 2023-01 -->
      <g style="fill: #a9a9a9" transform="translate(348.229788 334.998438) scale(0.1 -0.1)">
       <defs>
        <path id="DejaVuSans-33" d="M 2597 2516 
Q 3050 2419 3304 2112 
Q 3559 1806 3559 1356 
Q 3559 666 3084 287 
Q 2609 -91 1734 -91 
Q 1441 -91 1130 -33 
Q 819 25 488 141 
L 488 750 
Q 750 597 1062 519 
Q 1375 441 1716 441 
Q 2309 441 2620 675 
Q 2931 909 2931 1356 
Q 2931 1769 2642 2001 
Q 2353 2234 1838 2234 
L 1294 2234 
L 1294 2753 
L 1863 2753 
Q 2328 2753 2575 2939 
Q 2822 3125 2822 3475 
Q 2822 3834 2567 4026 
Q 2313 4219 1838 4219 
Q 1578 4219 1281 4162 
Q 984 4106 628 3988 
L 628 4550 
Q 988 4650 1302 4700 
Q 1616 4750 1894 4750 
Q 2613 4750 3031 4423 
Q 3450 4097 3450 3541 
Q 3450 3153 3228 2886 
Q 3006 2619 2597 2516 
z
" transform="scale(0.015625)"/>
       </defs>
       <use xlink:href="#DejaVuSans-32"/>
       <use xlink:href="#DejaVuSans-30" transform="translate(63.623047 0)"/>
       <use xlink:href="#DejaVuSans-32" transform="translate(127.246094 0)"/>
       <use xlink:href="#DejaVuSans-33" transform="translate(190.869141 0)"/>
       <use xlink:href="#DejaVuSans-2d" transform="translate(254.492188 0)"/>
       <use xlink:href="#DejaVuSans-30" transform="translate(290.576172 0)"/>
       <use xlink:href="#DejaVuSans-31" transform="translate(354.199219 0)"/>
      </g>
     </g>
    </g>
    <g id="xtick_5">
     <g id="line2d_9">
      <path d="M 448.501336 320.4 
L 448.501336 43.2 
" clip-path="url(#pa54de87bc2)" style="fill: none; stroke-dasharray: 5.12,1.28,0.8,1.28; stroke-dashoffset: 0; stroke: #b0b0b0; stroke-width: 0.8"/>
     </g>
     <g id="line2d_10">
      <g>
       <use xlink:href="#m591622fa39" x="448.501336" y="320.4" style="fill: #a9a9a9; stroke: #a9a9a9; stroke-width: 0.8"/>
      </g>
     </g>
     <g id="text_5">
      <!-- 2023-07 -->
      <g style="fill: #a9a9a9" transform="translate(427.60993 334.998438) scale(0.1 -0.1)">
       <use xlink:href="#DejaVuSans-32"/>
       <use xlink:href="#DejaVuSans-30" transform="translate(63.623047 0)"/>
       <use xlink:href="#DejaVuSans-32" transform="translate(127.246094 0)"/>
       <use xlink:href="#DejaVuSans-33" transform="translate(190.869141 0)"/>
       <use xlink:href="#DejaVuSans-2d" transform="translate(254.492188 0)"/>
       <use xlink:href="#DejaVuSans-30" transform="translate(290.576172 0)"/>
       <use xlink:href="#DejaVuSans-37" transform="translate(354.199219 0)"/>
      </g>
     </g>
    </g>
    <g id="xtick_6">
     <g id="line2d_11">
      <path d="M 529.197171 320.4 
L 529.197171 43.2 
" clip-path="url(#pa54de87bc2)" style="fill: none; stroke-dasharray: 5.12,1.28,0.8,1.28; stroke-dashoffset: 0; stroke: #b0b0b0; stroke-width: 0.8"/>
     </g>
     <g id="line2d_12">
      <g>
       <use xlink:href="#m591622fa39" x="529.197171" y="320.4" style="fill: #a9a9a9; stroke: #a9a9a9; stroke-width: 0.8"/>
      </g>
     </g>
     <g id="text_6">
      <!-- 2024-01 -->
      <g style="fill: #a9a9a9" transform="translate(508.305764 334.998438) scale(0.1 -0.1)">
       <defs>
        <path id="DejaVuSans-34" d="M 2419 4116 
L 825 1625 
L 2419 1625 
L 2419 4116 
z
M 2253 4666 
L 3047 4666 
L 3047 1625 
L 3713 1625 
L 3713 1100 
L 3047 1100 
L 3047 0 
L 2419 0 
L 2419 1100 
L 313 1100 
L 313 1709 
L 2253 4666 
z
" transform="scale(0.015625)"/>
       </defs>
       <use xlink:href="#DejaVuSans-32"/>
       <use xlink:href="#DejaVuSans-30" transform="translate(63.623047 0)"/>
       <use xlink:href="#DejaVuSans-32" transform="translate(127.246094 0)"/>
       <use xlink:href="#DejaVuSans-34" transform="translate(190.869141 0)"/>
       <use xlink:href="#DejaVuSans-2d" transform="translate(254.492188 0)"/>
       <use xlink:href="#DejaVuSans-30" transform="translate(290.576172 0)"/>
       <use xlink:href="#DejaVuSans-31" transform="translate(354.199219 0)"/>
      </g>
     </g>
    </g>
    <g id="xtick_7">
     <g id="line2d_13">
      <path d="M 609.015876 320.4 
L 609.015876 43.2 
" clip-path="url(#pa54de87bc2)" style="fill: none; stroke-dasharray: 5.12,1.28,0.8,1.28; stroke-dashoffset: 0; stroke: #b0b0b0; stroke-width: 0.8"/>
     </g>
     <g id="line2d_14">
      <g>
       <use xlink:href="#m591622fa39" x="609.015876" y="320.4" style="fill: #a9a9a9; stroke: #a9a9a9; stroke-width: 0.8"/>
      </g>
     </g>
     <g id="text_7">
      <!-- 2024-07 -->
      <g style="fill: #a9a9a9" transform="translate(588.12447 334.998438) scale(0.1 -0.1)">
       <use xlink:href="#DejaVuSans-32"/>
       <use xlink:href="#DejaVuSans-30" transform="translate(63.623047 0)"/>
       <use xlink:href="#DejaVuSans-32" transform="translate(127.246094 0)"/>
       <use xlink:href="#DejaVuSans-34" transform="translate(190.869141 0)"/>
       <use xlink:href="#DejaVuSans-2d" transform="translate(254.492188 0)"/>
       <use xlink:href="#DejaVuSans-30" transform="translate(290.576172 0)"/>
       <use xlink:href="#DejaVuSans-37" transform="translate(354.199219 0)"/>
      </g>
     </g>
    </g>
    <g id="xtick_8">
     <g id="line2d_15">
      <path d="M 689.711711 320.4 
L 689.711711 43.2 
" clip-path="url(#pa54de87bc2)" style="fill: none; stroke-dasharray: 5.12,1.28,0.8,1.28; stroke-dashoffset: 0; stroke: #b0b0b0; stroke-width: 0.8"/>
     </g>
     <g id="line2d_16">
      <g>
       <use xlink:href="#m591622fa39" x="689.711711" y="320.4" style="fill: #a9a9a9; stroke: #a9a9a9; stroke-width: 0.8"/>
      </g>
     </g>
     <g id="text_8">
      <!-- 2025-01 -->
      <g style="fill: #a9a9a9" transform="translate(668.820305 334.998438) scale(0.1 -0.1)">
       <defs>
        <path id="DejaVuSans-35" d="M 691 4666 
L 3169 4666 
L 3169 4134 
L 1269 4134 
L 1269 2991 
Q 1406 3038 1543 3061 
Q 1681 3084 1819 3084 
Q 2600 3084 3056 2656 
Q 3513 2228 3513 1497 
Q 3513 744 3044 326 
Q 2575 -91 1722 -91 
Q 1428 -91 1123 -41 
Q 819 9 494 109 
L 494 744 
Q 775 591 1075 516 
Q 1375 441 1709 441 
Q 2250 441 2565 725 
Q 2881 1009 2881 1497 
Q 2881 1984 2565 2268 
Q 2250 2553 1709 2553 
Q 1456 2553 1204 2497 
Q 953 2441 691 2322 
L 691 4666 
z
" transform="scale(0.015625)"/>
       </defs>
       <use xlink:href="#DejaVuSans-32"/>
       <use xlink:href="#DejaVuSans-30" transform="translate(63.623047 0)"/>
       <use xlink:href="#DejaVuSans-32" transform="translate(127.246094 0)"/>
       <use xlink:href="#DejaVuSans-35" transform="translate(190.869141 0)"/>
       <use xlink:href="#DejaVuSans-2d" transform="translate(254.492188 0)"/>
       <use xlink:href="#DejaVuSans-30" transform="translate(290.576172 0)"/>
       <use xlink:href="#DejaVuSans-31" transform="translate(354.199219 0)"/>
      </g>
     </g>
    </g>
    <g id="xtick_9">
     <g id="line2d_17">
      <path d="M 769.091852 320.4 
L 769.091852 43.2 
" clip-path="url(#pa54de87bc2)" style="fill: none; stroke-dasharray: 5.12,1.28,0.8,1.28; stroke-dashoffset: 0; stroke: #b0b0b0; stroke-width: 0.8"/>
     </g>
     <g id="line2d_18">
      <g>
       <use xlink:href="#m591622fa39" x="769.091852" y="320.4" style="fill: #a9a9a9; stroke: #a9a9a9; stroke-width: 0.8"/>
      </g>
     </g>
     <g id="text_9">
      <!-- 2025-07 -->
      <g style="fill: #a9a9a9" transform="translate(748.200446 334.998438) scale(0.1 -0.1)">
       <use xlink:href="#DejaVuSans-32"/>
       <use xlink:href="#DejaVuSans-30" transform="translate(63.623047 0)"/>
       <use xlink:href="#DejaVuSans-32" transform="translate(127.246094 0)"/>
       <use xlink:href="#DejaVuSans-35" transform="translate(190.869141 0)"/>
       <use xlink:href="#DejaVuSans-2d" transform="translate(254.492188 0)"/>
       <use xlink:href="#DejaVuSans-30" transform="translate(290.576172 0)"/>
       <use xlink:href="#DejaVuSans-37" transform="translate(354.199219 0)"/>
      </g>
     </g>
    </g>
   </g>
   <g id="matplotlib.axis_2">
    <g id="ytick_1">
     <g id="line2d_19">
      <path d="M 108 307.833088 
L 777.6 307.833088 
" clip-path="url(#pa54de87bc2)" style="fill: none; stroke-dasharray: 5.12,1.28,0.8,1.28; stroke-dashoffset: 0; stroke: #b0b0b0; stroke-width: 0.8"/>
     </g>
     <g id="line2d_20">
      <defs>
       <path id="m61e7da4145" d="M 0 0 
L -3.5 0 
" style="stroke: #a9a9a9; stroke-width: 0.8"/>
      </defs>
      <g>
       <use xlink:href="#m61e7da4145" x="108" y="307.833088" style="fill: #a9a9a9; stroke: #a9a9a9; stroke-width: 0.8"/>
      </g>
     </g>
     <g id="text_10">
      <!-- 0 -->
      <g style="fill: #a9a9a9" transform="translate(94.6375 311.632307) scale(0.1 -0.1)">
       <use xlink:href="#DejaVuSans-30"/>
      </g>
     </g>
    </g>
    <g id="ytick_2">
     <g id="line2d_21">
      <path d="M 108 274.744853 
L 777.6 274.744853 
" clip-path="url(#pa54de87bc2)" style="fill: none; stroke-dasharray: 5.12,1.28,0.8,1.28; stroke-dashoffset: 0; stroke: #b0b0b0; stroke-width: 0.8"/>
     </g>
     <g id="line2d_22">
      <g>
       <use xlink:href="#m61e7da4145" x="108" y="274.744853" style="fill: #a9a9a9; stroke: #a9a9a9; stroke-width: 0.8"/>
      </g>
     </g>
     <g id="text_11">
      <!-- 1000 -->
      <g style="fill: #a9a9a9" transform="translate(75.55 278.544072) scale(0.1 -0.1)">
       <use xlink:href="#DejaVuSans-31"/>
       <use xlink:href="#DejaVuSans-30" transform="translate(63.623047 0)"/>
       <use xlink:href="#DejaVuSans-30" transform="translate(127.246094 0)"/>
       <use xlink:href="#DejaVuSans-30" transform="translate(190.869141 0)"/>
      </g>
     </g>
    </g>
    <g id="ytick_3">
     <g id="line2d_23">
      <path d="M 108 241.656618 
L 777.6 241.656618 
" clip-path="url(#pa54de87bc2)" style="fill: none; stroke-dasharray: 5.12,1.28,0.8,1.28; stroke-dashoffset: 0; stroke: #b0b0b0; stroke-width: 0.8"/>
     </g>
     <g id="line2d_24">
      <g>
       <use xlink:href="#m61e7da4145" x="108" y="241.656618" style="fill: #a9a9a9; stroke: #a9a9a9; stroke-width: 0.8"/>
      </g>
     </g>
     <g id="text_12">
      <!-- 2000 -->
      <g style="fill: #a9a9a9" transform="translate(75.55 245.455836) scale(0.1 -0.1)">
       <use xlink:href="#DejaVuSans-32"/>
       <use xlink:href="#DejaVuSans-30" transform="translate(63.623047 0)"/>
       <use xlink:href="#DejaVuSans-30" transform="translate(127.246094 0)"/>
       <use xlink:href="#DejaVuSans-30" transform="translate(190.869141 0)"/>
      </g>
     </g>
    </g>
    <g id="ytick_4">
     <g id="line2d_25">
      <path d="M 108 208.568382 
L 777.6 208.568382 
" clip-path="url(#pa54de87bc2)" style="fill: none; stroke-dasharray: 5.12,1.28,0.8,1.28; stroke-dashoffset: 0; stroke: #b0b0b0; stroke-width: 0.8"/>
     </g>
     <g id="line2d_26">
      <g>
       <use xlink:href="#m61e7da4145" x="108" y="208.568382" style="fill: #a9a9a9; stroke: #a9a9a9; stroke-width: 0.8"/>
      </g>
     </g>
     <g id="text_13">
      <!-- 3000 -->
      <g style="fill: #a9a9a9" transform="translate(75.55 212.367601) scale(0.1 -0.1)">
       <use xlink:href="#DejaVuSans-33"/>
       <use xlink:href="#DejaVuSans-30" transform="translate(63.623047 0)"/>
       <use xlink:href="#DejaVuSans-30" transform="translate(127.246094 0)"/>
       <use xlink:href="#DejaVuSans-30" transform="translate(190.869141 0)"/>
      </g>
     </g>
    </g>
    <g id="ytick_5">
     <g id="line2d_27">
      <path d="M 108 175.480147 
L 777.6 175.480147 
" clip-path="url(#pa54de87bc2)" style="fill: none; stroke-dasharray: 5.12,1.28,0.8,1.28; stroke-dashoffset: 0; stroke: #b0b0b0; stroke-width: 0.8"/>
     </g>
     <g id="line2d_28">
      <g>
       <use xlink:href="#m61e7da4145" x="108" y="175.480147" style="fill: #a9a9a9; stroke: #a9a9a9; stroke-width: 0.8"/>
      </g>
     </g>
     <g id="text_14">
      <!-- 4000 -->
      <g style="fill: #a9a9a9" transform="translate(75.55 179.279366) scale(0.1 -0.1)">
       <use xlink:href="#DejaVuSans-34"/>
       <use xlink:href="#DejaVuSans-30" transform="translate(63.623047 0)"/>
       <use xlink:href="#DejaVuSans-30" transform="translate(127.246094 0)"/>
       <use xlink:href="#DejaVuSans-30" transform="translate(190.869141 0)"/>
      </g>
     </g>
    </g>
    <g id="ytick_6">
     <g id="line2d_29">
      <path d="M 108 142.391912 
L 777.6 142.391912 
" clip-path="url(#pa54de87bc2)" style="fill: none; stroke-dasharray: 5.12,1.28,0.8,1.28; stroke-dashoffset: 0; stroke: #b0b0b0; stroke-width: 0.8"/>
     </g>
     <g id="line2d_30">
      <g>
       <use xlink:href="#m61e7da4145" x="108" y="142.391912" style="fill: #a9a9a9; stroke: #a9a9a9; stroke-width: 0.8"/>
      </g>
     </g>
     <g id="text_15">
      <!-- 5000 -->
      <g style="fill: #a9a9a9" transform="translate(75.55 146.191131) scale(0.1 -0.1)">
       <use xlink:href="#DejaVuSans-35"/>
       <use xlink:href="#DejaVuSans-30" transform="translate(63.623047 0)"/>
       <use xlink:href="#DejaVuSans-30" transform="translate(127.246094 0)"/>
       <use xlink:href="#DejaVuSans-30" transform="translate(190.869141 0)"/>
      </g>
     </g>
    </g>
    <g id="ytick_7">
     <g id="line2d_31">
      <path d="M 108 109.303676 
L 777.6 109.303676 
" clip-path="url(#pa54de87bc2)" style="fill: none; stroke-dasharray: 5.12,1.28,0.8,1.28; stroke-dashoffset: 0; stroke: #b0b0b0; stroke-width: 0.8"/>
     </g>
     <g id="line2d_32">
      <g>
       <use xlink:href="#m61e7da4145" x="108" y="109.303676" style="fill: #a9a9a9; stroke: #a9a9a9; stroke-width: 0.8"/>
      </g>
     </g>
     <g id="text_16">
      <!-- 6000 -->
      <g style="fill: #a9a9a9" transform="translate(75.55 113.102895) scale(0.1 -0.1)">
       <defs>
        <path id="DejaVuSans-36" d="M 2113 2584 
Q 1688 2584 1439 2293 
Q 1191 2003 1191 1497 
Q 1191 994 1439 701 
Q 1688 409 2113 409 
Q 2538 409 2786 701 
Q 3034 994 3034 1497 
Q 3034 2003 2786 2293 
Q 2538 2584 2113 2584 
z
M 3366 4563 
L 3366 3988 
Q 3128 4100 2886 4159 
Q 2644 4219 2406 4219 
Q 1781 4219 1451 3797 
Q 1122 3375 1075 2522 
Q 1259 2794 1537 2939 
Q 1816 3084 2150 3084 
Q 2853 3084 3261 2657 
Q 3669 2231 3669 1497 
Q 3669 778 3244 343 
Q 2819 -91 2113 -91 
Q 1303 -91 875 529 
Q 447 1150 447 2328 
Q 447 3434 972 4092 
Q 1497 4750 2381 4750 
Q 2619 4750 2861 4703 
Q 3103 4656 3366 4563 
z
" transform="scale(0.015625)"/>
       </defs>
       <use xlink:href="#DejaVuSans-36"/>
       <use xlink:href="#DejaVuSans-30" transform="translate(63.623047 0)"/>
       <use xlink:href="#DejaVuSans-30" transform="translate(127.246094 0)"/>
       <use xlink:href="#DejaVuSans-30" transform="translate(190.869141 0)"/>
      </g>
     </g>
    </g>
    <g id="ytick_8">
     <g id="line2d_33">
      <path d="M 108 76.215441 
L 777.6 76.215441 
" clip-path="url(#pa54de87bc2)" style="fill: none; stroke-dasharray: 5.12,1.28,0.8,1.28; stroke-dashoffset: 0; stroke: #b0b0b0; stroke-width: 0.8"/>
     </g>
     <g id="line2d_34">
      <g>
       <use xlink:href="#m61e7da4145" x="108" y="76.215441" style="fill: #a9a9a9; stroke: #a9a9a9; stroke-width: 0.8"/>
      </g>
     </g>
     <g id="text_17">
      <!-- 7000 -->
      <g style="fill: #a9a9a9" transform="translate(75.55 80.01466) scale(0.1 -0.1)">
       <use xlink:href="#DejaVuSans-37"/>
       <use xlink:href="#DejaVuSans-30" transform="translate(63.623047 0)"/>
       <use xlink:href="#DejaVuSans-30" transform="translate(127.246094 0)"/>
       <use xlink:href="#DejaVuSans-30" transform="translate(190.869141 0)"/>
      </g>
     </g>
    </g>
   </g>
   <g id="line2d_35">
    <path d="M 138.436364 307.733824 
L 141.06775 307.502206 
L 141.506314 307.303676 
L 143.260571 307.072059 
L 145.014828 306.708088 
L 145.891957 306.575735 
L 148.084779 306.377206 
L 148.961907 306.013235 
L 149.400472 305.417647 
L 149.839036 305.119853 
L 150.2776 304.127206 
L 150.716165 304.061029 
L 151.154729 303.697059 
L 152.031857 303.233824 
L 153.786115 301.777941 
L 155.540372 300.884559 
L 156.856065 300.255882 
L 157.294629 299.527941 
L 158.171758 298.866176 
L 158.610322 298.667647 
L 162.995965 298.005882 
L 163.43453 297.807353 
L 166.50448 297.542647 
L 168.258737 297.1125 
L 171.767252 296.616176 
L 172.205816 296.384559 
L 172.64438 296.318382 
L 173.521509 296.020588 
L 176.591459 295.491176 
L 177.468588 295.226471 
L 181.415667 294.531618 
L 182.292795 294.333088 
L 183.169924 294.3 
L 184.924181 293.869853 
L 185.362746 293.241176 
L 186.678439 292.711765 
L 187.994132 292.347794 
L 188.432696 292.116176 
L 189.309824 291.950735 
L 191.064082 291.421324 
L 191.94121 291.355147 
L 192.818339 291.123529 
L 194.572596 290.660294 
L 195.011161 290.627206 
L 195.888289 290.197059 
L 196.326854 290.130882 
L 196.765418 289.899265 
L 201.589625 289.072059 
L 203.343883 288.542647 
L 203.782447 288.244853 
L 205.975269 287.516912 
L 206.852397 286.888235 
L 208.16809 286.623529 
L 217.816505 283.744853 
L 218.255069 283.711765 
L 219.570762 283.314706 
L 220.009327 283.314706 
L 220.447891 283.116176 
L 221.32502 283.016912 
L 221.763584 282.851471 
L 223.517841 282.785294 
L 224.39497 282.619853 
L 225.272099 282.156618 
L 226.587791 281.660294 
L 227.46492 281.197059 
L 228.342049 280.733824 
L 229.219177 280.436029 
L 229.657742 280.303676 
L 230.53487 279.741176 
L 230.973435 279.244853 
L 231.850563 277.855147 
L 232.289128 277.722794 
L 232.727692 277.722794 
L 234.043385 276.928676 
L 234.481949 276.697059 
L 234.920513 276.597794 
L 235.359078 276.167647 
L 236.236206 275.803676 
L 237.113335 275.373529 
L 239.306157 272.494853 
L 241.937543 271.038971 
L 242.814671 270.311029 
L 243.253236 270.046324 
L 243.6918 269.417647 
L 244.130364 268.391912 
L 244.568928 267.697059 
L 245.007493 267.333088 
L 245.446057 267.134559 
L 248.954572 263.825735 
L 249.8317 262.998529 
L 252.463086 261.311029 
L 252.901651 261.145588 
L 254.655908 260.086765 
L 255.094472 259.888235 
L 257.287294 257.836765 
L 258.164422 257.472794 
L 259.041551 256.844118 
L 259.480115 256.579412 
L 259.91868 256.513235 
L 261.234373 255.752206 
L 261.672937 255.255882 
L 263.865758 254.031618 
L 264.304323 253.866176 
L 265.620016 252.939706 
L 272.19848 250.557353 
L 273.075609 249.730147 
L 274.391302 249.068382 
L 275.268431 248.505882 
L 276.145559 248.241176 
L 276.584124 247.943382 
L 277.022688 247.811029 
L 278.338381 246.917647 
L 280.531203 246.421324 
L 281.846895 245.627206 
L 283.162588 245.329412 
L 283.601153 245.230147 
L 284.916846 244.204412 
L 286.671103 243.708088 
L 287.109667 243.344118 
L 289.741053 242.417647 
L 290.618182 242.252206 
L 291.49531 241.888235 
L 294.565261 240.730147 
L 295.442389 240.597794 
L 296.758082 240.134559 
L 298.950904 239.042647 
L 300.705161 238.05 
L 304.213676 236.561029 
L 304.65224 236.494853 
L 305.529369 235.932353 
L 306.406497 235.700735 
L 307.72219 235.171324 
L 309.476447 234.939706 
L 310.353576 234.476471 
L 310.79214 234.079412 
L 311.230705 233.285294 
L 312.984962 232.788971 
L 314.300655 232.094118 
L 315.177784 231.796324 
L 316.054912 231.333088 
L 318.686298 230.241176 
L 319.563427 230.042647 
L 320.440555 229.579412 
L 320.87912 229.380882 
L 321.317684 229.314706 
L 323.510506 228.222794 
L 324.387634 227.660294 
L 325.703327 227.395588 
L 327.896149 226.833088 
L 328.334713 226.469118 
L 329.211842 226.171324 
L 331.404663 225.277941 
L 331.843228 224.947059 
L 332.281792 224.781618 
L 333.158921 224.285294 
L 334.913178 223.722794 
L 335.790307 223.160294 
L 336.228871 222.697059 
L 336.667435 222.432353 
L 337.105999 222.333088 
L 337.983128 221.605147 
L 338.421692 221.538971 
L 338.860257 220.811029 
L 339.298821 220.6125 
L 339.737385 220.248529 
L 340.17595 220.182353 
L 341.053078 219.619853 
L 341.930207 219.322059 
L 342.368771 218.991176 
L 342.807336 218.825735 
L 344.561593 217.634559 
L 345.877286 216.939706 
L 346.754414 216.708088 
L 347.631543 216.211765 
L 348.070107 215.450735 
L 348.947236 214.788971 
L 349.3858 214.689706 
L 352.017186 213.399265 
L 352.894315 213.035294 
L 353.771444 212.406618 
L 354.648572 211.513235 
L 358.595651 208.402941 
L 359.034215 208.038971 
L 359.911344 207.741176 
L 360.788473 207.145588 
L 362.104166 206.450735 
L 362.54273 206.384559 
L 363.858423 205.656618 
L 364.735551 205.094118 
L 369.121195 203.439706 
L 369.559759 203.075735 
L 371.314016 202.380882 
L 371.752581 202.248529 
L 372.629709 201.652941 
L 373.506838 201.288971 
L 374.383966 200.660294 
L 375.261095 198.873529 
L 376.138224 197.814706 
L 377.453917 197.119853 
L 378.331045 196.755882 
L 378.76961 196.689706 
L 379.208174 196.425 
L 381.400996 195.697059 
L 381.83956 195.498529 
L 382.716688 194.902941 
L 384.032381 194.340441 
L 384.90951 193.844118 
L 385.786639 193.314706 
L 386.225203 193.016912 
L 386.663767 192.520588 
L 387.97946 191.759559 
L 388.418025 191.594118 
L 389.295153 191.064706 
L 391.049411 190.105147 
L 391.487975 190.005882 
L 391.926539 189.641912 
L 394.996489 188.649265 
L 395.435054 188.318382 
L 396.312182 188.053676 
L 397.189311 187.689706 
L 397.627875 187.325735 
L 399.382133 186.697059 
L 400.259261 186.068382 
L 401.13639 185.704412 
L 402.013518 185.009559 
L 402.890647 184.744853 
L 403.329211 184.347794 
L 403.767776 184.281618 
L 404.644904 183.586765 
L 405.522033 183.123529 
L 405.960597 182.925 
L 406.399162 182.461765 
L 409.469112 181.204412 
L 410.346241 180.807353 
L 411.661933 180.377206 
L 412.539062 180.244853 
L 412.977626 180.046324 
L 413.416191 179.980147 
L 414.293319 179.583088 
L 414.731884 179.55 
L 416.486141 178.888235 
L 417.801834 177.928676 
L 418.240398 177.763235 
L 419.117527 177.266912 
L 419.556091 177.134559 
L 422.187477 175.645588 
L 422.626041 175.546324 
L 423.941734 174.752206 
L 425.257427 174.288971 
L 426.134556 173.991176 
L 427.888813 173.395588 
L 428.765942 173.097794 
L 430.520199 172.733824 
L 430.958763 172.535294 
L 431.835892 172.303676 
L 432.274456 172.105147 
L 432.713021 172.038971 
L 433.151585 171.807353 
L 434.028714 171.641912 
L 435.344407 171.145588 
L 436.221535 171.046324 
L 437.537228 170.748529 
L 439.73005 170.351471 
L 451.132722 166.910294 
L 451.571286 166.447059 
L 452.448415 166.083088 
L 455.95693 164.726471 
L 456.395494 164.461765 
L 457.711187 164.064706 
L 458.588315 163.833088 
L 459.02688 163.535294 
L 459.465444 163.436029 
L 459.904008 163.038971 
L 461.219701 162.774265 
L 462.09683 162.344118 
L 462.535394 161.814706 
L 464.289652 161.384559 
L 467.359602 160.722794 
L 467.798166 160.722794 
L 468.23673 160.524265 
L 469.990988 160.193382 
L 470.429552 159.994853 
L 472.183809 159.663971 
L 473.060938 159.3 
L 473.938067 159.134559 
L 476.130888 158.572059 
L 477.885145 158.009559 
L 478.32371 157.910294 
L 478.762274 157.678676 
L 479.639403 157.447059 
L 480.516531 157.083088 
L 481.39366 156.752206 
L 481.832224 156.454412 
L 482.709353 156.189706 
L 485.779303 155.031618 
L 487.53356 154.8 
L 491.042075 153.509559 
L 491.480639 153.178676 
L 491.919204 153.079412 
L 492.357768 152.847794 
L 492.796332 152.814706 
L 497.62054 151.061029 
L 499.813361 150.465441 
L 500.69049 150.035294 
L 502.006183 149.7375 
L 503.76044 148.281618 
L 505.514697 147.520588 
L 506.391826 147.123529 
L 509.023212 146.097794 
L 509.461776 145.8 
L 511.654598 145.072059 
L 512.970291 144.311029 
L 513.408855 144.211765 
L 515.163112 143.219118 
L 516.91737 142.425 
L 517.355934 142.094118 
L 518.233063 141.796324 
L 520.425884 140.671324 
L 521.741577 140.208088 
L 523.495834 139.480147 
L 524.811527 138.983824 
L 525.250092 138.818382 
L 526.12722 138.686029 
L 526.565785 138.388235 
L 528.320042 138.024265 
L 529.197171 137.660294 
L 530.951428 136.833088 
L 537.091328 134.119853 
L 538.407021 133.689706 
L 538.845586 133.391912 
L 539.722714 133.292647 
L 540.161278 132.994853 
L 541.038407 132.829412 
L 541.915536 132.399265 
L 542.3541 132.200735 
L 543.231229 131.969118 
L 544.108357 131.704412 
L 545.42405 131.208088 
L 546.739743 130.777941 
L 548.055436 130.480147 
L 549.809693 129.752206 
L 550.686822 129.255882 
L 552.441079 128.3625 
L 553.318208 128.163971 
L 553.756772 127.899265 
L 554.195337 127.8 
L 555.51103 127.038971 
L 556.388158 126.675 
L 566.036573 122.936029 
L 567.79083 122.108824 
L 572.176474 120.388235 
L 573.053602 119.958088 
L 573.492167 119.858824 
L 573.930731 119.627206 
L 575.684988 119.130882 
L 577.439245 117.675 
L 577.87781 117.542647 
L 578.316374 117.277941 
L 579.632067 116.913971 
L 580.070631 116.583088 
L 580.509196 116.483824 
L 581.386324 115.921324 
L 582.702017 115.226471 
L 583.579146 114.8625 
L 584.01771 114.630882 
L 585.333403 114.333088 
L 587.526225 113.572059 
L 588.403353 113.274265 
L 589.719046 112.6125 
L 590.596175 112.182353 
L 591.473304 111.950735 
L 592.788997 111.322059 
L 596.736075 109.833088 
L 598.051768 109.005882 
L 598.490333 108.906618 
L 599.367461 108.476471 
L 600.24459 108.145588 
L 600.683154 107.748529 
L 601.560283 107.384559 
L 602.875976 106.921324 
L 603.31454 106.557353 
L 603.753105 106.524265 
L 604.630233 106.259559 
L 605.507362 105.961765 
L 605.945926 105.763235 
L 606.38449 105.697059 
L 607.700183 105.200735 
L 609.015876 104.704412 
L 610.770134 103.910294 
L 611.647262 103.678676 
L 612.085827 103.413971 
L 612.962955 103.182353 
L 614.278648 102.421324 
L 614.717212 102.388235 
L 616.032905 101.958088 
L 616.910034 101.891912 
L 617.348598 101.660294 
L 618.225727 101.428676 
L 618.664291 101.197059 
L 620.857113 100.766912 
L 621.734242 100.601471 
L 623.049935 100.105147 
L 624.365627 99.807353 
L 625.68132 99.1125 
L 626.119885 98.715441 
L 627.435578 97.921324 
L 627.874142 97.590441 
L 629.189835 97.160294 
L 630.066964 96.895588 
L 630.505528 96.663971 
L 630.944092 96.564706 
L 631.382657 96.200735 
L 634.014042 95.075735 
L 635.7683 94.6125 
L 636.645428 94.215441 
L 637.083993 93.983824 
L 637.961121 93.719118 
L 638.399686 93.454412 
L 639.276814 93.288971 
L 642.785329 91.766912 
L 643.223893 91.700735 
L 644.539586 90.840441 
L 644.97815 90.774265 
L 646.732408 90.079412 
L 648.486665 89.649265 
L 648.925229 89.583088 
L 649.363794 89.384559 
L 649.802358 89.351471 
L 650.679487 89.053676 
L 651.118051 89.020588 
L 652.433744 88.491176 
L 654.188001 87.994853 
L 655.06513 87.333088 
L 656.819387 86.340441 
L 658.13508 85.877206 
L 661.643594 84.189706 
L 662.082159 83.958088 
L 662.520723 83.561029 
L 664.713545 82.965441 
L 666.029238 82.369853 
L 666.906366 82.138235 
L 667.344931 81.906618 
L 667.783495 81.542647 
L 669.537752 81.079412 
L 669.976316 80.748529 
L 675.677653 78.663971 
L 676.554781 78.498529 
L 678.747603 77.803676 
L 679.624731 77.439706 
L 680.50186 77.108824 
L 681.378989 76.877206 
L 681.817553 76.678676 
L 682.256117 76.678676 
L 683.133246 76.314706 
L 684.010375 75.785294 
L 687.080325 74.759559 
L 688.834582 74.163971 
L 690.150275 73.866176 
L 691.465968 73.436029 
L 691.904532 73.336765 
L 692.343097 73.038971 
L 693.220225 72.840441 
L 694.974483 72.344118 
L 695.413047 72.311029 
L 696.290176 71.913971 
L 699.360126 71.152941 
L 700.237254 70.788971 
L 704.622898 69.796324 
L 705.938591 69.101471 
L 707.254283 68.704412 
L 711.639927 67.083088 
L 712.078491 66.752206 
L 713.394184 66.454412 
L 714.271313 66.189706 
L 715.148441 65.759559 
L 715.587006 65.395588 
L 716.464134 65.130882 
L 716.902698 64.866176 
L 717.779827 64.766912 
L 720.849777 63.906618 
L 722.16547 63.641912 
L 724.796856 62.781618 
L 726.551113 61.954412 
L 731.375321 60.134559 
L 732.25245 60.002206 
L 733.129578 59.836765 
L 733.568143 59.836765 
L 735.3224 59.274265 
L 735.760964 59.208088 
L 736.638093 58.844118 
L 737.953786 58.447059 
L 739.269479 58.016912 
L 741.4623 57.520588 
L 741.900865 57.255882 
L 742.777993 57.090441 
L 743.655122 56.991176 
L 744.093686 56.759559 
L 744.53225 56.726471 
L 745.409379 56.163971 
L 747.163636 55.8 
L 747.163636 55.8 
" clip-path="url(#pa54de87bc2)" style="fill: none; stroke: #1f77b4; stroke-width: 1.5; stroke-linecap: square"/>
   </g>
   <g id="line2d_36">
    <path d="M 138.874928 307.8 
L 142.822007 307.700735 
L 146.330521 307.535294 
L 148.084779 307.535294 
L 148.523343 307.402941 
L 150.716165 307.303676 
L 153.34755 307.005882 
L 155.978936 306.906618 
L 156.856065 306.807353 
L 159.926015 306.675 
L 162.995965 306.575735 
L 165.188787 306.509559 
L 170.890123 306.410294 
L 173.082945 306.344118 
L 177.030024 306.244853 
L 178.784281 306.211765 
L 183.169924 306.1125 
L 184.924181 305.947059 
L 186.678439 305.913971 
L 189.309824 305.814706 
L 191.064082 305.781618 
L 193.256903 305.715441 
L 195.011161 305.55 
L 198.958239 305.450735 
L 199.835368 305.384559 
L 201.589625 305.285294 
L 204.221011 305.186029 
L 205.975269 305.086765 
L 213.869426 304.590441 
L 216.939376 304.491176 
L 218.255069 304.358824 
L 220.447891 304.259559 
L 224.833534 304.027941 
L 229.219177 303.961765 
L 230.973435 303.763235 
L 232.727692 303.663971 
L 237.551899 303.200735 
L 240.62185 302.836765 
L 241.937543 302.770588 
L 245.446057 302.307353 
L 248.077443 302.241176 
L 249.393136 302.108824 
L 250.708829 302.009559 
L 262.98863 301.05 
L 263.865758 300.884559 
L 266.497144 300.785294 
L 273.514173 300.355147 
L 276.584124 300.255882 
L 278.338381 300.057353 
L 280.531203 299.958088 
L 283.162588 299.858824 
L 285.35541 299.759559 
L 287.109667 299.726471 
L 289.302489 299.660294 
L 290.179618 299.527941 
L 296.319518 299.428676 
L 297.196647 299.329412 
L 302.459418 299.230147 
L 306.406497 299.031618 
L 309.476447 298.932353 
L 311.230705 298.733824 
L 314.300655 298.634559 
L 315.177784 298.469118 
L 317.370605 298.402941 
L 321.756248 298.336765 
L 323.510506 298.171324 
L 325.264763 298.138235 
L 326.580456 298.038971 
L 328.334713 297.873529 
L 332.720356 297.641912 
L 337.105999 297.542647 
L 341.053078 297.344118 
L 342.368771 297.311029 
L 343.2459 297.178676 
L 345.438722 297.079412 
L 346.31585 297.013235 
L 347.192979 296.947059 
L 348.070107 296.880882 
L 352.017186 296.814706 
L 353.332879 296.715441 
L 365.174116 295.921324 
L 367.366937 295.822059 
L 369.559759 295.755882 
L 375.699659 295.656618 
L 376.576788 295.524265 
L 382.716688 295.425 
L 387.102332 295.193382 
L 387.97946 295.160294 
L 388.856589 295.061029 
L 391.049411 294.961765 
L 393.242232 294.895588 
L 395.435054 294.796324 
L 397.627875 294.730147 
L 401.574954 294.630882 
L 404.20634 294.531618 
L 410.346241 294.432353 
L 415.170448 294.167647 
L 416.924705 294.101471 
L 418.240398 294.002206 
L 424.380299 293.902941 
L 427.011685 293.803676 
L 434.905842 293.704412 
L 436.6601 293.671324 
L 441.922871 293.605147 
L 442.8 293.538971 
L 448.9399 293.439706 
L 450.694158 293.406618 
L 462.09683 293.307353 
L 464.728216 293.208088 
L 483.147917 293.108824 
L 485.340739 293.042647 
L 496.743411 292.976471 
L 497.62054 292.910294 
L 499.813361 292.844118 
L 501.129054 292.711765 
L 503.76044 292.6125 
L 506.83039 292.480147 
L 510.777469 292.380882 
L 512.970291 292.314706 
L 516.040241 292.215441 
L 519.548756 292.05 
L 521.741577 291.950735 
L 523.495834 291.917647 
L 527.442913 291.818382 
L 529.197171 291.785294 
L 534.898507 291.686029 
L 536.652764 291.652941 
L 538.845586 291.553676 
L 541.476971 291.454412 
L 544.546922 291.388235 
L 545.42405 291.322059 
L 555.949594 291.222794 
L 561.65093 290.891912 
L 563.843752 290.825735 
L 564.72088 290.726471 
L 565.598009 290.660294 
L 569.106523 290.561029 
L 571.737909 290.461765 
L 576.123553 290.3625 
L 578.316374 290.130882 
L 582.702017 290.031618 
L 583.579146 289.932353 
L 587.964789 289.833088 
L 590.157611 289.766912 
L 594.981818 289.733824 
L 595.858947 289.634559 
L 600.683154 289.535294 
L 601.560283 289.469118 
L 611.208698 289.369853 
L 613.840084 289.270588 
L 620.418549 289.171324 
L 622.172806 289.138235 
L 626.119885 289.072059 
L 626.997013 288.972794 
L 632.698349 288.873529 
L 634.891171 288.807353 
L 642.785329 288.708088 
L 644.101022 288.608824 
L 645.416715 288.509559 
L 646.732408 288.410294 
L 653.310872 288.311029 
L 655.942258 288.211765 
L 667.783495 288.1125 
L 671.730574 287.913971 
L 676.993346 287.814706 
L 677.870474 287.748529 
L 684.448939 287.682353 
L 685.326068 287.616176 
L 690.150275 287.516912 
L 691.904532 287.483824 
L 698.044433 287.384559 
L 700.675819 287.285294 
L 708.131412 287.186029 
L 709.885669 287.152941 
L 713.832748 287.053676 
L 717.341263 286.888235 
L 722.16547 286.788971 
L 725.23542 286.656618 
L 729.182499 286.557353 
L 730.059628 286.491176 
L 738.830914 286.391912 
L 741.023736 286.325735 
L 743.655122 286.226471 
L 746.286508 286.127206 
L 747.163636 286.094118 
L 747.163636 286.094118 
" clip-path="url(#pa54de87bc2)" style="fill: none; stroke: #ff7f0e; stroke-width: 1.5; stroke-linecap: square"/>
   </g>
   <g id="patch_3">
    <path d="M 108 320.4 
L 108 43.2 
" style="fill: none; stroke: #a9a9a9; stroke-width: 0.8; stroke-linejoin: miter; stroke-linecap: square"/>
   </g>
   <g id="patch_4">
    <path d="M 777.6 320.4 
L 777.6 43.2 
" style="fill: none"/>
   </g>
   <g id="patch_5">
    <path d="M 108 320.4 
L 777.6 320.4 
" style="fill: none; stroke: #a9a9a9; stroke-width: 0.8; stroke-linejoin: miter; stroke-linecap: square"/>
   </g>
   <g id="patch_6">
    <path d="M 108 43.2 
L 777.6 43.2 
" style="fill: none"/>
   </g>
   <g id="text_18">
    <!-- get_subscribe history -->
    <g style="fill: #a9a9a9" transform="translate(378.6075 37.2) scale(0.12 -0.12)">
     <defs>
      <path id="DejaVuSans-67" d="M 2906 1791 
Q 2906 2416 2648 2759 
Q 2391 3103 1925 3103 
Q 1463 3103 1205 2759 
Q 947 2416 947 1791 
Q 947 1169 1205 825 
Q 1463 481 1925 481 
Q 2391 481 2648 825 
Q 2906 1169 2906 1791 
z
M 3481 434 
Q 3481 -459 3084 -895 
Q 2688 -1331 1869 -1331 
Q 1566 -1331 1297 -1286 
Q 1028 -1241 775 -1147 
L 775 -588 
Q 1028 -725 1275 -790 
Q 1522 -856 1778 -856 
Q 2344 -856 2625 -561 
Q 2906 -266 2906 331 
L 2906 616 
Q 2728 306 2450 153 
Q 2172 0 1784 0 
Q 1141 0 747 490 
Q 353 981 353 1791 
Q 353 2603 747 3093 
Q 1141 3584 1784 3584 
Q 2172 3584 2450 3431 
Q 2728 3278 2906 2969 
L 2906 3500 
L 3481 3500 
L 3481 434 
z
" transform="scale(0.015625)"/>
      <path id="DejaVuSans-65" d="M 3597 1894 
L 3597 1613 
L 953 1613 
Q 991 1019 1311 708 
Q 1631 397 2203 397 
Q 2534 397 2845 478 
Q 3156 559 3463 722 
L 3463 178 
Q 3153 47 2828 -22 
Q 2503 -91 2169 -91 
Q 1331 -91 842 396 
Q 353 884 353 1716 
Q 353 2575 817 3079 
Q 1281 3584 2069 3584 
Q 2775 3584 3186 3129 
Q 3597 2675 3597 1894 
z
M 3022 2063 
Q 3016 2534 2758 2815 
Q 2500 3097 2075 3097 
Q 1594 3097 1305 2825 
Q 1016 2553 972 2059 
L 3022 2063 
z
" transform="scale(0.015625)"/>
      <path id="DejaVuSans-74" d="M 1172 4494 
L 1172 3500 
L 2356 3500 
L 2356 3053 
L 1172 3053 
L 1172 1153 
Q 1172 725 1289 603 
Q 1406 481 1766 481 
L 2356 481 
L 2356 0 
L 1766 0 
Q 1100 0 847 248 
Q 594 497 594 1153 
L 594 3053 
L 172 3053 
L 172 3500 
L 594 3500 
L 594 4494 
L 1172 4494 
z
" transform="scale(0.015625)"/>
      <path id="DejaVuSans-5f" d="M 3263 -1063 
L 3263 -1509 
L -63 -1509 
L -63 -1063 
L 3263 -1063 
z
" transform="scale(0.015625)"/>
      <path id="DejaVuSans-73" d="M 2834 3397 
L 2834 2853 
Q 2591 2978 2328 3040 
Q 2066 3103 1784 3103 
Q 1356 3103 1142 2972 
Q 928 2841 928 2578 
Q 928 2378 1081 2264 
Q 1234 2150 1697 2047 
L 1894 2003 
Q 2506 1872 2764 1633 
Q 3022 1394 3022 966 
Q 3022 478 2636 193 
Q 2250 -91 1575 -91 
Q 1294 -91 989 -36 
Q 684 19 347 128 
L 347 722 
Q 666 556 975 473 
Q 1284 391 1588 391 
Q 1994 391 2212 530 
Q 2431 669 2431 922 
Q 2431 1156 2273 1281 
Q 2116 1406 1581 1522 
L 1381 1569 
Q 847 1681 609 1914 
Q 372 2147 372 2553 
Q 372 3047 722 3315 
Q 1072 3584 1716 3584 
Q 2034 3584 2315 3537 
Q 2597 3491 2834 3397 
z
" transform="scale(0.015625)"/>
      <path id="DejaVuSans-75" d="M 544 1381 
L 544 3500 
L 1119 3500 
L 1119 1403 
Q 1119 906 1312 657 
Q 1506 409 1894 409 
Q 2359 409 2629 706 
Q 2900 1003 2900 1516 
L 2900 3500 
L 3475 3500 
L 3475 0 
L 2900 0 
L 2900 538 
Q 2691 219 2414 64 
Q 2138 -91 1772 -91 
Q 1169 -91 856 284 
Q 544 659 544 1381 
z
M 1991 3584 
L 1991 3584 
z
" transform="scale(0.015625)"/>
      <path id="DejaVuSans-62" d="M 3116 1747 
Q 3116 2381 2855 2742 
Q 2594 3103 2138 3103 
Q 1681 3103 1420 2742 
Q 1159 2381 1159 1747 
Q 1159 1113 1420 752 
Q 1681 391 2138 391 
Q 2594 391 2855 752 
Q 3116 1113 3116 1747 
z
M 1159 2969 
Q 1341 3281 1617 3432 
Q 1894 3584 2278 3584 
Q 2916 3584 3314 3078 
Q 3713 2572 3713 1747 
Q 3713 922 3314 415 
Q 2916 -91 2278 -91 
Q 1894 -91 1617 61 
Q 1341 213 1159 525 
L 1159 0 
L 581 0 
L 581 4863 
L 1159 4863 
L 1159 2969 
z
" transform="scale(0.015625)"/>
      <path id="DejaVuSans-63" d="M 3122 3366 
L 3122 2828 
Q 2878 2963 2633 3030 
Q 2388 3097 2138 3097 
Q 1578 3097 1268 2742 
Q 959 2388 959 1747 
Q 959 1106 1268 751 
Q 1578 397 2138 397 
Q 2388 397 2633 464 
Q 2878 531 3122 666 
L 3122 134 
Q 2881 22 2623 -34 
Q 2366 -91 2075 -91 
Q 1284 -91 818 406 
Q 353 903 353 1747 
Q 353 2603 823 3093 
Q 1294 3584 2113 3584 
Q 2378 3584 2631 3529 
Q 2884 3475 3122 3366 
z
" transform="scale(0.015625)"/>
      <path id="DejaVuSans-72" d="M 2631 2963 
Q 2534 3019 2420 3045 
Q 2306 3072 2169 3072 
Q 1681 3072 1420 2755 
Q 1159 2438 1159 1844 
L 1159 0 
L 581 0 
L 581 3500 
L 1159 3500 
L 1159 2956 
Q 1341 3275 1631 3429 
Q 1922 3584 2338 3584 
Q 2397 3584 2469 3576 
Q 2541 3569 2628 3553 
L 2631 2963 
z
" transform="scale(0.015625)"/>
      <path id="DejaVuSans-69" d="M 603 3500 
L 1178 3500 
L 1178 0 
L 603 0 
L 603 3500 
z
M 603 4863 
L 1178 4863 
L 1178 4134 
L 603 4134 
L 603 4863 
z
" transform="scale(0.015625)"/>
      <path id="DejaVuSans-20" transform="scale(0.015625)"/>
      <path id="DejaVuSans-68" d="M 3513 2113 
L 3513 0 
L 2938 0 
L 2938 2094 
Q 2938 2591 2744 2837 
Q 2550 3084 2163 3084 
Q 1697 3084 1428 2787 
Q 1159 2491 1159 1978 
L 1159 0 
L 581 0 
L 581 4863 
L 1159 4863 
L 1159 2956 
Q 1366 3272 1645 3428 
Q 1925 3584 2291 3584 
Q 2894 3584 3203 3211 
Q 3513 2838 3513 2113 
z
" transform="scale(0.015625)"/>
      <path id="DejaVuSans-6f" d="M 1959 3097 
Q 1497 3097 1228 2736 
Q 959 2375 959 1747 
Q 959 1119 1226 758 
Q 1494 397 1959 397 
Q 2419 397 2687 759 
Q 2956 1122 2956 1747 
Q 2956 2369 2687 2733 
Q 2419 3097 1959 3097 
z
M 1959 3584 
Q 2709 3584 3137 3096 
Q 3566 2609 3566 1747 
Q 3566 888 3137 398 
Q 2709 -91 1959 -91 
Q 1206 -91 779 398 
Q 353 888 353 1747 
Q 353 2609 779 3096 
Q 1206 3584 1959 3584 
z
" transform="scale(0.015625)"/>
      <path id="DejaVuSans-79" d="M 2059 -325 
Q 1816 -950 1584 -1140 
Q 1353 -1331 966 -1331 
L 506 -1331 
L 506 -850 
L 844 -850 
Q 1081 -850 1212 -737 
Q 1344 -625 1503 -206 
L 1606 56 
L 191 3500 
L 800 3500 
L 1894 763 
L 2988 3500 
L 3597 3500 
L 2059 -325 
z
" transform="scale(0.015625)"/>
     </defs>
     <use xlink:href="#DejaVuSans-67"/>
     <use xlink:href="#DejaVuSans-65" transform="translate(63.476562 0)"/>
     <use xlink:href="#DejaVuSans-74" transform="translate(125 0)"/>
     <use xlink:href="#DejaVuSans-5f" transform="translate(164.208984 0)"/>
     <use xlink:href="#DejaVuSans-73" transform="translate(214.208984 0)"/>
     <use xlink:href="#DejaVuSans-75" transform="translate(266.308594 0)"/>
     <use xlink:href="#DejaVuSans-62" transform="translate(329.6875 0)"/>
     <use xlink:href="#DejaVuSans-73" transform="translate(393.164062 0)"/>
     <use xlink:href="#DejaVuSans-63" transform="translate(445.263672 0)"/>
     <use xlink:href="#DejaVuSans-72" transform="translate(500.244141 0)"/>
     <use xlink:href="#DejaVuSans-69" transform="translate(541.357422 0)"/>
     <use xlink:href="#DejaVuSans-62" transform="translate(569.140625 0)"/>
     <use xlink:href="#DejaVuSans-65" transform="translate(632.617188 0)"/>
     <use xlink:href="#DejaVuSans-20" transform="translate(694.140625 0)"/>
     <use xlink:href="#DejaVuSans-68" transform="translate(725.927734 0)"/>
     <use xlink:href="#DejaVuSans-69" transform="translate(789.306641 0)"/>
     <use xlink:href="#DejaVuSans-73" transform="translate(817.089844 0)"/>
     <use xlink:href="#DejaVuSans-74" transform="translate(869.189453 0)"/>
     <use xlink:href="#DejaVuSans-6f" transform="translate(908.398438 0)"/>
     <use xlink:href="#DejaVuSans-72" transform="translate(969.580078 0)"/>
     <use xlink:href="#DejaVuSans-79" transform="translate(1010.693359 0)"/>
    </g>
   </g>
   <g id="legend_1">
    <g id="line2d_37">
     <path d="M 815.08 328.498438 
L 825.08 328.498438 
L 835.08 328.498438 
" style="fill: none; stroke: #1f77b4; stroke-width: 1.5; stroke-linecap: square"/>
    </g>
    <g id="text_19">
     <!-- star -->
     <g style="fill: #a9a9a9" transform="translate(843.08 331.998438) scale(0.1 -0.1)">
      <defs>
       <path id="DejaVuSans-61" d="M 2194 1759 
Q 1497 1759 1228 1600 
Q 959 1441 959 1056 
Q 959 750 1161 570 
Q 1363 391 1709 391 
Q 2188 391 2477 730 
Q 2766 1069 2766 1631 
L 2766 1759 
L 2194 1759 
z
M 3341 1997 
L 3341 0 
L 2766 0 
L 2766 531 
Q 2569 213 2275 61 
Q 1981 -91 1556 -91 
Q 1019 -91 701 211 
Q 384 513 384 1019 
Q 384 1609 779 1909 
Q 1175 2209 1959 2209 
L 2766 2209 
L 2766 2266 
Q 2766 2663 2505 2880 
Q 2244 3097 1772 3097 
Q 1472 3097 1187 3025 
Q 903 2953 641 2809 
L 641 3341 
Q 956 3463 1253 3523 
Q 1550 3584 1831 3584 
Q 2591 3584 2966 3190 
Q 3341 2797 3341 1997 
z
" transform="scale(0.015625)"/>
      </defs>
      <use xlink:href="#DejaVuSans-73"/>
      <use xlink:href="#DejaVuSans-74" transform="translate(52.099609 0)"/>
      <use xlink:href="#DejaVuSans-61" transform="translate(91.308594 0)"/>
      <use xlink:href="#DejaVuSans-72" transform="translate(152.587891 0)"/>
     </g>
    </g>
    <g id="line2d_38">
     <path d="M 815.08 343.176562 
L 825.08 343.176562 
L 835.08 343.176562 
" style="fill: none; stroke: #ff7f0e; stroke-width: 1.5; stroke-linecap: square"/>
    </g>
    <g id="text_20">
     <!-- fork -->
     <g style="fill: #a9a9a9" transform="translate(843.08 346.676562) scale(0.1 -0.1)">
      <defs>
       <path id="DejaVuSans-66" d="M 2375 4863 
L 2375 4384 
L 1825 4384 
Q 1516 4384 1395 4259 
Q 1275 4134 1275 3809 
L 1275 3500 
L 2222 3500 
L 2222 3053 
L 1275 3053 
L 1275 0 
L 697 0 
L 697 3053 
L 147 3053 
L 147 3500 
L 697 3500 
L 697 3744 
Q 697 4328 969 4595 
Q 1241 4863 1831 4863 
L 2375 4863 
z
" transform="scale(0.015625)"/>
       <path id="DejaVuSans-6b" d="M 581 4863 
L 1159 4863 
L 1159 1991 
L 2875 3500 
L 3609 3500 
L 1753 1863 
L 3688 0 
L 2938 0 
L 1159 1709 
L 1159 0 
L 581 0 
L 581 4863 
z
" transform="scale(0.015625)"/>
      </defs>
      <use xlink:href="#DejaVuSans-66"/>
      <use xlink:href="#DejaVuSans-6f" transform="translate(35.205078 0)"/>
      <use xlink:href="#DejaVuSans-72" transform="translate(96.386719 0)"/>
      <use xlink:href="#DejaVuSans-6b" transform="translate(137.5 0)"/>
     </g>
    </g>
   </g>
  </g>
 </g>
 <defs>
  <clipPath id="pa54de87bc2">
   <rect x="108" y="43.2" width="669.6" height="277.2"/>
  </clipPath>
 </defs>
</svg>
