<?xml version="1.0" encoding="utf-8" standalone="no"?>
<!DOCTYPE svg PUBLIC "-//W3C//DTD SVG 1.1//EN"
  "http://www.w3.org/Graphics/SVG/1.1/DTD/svg11.dtd">
<svg xmlns:xlink="http://www.w3.org/1999/xlink" width="864pt" height="360pt" viewBox="0 0 864 360" xmlns="http://www.w3.org/2000/svg" version="1.1">
 <metadata>
  <rdf:RDF xmlns:dc="http://purl.org/dc/elements/1.1/" xmlns:cc="http://creativecommons.org/ns#" xmlns:rdf="http://www.w3.org/1999/02/22-rdf-syntax-ns#">
   <cc:Work>
    <dc:type rdf:resource="http://purl.org/dc/dcmitype/StillImage"/>
    <dc:date>2025-02-18T20:05:52.158515</dc:date>
    <dc:format>image/svg+xml</dc:format>
    <dc:creator>
     <cc:Agent>
      <dc:title>Matplotlib v3.10.0, https://matplotlib.org/</dc:title>
     </cc:Agent>
    </dc:creator>
   </cc:Work>
  </rdf:RDF>
 </metadata>
 <defs>
  <style type="text/css">*{stroke-linejoin: round; stroke-linecap: butt}</style>
 </defs>
 <g id="figure_1">
  <g id="patch_1">
   <path d="M 0 360 
L 864 360 
L 864 0 
L 0 0 
L 0 360 
z
" style="fill: none; opacity: 0"/>
  </g>
  <g id="axes_1">
   <g id="patch_2">
    <path d="M 108 320.4 
L 777.6 320.4 
L 777.6 43.2 
L 108 43.2 
L 108 320.4 
z
" style="fill: none; opacity: 0"/>
   </g>
   <g id="matplotlib.axis_1">
    <g id="xtick_1">
     <g id="line2d_1">
      <path d="M 127.707837 320.4 
L 127.707837 43.2 
" clip-path="url(#p44b951dadd)" style="fill: none; stroke-dasharray: 5.12,1.28,0.8,1.28; stroke-dashoffset: 0; stroke: #b0b0b0; stroke-width: 0.8"/>
     </g>
     <g id="line2d_2">
      <defs>
       <path id="m43c6c91edc" d="M 0 0 
L 0 3.5 
" style="stroke: #a9a9a9; stroke-width: 0.8"/>
      </defs>
      <g>
       <use xlink:href="#m43c6c91edc" x="127.707837" y="320.4" style="fill: #a9a9a9; stroke: #a9a9a9; stroke-width: 0.8"/>
      </g>
     </g>
     <g id="text_1">
      <!-- 2021-07 -->
      <g style="fill: #a9a9a9" transform="translate(106.816431 334.998438) scale(0.1 -0.1)">
       <defs>
        <path id="DejaVuSans-32" d="M 1228 531 
L 3431 531 
L 3431 0 
L 469 0 
L 469 531 
Q 828 903 1448 1529 
Q 2069 2156 2228 2338 
Q 2531 2678 2651 2914 
Q 2772 3150 2772 3378 
Q 2772 3750 2511 3984 
Q 2250 4219 1831 4219 
Q 1534 4219 1204 4116 
Q 875 4013 500 3803 
L 500 4441 
Q 881 4594 1212 4672 
Q 1544 4750 1819 4750 
Q 2544 4750 2975 4387 
Q 3406 4025 3406 3419 
Q 3406 3131 3298 2873 
Q 3191 2616 2906 2266 
Q 2828 2175 2409 1742 
Q 1991 1309 1228 531 
z
" transform="scale(0.015625)"/>
        <path id="DejaVuSans-30" d="M 2034 4250 
Q 1547 4250 1301 3770 
Q 1056 3291 1056 2328 
Q 1056 1369 1301 889 
Q 1547 409 2034 409 
Q 2525 409 2770 889 
Q 3016 1369 3016 2328 
Q 3016 3291 2770 3770 
Q 2525 4250 2034 4250 
z
M 2034 4750 
Q 2819 4750 3233 4129 
Q 3647 3509 3647 2328 
Q 3647 1150 3233 529 
Q 2819 -91 2034 -91 
Q 1250 -91 836 529 
Q 422 1150 422 2328 
Q 422 3509 836 4129 
Q 1250 4750 2034 4750 
z
" transform="scale(0.015625)"/>
        <path id="DejaVuSans-31" d="M 794 531 
L 1825 531 
L 1825 4091 
L 703 3866 
L 703 4441 
L 1819 4666 
L 2450 4666 
L 2450 531 
L 3481 531 
L 3481 0 
L 794 0 
L 794 531 
z
" transform="scale(0.015625)"/>
        <path id="DejaVuSans-2d" d="M 313 2009 
L 1997 2009 
L 1997 1497 
L 313 1497 
L 313 2009 
z
" transform="scale(0.015625)"/>
        <path id="DejaVuSans-37" d="M 525 4666 
L 3525 4666 
L 3525 4397 
L 1831 0 
L 1172 0 
L 2766 4134 
L 525 4134 
L 525 4666 
z
" transform="scale(0.015625)"/>
       </defs>
       <use xlink:href="#DejaVuSans-32"/>
       <use xlink:href="#DejaVuSans-30" transform="translate(63.623047 0)"/>
       <use xlink:href="#DejaVuSans-32" transform="translate(127.246094 0)"/>
       <use xlink:href="#DejaVuSans-31" transform="translate(190.869141 0)"/>
       <use xlink:href="#DejaVuSans-2d" transform="translate(254.492188 0)"/>
       <use xlink:href="#DejaVuSans-30" transform="translate(290.576172 0)"/>
       <use xlink:href="#DejaVuSans-37" transform="translate(354.199219 0)"/>
      </g>
     </g>
    </g>
    <g id="xtick_2">
     <g id="line2d_3">
      <path d="M 213.53605 320.4 
L 213.53605 43.2 
" clip-path="url(#p44b951dadd)" style="fill: none; stroke-dasharray: 5.12,1.28,0.8,1.28; stroke-dashoffset: 0; stroke: #b0b0b0; stroke-width: 0.8"/>
     </g>
     <g id="line2d_4">
      <g>
       <use xlink:href="#m43c6c91edc" x="213.53605" y="320.4" style="fill: #a9a9a9; stroke: #a9a9a9; stroke-width: 0.8"/>
      </g>
     </g>
     <g id="text_2">
      <!-- 2022-01 -->
      <g style="fill: #a9a9a9" transform="translate(192.644644 334.998438) scale(0.1 -0.1)">
       <use xlink:href="#DejaVuSans-32"/>
       <use xlink:href="#DejaVuSans-30" transform="translate(63.623047 0)"/>
       <use xlink:href="#DejaVuSans-32" transform="translate(127.246094 0)"/>
       <use xlink:href="#DejaVuSans-32" transform="translate(190.869141 0)"/>
       <use xlink:href="#DejaVuSans-2d" transform="translate(254.492188 0)"/>
       <use xlink:href="#DejaVuSans-30" transform="translate(290.576172 0)"/>
       <use xlink:href="#DejaVuSans-31" transform="translate(354.199219 0)"/>
      </g>
     </g>
    </g>
    <g id="xtick_3">
     <g id="line2d_5">
      <path d="M 297.96489 320.4 
L 297.96489 43.2 
" clip-path="url(#p44b951dadd)" style="fill: none; stroke-dasharray: 5.12,1.28,0.8,1.28; stroke-dashoffset: 0; stroke: #b0b0b0; stroke-width: 0.8"/>
     </g>
     <g id="line2d_6">
      <g>
       <use xlink:href="#m43c6c91edc" x="297.96489" y="320.4" style="fill: #a9a9a9; stroke: #a9a9a9; stroke-width: 0.8"/>
      </g>
     </g>
     <g id="text_3">
      <!-- 2022-07 -->
      <g style="fill: #a9a9a9" transform="translate(277.073484 334.998438) scale(0.1 -0.1)">
       <use xlink:href="#DejaVuSans-32"/>
       <use xlink:href="#DejaVuSans-30" transform="translate(63.623047 0)"/>
       <use xlink:href="#DejaVuSans-32" transform="translate(127.246094 0)"/>
       <use xlink:href="#DejaVuSans-32" transform="translate(190.869141 0)"/>
       <use xlink:href="#DejaVuSans-2d" transform="translate(254.492188 0)"/>
       <use xlink:href="#DejaVuSans-30" transform="translate(290.576172 0)"/>
       <use xlink:href="#DejaVuSans-37" transform="translate(354.199219 0)"/>
      </g>
     </g>
    </g>
    <g id="xtick_4">
     <g id="line2d_7">
      <path d="M 383.793103 320.4 
L 383.793103 43.2 
" clip-path="url(#p44b951dadd)" style="fill: none; stroke-dasharray: 5.12,1.28,0.8,1.28; stroke-dashoffset: 0; stroke: #b0b0b0; stroke-width: 0.8"/>
     </g>
     <g id="line2d_8">
      <g>
       <use xlink:href="#m43c6c91edc" x="383.793103" y="320.4" style="fill: #a9a9a9; stroke: #a9a9a9; stroke-width: 0.8"/>
      </g>
     </g>
     <g id="text_4">
      <!-- 2023-01 -->
      <g style="fill: #a9a9a9" transform="translate(362.901697 334.998438) scale(0.1 -0.1)">
       <defs>
        <path id="DejaVuSans-33" d="M 2597 2516 
Q 3050 2419 3304 2112 
Q 3559 1806 3559 1356 
Q 3559 666 3084 287 
Q 2609 -91 1734 -91 
Q 1441 -91 1130 -33 
Q 819 25 488 141 
L 488 750 
Q 750 597 1062 519 
Q 1375 441 1716 441 
Q 2309 441 2620 675 
Q 2931 909 2931 1356 
Q 2931 1769 2642 2001 
Q 2353 2234 1838 2234 
L 1294 2234 
L 1294 2753 
L 1863 2753 
Q 2328 2753 2575 2939 
Q 2822 3125 2822 3475 
Q 2822 3834 2567 4026 
Q 2313 4219 1838 4219 
Q 1578 4219 1281 4162 
Q 984 4106 628 3988 
L 628 4550 
Q 988 4650 1302 4700 
Q 1616 4750 1894 4750 
Q 2613 4750 3031 4423 
Q 3450 4097 3450 3541 
Q 3450 3153 3228 2886 
Q 3006 2619 2597 2516 
z
" transform="scale(0.015625)"/>
       </defs>
       <use xlink:href="#DejaVuSans-32"/>
       <use xlink:href="#DejaVuSans-30" transform="translate(63.623047 0)"/>
       <use xlink:href="#DejaVuSans-32" transform="translate(127.246094 0)"/>
       <use xlink:href="#DejaVuSans-33" transform="translate(190.869141 0)"/>
       <use xlink:href="#DejaVuSans-2d" transform="translate(254.492188 0)"/>
       <use xlink:href="#DejaVuSans-30" transform="translate(290.576172 0)"/>
       <use xlink:href="#DejaVuSans-31" transform="translate(354.199219 0)"/>
      </g>
     </g>
    </g>
    <g id="xtick_5">
     <g id="line2d_9">
      <path d="M 468.221944 320.4 
L 468.221944 43.2 
" clip-path="url(#p44b951dadd)" style="fill: none; stroke-dasharray: 5.12,1.28,0.8,1.28; stroke-dashoffset: 0; stroke: #b0b0b0; stroke-width: 0.8"/>
     </g>
     <g id="line2d_10">
      <g>
       <use xlink:href="#m43c6c91edc" x="468.221944" y="320.4" style="fill: #a9a9a9; stroke: #a9a9a9; stroke-width: 0.8"/>
      </g>
     </g>
     <g id="text_5">
      <!-- 2023-07 -->
      <g style="fill: #a9a9a9" transform="translate(447.330537 334.998438) scale(0.1 -0.1)">
       <use xlink:href="#DejaVuSans-32"/>
       <use xlink:href="#DejaVuSans-30" transform="translate(63.623047 0)"/>
       <use xlink:href="#DejaVuSans-32" transform="translate(127.246094 0)"/>
       <use xlink:href="#DejaVuSans-33" transform="translate(190.869141 0)"/>
       <use xlink:href="#DejaVuSans-2d" transform="translate(254.492188 0)"/>
       <use xlink:href="#DejaVuSans-30" transform="translate(290.576172 0)"/>
       <use xlink:href="#DejaVuSans-37" transform="translate(354.199219 0)"/>
      </g>
     </g>
    </g>
    <g id="xtick_6">
     <g id="line2d_11">
      <path d="M 554.050157 320.4 
L 554.050157 43.2 
" clip-path="url(#p44b951dadd)" style="fill: none; stroke-dasharray: 5.12,1.28,0.8,1.28; stroke-dashoffset: 0; stroke: #b0b0b0; stroke-width: 0.8"/>
     </g>
     <g id="line2d_12">
      <g>
       <use xlink:href="#m43c6c91edc" x="554.050157" y="320.4" style="fill: #a9a9a9; stroke: #a9a9a9; stroke-width: 0.8"/>
      </g>
     </g>
     <g id="text_6">
      <!-- 2024-01 -->
      <g style="fill: #a9a9a9" transform="translate(533.15875 334.998438) scale(0.1 -0.1)">
       <defs>
        <path id="DejaVuSans-34" d="M 2419 4116 
L 825 1625 
L 2419 1625 
L 2419 4116 
z
M 2253 4666 
L 3047 4666 
L 3047 1625 
L 3713 1625 
L 3713 1100 
L 3047 1100 
L 3047 0 
L 2419 0 
L 2419 1100 
L 313 1100 
L 313 1709 
L 2253 4666 
z
" transform="scale(0.015625)"/>
       </defs>
       <use xlink:href="#DejaVuSans-32"/>
       <use xlink:href="#DejaVuSans-30" transform="translate(63.623047 0)"/>
       <use xlink:href="#DejaVuSans-32" transform="translate(127.246094 0)"/>
       <use xlink:href="#DejaVuSans-34" transform="translate(190.869141 0)"/>
       <use xlink:href="#DejaVuSans-2d" transform="translate(254.492188 0)"/>
       <use xlink:href="#DejaVuSans-30" transform="translate(290.576172 0)"/>
       <use xlink:href="#DejaVuSans-31" transform="translate(354.199219 0)"/>
      </g>
     </g>
    </g>
    <g id="xtick_7">
     <g id="line2d_13">
      <path d="M 638.945455 320.4 
L 638.945455 43.2 
" clip-path="url(#p44b951dadd)" style="fill: none; stroke-dasharray: 5.12,1.28,0.8,1.28; stroke-dashoffset: 0; stroke: #b0b0b0; stroke-width: 0.8"/>
     </g>
     <g id="line2d_14">
      <g>
       <use xlink:href="#m43c6c91edc" x="638.945455" y="320.4" style="fill: #a9a9a9; stroke: #a9a9a9; stroke-width: 0.8"/>
      </g>
     </g>
     <g id="text_7">
      <!-- 2024-07 -->
      <g style="fill: #a9a9a9" transform="translate(618.054048 334.998438) scale(0.1 -0.1)">
       <use xlink:href="#DejaVuSans-32"/>
       <use xlink:href="#DejaVuSans-30" transform="translate(63.623047 0)"/>
       <use xlink:href="#DejaVuSans-32" transform="translate(127.246094 0)"/>
       <use xlink:href="#DejaVuSans-34" transform="translate(190.869141 0)"/>
       <use xlink:href="#DejaVuSans-2d" transform="translate(254.492188 0)"/>
       <use xlink:href="#DejaVuSans-30" transform="translate(290.576172 0)"/>
       <use xlink:href="#DejaVuSans-37" transform="translate(354.199219 0)"/>
      </g>
     </g>
    </g>
    <g id="xtick_8">
     <g id="line2d_15">
      <path d="M 724.773668 320.4 
L 724.773668 43.2 
" clip-path="url(#p44b951dadd)" style="fill: none; stroke-dasharray: 5.12,1.28,0.8,1.28; stroke-dashoffset: 0; stroke: #b0b0b0; stroke-width: 0.8"/>
     </g>
     <g id="line2d_16">
      <g>
       <use xlink:href="#m43c6c91edc" x="724.773668" y="320.4" style="fill: #a9a9a9; stroke: #a9a9a9; stroke-width: 0.8"/>
      </g>
     </g>
     <g id="text_8">
      <!-- 2025-01 -->
      <g style="fill: #a9a9a9" transform="translate(703.882261 334.998438) scale(0.1 -0.1)">
       <defs>
        <path id="DejaVuSans-35" d="M 691 4666 
L 3169 4666 
L 3169 4134 
L 1269 4134 
L 1269 2991 
Q 1406 3038 1543 3061 
Q 1681 3084 1819 3084 
Q 2600 3084 3056 2656 
Q 3513 2228 3513 1497 
Q 3513 744 3044 326 
Q 2575 -91 1722 -91 
Q 1428 -91 1123 -41 
Q 819 9 494 109 
L 494 744 
Q 775 591 1075 516 
Q 1375 441 1709 441 
Q 2250 441 2565 725 
Q 2881 1009 2881 1497 
Q 2881 1984 2565 2268 
Q 2250 2553 1709 2553 
Q 1456 2553 1204 2497 
Q 953 2441 691 2322 
L 691 4666 
z
" transform="scale(0.015625)"/>
       </defs>
       <use xlink:href="#DejaVuSans-32"/>
       <use xlink:href="#DejaVuSans-30" transform="translate(63.623047 0)"/>
       <use xlink:href="#DejaVuSans-32" transform="translate(127.246094 0)"/>
       <use xlink:href="#DejaVuSans-35" transform="translate(190.869141 0)"/>
       <use xlink:href="#DejaVuSans-2d" transform="translate(254.492188 0)"/>
       <use xlink:href="#DejaVuSans-30" transform="translate(290.576172 0)"/>
       <use xlink:href="#DejaVuSans-31" transform="translate(354.199219 0)"/>
      </g>
     </g>
    </g>
   </g>
   <g id="matplotlib.axis_2">
    <g id="ytick_1">
     <g id="line2d_17">
      <path d="M 108 307.834403 
L 777.6 307.834403 
" clip-path="url(#p44b951dadd)" style="fill: none; stroke-dasharray: 5.12,1.28,0.8,1.28; stroke-dashoffset: 0; stroke: #b0b0b0; stroke-width: 0.8"/>
     </g>
     <g id="line2d_18">
      <defs>
       <path id="m5d011250ce" d="M 0 0 
L -3.5 0 
" style="stroke: #a9a9a9; stroke-width: 0.8"/>
      </defs>
      <g>
       <use xlink:href="#m5d011250ce" x="108" y="307.834403" style="fill: #a9a9a9; stroke: #a9a9a9; stroke-width: 0.8"/>
      </g>
     </g>
     <g id="text_9">
      <!-- 0 -->
      <g style="fill: #a9a9a9" transform="translate(94.6375 311.633621) scale(0.1 -0.1)">
       <use xlink:href="#DejaVuSans-30"/>
      </g>
     </g>
    </g>
    <g id="ytick_2">
     <g id="line2d_19">
      <path d="M 108 273.431672 
L 777.6 273.431672 
" clip-path="url(#p44b951dadd)" style="fill: none; stroke-dasharray: 5.12,1.28,0.8,1.28; stroke-dashoffset: 0; stroke: #b0b0b0; stroke-width: 0.8"/>
     </g>
     <g id="line2d_20">
      <g>
       <use xlink:href="#m5d011250ce" x="108" y="273.431672" style="fill: #a9a9a9; stroke: #a9a9a9; stroke-width: 0.8"/>
      </g>
     </g>
     <g id="text_10">
      <!-- 1000 -->
      <g style="fill: #a9a9a9" transform="translate(75.55 277.230891) scale(0.1 -0.1)">
       <use xlink:href="#DejaVuSans-31"/>
       <use xlink:href="#DejaVuSans-30" transform="translate(63.623047 0)"/>
       <use xlink:href="#DejaVuSans-30" transform="translate(127.246094 0)"/>
       <use xlink:href="#DejaVuSans-30" transform="translate(190.869141 0)"/>
      </g>
     </g>
    </g>
    <g id="ytick_3">
     <g id="line2d_21">
      <path d="M 108 239.028942 
L 777.6 239.028942 
" clip-path="url(#p44b951dadd)" style="fill: none; stroke-dasharray: 5.12,1.28,0.8,1.28; stroke-dashoffset: 0; stroke: #b0b0b0; stroke-width: 0.8"/>
     </g>
     <g id="line2d_22">
      <g>
       <use xlink:href="#m5d011250ce" x="108" y="239.028942" style="fill: #a9a9a9; stroke: #a9a9a9; stroke-width: 0.8"/>
      </g>
     </g>
     <g id="text_11">
      <!-- 2000 -->
      <g style="fill: #a9a9a9" transform="translate(75.55 242.828161) scale(0.1 -0.1)">
       <use xlink:href="#DejaVuSans-32"/>
       <use xlink:href="#DejaVuSans-30" transform="translate(63.623047 0)"/>
       <use xlink:href="#DejaVuSans-30" transform="translate(127.246094 0)"/>
       <use xlink:href="#DejaVuSans-30" transform="translate(190.869141 0)"/>
      </g>
     </g>
    </g>
    <g id="ytick_4">
     <g id="line2d_23">
      <path d="M 108 204.626212 
L 777.6 204.626212 
" clip-path="url(#p44b951dadd)" style="fill: none; stroke-dasharray: 5.12,1.28,0.8,1.28; stroke-dashoffset: 0; stroke: #b0b0b0; stroke-width: 0.8"/>
     </g>
     <g id="line2d_24">
      <g>
       <use xlink:href="#m5d011250ce" x="108" y="204.626212" style="fill: #a9a9a9; stroke: #a9a9a9; stroke-width: 0.8"/>
      </g>
     </g>
     <g id="text_12">
      <!-- 3000 -->
      <g style="fill: #a9a9a9" transform="translate(75.55 208.42543) scale(0.1 -0.1)">
       <use xlink:href="#DejaVuSans-33"/>
       <use xlink:href="#DejaVuSans-30" transform="translate(63.623047 0)"/>
       <use xlink:href="#DejaVuSans-30" transform="translate(127.246094 0)"/>
       <use xlink:href="#DejaVuSans-30" transform="translate(190.869141 0)"/>
      </g>
     </g>
    </g>
    <g id="ytick_5">
     <g id="line2d_25">
      <path d="M 108 170.223481 
L 777.6 170.223481 
" clip-path="url(#p44b951dadd)" style="fill: none; stroke-dasharray: 5.12,1.28,0.8,1.28; stroke-dashoffset: 0; stroke: #b0b0b0; stroke-width: 0.8"/>
     </g>
     <g id="line2d_26">
      <g>
       <use xlink:href="#m5d011250ce" x="108" y="170.223481" style="fill: #a9a9a9; stroke: #a9a9a9; stroke-width: 0.8"/>
      </g>
     </g>
     <g id="text_13">
      <!-- 4000 -->
      <g style="fill: #a9a9a9" transform="translate(75.55 174.0227) scale(0.1 -0.1)">
       <use xlink:href="#DejaVuSans-34"/>
       <use xlink:href="#DejaVuSans-30" transform="translate(63.623047 0)"/>
       <use xlink:href="#DejaVuSans-30" transform="translate(127.246094 0)"/>
       <use xlink:href="#DejaVuSans-30" transform="translate(190.869141 0)"/>
      </g>
     </g>
    </g>
    <g id="ytick_6">
     <g id="line2d_27">
      <path d="M 108 135.820751 
L 777.6 135.820751 
" clip-path="url(#p44b951dadd)" style="fill: none; stroke-dasharray: 5.12,1.28,0.8,1.28; stroke-dashoffset: 0; stroke: #b0b0b0; stroke-width: 0.8"/>
     </g>
     <g id="line2d_28">
      <g>
       <use xlink:href="#m5d011250ce" x="108" y="135.820751" style="fill: #a9a9a9; stroke: #a9a9a9; stroke-width: 0.8"/>
      </g>
     </g>
     <g id="text_14">
      <!-- 5000 -->
      <g style="fill: #a9a9a9" transform="translate(75.55 139.61997) scale(0.1 -0.1)">
       <use xlink:href="#DejaVuSans-35"/>
       <use xlink:href="#DejaVuSans-30" transform="translate(63.623047 0)"/>
       <use xlink:href="#DejaVuSans-30" transform="translate(127.246094 0)"/>
       <use xlink:href="#DejaVuSans-30" transform="translate(190.869141 0)"/>
      </g>
     </g>
    </g>
    <g id="ytick_7">
     <g id="line2d_29">
      <path d="M 108 101.41802 
L 777.6 101.41802 
" clip-path="url(#p44b951dadd)" style="fill: none; stroke-dasharray: 5.12,1.28,0.8,1.28; stroke-dashoffset: 0; stroke: #b0b0b0; stroke-width: 0.8"/>
     </g>
     <g id="line2d_30">
      <g>
       <use xlink:href="#m5d011250ce" x="108" y="101.41802" style="fill: #a9a9a9; stroke: #a9a9a9; stroke-width: 0.8"/>
      </g>
     </g>
     <g id="text_15">
      <!-- 6000 -->
      <g style="fill: #a9a9a9" transform="translate(75.55 105.217239) scale(0.1 -0.1)">
       <defs>
        <path id="DejaVuSans-36" d="M 2113 2584 
Q 1688 2584 1439 2293 
Q 1191 2003 1191 1497 
Q 1191 994 1439 701 
Q 1688 409 2113 409 
Q 2538 409 2786 701 
Q 3034 994 3034 1497 
Q 3034 2003 2786 2293 
Q 2538 2584 2113 2584 
z
M 3366 4563 
L 3366 3988 
Q 3128 4100 2886 4159 
Q 2644 4219 2406 4219 
Q 1781 4219 1451 3797 
Q 1122 3375 1075 2522 
Q 1259 2794 1537 2939 
Q 1816 3084 2150 3084 
Q 2853 3084 3261 2657 
Q 3669 2231 3669 1497 
Q 3669 778 3244 343 
Q 2819 -91 2113 -91 
Q 1303 -91 875 529 
Q 447 1150 447 2328 
Q 447 3434 972 4092 
Q 1497 4750 2381 4750 
Q 2619 4750 2861 4703 
Q 3103 4656 3366 4563 
z
" transform="scale(0.015625)"/>
       </defs>
       <use xlink:href="#DejaVuSans-36"/>
       <use xlink:href="#DejaVuSans-30" transform="translate(63.623047 0)"/>
       <use xlink:href="#DejaVuSans-30" transform="translate(127.246094 0)"/>
       <use xlink:href="#DejaVuSans-30" transform="translate(190.869141 0)"/>
      </g>
     </g>
    </g>
    <g id="ytick_8">
     <g id="line2d_31">
      <path d="M 108 67.01529 
L 777.6 67.01529 
" clip-path="url(#p44b951dadd)" style="fill: none; stroke-dasharray: 5.12,1.28,0.8,1.28; stroke-dashoffset: 0; stroke: #b0b0b0; stroke-width: 0.8"/>
     </g>
     <g id="line2d_32">
      <g>
       <use xlink:href="#m5d011250ce" x="108" y="67.01529" style="fill: #a9a9a9; stroke: #a9a9a9; stroke-width: 0.8"/>
      </g>
     </g>
     <g id="text_16">
      <!-- 7000 -->
      <g style="fill: #a9a9a9" transform="translate(75.55 70.814509) scale(0.1 -0.1)">
       <use xlink:href="#DejaVuSans-37"/>
       <use xlink:href="#DejaVuSans-30" transform="translate(63.623047 0)"/>
       <use xlink:href="#DejaVuSans-30" transform="translate(127.246094 0)"/>
       <use xlink:href="#DejaVuSans-30" transform="translate(190.869141 0)"/>
      </g>
     </g>
    </g>
   </g>
   <g id="line2d_33">
    <path d="M 138.436364 307.731195 
L 141.23511 307.490375 
L 141.701567 307.283959 
L 143.567398 307.04314 
L 145.433229 306.66471 
L 146.366144 306.527099 
L 148.698433 306.320683 
L 149.631348 305.942253 
L 150.097806 305.323003 
L 150.564263 305.013379 
L 151.030721 303.946894 
L 151.497179 303.878089 
L 151.963636 303.499659 
L 152.896552 303.01802 
L 154.762382 301.5043 
L 156.628213 300.575427 
L 158.027586 299.921775 
L 158.494044 299.164915 
L 159.426959 298.47686 
L 159.893417 298.270444 
L 164.557994 297.582389 
L 165.024451 297.375973 
L 168.289655 297.100751 
L 170.155486 296.653515 
L 173.887147 296.137474 
L 174.353605 295.896655 
L 174.820063 295.82785 
L 175.752978 295.518225 
L 179.018182 294.967782 
L 179.951097 294.69256 
L 184.149216 293.970102 
L 185.082132 293.763686 
L 186.015047 293.729283 
L 187.880878 293.282048 
L 188.347335 292.628396 
L 189.746708 292.077952 
L 191.146082 291.699522 
L 191.612539 291.458703 
L 192.545455 291.286689 
L 194.411285 290.736246 
L 195.344201 290.66744 
L 196.277116 290.426621 
L 198.142947 289.944983 
L 198.609404 289.91058 
L 199.54232 289.463345 
L 200.008777 289.394539 
L 200.475235 289.15372 
L 205.60627 288.293652 
L 207.4721 287.743208 
L 207.938558 287.433584 
L 210.270846 286.642321 
L 211.203762 285.988669 
L 212.603135 285.713447 
L 224.731034 282.238771 
L 225.197492 282.238771 
L 225.66395 282.032355 
L 226.596865 281.929147 
L 227.063323 281.757133 
L 228.929154 281.688328 
L 229.862069 281.516314 
L 230.794984 281.034676 
L 232.194357 280.518635 
L 232.660815 280.20901 
L 233.59373 279.796177 
L 234.060188 279.555358 
L 234.993103 279.245734 
L 235.459561 279.108123 
L 236.392476 278.523276 
L 236.858934 278.007235 
L 237.79185 276.562321 
L 238.258307 276.42471 
L 238.724765 276.42471 
L 240.124138 275.599044 
L 240.590596 275.358225 
L 241.057053 275.255017 
L 241.523511 274.807782 
L 242.456426 274.429352 
L 243.389342 273.982116 
L 245.72163 270.989078 
L 248.520376 269.475358 
L 249.453292 268.718498 
L 249.919749 268.408874 
L 250.386207 267.755222 
L 250.852665 266.688737 
L 251.319122 265.96628 
L 251.78558 265.58785 
L 252.252038 265.381433 
L 255.983699 261.94116 
L 256.916614 261.081092 
L 259.715361 259.326553 
L 260.181818 259.154539 
L 261.581191 258.328874 
L 262.980564 257.4 
L 264.846395 255.714266 
L 265.77931 255.335836 
L 266.712226 254.682184 
L 267.178683 254.406962 
L 267.645141 254.338157 
L 269.044514 253.546894 
L 269.510972 253.030853 
L 271.84326 251.757952 
L 272.309718 251.585939 
L 273.709091 250.622662 
L 280.705956 248.145666 
L 281.638871 247.285597 
L 283.038245 246.597543 
L 283.97116 246.012696 
L 284.904075 245.737474 
L 285.370533 245.42785 
L 285.836991 245.290239 
L 287.236364 244.361365 
L 289.568652 243.810922 
L 290.968025 242.985256 
L 292.367398 242.675631 
L 292.833856 242.53802 
L 294.233229 241.471536 
L 296.09906 240.955495 
L 296.565517 240.577065 
L 299.364263 239.613788 
L 300.297179 239.441775 
L 301.230094 239.063345 
L 304.495298 237.859249 
L 305.428213 237.721638 
L 306.827586 237.24 
L 309.159875 236.10471 
L 311.025705 235.072628 
L 314.757367 233.524505 
L 315.223824 233.4557 
L 316.15674 232.870853 
L 316.623197 232.802048 
L 318.489028 232.045188 
L 320.354859 231.804369 
L 321.287774 231.32273 
L 321.754232 230.909898 
L 322.22069 230.049829 
L 324.08652 229.533788 
L 325.485893 228.811331 
L 326.418809 228.501706 
L 327.351724 228.020068 
L 330.15047 226.884778 
L 331.083386 226.678362 
L 332.016301 226.196724 
L 332.482759 225.990307 
L 332.949216 225.921502 
L 334.815047 225.061433 
L 336.21442 224.166962 
L 337.613793 223.891741 
L 339.479624 223.3757 
L 339.946082 223.341297 
L 340.412539 222.962867 
L 341.345455 222.653242 
L 343.677743 221.724369 
L 344.144201 221.380341 
L 344.610658 221.208328 
L 345.543574 220.692287 
L 347.409404 220.10744 
L 347.875862 219.866621 
L 349.275235 218.731331 
L 349.741693 218.628123 
L 350.674608 217.871263 
L 351.141066 217.802457 
L 351.607524 217.045597 
L 352.073981 216.839181 
L 352.540439 216.460751 
L 353.006897 216.391945 
L 353.939812 215.807099 
L 354.872727 215.497474 
L 355.339185 215.153447 
L 355.805643 214.981433 
L 357.671473 213.742935 
L 358.604389 213.226894 
L 359.070846 212.986075 
L 360.003762 212.745256 
L 360.936677 212.229215 
L 361.403135 211.437952 
L 362.33605 210.749898 
L 362.802508 210.646689 
L 365.601254 209.304983 
L 366.534169 208.926553 
L 367.933542 207.75686 
L 368.866458 206.965597 
L 369.799373 206.415154 
L 370.265831 205.899113 
L 370.732288 205.589488 
L 371.665204 204.832628 
L 372.131661 204.626212 
L 372.598119 204.075768 
L 373.064577 203.697338 
L 373.997492 203.353311 
L 374.930408 202.734061 
L 376.329781 202.011604 
L 376.796238 201.942799 
L 378.195611 201.185939 
L 379.128527 200.601092 
L 383.793103 198.880956 
L 384.259561 198.502526 
L 386.125392 197.780068 
L 386.59185 197.642457 
L 387.524765 197.023208 
L 388.45768 196.610375 
L 389.390596 195.956724 
L 390.323511 194.098976 
L 391.256426 192.998089 
L 392.655799 192.275631 
L 393.588715 191.897201 
L 394.055172 191.828396 
L 394.52163 191.553174 
L 396.853918 190.796314 
L 397.320376 190.589898 
L 398.253292 189.936246 
L 399.652665 189.316997 
L 400.58558 188.800956 
L 403.384326 186.874403 
L 405.716614 185.601502 
L 408.515361 184.19099 
L 409.914734 183.778157 
L 411.314107 183.227713 
L 411.780564 182.883686 
L 412.71348 182.608464 
L 413.646395 182.230034 
L 414.112853 181.851604 
L 415.978683 181.197952 
L 416.911599 180.509898 
L 417.844514 180.131468 
L 418.777429 179.40901 
L 419.710345 179.099386 
L 420.176803 178.686553 
L 420.64326 178.617747 
L 421.576176 177.89529 
L 422.509091 177.413652 
L 422.975549 177.207235 
L 423.442006 176.725597 
L 426.70721 175.418294 
L 427.640125 175.005461 
L 429.039498 174.558225 
L 429.972414 174.420614 
L 430.438871 174.214198 
L 430.905329 174.145392 
L 431.838245 173.73256 
L 432.304702 173.698157 
L 434.170533 173.010102 
L 435.569906 172.012423 
L 436.036364 171.84041 
L 436.969279 171.324369 
L 437.435737 171.186758 
L 440.234483 169.604232 
L 440.70094 169.501024 
L 442.100313 168.675358 
L 443.499687 168.19372 
L 444.432602 167.884096 
L 446.298433 167.264846 
L 447.231348 166.955222 
L 449.097179 166.576792 
L 449.563636 166.370375 
L 450.030094 166.30157 
L 450.963009 165.888737 
L 451.429467 165.819932 
L 451.895925 165.579113 
L 452.82884 165.407099 
L 454.228213 164.891058 
L 455.161129 164.78785 
L 456.560502 164.478225 
L 458.89279 164.065392 
L 471.02069 160.487509 
L 471.487147 160.00587 
L 472.420063 159.62744 
L 476.151724 158.216928 
L 476.618182 157.941706 
L 478.017555 157.528874 
L 478.95047 157.288055 
L 479.416928 156.97843 
L 479.883386 156.875222 
L 480.349843 156.462389 
L 481.749216 156.187167 
L 482.682132 155.739932 
L 483.148589 155.189488 
L 485.01442 154.742253 
L 488.279624 154.054198 
L 488.746082 154.054198 
L 489.212539 153.847782 
L 491.07837 153.503754 
L 491.544828 153.297338 
L 493.410658 152.953311 
L 494.343574 152.540478 
L 495.276489 152.368464 
L 497.608777 151.783618 
L 499.474608 151.198771 
L 499.941066 151.095563 
L 500.407524 150.854744 
L 501.340439 150.613925 
L 502.273354 150.235495 
L 503.20627 149.891468 
L 503.672727 149.581843 
L 504.605643 149.306621 
L 508.337304 147.999317 
L 509.270219 147.930512 
L 511.13605 147.380068 
L 511.602508 147.104846 
L 512.535423 146.829625 
L 514.867712 145.76314 
L 515.334169 145.728737 
L 520.465204 143.905392 
L 522.797492 143.286143 
L 523.730408 142.838908 
L 525.129781 142.529283 
L 526.995611 141.015563 
L 527.928527 140.740341 
L 528.394984 140.361911 
L 531.19373 139.295427 
L 531.660188 138.985802 
L 532.593103 138.71058 
L 533.059561 138.400956 
L 535.39185 137.644096 
L 536.791223 136.81843 
L 537.25768 136.715222 
L 539.589969 135.442321 
L 540.989342 134.823072 
L 541.455799 134.479044 
L 542.388715 134.16942 
L 543.32163 133.618976 
L 543.788088 133.446962 
L 544.254545 133.102935 
L 550.318495 130.969966 
L 550.784953 130.866758 
L 551.251411 130.557133 
L 553.117241 130.178703 
L 554.050157 129.800273 
L 556.848903 128.458567 
L 557.315361 128.389761 
L 558.714734 127.598498 
L 560.114107 127.11686 
L 563.37931 125.775154 
L 563.845768 125.637543 
L 564.312226 125.327918 
L 565.245141 125.22471 
L 565.711599 124.915085 
L 566.644514 124.743072 
L 567.577429 124.295836 
L 568.043887 124.08942 
L 568.510345 124.020614 
L 569.44326 123.71099 
L 572.708464 122.5757 
L 574.107837 122.266075 
L 575.50721 121.715631 
L 577.373041 120.683549 
L 578.305956 120.305119 
L 578.772414 119.995495 
L 579.705329 119.789078 
L 580.171787 119.513857 
L 580.638245 119.410648 
L 582.037618 118.619386 
L 582.970533 118.240956 
L 584.836364 117.518498 
L 587.168652 116.727235 
L 588.101567 116.245597 
L 590.433856 115.454334 
L 593.232602 114.319044 
L 595.098433 113.458976 
L 599.763009 111.635631 
L 600.229467 111.326007 
L 602.095298 110.706758 
L 602.561755 110.706758 
L 603.494671 110.293925 
L 605.360502 108.780205 
L 605.826959 108.642594 
L 606.293417 108.367372 
L 606.759875 108.264164 
L 607.226332 108.023345 
L 607.69279 107.954539 
L 608.159248 107.610512 
L 608.625705 107.507304 
L 609.558621 106.922457 
L 610.957994 106.2 
L 611.890909 105.82157 
L 612.357367 105.580751 
L 613.75674 105.271126 
L 616.089028 104.479863 
L 617.021944 104.170239 
L 618.421317 103.447782 
L 619.354232 103.000546 
L 620.287147 102.759727 
L 621.68652 102.106075 
L 625.884639 100.557952 
L 627.284013 99.697884 
L 627.75047 99.594676 
L 628.683386 99.14744 
L 629.616301 98.803413 
L 630.082759 98.39058 
L 631.015674 98.01215 
L 632.415047 97.496109 
L 632.881505 97.117679 
L 633.347962 97.083276 
L 634.280878 96.808055 
L 635.213793 96.49843 
L 635.680251 96.257611 
L 636.146708 96.188805 
L 637.546082 95.672765 
L 638.945455 95.156724 
L 640.811285 94.331058 
L 641.277743 94.262253 
L 645.009404 92.71413 
L 646.408777 92.266894 
L 647.341693 92.198089 
L 648.274608 91.819659 
L 651.073354 90.993993 
L 652.00627 90.95959 
L 655.737931 89.755495 
L 656.670846 89.239454 
L 657.137304 88.826621 
L 658.536677 88.000956 
L 659.469592 87.450512 
L 662.268339 86.556041 
L 662.734796 86.177611 
L 665.533542 85.007918 
L 667.399373 84.491877 
L 668.332288 84.079044 
L 668.798746 83.838225 
L 669.731661 83.563003 
L 670.198119 83.287782 
L 671.131034 83.115768 
L 674.862696 81.49884 
L 675.329154 81.430034 
L 675.795611 81.12041 
L 676.262069 80.948396 
L 676.728527 80.535563 
L 677.194984 80.466758 
L 679.060815 79.7443 
L 680.926646 79.297065 
L 681.393103 79.228259 
L 681.859561 79.021843 
L 682.326019 78.98744 
L 683.258934 78.677816 
L 683.725392 78.643413 
L 685.124765 78.092969 
L 686.990596 77.542526 
L 687.923511 76.854471 
L 689.789342 75.822389 
L 691.188715 75.340751 
L 694.920376 73.586212 
L 695.386834 73.345392 
L 695.853292 72.898157 
L 698.652038 72.003686 
L 699.584953 71.625256 
L 700.517868 71.384437 
L 700.984326 71.143618 
L 701.450784 70.730785 
L 703.316614 70.249147 
L 703.783072 69.905119 
L 709.847022 67.703345 
L 710.779937 67.531331 
L 714.978056 66.052014 
L 715.910972 65.811195 
L 716.377429 65.604778 
L 716.843887 65.604778 
L 717.776803 65.226348 
L 718.709718 64.675904 
L 721.042006 63.884642 
L 722.441379 63.403003 
L 722.907837 63.334198 
L 723.840752 62.955768 
L 725.240125 62.646143 
L 726.639498 62.198908 
L 727.105956 62.0957 
L 727.572414 61.786075 
L 728.505329 61.579659 
L 737.834483 58.896246 
L 740.166771 58.483413 
L 741.099687 58.036177 
L 741.566144 57.726553 
L 745.297806 56.419249 
L 746.230721 56.144027 
L 747.163636 55.8 
L 747.163636 55.8 
" clip-path="url(#p44b951dadd)" style="fill: none; stroke: #1f77b4; stroke-width: 1.5; stroke-linecap: square"/>
   </g>
   <g id="line2d_34">
    <path d="M 138.902821 307.8 
L 143.10094 307.696792 
L 146.832602 307.524778 
L 148.698433 307.524778 
L 149.16489 307.387167 
L 151.497179 307.283959 
L 154.295925 306.974334 
L 157.094671 306.871126 
L 158.027586 306.767918 
L 161.29279 306.630307 
L 164.557994 306.527099 
L 166.890282 306.458294 
L 172.954232 306.355085 
L 175.28652 306.28628 
L 178.551724 306.183072 
L 180.884013 306.114266 
L 186.015047 306.011058 
L 187.880878 305.839044 
L 189.746708 305.804642 
L 192.545455 305.701433 
L 194.411285 305.667031 
L 196.743574 305.598225 
L 198.609404 305.426212 
L 202.807524 305.323003 
L 203.740439 305.254198 
L 205.60627 305.15099 
L 208.405016 305.047782 
L 210.270846 304.944573 
L 218.667085 304.428532 
L 221.932288 304.325324 
L 223.331661 304.187713 
L 225.66395 304.084505 
L 230.328527 303.843686 
L 234.993103 303.774881 
L 236.858934 303.568464 
L 238.724765 303.465256 
L 243.855799 302.983618 
L 247.121003 302.605188 
L 248.520376 302.536382 
L 252.252038 302.054744 
L 255.050784 301.985939 
L 256.450157 301.848328 
L 257.84953 301.745119 
L 270.910345 300.74744 
L 271.84326 300.575427 
L 274.642006 300.472218 
L 282.105329 300.024983 
L 285.370533 299.921775 
L 287.236364 299.715358 
L 289.568652 299.61215 
L 292.367398 299.508942 
L 294.699687 299.405734 
L 296.565517 299.371331 
L 298.897806 299.302526 
L 299.830721 299.164915 
L 306.361129 299.061706 
L 307.294044 298.958498 
L 312.891536 298.85529 
L 317.089655 298.648874 
L 320.354859 298.545666 
L 322.22069 298.339249 
L 325.485893 298.236041 
L 326.418809 298.064027 
L 328.751097 297.995222 
L 333.415674 297.926416 
L 335.281505 297.754403 
L 337.147335 297.72 
L 338.546708 297.616792 
L 340.412539 297.444778 
L 345.077116 297.203959 
L 349.741693 297.100751 
L 353.939812 296.894334 
L 355.339185 296.859932 
L 356.2721 296.722321 
L 358.604389 296.619113 
L 359.537304 296.550307 
L 360.470219 296.481502 
L 361.403135 296.412696 
L 365.601254 296.343891 
L 367.000627 296.240683 
L 379.594984 295.415017 
L 381.927273 295.311809 
L 384.259561 295.243003 
L 390.789969 295.139795 
L 391.722884 295.002184 
L 398.253292 294.898976 
L 402.917868 294.658157 
L 403.850784 294.623754 
L 404.783699 294.520546 
L 407.115987 294.417338 
L 409.448276 294.348532 
L 411.780564 294.245324 
L 414.112853 294.176519 
L 418.310972 294.073311 
L 421.109718 293.970102 
L 427.640125 293.866894 
L 432.77116 293.591672 
L 434.636991 293.522867 
L 436.036364 293.419659 
L 442.566771 293.316451 
L 445.365517 293.213242 
L 453.761755 293.110034 
L 455.627586 293.075631 
L 461.225078 293.006826 
L 462.157994 292.93802 
L 468.688401 292.834812 
L 470.554232 292.80041 
L 482.682132 292.697201 
L 484.081505 292.55959 
L 505.0721 292.456382 
L 507.404389 292.387577 
L 519.532288 292.318771 
L 520.465204 292.249966 
L 522.797492 292.18116 
L 524.196865 292.043549 
L 526.995611 291.940341 
L 530.260815 291.80273 
L 534.458934 291.699522 
L 536.791223 291.630717 
L 540.056426 291.527509 
L 543.788088 291.355495 
L 546.120376 291.252287 
L 547.986207 291.217884 
L 552.184326 291.114676 
L 554.050157 291.080273 
L 560.114107 290.977065 
L 561.979937 290.942662 
L 564.312226 290.839454 
L 567.110972 290.736246 
L 570.376176 290.66744 
L 571.309091 290.598635 
L 582.504075 290.495427 
L 588.568025 290.151399 
L 590.900313 290.082594 
L 591.833229 289.979386 
L 592.766144 289.91058 
L 596.497806 289.807372 
L 599.296552 289.704164 
L 603.961129 289.600956 
L 606.293417 289.360137 
L 610.957994 289.256928 
L 611.890909 289.15372 
L 616.555486 289.050512 
L 618.887774 288.981706 
L 624.018809 288.947304 
L 624.951724 288.844096 
L 630.082759 288.740887 
L 631.015674 288.672082 
L 641.277743 288.568874 
L 644.076489 288.465666 
L 651.073354 288.362457 
L 652.939185 288.328055 
L 657.137304 288.259249 
L 658.070219 288.156041 
L 664.134169 288.052833 
L 666.466458 287.984027 
L 674.862696 287.880819 
L 676.262069 287.777611 
L 677.661442 287.674403 
L 679.060815 287.571195 
L 686.05768 287.467986 
L 688.856426 287.364778 
L 701.450784 287.26157 
L 705.648903 287.055154 
L 711.246395 286.951945 
L 712.17931 286.88314 
L 719.176176 286.814334 
L 720.109091 286.745529 
L 725.240125 286.642321 
L 727.105956 286.607918 
L 733.636364 286.50471 
L 736.43511 286.401502 
L 744.36489 286.298294 
L 746.230721 286.263891 
L 747.163636 286.263891 
L 747.163636 286.263891 
" clip-path="url(#p44b951dadd)" style="fill: none; stroke: #ff7f0e; stroke-width: 1.5; stroke-linecap: square"/>
   </g>
   <g id="patch_3">
    <path d="M 108 320.4 
L 108 43.2 
" style="fill: none; stroke: #a9a9a9; stroke-width: 0.8; stroke-linejoin: miter; stroke-linecap: square"/>
   </g>
   <g id="patch_4">
    <path d="M 777.6 320.4 
L 777.6 43.2 
" style="fill: none"/>
   </g>
   <g id="patch_5">
    <path d="M 108 320.4 
L 777.6 320.4 
" style="fill: none; stroke: #a9a9a9; stroke-width: 0.8; stroke-linejoin: miter; stroke-linecap: square"/>
   </g>
   <g id="patch_6">
    <path d="M 108 43.2 
L 777.6 43.2 
" style="fill: none"/>
   </g>
   <g id="text_17">
    <!-- get_subscribe history -->
    <g style="fill: #a9a9a9" transform="translate(378.6075 37.2) scale(0.12 -0.12)">
     <defs>
      <path id="DejaVuSans-67" d="M 2906 1791 
Q 2906 2416 2648 2759 
Q 2391 3103 1925 3103 
Q 1463 3103 1205 2759 
Q 947 2416 947 1791 
Q 947 1169 1205 825 
Q 1463 481 1925 481 
Q 2391 481 2648 825 
Q 2906 1169 2906 1791 
z
M 3481 434 
Q 3481 -459 3084 -895 
Q 2688 -1331 1869 -1331 
Q 1566 -1331 1297 -1286 
Q 1028 -1241 775 -1147 
L 775 -588 
Q 1028 -725 1275 -790 
Q 1522 -856 1778 -856 
Q 2344 -856 2625 -561 
Q 2906 -266 2906 331 
L 2906 616 
Q 2728 306 2450 153 
Q 2172 0 1784 0 
Q 1141 0 747 490 
Q 353 981 353 1791 
Q 353 2603 747 3093 
Q 1141 3584 1784 3584 
Q 2172 3584 2450 3431 
Q 2728 3278 2906 2969 
L 2906 3500 
L 3481 3500 
L 3481 434 
z
" transform="scale(0.015625)"/>
      <path id="DejaVuSans-65" d="M 3597 1894 
L 3597 1613 
L 953 1613 
Q 991 1019 1311 708 
Q 1631 397 2203 397 
Q 2534 397 2845 478 
Q 3156 559 3463 722 
L 3463 178 
Q 3153 47 2828 -22 
Q 2503 -91 2169 -91 
Q 1331 -91 842 396 
Q 353 884 353 1716 
Q 353 2575 817 3079 
Q 1281 3584 2069 3584 
Q 2775 3584 3186 3129 
Q 3597 2675 3597 1894 
z
M 3022 2063 
Q 3016 2534 2758 2815 
Q 2500 3097 2075 3097 
Q 1594 3097 1305 2825 
Q 1016 2553 972 2059 
L 3022 2063 
z
" transform="scale(0.015625)"/>
      <path id="DejaVuSans-74" d="M 1172 4494 
L 1172 3500 
L 2356 3500 
L 2356 3053 
L 1172 3053 
L 1172 1153 
Q 1172 725 1289 603 
Q 1406 481 1766 481 
L 2356 481 
L 2356 0 
L 1766 0 
Q 1100 0 847 248 
Q 594 497 594 1153 
L 594 3053 
L 172 3053 
L 172 3500 
L 594 3500 
L 594 4494 
L 1172 4494 
z
" transform="scale(0.015625)"/>
      <path id="DejaVuSans-5f" d="M 3263 -1063 
L 3263 -1509 
L -63 -1509 
L -63 -1063 
L 3263 -1063 
z
" transform="scale(0.015625)"/>
      <path id="DejaVuSans-73" d="M 2834 3397 
L 2834 2853 
Q 2591 2978 2328 3040 
Q 2066 3103 1784 3103 
Q 1356 3103 1142 2972 
Q 928 2841 928 2578 
Q 928 2378 1081 2264 
Q 1234 2150 1697 2047 
L 1894 2003 
Q 2506 1872 2764 1633 
Q 3022 1394 3022 966 
Q 3022 478 2636 193 
Q 2250 -91 1575 -91 
Q 1294 -91 989 -36 
Q 684 19 347 128 
L 347 722 
Q 666 556 975 473 
Q 1284 391 1588 391 
Q 1994 391 2212 530 
Q 2431 669 2431 922 
Q 2431 1156 2273 1281 
Q 2116 1406 1581 1522 
L 1381 1569 
Q 847 1681 609 1914 
Q 372 2147 372 2553 
Q 372 3047 722 3315 
Q 1072 3584 1716 3584 
Q 2034 3584 2315 3537 
Q 2597 3491 2834 3397 
z
" transform="scale(0.015625)"/>
      <path id="DejaVuSans-75" d="M 544 1381 
L 544 3500 
L 1119 3500 
L 1119 1403 
Q 1119 906 1312 657 
Q 1506 409 1894 409 
Q 2359 409 2629 706 
Q 2900 1003 2900 1516 
L 2900 3500 
L 3475 3500 
L 3475 0 
L 2900 0 
L 2900 538 
Q 2691 219 2414 64 
Q 2138 -91 1772 -91 
Q 1169 -91 856 284 
Q 544 659 544 1381 
z
M 1991 3584 
L 1991 3584 
z
" transform="scale(0.015625)"/>
      <path id="DejaVuSans-62" d="M 3116 1747 
Q 3116 2381 2855 2742 
Q 2594 3103 2138 3103 
Q 1681 3103 1420 2742 
Q 1159 2381 1159 1747 
Q 1159 1113 1420 752 
Q 1681 391 2138 391 
Q 2594 391 2855 752 
Q 3116 1113 3116 1747 
z
M 1159 2969 
Q 1341 3281 1617 3432 
Q 1894 3584 2278 3584 
Q 2916 3584 3314 3078 
Q 3713 2572 3713 1747 
Q 3713 922 3314 415 
Q 2916 -91 2278 -91 
Q 1894 -91 1617 61 
Q 1341 213 1159 525 
L 1159 0 
L 581 0 
L 581 4863 
L 1159 4863 
L 1159 2969 
z
" transform="scale(0.015625)"/>
      <path id="DejaVuSans-63" d="M 3122 3366 
L 3122 2828 
Q 2878 2963 2633 3030 
Q 2388 3097 2138 3097 
Q 1578 3097 1268 2742 
Q 959 2388 959 1747 
Q 959 1106 1268 751 
Q 1578 397 2138 397 
Q 2388 397 2633 464 
Q 2878 531 3122 666 
L 3122 134 
Q 2881 22 2623 -34 
Q 2366 -91 2075 -91 
Q 1284 -91 818 406 
Q 353 903 353 1747 
Q 353 2603 823 3093 
Q 1294 3584 2113 3584 
Q 2378 3584 2631 3529 
Q 2884 3475 3122 3366 
z
" transform="scale(0.015625)"/>
      <path id="DejaVuSans-72" d="M 2631 2963 
Q 2534 3019 2420 3045 
Q 2306 3072 2169 3072 
Q 1681 3072 1420 2755 
Q 1159 2438 1159 1844 
L 1159 0 
L 581 0 
L 581 3500 
L 1159 3500 
L 1159 2956 
Q 1341 3275 1631 3429 
Q 1922 3584 2338 3584 
Q 2397 3584 2469 3576 
Q 2541 3569 2628 3553 
L 2631 2963 
z
" transform="scale(0.015625)"/>
      <path id="DejaVuSans-69" d="M 603 3500 
L 1178 3500 
L 1178 0 
L 603 0 
L 603 3500 
z
M 603 4863 
L 1178 4863 
L 1178 4134 
L 603 4134 
L 603 4863 
z
" transform="scale(0.015625)"/>
      <path id="DejaVuSans-20" transform="scale(0.015625)"/>
      <path id="DejaVuSans-68" d="M 3513 2113 
L 3513 0 
L 2938 0 
L 2938 2094 
Q 2938 2591 2744 2837 
Q 2550 3084 2163 3084 
Q 1697 3084 1428 2787 
Q 1159 2491 1159 1978 
L 1159 0 
L 581 0 
L 581 4863 
L 1159 4863 
L 1159 2956 
Q 1366 3272 1645 3428 
Q 1925 3584 2291 3584 
Q 2894 3584 3203 3211 
Q 3513 2838 3513 2113 
z
" transform="scale(0.015625)"/>
      <path id="DejaVuSans-6f" d="M 1959 3097 
Q 1497 3097 1228 2736 
Q 959 2375 959 1747 
Q 959 1119 1226 758 
Q 1494 397 1959 397 
Q 2419 397 2687 759 
Q 2956 1122 2956 1747 
Q 2956 2369 2687 2733 
Q 2419 3097 1959 3097 
z
M 1959 3584 
Q 2709 3584 3137 3096 
Q 3566 2609 3566 1747 
Q 3566 888 3137 398 
Q 2709 -91 1959 -91 
Q 1206 -91 779 398 
Q 353 888 353 1747 
Q 353 2609 779 3096 
Q 1206 3584 1959 3584 
z
" transform="scale(0.015625)"/>
      <path id="DejaVuSans-79" d="M 2059 -325 
Q 1816 -950 1584 -1140 
Q 1353 -1331 966 -1331 
L 506 -1331 
L 506 -850 
L 844 -850 
Q 1081 -850 1212 -737 
Q 1344 -625 1503 -206 
L 1606 56 
L 191 3500 
L 800 3500 
L 1894 763 
L 2988 3500 
L 3597 3500 
L 2059 -325 
z
" transform="scale(0.015625)"/>
     </defs>
     <use xlink:href="#DejaVuSans-67"/>
     <use xlink:href="#DejaVuSans-65" transform="translate(63.476562 0)"/>
     <use xlink:href="#DejaVuSans-74" transform="translate(125 0)"/>
     <use xlink:href="#DejaVuSans-5f" transform="translate(164.208984 0)"/>
     <use xlink:href="#DejaVuSans-73" transform="translate(214.208984 0)"/>
     <use xlink:href="#DejaVuSans-75" transform="translate(266.308594 0)"/>
     <use xlink:href="#DejaVuSans-62" transform="translate(329.6875 0)"/>
     <use xlink:href="#DejaVuSans-73" transform="translate(393.164062 0)"/>
     <use xlink:href="#DejaVuSans-63" transform="translate(445.263672 0)"/>
     <use xlink:href="#DejaVuSans-72" transform="translate(500.244141 0)"/>
     <use xlink:href="#DejaVuSans-69" transform="translate(541.357422 0)"/>
     <use xlink:href="#DejaVuSans-62" transform="translate(569.140625 0)"/>
     <use xlink:href="#DejaVuSans-65" transform="translate(632.617188 0)"/>
     <use xlink:href="#DejaVuSans-20" transform="translate(694.140625 0)"/>
     <use xlink:href="#DejaVuSans-68" transform="translate(725.927734 0)"/>
     <use xlink:href="#DejaVuSans-69" transform="translate(789.306641 0)"/>
     <use xlink:href="#DejaVuSans-73" transform="translate(817.089844 0)"/>
     <use xlink:href="#DejaVuSans-74" transform="translate(869.189453 0)"/>
     <use xlink:href="#DejaVuSans-6f" transform="translate(908.398438 0)"/>
     <use xlink:href="#DejaVuSans-72" transform="translate(969.580078 0)"/>
     <use xlink:href="#DejaVuSans-79" transform="translate(1010.693359 0)"/>
    </g>
   </g>
   <g id="legend_1">
    <g id="line2d_35">
     <path d="M 815.08 328.498438 
L 825.08 328.498438 
L 835.08 328.498438 
" style="fill: none; stroke: #1f77b4; stroke-width: 1.5; stroke-linecap: square"/>
    </g>
    <g id="text_18">
     <!-- star -->
     <g style="fill: #a9a9a9" transform="translate(843.08 331.998438) scale(0.1 -0.1)">
      <defs>
       <path id="DejaVuSans-61" d="M 2194 1759 
Q 1497 1759 1228 1600 
Q 959 1441 959 1056 
Q 959 750 1161 570 
Q 1363 391 1709 391 
Q 2188 391 2477 730 
Q 2766 1069 2766 1631 
L 2766 1759 
L 2194 1759 
z
M 3341 1997 
L 3341 0 
L 2766 0 
L 2766 531 
Q 2569 213 2275 61 
Q 1981 -91 1556 -91 
Q 1019 -91 701 211 
Q 384 513 384 1019 
Q 384 1609 779 1909 
Q 1175 2209 1959 2209 
L 2766 2209 
L 2766 2266 
Q 2766 2663 2505 2880 
Q 2244 3097 1772 3097 
Q 1472 3097 1187 3025 
Q 903 2953 641 2809 
L 641 3341 
Q 956 3463 1253 3523 
Q 1550 3584 1831 3584 
Q 2591 3584 2966 3190 
Q 3341 2797 3341 1997 
z
" transform="scale(0.015625)"/>
      </defs>
      <use xlink:href="#DejaVuSans-73"/>
      <use xlink:href="#DejaVuSans-74" transform="translate(52.099609 0)"/>
      <use xlink:href="#DejaVuSans-61" transform="translate(91.308594 0)"/>
      <use xlink:href="#DejaVuSans-72" transform="translate(152.587891 0)"/>
     </g>
    </g>
    <g id="line2d_36">
     <path d="M 815.08 343.176562 
L 825.08 343.176562 
L 835.08 343.176562 
" style="fill: none; stroke: #ff7f0e; stroke-width: 1.5; stroke-linecap: square"/>
    </g>
    <g id="text_19">
     <!-- fork -->
     <g style="fill: #a9a9a9" transform="translate(843.08 346.676562) scale(0.1 -0.1)">
      <defs>
       <path id="DejaVuSans-66" d="M 2375 4863 
L 2375 4384 
L 1825 4384 
Q 1516 4384 1395 4259 
Q 1275 4134 1275 3809 
L 1275 3500 
L 2222 3500 
L 2222 3053 
L 1275 3053 
L 1275 0 
L 697 0 
L 697 3053 
L 147 3053 
L 147 3500 
L 697 3500 
L 697 3744 
Q 697 4328 969 4595 
Q 1241 4863 1831 4863 
L 2375 4863 
z
" transform="scale(0.015625)"/>
       <path id="DejaVuSans-6b" d="M 581 4863 
L 1159 4863 
L 1159 1991 
L 2875 3500 
L 3609 3500 
L 1753 1863 
L 3688 0 
L 2938 0 
L 1159 1709 
L 1159 0 
L 581 0 
L 581 4863 
z
" transform="scale(0.015625)"/>
      </defs>
      <use xlink:href="#DejaVuSans-66"/>
      <use xlink:href="#DejaVuSans-6f" transform="translate(35.205078 0)"/>
      <use xlink:href="#DejaVuSans-72" transform="translate(96.386719 0)"/>
      <use xlink:href="#DejaVuSans-6b" transform="translate(137.5 0)"/>
     </g>
    </g>
   </g>
  </g>
 </g>
 <defs>
  <clipPath id="p44b951dadd">
   <rect x="108" y="43.2" width="669.6" height="277.2"/>
  </clipPath>
 </defs>
</svg>
