<?xml version="1.0" encoding="utf-8" standalone="no"?>
<!DOCTYPE svg PUBLIC "-//W3C//DTD SVG 1.1//EN"
  "http://www.w3.org/Graphics/SVG/1.1/DTD/svg11.dtd">
<svg xmlns:xlink="http://www.w3.org/1999/xlink" width="864pt" height="360pt" viewBox="0 0 864 360" xmlns="http://www.w3.org/2000/svg" version="1.1">
 <metadata>
  <rdf:RDF xmlns:dc="http://purl.org/dc/elements/1.1/" xmlns:cc="http://creativecommons.org/ns#" xmlns:rdf="http://www.w3.org/1999/02/22-rdf-syntax-ns#">
   <cc:Work>
    <dc:type rdf:resource="http://purl.org/dc/dcmitype/StillImage"/>
    <dc:date>2025-02-19T20:06:26.006484</dc:date>
    <dc:format>image/svg+xml</dc:format>
    <dc:creator>
     <cc:Agent>
      <dc:title>Matplotlib v3.10.0, https://matplotlib.org/</dc:title>
     </cc:Agent>
    </dc:creator>
   </cc:Work>
  </rdf:RDF>
 </metadata>
 <defs>
  <style type="text/css">*{stroke-linejoin: round; stroke-linecap: butt}</style>
 </defs>
 <g id="figure_1">
  <g id="patch_1">
   <path d="M 0 360 
L 864 360 
L 864 0 
L 0 0 
L 0 360 
z
" style="fill: none; opacity: 0"/>
  </g>
  <g id="axes_1">
   <g id="patch_2">
    <path d="M 108 320.4 
L 777.6 320.4 
L 777.6 43.2 
L 108 43.2 
L 108 320.4 
z
" style="fill: none; opacity: 0"/>
   </g>
   <g id="matplotlib.axis_1">
    <g id="xtick_1">
     <g id="line2d_1">
      <path d="M 127.716052 320.4 
L 127.716052 43.2 
" clip-path="url(#pf8bc17a5c9)" style="fill: none; stroke-dasharray: 5.12,1.28,0.8,1.28; stroke-dashoffset: 0; stroke: #b0b0b0; stroke-width: 0.8"/>
     </g>
     <g id="line2d_2">
      <defs>
       <path id="m84daf44320" d="M 0 0 
L 0 3.5 
" style="stroke: #a9a9a9; stroke-width: 0.8"/>
      </defs>
      <g>
       <use xlink:href="#m84daf44320" x="127.716052" y="320.4" style="fill: #a9a9a9; stroke: #a9a9a9; stroke-width: 0.8"/>
      </g>
     </g>
     <g id="text_1">
      <!-- 2021-07 -->
      <g style="fill: #a9a9a9" transform="translate(106.824646 334.998438) scale(0.1 -0.1)">
       <defs>
        <path id="DejaVuSans-32" d="M 1228 531 
L 3431 531 
L 3431 0 
L 469 0 
L 469 531 
Q 828 903 1448 1529 
Q 2069 2156 2228 2338 
Q 2531 2678 2651 2914 
Q 2772 3150 2772 3378 
Q 2772 3750 2511 3984 
Q 2250 4219 1831 4219 
Q 1534 4219 1204 4116 
Q 875 4013 500 3803 
L 500 4441 
Q 881 4594 1212 4672 
Q 1544 4750 1819 4750 
Q 2544 4750 2975 4387 
Q 3406 4025 3406 3419 
Q 3406 3131 3298 2873 
Q 3191 2616 2906 2266 
Q 2828 2175 2409 1742 
Q 1991 1309 1228 531 
z
" transform="scale(0.015625)"/>
        <path id="DejaVuSans-30" d="M 2034 4250 
Q 1547 4250 1301 3770 
Q 1056 3291 1056 2328 
Q 1056 1369 1301 889 
Q 1547 409 2034 409 
Q 2525 409 2770 889 
Q 3016 1369 3016 2328 
Q 3016 3291 2770 3770 
Q 2525 4250 2034 4250 
z
M 2034 4750 
Q 2819 4750 3233 4129 
Q 3647 3509 3647 2328 
Q 3647 1150 3233 529 
Q 2819 -91 2034 -91 
Q 1250 -91 836 529 
Q 422 1150 422 2328 
Q 422 3509 836 4129 
Q 1250 4750 2034 4750 
z
" transform="scale(0.015625)"/>
        <path id="DejaVuSans-31" d="M 794 531 
L 1825 531 
L 1825 4091 
L 703 3866 
L 703 4441 
L 1819 4666 
L 2450 4666 
L 2450 531 
L 3481 531 
L 3481 0 
L 794 0 
L 794 531 
z
" transform="scale(0.015625)"/>
        <path id="DejaVuSans-2d" d="M 313 2009 
L 1997 2009 
L 1997 1497 
L 313 1497 
L 313 2009 
z
" transform="scale(0.015625)"/>
        <path id="DejaVuSans-37" d="M 525 4666 
L 3525 4666 
L 3525 4397 
L 1831 0 
L 1172 0 
L 2766 4134 
L 525 4134 
L 525 4666 
z
" transform="scale(0.015625)"/>
       </defs>
       <use xlink:href="#DejaVuSans-32"/>
       <use xlink:href="#DejaVuSans-30" transform="translate(63.623047 0)"/>
       <use xlink:href="#DejaVuSans-32" transform="translate(127.246094 0)"/>
       <use xlink:href="#DejaVuSans-31" transform="translate(190.869141 0)"/>
       <use xlink:href="#DejaVuSans-2d" transform="translate(254.492188 0)"/>
       <use xlink:href="#DejaVuSans-30" transform="translate(290.576172 0)"/>
       <use xlink:href="#DejaVuSans-37" transform="translate(354.199219 0)"/>
      </g>
     </g>
    </g>
    <g id="xtick_2">
     <g id="line2d_3">
      <path d="M 213.478547 320.4 
L 213.478547 43.2 
" clip-path="url(#pf8bc17a5c9)" style="fill: none; stroke-dasharray: 5.12,1.28,0.8,1.28; stroke-dashoffset: 0; stroke: #b0b0b0; stroke-width: 0.8"/>
     </g>
     <g id="line2d_4">
      <g>
       <use xlink:href="#m84daf44320" x="213.478547" y="320.4" style="fill: #a9a9a9; stroke: #a9a9a9; stroke-width: 0.8"/>
      </g>
     </g>
     <g id="text_2">
      <!-- 2022-01 -->
      <g style="fill: #a9a9a9" transform="translate(192.58714 334.998438) scale(0.1 -0.1)">
       <use xlink:href="#DejaVuSans-32"/>
       <use xlink:href="#DejaVuSans-30" transform="translate(63.623047 0)"/>
       <use xlink:href="#DejaVuSans-32" transform="translate(127.246094 0)"/>
       <use xlink:href="#DejaVuSans-32" transform="translate(190.869141 0)"/>
       <use xlink:href="#DejaVuSans-2d" transform="translate(254.492188 0)"/>
       <use xlink:href="#DejaVuSans-30" transform="translate(290.576172 0)"/>
       <use xlink:href="#DejaVuSans-31" transform="translate(354.199219 0)"/>
      </g>
     </g>
    </g>
    <g id="xtick_3">
     <g id="line2d_5">
      <path d="M 297.84274 320.4 
L 297.84274 43.2 
" clip-path="url(#pf8bc17a5c9)" style="fill: none; stroke-dasharray: 5.12,1.28,0.8,1.28; stroke-dashoffset: 0; stroke: #b0b0b0; stroke-width: 0.8"/>
     </g>
     <g id="line2d_6">
      <g>
       <use xlink:href="#m84daf44320" x="297.84274" y="320.4" style="fill: #a9a9a9; stroke: #a9a9a9; stroke-width: 0.8"/>
      </g>
     </g>
     <g id="text_3">
      <!-- 2022-07 -->
      <g style="fill: #a9a9a9" transform="translate(276.951334 334.998438) scale(0.1 -0.1)">
       <use xlink:href="#DejaVuSans-32"/>
       <use xlink:href="#DejaVuSans-30" transform="translate(63.623047 0)"/>
       <use xlink:href="#DejaVuSans-32" transform="translate(127.246094 0)"/>
       <use xlink:href="#DejaVuSans-32" transform="translate(190.869141 0)"/>
       <use xlink:href="#DejaVuSans-2d" transform="translate(254.492188 0)"/>
       <use xlink:href="#DejaVuSans-30" transform="translate(290.576172 0)"/>
       <use xlink:href="#DejaVuSans-37" transform="translate(354.199219 0)"/>
      </g>
     </g>
    </g>
    <g id="xtick_4">
     <g id="line2d_7">
      <path d="M 383.605235 320.4 
L 383.605235 43.2 
" clip-path="url(#pf8bc17a5c9)" style="fill: none; stroke-dasharray: 5.12,1.28,0.8,1.28; stroke-dashoffset: 0; stroke: #b0b0b0; stroke-width: 0.8"/>
     </g>
     <g id="line2d_8">
      <g>
       <use xlink:href="#m84daf44320" x="383.605235" y="320.4" style="fill: #a9a9a9; stroke: #a9a9a9; stroke-width: 0.8"/>
      </g>
     </g>
     <g id="text_4">
      <!-- 2023-01 -->
      <g style="fill: #a9a9a9" transform="translate(362.713828 334.998438) scale(0.1 -0.1)">
       <defs>
        <path id="DejaVuSans-33" d="M 2597 2516 
Q 3050 2419 3304 2112 
Q 3559 1806 3559 1356 
Q 3559 666 3084 287 
Q 2609 -91 1734 -91 
Q 1441 -91 1130 -33 
Q 819 25 488 141 
L 488 750 
Q 750 597 1062 519 
Q 1375 441 1716 441 
Q 2309 441 2620 675 
Q 2931 909 2931 1356 
Q 2931 1769 2642 2001 
Q 2353 2234 1838 2234 
L 1294 2234 
L 1294 2753 
L 1863 2753 
Q 2328 2753 2575 2939 
Q 2822 3125 2822 3475 
Q 2822 3834 2567 4026 
Q 2313 4219 1838 4219 
Q 1578 4219 1281 4162 
Q 984 4106 628 3988 
L 628 4550 
Q 988 4650 1302 4700 
Q 1616 4750 1894 4750 
Q 2613 4750 3031 4423 
Q 3450 4097 3450 3541 
Q 3450 3153 3228 2886 
Q 3006 2619 2597 2516 
z
" transform="scale(0.015625)"/>
       </defs>
       <use xlink:href="#DejaVuSans-32"/>
       <use xlink:href="#DejaVuSans-30" transform="translate(63.623047 0)"/>
       <use xlink:href="#DejaVuSans-32" transform="translate(127.246094 0)"/>
       <use xlink:href="#DejaVuSans-33" transform="translate(190.869141 0)"/>
       <use xlink:href="#DejaVuSans-2d" transform="translate(254.492188 0)"/>
       <use xlink:href="#DejaVuSans-30" transform="translate(290.576172 0)"/>
       <use xlink:href="#DejaVuSans-31" transform="translate(354.199219 0)"/>
      </g>
     </g>
    </g>
    <g id="xtick_5">
     <g id="line2d_9">
      <path d="M 467.969428 320.4 
L 467.969428 43.2 
" clip-path="url(#pf8bc17a5c9)" style="fill: none; stroke-dasharray: 5.12,1.28,0.8,1.28; stroke-dashoffset: 0; stroke: #b0b0b0; stroke-width: 0.8"/>
     </g>
     <g id="line2d_10">
      <g>
       <use xlink:href="#m84daf44320" x="467.969428" y="320.4" style="fill: #a9a9a9; stroke: #a9a9a9; stroke-width: 0.8"/>
      </g>
     </g>
     <g id="text_5">
      <!-- 2023-07 -->
      <g style="fill: #a9a9a9" transform="translate(447.078022 334.998438) scale(0.1 -0.1)">
       <use xlink:href="#DejaVuSans-32"/>
       <use xlink:href="#DejaVuSans-30" transform="translate(63.623047 0)"/>
       <use xlink:href="#DejaVuSans-32" transform="translate(127.246094 0)"/>
       <use xlink:href="#DejaVuSans-33" transform="translate(190.869141 0)"/>
       <use xlink:href="#DejaVuSans-2d" transform="translate(254.492188 0)"/>
       <use xlink:href="#DejaVuSans-30" transform="translate(290.576172 0)"/>
       <use xlink:href="#DejaVuSans-37" transform="translate(354.199219 0)"/>
      </g>
     </g>
    </g>
    <g id="xtick_6">
     <g id="line2d_11">
      <path d="M 553.731923 320.4 
L 553.731923 43.2 
" clip-path="url(#pf8bc17a5c9)" style="fill: none; stroke-dasharray: 5.12,1.28,0.8,1.28; stroke-dashoffset: 0; stroke: #b0b0b0; stroke-width: 0.8"/>
     </g>
     <g id="line2d_12">
      <g>
       <use xlink:href="#m84daf44320" x="553.731923" y="320.4" style="fill: #a9a9a9; stroke: #a9a9a9; stroke-width: 0.8"/>
      </g>
     </g>
     <g id="text_6">
      <!-- 2024-01 -->
      <g style="fill: #a9a9a9" transform="translate(532.840516 334.998438) scale(0.1 -0.1)">
       <defs>
        <path id="DejaVuSans-34" d="M 2419 4116 
L 825 1625 
L 2419 1625 
L 2419 4116 
z
M 2253 4666 
L 3047 4666 
L 3047 1625 
L 3713 1625 
L 3713 1100 
L 3047 1100 
L 3047 0 
L 2419 0 
L 2419 1100 
L 313 1100 
L 313 1709 
L 2253 4666 
z
" transform="scale(0.015625)"/>
       </defs>
       <use xlink:href="#DejaVuSans-32"/>
       <use xlink:href="#DejaVuSans-30" transform="translate(63.623047 0)"/>
       <use xlink:href="#DejaVuSans-32" transform="translate(127.246094 0)"/>
       <use xlink:href="#DejaVuSans-34" transform="translate(190.869141 0)"/>
       <use xlink:href="#DejaVuSans-2d" transform="translate(254.492188 0)"/>
       <use xlink:href="#DejaVuSans-30" transform="translate(290.576172 0)"/>
       <use xlink:href="#DejaVuSans-31" transform="translate(354.199219 0)"/>
      </g>
     </g>
    </g>
    <g id="xtick_7">
     <g id="line2d_13">
      <path d="M 638.562216 320.4 
L 638.562216 43.2 
" clip-path="url(#pf8bc17a5c9)" style="fill: none; stroke-dasharray: 5.12,1.28,0.8,1.28; stroke-dashoffset: 0; stroke: #b0b0b0; stroke-width: 0.8"/>
     </g>
     <g id="line2d_14">
      <g>
       <use xlink:href="#m84daf44320" x="638.562216" y="320.4" style="fill: #a9a9a9; stroke: #a9a9a9; stroke-width: 0.8"/>
      </g>
     </g>
     <g id="text_7">
      <!-- 2024-07 -->
      <g style="fill: #a9a9a9" transform="translate(617.67081 334.998438) scale(0.1 -0.1)">
       <use xlink:href="#DejaVuSans-32"/>
       <use xlink:href="#DejaVuSans-30" transform="translate(63.623047 0)"/>
       <use xlink:href="#DejaVuSans-32" transform="translate(127.246094 0)"/>
       <use xlink:href="#DejaVuSans-34" transform="translate(190.869141 0)"/>
       <use xlink:href="#DejaVuSans-2d" transform="translate(254.492188 0)"/>
       <use xlink:href="#DejaVuSans-30" transform="translate(290.576172 0)"/>
       <use xlink:href="#DejaVuSans-37" transform="translate(354.199219 0)"/>
      </g>
     </g>
    </g>
    <g id="xtick_8">
     <g id="line2d_15">
      <path d="M 724.324711 320.4 
L 724.324711 43.2 
" clip-path="url(#pf8bc17a5c9)" style="fill: none; stroke-dasharray: 5.12,1.28,0.8,1.28; stroke-dashoffset: 0; stroke: #b0b0b0; stroke-width: 0.8"/>
     </g>
     <g id="line2d_16">
      <g>
       <use xlink:href="#m84daf44320" x="724.324711" y="320.4" style="fill: #a9a9a9; stroke: #a9a9a9; stroke-width: 0.8"/>
      </g>
     </g>
     <g id="text_8">
      <!-- 2025-01 -->
      <g style="fill: #a9a9a9" transform="translate(703.433305 334.998438) scale(0.1 -0.1)">
       <defs>
        <path id="DejaVuSans-35" d="M 691 4666 
L 3169 4666 
L 3169 4134 
L 1269 4134 
L 1269 2991 
Q 1406 3038 1543 3061 
Q 1681 3084 1819 3084 
Q 2600 3084 3056 2656 
Q 3513 2228 3513 1497 
Q 3513 744 3044 326 
Q 2575 -91 1722 -91 
Q 1428 -91 1123 -41 
Q 819 9 494 109 
L 494 744 
Q 775 591 1075 516 
Q 1375 441 1709 441 
Q 2250 441 2565 725 
Q 2881 1009 2881 1497 
Q 2881 1984 2565 2268 
Q 2250 2553 1709 2553 
Q 1456 2553 1204 2497 
Q 953 2441 691 2322 
L 691 4666 
z
" transform="scale(0.015625)"/>
       </defs>
       <use xlink:href="#DejaVuSans-32"/>
       <use xlink:href="#DejaVuSans-30" transform="translate(63.623047 0)"/>
       <use xlink:href="#DejaVuSans-32" transform="translate(127.246094 0)"/>
       <use xlink:href="#DejaVuSans-35" transform="translate(190.869141 0)"/>
       <use xlink:href="#DejaVuSans-2d" transform="translate(254.492188 0)"/>
       <use xlink:href="#DejaVuSans-30" transform="translate(290.576172 0)"/>
       <use xlink:href="#DejaVuSans-31" transform="translate(354.199219 0)"/>
      </g>
     </g>
    </g>
   </g>
   <g id="matplotlib.axis_2">
    <g id="ytick_1">
     <g id="line2d_17">
      <path d="M 108 307.834398 
L 777.6 307.834398 
" clip-path="url(#pf8bc17a5c9)" style="fill: none; stroke-dasharray: 5.12,1.28,0.8,1.28; stroke-dashoffset: 0; stroke: #b0b0b0; stroke-width: 0.8"/>
     </g>
     <g id="line2d_18">
      <defs>
       <path id="m490f994b5a" d="M 0 0 
L -3.5 0 
" style="stroke: #a9a9a9; stroke-width: 0.8"/>
      </defs>
      <g>
       <use xlink:href="#m490f994b5a" x="108" y="307.834398" style="fill: #a9a9a9; stroke: #a9a9a9; stroke-width: 0.8"/>
      </g>
     </g>
     <g id="text_9">
      <!-- 0 -->
      <g style="fill: #a9a9a9" transform="translate(94.6375 311.633617) scale(0.1 -0.1)">
       <use xlink:href="#DejaVuSans-30"/>
      </g>
     </g>
    </g>
    <g id="ytick_2">
     <g id="line2d_19">
      <path d="M 108 273.436364 
L 777.6 273.436364 
" clip-path="url(#pf8bc17a5c9)" style="fill: none; stroke-dasharray: 5.12,1.28,0.8,1.28; stroke-dashoffset: 0; stroke: #b0b0b0; stroke-width: 0.8"/>
     </g>
     <g id="line2d_20">
      <g>
       <use xlink:href="#m490f994b5a" x="108" y="273.436364" style="fill: #a9a9a9; stroke: #a9a9a9; stroke-width: 0.8"/>
      </g>
     </g>
     <g id="text_10">
      <!-- 1000 -->
      <g style="fill: #a9a9a9" transform="translate(75.55 277.235582) scale(0.1 -0.1)">
       <use xlink:href="#DejaVuSans-31"/>
       <use xlink:href="#DejaVuSans-30" transform="translate(63.623047 0)"/>
       <use xlink:href="#DejaVuSans-30" transform="translate(127.246094 0)"/>
       <use xlink:href="#DejaVuSans-30" transform="translate(190.869141 0)"/>
      </g>
     </g>
    </g>
    <g id="ytick_3">
     <g id="line2d_21">
      <path d="M 108 239.038329 
L 777.6 239.038329 
" clip-path="url(#pf8bc17a5c9)" style="fill: none; stroke-dasharray: 5.12,1.28,0.8,1.28; stroke-dashoffset: 0; stroke: #b0b0b0; stroke-width: 0.8"/>
     </g>
     <g id="line2d_22">
      <g>
       <use xlink:href="#m490f994b5a" x="108" y="239.038329" style="fill: #a9a9a9; stroke: #a9a9a9; stroke-width: 0.8"/>
      </g>
     </g>
     <g id="text_11">
      <!-- 2000 -->
      <g style="fill: #a9a9a9" transform="translate(75.55 242.837548) scale(0.1 -0.1)">
       <use xlink:href="#DejaVuSans-32"/>
       <use xlink:href="#DejaVuSans-30" transform="translate(63.623047 0)"/>
       <use xlink:href="#DejaVuSans-30" transform="translate(127.246094 0)"/>
       <use xlink:href="#DejaVuSans-30" transform="translate(190.869141 0)"/>
      </g>
     </g>
    </g>
    <g id="ytick_4">
     <g id="line2d_23">
      <path d="M 108 204.640295 
L 777.6 204.640295 
" clip-path="url(#pf8bc17a5c9)" style="fill: none; stroke-dasharray: 5.12,1.28,0.8,1.28; stroke-dashoffset: 0; stroke: #b0b0b0; stroke-width: 0.8"/>
     </g>
     <g id="line2d_24">
      <g>
       <use xlink:href="#m490f994b5a" x="108" y="204.640295" style="fill: #a9a9a9; stroke: #a9a9a9; stroke-width: 0.8"/>
      </g>
     </g>
     <g id="text_12">
      <!-- 3000 -->
      <g style="fill: #a9a9a9" transform="translate(75.55 208.439514) scale(0.1 -0.1)">
       <use xlink:href="#DejaVuSans-33"/>
       <use xlink:href="#DejaVuSans-30" transform="translate(63.623047 0)"/>
       <use xlink:href="#DejaVuSans-30" transform="translate(127.246094 0)"/>
       <use xlink:href="#DejaVuSans-30" transform="translate(190.869141 0)"/>
      </g>
     </g>
    </g>
    <g id="ytick_5">
     <g id="line2d_25">
      <path d="M 108 170.24226 
L 777.6 170.24226 
" clip-path="url(#pf8bc17a5c9)" style="fill: none; stroke-dasharray: 5.12,1.28,0.8,1.28; stroke-dashoffset: 0; stroke: #b0b0b0; stroke-width: 0.8"/>
     </g>
     <g id="line2d_26">
      <g>
       <use xlink:href="#m490f994b5a" x="108" y="170.24226" style="fill: #a9a9a9; stroke: #a9a9a9; stroke-width: 0.8"/>
      </g>
     </g>
     <g id="text_13">
      <!-- 4000 -->
      <g style="fill: #a9a9a9" transform="translate(75.55 174.041479) scale(0.1 -0.1)">
       <use xlink:href="#DejaVuSans-34"/>
       <use xlink:href="#DejaVuSans-30" transform="translate(63.623047 0)"/>
       <use xlink:href="#DejaVuSans-30" transform="translate(127.246094 0)"/>
       <use xlink:href="#DejaVuSans-30" transform="translate(190.869141 0)"/>
      </g>
     </g>
    </g>
    <g id="ytick_6">
     <g id="line2d_27">
      <path d="M 108 135.844226 
L 777.6 135.844226 
" clip-path="url(#pf8bc17a5c9)" style="fill: none; stroke-dasharray: 5.12,1.28,0.8,1.28; stroke-dashoffset: 0; stroke: #b0b0b0; stroke-width: 0.8"/>
     </g>
     <g id="line2d_28">
      <g>
       <use xlink:href="#m490f994b5a" x="108" y="135.844226" style="fill: #a9a9a9; stroke: #a9a9a9; stroke-width: 0.8"/>
      </g>
     </g>
     <g id="text_14">
      <!-- 5000 -->
      <g style="fill: #a9a9a9" transform="translate(75.55 139.643445) scale(0.1 -0.1)">
       <use xlink:href="#DejaVuSans-35"/>
       <use xlink:href="#DejaVuSans-30" transform="translate(63.623047 0)"/>
       <use xlink:href="#DejaVuSans-30" transform="translate(127.246094 0)"/>
       <use xlink:href="#DejaVuSans-30" transform="translate(190.869141 0)"/>
      </g>
     </g>
    </g>
    <g id="ytick_7">
     <g id="line2d_29">
      <path d="M 108 101.446192 
L 777.6 101.446192 
" clip-path="url(#pf8bc17a5c9)" style="fill: none; stroke-dasharray: 5.12,1.28,0.8,1.28; stroke-dashoffset: 0; stroke: #b0b0b0; stroke-width: 0.8"/>
     </g>
     <g id="line2d_30">
      <g>
       <use xlink:href="#m490f994b5a" x="108" y="101.446192" style="fill: #a9a9a9; stroke: #a9a9a9; stroke-width: 0.8"/>
      </g>
     </g>
     <g id="text_15">
      <!-- 6000 -->
      <g style="fill: #a9a9a9" transform="translate(75.55 105.24541) scale(0.1 -0.1)">
       <defs>
        <path id="DejaVuSans-36" d="M 2113 2584 
Q 1688 2584 1439 2293 
Q 1191 2003 1191 1497 
Q 1191 994 1439 701 
Q 1688 409 2113 409 
Q 2538 409 2786 701 
Q 3034 994 3034 1497 
Q 3034 2003 2786 2293 
Q 2538 2584 2113 2584 
z
M 3366 4563 
L 3366 3988 
Q 3128 4100 2886 4159 
Q 2644 4219 2406 4219 
Q 1781 4219 1451 3797 
Q 1122 3375 1075 2522 
Q 1259 2794 1537 2939 
Q 1816 3084 2150 3084 
Q 2853 3084 3261 2657 
Q 3669 2231 3669 1497 
Q 3669 778 3244 343 
Q 2819 -91 2113 -91 
Q 1303 -91 875 529 
Q 447 1150 447 2328 
Q 447 3434 972 4092 
Q 1497 4750 2381 4750 
Q 2619 4750 2861 4703 
Q 3103 4656 3366 4563 
z
" transform="scale(0.015625)"/>
       </defs>
       <use xlink:href="#DejaVuSans-36"/>
       <use xlink:href="#DejaVuSans-30" transform="translate(63.623047 0)"/>
       <use xlink:href="#DejaVuSans-30" transform="translate(127.246094 0)"/>
       <use xlink:href="#DejaVuSans-30" transform="translate(190.869141 0)"/>
      </g>
     </g>
    </g>
    <g id="ytick_8">
     <g id="line2d_31">
      <path d="M 108 67.048157 
L 777.6 67.048157 
" clip-path="url(#pf8bc17a5c9)" style="fill: none; stroke-dasharray: 5.12,1.28,0.8,1.28; stroke-dashoffset: 0; stroke: #b0b0b0; stroke-width: 0.8"/>
     </g>
     <g id="line2d_32">
      <g>
       <use xlink:href="#m490f994b5a" x="108" y="67.048157" style="fill: #a9a9a9; stroke: #a9a9a9; stroke-width: 0.8"/>
      </g>
     </g>
     <g id="text_16">
      <!-- 7000 -->
      <g style="fill: #a9a9a9" transform="translate(75.55 70.847376) scale(0.1 -0.1)">
       <use xlink:href="#DejaVuSans-37"/>
       <use xlink:href="#DejaVuSans-30" transform="translate(63.623047 0)"/>
       <use xlink:href="#DejaVuSans-30" transform="translate(127.246094 0)"/>
       <use xlink:href="#DejaVuSans-30" transform="translate(190.869141 0)"/>
      </g>
     </g>
    </g>
   </g>
   <g id="line2d_33">
    <path d="M 138.436364 307.731204 
L 141.232967 307.490418 
L 141.699067 307.284029 
L 143.563469 307.043243 
L 145.427871 306.664865 
L 146.360072 306.527273 
L 148.690575 306.320885 
L 149.622776 305.942506 
L 150.088877 305.323342 
L 150.554977 305.013759 
L 151.021078 303.94742 
L 151.487178 303.878624 
L 151.953279 303.500246 
L 152.88548 303.018673 
L 154.749882 301.50516 
L 156.614284 300.576413 
L 158.012585 299.92285 
L 158.478686 299.166093 
L 159.410887 298.478133 
L 159.876987 298.271744 
L 164.537992 297.583784 
L 165.004093 297.377396 
L 168.266797 297.102211 
L 170.131199 296.655037 
L 173.860003 296.139066 
L 174.326103 295.89828 
L 174.792204 295.829484 
L 175.724405 295.519902 
L 178.987108 294.969533 
L 179.919309 294.694349 
L 184.114214 293.97199 
L 185.046415 293.765602 
L 185.978616 293.731204 
L 187.843018 293.284029 
L 188.309119 292.630467 
L 189.70742 292.080098 
L 191.105722 291.70172 
L 191.571822 291.460934 
L 192.504023 291.288943 
L 194.368425 290.738575 
L 195.300626 290.669779 
L 196.232828 290.428993 
L 198.09723 289.94742 
L 198.56333 289.913022 
L 199.495531 289.465848 
L 199.961632 289.397052 
L 200.427732 289.156265 
L 205.554838 288.296314 
L 207.41924 287.745946 
L 207.88534 287.436364 
L 210.215843 286.645209 
L 211.148044 285.991646 
L 212.546346 285.716462 
L 224.664959 282.24226 
L 225.131059 282.24226 
L 225.59716 282.035872 
L 226.529361 281.932678 
L 226.995462 281.760688 
L 228.859864 281.691892 
L 229.792065 281.519902 
L 230.724266 281.038329 
L 232.122567 280.522359 
L 232.588668 280.212776 
L 233.520869 279.8 
L 233.986969 279.559214 
L 234.91917 279.249631 
L 235.385271 279.112039 
L 236.317472 278.527273 
L 236.783572 278.011302 
L 237.715773 276.566585 
L 238.181874 276.428993 
L 238.647974 276.428993 
L 240.046276 275.60344 
L 240.512376 275.362654 
L 240.978477 275.259459 
L 241.444577 274.812285 
L 242.376779 274.433907 
L 243.30898 273.986732 
L 245.639482 270.994103 
L 248.436085 269.48059 
L 249.368286 268.723833 
L 249.834387 268.414251 
L 250.300487 267.760688 
L 250.766588 266.694349 
L 251.232688 265.97199 
L 251.698789 265.593612 
L 252.164889 265.387224 
L 255.893693 261.94742 
L 256.825894 261.087469 
L 259.622498 259.33317 
L 260.088598 259.161179 
L 261.4869 258.335627 
L 262.885201 257.40688 
L 264.749603 255.721376 
L 265.681804 255.342998 
L 266.614005 254.689435 
L 267.080106 254.414251 
L 267.546206 254.345455 
L 268.944508 253.5543 
L 269.410608 253.038329 
L 271.741111 251.765602 
L 272.207211 251.593612 
L 273.605513 250.630467 
L 280.597021 248.153808 
L 281.529222 247.293857 
L 282.927523 246.605897 
L 283.859724 246.02113 
L 284.791925 245.745946 
L 285.258026 245.436364 
L 285.724126 245.298771 
L 287.122428 244.370025 
L 289.452931 243.819656 
L 290.851232 242.994103 
L 292.249534 242.684521 
L 292.715634 242.546929 
L 294.113936 241.48059 
L 295.978338 240.964619 
L 296.444438 240.586241 
L 299.241041 239.623096 
L 300.173242 239.451106 
L 301.105443 239.072727 
L 304.368147 237.868796 
L 305.300348 237.731204 
L 306.69865 237.249631 
L 309.029152 236.114496 
L 310.893554 235.082555 
L 314.622358 233.534644 
L 315.088459 233.465848 
L 316.02066 232.881081 
L 316.48676 232.812285 
L 318.351162 232.055528 
L 320.215565 231.814742 
L 321.147766 231.33317 
L 321.613866 230.920393 
L 322.079967 230.060442 
L 323.944369 229.544472 
L 325.34267 228.822113 
L 326.274871 228.512531 
L 327.207072 228.030958 
L 330.003675 226.895823 
L 330.935876 226.689435 
L 331.868077 226.207862 
L 332.334178 226.001474 
L 332.800278 225.932678 
L 334.66468 225.072727 
L 336.062982 224.178378 
L 337.461284 223.903194 
L 339.325686 223.387224 
L 339.791786 223.352826 
L 340.257887 222.974447 
L 341.190088 222.664865 
L 343.52059 221.736118 
L 343.986691 221.392138 
L 344.452791 221.220147 
L 345.384992 220.704177 
L 347.249394 220.11941 
L 347.715495 219.878624 
L 349.113796 218.743489 
L 349.579897 218.640295 
L 350.512098 217.883538 
L 350.978199 217.814742 
L 351.444299 217.057985 
L 351.9104 216.851597 
L 352.3765 216.473219 
L 352.842601 216.404423 
L 353.774802 215.819656 
L 354.707003 215.510074 
L 355.173103 215.166093 
L 355.639204 214.994103 
L 357.503606 213.755774 
L 358.901907 213.033415 
L 359.834108 212.792629 
L 360.766309 212.276658 
L 361.23241 211.485504 
L 362.164611 210.797543 
L 362.630711 210.694349 
L 365.427314 209.352826 
L 366.359516 208.974447 
L 367.757817 207.804914 
L 368.690018 207.013759 
L 369.622219 206.463391 
L 370.08832 205.94742 
L 370.55442 205.637838 
L 371.486621 204.881081 
L 371.952722 204.674693 
L 372.418822 204.124324 
L 372.884923 203.745946 
L 373.817124 203.401966 
L 374.749325 202.782801 
L 376.147626 202.060442 
L 376.613727 201.991646 
L 378.012028 201.234889 
L 378.944229 200.650123 
L 383.605235 198.930221 
L 384.071335 198.551843 
L 385.935737 197.829484 
L 386.401838 197.691892 
L 387.334039 197.072727 
L 388.26624 196.659951 
L 389.198441 196.006388 
L 390.130642 194.148894 
L 391.062843 193.048157 
L 392.461144 192.325799 
L 393.393345 191.94742 
L 393.859446 191.878624 
L 394.325546 191.60344 
L 396.656049 190.846683 
L 397.12215 190.640295 
L 398.054351 189.986732 
L 399.452652 189.367568 
L 400.384853 188.851597 
L 403.181456 186.925307 
L 405.511959 185.65258 
L 408.308562 184.24226 
L 409.706863 183.829484 
L 411.105165 183.279115 
L 411.571265 182.935135 
L 412.503467 182.659951 
L 413.435668 182.281572 
L 413.901768 181.903194 
L 415.76617 181.249631 
L 416.698371 180.561671 
L 417.630572 180.183292 
L 418.562773 179.460934 
L 419.494974 179.185749 
L 419.961075 178.772973 
L 420.427175 178.704177 
L 421.359376 177.981818 
L 422.291577 177.500246 
L 422.757678 177.293857 
L 423.223778 176.812285 
L 426.486482 175.50516 
L 427.418683 175.092383 
L 428.816985 174.645209 
L 429.749186 174.507617 
L 430.215286 174.301229 
L 430.681387 174.232432 
L 431.613588 173.819656 
L 432.079688 173.785258 
L 433.94409 173.097297 
L 435.342392 172.099754 
L 435.808492 171.927764 
L 436.740693 171.411794 
L 437.206794 171.274201 
L 440.003397 169.691892 
L 440.469497 169.588698 
L 441.867799 168.763145 
L 443.266101 168.281572 
L 444.198302 167.97199 
L 446.062704 167.352826 
L 446.994905 167.043243 
L 448.859307 166.664865 
L 449.325407 166.458477 
L 449.791508 166.389681 
L 450.723709 165.976904 
L 451.189809 165.908108 
L 451.65591 165.667322 
L 452.588111 165.495332 
L 453.986412 164.979361 
L 454.918613 164.876167 
L 456.316915 164.566585 
L 458.647418 164.153808 
L 470.766031 160.576413 
L 471.232131 160.09484 
L 472.164332 159.716462 
L 475.893137 158.306143 
L 476.359237 158.030958 
L 477.757539 157.618182 
L 478.68974 157.377396 
L 479.15584 157.067813 
L 479.621941 156.964619 
L 480.088041 156.551843 
L 481.486343 156.276658 
L 482.418544 155.829484 
L 482.884644 155.279115 
L 484.749046 154.831941 
L 488.01175 154.14398 
L 488.47785 154.14398 
L 488.943951 153.937592 
L 490.808353 153.593612 
L 491.274454 153.387224 
L 493.138856 153.043243 
L 494.071057 152.630467 
L 495.003258 152.458477 
L 497.33376 151.87371 
L 499.198162 151.288943 
L 499.664263 151.185749 
L 500.130363 150.944963 
L 501.062564 150.704177 
L 501.994765 150.325799 
L 502.926966 149.981818 
L 503.393067 149.672236 
L 504.325268 149.397052 
L 508.054072 148.089926 
L 508.986273 148.02113 
L 510.850675 147.470762 
L 511.316776 147.195577 
L 512.248977 146.920393 
L 514.579479 145.854054 
L 515.04558 145.819656 
L 520.172686 143.99656 
L 522.503188 143.377396 
L 523.435389 142.930221 
L 524.833691 142.620639 
L 526.698093 141.107125 
L 527.630294 140.831941 
L 528.096394 140.453563 
L 530.892997 139.387224 
L 531.359098 139.077641 
L 532.291299 138.802457 
L 532.757399 138.492875 
L 535.087902 137.736118 
L 536.486204 136.910565 
L 536.952304 136.807371 
L 539.282807 135.534644 
L 540.681108 134.915479 
L 541.147209 134.571499 
L 542.07941 134.261916 
L 543.011611 133.711548 
L 543.477711 133.539558 
L 543.943812 133.195577 
L 550.003118 131.062899 
L 550.469219 130.959705 
L 550.93532 130.650123 
L 552.799722 130.271744 
L 553.731923 129.893366 
L 556.528526 128.551843 
L 556.994626 128.483047 
L 558.392928 127.691892 
L 559.791229 127.210319 
L 563.053933 125.868796 
L 563.520033 125.731204 
L 563.986134 125.421622 
L 564.918335 125.318428 
L 565.384435 125.008845 
L 566.316637 124.836855 
L 567.248838 124.389681 
L 567.714938 124.183292 
L 568.181039 124.114496 
L 569.11324 123.804914 
L 572.375943 122.669779 
L 573.774245 122.360197 
L 575.172546 121.809828 
L 577.036948 120.777887 
L 577.969149 120.399509 
L 578.43525 120.089926 
L 579.367451 119.883538 
L 579.833551 119.608354 
L 580.299652 119.50516 
L 581.697954 118.714005 
L 582.630155 118.335627 
L 584.494557 117.613268 
L 586.825059 116.822113 
L 587.75726 116.340541 
L 590.087763 115.549386 
L 592.884366 114.414251 
L 594.748768 113.5543 
L 599.409773 111.731204 
L 599.875874 111.421622 
L 601.740276 110.802457 
L 602.206376 110.802457 
L 603.138577 110.389681 
L 605.002979 108.876167 
L 605.46908 108.738575 
L 605.93518 108.463391 
L 606.401281 108.360197 
L 606.867381 108.11941 
L 607.333482 108.050614 
L 607.799582 107.706634 
L 608.265683 107.60344 
L 609.197884 107.018673 
L 610.596185 106.296314 
L 611.528386 105.917936 
L 611.994487 105.67715 
L 613.392789 105.367568 
L 615.723291 104.576413 
L 616.655492 104.26683 
L 618.053794 103.544472 
L 618.985995 103.097297 
L 619.918196 102.856511 
L 621.316497 102.202948 
L 625.511402 100.655037 
L 626.909703 99.795086 
L 627.375804 99.691892 
L 628.308005 99.244717 
L 629.240206 98.900737 
L 629.706307 98.487961 
L 630.638508 98.109582 
L 632.036809 97.62801 
L 632.50291 97.249631 
L 632.96901 97.215233 
L 633.901211 96.940049 
L 634.833412 96.630467 
L 635.299513 96.389681 
L 635.765613 96.320885 
L 637.163915 95.804914 
L 638.562216 95.288943 
L 640.426618 94.463391 
L 640.892719 94.394595 
L 644.621523 92.846683 
L 646.019825 92.399509 
L 646.952026 92.330713 
L 647.884227 91.952334 
L 650.68083 91.126781 
L 651.613031 91.092383 
L 655.341835 89.888452 
L 656.274036 89.372482 
L 656.740136 88.959705 
L 658.138438 88.134152 
L 659.070639 87.583784 
L 661.867242 86.689435 
L 662.333343 86.311057 
L 665.129946 85.141523 
L 666.994348 84.625553 
L 667.926549 84.212776 
L 668.392649 83.97199 
L 669.32485 83.696806 
L 669.790951 83.421622 
L 670.723152 83.249631 
L 674.451956 81.632924 
L 674.918057 81.564128 
L 675.384157 81.254545 
L 675.850258 81.082555 
L 676.316358 80.669779 
L 676.782459 80.600983 
L 678.646861 79.878624 
L 680.511263 79.43145 
L 680.977363 79.362654 
L 681.443464 79.156265 
L 681.909564 79.121867 
L 682.841765 78.812285 
L 683.307866 78.777887 
L 684.706167 78.227518 
L 686.570569 77.67715 
L 687.50277 76.989189 
L 689.367172 75.957248 
L 690.765474 75.475676 
L 694.494278 73.721376 
L 694.960379 73.48059 
L 695.426479 73.033415 
L 698.223082 72.139066 
L 699.155283 71.760688 
L 700.087484 71.519902 
L 700.553585 71.279115 
L 701.019685 70.866339 
L 702.884087 70.384767 
L 703.350188 70.040786 
L 709.409495 67.839312 
L 710.341696 67.667322 
L 714.5366 66.188206 
L 715.468801 65.94742 
L 715.934902 65.741032 
L 716.401002 65.741032 
L 717.333203 65.362654 
L 718.265404 64.812285 
L 720.595907 64.02113 
L 721.994209 63.539558 
L 722.460309 63.470762 
L 723.39251 63.092383 
L 724.790812 62.782801 
L 726.189113 62.335627 
L 726.655214 62.232432 
L 727.121314 61.92285 
L 728.053515 61.716462 
L 737.375526 59.033415 
L 739.706028 58.620639 
L 740.638229 58.173464 
L 741.10433 57.863882 
L 744.833134 56.556757 
L 745.765335 56.281572 
L 747.163636 55.8 
L 747.163636 55.8 
" clip-path="url(#pf8bc17a5c9)" style="fill: none; stroke: #1f77b4; stroke-width: 1.5; stroke-linecap: square"/>
   </g>
   <g id="line2d_34">
    <path d="M 138.902464 307.8 
L 143.097369 307.696806 
L 146.826173 307.524816 
L 148.690575 307.524816 
L 149.156675 307.387224 
L 151.487178 307.284029 
L 154.283781 306.974447 
L 157.080384 306.871253 
L 158.012585 306.768059 
L 161.275289 306.630467 
L 164.537992 306.527273 
L 166.868495 306.458477 
L 172.927802 306.355283 
L 175.258304 306.286486 
L 178.521008 306.183292 
L 180.851511 306.114496 
L 185.978616 306.011302 
L 187.843018 305.839312 
L 189.70742 305.804914 
L 192.504023 305.70172 
L 194.368425 305.667322 
L 196.698928 305.598526 
L 198.56333 305.426536 
L 202.758235 305.323342 
L 203.690436 305.254545 
L 205.554838 305.151351 
L 208.351441 305.048157 
L 210.215843 304.944963 
L 218.605652 304.428993 
L 221.868356 304.325799 
L 223.266657 304.188206 
L 225.59716 304.085012 
L 230.258165 303.844226 
L 234.91917 303.77543 
L 236.783572 303.569042 
L 238.647974 303.465848 
L 243.77508 302.984275 
L 247.037784 302.605897 
L 248.436085 302.537101 
L 252.164889 302.055528 
L 254.961492 301.986732 
L 256.359794 301.84914 
L 257.758096 301.745946 
L 270.80891 300.748403 
L 271.741111 300.576413 
L 274.537714 300.473219 
L 281.995322 300.026044 
L 285.258026 299.92285 
L 287.122428 299.716462 
L 289.452931 299.613268 
L 292.249534 299.510074 
L 294.580036 299.40688 
L 296.444438 299.372482 
L 298.774941 299.303686 
L 299.707142 299.166093 
L 306.232549 299.062899 
L 307.16475 298.959705 
L 312.757956 298.856511 
L 316.952861 298.650123 
L 320.215565 298.546929 
L 322.079967 298.340541 
L 325.34267 298.237346 
L 326.274871 298.065356 
L 328.605374 297.99656 
L 333.266379 297.927764 
L 335.130781 297.755774 
L 336.995183 297.721376 
L 338.393485 297.618182 
L 340.257887 297.446192 
L 344.918892 297.205405 
L 349.579897 297.102211 
L 353.774802 296.895823 
L 355.173103 296.861425 
L 356.105304 296.723833 
L 358.435807 296.620639 
L 359.368008 296.551843 
L 360.300209 296.483047 
L 361.23241 296.414251 
L 365.427314 296.345455 
L 366.825616 296.24226 
L 379.41033 295.416708 
L 381.740833 295.313514 
L 384.071335 295.244717 
L 390.596742 295.141523 
L 391.528943 295.003931 
L 398.054351 294.900737 
L 402.715356 294.659951 
L 403.647557 294.625553 
L 404.579758 294.522359 
L 406.91026 294.419165 
L 409.240763 294.350369 
L 411.571265 294.247174 
L 413.901768 294.178378 
L 418.096673 294.075184 
L 420.893276 293.97199 
L 427.418683 293.868796 
L 432.545789 293.593612 
L 434.410191 293.524816 
L 435.808492 293.421622 
L 442.333899 293.318428 
L 445.130503 293.215233 
L 453.520312 293.112039 
L 455.384714 293.077641 
L 460.97792 293.008845 
L 461.910121 292.940049 
L 468.435528 292.836855 
L 470.29993 292.802457 
L 482.418544 292.699263 
L 483.816845 292.561671 
L 504.791369 292.458477 
L 507.121871 292.389681 
L 519.240484 292.320885 
L 520.172686 292.252088 
L 522.503188 292.183292 
L 523.90149 292.0457 
L 526.698093 291.942506 
L 529.960796 291.804914 
L 534.155701 291.70172 
L 536.486204 291.632924 
L 539.748907 291.52973 
L 543.477711 291.35774 
L 545.808214 291.254545 
L 547.672616 291.220147 
L 551.867521 291.116953 
L 553.731923 291.082555 
L 559.791229 290.979361 
L 561.655631 290.944963 
L 563.986134 290.841769 
L 566.782737 290.738575 
L 570.045441 290.669779 
L 570.977642 290.600983 
L 582.164054 290.497789 
L 588.223361 290.153808 
L 590.553863 290.085012 
L 591.486064 289.981818 
L 592.418265 289.913022 
L 596.147069 289.809828 
L 598.943673 289.706634 
L 603.604678 289.60344 
L 605.93518 289.362654 
L 610.596185 289.259459 
L 611.528386 289.156265 
L 616.189392 289.053071 
L 618.519894 288.984275 
L 623.647 288.949877 
L 624.579201 288.846683 
L 629.706307 288.743489 
L 630.638508 288.674693 
L 640.892719 288.571499 
L 643.689322 288.468305 
L 650.68083 288.365111 
L 652.545232 288.330713 
L 656.740136 288.261916 
L 657.672337 288.158722 
L 663.731644 288.055528 
L 666.062147 287.986732 
L 674.451956 287.883538 
L 675.850258 287.780344 
L 677.248559 287.67715 
L 678.646861 287.573956 
L 685.638368 287.470762 
L 688.434971 287.367568 
L 701.019685 287.264373 
L 705.21459 287.057985 
L 710.807796 286.954791 
L 711.739997 286.885995 
L 718.731505 286.817199 
L 719.663706 286.748403 
L 724.790812 286.645209 
L 726.655214 286.610811 
L 733.180621 286.507617 
L 735.977224 286.404423 
L 743.900933 286.301229 
L 745.765335 286.26683 
L 747.163636 286.26683 
L 747.163636 286.26683 
" clip-path="url(#pf8bc17a5c9)" style="fill: none; stroke: #ff7f0e; stroke-width: 1.5; stroke-linecap: square"/>
   </g>
   <g id="patch_3">
    <path d="M 108 320.4 
L 108 43.2 
" style="fill: none; stroke: #a9a9a9; stroke-width: 0.8; stroke-linejoin: miter; stroke-linecap: square"/>
   </g>
   <g id="patch_4">
    <path d="M 777.6 320.4 
L 777.6 43.2 
" style="fill: none"/>
   </g>
   <g id="patch_5">
    <path d="M 108 320.4 
L 777.6 320.4 
" style="fill: none; stroke: #a9a9a9; stroke-width: 0.8; stroke-linejoin: miter; stroke-linecap: square"/>
   </g>
   <g id="patch_6">
    <path d="M 108 43.2 
L 777.6 43.2 
" style="fill: none"/>
   </g>
   <g id="text_17">
    <!-- get_subscribe history -->
    <g style="fill: #a9a9a9" transform="translate(378.6075 37.2) scale(0.12 -0.12)">
     <defs>
      <path id="DejaVuSans-67" d="M 2906 1791 
Q 2906 2416 2648 2759 
Q 2391 3103 1925 3103 
Q 1463 3103 1205 2759 
Q 947 2416 947 1791 
Q 947 1169 1205 825 
Q 1463 481 1925 481 
Q 2391 481 2648 825 
Q 2906 1169 2906 1791 
z
M 3481 434 
Q 3481 -459 3084 -895 
Q 2688 -1331 1869 -1331 
Q 1566 -1331 1297 -1286 
Q 1028 -1241 775 -1147 
L 775 -588 
Q 1028 -725 1275 -790 
Q 1522 -856 1778 -856 
Q 2344 -856 2625 -561 
Q 2906 -266 2906 331 
L 2906 616 
Q 2728 306 2450 153 
Q 2172 0 1784 0 
Q 1141 0 747 490 
Q 353 981 353 1791 
Q 353 2603 747 3093 
Q 1141 3584 1784 3584 
Q 2172 3584 2450 3431 
Q 2728 3278 2906 2969 
L 2906 3500 
L 3481 3500 
L 3481 434 
z
" transform="scale(0.015625)"/>
      <path id="DejaVuSans-65" d="M 3597 1894 
L 3597 1613 
L 953 1613 
Q 991 1019 1311 708 
Q 1631 397 2203 397 
Q 2534 397 2845 478 
Q 3156 559 3463 722 
L 3463 178 
Q 3153 47 2828 -22 
Q 2503 -91 2169 -91 
Q 1331 -91 842 396 
Q 353 884 353 1716 
Q 353 2575 817 3079 
Q 1281 3584 2069 3584 
Q 2775 3584 3186 3129 
Q 3597 2675 3597 1894 
z
M 3022 2063 
Q 3016 2534 2758 2815 
Q 2500 3097 2075 3097 
Q 1594 3097 1305 2825 
Q 1016 2553 972 2059 
L 3022 2063 
z
" transform="scale(0.015625)"/>
      <path id="DejaVuSans-74" d="M 1172 4494 
L 1172 3500 
L 2356 3500 
L 2356 3053 
L 1172 3053 
L 1172 1153 
Q 1172 725 1289 603 
Q 1406 481 1766 481 
L 2356 481 
L 2356 0 
L 1766 0 
Q 1100 0 847 248 
Q 594 497 594 1153 
L 594 3053 
L 172 3053 
L 172 3500 
L 594 3500 
L 594 4494 
L 1172 4494 
z
" transform="scale(0.015625)"/>
      <path id="DejaVuSans-5f" d="M 3263 -1063 
L 3263 -1509 
L -63 -1509 
L -63 -1063 
L 3263 -1063 
z
" transform="scale(0.015625)"/>
      <path id="DejaVuSans-73" d="M 2834 3397 
L 2834 2853 
Q 2591 2978 2328 3040 
Q 2066 3103 1784 3103 
Q 1356 3103 1142 2972 
Q 928 2841 928 2578 
Q 928 2378 1081 2264 
Q 1234 2150 1697 2047 
L 1894 2003 
Q 2506 1872 2764 1633 
Q 3022 1394 3022 966 
Q 3022 478 2636 193 
Q 2250 -91 1575 -91 
Q 1294 -91 989 -36 
Q 684 19 347 128 
L 347 722 
Q 666 556 975 473 
Q 1284 391 1588 391 
Q 1994 391 2212 530 
Q 2431 669 2431 922 
Q 2431 1156 2273 1281 
Q 2116 1406 1581 1522 
L 1381 1569 
Q 847 1681 609 1914 
Q 372 2147 372 2553 
Q 372 3047 722 3315 
Q 1072 3584 1716 3584 
Q 2034 3584 2315 3537 
Q 2597 3491 2834 3397 
z
" transform="scale(0.015625)"/>
      <path id="DejaVuSans-75" d="M 544 1381 
L 544 3500 
L 1119 3500 
L 1119 1403 
Q 1119 906 1312 657 
Q 1506 409 1894 409 
Q 2359 409 2629 706 
Q 2900 1003 2900 1516 
L 2900 3500 
L 3475 3500 
L 3475 0 
L 2900 0 
L 2900 538 
Q 2691 219 2414 64 
Q 2138 -91 1772 -91 
Q 1169 -91 856 284 
Q 544 659 544 1381 
z
M 1991 3584 
L 1991 3584 
z
" transform="scale(0.015625)"/>
      <path id="DejaVuSans-62" d="M 3116 1747 
Q 3116 2381 2855 2742 
Q 2594 3103 2138 3103 
Q 1681 3103 1420 2742 
Q 1159 2381 1159 1747 
Q 1159 1113 1420 752 
Q 1681 391 2138 391 
Q 2594 391 2855 752 
Q 3116 1113 3116 1747 
z
M 1159 2969 
Q 1341 3281 1617 3432 
Q 1894 3584 2278 3584 
Q 2916 3584 3314 3078 
Q 3713 2572 3713 1747 
Q 3713 922 3314 415 
Q 2916 -91 2278 -91 
Q 1894 -91 1617 61 
Q 1341 213 1159 525 
L 1159 0 
L 581 0 
L 581 4863 
L 1159 4863 
L 1159 2969 
z
" transform="scale(0.015625)"/>
      <path id="DejaVuSans-63" d="M 3122 3366 
L 3122 2828 
Q 2878 2963 2633 3030 
Q 2388 3097 2138 3097 
Q 1578 3097 1268 2742 
Q 959 2388 959 1747 
Q 959 1106 1268 751 
Q 1578 397 2138 397 
Q 2388 397 2633 464 
Q 2878 531 3122 666 
L 3122 134 
Q 2881 22 2623 -34 
Q 2366 -91 2075 -91 
Q 1284 -91 818 406 
Q 353 903 353 1747 
Q 353 2603 823 3093 
Q 1294 3584 2113 3584 
Q 2378 3584 2631 3529 
Q 2884 3475 3122 3366 
z
" transform="scale(0.015625)"/>
      <path id="DejaVuSans-72" d="M 2631 2963 
Q 2534 3019 2420 3045 
Q 2306 3072 2169 3072 
Q 1681 3072 1420 2755 
Q 1159 2438 1159 1844 
L 1159 0 
L 581 0 
L 581 3500 
L 1159 3500 
L 1159 2956 
Q 1341 3275 1631 3429 
Q 1922 3584 2338 3584 
Q 2397 3584 2469 3576 
Q 2541 3569 2628 3553 
L 2631 2963 
z
" transform="scale(0.015625)"/>
      <path id="DejaVuSans-69" d="M 603 3500 
L 1178 3500 
L 1178 0 
L 603 0 
L 603 3500 
z
M 603 4863 
L 1178 4863 
L 1178 4134 
L 603 4134 
L 603 4863 
z
" transform="scale(0.015625)"/>
      <path id="DejaVuSans-20" transform="scale(0.015625)"/>
      <path id="DejaVuSans-68" d="M 3513 2113 
L 3513 0 
L 2938 0 
L 2938 2094 
Q 2938 2591 2744 2837 
Q 2550 3084 2163 3084 
Q 1697 3084 1428 2787 
Q 1159 2491 1159 1978 
L 1159 0 
L 581 0 
L 581 4863 
L 1159 4863 
L 1159 2956 
Q 1366 3272 1645 3428 
Q 1925 3584 2291 3584 
Q 2894 3584 3203 3211 
Q 3513 2838 3513 2113 
z
" transform="scale(0.015625)"/>
      <path id="DejaVuSans-6f" d="M 1959 3097 
Q 1497 3097 1228 2736 
Q 959 2375 959 1747 
Q 959 1119 1226 758 
Q 1494 397 1959 397 
Q 2419 397 2687 759 
Q 2956 1122 2956 1747 
Q 2956 2369 2687 2733 
Q 2419 3097 1959 3097 
z
M 1959 3584 
Q 2709 3584 3137 3096 
Q 3566 2609 3566 1747 
Q 3566 888 3137 398 
Q 2709 -91 1959 -91 
Q 1206 -91 779 398 
Q 353 888 353 1747 
Q 353 2609 779 3096 
Q 1206 3584 1959 3584 
z
" transform="scale(0.015625)"/>
      <path id="DejaVuSans-79" d="M 2059 -325 
Q 1816 -950 1584 -1140 
Q 1353 -1331 966 -1331 
L 506 -1331 
L 506 -850 
L 844 -850 
Q 1081 -850 1212 -737 
Q 1344 -625 1503 -206 
L 1606 56 
L 191 3500 
L 800 3500 
L 1894 763 
L 2988 3500 
L 3597 3500 
L 2059 -325 
z
" transform="scale(0.015625)"/>
     </defs>
     <use xlink:href="#DejaVuSans-67"/>
     <use xlink:href="#DejaVuSans-65" transform="translate(63.476562 0)"/>
     <use xlink:href="#DejaVuSans-74" transform="translate(125 0)"/>
     <use xlink:href="#DejaVuSans-5f" transform="translate(164.208984 0)"/>
     <use xlink:href="#DejaVuSans-73" transform="translate(214.208984 0)"/>
     <use xlink:href="#DejaVuSans-75" transform="translate(266.308594 0)"/>
     <use xlink:href="#DejaVuSans-62" transform="translate(329.6875 0)"/>
     <use xlink:href="#DejaVuSans-73" transform="translate(393.164062 0)"/>
     <use xlink:href="#DejaVuSans-63" transform="translate(445.263672 0)"/>
     <use xlink:href="#DejaVuSans-72" transform="translate(500.244141 0)"/>
     <use xlink:href="#DejaVuSans-69" transform="translate(541.357422 0)"/>
     <use xlink:href="#DejaVuSans-62" transform="translate(569.140625 0)"/>
     <use xlink:href="#DejaVuSans-65" transform="translate(632.617188 0)"/>
     <use xlink:href="#DejaVuSans-20" transform="translate(694.140625 0)"/>
     <use xlink:href="#DejaVuSans-68" transform="translate(725.927734 0)"/>
     <use xlink:href="#DejaVuSans-69" transform="translate(789.306641 0)"/>
     <use xlink:href="#DejaVuSans-73" transform="translate(817.089844 0)"/>
     <use xlink:href="#DejaVuSans-74" transform="translate(869.189453 0)"/>
     <use xlink:href="#DejaVuSans-6f" transform="translate(908.398438 0)"/>
     <use xlink:href="#DejaVuSans-72" transform="translate(969.580078 0)"/>
     <use xlink:href="#DejaVuSans-79" transform="translate(1010.693359 0)"/>
    </g>
   </g>
   <g id="legend_1">
    <g id="line2d_35">
     <path d="M 815.08 328.498438 
L 825.08 328.498438 
L 835.08 328.498438 
" style="fill: none; stroke: #1f77b4; stroke-width: 1.5; stroke-linecap: square"/>
    </g>
    <g id="text_18">
     <!-- star -->
     <g style="fill: #a9a9a9" transform="translate(843.08 331.998438) scale(0.1 -0.1)">
      <defs>
       <path id="DejaVuSans-61" d="M 2194 1759 
Q 1497 1759 1228 1600 
Q 959 1441 959 1056 
Q 959 750 1161 570 
Q 1363 391 1709 391 
Q 2188 391 2477 730 
Q 2766 1069 2766 1631 
L 2766 1759 
L 2194 1759 
z
M 3341 1997 
L 3341 0 
L 2766 0 
L 2766 531 
Q 2569 213 2275 61 
Q 1981 -91 1556 -91 
Q 1019 -91 701 211 
Q 384 513 384 1019 
Q 384 1609 779 1909 
Q 1175 2209 1959 2209 
L 2766 2209 
L 2766 2266 
Q 2766 2663 2505 2880 
Q 2244 3097 1772 3097 
Q 1472 3097 1187 3025 
Q 903 2953 641 2809 
L 641 3341 
Q 956 3463 1253 3523 
Q 1550 3584 1831 3584 
Q 2591 3584 2966 3190 
Q 3341 2797 3341 1997 
z
" transform="scale(0.015625)"/>
      </defs>
      <use xlink:href="#DejaVuSans-73"/>
      <use xlink:href="#DejaVuSans-74" transform="translate(52.099609 0)"/>
      <use xlink:href="#DejaVuSans-61" transform="translate(91.308594 0)"/>
      <use xlink:href="#DejaVuSans-72" transform="translate(152.587891 0)"/>
     </g>
    </g>
    <g id="line2d_36">
     <path d="M 815.08 343.176562 
L 825.08 343.176562 
L 835.08 343.176562 
" style="fill: none; stroke: #ff7f0e; stroke-width: 1.5; stroke-linecap: square"/>
    </g>
    <g id="text_19">
     <!-- fork -->
     <g style="fill: #a9a9a9" transform="translate(843.08 346.676562) scale(0.1 -0.1)">
      <defs>
       <path id="DejaVuSans-66" d="M 2375 4863 
L 2375 4384 
L 1825 4384 
Q 1516 4384 1395 4259 
Q 1275 4134 1275 3809 
L 1275 3500 
L 2222 3500 
L 2222 3053 
L 1275 3053 
L 1275 0 
L 697 0 
L 697 3053 
L 147 3053 
L 147 3500 
L 697 3500 
L 697 3744 
Q 697 4328 969 4595 
Q 1241 4863 1831 4863 
L 2375 4863 
z
" transform="scale(0.015625)"/>
       <path id="DejaVuSans-6b" d="M 581 4863 
L 1159 4863 
L 1159 1991 
L 2875 3500 
L 3609 3500 
L 1753 1863 
L 3688 0 
L 2938 0 
L 1159 1709 
L 1159 0 
L 581 0 
L 581 4863 
z
" transform="scale(0.015625)"/>
      </defs>
      <use xlink:href="#DejaVuSans-66"/>
      <use xlink:href="#DejaVuSans-6f" transform="translate(35.205078 0)"/>
      <use xlink:href="#DejaVuSans-72" transform="translate(96.386719 0)"/>
      <use xlink:href="#DejaVuSans-6b" transform="translate(137.5 0)"/>
     </g>
    </g>
   </g>
  </g>
 </g>
 <defs>
  <clipPath id="pf8bc17a5c9">
   <rect x="108" y="43.2" width="669.6" height="277.2"/>
  </clipPath>
 </defs>
</svg>
