<?xml version="1.0" encoding="utf-8" standalone="no"?>
<!DOCTYPE svg PUBLIC "-//W3C//DTD SVG 1.1//EN"
  "http://www.w3.org/Graphics/SVG/1.1/DTD/svg11.dtd">
<svg xmlns:xlink="http://www.w3.org/1999/xlink" width="864pt" height="360pt" viewBox="0 0 864 360" xmlns="http://www.w3.org/2000/svg" version="1.1">
 <metadata>
  <rdf:RDF xmlns:dc="http://purl.org/dc/elements/1.1/" xmlns:cc="http://creativecommons.org/ns#" xmlns:rdf="http://www.w3.org/1999/02/22-rdf-syntax-ns#">
   <cc:Work>
    <dc:type rdf:resource="http://purl.org/dc/dcmitype/StillImage"/>
    <dc:date>2025-05-15T20:07:28.784854</dc:date>
    <dc:format>image/svg+xml</dc:format>
    <dc:creator>
     <cc:Agent>
      <dc:title>Matplotlib v3.10.3, https://matplotlib.org/</dc:title>
     </cc:Agent>
    </dc:creator>
   </cc:Work>
  </rdf:RDF>
 </metadata>
 <defs>
  <style type="text/css">*{stroke-linejoin: round; stroke-linecap: butt}</style>
 </defs>
 <g id="figure_1">
  <g id="patch_1">
   <path d="M 0 360 
L 864 360 
L 864 0 
L 0 0 
L 0 360 
z
" style="fill: none; opacity: 0"/>
  </g>
  <g id="axes_1">
   <g id="patch_2">
    <path d="M 108 320.4 
L 777.6 320.4 
L 777.6 43.2 
L 108 43.2 
L 108 320.4 
z
" style="fill: none; opacity: 0"/>
   </g>
   <g id="matplotlib.axis_1">
    <g id="xtick_1">
     <g id="line2d_1">
      <path d="M 128.371139 320.4 
L 128.371139 43.2 
" clip-path="url(#p1b55efcd0c)" style="fill: none; stroke-dasharray: 5.12,1.28,0.8,1.28; stroke-dashoffset: 0; stroke: #b0b0b0; stroke-width: 0.8"/>
     </g>
     <g id="line2d_2">
      <defs>
       <path id="m0c46edb3cf" d="M 0 0 
L 0 3.5 
" style="stroke: #a9a9a9; stroke-width: 0.8"/>
      </defs>
      <g>
       <use xlink:href="#m0c46edb3cf" x="128.371139" y="320.4" style="fill: #a9a9a9; stroke: #a9a9a9; stroke-width: 0.8"/>
      </g>
     </g>
     <g id="text_1">
      <!-- 2021-07 -->
      <g style="fill: #a9a9a9" transform="translate(107.479733 334.998438) scale(0.1 -0.1)">
       <defs>
        <path id="DejaVuSans-32" d="M 1228 531 
L 3431 531 
L 3431 0 
L 469 0 
L 469 531 
Q 828 903 1448 1529 
Q 2069 2156 2228 2338 
Q 2531 2678 2651 2914 
Q 2772 3150 2772 3378 
Q 2772 3750 2511 3984 
Q 2250 4219 1831 4219 
Q 1534 4219 1204 4116 
Q 875 4013 500 3803 
L 500 4441 
Q 881 4594 1212 4672 
Q 1544 4750 1819 4750 
Q 2544 4750 2975 4387 
Q 3406 4025 3406 3419 
Q 3406 3131 3298 2873 
Q 3191 2616 2906 2266 
Q 2828 2175 2409 1742 
Q 1991 1309 1228 531 
z
" transform="scale(0.015625)"/>
        <path id="DejaVuSans-30" d="M 2034 4250 
Q 1547 4250 1301 3770 
Q 1056 3291 1056 2328 
Q 1056 1369 1301 889 
Q 1547 409 2034 409 
Q 2525 409 2770 889 
Q 3016 1369 3016 2328 
Q 3016 3291 2770 3770 
Q 2525 4250 2034 4250 
z
M 2034 4750 
Q 2819 4750 3233 4129 
Q 3647 3509 3647 2328 
Q 3647 1150 3233 529 
Q 2819 -91 2034 -91 
Q 1250 -91 836 529 
Q 422 1150 422 2328 
Q 422 3509 836 4129 
Q 1250 4750 2034 4750 
z
" transform="scale(0.015625)"/>
        <path id="DejaVuSans-31" d="M 794 531 
L 1825 531 
L 1825 4091 
L 703 3866 
L 703 4441 
L 1819 4666 
L 2450 4666 
L 2450 531 
L 3481 531 
L 3481 0 
L 794 0 
L 794 531 
z
" transform="scale(0.015625)"/>
        <path id="DejaVuSans-2d" d="M 313 2009 
L 1997 2009 
L 1997 1497 
L 313 1497 
L 313 2009 
z
" transform="scale(0.015625)"/>
        <path id="DejaVuSans-37" d="M 525 4666 
L 3525 4666 
L 3525 4397 
L 1831 0 
L 1172 0 
L 2766 4134 
L 525 4134 
L 525 4666 
z
" transform="scale(0.015625)"/>
       </defs>
       <use xlink:href="#DejaVuSans-32"/>
       <use xlink:href="#DejaVuSans-30" transform="translate(63.623047 0)"/>
       <use xlink:href="#DejaVuSans-32" transform="translate(127.246094 0)"/>
       <use xlink:href="#DejaVuSans-31" transform="translate(190.869141 0)"/>
       <use xlink:href="#DejaVuSans-2d" transform="translate(254.492188 0)"/>
       <use xlink:href="#DejaVuSans-30" transform="translate(290.576172 0)"/>
       <use xlink:href="#DejaVuSans-37" transform="translate(354.199219 0)"/>
      </g>
     </g>
    </g>
    <g id="xtick_2">
     <g id="line2d_3">
      <path d="M 208.892935 320.4 
L 208.892935 43.2 
" clip-path="url(#p1b55efcd0c)" style="fill: none; stroke-dasharray: 5.12,1.28,0.8,1.28; stroke-dashoffset: 0; stroke: #b0b0b0; stroke-width: 0.8"/>
     </g>
     <g id="line2d_4">
      <g>
       <use xlink:href="#m0c46edb3cf" x="208.892935" y="320.4" style="fill: #a9a9a9; stroke: #a9a9a9; stroke-width: 0.8"/>
      </g>
     </g>
     <g id="text_2">
      <!-- 2022-01 -->
      <g style="fill: #a9a9a9" transform="translate(188.001529 334.998438) scale(0.1 -0.1)">
       <use xlink:href="#DejaVuSans-32"/>
       <use xlink:href="#DejaVuSans-30" transform="translate(63.623047 0)"/>
       <use xlink:href="#DejaVuSans-32" transform="translate(127.246094 0)"/>
       <use xlink:href="#DejaVuSans-32" transform="translate(190.869141 0)"/>
       <use xlink:href="#DejaVuSans-2d" transform="translate(254.492188 0)"/>
       <use xlink:href="#DejaVuSans-30" transform="translate(290.576172 0)"/>
       <use xlink:href="#DejaVuSans-31" transform="translate(354.199219 0)"/>
      </g>
     </g>
    </g>
    <g id="xtick_3">
     <g id="line2d_5">
      <path d="M 288.101876 320.4 
L 288.101876 43.2 
" clip-path="url(#p1b55efcd0c)" style="fill: none; stroke-dasharray: 5.12,1.28,0.8,1.28; stroke-dashoffset: 0; stroke: #b0b0b0; stroke-width: 0.8"/>
     </g>
     <g id="line2d_6">
      <g>
       <use xlink:href="#m0c46edb3cf" x="288.101876" y="320.4" style="fill: #a9a9a9; stroke: #a9a9a9; stroke-width: 0.8"/>
      </g>
     </g>
     <g id="text_3">
      <!-- 2022-07 -->
      <g style="fill: #a9a9a9" transform="translate(267.210469 334.998438) scale(0.1 -0.1)">
       <use xlink:href="#DejaVuSans-32"/>
       <use xlink:href="#DejaVuSans-30" transform="translate(63.623047 0)"/>
       <use xlink:href="#DejaVuSans-32" transform="translate(127.246094 0)"/>
       <use xlink:href="#DejaVuSans-32" transform="translate(190.869141 0)"/>
       <use xlink:href="#DejaVuSans-2d" transform="translate(254.492188 0)"/>
       <use xlink:href="#DejaVuSans-30" transform="translate(290.576172 0)"/>
       <use xlink:href="#DejaVuSans-37" transform="translate(354.199219 0)"/>
      </g>
     </g>
    </g>
    <g id="xtick_4">
     <g id="line2d_7">
      <path d="M 368.623672 320.4 
L 368.623672 43.2 
" clip-path="url(#p1b55efcd0c)" style="fill: none; stroke-dasharray: 5.12,1.28,0.8,1.28; stroke-dashoffset: 0; stroke: #b0b0b0; stroke-width: 0.8"/>
     </g>
     <g id="line2d_8">
      <g>
       <use xlink:href="#m0c46edb3cf" x="368.623672" y="320.4" style="fill: #a9a9a9; stroke: #a9a9a9; stroke-width: 0.8"/>
      </g>
     </g>
     <g id="text_4">
      <!-- 2023-01 -->
      <g style="fill: #a9a9a9" transform="translate(347.732265 334.998438) scale(0.1 -0.1)">
       <defs>
        <path id="DejaVuSans-33" d="M 2597 2516 
Q 3050 2419 3304 2112 
Q 3559 1806 3559 1356 
Q 3559 666 3084 287 
Q 2609 -91 1734 -91 
Q 1441 -91 1130 -33 
Q 819 25 488 141 
L 488 750 
Q 750 597 1062 519 
Q 1375 441 1716 441 
Q 2309 441 2620 675 
Q 2931 909 2931 1356 
Q 2931 1769 2642 2001 
Q 2353 2234 1838 2234 
L 1294 2234 
L 1294 2753 
L 1863 2753 
Q 2328 2753 2575 2939 
Q 2822 3125 2822 3475 
Q 2822 3834 2567 4026 
Q 2313 4219 1838 4219 
Q 1578 4219 1281 4162 
Q 984 4106 628 3988 
L 628 4550 
Q 988 4650 1302 4700 
Q 1616 4750 1894 4750 
Q 2613 4750 3031 4423 
Q 3450 4097 3450 3541 
Q 3450 3153 3228 2886 
Q 3006 2619 2597 2516 
z
" transform="scale(0.015625)"/>
       </defs>
       <use xlink:href="#DejaVuSans-32"/>
       <use xlink:href="#DejaVuSans-30" transform="translate(63.623047 0)"/>
       <use xlink:href="#DejaVuSans-32" transform="translate(127.246094 0)"/>
       <use xlink:href="#DejaVuSans-33" transform="translate(190.869141 0)"/>
       <use xlink:href="#DejaVuSans-2d" transform="translate(254.492188 0)"/>
       <use xlink:href="#DejaVuSans-30" transform="translate(290.576172 0)"/>
       <use xlink:href="#DejaVuSans-31" transform="translate(354.199219 0)"/>
      </g>
     </g>
    </g>
    <g id="xtick_5">
     <g id="line2d_9">
      <path d="M 447.832612 320.4 
L 447.832612 43.2 
" clip-path="url(#p1b55efcd0c)" style="fill: none; stroke-dasharray: 5.12,1.28,0.8,1.28; stroke-dashoffset: 0; stroke: #b0b0b0; stroke-width: 0.8"/>
     </g>
     <g id="line2d_10">
      <g>
       <use xlink:href="#m0c46edb3cf" x="447.832612" y="320.4" style="fill: #a9a9a9; stroke: #a9a9a9; stroke-width: 0.8"/>
      </g>
     </g>
     <g id="text_5">
      <!-- 2023-07 -->
      <g style="fill: #a9a9a9" transform="translate(426.941206 334.998438) scale(0.1 -0.1)">
       <use xlink:href="#DejaVuSans-32"/>
       <use xlink:href="#DejaVuSans-30" transform="translate(63.623047 0)"/>
       <use xlink:href="#DejaVuSans-32" transform="translate(127.246094 0)"/>
       <use xlink:href="#DejaVuSans-33" transform="translate(190.869141 0)"/>
       <use xlink:href="#DejaVuSans-2d" transform="translate(254.492188 0)"/>
       <use xlink:href="#DejaVuSans-30" transform="translate(290.576172 0)"/>
       <use xlink:href="#DejaVuSans-37" transform="translate(354.199219 0)"/>
      </g>
     </g>
    </g>
    <g id="xtick_6">
     <g id="line2d_11">
      <path d="M 528.354408 320.4 
L 528.354408 43.2 
" clip-path="url(#p1b55efcd0c)" style="fill: none; stroke-dasharray: 5.12,1.28,0.8,1.28; stroke-dashoffset: 0; stroke: #b0b0b0; stroke-width: 0.8"/>
     </g>
     <g id="line2d_12">
      <g>
       <use xlink:href="#m0c46edb3cf" x="528.354408" y="320.4" style="fill: #a9a9a9; stroke: #a9a9a9; stroke-width: 0.8"/>
      </g>
     </g>
     <g id="text_6">
      <!-- 2024-01 -->
      <g style="fill: #a9a9a9" transform="translate(507.463002 334.998438) scale(0.1 -0.1)">
       <defs>
        <path id="DejaVuSans-34" d="M 2419 4116 
L 825 1625 
L 2419 1625 
L 2419 4116 
z
M 2253 4666 
L 3047 4666 
L 3047 1625 
L 3713 1625 
L 3713 1100 
L 3047 1100 
L 3047 0 
L 2419 0 
L 2419 1100 
L 313 1100 
L 313 1709 
L 2253 4666 
z
" transform="scale(0.015625)"/>
       </defs>
       <use xlink:href="#DejaVuSans-32"/>
       <use xlink:href="#DejaVuSans-30" transform="translate(63.623047 0)"/>
       <use xlink:href="#DejaVuSans-32" transform="translate(127.246094 0)"/>
       <use xlink:href="#DejaVuSans-34" transform="translate(190.869141 0)"/>
       <use xlink:href="#DejaVuSans-2d" transform="translate(254.492188 0)"/>
       <use xlink:href="#DejaVuSans-30" transform="translate(290.576172 0)"/>
       <use xlink:href="#DejaVuSans-31" transform="translate(354.199219 0)"/>
      </g>
     </g>
    </g>
    <g id="xtick_7">
     <g id="line2d_13">
      <path d="M 608.000967 320.4 
L 608.000967 43.2 
" clip-path="url(#p1b55efcd0c)" style="fill: none; stroke-dasharray: 5.12,1.28,0.8,1.28; stroke-dashoffset: 0; stroke: #b0b0b0; stroke-width: 0.8"/>
     </g>
     <g id="line2d_14">
      <g>
       <use xlink:href="#m0c46edb3cf" x="608.000967" y="320.4" style="fill: #a9a9a9; stroke: #a9a9a9; stroke-width: 0.8"/>
      </g>
     </g>
     <g id="text_7">
      <!-- 2024-07 -->
      <g style="fill: #a9a9a9" transform="translate(587.109561 334.998438) scale(0.1 -0.1)">
       <use xlink:href="#DejaVuSans-32"/>
       <use xlink:href="#DejaVuSans-30" transform="translate(63.623047 0)"/>
       <use xlink:href="#DejaVuSans-32" transform="translate(127.246094 0)"/>
       <use xlink:href="#DejaVuSans-34" transform="translate(190.869141 0)"/>
       <use xlink:href="#DejaVuSans-2d" transform="translate(254.492188 0)"/>
       <use xlink:href="#DejaVuSans-30" transform="translate(290.576172 0)"/>
       <use xlink:href="#DejaVuSans-37" transform="translate(354.199219 0)"/>
      </g>
     </g>
    </g>
    <g id="xtick_8">
     <g id="line2d_15">
      <path d="M 688.522763 320.4 
L 688.522763 43.2 
" clip-path="url(#p1b55efcd0c)" style="fill: none; stroke-dasharray: 5.12,1.28,0.8,1.28; stroke-dashoffset: 0; stroke: #b0b0b0; stroke-width: 0.8"/>
     </g>
     <g id="line2d_16">
      <g>
       <use xlink:href="#m0c46edb3cf" x="688.522763" y="320.4" style="fill: #a9a9a9; stroke: #a9a9a9; stroke-width: 0.8"/>
      </g>
     </g>
     <g id="text_8">
      <!-- 2025-01 -->
      <g style="fill: #a9a9a9" transform="translate(667.631357 334.998438) scale(0.1 -0.1)">
       <defs>
        <path id="DejaVuSans-35" d="M 691 4666 
L 3169 4666 
L 3169 4134 
L 1269 4134 
L 1269 2991 
Q 1406 3038 1543 3061 
Q 1681 3084 1819 3084 
Q 2600 3084 3056 2656 
Q 3513 2228 3513 1497 
Q 3513 744 3044 326 
Q 2575 -91 1722 -91 
Q 1428 -91 1123 -41 
Q 819 9 494 109 
L 494 744 
Q 775 591 1075 516 
Q 1375 441 1709 441 
Q 2250 441 2565 725 
Q 2881 1009 2881 1497 
Q 2881 1984 2565 2268 
Q 2250 2553 1709 2553 
Q 1456 2553 1204 2497 
Q 953 2441 691 2322 
L 691 4666 
z
" transform="scale(0.015625)"/>
       </defs>
       <use xlink:href="#DejaVuSans-32"/>
       <use xlink:href="#DejaVuSans-30" transform="translate(63.623047 0)"/>
       <use xlink:href="#DejaVuSans-32" transform="translate(127.246094 0)"/>
       <use xlink:href="#DejaVuSans-35" transform="translate(190.869141 0)"/>
       <use xlink:href="#DejaVuSans-2d" transform="translate(254.492188 0)"/>
       <use xlink:href="#DejaVuSans-30" transform="translate(290.576172 0)"/>
       <use xlink:href="#DejaVuSans-31" transform="translate(354.199219 0)"/>
      </g>
     </g>
    </g>
    <g id="xtick_9">
     <g id="line2d_17">
      <path d="M 767.731704 320.4 
L 767.731704 43.2 
" clip-path="url(#p1b55efcd0c)" style="fill: none; stroke-dasharray: 5.12,1.28,0.8,1.28; stroke-dashoffset: 0; stroke: #b0b0b0; stroke-width: 0.8"/>
     </g>
     <g id="line2d_18">
      <g>
       <use xlink:href="#m0c46edb3cf" x="767.731704" y="320.4" style="fill: #a9a9a9; stroke: #a9a9a9; stroke-width: 0.8"/>
      </g>
     </g>
     <g id="text_9">
      <!-- 2025-07 -->
      <g style="fill: #a9a9a9" transform="translate(746.840298 334.998438) scale(0.1 -0.1)">
       <use xlink:href="#DejaVuSans-32"/>
       <use xlink:href="#DejaVuSans-30" transform="translate(63.623047 0)"/>
       <use xlink:href="#DejaVuSans-32" transform="translate(127.246094 0)"/>
       <use xlink:href="#DejaVuSans-35" transform="translate(190.869141 0)"/>
       <use xlink:href="#DejaVuSans-2d" transform="translate(254.492188 0)"/>
       <use xlink:href="#DejaVuSans-30" transform="translate(290.576172 0)"/>
       <use xlink:href="#DejaVuSans-37" transform="translate(354.199219 0)"/>
      </g>
     </g>
    </g>
   </g>
   <g id="matplotlib.axis_2">
    <g id="ytick_1">
     <g id="line2d_19">
      <path d="M 108 307.833028 
L 777.6 307.833028 
" clip-path="url(#p1b55efcd0c)" style="fill: none; stroke-dasharray: 5.12,1.28,0.8,1.28; stroke-dashoffset: 0; stroke: #b0b0b0; stroke-width: 0.8"/>
     </g>
     <g id="line2d_20">
      <defs>
       <path id="m6ebe7d06c0" d="M 0 0 
L -3.5 0 
" style="stroke: #a9a9a9; stroke-width: 0.8"/>
      </defs>
      <g>
       <use xlink:href="#m6ebe7d06c0" x="108" y="307.833028" style="fill: #a9a9a9; stroke: #a9a9a9; stroke-width: 0.8"/>
      </g>
     </g>
     <g id="text_10">
      <!-- 0 -->
      <g style="fill: #a9a9a9" transform="translate(94.6375 311.632246) scale(0.1 -0.1)">
       <use xlink:href="#DejaVuSans-30"/>
      </g>
     </g>
    </g>
    <g id="ytick_2">
     <g id="line2d_21">
      <path d="M 108 274.805505 
L 777.6 274.805505 
" clip-path="url(#p1b55efcd0c)" style="fill: none; stroke-dasharray: 5.12,1.28,0.8,1.28; stroke-dashoffset: 0; stroke: #b0b0b0; stroke-width: 0.8"/>
     </g>
     <g id="line2d_22">
      <g>
       <use xlink:href="#m6ebe7d06c0" x="108" y="274.805505" style="fill: #a9a9a9; stroke: #a9a9a9; stroke-width: 0.8"/>
      </g>
     </g>
     <g id="text_11">
      <!-- 1000 -->
      <g style="fill: #a9a9a9" transform="translate(75.55 278.604723) scale(0.1 -0.1)">
       <use xlink:href="#DejaVuSans-31"/>
       <use xlink:href="#DejaVuSans-30" transform="translate(63.623047 0)"/>
       <use xlink:href="#DejaVuSans-30" transform="translate(127.246094 0)"/>
       <use xlink:href="#DejaVuSans-30" transform="translate(190.869141 0)"/>
      </g>
     </g>
    </g>
    <g id="ytick_3">
     <g id="line2d_23">
      <path d="M 108 241.777982 
L 777.6 241.777982 
" clip-path="url(#p1b55efcd0c)" style="fill: none; stroke-dasharray: 5.12,1.28,0.8,1.28; stroke-dashoffset: 0; stroke: #b0b0b0; stroke-width: 0.8"/>
     </g>
     <g id="line2d_24">
      <g>
       <use xlink:href="#m6ebe7d06c0" x="108" y="241.777982" style="fill: #a9a9a9; stroke: #a9a9a9; stroke-width: 0.8"/>
      </g>
     </g>
     <g id="text_12">
      <!-- 2000 -->
      <g style="fill: #a9a9a9" transform="translate(75.55 245.5772) scale(0.1 -0.1)">
       <use xlink:href="#DejaVuSans-32"/>
       <use xlink:href="#DejaVuSans-30" transform="translate(63.623047 0)"/>
       <use xlink:href="#DejaVuSans-30" transform="translate(127.246094 0)"/>
       <use xlink:href="#DejaVuSans-30" transform="translate(190.869141 0)"/>
      </g>
     </g>
    </g>
    <g id="ytick_4">
     <g id="line2d_25">
      <path d="M 108 208.750459 
L 777.6 208.750459 
" clip-path="url(#p1b55efcd0c)" style="fill: none; stroke-dasharray: 5.12,1.28,0.8,1.28; stroke-dashoffset: 0; stroke: #b0b0b0; stroke-width: 0.8"/>
     </g>
     <g id="line2d_26">
      <g>
       <use xlink:href="#m6ebe7d06c0" x="108" y="208.750459" style="fill: #a9a9a9; stroke: #a9a9a9; stroke-width: 0.8"/>
      </g>
     </g>
     <g id="text_13">
      <!-- 3000 -->
      <g style="fill: #a9a9a9" transform="translate(75.55 212.549677) scale(0.1 -0.1)">
       <use xlink:href="#DejaVuSans-33"/>
       <use xlink:href="#DejaVuSans-30" transform="translate(63.623047 0)"/>
       <use xlink:href="#DejaVuSans-30" transform="translate(127.246094 0)"/>
       <use xlink:href="#DejaVuSans-30" transform="translate(190.869141 0)"/>
      </g>
     </g>
    </g>
    <g id="ytick_5">
     <g id="line2d_27">
      <path d="M 108 175.722936 
L 777.6 175.722936 
" clip-path="url(#p1b55efcd0c)" style="fill: none; stroke-dasharray: 5.12,1.28,0.8,1.28; stroke-dashoffset: 0; stroke: #b0b0b0; stroke-width: 0.8"/>
     </g>
     <g id="line2d_28">
      <g>
       <use xlink:href="#m6ebe7d06c0" x="108" y="175.722936" style="fill: #a9a9a9; stroke: #a9a9a9; stroke-width: 0.8"/>
      </g>
     </g>
     <g id="text_14">
      <!-- 4000 -->
      <g style="fill: #a9a9a9" transform="translate(75.55 179.522155) scale(0.1 -0.1)">
       <use xlink:href="#DejaVuSans-34"/>
       <use xlink:href="#DejaVuSans-30" transform="translate(63.623047 0)"/>
       <use xlink:href="#DejaVuSans-30" transform="translate(127.246094 0)"/>
       <use xlink:href="#DejaVuSans-30" transform="translate(190.869141 0)"/>
      </g>
     </g>
    </g>
    <g id="ytick_6">
     <g id="line2d_29">
      <path d="M 108 142.695413 
L 777.6 142.695413 
" clip-path="url(#p1b55efcd0c)" style="fill: none; stroke-dasharray: 5.12,1.28,0.8,1.28; stroke-dashoffset: 0; stroke: #b0b0b0; stroke-width: 0.8"/>
     </g>
     <g id="line2d_30">
      <g>
       <use xlink:href="#m6ebe7d06c0" x="108" y="142.695413" style="fill: #a9a9a9; stroke: #a9a9a9; stroke-width: 0.8"/>
      </g>
     </g>
     <g id="text_15">
      <!-- 5000 -->
      <g style="fill: #a9a9a9" transform="translate(75.55 146.494632) scale(0.1 -0.1)">
       <use xlink:href="#DejaVuSans-35"/>
       <use xlink:href="#DejaVuSans-30" transform="translate(63.623047 0)"/>
       <use xlink:href="#DejaVuSans-30" transform="translate(127.246094 0)"/>
       <use xlink:href="#DejaVuSans-30" transform="translate(190.869141 0)"/>
      </g>
     </g>
    </g>
    <g id="ytick_7">
     <g id="line2d_31">
      <path d="M 108 109.66789 
L 777.6 109.66789 
" clip-path="url(#p1b55efcd0c)" style="fill: none; stroke-dasharray: 5.12,1.28,0.8,1.28; stroke-dashoffset: 0; stroke: #b0b0b0; stroke-width: 0.8"/>
     </g>
     <g id="line2d_32">
      <g>
       <use xlink:href="#m6ebe7d06c0" x="108" y="109.66789" style="fill: #a9a9a9; stroke: #a9a9a9; stroke-width: 0.8"/>
      </g>
     </g>
     <g id="text_16">
      <!-- 6000 -->
      <g style="fill: #a9a9a9" transform="translate(75.55 113.467109) scale(0.1 -0.1)">
       <defs>
        <path id="DejaVuSans-36" d="M 2113 2584 
Q 1688 2584 1439 2293 
Q 1191 2003 1191 1497 
Q 1191 994 1439 701 
Q 1688 409 2113 409 
Q 2538 409 2786 701 
Q 3034 994 3034 1497 
Q 3034 2003 2786 2293 
Q 2538 2584 2113 2584 
z
M 3366 4563 
L 3366 3988 
Q 3128 4100 2886 4159 
Q 2644 4219 2406 4219 
Q 1781 4219 1451 3797 
Q 1122 3375 1075 2522 
Q 1259 2794 1537 2939 
Q 1816 3084 2150 3084 
Q 2853 3084 3261 2657 
Q 3669 2231 3669 1497 
Q 3669 778 3244 343 
Q 2819 -91 2113 -91 
Q 1303 -91 875 529 
Q 447 1150 447 2328 
Q 447 3434 972 4092 
Q 1497 4750 2381 4750 
Q 2619 4750 2861 4703 
Q 3103 4656 3366 4563 
z
" transform="scale(0.015625)"/>
       </defs>
       <use xlink:href="#DejaVuSans-36"/>
       <use xlink:href="#DejaVuSans-30" transform="translate(63.623047 0)"/>
       <use xlink:href="#DejaVuSans-30" transform="translate(127.246094 0)"/>
       <use xlink:href="#DejaVuSans-30" transform="translate(190.869141 0)"/>
      </g>
     </g>
    </g>
    <g id="ytick_8">
     <g id="line2d_33">
      <path d="M 108 76.640367 
L 777.6 76.640367 
" clip-path="url(#p1b55efcd0c)" style="fill: none; stroke-dasharray: 5.12,1.28,0.8,1.28; stroke-dashoffset: 0; stroke: #b0b0b0; stroke-width: 0.8"/>
     </g>
     <g id="line2d_34">
      <g>
       <use xlink:href="#m6ebe7d06c0" x="108" y="76.640367" style="fill: #a9a9a9; stroke: #a9a9a9; stroke-width: 0.8"/>
      </g>
     </g>
     <g id="text_17">
      <!-- 7000 -->
      <g style="fill: #a9a9a9" transform="translate(75.55 80.439586) scale(0.1 -0.1)">
       <use xlink:href="#DejaVuSans-37"/>
       <use xlink:href="#DejaVuSans-30" transform="translate(63.623047 0)"/>
       <use xlink:href="#DejaVuSans-30" transform="translate(127.246094 0)"/>
       <use xlink:href="#DejaVuSans-30" transform="translate(190.869141 0)"/>
      </g>
     </g>
    </g>
    <g id="ytick_9">
     <g id="line2d_35">
      <path d="M 108 43.612844 
L 777.6 43.612844 
" clip-path="url(#p1b55efcd0c)" style="fill: none; stroke-dasharray: 5.12,1.28,0.8,1.28; stroke-dashoffset: 0; stroke: #b0b0b0; stroke-width: 0.8"/>
     </g>
     <g id="line2d_36">
      <g>
       <use xlink:href="#m6ebe7d06c0" x="108" y="43.612844" style="fill: #a9a9a9; stroke: #a9a9a9; stroke-width: 0.8"/>
      </g>
     </g>
     <g id="text_18">
      <!-- 8000 -->
      <g style="fill: #a9a9a9" transform="translate(75.55 47.412063) scale(0.1 -0.1)">
       <defs>
        <path id="DejaVuSans-38" d="M 2034 2216 
Q 1584 2216 1326 1975 
Q 1069 1734 1069 1313 
Q 1069 891 1326 650 
Q 1584 409 2034 409 
Q 2484 409 2743 651 
Q 3003 894 3003 1313 
Q 3003 1734 2745 1975 
Q 2488 2216 2034 2216 
z
M 1403 2484 
Q 997 2584 770 2862 
Q 544 3141 544 3541 
Q 544 4100 942 4425 
Q 1341 4750 2034 4750 
Q 2731 4750 3128 4425 
Q 3525 4100 3525 3541 
Q 3525 3141 3298 2862 
Q 3072 2584 2669 2484 
Q 3125 2378 3379 2068 
Q 3634 1759 3634 1313 
Q 3634 634 3220 271 
Q 2806 -91 2034 -91 
Q 1263 -91 848 271 
Q 434 634 434 1313 
Q 434 1759 690 2068 
Q 947 2378 1403 2484 
z
M 1172 3481 
Q 1172 3119 1398 2916 
Q 1625 2713 2034 2713 
Q 2441 2713 2670 2916 
Q 2900 3119 2900 3481 
Q 2900 3844 2670 4047 
Q 2441 4250 2034 4250 
Q 1625 4250 1398 4047 
Q 1172 3844 1172 3481 
z
" transform="scale(0.015625)"/>
       </defs>
       <use xlink:href="#DejaVuSans-38"/>
       <use xlink:href="#DejaVuSans-30" transform="translate(63.623047 0)"/>
       <use xlink:href="#DejaVuSans-30" transform="translate(127.246094 0)"/>
       <use xlink:href="#DejaVuSans-30" transform="translate(190.869141 0)"/>
      </g>
     </g>
    </g>
   </g>
   <g id="line2d_37">
    <path d="M 138.436364 307.733945 
L 141.062074 307.502752 
L 141.499693 307.304587 
L 143.250167 307.073394 
L 145.00064 306.710092 
L 145.875877 306.577982 
L 148.06397 306.379817 
L 148.939207 306.016514 
L 149.376825 305.422018 
L 149.814444 305.124771 
L 150.252062 304.133945 
L 150.68968 304.06789 
L 151.127299 303.704587 
L 152.002536 303.242202 
L 153.75301 301.788991 
L 155.503483 300.897248 
L 156.816339 300.269725 
L 157.253957 299.543119 
L 158.129194 298.882569 
L 158.566813 298.684404 
L 162.942997 298.023853 
L 163.380616 297.825688 
L 166.443945 297.561468 
L 168.194419 297.13211 
L 171.695366 296.636697 
L 172.132985 296.405505 
L 172.570603 296.33945 
L 173.44584 296.042202 
L 176.509169 295.513761 
L 177.384406 295.249541 
L 181.322972 294.588991 
L 182.198209 294.390826 
L 183.073446 294.357798 
L 184.82392 293.92844 
L 185.261538 293.300917 
L 186.574394 292.772477 
L 187.887249 292.409174 
L 188.324868 292.177982 
L 189.200105 292.012844 
L 190.950578 291.484404 
L 191.825815 291.418349 
L 192.701052 291.187156 
L 194.451526 290.724771 
L 194.889145 290.691743 
L 195.764381 290.262385 
L 196.202 290.19633 
L 196.639618 289.965138 
L 201.453421 289.13945 
L 203.203895 288.611009 
L 203.641514 288.313761 
L 205.829606 287.587156 
L 206.704843 286.959633 
L 208.017698 286.695413 
L 217.645304 283.822018 
L 218.082923 283.788991 
L 219.395778 283.392661 
L 219.833397 283.392661 
L 220.271015 283.194495 
L 221.146252 283.095413 
L 221.58387 282.930275 
L 223.334344 282.86422 
L 224.209581 282.699083 
L 225.084818 282.236697 
L 226.397673 281.741284 
L 227.27291 281.278899 
L 228.148147 280.816514 
L 229.023384 280.519266 
L 229.461003 280.387156 
L 230.336239 279.825688 
L 230.773858 279.330275 
L 231.649095 277.943119 
L 232.086713 277.811009 
L 232.524332 277.811009 
L 233.837187 277.018349 
L 234.274806 276.787156 
L 234.712424 276.688073 
L 235.150042 276.258716 
L 236.025279 275.895413 
L 236.900516 275.466055 
L 239.088609 272.592661 
L 241.714319 271.13945 
L 242.589556 270.412844 
L 243.027175 270.148624 
L 243.464793 269.521101 
L 243.902412 268.497248 
L 244.34003 267.80367 
L 244.777649 267.440367 
L 245.215267 267.242202 
L 248.716215 263.93945 
L 249.591452 263.113761 
L 252.217162 261.429358 
L 252.654781 261.26422 
L 254.405255 260.207339 
L 254.842873 260.009174 
L 257.030965 257.961468 
L 257.906202 257.598165 
L 258.781439 256.970642 
L 259.219058 256.706422 
L 259.656676 256.640367 
L 260.969531 255.880734 
L 261.40715 255.385321 
L 263.595242 254.163303 
L 264.032861 253.998165 
L 265.345716 253.073394 
L 271.909993 250.695413 
L 272.78523 249.869725 
L 274.098085 249.209174 
L 274.973322 248.647706 
L 275.848559 248.383486 
L 276.286177 248.086239 
L 276.723796 247.954128 
L 278.036651 247.062385 
L 280.224743 246.566972 
L 281.537599 245.774312 
L 282.850454 245.477064 
L 283.288073 245.377982 
L 284.600928 244.354128 
L 286.351402 243.858716 
L 286.78902 243.495413 
L 289.414731 242.570642 
L 290.289968 242.405505 
L 291.165205 242.042202 
L 294.228534 240.886239 
L 295.103771 240.754128 
L 296.416626 240.291743 
L 298.604719 239.201835 
L 300.355192 238.211009 
L 303.85614 236.724771 
L 304.293759 236.658716 
L 305.168995 236.097248 
L 306.044232 235.866055 
L 307.357088 235.337615 
L 309.107562 235.106422 
L 309.982799 234.644037 
L 310.420417 234.247706 
L 310.858035 233.455046 
L 312.608509 232.959633 
L 313.921365 232.266055 
L 314.796602 231.968807 
L 315.671838 231.506422 
L 318.297549 230.416514 
L 319.172786 230.218349 
L 320.048023 229.755963 
L 320.485641 229.557798 
L 320.92326 229.491743 
L 323.111352 228.401835 
L 323.986589 227.840367 
L 325.299444 227.576147 
L 327.487537 227.014679 
L 327.925155 226.651376 
L 328.800392 226.354128 
L 330.988484 225.462385 
L 331.426103 225.13211 
L 331.863721 224.966972 
L 332.738958 224.47156 
L 334.489432 223.910092 
L 335.364669 223.348624 
L 335.802287 222.886239 
L 336.239906 222.622018 
L 336.677524 222.522936 
L 337.552761 221.79633 
L 337.99038 221.730275 
L 338.427998 221.00367 
L 338.865617 220.805505 
L 339.303235 220.442202 
L 339.740854 220.376147 
L 340.61609 219.814679 
L 341.491327 219.517431 
L 341.928946 219.187156 
L 342.366564 219.022018 
L 344.117038 217.833028 
L 345.429893 217.13945 
L 346.30513 216.908257 
L 347.180367 216.412844 
L 347.617986 215.653211 
L 348.493223 214.992661 
L 348.930841 214.893578 
L 351.556552 213.605505 
L 352.431789 213.242202 
L 353.307026 212.614679 
L 354.182263 211.722936 
L 358.120829 208.618349 
L 358.558447 208.255046 
L 359.433684 207.957798 
L 360.308921 207.363303 
L 361.621776 206.669725 
L 362.059395 206.60367 
L 363.37225 205.877064 
L 364.247487 205.315596 
L 368.623672 203.66422 
L 369.06129 203.300917 
L 370.811764 202.607339 
L 371.249382 202.475229 
L 372.124619 201.880734 
L 372.999856 201.517431 
L 373.875093 200.889908 
L 374.75033 199.106422 
L 375.625567 198.049541 
L 376.938422 197.355963 
L 377.813659 196.992661 
L 378.251278 196.926606 
L 378.688896 196.662385 
L 380.876988 195.93578 
L 381.314607 195.737615 
L 382.189844 195.143119 
L 383.502699 194.581651 
L 384.377936 194.086239 
L 385.253173 193.557798 
L 385.690791 193.26055 
L 386.12841 192.765138 
L 387.441265 192.005505 
L 387.878884 191.840367 
L 388.754121 191.311927 
L 390.504594 190.354128 
L 390.942213 190.255046 
L 391.379831 189.891743 
L 394.443161 188.86789 
L 394.880779 188.537615 
L 395.756016 188.273394 
L 396.631253 187.910092 
L 397.068871 187.546789 
L 398.819345 186.919266 
L 399.694582 186.291743 
L 400.569819 185.92844 
L 401.445056 185.234862 
L 402.320293 184.970642 
L 402.757911 184.574312 
L 403.19553 184.508257 
L 404.070767 183.814679 
L 404.946004 183.352294 
L 405.383622 183.154128 
L 405.82124 182.691743 
L 408.88457 181.436697 
L 409.759807 181.040367 
L 411.072662 180.611009 
L 411.947899 180.478899 
L 412.385517 180.280734 
L 412.823136 180.214679 
L 413.698373 179.818349 
L 414.135991 179.785321 
L 415.886465 179.124771 
L 417.19932 178.166972 
L 417.636939 178.001835 
L 418.512176 177.506422 
L 418.949794 177.374312 
L 421.575505 175.888073 
L 422.013123 175.788991 
L 423.325979 174.99633 
L 424.638834 174.533945 
L 425.514071 174.236697 
L 427.264545 173.642202 
L 428.139782 173.344954 
L 429.890256 172.981651 
L 430.327874 172.783486 
L 431.203111 172.552294 
L 431.640729 172.354128 
L 432.078348 172.288073 
L 432.515966 172.056881 
L 433.391203 171.891743 
L 434.704059 171.39633 
L 435.579295 171.297248 
L 436.892151 171 
L 439.080243 170.60367 
L 450.458323 167.168807 
L 450.895941 166.706422 
L 453.521652 165.616514 
L 455.272126 165.022018 
L 455.709744 164.757798 
L 457.0226 164.361468 
L 457.897837 164.130275 
L 458.335455 163.833028 
L 458.773074 163.733945 
L 459.210692 163.337615 
L 460.523547 163.073394 
L 461.398784 162.644037 
L 461.836403 162.115596 
L 463.586877 161.686239 
L 466.650206 161.025688 
L 467.087824 161.025688 
L 467.525443 160.827523 
L 469.275917 160.497248 
L 469.713535 160.299083 
L 471.464009 159.968807 
L 472.339246 159.605505 
L 473.214483 159.440367 
L 475.402575 158.878899 
L 477.153049 158.317431 
L 477.590667 158.218349 
L 478.028286 157.987156 
L 478.903523 157.755963 
L 479.77876 157.392661 
L 480.653996 157.062385 
L 481.091615 156.765138 
L 481.966852 156.500917 
L 485.030181 155.344954 
L 486.780655 155.113761 
L 490.281603 153.825688 
L 490.719221 153.495413 
L 491.156839 153.39633 
L 491.594458 153.165138 
L 492.032076 153.13211 
L 496.845879 151.381651 
L 499.033972 150.787156 
L 499.909209 150.357798 
L 501.222064 150.06055 
L 502.972538 148.607339 
L 504.723012 147.847706 
L 505.598248 147.451376 
L 508.223959 146.427523 
L 508.661578 146.130275 
L 510.84967 145.40367 
L 512.162525 144.644037 
L 512.600144 144.544954 
L 514.350618 143.554128 
L 516.101091 142.761468 
L 516.53871 142.431193 
L 517.413947 142.133945 
L 519.602039 141.011009 
L 520.914894 140.548624 
L 522.665368 139.822018 
L 523.978224 139.326606 
L 524.415842 139.161468 
L 525.291079 139.029358 
L 525.728697 138.73211 
L 527.479171 138.368807 
L 528.354408 138.005505 
L 530.104882 137.179817 
L 536.23154 134.47156 
L 537.544396 134.042202 
L 537.982014 133.744954 
L 538.857251 133.645872 
L 539.29487 133.348624 
L 540.170107 133.183486 
L 541.045343 132.754128 
L 541.482962 132.555963 
L 542.358199 132.324771 
L 543.233436 132.06055 
L 544.546291 131.565138 
L 545.859146 131.13578 
L 547.172002 130.838532 
L 548.922476 130.111927 
L 549.797713 129.616514 
L 551.548186 128.724771 
L 552.423423 128.526606 
L 552.861042 128.262385 
L 553.29866 128.163303 
L 554.611516 127.40367 
L 555.486752 127.040367 
L 565.114359 123.308257 
L 566.864832 122.482569 
L 571.241017 120.765138 
L 572.116254 120.33578 
L 572.553872 120.236697 
L 572.991491 120.005505 
L 574.741965 119.510092 
L 576.492438 118.056881 
L 576.930057 117.924771 
L 577.367675 117.66055 
L 578.680531 117.297248 
L 579.118149 116.966972 
L 579.555768 116.86789 
L 580.868623 116.075229 
L 581.306241 115.777982 
L 582.619097 115.282569 
L 583.056715 115.051376 
L 584.369571 114.754128 
L 586.557663 113.994495 
L 587.4329 113.697248 
L 588.745755 113.036697 
L 589.620992 112.607339 
L 590.496229 112.376147 
L 591.809084 111.748624 
L 595.74765 110.262385 
L 597.060506 109.436697 
L 597.498124 109.337615 
L 598.373361 108.908257 
L 599.248598 108.577982 
L 599.686217 108.181651 
L 600.561453 107.818349 
L 601.874309 107.355963 
L 602.311927 106.992661 
L 602.749546 106.959633 
L 603.624783 106.695413 
L 604.50002 106.398165 
L 604.937638 106.2 
L 605.375257 106.133945 
L 606.688112 105.638532 
L 608.000967 105.143119 
L 609.751441 104.350459 
L 610.626678 104.119266 
L 611.064296 103.855046 
L 611.939533 103.623853 
L 613.252389 102.86422 
L 613.690007 102.831193 
L 615.002863 102.401835 
L 615.878099 102.33578 
L 616.315718 102.104587 
L 617.190955 101.873394 
L 617.628573 101.642202 
L 619.816666 101.212844 
L 620.691902 101.047706 
L 622.004758 100.552294 
L 623.317613 100.255046 
L 624.630469 99.561468 
L 625.068087 99.165138 
L 626.380942 98.372477 
L 626.818561 98.042202 
L 628.131416 97.612844 
L 629.006653 97.348624 
L 629.444272 97.117431 
L 629.88189 97.018349 
L 630.319509 96.655046 
L 632.945219 95.53211 
L 634.695693 95.069725 
L 635.57093 94.673394 
L 636.008548 94.442202 
L 636.883785 94.177982 
L 637.321404 93.913761 
L 638.196641 93.748624 
L 641.697588 92.229358 
L 642.135207 92.163303 
L 643.448062 91.304587 
L 643.885681 91.238532 
L 645.636154 90.544954 
L 647.386628 90.115596 
L 647.824247 90.049541 
L 648.261865 89.851376 
L 648.699484 89.818349 
L 649.574721 89.521101 
L 650.012339 89.488073 
L 651.325194 88.959633 
L 653.075668 88.46422 
L 653.950905 87.80367 
L 655.701379 86.812844 
L 657.014234 86.350459 
L 660.515182 84.666055 
L 660.9528 84.434862 
L 661.390419 84.038532 
L 663.578511 83.444037 
L 664.891367 82.849541 
L 665.766603 82.618349 
L 666.204222 82.387156 
L 666.64184 82.023853 
L 668.392314 81.561468 
L 668.829933 81.231193 
L 674.518973 79.150459 
L 675.39421 78.985321 
L 677.582302 78.291743 
L 678.457539 77.92844 
L 679.332776 77.598165 
L 680.208013 77.366972 
L 680.645631 77.168807 
L 681.083249 77.168807 
L 681.958486 76.805505 
L 682.833723 76.277064 
L 685.897052 75.253211 
L 687.647526 74.658716 
L 688.960382 74.361468 
L 690.273237 73.93211 
L 690.710855 73.833028 
L 691.148474 73.53578 
L 692.023711 73.337615 
L 693.774185 72.842202 
L 694.211803 72.809174 
L 695.08704 72.412844 
L 698.150369 71.653211 
L 699.025606 71.289908 
L 703.401791 70.299083 
L 704.714646 69.605505 
L 706.027501 69.209174 
L 710.403686 67.590826 
L 710.841304 67.26055 
L 712.15416 66.963303 
L 713.029397 66.699083 
L 713.904634 66.269725 
L 714.342252 65.906422 
L 715.217489 65.642202 
L 715.655108 65.377982 
L 716.530344 65.278899 
L 719.593674 64.420183 
L 720.906529 64.155963 
L 723.53224 63.297248 
L 725.282714 62.47156 
L 730.096517 60.688073 
L 730.971753 60.555963 
L 731.84699 60.390826 
L 732.284609 60.390826 
L 734.035083 59.829358 
L 734.472701 59.763303 
L 735.347938 59.4 
L 736.660793 59.00367 
L 737.973649 58.574312 
L 740.161741 58.078899 
L 740.59936 57.814679 
L 741.474596 57.649541 
L 742.349833 57.550459 
L 742.787452 57.319266 
L 743.22507 57.286239 
L 744.100307 56.724771 
L 745.850781 56.32844 
L 746.726018 55.93211 
L 747.163636 55.8 
L 747.163636 55.8 
" clip-path="url(#p1b55efcd0c)" style="fill: none; stroke: #1f77b4; stroke-width: 1.5; stroke-linecap: square"/>
   </g>
   <g id="line2d_38">
    <path d="M 138.873982 307.8 
L 142.812548 307.700917 
L 146.313496 307.53578 
L 148.06397 307.53578 
L 148.501588 307.40367 
L 150.68968 307.304587 
L 153.315391 307.007339 
L 155.941102 306.908257 
L 156.816339 306.809174 
L 159.879668 306.677064 
L 162.942997 306.577982 
L 165.131089 306.511927 
L 170.820129 306.412844 
L 173.008222 306.346789 
L 176.946788 306.247706 
L 178.697262 306.214679 
L 183.073446 306.115596 
L 184.82392 305.950459 
L 186.574394 305.917431 
L 189.200105 305.818349 
L 190.950578 305.785321 
L 193.138671 305.719266 
L 194.889145 305.554128 
L 198.827711 305.455046 
L 199.702948 305.388991 
L 201.453421 305.289908 
L 204.079132 305.190826 
L 205.829606 305.091743 
L 213.706738 304.59633 
L 216.770067 304.497248 
L 218.082923 304.365138 
L 220.271015 304.266055 
L 224.6472 304.034862 
L 229.023384 303.968807 
L 230.773858 303.770642 
L 232.524332 303.67156 
L 237.338135 303.209174 
L 240.401464 302.845872 
L 241.714319 302.779817 
L 245.215267 302.317431 
L 247.840978 302.251376 
L 249.153833 302.119266 
L 250.466688 302.020183 
L 262.720005 301.062385 
L 263.595242 300.897248 
L 266.220953 300.798165 
L 273.222848 300.368807 
L 276.286177 300.269725 
L 278.036651 300.07156 
L 280.224743 299.972477 
L 282.850454 299.873394 
L 285.038547 299.774312 
L 286.78902 299.741284 
L 288.977113 299.675229 
L 289.85235 299.543119 
L 295.979008 299.444037 
L 296.854245 299.344954 
L 302.105666 299.245872 
L 306.044232 299.047706 
L 309.107562 298.948624 
L 310.858035 298.750459 
L 313.921365 298.651376 
L 314.796602 298.486239 
L 316.984694 298.420183 
L 321.360878 298.354128 
L 323.111352 298.188991 
L 324.861826 298.155963 
L 326.174681 298.056881 
L 327.925155 297.891743 
L 332.30134 297.66055 
L 336.677524 297.561468 
L 340.61609 297.363303 
L 341.928946 297.330275 
L 342.804183 297.198165 
L 344.992275 297.099083 
L 345.867512 297.033028 
L 346.742749 296.966972 
L 347.617986 296.900917 
L 351.556552 296.834862 
L 352.869407 296.73578 
L 364.685106 295.943119 
L 366.873198 295.844037 
L 369.06129 295.777982 
L 375.187949 295.678899 
L 376.063185 295.546789 
L 382.189844 295.447706 
L 386.566028 295.216514 
L 387.441265 295.183486 
L 388.316502 295.084404 
L 390.504594 294.985321 
L 392.692687 294.919266 
L 394.880779 294.820183 
L 397.068871 294.754128 
L 401.007437 294.655046 
L 403.633148 294.555963 
L 409.759807 294.456881 
L 414.57361 294.192661 
L 416.324083 294.126606 
L 417.636939 294.027523 
L 423.763597 293.92844 
L 426.389308 293.829358 
L 434.26644 293.730275 
L 436.016914 293.697248 
L 441.268335 293.631193 
L 442.143572 293.565138 
L 448.270231 293.466055 
L 450.020705 293.433028 
L 461.398784 293.333945 
L 464.024495 293.234862 
L 482.40447 293.13578 
L 484.592563 293.069725 
L 495.970642 293.00367 
L 496.845879 292.937615 
L 499.033972 292.87156 
L 500.346827 292.73945 
L 502.972538 292.640367 
L 506.035867 292.508257 
L 509.974433 292.409174 
L 512.162525 292.343119 
L 515.225855 292.244037 
L 518.726802 292.078899 
L 520.914894 291.979817 
L 522.665368 291.946789 
L 526.603934 291.847706 
L 528.354408 291.814679 
L 534.043448 291.715596 
L 535.793922 291.682569 
L 537.982014 291.583486 
L 540.607725 291.484404 
L 543.671054 291.418349 
L 544.546291 291.352294 
L 555.049134 291.253211 
L 560.738174 290.922936 
L 562.926266 290.856881 
L 563.801503 290.757798 
L 564.67674 290.691743 
L 568.177688 290.592661 
L 570.803398 290.493578 
L 575.179583 290.394495 
L 577.367675 290.163303 
L 581.74386 290.06422 
L 582.619097 289.965138 
L 586.995281 289.866055 
L 589.183374 289.8 
L 593.997177 289.766972 
L 594.872414 289.66789 
L 599.686217 289.568807 
L 600.561453 289.502752 
L 610.18906 289.40367 
L 612.81477 289.304587 
L 619.379047 289.205505 
L 621.129521 289.172477 
L 625.068087 289.106422 
L 625.943324 289.007339 
L 631.632364 288.908257 
L 633.820456 288.842202 
L 641.697588 288.743119 
L 643.010444 288.644037 
L 644.323299 288.544954 
L 645.636154 288.445872 
L 652.200431 288.346789 
L 654.826142 288.247706 
L 666.64184 288.148624 
L 670.580407 287.950459 
L 675.831828 287.851376 
L 676.707065 287.785321 
L 683.271342 287.719266 
L 684.146579 287.653211 
L 688.960382 287.554128 
L 690.710855 287.521101 
L 696.837514 287.422018 
L 699.463225 287.322936 
L 706.902738 287.223853 
L 708.653212 287.190826 
L 712.591778 287.091743 
L 716.092726 286.926606 
L 720.906529 286.827523 
L 723.969858 286.695413 
L 727.908424 286.59633 
L 728.783661 286.530275 
L 737.53603 286.431193 
L 739.724123 286.365138 
L 742.349833 286.266055 
L 744.975544 286.166972 
L 747.163636 286.100917 
L 747.163636 286.100917 
" clip-path="url(#p1b55efcd0c)" style="fill: none; stroke: #ff7f0e; stroke-width: 1.5; stroke-linecap: square"/>
   </g>
   <g id="patch_3">
    <path d="M 108 320.4 
L 108 43.2 
" style="fill: none; stroke: #a9a9a9; stroke-width: 0.8; stroke-linejoin: miter; stroke-linecap: square"/>
   </g>
   <g id="patch_4">
    <path d="M 777.6 320.4 
L 777.6 43.2 
" style="fill: none"/>
   </g>
   <g id="patch_5">
    <path d="M 108 320.4 
L 777.6 320.4 
" style="fill: none; stroke: #a9a9a9; stroke-width: 0.8; stroke-linejoin: miter; stroke-linecap: square"/>
   </g>
   <g id="patch_6">
    <path d="M 108 43.2 
L 777.6 43.2 
" style="fill: none"/>
   </g>
   <g id="text_19">
    <!-- get_subscribe history -->
    <g style="fill: #a9a9a9" transform="translate(378.6075 37.2) scale(0.12 -0.12)">
     <defs>
      <path id="DejaVuSans-67" d="M 2906 1791 
Q 2906 2416 2648 2759 
Q 2391 3103 1925 3103 
Q 1463 3103 1205 2759 
Q 947 2416 947 1791 
Q 947 1169 1205 825 
Q 1463 481 1925 481 
Q 2391 481 2648 825 
Q 2906 1169 2906 1791 
z
M 3481 434 
Q 3481 -459 3084 -895 
Q 2688 -1331 1869 -1331 
Q 1566 -1331 1297 -1286 
Q 1028 -1241 775 -1147 
L 775 -588 
Q 1028 -725 1275 -790 
Q 1522 -856 1778 -856 
Q 2344 -856 2625 -561 
Q 2906 -266 2906 331 
L 2906 616 
Q 2728 306 2450 153 
Q 2172 0 1784 0 
Q 1141 0 747 490 
Q 353 981 353 1791 
Q 353 2603 747 3093 
Q 1141 3584 1784 3584 
Q 2172 3584 2450 3431 
Q 2728 3278 2906 2969 
L 2906 3500 
L 3481 3500 
L 3481 434 
z
" transform="scale(0.015625)"/>
      <path id="DejaVuSans-65" d="M 3597 1894 
L 3597 1613 
L 953 1613 
Q 991 1019 1311 708 
Q 1631 397 2203 397 
Q 2534 397 2845 478 
Q 3156 559 3463 722 
L 3463 178 
Q 3153 47 2828 -22 
Q 2503 -91 2169 -91 
Q 1331 -91 842 396 
Q 353 884 353 1716 
Q 353 2575 817 3079 
Q 1281 3584 2069 3584 
Q 2775 3584 3186 3129 
Q 3597 2675 3597 1894 
z
M 3022 2063 
Q 3016 2534 2758 2815 
Q 2500 3097 2075 3097 
Q 1594 3097 1305 2825 
Q 1016 2553 972 2059 
L 3022 2063 
z
" transform="scale(0.015625)"/>
      <path id="DejaVuSans-74" d="M 1172 4494 
L 1172 3500 
L 2356 3500 
L 2356 3053 
L 1172 3053 
L 1172 1153 
Q 1172 725 1289 603 
Q 1406 481 1766 481 
L 2356 481 
L 2356 0 
L 1766 0 
Q 1100 0 847 248 
Q 594 497 594 1153 
L 594 3053 
L 172 3053 
L 172 3500 
L 594 3500 
L 594 4494 
L 1172 4494 
z
" transform="scale(0.015625)"/>
      <path id="DejaVuSans-5f" d="M 3263 -1063 
L 3263 -1509 
L -63 -1509 
L -63 -1063 
L 3263 -1063 
z
" transform="scale(0.015625)"/>
      <path id="DejaVuSans-73" d="M 2834 3397 
L 2834 2853 
Q 2591 2978 2328 3040 
Q 2066 3103 1784 3103 
Q 1356 3103 1142 2972 
Q 928 2841 928 2578 
Q 928 2378 1081 2264 
Q 1234 2150 1697 2047 
L 1894 2003 
Q 2506 1872 2764 1633 
Q 3022 1394 3022 966 
Q 3022 478 2636 193 
Q 2250 -91 1575 -91 
Q 1294 -91 989 -36 
Q 684 19 347 128 
L 347 722 
Q 666 556 975 473 
Q 1284 391 1588 391 
Q 1994 391 2212 530 
Q 2431 669 2431 922 
Q 2431 1156 2273 1281 
Q 2116 1406 1581 1522 
L 1381 1569 
Q 847 1681 609 1914 
Q 372 2147 372 2553 
Q 372 3047 722 3315 
Q 1072 3584 1716 3584 
Q 2034 3584 2315 3537 
Q 2597 3491 2834 3397 
z
" transform="scale(0.015625)"/>
      <path id="DejaVuSans-75" d="M 544 1381 
L 544 3500 
L 1119 3500 
L 1119 1403 
Q 1119 906 1312 657 
Q 1506 409 1894 409 
Q 2359 409 2629 706 
Q 2900 1003 2900 1516 
L 2900 3500 
L 3475 3500 
L 3475 0 
L 2900 0 
L 2900 538 
Q 2691 219 2414 64 
Q 2138 -91 1772 -91 
Q 1169 -91 856 284 
Q 544 659 544 1381 
z
M 1991 3584 
L 1991 3584 
z
" transform="scale(0.015625)"/>
      <path id="DejaVuSans-62" d="M 3116 1747 
Q 3116 2381 2855 2742 
Q 2594 3103 2138 3103 
Q 1681 3103 1420 2742 
Q 1159 2381 1159 1747 
Q 1159 1113 1420 752 
Q 1681 391 2138 391 
Q 2594 391 2855 752 
Q 3116 1113 3116 1747 
z
M 1159 2969 
Q 1341 3281 1617 3432 
Q 1894 3584 2278 3584 
Q 2916 3584 3314 3078 
Q 3713 2572 3713 1747 
Q 3713 922 3314 415 
Q 2916 -91 2278 -91 
Q 1894 -91 1617 61 
Q 1341 213 1159 525 
L 1159 0 
L 581 0 
L 581 4863 
L 1159 4863 
L 1159 2969 
z
" transform="scale(0.015625)"/>
      <path id="DejaVuSans-63" d="M 3122 3366 
L 3122 2828 
Q 2878 2963 2633 3030 
Q 2388 3097 2138 3097 
Q 1578 3097 1268 2742 
Q 959 2388 959 1747 
Q 959 1106 1268 751 
Q 1578 397 2138 397 
Q 2388 397 2633 464 
Q 2878 531 3122 666 
L 3122 134 
Q 2881 22 2623 -34 
Q 2366 -91 2075 -91 
Q 1284 -91 818 406 
Q 353 903 353 1747 
Q 353 2603 823 3093 
Q 1294 3584 2113 3584 
Q 2378 3584 2631 3529 
Q 2884 3475 3122 3366 
z
" transform="scale(0.015625)"/>
      <path id="DejaVuSans-72" d="M 2631 2963 
Q 2534 3019 2420 3045 
Q 2306 3072 2169 3072 
Q 1681 3072 1420 2755 
Q 1159 2438 1159 1844 
L 1159 0 
L 581 0 
L 581 3500 
L 1159 3500 
L 1159 2956 
Q 1341 3275 1631 3429 
Q 1922 3584 2338 3584 
Q 2397 3584 2469 3576 
Q 2541 3569 2628 3553 
L 2631 2963 
z
" transform="scale(0.015625)"/>
      <path id="DejaVuSans-69" d="M 603 3500 
L 1178 3500 
L 1178 0 
L 603 0 
L 603 3500 
z
M 603 4863 
L 1178 4863 
L 1178 4134 
L 603 4134 
L 603 4863 
z
" transform="scale(0.015625)"/>
      <path id="DejaVuSans-20" transform="scale(0.015625)"/>
      <path id="DejaVuSans-68" d="M 3513 2113 
L 3513 0 
L 2938 0 
L 2938 2094 
Q 2938 2591 2744 2837 
Q 2550 3084 2163 3084 
Q 1697 3084 1428 2787 
Q 1159 2491 1159 1978 
L 1159 0 
L 581 0 
L 581 4863 
L 1159 4863 
L 1159 2956 
Q 1366 3272 1645 3428 
Q 1925 3584 2291 3584 
Q 2894 3584 3203 3211 
Q 3513 2838 3513 2113 
z
" transform="scale(0.015625)"/>
      <path id="DejaVuSans-6f" d="M 1959 3097 
Q 1497 3097 1228 2736 
Q 959 2375 959 1747 
Q 959 1119 1226 758 
Q 1494 397 1959 397 
Q 2419 397 2687 759 
Q 2956 1122 2956 1747 
Q 2956 2369 2687 2733 
Q 2419 3097 1959 3097 
z
M 1959 3584 
Q 2709 3584 3137 3096 
Q 3566 2609 3566 1747 
Q 3566 888 3137 398 
Q 2709 -91 1959 -91 
Q 1206 -91 779 398 
Q 353 888 353 1747 
Q 353 2609 779 3096 
Q 1206 3584 1959 3584 
z
" transform="scale(0.015625)"/>
      <path id="DejaVuSans-79" d="M 2059 -325 
Q 1816 -950 1584 -1140 
Q 1353 -1331 966 -1331 
L 506 -1331 
L 506 -850 
L 844 -850 
Q 1081 -850 1212 -737 
Q 1344 -625 1503 -206 
L 1606 56 
L 191 3500 
L 800 3500 
L 1894 763 
L 2988 3500 
L 3597 3500 
L 2059 -325 
z
" transform="scale(0.015625)"/>
     </defs>
     <use xlink:href="#DejaVuSans-67"/>
     <use xlink:href="#DejaVuSans-65" transform="translate(63.476562 0)"/>
     <use xlink:href="#DejaVuSans-74" transform="translate(125 0)"/>
     <use xlink:href="#DejaVuSans-5f" transform="translate(164.208984 0)"/>
     <use xlink:href="#DejaVuSans-73" transform="translate(214.208984 0)"/>
     <use xlink:href="#DejaVuSans-75" transform="translate(266.308594 0)"/>
     <use xlink:href="#DejaVuSans-62" transform="translate(329.6875 0)"/>
     <use xlink:href="#DejaVuSans-73" transform="translate(393.164062 0)"/>
     <use xlink:href="#DejaVuSans-63" transform="translate(445.263672 0)"/>
     <use xlink:href="#DejaVuSans-72" transform="translate(500.244141 0)"/>
     <use xlink:href="#DejaVuSans-69" transform="translate(541.357422 0)"/>
     <use xlink:href="#DejaVuSans-62" transform="translate(569.140625 0)"/>
     <use xlink:href="#DejaVuSans-65" transform="translate(632.617188 0)"/>
     <use xlink:href="#DejaVuSans-20" transform="translate(694.140625 0)"/>
     <use xlink:href="#DejaVuSans-68" transform="translate(725.927734 0)"/>
     <use xlink:href="#DejaVuSans-69" transform="translate(789.306641 0)"/>
     <use xlink:href="#DejaVuSans-73" transform="translate(817.089844 0)"/>
     <use xlink:href="#DejaVuSans-74" transform="translate(869.189453 0)"/>
     <use xlink:href="#DejaVuSans-6f" transform="translate(908.398438 0)"/>
     <use xlink:href="#DejaVuSans-72" transform="translate(969.580078 0)"/>
     <use xlink:href="#DejaVuSans-79" transform="translate(1010.693359 0)"/>
    </g>
   </g>
   <g id="legend_1">
    <g id="line2d_39">
     <path d="M 815.08 328.498438 
L 825.08 328.498438 
L 835.08 328.498438 
" style="fill: none; stroke: #1f77b4; stroke-width: 1.5; stroke-linecap: square"/>
    </g>
    <g id="text_20">
     <!-- star -->
     <g style="fill: #a9a9a9" transform="translate(843.08 331.998438) scale(0.1 -0.1)">
      <defs>
       <path id="DejaVuSans-61" d="M 2194 1759 
Q 1497 1759 1228 1600 
Q 959 1441 959 1056 
Q 959 750 1161 570 
Q 1363 391 1709 391 
Q 2188 391 2477 730 
Q 2766 1069 2766 1631 
L 2766 1759 
L 2194 1759 
z
M 3341 1997 
L 3341 0 
L 2766 0 
L 2766 531 
Q 2569 213 2275 61 
Q 1981 -91 1556 -91 
Q 1019 -91 701 211 
Q 384 513 384 1019 
Q 384 1609 779 1909 
Q 1175 2209 1959 2209 
L 2766 2209 
L 2766 2266 
Q 2766 2663 2505 2880 
Q 2244 3097 1772 3097 
Q 1472 3097 1187 3025 
Q 903 2953 641 2809 
L 641 3341 
Q 956 3463 1253 3523 
Q 1550 3584 1831 3584 
Q 2591 3584 2966 3190 
Q 3341 2797 3341 1997 
z
" transform="scale(0.015625)"/>
      </defs>
      <use xlink:href="#DejaVuSans-73"/>
      <use xlink:href="#DejaVuSans-74" transform="translate(52.099609 0)"/>
      <use xlink:href="#DejaVuSans-61" transform="translate(91.308594 0)"/>
      <use xlink:href="#DejaVuSans-72" transform="translate(152.587891 0)"/>
     </g>
    </g>
    <g id="line2d_40">
     <path d="M 815.08 343.176562 
L 825.08 343.176562 
L 835.08 343.176562 
" style="fill: none; stroke: #ff7f0e; stroke-width: 1.5; stroke-linecap: square"/>
    </g>
    <g id="text_21">
     <!-- fork -->
     <g style="fill: #a9a9a9" transform="translate(843.08 346.676562) scale(0.1 -0.1)">
      <defs>
       <path id="DejaVuSans-66" d="M 2375 4863 
L 2375 4384 
L 1825 4384 
Q 1516 4384 1395 4259 
Q 1275 4134 1275 3809 
L 1275 3500 
L 2222 3500 
L 2222 3053 
L 1275 3053 
L 1275 0 
L 697 0 
L 697 3053 
L 147 3053 
L 147 3500 
L 697 3500 
L 697 3744 
Q 697 4328 969 4595 
Q 1241 4863 1831 4863 
L 2375 4863 
z
" transform="scale(0.015625)"/>
       <path id="DejaVuSans-6b" d="M 581 4863 
L 1159 4863 
L 1159 1991 
L 2875 3500 
L 3609 3500 
L 1753 1863 
L 3688 0 
L 2938 0 
L 1159 1709 
L 1159 0 
L 581 0 
L 581 4863 
z
" transform="scale(0.015625)"/>
      </defs>
      <use xlink:href="#DejaVuSans-66"/>
      <use xlink:href="#DejaVuSans-6f" transform="translate(35.205078 0)"/>
      <use xlink:href="#DejaVuSans-72" transform="translate(96.386719 0)"/>
      <use xlink:href="#DejaVuSans-6b" transform="translate(137.5 0)"/>
     </g>
    </g>
   </g>
  </g>
 </g>
 <defs>
  <clipPath id="p1b55efcd0c">
   <rect x="108" y="43.2" width="669.6" height="277.2"/>
  </clipPath>
 </defs>
</svg>
