<?xml version="1.0" encoding="utf-8" standalone="no"?>
<!DOCTYPE svg PUBLIC "-//W3C//DTD SVG 1.1//EN"
  "http://www.w3.org/Graphics/SVG/1.1/DTD/svg11.dtd">
<svg xmlns:xlink="http://www.w3.org/1999/xlink" width="864pt" height="360pt" viewBox="0 0 864 360" xmlns="http://www.w3.org/2000/svg" version="1.1">
 <metadata>
  <rdf:RDF xmlns:dc="http://purl.org/dc/elements/1.1/" xmlns:cc="http://creativecommons.org/ns#" xmlns:rdf="http://www.w3.org/1999/02/22-rdf-syntax-ns#">
   <cc:Work>
    <dc:type rdf:resource="http://purl.org/dc/dcmitype/StillImage"/>
    <dc:date>2024-09-17T08:11:00.890610</dc:date>
    <dc:format>image/svg+xml</dc:format>
    <dc:creator>
     <cc:Agent>
      <dc:title>Matplotlib v3.9.2, https://matplotlib.org/</dc:title>
     </cc:Agent>
    </dc:creator>
   </cc:Work>
  </rdf:RDF>
 </metadata>
 <defs>
  <style type="text/css">*{stroke-linejoin: round; stroke-linecap: butt}</style>
 </defs>
 <g id="figure_1">
  <g id="patch_1">
   <path d="M 0 360 
L 864 360 
L 864 0 
L 0 0 
L 0 360 
z
" style="fill: none; opacity: 0"/>
  </g>
  <g id="axes_1">
   <g id="patch_2">
    <path d="M 108 320.4 
L 777.6 320.4 
L 777.6 43.2 
L 108 43.2 
L 108 320.4 
z
" style="fill: none; opacity: 0"/>
   </g>
   <g id="matplotlib.axis_1">
    <g id="xtick_1">
     <g id="line2d_1">
      <path d="M 159.062223 320.4 
L 159.062223 43.2 
" clip-path="url(#pc61568cd4e)" style="fill: none; stroke-dasharray: 5.12,1.28,0.8,1.28; stroke-dashoffset: 0; stroke: #b0b0b0; stroke-width: 0.8"/>
     </g>
     <g id="line2d_2">
      <defs>
       <path id="m8ab0ad9682" d="M 0 0 
L 0 3.5 
" style="stroke: #a9a9a9; stroke-width: 0.8"/>
      </defs>
      <g>
       <use xlink:href="#m8ab0ad9682" x="159.062223" y="320.4" style="fill: #a9a9a9; stroke: #a9a9a9; stroke-width: 0.8"/>
      </g>
     </g>
     <g id="text_1">
      <!-- 2021-09 -->
      <g style="fill: #a9a9a9" transform="translate(138.170816 334.998438) scale(0.1 -0.1)">
       <defs>
        <path id="DejaVuSans-32" d="M 1228 531 
L 3431 531 
L 3431 0 
L 469 0 
L 469 531 
Q 828 903 1448 1529 
Q 2069 2156 2228 2338 
Q 2531 2678 2651 2914 
Q 2772 3150 2772 3378 
Q 2772 3750 2511 3984 
Q 2250 4219 1831 4219 
Q 1534 4219 1204 4116 
Q 875 4013 500 3803 
L 500 4441 
Q 881 4594 1212 4672 
Q 1544 4750 1819 4750 
Q 2544 4750 2975 4387 
Q 3406 4025 3406 3419 
Q 3406 3131 3298 2873 
Q 3191 2616 2906 2266 
Q 2828 2175 2409 1742 
Q 1991 1309 1228 531 
z
" transform="scale(0.015625)"/>
        <path id="DejaVuSans-30" d="M 2034 4250 
Q 1547 4250 1301 3770 
Q 1056 3291 1056 2328 
Q 1056 1369 1301 889 
Q 1547 409 2034 409 
Q 2525 409 2770 889 
Q 3016 1369 3016 2328 
Q 3016 3291 2770 3770 
Q 2525 4250 2034 4250 
z
M 2034 4750 
Q 2819 4750 3233 4129 
Q 3647 3509 3647 2328 
Q 3647 1150 3233 529 
Q 2819 -91 2034 -91 
Q 1250 -91 836 529 
Q 422 1150 422 2328 
Q 422 3509 836 4129 
Q 1250 4750 2034 4750 
z
" transform="scale(0.015625)"/>
        <path id="DejaVuSans-31" d="M 794 531 
L 1825 531 
L 1825 4091 
L 703 3866 
L 703 4441 
L 1819 4666 
L 2450 4666 
L 2450 531 
L 3481 531 
L 3481 0 
L 794 0 
L 794 531 
z
" transform="scale(0.015625)"/>
        <path id="DejaVuSans-2d" d="M 313 2009 
L 1997 2009 
L 1997 1497 
L 313 1497 
L 313 2009 
z
" transform="scale(0.015625)"/>
        <path id="DejaVuSans-39" d="M 703 97 
L 703 672 
Q 941 559 1184 500 
Q 1428 441 1663 441 
Q 2288 441 2617 861 
Q 2947 1281 2994 2138 
Q 2813 1869 2534 1725 
Q 2256 1581 1919 1581 
Q 1219 1581 811 2004 
Q 403 2428 403 3163 
Q 403 3881 828 4315 
Q 1253 4750 1959 4750 
Q 2769 4750 3195 4129 
Q 3622 3509 3622 2328 
Q 3622 1225 3098 567 
Q 2575 -91 1691 -91 
Q 1453 -91 1209 -44 
Q 966 3 703 97 
z
M 1959 2075 
Q 2384 2075 2632 2365 
Q 2881 2656 2881 3163 
Q 2881 3666 2632 3958 
Q 2384 4250 1959 4250 
Q 1534 4250 1286 3958 
Q 1038 3666 1038 3163 
Q 1038 2656 1286 2365 
Q 1534 2075 1959 2075 
z
" transform="scale(0.015625)"/>
       </defs>
       <use xlink:href="#DejaVuSans-32"/>
       <use xlink:href="#DejaVuSans-30" x="63.623047"/>
       <use xlink:href="#DejaVuSans-32" x="127.246094"/>
       <use xlink:href="#DejaVuSans-31" x="190.869141"/>
       <use xlink:href="#DejaVuSans-2d" x="254.492188"/>
       <use xlink:href="#DejaVuSans-30" x="290.576172"/>
       <use xlink:href="#DejaVuSans-39" x="354.199219"/>
      </g>
     </g>
    </g>
    <g id="xtick_2">
     <g id="line2d_3">
      <path d="M 223.58414 320.4 
L 223.58414 43.2 
" clip-path="url(#pc61568cd4e)" style="fill: none; stroke-dasharray: 5.12,1.28,0.8,1.28; stroke-dashoffset: 0; stroke: #b0b0b0; stroke-width: 0.8"/>
     </g>
     <g id="line2d_4">
      <g>
       <use xlink:href="#m8ab0ad9682" x="223.58414" y="320.4" style="fill: #a9a9a9; stroke: #a9a9a9; stroke-width: 0.8"/>
      </g>
     </g>
     <g id="text_2">
      <!-- 2022-01 -->
      <g style="fill: #a9a9a9" transform="translate(202.692734 334.998438) scale(0.1 -0.1)">
       <use xlink:href="#DejaVuSans-32"/>
       <use xlink:href="#DejaVuSans-30" x="63.623047"/>
       <use xlink:href="#DejaVuSans-32" x="127.246094"/>
       <use xlink:href="#DejaVuSans-32" x="190.869141"/>
       <use xlink:href="#DejaVuSans-2d" x="254.492188"/>
       <use xlink:href="#DejaVuSans-30" x="290.576172"/>
       <use xlink:href="#DejaVuSans-31" x="354.199219"/>
      </g>
     </g>
    </g>
    <g id="xtick_3">
     <g id="line2d_5">
      <path d="M 287.048322 320.4 
L 287.048322 43.2 
" clip-path="url(#pc61568cd4e)" style="fill: none; stroke-dasharray: 5.12,1.28,0.8,1.28; stroke-dashoffset: 0; stroke: #b0b0b0; stroke-width: 0.8"/>
     </g>
     <g id="line2d_6">
      <g>
       <use xlink:href="#m8ab0ad9682" x="287.048322" y="320.4" style="fill: #a9a9a9; stroke: #a9a9a9; stroke-width: 0.8"/>
      </g>
     </g>
     <g id="text_3">
      <!-- 2022-05 -->
      <g style="fill: #a9a9a9" transform="translate(266.156915 334.998438) scale(0.1 -0.1)">
       <defs>
        <path id="DejaVuSans-35" d="M 691 4666 
L 3169 4666 
L 3169 4134 
L 1269 4134 
L 1269 2991 
Q 1406 3038 1543 3061 
Q 1681 3084 1819 3084 
Q 2600 3084 3056 2656 
Q 3513 2228 3513 1497 
Q 3513 744 3044 326 
Q 2575 -91 1722 -91 
Q 1428 -91 1123 -41 
Q 819 9 494 109 
L 494 744 
Q 775 591 1075 516 
Q 1375 441 1709 441 
Q 2250 441 2565 725 
Q 2881 1009 2881 1497 
Q 2881 1984 2565 2268 
Q 2250 2553 1709 2553 
Q 1456 2553 1204 2497 
Q 953 2441 691 2322 
L 691 4666 
z
" transform="scale(0.015625)"/>
       </defs>
       <use xlink:href="#DejaVuSans-32"/>
       <use xlink:href="#DejaVuSans-30" x="63.623047"/>
       <use xlink:href="#DejaVuSans-32" x="127.246094"/>
       <use xlink:href="#DejaVuSans-32" x="190.869141"/>
       <use xlink:href="#DejaVuSans-2d" x="254.492188"/>
       <use xlink:href="#DejaVuSans-30" x="290.576172"/>
       <use xlink:href="#DejaVuSans-35" x="354.199219"/>
      </g>
     </g>
    </g>
    <g id="xtick_4">
     <g id="line2d_7">
      <path d="M 352.099107 320.4 
L 352.099107 43.2 
" clip-path="url(#pc61568cd4e)" style="fill: none; stroke-dasharray: 5.12,1.28,0.8,1.28; stroke-dashoffset: 0; stroke: #b0b0b0; stroke-width: 0.8"/>
     </g>
     <g id="line2d_8">
      <g>
       <use xlink:href="#m8ab0ad9682" x="352.099107" y="320.4" style="fill: #a9a9a9; stroke: #a9a9a9; stroke-width: 0.8"/>
      </g>
     </g>
     <g id="text_4">
      <!-- 2022-09 -->
      <g style="fill: #a9a9a9" transform="translate(331.207701 334.998438) scale(0.1 -0.1)">
       <use xlink:href="#DejaVuSans-32"/>
       <use xlink:href="#DejaVuSans-30" x="63.623047"/>
       <use xlink:href="#DejaVuSans-32" x="127.246094"/>
       <use xlink:href="#DejaVuSans-32" x="190.869141"/>
       <use xlink:href="#DejaVuSans-2d" x="254.492188"/>
       <use xlink:href="#DejaVuSans-30" x="290.576172"/>
       <use xlink:href="#DejaVuSans-39" x="354.199219"/>
      </g>
     </g>
    </g>
    <g id="xtick_5">
     <g id="line2d_9">
      <path d="M 416.621025 320.4 
L 416.621025 43.2 
" clip-path="url(#pc61568cd4e)" style="fill: none; stroke-dasharray: 5.12,1.28,0.8,1.28; stroke-dashoffset: 0; stroke: #b0b0b0; stroke-width: 0.8"/>
     </g>
     <g id="line2d_10">
      <g>
       <use xlink:href="#m8ab0ad9682" x="416.621025" y="320.4" style="fill: #a9a9a9; stroke: #a9a9a9; stroke-width: 0.8"/>
      </g>
     </g>
     <g id="text_5">
      <!-- 2023-01 -->
      <g style="fill: #a9a9a9" transform="translate(395.729619 334.998438) scale(0.1 -0.1)">
       <defs>
        <path id="DejaVuSans-33" d="M 2597 2516 
Q 3050 2419 3304 2112 
Q 3559 1806 3559 1356 
Q 3559 666 3084 287 
Q 2609 -91 1734 -91 
Q 1441 -91 1130 -33 
Q 819 25 488 141 
L 488 750 
Q 750 597 1062 519 
Q 1375 441 1716 441 
Q 2309 441 2620 675 
Q 2931 909 2931 1356 
Q 2931 1769 2642 2001 
Q 2353 2234 1838 2234 
L 1294 2234 
L 1294 2753 
L 1863 2753 
Q 2328 2753 2575 2939 
Q 2822 3125 2822 3475 
Q 2822 3834 2567 4026 
Q 2313 4219 1838 4219 
Q 1578 4219 1281 4162 
Q 984 4106 628 3988 
L 628 4550 
Q 988 4650 1302 4700 
Q 1616 4750 1894 4750 
Q 2613 4750 3031 4423 
Q 3450 4097 3450 3541 
Q 3450 3153 3228 2886 
Q 3006 2619 2597 2516 
z
" transform="scale(0.015625)"/>
       </defs>
       <use xlink:href="#DejaVuSans-32"/>
       <use xlink:href="#DejaVuSans-30" x="63.623047"/>
       <use xlink:href="#DejaVuSans-32" x="127.246094"/>
       <use xlink:href="#DejaVuSans-33" x="190.869141"/>
       <use xlink:href="#DejaVuSans-2d" x="254.492188"/>
       <use xlink:href="#DejaVuSans-30" x="290.576172"/>
       <use xlink:href="#DejaVuSans-31" x="354.199219"/>
      </g>
     </g>
    </g>
    <g id="xtick_6">
     <g id="line2d_11">
      <path d="M 480.085207 320.4 
L 480.085207 43.2 
" clip-path="url(#pc61568cd4e)" style="fill: none; stroke-dasharray: 5.12,1.28,0.8,1.28; stroke-dashoffset: 0; stroke: #b0b0b0; stroke-width: 0.8"/>
     </g>
     <g id="line2d_12">
      <g>
       <use xlink:href="#m8ab0ad9682" x="480.085207" y="320.4" style="fill: #a9a9a9; stroke: #a9a9a9; stroke-width: 0.8"/>
      </g>
     </g>
     <g id="text_6">
      <!-- 2023-05 -->
      <g style="fill: #a9a9a9" transform="translate(459.1938 334.998438) scale(0.1 -0.1)">
       <use xlink:href="#DejaVuSans-32"/>
       <use xlink:href="#DejaVuSans-30" x="63.623047"/>
       <use xlink:href="#DejaVuSans-32" x="127.246094"/>
       <use xlink:href="#DejaVuSans-33" x="190.869141"/>
       <use xlink:href="#DejaVuSans-2d" x="254.492188"/>
       <use xlink:href="#DejaVuSans-30" x="290.576172"/>
       <use xlink:href="#DejaVuSans-35" x="354.199219"/>
      </g>
     </g>
    </g>
    <g id="xtick_7">
     <g id="line2d_13">
      <path d="M 545.135992 320.4 
L 545.135992 43.2 
" clip-path="url(#pc61568cd4e)" style="fill: none; stroke-dasharray: 5.12,1.28,0.8,1.28; stroke-dashoffset: 0; stroke: #b0b0b0; stroke-width: 0.8"/>
     </g>
     <g id="line2d_14">
      <g>
       <use xlink:href="#m8ab0ad9682" x="545.135992" y="320.4" style="fill: #a9a9a9; stroke: #a9a9a9; stroke-width: 0.8"/>
      </g>
     </g>
     <g id="text_7">
      <!-- 2023-09 -->
      <g style="fill: #a9a9a9" transform="translate(524.244586 334.998438) scale(0.1 -0.1)">
       <use xlink:href="#DejaVuSans-32"/>
       <use xlink:href="#DejaVuSans-30" x="63.623047"/>
       <use xlink:href="#DejaVuSans-32" x="127.246094"/>
       <use xlink:href="#DejaVuSans-33" x="190.869141"/>
       <use xlink:href="#DejaVuSans-2d" x="254.492188"/>
       <use xlink:href="#DejaVuSans-30" x="290.576172"/>
       <use xlink:href="#DejaVuSans-39" x="354.199219"/>
      </g>
     </g>
    </g>
    <g id="xtick_8">
     <g id="line2d_15">
      <path d="M 609.65791 320.4 
L 609.65791 43.2 
" clip-path="url(#pc61568cd4e)" style="fill: none; stroke-dasharray: 5.12,1.28,0.8,1.28; stroke-dashoffset: 0; stroke: #b0b0b0; stroke-width: 0.8"/>
     </g>
     <g id="line2d_16">
      <g>
       <use xlink:href="#m8ab0ad9682" x="609.65791" y="320.4" style="fill: #a9a9a9; stroke: #a9a9a9; stroke-width: 0.8"/>
      </g>
     </g>
     <g id="text_8">
      <!-- 2024-01 -->
      <g style="fill: #a9a9a9" transform="translate(588.766504 334.998438) scale(0.1 -0.1)">
       <defs>
        <path id="DejaVuSans-34" d="M 2419 4116 
L 825 1625 
L 2419 1625 
L 2419 4116 
z
M 2253 4666 
L 3047 4666 
L 3047 1625 
L 3713 1625 
L 3713 1100 
L 3047 1100 
L 3047 0 
L 2419 0 
L 2419 1100 
L 313 1100 
L 313 1709 
L 2253 4666 
z
" transform="scale(0.015625)"/>
       </defs>
       <use xlink:href="#DejaVuSans-32"/>
       <use xlink:href="#DejaVuSans-30" x="63.623047"/>
       <use xlink:href="#DejaVuSans-32" x="127.246094"/>
       <use xlink:href="#DejaVuSans-34" x="190.869141"/>
       <use xlink:href="#DejaVuSans-2d" x="254.492188"/>
       <use xlink:href="#DejaVuSans-30" x="290.576172"/>
       <use xlink:href="#DejaVuSans-31" x="354.199219"/>
      </g>
     </g>
    </g>
    <g id="xtick_9">
     <g id="line2d_17">
      <path d="M 673.65096 320.4 
L 673.65096 43.2 
" clip-path="url(#pc61568cd4e)" style="fill: none; stroke-dasharray: 5.12,1.28,0.8,1.28; stroke-dashoffset: 0; stroke: #b0b0b0; stroke-width: 0.8"/>
     </g>
     <g id="line2d_18">
      <g>
       <use xlink:href="#m8ab0ad9682" x="673.65096" y="320.4" style="fill: #a9a9a9; stroke: #a9a9a9; stroke-width: 0.8"/>
      </g>
     </g>
     <g id="text_9">
      <!-- 2024-05 -->
      <g style="fill: #a9a9a9" transform="translate(652.759553 334.998438) scale(0.1 -0.1)">
       <use xlink:href="#DejaVuSans-32"/>
       <use xlink:href="#DejaVuSans-30" x="63.623047"/>
       <use xlink:href="#DejaVuSans-32" x="127.246094"/>
       <use xlink:href="#DejaVuSans-34" x="190.869141"/>
       <use xlink:href="#DejaVuSans-2d" x="254.492188"/>
       <use xlink:href="#DejaVuSans-30" x="290.576172"/>
       <use xlink:href="#DejaVuSans-35" x="354.199219"/>
      </g>
     </g>
    </g>
    <g id="xtick_10">
     <g id="line2d_19">
      <path d="M 738.701746 320.4 
L 738.701746 43.2 
" clip-path="url(#pc61568cd4e)" style="fill: none; stroke-dasharray: 5.12,1.28,0.8,1.28; stroke-dashoffset: 0; stroke: #b0b0b0; stroke-width: 0.8"/>
     </g>
     <g id="line2d_20">
      <g>
       <use xlink:href="#m8ab0ad9682" x="738.701746" y="320.4" style="fill: #a9a9a9; stroke: #a9a9a9; stroke-width: 0.8"/>
      </g>
     </g>
     <g id="text_10">
      <!-- 2024-09 -->
      <g style="fill: #a9a9a9" transform="translate(717.810339 334.998438) scale(0.1 -0.1)">
       <use xlink:href="#DejaVuSans-32"/>
       <use xlink:href="#DejaVuSans-30" x="63.623047"/>
       <use xlink:href="#DejaVuSans-32" x="127.246094"/>
       <use xlink:href="#DejaVuSans-34" x="190.869141"/>
       <use xlink:href="#DejaVuSans-2d" x="254.492188"/>
       <use xlink:href="#DejaVuSans-30" x="290.576172"/>
       <use xlink:href="#DejaVuSans-39" x="354.199219"/>
      </g>
     </g>
    </g>
   </g>
   <g id="matplotlib.axis_2">
    <g id="ytick_1">
     <g id="line2d_21">
      <path d="M 108 307.837702 
L 777.6 307.837702 
" clip-path="url(#pc61568cd4e)" style="fill: none; stroke-dasharray: 5.12,1.28,0.8,1.28; stroke-dashoffset: 0; stroke: #b0b0b0; stroke-width: 0.8"/>
     </g>
     <g id="line2d_22">
      <defs>
       <path id="m9a6b4e4e04" d="M 0 0 
L -3.5 0 
" style="stroke: #a9a9a9; stroke-width: 0.8"/>
      </defs>
      <g>
       <use xlink:href="#m9a6b4e4e04" x="108" y="307.837702" style="fill: #a9a9a9; stroke: #a9a9a9; stroke-width: 0.8"/>
      </g>
     </g>
     <g id="text_11">
      <!-- 0 -->
      <g style="fill: #a9a9a9" transform="translate(94.6375 311.636921) scale(0.1 -0.1)">
       <use xlink:href="#DejaVuSans-30"/>
      </g>
     </g>
    </g>
    <g id="ytick_2">
     <g id="line2d_23">
      <path d="M 108 277.676122 
L 777.6 277.676122 
" clip-path="url(#pc61568cd4e)" style="fill: none; stroke-dasharray: 5.12,1.28,0.8,1.28; stroke-dashoffset: 0; stroke: #b0b0b0; stroke-width: 0.8"/>
     </g>
     <g id="line2d_24">
      <g>
       <use xlink:href="#m9a6b4e4e04" x="108" y="277.676122" style="fill: #a9a9a9; stroke: #a9a9a9; stroke-width: 0.8"/>
      </g>
     </g>
     <g id="text_12">
      <!-- 800 -->
      <g style="fill: #a9a9a9" transform="translate(81.9125 281.475341) scale(0.1 -0.1)">
       <defs>
        <path id="DejaVuSans-38" d="M 2034 2216 
Q 1584 2216 1326 1975 
Q 1069 1734 1069 1313 
Q 1069 891 1326 650 
Q 1584 409 2034 409 
Q 2484 409 2743 651 
Q 3003 894 3003 1313 
Q 3003 1734 2745 1975 
Q 2488 2216 2034 2216 
z
M 1403 2484 
Q 997 2584 770 2862 
Q 544 3141 544 3541 
Q 544 4100 942 4425 
Q 1341 4750 2034 4750 
Q 2731 4750 3128 4425 
Q 3525 4100 3525 3541 
Q 3525 3141 3298 2862 
Q 3072 2584 2669 2484 
Q 3125 2378 3379 2068 
Q 3634 1759 3634 1313 
Q 3634 634 3220 271 
Q 2806 -91 2034 -91 
Q 1263 -91 848 271 
Q 434 634 434 1313 
Q 434 1759 690 2068 
Q 947 2378 1403 2484 
z
M 1172 3481 
Q 1172 3119 1398 2916 
Q 1625 2713 2034 2713 
Q 2441 2713 2670 2916 
Q 2900 3119 2900 3481 
Q 2900 3844 2670 4047 
Q 2441 4250 2034 4250 
Q 1625 4250 1398 4047 
Q 1172 3844 1172 3481 
z
" transform="scale(0.015625)"/>
       </defs>
       <use xlink:href="#DejaVuSans-38"/>
       <use xlink:href="#DejaVuSans-30" x="63.623047"/>
       <use xlink:href="#DejaVuSans-30" x="127.246094"/>
      </g>
     </g>
    </g>
    <g id="ytick_3">
     <g id="line2d_25">
      <path d="M 108 247.514542 
L 777.6 247.514542 
" clip-path="url(#pc61568cd4e)" style="fill: none; stroke-dasharray: 5.12,1.28,0.8,1.28; stroke-dashoffset: 0; stroke: #b0b0b0; stroke-width: 0.8"/>
     </g>
     <g id="line2d_26">
      <g>
       <use xlink:href="#m9a6b4e4e04" x="108" y="247.514542" style="fill: #a9a9a9; stroke: #a9a9a9; stroke-width: 0.8"/>
      </g>
     </g>
     <g id="text_13">
      <!-- 1600 -->
      <g style="fill: #a9a9a9" transform="translate(75.55 251.313761) scale(0.1 -0.1)">
       <defs>
        <path id="DejaVuSans-36" d="M 2113 2584 
Q 1688 2584 1439 2293 
Q 1191 2003 1191 1497 
Q 1191 994 1439 701 
Q 1688 409 2113 409 
Q 2538 409 2786 701 
Q 3034 994 3034 1497 
Q 3034 2003 2786 2293 
Q 2538 2584 2113 2584 
z
M 3366 4563 
L 3366 3988 
Q 3128 4100 2886 4159 
Q 2644 4219 2406 4219 
Q 1781 4219 1451 3797 
Q 1122 3375 1075 2522 
Q 1259 2794 1537 2939 
Q 1816 3084 2150 3084 
Q 2853 3084 3261 2657 
Q 3669 2231 3669 1497 
Q 3669 778 3244 343 
Q 2819 -91 2113 -91 
Q 1303 -91 875 529 
Q 447 1150 447 2328 
Q 447 3434 972 4092 
Q 1497 4750 2381 4750 
Q 2619 4750 2861 4703 
Q 3103 4656 3366 4563 
z
" transform="scale(0.015625)"/>
       </defs>
       <use xlink:href="#DejaVuSans-31"/>
       <use xlink:href="#DejaVuSans-36" x="63.623047"/>
       <use xlink:href="#DejaVuSans-30" x="127.246094"/>
       <use xlink:href="#DejaVuSans-30" x="190.869141"/>
      </g>
     </g>
    </g>
    <g id="ytick_4">
     <g id="line2d_27">
      <path d="M 108 217.352962 
L 777.6 217.352962 
" clip-path="url(#pc61568cd4e)" style="fill: none; stroke-dasharray: 5.12,1.28,0.8,1.28; stroke-dashoffset: 0; stroke: #b0b0b0; stroke-width: 0.8"/>
     </g>
     <g id="line2d_28">
      <g>
       <use xlink:href="#m9a6b4e4e04" x="108" y="217.352962" style="fill: #a9a9a9; stroke: #a9a9a9; stroke-width: 0.8"/>
      </g>
     </g>
     <g id="text_14">
      <!-- 2400 -->
      <g style="fill: #a9a9a9" transform="translate(75.55 221.152181) scale(0.1 -0.1)">
       <use xlink:href="#DejaVuSans-32"/>
       <use xlink:href="#DejaVuSans-34" x="63.623047"/>
       <use xlink:href="#DejaVuSans-30" x="127.246094"/>
       <use xlink:href="#DejaVuSans-30" x="190.869141"/>
      </g>
     </g>
    </g>
    <g id="ytick_5">
     <g id="line2d_29">
      <path d="M 108 187.191382 
L 777.6 187.191382 
" clip-path="url(#pc61568cd4e)" style="fill: none; stroke-dasharray: 5.12,1.28,0.8,1.28; stroke-dashoffset: 0; stroke: #b0b0b0; stroke-width: 0.8"/>
     </g>
     <g id="line2d_30">
      <g>
       <use xlink:href="#m9a6b4e4e04" x="108" y="187.191382" style="fill: #a9a9a9; stroke: #a9a9a9; stroke-width: 0.8"/>
      </g>
     </g>
     <g id="text_15">
      <!-- 3200 -->
      <g style="fill: #a9a9a9" transform="translate(75.55 190.990601) scale(0.1 -0.1)">
       <use xlink:href="#DejaVuSans-33"/>
       <use xlink:href="#DejaVuSans-32" x="63.623047"/>
       <use xlink:href="#DejaVuSans-30" x="127.246094"/>
       <use xlink:href="#DejaVuSans-30" x="190.869141"/>
      </g>
     </g>
    </g>
    <g id="ytick_6">
     <g id="line2d_31">
      <path d="M 108 157.029803 
L 777.6 157.029803 
" clip-path="url(#pc61568cd4e)" style="fill: none; stroke-dasharray: 5.12,1.28,0.8,1.28; stroke-dashoffset: 0; stroke: #b0b0b0; stroke-width: 0.8"/>
     </g>
     <g id="line2d_32">
      <g>
       <use xlink:href="#m9a6b4e4e04" x="108" y="157.029803" style="fill: #a9a9a9; stroke: #a9a9a9; stroke-width: 0.8"/>
      </g>
     </g>
     <g id="text_16">
      <!-- 4000 -->
      <g style="fill: #a9a9a9" transform="translate(75.55 160.829021) scale(0.1 -0.1)">
       <use xlink:href="#DejaVuSans-34"/>
       <use xlink:href="#DejaVuSans-30" x="63.623047"/>
       <use xlink:href="#DejaVuSans-30" x="127.246094"/>
       <use xlink:href="#DejaVuSans-30" x="190.869141"/>
      </g>
     </g>
    </g>
    <g id="ytick_7">
     <g id="line2d_33">
      <path d="M 108 126.868223 
L 777.6 126.868223 
" clip-path="url(#pc61568cd4e)" style="fill: none; stroke-dasharray: 5.12,1.28,0.8,1.28; stroke-dashoffset: 0; stroke: #b0b0b0; stroke-width: 0.8"/>
     </g>
     <g id="line2d_34">
      <g>
       <use xlink:href="#m9a6b4e4e04" x="108" y="126.868223" style="fill: #a9a9a9; stroke: #a9a9a9; stroke-width: 0.8"/>
      </g>
     </g>
     <g id="text_17">
      <!-- 4800 -->
      <g style="fill: #a9a9a9" transform="translate(75.55 130.667441) scale(0.1 -0.1)">
       <use xlink:href="#DejaVuSans-34"/>
       <use xlink:href="#DejaVuSans-38" x="63.623047"/>
       <use xlink:href="#DejaVuSans-30" x="127.246094"/>
       <use xlink:href="#DejaVuSans-30" x="190.869141"/>
      </g>
     </g>
    </g>
    <g id="ytick_8">
     <g id="line2d_35">
      <path d="M 108 96.706643 
L 777.6 96.706643 
" clip-path="url(#pc61568cd4e)" style="fill: none; stroke-dasharray: 5.12,1.28,0.8,1.28; stroke-dashoffset: 0; stroke: #b0b0b0; stroke-width: 0.8"/>
     </g>
     <g id="line2d_36">
      <g>
       <use xlink:href="#m9a6b4e4e04" x="108" y="96.706643" style="fill: #a9a9a9; stroke: #a9a9a9; stroke-width: 0.8"/>
      </g>
     </g>
     <g id="text_18">
      <!-- 5600 -->
      <g style="fill: #a9a9a9" transform="translate(75.55 100.505861) scale(0.1 -0.1)">
       <use xlink:href="#DejaVuSans-35"/>
       <use xlink:href="#DejaVuSans-36" x="63.623047"/>
       <use xlink:href="#DejaVuSans-30" x="127.246094"/>
       <use xlink:href="#DejaVuSans-30" x="190.869141"/>
      </g>
     </g>
    </g>
    <g id="ytick_9">
     <g id="line2d_37">
      <path d="M 108 66.545063 
L 777.6 66.545063 
" clip-path="url(#pc61568cd4e)" style="fill: none; stroke-dasharray: 5.12,1.28,0.8,1.28; stroke-dashoffset: 0; stroke: #b0b0b0; stroke-width: 0.8"/>
     </g>
     <g id="line2d_38">
      <g>
       <use xlink:href="#m9a6b4e4e04" x="108" y="66.545063" style="fill: #a9a9a9; stroke: #a9a9a9; stroke-width: 0.8"/>
      </g>
     </g>
     <g id="text_19">
      <!-- 6400 -->
      <g style="fill: #a9a9a9" transform="translate(75.55 70.344282) scale(0.1 -0.1)">
       <use xlink:href="#DejaVuSans-36"/>
       <use xlink:href="#DejaVuSans-34" x="63.623047"/>
       <use xlink:href="#DejaVuSans-30" x="127.246094"/>
       <use xlink:href="#DejaVuSans-30" x="190.869141"/>
      </g>
     </g>
    </g>
   </g>
   <g id="line2d_39">
    <path d="M 138.436364 307.724596 
L 141.609573 307.460682 
L 142.138441 307.23447 
L 143.725045 307.083662 
L 147.427123 306.405027 
L 150.071464 306.178815 
L 151.1292 305.764093 
L 151.658068 305.085458 
L 152.186936 304.708438 
L 152.715804 303.539677 
L 153.244673 303.464273 
L 153.773541 303.049551 
L 154.831277 302.521724 
L 156.94675 300.862837 
L 159.062223 299.844883 
L 160.648827 299.128546 
L 161.177695 298.299102 
L 162.235432 297.545063 
L 162.7643 297.318851 
L 168.052982 296.564811 
L 168.58185 296.3386 
L 172.283927 296.036984 
L 174.3994 295.546858 
L 178.630345 294.981329 
L 179.159213 294.679713 
L 179.688082 294.604309 
L 180.745818 294.264991 
L 184.447895 293.661759 
L 185.505631 293.360144 
L 187.092236 293.209336 
L 188.149972 293.09623 
L 190.794313 292.417594 
L 191.85205 292.34219 
L 192.909786 292.191382 
L 193.967522 291.965171 
L 194.49639 291.814363 
L 195.025259 291.098025 
L 196.611863 290.494794 
L 198.198468 290.080072 
L 198.727336 289.816158 
L 199.256204 289.778456 
L 201.900545 289.024417 
L 202.958281 288.949013 
L 203.48715 288.873609 
L 205.073754 288.383483 
L 207.189227 287.855655 
L 207.718095 287.629443 
L 208.246963 287.554039 
L 208.775831 287.290126 
L 214.064513 286.498384 
L 216.708854 285.744345 
L 217.237722 285.405027 
L 219.882063 284.537882 
L 220.939799 283.821544 
L 222.526404 283.519928 
L 232.574899 280.616876 
L 233.632636 280.202154 
L 234.690372 280.12675 
L 236.276977 279.674327 
L 236.805845 279.674327 
L 237.334713 279.448115 
L 238.392449 279.335009 
L 238.921317 279.146499 
L 239.979054 279.108797 
L 242.094526 278.844883 
L 243.152263 278.317056 
L 249.498681 275.489408 
L 250.027549 274.923878 
L 251.085286 273.340395 
L 251.614154 273.189587 
L 252.143022 273.189587 
L 253.200758 272.397846 
L 254.787363 271.870018 
L 255.316231 271.379892 
L 256.373967 270.965171 
L 257.431704 270.475045 
L 258.48944 268.966966 
L 259.018308 268.627648 
L 259.547176 267.722801 
L 260.076045 267.157271 
L 263.249254 265.498384 
L 264.30699 264.668941 
L 264.835858 264.329623 
L 265.364726 263.537882 
L 265.893595 262.36912 
L 266.422463 261.577379 
L 266.951331 261.162657 
L 267.480199 260.936445 
L 269.595672 259.12675 
L 270.653408 258.259605 
L 271.182276 257.807181 
L 271.711144 257.090844 
L 272.768881 256.148294 
L 274.884354 254.753321 
L 275.413222 254.300898 
L 276.470958 253.96158 
L 278.057563 253.056732 
L 279.644167 252.038779 
L 281.75964 250.15368 
L 282.817376 249.738959 
L 283.875113 249.022621 
L 284.403981 248.721005 
L 284.932849 248.645601 
L 288.634926 246.345781 
L 290.750399 245.214722 
L 291.279267 244.724596 
L 299.741158 241.783842 
L 300.798894 240.841293 
L 301.856631 240.351167 
L 302.914367 239.785637 
L 303.443235 239.484022 
L 304.500971 239.182406 
L 305.02984 238.843088 
L 305.558708 238.69228 
L 307.145312 237.674327 
L 309.789653 237.071095 
L 311.376258 236.166248 
L 311.905126 236.090844 
L 312.962862 235.82693 
L 313.491731 235.676122 
L 315.078335 234.469659 
L 317.193808 233.904129 
L 317.722676 233.489408 
L 320.895885 232.433752 
L 321.424753 232.39605 
L 323.011358 231.830521 
L 326.713435 230.510952 
L 327.771171 230.360144 
L 329.357776 229.832316 
L 332.002117 228.588151 
L 334.117589 227.457092 
L 338.348535 225.760503 
L 338.877403 225.685099 
L 339.935139 225.044165 
L 340.464008 224.968761 
L 342.57948 224.101616 
L 344.694953 223.8 
L 345.752689 223.272172 
L 346.281558 222.819749 
L 346.810426 221.877199 
L 348.925898 221.31167 
L 350.512503 220.519928 
L 351.041371 220.406822 
L 355.272317 218.408618 
L 356.858921 218.0693 
L 357.916657 217.541472 
L 358.445526 217.31526 
L 358.974394 217.239856 
L 361.089867 216.297307 
L 362.676471 215.317056 
L 363.205339 215.241652 
L 363.734207 215.053142 
L 364.263076 215.01544 
L 366.907416 214.374506 
L 367.436285 213.959785 
L 369.022889 213.394255 
L 371.138362 212.564811 
L 371.66723 212.187792 
L 372.196098 211.999282 
L 373.253835 211.433752 
L 375.898175 210.566607 
L 377.48478 209.322442 
L 378.013648 209.209336 
L 379.071385 208.379892 
L 379.600253 208.304488 
L 380.129121 207.475045 
L 380.657989 207.248833 
L 381.186857 206.834111 
L 381.715725 206.758707 
L 382.773462 206.117774 
L 383.831198 205.778456 
L 384.360066 205.363734 
L 384.888935 205.175224 
L 386.475539 204.081867 
L 388.591012 202.98851 
L 389.11988 202.913106 
L 390.706484 202.121364 
L 391.235353 201.254219 
L 391.764221 200.801795 
L 392.293089 200.50018 
L 392.821957 200.387074 
L 393.879694 199.708438 
L 394.408562 199.595332 
L 395.466298 199.067504 
L 397.052903 198.388869 
L 398.110639 197.634829 
L 399.697244 196.202154 
L 400.75498 195.598923 
L 401.283848 195.033393 
L 403.399321 193.600718 
L 403.928189 192.997487 
L 404.457057 192.582765 
L 405.514793 192.205745 
L 406.57253 191.489408 
L 408.159134 190.697666 
L 408.688003 190.622262 
L 410.274607 189.792819 
L 411.332343 189.151885 
L 416.621025 187.266786 
L 417.149893 186.852065 
L 419.265366 186.060323 
L 419.794234 185.909515 
L 420.323102 185.494794 
L 422.967443 184.062118 
L 424.02518 181.98851 
L 425.082916 180.782047 
L 426.140652 180.141113 
L 427.727257 179.50018 
L 428.256125 179.424776 
L 428.784993 179.12316 
L 431.429334 178.293716 
L 431.958202 178.067504 
L 433.015939 177.351167 
L 434.602543 176.672531 
L 435.66028 176.107002 
L 436.189148 175.729982 
L 436.718016 175.50377 
L 437.246884 175.12675 
L 437.775752 174.561221 
L 438.833489 173.995691 
L 441.47783 172.600718 
L 444.651039 171.054937 
L 445.708775 170.715619 
L 447.29538 170.225494 
L 449.410852 169.282944 
L 450.468589 168.868223 
L 450.997457 168.453501 
L 452.055193 168.114183 
L 455.228402 166.492998 
L 456.286139 165.663555 
L 457.343875 165.286535 
L 457.872743 164.834111 
L 458.401611 164.758707 
L 459.459348 163.966966 
L 460.517084 163.439138 
L 461.045952 163.212926 
L 461.57482 162.685099 
L 465.276898 161.252424 
L 466.334634 160.8 
L 467.921238 160.309874 
L 468.978975 160.159066 
L 469.507843 159.932855 
L 470.036711 159.857451 
L 471.094448 159.405027 
L 471.623316 159.367325 
L 473.738788 158.575583 
L 475.325393 157.482226 
L 477.969734 156.238061 
L 480.614075 154.805386 
L 481.142943 154.69228 
L 482.729547 153.787433 
L 484.316152 153.259605 
L 485.373888 152.920287 
L 487.489361 152.241652 
L 488.547097 151.902334 
L 490.133702 151.63842 
L 492.249175 150.959785 
L 492.778043 150.733573 
L 493.306911 150.658169 
L 493.835779 150.394255 
L 494.893516 150.205745 
L 496.48012 149.640215 
L 497.537856 149.52711 
L 499.124461 149.187792 
L 500.182197 148.999282 
L 501.239934 148.810772 
L 502.29767 148.58456 
L 505.470879 147.792819 
L 505.999747 147.491203 
L 508.644088 146.850269 
L 509.701825 146.510952 
L 515.519374 144.814363 
L 516.048243 144.286535 
L 517.105979 143.871813 
L 520.279188 142.740754 
L 520.808056 142.401436 
L 521.336924 142.28833 
L 521.865793 141.986715 
L 523.452397 141.534291 
L 524.510133 141.270377 
L 525.039002 140.931059 
L 525.56787 140.817953 
L 526.096738 140.36553 
L 527.683343 140.063914 
L 528.741079 139.573788 
L 529.269947 138.970557 
L 531.38542 138.480431 
L 535.087497 137.726391 
L 535.616365 137.726391 
L 536.145233 137.50018 
L 538.260706 137.12316 
L 538.789574 136.896948 
L 540.905047 136.519928 
L 541.962783 136.067504 
L 542.491652 136.029803 
L 551.482411 133.352962 
L 552.011279 133.12675 
L 552.540147 132.749731 
L 553.597883 132.448115 
L 554.65562 132.108797 
L 555.713356 131.694075 
L 557.299961 131.01544 
L 558.886565 130.902334 
L 561.002038 130.299102 
L 561.530906 129.959785 
L 562.588642 129.658169 
L 565.232983 128.489408 
L 565.761851 128.451706 
L 571.579401 126.453501 
L 574.223742 125.774865 
L 575.281479 125.28474 
L 576.339215 125.058528 
L 576.868083 124.945422 
L 577.396951 124.5307 
L 577.925819 124.266786 
L 578.454688 123.625853 
L 578.983556 123.248833 
L 580.041292 122.947217 
L 580.57016 122.532496 
L 583.214501 121.439138 
L 583.743369 121.326032 
L 584.272238 120.986715 
L 585.329974 120.685099 
L 585.858842 120.345781 
L 588.503183 119.478636 
L 590.089788 118.573788 
L 590.618656 118.460682 
L 591.676392 117.857451 
L 592.20526 117.631239 
L 593.262997 116.990305 
L 594.849601 116.236266 
L 595.378469 115.859246 
L 596.436206 115.519928 
L 597.493942 114.916697 
L 598.02281 114.728187 
L 598.551678 114.351167 
L 605.426965 111.975943 
L 605.955833 111.862837 
L 606.484701 111.523519 
L 607.013569 111.448115 
L 608.071306 111.184201 
L 609.129042 110.957989 
L 612.831119 109.148294 
L 613.359987 109.07289 
L 614.946592 108.205745 
L 618.119801 106.96158 
L 620.235274 106.132136 
L 620.764142 105.981329 
L 621.29301 105.642011 
L 622.350746 105.491203 
L 622.879615 105.151885 
L 623.408483 105.114183 
L 624.466219 104.774865 
L 625.523955 104.247038 
L 626.052824 104.171634 
L 628.697165 103.115978 
L 630.283769 102.663555 
L 631.341505 102.399641 
L 632.92811 101.947217 
L 633.985846 101.532496 
L 636.101319 100.401436 
L 637.159055 99.986715 
L 637.687924 99.647397 
L 638.74566 99.421185 
L 639.274528 99.119569 
L 639.803396 99.006463 
L 641.390001 98.17702 
L 642.447737 97.762298 
L 644.034342 97.045961 
L 645.620946 96.631239 
L 648.794155 95.387074 
L 650.38076 94.859246 
L 658.313782 91.466068 
L 658.842651 91.390664 
L 660.958123 90.561221 
L 662.544728 89.694075 
L 663.073596 89.580969 
L 664.131332 89.166248 
L 664.660201 89.166248 
L 665.717937 88.713824 
L 666.775673 87.771275 
L 667.304542 87.318851 
L 668.891146 86.564811 
L 669.420014 86.451706 
L 669.948882 86.187792 
L 670.477751 86.112388 
L 671.006619 85.735368 
L 671.535487 85.622262 
L 672.593223 84.981329 
L 674.179828 84.189587 
L 675.237564 83.774865 
L 675.766432 83.510952 
L 678.410773 82.870018 
L 678.939641 82.606104 
L 680.526246 82.15368 
L 682.641719 81.135727 
L 683.699455 80.645601 
L 684.757191 80.381688 
L 688.459269 78.647397 
L 691.10361 77.704847 
L 692.690214 76.762298 
L 693.219082 76.649192 
L 694.276819 76.121364 
L 695.334555 75.744345 
L 695.863423 75.291921 
L 696.392291 74.990305 
L 697.978896 74.50018 
L 699.036632 73.783842 
L 699.5655 73.74614 
L 700.623237 73.444524 
L 701.680973 73.105206 
L 702.209841 72.841293 
L 702.738709 72.765889 
L 704.325314 72.200359 
L 705.911918 71.634829 
L 706.969655 71.220108 
L 707.498523 70.805386 
L 709.085128 70.390664 
L 709.613996 70.089048 
L 710.671732 69.825135 
L 712.258337 68.957989 
L 712.787205 68.920287 
L 714.373809 68.430162 
L 715.431546 68.317056 
L 716.489282 67.902334 
L 719.662491 66.997487 
L 720.720227 66.959785 
L 723.893437 65.941831 
L 724.422305 65.866427 
L 726.008909 65.036984 
L 726.537777 64.58456 
L 727.595514 63.981329 
L 729.182118 62.963375 
L 732.355327 61.870018 
L 732.884196 61.455296 
L 734.4708 60.738959 
L 734.999668 60.625853 
L 736.057405 60.135727 
L 737.644009 59.721005 
L 739.230614 59.04237 
L 740.28835 58.552244 
L 741.874955 57.911311 
L 742.403823 57.798205 
L 743.990427 57.044165 
L 744.519295 56.893357 
L 745.577032 56.17702 
L 747.163636 55.8 
L 747.163636 55.8 
" clip-path="url(#pc61568cd4e)" style="fill: none; stroke: #1f77b4; stroke-width: 1.5; stroke-linecap: square"/>
   </g>
   <g id="line2d_40">
    <path d="M 138.965232 307.8 
L 140.551836 307.724596 
L 142.138441 307.686894 
L 145.31165 307.61149 
L 147.955991 307.498384 
L 150.071464 307.498384 
L 150.600332 307.347576 
L 152.715804 307.272172 
L 154.302409 307.083662 
L 155.889014 306.932855 
L 159.062223 306.782047 
L 159.591091 306.782047 
L 160.648827 306.668941 
L 163.822036 306.518133 
L 167.524113 306.442729 
L 170.168454 306.329623 
L 176.514872 306.254219 
L 179.159213 306.141113 
L 182.332422 306.065709 
L 184.447895 305.990305 
L 189.207709 305.914901 
L 190.794313 305.877199 
L 192.380918 305.839497 
L 193.967522 305.650987 
L 197.140731 305.613285 
L 198.198468 305.537882 
L 202.429413 305.462478 
L 207.718095 305.160862 
L 211.420172 305.085458 
L 212.477909 305.010054 
L 214.064513 304.93465 
L 217.237722 304.783842 
L 219.353195 304.74614 
L 220.939799 304.595332 
L 227.815086 304.18061 
L 230.459427 304.105206 
L 235.21924 303.841293 
L 236.805845 303.765889 
L 242.094526 303.464273 
L 247.912076 303.388869 
L 250.027549 303.162657 
L 251.085286 303.087253 
L 257.960572 302.521724 
L 261.133781 302.107002 
L 263.249254 302.031598 
L 267.480199 301.466068 
L 270.653408 301.390664 
L 272.240013 301.239856 
L 273.297749 301.202154 
L 274.355485 301.089048 
L 275.94209 301.013645 
L 277.528694 300.787433 
L 278.057563 300.787433 
L 279.644167 300.561221 
L 281.75964 300.485817 
L 282.817376 300.410413 
L 284.932849 300.335009 
L 285.990585 300.259605 
L 288.634926 299.995691 
L 289.692663 299.807181 
L 291.279267 299.769479 
L 292.337003 299.694075 
L 294.981344 299.618671 
L 301.856631 299.20395 
L 303.443235 299.128546 
L 310.318521 298.713824 
L 314.020599 298.63842 
L 315.078335 298.525314 
L 318.780412 298.44991 
L 322.48249 298.2614 
L 328.300039 298.185996 
L 332.002117 297.997487 
L 336.233062 297.922083 
L 340.464008 297.695871 
L 344.166085 297.620467 
L 354.21458 296.979533 
L 359.503262 296.904129 
L 361.618735 296.677917 
L 363.205339 296.640215 
L 364.791944 296.602513 
L 366.907416 296.376302 
L 372.196098 296.074686 
L 375.369307 295.999282 
L 376.955912 295.96158 
L 378.542516 295.923878 
L 380.129121 295.77307 
L 384.360066 295.697666 
L 385.417803 295.546858 
L 386.475539 295.471454 
L 389.11988 295.358348 
L 390.177616 295.282944 
L 391.235353 295.20754 
L 395.995166 295.132136 
L 397.052903 295.019031 
L 399.168375 294.981329 
L 400.226112 294.868223 
L 401.812716 294.679713 
L 402.870453 294.604309 
L 407.630266 294.340395 
L 408.688003 294.302693 
L 410.274607 294.151885 
L 411.861212 294.114183 
L 413.447816 294.038779 
L 416.092157 293.925673 
L 423.496312 293.850269 
L 427.198389 293.661759 
L 431.429334 293.586355 
L 433.544807 293.510952 
L 435.66028 293.47325 
L 436.718016 293.360144 
L 438.833489 293.28474 
L 444.12217 292.983124 
L 447.29538 292.945422 
L 448.881984 292.794614 
L 450.468589 292.756912 
L 454.170666 292.681508 
L 456.286139 292.606104 
L 462.632557 292.5307 
L 465.276898 292.417594 
L 468.450107 292.34219 
L 470.036711 292.15368 
L 473.20992 292.115978 
L 474.796525 291.965171 
L 476.911997 291.889767 
L 483.258416 291.814363 
L 485.902756 291.701257 
L 494.893516 291.663555 
L 495.951252 291.588151 
L 497.537856 291.550449 
L 504.413143 291.475045 
L 505.470879 291.399641 
L 511.288429 291.324237 
L 513.403902 291.248833 
L 523.452397 291.173429 
L 525.039002 291.135727 
L 529.798815 291.060323 
L 530.856552 290.984919 
L 543.549388 290.909515 
L 545.135992 290.871813 
L 559.415433 290.796409 
L 561.002038 290.758707 
L 570.521665 290.683303 
L 571.579401 290.607899 
L 574.223742 290.532496 
L 575.810347 290.381688 
L 578.454688 290.306284 
L 581.627897 290.155476 
L 585.858842 290.080072 
L 586.916578 290.004668 
L 591.147524 289.929264 
L 594.320733 289.778456 
L 596.965074 289.703052 
L 601.196019 289.47684 
L 604.369228 289.401436 
L 606.484701 289.326032 
L 613.359987 289.250628 
L 615.47546 289.175224 
L 619.706405 289.09982 
L 623.408483 288.911311 
L 628.168296 288.835907 
L 629.226033 288.760503 
L 638.74566 288.685099 
L 640.332264 288.647397 
L 642.976605 288.609695 
L 645.092078 288.383483 
L 646.678683 288.345781 
L 649.851892 288.270377 
L 655.140573 287.968761 
L 657.784914 287.893357 
L 659.900387 287.817953 
L 665.717937 287.742549 
L 668.362278 287.440934 
L 670.477751 287.36553 
L 674.179828 287.290126 
L 675.237564 287.17702 
L 679.46851 287.101616 
L 682.11285 286.98851 
L 688.988137 286.950808 
L 690.045873 286.837702 
L 693.74795 286.762298 
L 695.334555 286.724596 
L 697.978896 286.649192 
L 699.5655 286.61149 
L 708.556259 286.536086 
L 711.2006 286.42298 
L 718.604755 286.347576 
L 720.720227 286.272172 
L 726.537777 286.196768 
L 727.595514 286.083662 
L 732.355327 286.045961 
L 733.413064 285.970557 
L 736.057405 285.895153 
L 737.644009 285.857451 
L 744.519295 285.782047 
L 746.1059 285.744345 
L 747.163636 285.744345 
L 747.163636 285.744345 
" clip-path="url(#pc61568cd4e)" style="fill: none; stroke: #ff7f0e; stroke-width: 1.5; stroke-linecap: square"/>
   </g>
   <g id="patch_3">
    <path d="M 108 320.4 
L 108 43.2 
" style="fill: none; stroke: #a9a9a9; stroke-width: 0.8; stroke-linejoin: miter; stroke-linecap: square"/>
   </g>
   <g id="patch_4">
    <path d="M 777.6 320.4 
L 777.6 43.2 
" style="fill: none"/>
   </g>
   <g id="patch_5">
    <path d="M 108 320.4 
L 777.6 320.4 
" style="fill: none; stroke: #a9a9a9; stroke-width: 0.8; stroke-linejoin: miter; stroke-linecap: square"/>
   </g>
   <g id="patch_6">
    <path d="M 108 43.2 
L 777.6 43.2 
" style="fill: none"/>
   </g>
   <g id="text_20">
    <!-- get_subscribe history -->
    <g style="fill: #a9a9a9" transform="translate(378.6075 37.2) scale(0.12 -0.12)">
     <defs>
      <path id="DejaVuSans-67" d="M 2906 1791 
Q 2906 2416 2648 2759 
Q 2391 3103 1925 3103 
Q 1463 3103 1205 2759 
Q 947 2416 947 1791 
Q 947 1169 1205 825 
Q 1463 481 1925 481 
Q 2391 481 2648 825 
Q 2906 1169 2906 1791 
z
M 3481 434 
Q 3481 -459 3084 -895 
Q 2688 -1331 1869 -1331 
Q 1566 -1331 1297 -1286 
Q 1028 -1241 775 -1147 
L 775 -588 
Q 1028 -725 1275 -790 
Q 1522 -856 1778 -856 
Q 2344 -856 2625 -561 
Q 2906 -266 2906 331 
L 2906 616 
Q 2728 306 2450 153 
Q 2172 0 1784 0 
Q 1141 0 747 490 
Q 353 981 353 1791 
Q 353 2603 747 3093 
Q 1141 3584 1784 3584 
Q 2172 3584 2450 3431 
Q 2728 3278 2906 2969 
L 2906 3500 
L 3481 3500 
L 3481 434 
z
" transform="scale(0.015625)"/>
      <path id="DejaVuSans-65" d="M 3597 1894 
L 3597 1613 
L 953 1613 
Q 991 1019 1311 708 
Q 1631 397 2203 397 
Q 2534 397 2845 478 
Q 3156 559 3463 722 
L 3463 178 
Q 3153 47 2828 -22 
Q 2503 -91 2169 -91 
Q 1331 -91 842 396 
Q 353 884 353 1716 
Q 353 2575 817 3079 
Q 1281 3584 2069 3584 
Q 2775 3584 3186 3129 
Q 3597 2675 3597 1894 
z
M 3022 2063 
Q 3016 2534 2758 2815 
Q 2500 3097 2075 3097 
Q 1594 3097 1305 2825 
Q 1016 2553 972 2059 
L 3022 2063 
z
" transform="scale(0.015625)"/>
      <path id="DejaVuSans-74" d="M 1172 4494 
L 1172 3500 
L 2356 3500 
L 2356 3053 
L 1172 3053 
L 1172 1153 
Q 1172 725 1289 603 
Q 1406 481 1766 481 
L 2356 481 
L 2356 0 
L 1766 0 
Q 1100 0 847 248 
Q 594 497 594 1153 
L 594 3053 
L 172 3053 
L 172 3500 
L 594 3500 
L 594 4494 
L 1172 4494 
z
" transform="scale(0.015625)"/>
      <path id="DejaVuSans-5f" d="M 3263 -1063 
L 3263 -1509 
L -63 -1509 
L -63 -1063 
L 3263 -1063 
z
" transform="scale(0.015625)"/>
      <path id="DejaVuSans-73" d="M 2834 3397 
L 2834 2853 
Q 2591 2978 2328 3040 
Q 2066 3103 1784 3103 
Q 1356 3103 1142 2972 
Q 928 2841 928 2578 
Q 928 2378 1081 2264 
Q 1234 2150 1697 2047 
L 1894 2003 
Q 2506 1872 2764 1633 
Q 3022 1394 3022 966 
Q 3022 478 2636 193 
Q 2250 -91 1575 -91 
Q 1294 -91 989 -36 
Q 684 19 347 128 
L 347 722 
Q 666 556 975 473 
Q 1284 391 1588 391 
Q 1994 391 2212 530 
Q 2431 669 2431 922 
Q 2431 1156 2273 1281 
Q 2116 1406 1581 1522 
L 1381 1569 
Q 847 1681 609 1914 
Q 372 2147 372 2553 
Q 372 3047 722 3315 
Q 1072 3584 1716 3584 
Q 2034 3584 2315 3537 
Q 2597 3491 2834 3397 
z
" transform="scale(0.015625)"/>
      <path id="DejaVuSans-75" d="M 544 1381 
L 544 3500 
L 1119 3500 
L 1119 1403 
Q 1119 906 1312 657 
Q 1506 409 1894 409 
Q 2359 409 2629 706 
Q 2900 1003 2900 1516 
L 2900 3500 
L 3475 3500 
L 3475 0 
L 2900 0 
L 2900 538 
Q 2691 219 2414 64 
Q 2138 -91 1772 -91 
Q 1169 -91 856 284 
Q 544 659 544 1381 
z
M 1991 3584 
L 1991 3584 
z
" transform="scale(0.015625)"/>
      <path id="DejaVuSans-62" d="M 3116 1747 
Q 3116 2381 2855 2742 
Q 2594 3103 2138 3103 
Q 1681 3103 1420 2742 
Q 1159 2381 1159 1747 
Q 1159 1113 1420 752 
Q 1681 391 2138 391 
Q 2594 391 2855 752 
Q 3116 1113 3116 1747 
z
M 1159 2969 
Q 1341 3281 1617 3432 
Q 1894 3584 2278 3584 
Q 2916 3584 3314 3078 
Q 3713 2572 3713 1747 
Q 3713 922 3314 415 
Q 2916 -91 2278 -91 
Q 1894 -91 1617 61 
Q 1341 213 1159 525 
L 1159 0 
L 581 0 
L 581 4863 
L 1159 4863 
L 1159 2969 
z
" transform="scale(0.015625)"/>
      <path id="DejaVuSans-63" d="M 3122 3366 
L 3122 2828 
Q 2878 2963 2633 3030 
Q 2388 3097 2138 3097 
Q 1578 3097 1268 2742 
Q 959 2388 959 1747 
Q 959 1106 1268 751 
Q 1578 397 2138 397 
Q 2388 397 2633 464 
Q 2878 531 3122 666 
L 3122 134 
Q 2881 22 2623 -34 
Q 2366 -91 2075 -91 
Q 1284 -91 818 406 
Q 353 903 353 1747 
Q 353 2603 823 3093 
Q 1294 3584 2113 3584 
Q 2378 3584 2631 3529 
Q 2884 3475 3122 3366 
z
" transform="scale(0.015625)"/>
      <path id="DejaVuSans-72" d="M 2631 2963 
Q 2534 3019 2420 3045 
Q 2306 3072 2169 3072 
Q 1681 3072 1420 2755 
Q 1159 2438 1159 1844 
L 1159 0 
L 581 0 
L 581 3500 
L 1159 3500 
L 1159 2956 
Q 1341 3275 1631 3429 
Q 1922 3584 2338 3584 
Q 2397 3584 2469 3576 
Q 2541 3569 2628 3553 
L 2631 2963 
z
" transform="scale(0.015625)"/>
      <path id="DejaVuSans-69" d="M 603 3500 
L 1178 3500 
L 1178 0 
L 603 0 
L 603 3500 
z
M 603 4863 
L 1178 4863 
L 1178 4134 
L 603 4134 
L 603 4863 
z
" transform="scale(0.015625)"/>
      <path id="DejaVuSans-20" transform="scale(0.015625)"/>
      <path id="DejaVuSans-68" d="M 3513 2113 
L 3513 0 
L 2938 0 
L 2938 2094 
Q 2938 2591 2744 2837 
Q 2550 3084 2163 3084 
Q 1697 3084 1428 2787 
Q 1159 2491 1159 1978 
L 1159 0 
L 581 0 
L 581 4863 
L 1159 4863 
L 1159 2956 
Q 1366 3272 1645 3428 
Q 1925 3584 2291 3584 
Q 2894 3584 3203 3211 
Q 3513 2838 3513 2113 
z
" transform="scale(0.015625)"/>
      <path id="DejaVuSans-6f" d="M 1959 3097 
Q 1497 3097 1228 2736 
Q 959 2375 959 1747 
Q 959 1119 1226 758 
Q 1494 397 1959 397 
Q 2419 397 2687 759 
Q 2956 1122 2956 1747 
Q 2956 2369 2687 2733 
Q 2419 3097 1959 3097 
z
M 1959 3584 
Q 2709 3584 3137 3096 
Q 3566 2609 3566 1747 
Q 3566 888 3137 398 
Q 2709 -91 1959 -91 
Q 1206 -91 779 398 
Q 353 888 353 1747 
Q 353 2609 779 3096 
Q 1206 3584 1959 3584 
z
" transform="scale(0.015625)"/>
      <path id="DejaVuSans-79" d="M 2059 -325 
Q 1816 -950 1584 -1140 
Q 1353 -1331 966 -1331 
L 506 -1331 
L 506 -850 
L 844 -850 
Q 1081 -850 1212 -737 
Q 1344 -625 1503 -206 
L 1606 56 
L 191 3500 
L 800 3500 
L 1894 763 
L 2988 3500 
L 3597 3500 
L 2059 -325 
z
" transform="scale(0.015625)"/>
     </defs>
     <use xlink:href="#DejaVuSans-67"/>
     <use xlink:href="#DejaVuSans-65" x="63.476562"/>
     <use xlink:href="#DejaVuSans-74" x="125"/>
     <use xlink:href="#DejaVuSans-5f" x="164.208984"/>
     <use xlink:href="#DejaVuSans-73" x="214.208984"/>
     <use xlink:href="#DejaVuSans-75" x="266.308594"/>
     <use xlink:href="#DejaVuSans-62" x="329.6875"/>
     <use xlink:href="#DejaVuSans-73" x="393.164062"/>
     <use xlink:href="#DejaVuSans-63" x="445.263672"/>
     <use xlink:href="#DejaVuSans-72" x="500.244141"/>
     <use xlink:href="#DejaVuSans-69" x="541.357422"/>
     <use xlink:href="#DejaVuSans-62" x="569.140625"/>
     <use xlink:href="#DejaVuSans-65" x="632.617188"/>
     <use xlink:href="#DejaVuSans-20" x="694.140625"/>
     <use xlink:href="#DejaVuSans-68" x="725.927734"/>
     <use xlink:href="#DejaVuSans-69" x="789.306641"/>
     <use xlink:href="#DejaVuSans-73" x="817.089844"/>
     <use xlink:href="#DejaVuSans-74" x="869.189453"/>
     <use xlink:href="#DejaVuSans-6f" x="908.398438"/>
     <use xlink:href="#DejaVuSans-72" x="969.580078"/>
     <use xlink:href="#DejaVuSans-79" x="1010.693359"/>
    </g>
   </g>
   <g id="legend_1">
    <g id="line2d_41">
     <path d="M 815.08 328.498438 
L 825.08 328.498438 
L 835.08 328.498438 
" style="fill: none; stroke: #1f77b4; stroke-width: 1.5; stroke-linecap: square"/>
    </g>
    <g id="text_21">
     <!-- star -->
     <g style="fill: #a9a9a9" transform="translate(843.08 331.998438) scale(0.1 -0.1)">
      <defs>
       <path id="DejaVuSans-61" d="M 2194 1759 
Q 1497 1759 1228 1600 
Q 959 1441 959 1056 
Q 959 750 1161 570 
Q 1363 391 1709 391 
Q 2188 391 2477 730 
Q 2766 1069 2766 1631 
L 2766 1759 
L 2194 1759 
z
M 3341 1997 
L 3341 0 
L 2766 0 
L 2766 531 
Q 2569 213 2275 61 
Q 1981 -91 1556 -91 
Q 1019 -91 701 211 
Q 384 513 384 1019 
Q 384 1609 779 1909 
Q 1175 2209 1959 2209 
L 2766 2209 
L 2766 2266 
Q 2766 2663 2505 2880 
Q 2244 3097 1772 3097 
Q 1472 3097 1187 3025 
Q 903 2953 641 2809 
L 641 3341 
Q 956 3463 1253 3523 
Q 1550 3584 1831 3584 
Q 2591 3584 2966 3190 
Q 3341 2797 3341 1997 
z
" transform="scale(0.015625)"/>
      </defs>
      <use xlink:href="#DejaVuSans-73"/>
      <use xlink:href="#DejaVuSans-74" x="52.099609"/>
      <use xlink:href="#DejaVuSans-61" x="91.308594"/>
      <use xlink:href="#DejaVuSans-72" x="152.587891"/>
     </g>
    </g>
    <g id="line2d_42">
     <path d="M 815.08 343.176562 
L 825.08 343.176562 
L 835.08 343.176562 
" style="fill: none; stroke: #ff7f0e; stroke-width: 1.5; stroke-linecap: square"/>
    </g>
    <g id="text_22">
     <!-- fork -->
     <g style="fill: #a9a9a9" transform="translate(843.08 346.676562) scale(0.1 -0.1)">
      <defs>
       <path id="DejaVuSans-66" d="M 2375 4863 
L 2375 4384 
L 1825 4384 
Q 1516 4384 1395 4259 
Q 1275 4134 1275 3809 
L 1275 3500 
L 2222 3500 
L 2222 3053 
L 1275 3053 
L 1275 0 
L 697 0 
L 697 3053 
L 147 3053 
L 147 3500 
L 697 3500 
L 697 3744 
Q 697 4328 969 4595 
Q 1241 4863 1831 4863 
L 2375 4863 
z
" transform="scale(0.015625)"/>
       <path id="DejaVuSans-6b" d="M 581 4863 
L 1159 4863 
L 1159 1991 
L 2875 3500 
L 3609 3500 
L 1753 1863 
L 3688 0 
L 2938 0 
L 1159 1709 
L 1159 0 
L 581 0 
L 581 4863 
z
" transform="scale(0.015625)"/>
      </defs>
      <use xlink:href="#DejaVuSans-66"/>
      <use xlink:href="#DejaVuSans-6f" x="35.205078"/>
      <use xlink:href="#DejaVuSans-72" x="96.386719"/>
      <use xlink:href="#DejaVuSans-6b" x="137.5"/>
     </g>
    </g>
   </g>
  </g>
 </g>
 <defs>
  <clipPath id="pc61568cd4e">
   <rect x="108" y="43.2" width="669.6" height="277.2"/>
  </clipPath>
 </defs>
</svg>
