<?xml version="1.0" encoding="utf-8" standalone="no"?>
<!DOCTYPE svg PUBLIC "-//W3C//DTD SVG 1.1//EN"
  "http://www.w3.org/Graphics/SVG/1.1/DTD/svg11.dtd">
<svg xmlns:xlink="http://www.w3.org/1999/xlink" width="864pt" height="360pt" viewBox="0 0 864 360" xmlns="http://www.w3.org/2000/svg" version="1.1">
 <metadata>
  <rdf:RDF xmlns:dc="http://purl.org/dc/elements/1.1/" xmlns:cc="http://creativecommons.org/ns#" xmlns:rdf="http://www.w3.org/1999/02/22-rdf-syntax-ns#">
   <cc:Work>
    <dc:type rdf:resource="http://purl.org/dc/dcmitype/StillImage"/>
    <dc:date>2025-05-16T08:16:33.844089</dc:date>
    <dc:format>image/svg+xml</dc:format>
    <dc:creator>
     <cc:Agent>
      <dc:title>Matplotlib v3.10.3, https://matplotlib.org/</dc:title>
     </cc:Agent>
    </dc:creator>
   </cc:Work>
  </rdf:RDF>
 </metadata>
 <defs>
  <style type="text/css">*{stroke-linejoin: round; stroke-linecap: butt}</style>
 </defs>
 <g id="figure_1">
  <g id="patch_1">
   <path d="M 0 360 
L 864 360 
L 864 0 
L 0 0 
L 0 360 
z
" style="fill: none; opacity: 0"/>
  </g>
  <g id="axes_1">
   <g id="patch_2">
    <path d="M 108 320.4 
L 777.6 320.4 
L 777.6 43.2 
L 108 43.2 
L 108 320.4 
z
" style="fill: none; opacity: 0"/>
   </g>
   <g id="matplotlib.axis_1">
    <g id="xtick_1">
     <g id="line2d_1">
      <path d="M 128.37837 320.4 
L 128.37837 43.2 
" clip-path="url(#p402c589331)" style="fill: none; stroke-dasharray: 5.12,1.28,0.8,1.28; stroke-dashoffset: 0; stroke: #b0b0b0; stroke-width: 0.8"/>
     </g>
     <g id="line2d_2">
      <defs>
       <path id="m97eb82669b" d="M 0 0 
L 0 3.5 
" style="stroke: #a9a9a9; stroke-width: 0.8"/>
      </defs>
      <g>
       <use xlink:href="#m97eb82669b" x="128.37837" y="320.4" style="fill: #a9a9a9; stroke: #a9a9a9; stroke-width: 0.8"/>
      </g>
     </g>
     <g id="text_1">
      <!-- 2021-07 -->
      <g style="fill: #a9a9a9" transform="translate(107.486964 334.998438) scale(0.1 -0.1)">
       <defs>
        <path id="DejaVuSans-32" d="M 1228 531 
L 3431 531 
L 3431 0 
L 469 0 
L 469 531 
Q 828 903 1448 1529 
Q 2069 2156 2228 2338 
Q 2531 2678 2651 2914 
Q 2772 3150 2772 3378 
Q 2772 3750 2511 3984 
Q 2250 4219 1831 4219 
Q 1534 4219 1204 4116 
Q 875 4013 500 3803 
L 500 4441 
Q 881 4594 1212 4672 
Q 1544 4750 1819 4750 
Q 2544 4750 2975 4387 
Q 3406 4025 3406 3419 
Q 3406 3131 3298 2873 
Q 3191 2616 2906 2266 
Q 2828 2175 2409 1742 
Q 1991 1309 1228 531 
z
" transform="scale(0.015625)"/>
        <path id="DejaVuSans-30" d="M 2034 4250 
Q 1547 4250 1301 3770 
Q 1056 3291 1056 2328 
Q 1056 1369 1301 889 
Q 1547 409 2034 409 
Q 2525 409 2770 889 
Q 3016 1369 3016 2328 
Q 3016 3291 2770 3770 
Q 2525 4250 2034 4250 
z
M 2034 4750 
Q 2819 4750 3233 4129 
Q 3647 3509 3647 2328 
Q 3647 1150 3233 529 
Q 2819 -91 2034 -91 
Q 1250 -91 836 529 
Q 422 1150 422 2328 
Q 422 3509 836 4129 
Q 1250 4750 2034 4750 
z
" transform="scale(0.015625)"/>
        <path id="DejaVuSans-31" d="M 794 531 
L 1825 531 
L 1825 4091 
L 703 3866 
L 703 4441 
L 1819 4666 
L 2450 4666 
L 2450 531 
L 3481 531 
L 3481 0 
L 794 0 
L 794 531 
z
" transform="scale(0.015625)"/>
        <path id="DejaVuSans-2d" d="M 313 2009 
L 1997 2009 
L 1997 1497 
L 313 1497 
L 313 2009 
z
" transform="scale(0.015625)"/>
        <path id="DejaVuSans-37" d="M 525 4666 
L 3525 4666 
L 3525 4397 
L 1831 0 
L 1172 0 
L 2766 4134 
L 525 4134 
L 525 4666 
z
" transform="scale(0.015625)"/>
       </defs>
       <use xlink:href="#DejaVuSans-32"/>
       <use xlink:href="#DejaVuSans-30" transform="translate(63.623047 0)"/>
       <use xlink:href="#DejaVuSans-32" transform="translate(127.246094 0)"/>
       <use xlink:href="#DejaVuSans-31" transform="translate(190.869141 0)"/>
       <use xlink:href="#DejaVuSans-2d" transform="translate(254.492188 0)"/>
       <use xlink:href="#DejaVuSans-30" transform="translate(290.576172 0)"/>
       <use xlink:href="#DejaVuSans-37" transform="translate(354.199219 0)"/>
      </g>
     </g>
    </g>
    <g id="xtick_2">
     <g id="line2d_3">
      <path d="M 208.84232 320.4 
L 208.84232 43.2 
" clip-path="url(#p402c589331)" style="fill: none; stroke-dasharray: 5.12,1.28,0.8,1.28; stroke-dashoffset: 0; stroke: #b0b0b0; stroke-width: 0.8"/>
     </g>
     <g id="line2d_4">
      <g>
       <use xlink:href="#m97eb82669b" x="208.84232" y="320.4" style="fill: #a9a9a9; stroke: #a9a9a9; stroke-width: 0.8"/>
      </g>
     </g>
     <g id="text_2">
      <!-- 2022-01 -->
      <g style="fill: #a9a9a9" transform="translate(187.950913 334.998438) scale(0.1 -0.1)">
       <use xlink:href="#DejaVuSans-32"/>
       <use xlink:href="#DejaVuSans-30" transform="translate(63.623047 0)"/>
       <use xlink:href="#DejaVuSans-32" transform="translate(127.246094 0)"/>
       <use xlink:href="#DejaVuSans-32" transform="translate(190.869141 0)"/>
       <use xlink:href="#DejaVuSans-2d" transform="translate(254.492188 0)"/>
       <use xlink:href="#DejaVuSans-30" transform="translate(290.576172 0)"/>
       <use xlink:href="#DejaVuSans-31" transform="translate(354.199219 0)"/>
      </g>
     </g>
    </g>
    <g id="xtick_3">
     <g id="line2d_5">
      <path d="M 287.994357 320.4 
L 287.994357 43.2 
" clip-path="url(#p402c589331)" style="fill: none; stroke-dasharray: 5.12,1.28,0.8,1.28; stroke-dashoffset: 0; stroke: #b0b0b0; stroke-width: 0.8"/>
     </g>
     <g id="line2d_6">
      <g>
       <use xlink:href="#m97eb82669b" x="287.994357" y="320.4" style="fill: #a9a9a9; stroke: #a9a9a9; stroke-width: 0.8"/>
      </g>
     </g>
     <g id="text_3">
      <!-- 2022-07 -->
      <g style="fill: #a9a9a9" transform="translate(267.102951 334.998438) scale(0.1 -0.1)">
       <use xlink:href="#DejaVuSans-32"/>
       <use xlink:href="#DejaVuSans-30" transform="translate(63.623047 0)"/>
       <use xlink:href="#DejaVuSans-32" transform="translate(127.246094 0)"/>
       <use xlink:href="#DejaVuSans-32" transform="translate(190.869141 0)"/>
       <use xlink:href="#DejaVuSans-2d" transform="translate(254.492188 0)"/>
       <use xlink:href="#DejaVuSans-30" transform="translate(290.576172 0)"/>
       <use xlink:href="#DejaVuSans-37" transform="translate(354.199219 0)"/>
      </g>
     </g>
    </g>
    <g id="xtick_4">
     <g id="line2d_7">
      <path d="M 368.458307 320.4 
L 368.458307 43.2 
" clip-path="url(#p402c589331)" style="fill: none; stroke-dasharray: 5.12,1.28,0.8,1.28; stroke-dashoffset: 0; stroke: #b0b0b0; stroke-width: 0.8"/>
     </g>
     <g id="line2d_8">
      <g>
       <use xlink:href="#m97eb82669b" x="368.458307" y="320.4" style="fill: #a9a9a9; stroke: #a9a9a9; stroke-width: 0.8"/>
      </g>
     </g>
     <g id="text_4">
      <!-- 2023-01 -->
      <g style="fill: #a9a9a9" transform="translate(347.566901 334.998438) scale(0.1 -0.1)">
       <defs>
        <path id="DejaVuSans-33" d="M 2597 2516 
Q 3050 2419 3304 2112 
Q 3559 1806 3559 1356 
Q 3559 666 3084 287 
Q 2609 -91 1734 -91 
Q 1441 -91 1130 -33 
Q 819 25 488 141 
L 488 750 
Q 750 597 1062 519 
Q 1375 441 1716 441 
Q 2309 441 2620 675 
Q 2931 909 2931 1356 
Q 2931 1769 2642 2001 
Q 2353 2234 1838 2234 
L 1294 2234 
L 1294 2753 
L 1863 2753 
Q 2328 2753 2575 2939 
Q 2822 3125 2822 3475 
Q 2822 3834 2567 4026 
Q 2313 4219 1838 4219 
Q 1578 4219 1281 4162 
Q 984 4106 628 3988 
L 628 4550 
Q 988 4650 1302 4700 
Q 1616 4750 1894 4750 
Q 2613 4750 3031 4423 
Q 3450 4097 3450 3541 
Q 3450 3153 3228 2886 
Q 3006 2619 2597 2516 
z
" transform="scale(0.015625)"/>
       </defs>
       <use xlink:href="#DejaVuSans-32"/>
       <use xlink:href="#DejaVuSans-30" transform="translate(63.623047 0)"/>
       <use xlink:href="#DejaVuSans-32" transform="translate(127.246094 0)"/>
       <use xlink:href="#DejaVuSans-33" transform="translate(190.869141 0)"/>
       <use xlink:href="#DejaVuSans-2d" transform="translate(254.492188 0)"/>
       <use xlink:href="#DejaVuSans-30" transform="translate(290.576172 0)"/>
       <use xlink:href="#DejaVuSans-31" transform="translate(354.199219 0)"/>
      </g>
     </g>
    </g>
    <g id="xtick_5">
     <g id="line2d_9">
      <path d="M 447.610345 320.4 
L 447.610345 43.2 
" clip-path="url(#p402c589331)" style="fill: none; stroke-dasharray: 5.12,1.28,0.8,1.28; stroke-dashoffset: 0; stroke: #b0b0b0; stroke-width: 0.8"/>
     </g>
     <g id="line2d_10">
      <g>
       <use xlink:href="#m97eb82669b" x="447.610345" y="320.4" style="fill: #a9a9a9; stroke: #a9a9a9; stroke-width: 0.8"/>
      </g>
     </g>
     <g id="text_5">
      <!-- 2023-07 -->
      <g style="fill: #a9a9a9" transform="translate(426.718939 334.998438) scale(0.1 -0.1)">
       <use xlink:href="#DejaVuSans-32"/>
       <use xlink:href="#DejaVuSans-30" transform="translate(63.623047 0)"/>
       <use xlink:href="#DejaVuSans-32" transform="translate(127.246094 0)"/>
       <use xlink:href="#DejaVuSans-33" transform="translate(190.869141 0)"/>
       <use xlink:href="#DejaVuSans-2d" transform="translate(254.492188 0)"/>
       <use xlink:href="#DejaVuSans-30" transform="translate(290.576172 0)"/>
       <use xlink:href="#DejaVuSans-37" transform="translate(354.199219 0)"/>
      </g>
     </g>
    </g>
    <g id="xtick_6">
     <g id="line2d_11">
      <path d="M 528.074295 320.4 
L 528.074295 43.2 
" clip-path="url(#p402c589331)" style="fill: none; stroke-dasharray: 5.12,1.28,0.8,1.28; stroke-dashoffset: 0; stroke: #b0b0b0; stroke-width: 0.8"/>
     </g>
     <g id="line2d_12">
      <g>
       <use xlink:href="#m97eb82669b" x="528.074295" y="320.4" style="fill: #a9a9a9; stroke: #a9a9a9; stroke-width: 0.8"/>
      </g>
     </g>
     <g id="text_6">
      <!-- 2024-01 -->
      <g style="fill: #a9a9a9" transform="translate(507.182888 334.998438) scale(0.1 -0.1)">
       <defs>
        <path id="DejaVuSans-34" d="M 2419 4116 
L 825 1625 
L 2419 1625 
L 2419 4116 
z
M 2253 4666 
L 3047 4666 
L 3047 1625 
L 3713 1625 
L 3713 1100 
L 3047 1100 
L 3047 0 
L 2419 0 
L 2419 1100 
L 313 1100 
L 313 1709 
L 2253 4666 
z
" transform="scale(0.015625)"/>
       </defs>
       <use xlink:href="#DejaVuSans-32"/>
       <use xlink:href="#DejaVuSans-30" transform="translate(63.623047 0)"/>
       <use xlink:href="#DejaVuSans-32" transform="translate(127.246094 0)"/>
       <use xlink:href="#DejaVuSans-34" transform="translate(190.869141 0)"/>
       <use xlink:href="#DejaVuSans-2d" transform="translate(254.492188 0)"/>
       <use xlink:href="#DejaVuSans-30" transform="translate(290.576172 0)"/>
       <use xlink:href="#DejaVuSans-31" transform="translate(354.199219 0)"/>
      </g>
     </g>
    </g>
    <g id="xtick_7">
     <g id="line2d_13">
      <path d="M 607.663636 320.4 
L 607.663636 43.2 
" clip-path="url(#p402c589331)" style="fill: none; stroke-dasharray: 5.12,1.28,0.8,1.28; stroke-dashoffset: 0; stroke: #b0b0b0; stroke-width: 0.8"/>
     </g>
     <g id="line2d_14">
      <g>
       <use xlink:href="#m97eb82669b" x="607.663636" y="320.4" style="fill: #a9a9a9; stroke: #a9a9a9; stroke-width: 0.8"/>
      </g>
     </g>
     <g id="text_7">
      <!-- 2024-07 -->
      <g style="fill: #a9a9a9" transform="translate(586.77223 334.998438) scale(0.1 -0.1)">
       <use xlink:href="#DejaVuSans-32"/>
       <use xlink:href="#DejaVuSans-30" transform="translate(63.623047 0)"/>
       <use xlink:href="#DejaVuSans-32" transform="translate(127.246094 0)"/>
       <use xlink:href="#DejaVuSans-34" transform="translate(190.869141 0)"/>
       <use xlink:href="#DejaVuSans-2d" transform="translate(254.492188 0)"/>
       <use xlink:href="#DejaVuSans-30" transform="translate(290.576172 0)"/>
       <use xlink:href="#DejaVuSans-37" transform="translate(354.199219 0)"/>
      </g>
     </g>
    </g>
    <g id="xtick_8">
     <g id="line2d_15">
      <path d="M 688.127586 320.4 
L 688.127586 43.2 
" clip-path="url(#p402c589331)" style="fill: none; stroke-dasharray: 5.12,1.28,0.8,1.28; stroke-dashoffset: 0; stroke: #b0b0b0; stroke-width: 0.8"/>
     </g>
     <g id="line2d_16">
      <g>
       <use xlink:href="#m97eb82669b" x="688.127586" y="320.4" style="fill: #a9a9a9; stroke: #a9a9a9; stroke-width: 0.8"/>
      </g>
     </g>
     <g id="text_8">
      <!-- 2025-01 -->
      <g style="fill: #a9a9a9" transform="translate(667.23618 334.998438) scale(0.1 -0.1)">
       <defs>
        <path id="DejaVuSans-35" d="M 691 4666 
L 3169 4666 
L 3169 4134 
L 1269 4134 
L 1269 2991 
Q 1406 3038 1543 3061 
Q 1681 3084 1819 3084 
Q 2600 3084 3056 2656 
Q 3513 2228 3513 1497 
Q 3513 744 3044 326 
Q 2575 -91 1722 -91 
Q 1428 -91 1123 -41 
Q 819 9 494 109 
L 494 744 
Q 775 591 1075 516 
Q 1375 441 1709 441 
Q 2250 441 2565 725 
Q 2881 1009 2881 1497 
Q 2881 1984 2565 2268 
Q 2250 2553 1709 2553 
Q 1456 2553 1204 2497 
Q 953 2441 691 2322 
L 691 4666 
z
" transform="scale(0.015625)"/>
       </defs>
       <use xlink:href="#DejaVuSans-32"/>
       <use xlink:href="#DejaVuSans-30" transform="translate(63.623047 0)"/>
       <use xlink:href="#DejaVuSans-32" transform="translate(127.246094 0)"/>
       <use xlink:href="#DejaVuSans-35" transform="translate(190.869141 0)"/>
       <use xlink:href="#DejaVuSans-2d" transform="translate(254.492188 0)"/>
       <use xlink:href="#DejaVuSans-30" transform="translate(290.576172 0)"/>
       <use xlink:href="#DejaVuSans-31" transform="translate(354.199219 0)"/>
      </g>
     </g>
    </g>
    <g id="xtick_9">
     <g id="line2d_17">
      <path d="M 767.279624 320.4 
L 767.279624 43.2 
" clip-path="url(#p402c589331)" style="fill: none; stroke-dasharray: 5.12,1.28,0.8,1.28; stroke-dashoffset: 0; stroke: #b0b0b0; stroke-width: 0.8"/>
     </g>
     <g id="line2d_18">
      <g>
       <use xlink:href="#m97eb82669b" x="767.279624" y="320.4" style="fill: #a9a9a9; stroke: #a9a9a9; stroke-width: 0.8"/>
      </g>
     </g>
     <g id="text_9">
      <!-- 2025-07 -->
      <g style="fill: #a9a9a9" transform="translate(746.388218 334.998438) scale(0.1 -0.1)">
       <use xlink:href="#DejaVuSans-32"/>
       <use xlink:href="#DejaVuSans-30" transform="translate(63.623047 0)"/>
       <use xlink:href="#DejaVuSans-32" transform="translate(127.246094 0)"/>
       <use xlink:href="#DejaVuSans-35" transform="translate(190.869141 0)"/>
       <use xlink:href="#DejaVuSans-2d" transform="translate(254.492188 0)"/>
       <use xlink:href="#DejaVuSans-30" transform="translate(290.576172 0)"/>
       <use xlink:href="#DejaVuSans-37" transform="translate(354.199219 0)"/>
      </g>
     </g>
    </g>
   </g>
   <g id="matplotlib.axis_2">
    <g id="ytick_1">
     <g id="line2d_19">
      <path d="M 108 307.833023 
L 777.6 307.833023 
" clip-path="url(#p402c589331)" style="fill: none; stroke-dasharray: 5.12,1.28,0.8,1.28; stroke-dashoffset: 0; stroke: #b0b0b0; stroke-width: 0.8"/>
     </g>
     <g id="line2d_20">
      <defs>
       <path id="m2c9c88e852" d="M 0 0 
L -3.5 0 
" style="stroke: #a9a9a9; stroke-width: 0.8"/>
      </defs>
      <g>
       <use xlink:href="#m2c9c88e852" x="108" y="307.833023" style="fill: #a9a9a9; stroke: #a9a9a9; stroke-width: 0.8"/>
      </g>
     </g>
     <g id="text_10">
      <!-- 0 -->
      <g style="fill: #a9a9a9" transform="translate(94.6375 311.632242) scale(0.1 -0.1)">
       <use xlink:href="#DejaVuSans-30"/>
      </g>
     </g>
    </g>
    <g id="ytick_2">
     <g id="line2d_21">
      <path d="M 108 274.809828 
L 777.6 274.809828 
" clip-path="url(#p402c589331)" style="fill: none; stroke-dasharray: 5.12,1.28,0.8,1.28; stroke-dashoffset: 0; stroke: #b0b0b0; stroke-width: 0.8"/>
     </g>
     <g id="line2d_22">
      <g>
       <use xlink:href="#m2c9c88e852" x="108" y="274.809828" style="fill: #a9a9a9; stroke: #a9a9a9; stroke-width: 0.8"/>
      </g>
     </g>
     <g id="text_11">
      <!-- 1000 -->
      <g style="fill: #a9a9a9" transform="translate(75.55 278.609047) scale(0.1 -0.1)">
       <use xlink:href="#DejaVuSans-31"/>
       <use xlink:href="#DejaVuSans-30" transform="translate(63.623047 0)"/>
       <use xlink:href="#DejaVuSans-30" transform="translate(127.246094 0)"/>
       <use xlink:href="#DejaVuSans-30" transform="translate(190.869141 0)"/>
      </g>
     </g>
    </g>
    <g id="ytick_3">
     <g id="line2d_23">
      <path d="M 108 241.786633 
L 777.6 241.786633 
" clip-path="url(#p402c589331)" style="fill: none; stroke-dasharray: 5.12,1.28,0.8,1.28; stroke-dashoffset: 0; stroke: #b0b0b0; stroke-width: 0.8"/>
     </g>
     <g id="line2d_24">
      <g>
       <use xlink:href="#m2c9c88e852" x="108" y="241.786633" style="fill: #a9a9a9; stroke: #a9a9a9; stroke-width: 0.8"/>
      </g>
     </g>
     <g id="text_12">
      <!-- 2000 -->
      <g style="fill: #a9a9a9" transform="translate(75.55 245.585852) scale(0.1 -0.1)">
       <use xlink:href="#DejaVuSans-32"/>
       <use xlink:href="#DejaVuSans-30" transform="translate(63.623047 0)"/>
       <use xlink:href="#DejaVuSans-30" transform="translate(127.246094 0)"/>
       <use xlink:href="#DejaVuSans-30" transform="translate(190.869141 0)"/>
      </g>
     </g>
    </g>
    <g id="ytick_4">
     <g id="line2d_25">
      <path d="M 108 208.763439 
L 777.6 208.763439 
" clip-path="url(#p402c589331)" style="fill: none; stroke-dasharray: 5.12,1.28,0.8,1.28; stroke-dashoffset: 0; stroke: #b0b0b0; stroke-width: 0.8"/>
     </g>
     <g id="line2d_26">
      <g>
       <use xlink:href="#m2c9c88e852" x="108" y="208.763439" style="fill: #a9a9a9; stroke: #a9a9a9; stroke-width: 0.8"/>
      </g>
     </g>
     <g id="text_13">
      <!-- 3000 -->
      <g style="fill: #a9a9a9" transform="translate(75.55 212.562657) scale(0.1 -0.1)">
       <use xlink:href="#DejaVuSans-33"/>
       <use xlink:href="#DejaVuSans-30" transform="translate(63.623047 0)"/>
       <use xlink:href="#DejaVuSans-30" transform="translate(127.246094 0)"/>
       <use xlink:href="#DejaVuSans-30" transform="translate(190.869141 0)"/>
      </g>
     </g>
    </g>
    <g id="ytick_5">
     <g id="line2d_27">
      <path d="M 108 175.740244 
L 777.6 175.740244 
" clip-path="url(#p402c589331)" style="fill: none; stroke-dasharray: 5.12,1.28,0.8,1.28; stroke-dashoffset: 0; stroke: #b0b0b0; stroke-width: 0.8"/>
     </g>
     <g id="line2d_28">
      <g>
       <use xlink:href="#m2c9c88e852" x="108" y="175.740244" style="fill: #a9a9a9; stroke: #a9a9a9; stroke-width: 0.8"/>
      </g>
     </g>
     <g id="text_14">
      <!-- 4000 -->
      <g style="fill: #a9a9a9" transform="translate(75.55 179.539462) scale(0.1 -0.1)">
       <use xlink:href="#DejaVuSans-34"/>
       <use xlink:href="#DejaVuSans-30" transform="translate(63.623047 0)"/>
       <use xlink:href="#DejaVuSans-30" transform="translate(127.246094 0)"/>
       <use xlink:href="#DejaVuSans-30" transform="translate(190.869141 0)"/>
      </g>
     </g>
    </g>
    <g id="ytick_6">
     <g id="line2d_29">
      <path d="M 108 142.717049 
L 777.6 142.717049 
" clip-path="url(#p402c589331)" style="fill: none; stroke-dasharray: 5.12,1.28,0.8,1.28; stroke-dashoffset: 0; stroke: #b0b0b0; stroke-width: 0.8"/>
     </g>
     <g id="line2d_30">
      <g>
       <use xlink:href="#m2c9c88e852" x="108" y="142.717049" style="fill: #a9a9a9; stroke: #a9a9a9; stroke-width: 0.8"/>
      </g>
     </g>
     <g id="text_15">
      <!-- 5000 -->
      <g style="fill: #a9a9a9" transform="translate(75.55 146.516268) scale(0.1 -0.1)">
       <use xlink:href="#DejaVuSans-35"/>
       <use xlink:href="#DejaVuSans-30" transform="translate(63.623047 0)"/>
       <use xlink:href="#DejaVuSans-30" transform="translate(127.246094 0)"/>
       <use xlink:href="#DejaVuSans-30" transform="translate(190.869141 0)"/>
      </g>
     </g>
    </g>
    <g id="ytick_7">
     <g id="line2d_31">
      <path d="M 108 109.693854 
L 777.6 109.693854 
" clip-path="url(#p402c589331)" style="fill: none; stroke-dasharray: 5.12,1.28,0.8,1.28; stroke-dashoffset: 0; stroke: #b0b0b0; stroke-width: 0.8"/>
     </g>
     <g id="line2d_32">
      <g>
       <use xlink:href="#m2c9c88e852" x="108" y="109.693854" style="fill: #a9a9a9; stroke: #a9a9a9; stroke-width: 0.8"/>
      </g>
     </g>
     <g id="text_16">
      <!-- 6000 -->
      <g style="fill: #a9a9a9" transform="translate(75.55 113.493073) scale(0.1 -0.1)">
       <defs>
        <path id="DejaVuSans-36" d="M 2113 2584 
Q 1688 2584 1439 2293 
Q 1191 2003 1191 1497 
Q 1191 994 1439 701 
Q 1688 409 2113 409 
Q 2538 409 2786 701 
Q 3034 994 3034 1497 
Q 3034 2003 2786 2293 
Q 2538 2584 2113 2584 
z
M 3366 4563 
L 3366 3988 
Q 3128 4100 2886 4159 
Q 2644 4219 2406 4219 
Q 1781 4219 1451 3797 
Q 1122 3375 1075 2522 
Q 1259 2794 1537 2939 
Q 1816 3084 2150 3084 
Q 2853 3084 3261 2657 
Q 3669 2231 3669 1497 
Q 3669 778 3244 343 
Q 2819 -91 2113 -91 
Q 1303 -91 875 529 
Q 447 1150 447 2328 
Q 447 3434 972 4092 
Q 1497 4750 2381 4750 
Q 2619 4750 2861 4703 
Q 3103 4656 3366 4563 
z
" transform="scale(0.015625)"/>
       </defs>
       <use xlink:href="#DejaVuSans-36"/>
       <use xlink:href="#DejaVuSans-30" transform="translate(63.623047 0)"/>
       <use xlink:href="#DejaVuSans-30" transform="translate(127.246094 0)"/>
       <use xlink:href="#DejaVuSans-30" transform="translate(190.869141 0)"/>
      </g>
     </g>
    </g>
    <g id="ytick_8">
     <g id="line2d_33">
      <path d="M 108 76.670659 
L 777.6 76.670659 
" clip-path="url(#p402c589331)" style="fill: none; stroke-dasharray: 5.12,1.28,0.8,1.28; stroke-dashoffset: 0; stroke: #b0b0b0; stroke-width: 0.8"/>
     </g>
     <g id="line2d_34">
      <g>
       <use xlink:href="#m2c9c88e852" x="108" y="76.670659" style="fill: #a9a9a9; stroke: #a9a9a9; stroke-width: 0.8"/>
      </g>
     </g>
     <g id="text_17">
      <!-- 7000 -->
      <g style="fill: #a9a9a9" transform="translate(75.55 80.469878) scale(0.1 -0.1)">
       <use xlink:href="#DejaVuSans-37"/>
       <use xlink:href="#DejaVuSans-30" transform="translate(63.623047 0)"/>
       <use xlink:href="#DejaVuSans-30" transform="translate(127.246094 0)"/>
       <use xlink:href="#DejaVuSans-30" transform="translate(190.869141 0)"/>
      </g>
     </g>
    </g>
    <g id="ytick_9">
     <g id="line2d_35">
      <path d="M 108 43.647464 
L 777.6 43.647464 
" clip-path="url(#p402c589331)" style="fill: none; stroke-dasharray: 5.12,1.28,0.8,1.28; stroke-dashoffset: 0; stroke: #b0b0b0; stroke-width: 0.8"/>
     </g>
     <g id="line2d_36">
      <g>
       <use xlink:href="#m2c9c88e852" x="108" y="43.647464" style="fill: #a9a9a9; stroke: #a9a9a9; stroke-width: 0.8"/>
      </g>
     </g>
     <g id="text_18">
      <!-- 8000 -->
      <g style="fill: #a9a9a9" transform="translate(75.55 47.446683) scale(0.1 -0.1)">
       <defs>
        <path id="DejaVuSans-38" d="M 2034 2216 
Q 1584 2216 1326 1975 
Q 1069 1734 1069 1313 
Q 1069 891 1326 650 
Q 1584 409 2034 409 
Q 2484 409 2743 651 
Q 3003 894 3003 1313 
Q 3003 1734 2745 1975 
Q 2488 2216 2034 2216 
z
M 1403 2484 
Q 997 2584 770 2862 
Q 544 3141 544 3541 
Q 544 4100 942 4425 
Q 1341 4750 2034 4750 
Q 2731 4750 3128 4425 
Q 3525 4100 3525 3541 
Q 3525 3141 3298 2862 
Q 3072 2584 2669 2484 
Q 3125 2378 3379 2068 
Q 3634 1759 3634 1313 
Q 3634 634 3220 271 
Q 2806 -91 2034 -91 
Q 1263 -91 848 271 
Q 434 634 434 1313 
Q 434 1759 690 2068 
Q 947 2378 1403 2484 
z
M 1172 3481 
Q 1172 3119 1398 2916 
Q 1625 2713 2034 2713 
Q 2441 2713 2670 2916 
Q 2900 3119 2900 3481 
Q 2900 3844 2670 4047 
Q 2441 4250 2034 4250 
Q 1625 4250 1398 4047 
Q 1172 3844 1172 3481 
z
" transform="scale(0.015625)"/>
       </defs>
       <use xlink:href="#DejaVuSans-38"/>
       <use xlink:href="#DejaVuSans-30" transform="translate(63.623047 0)"/>
       <use xlink:href="#DejaVuSans-30" transform="translate(127.246094 0)"/>
       <use xlink:href="#DejaVuSans-30" transform="translate(190.869141 0)"/>
      </g>
     </g>
    </g>
   </g>
   <g id="line2d_37">
    <path d="M 138.436364 307.733954 
L 141.060188 307.502791 
L 141.497492 307.304652 
L 143.246708 307.07349 
L 144.995925 306.710235 
L 145.870533 306.578142 
L 148.057053 306.380003 
L 148.931661 306.016747 
L 149.368966 305.42233 
L 149.80627 305.125121 
L 150.243574 304.134425 
L 150.680878 304.068379 
L 151.118182 303.705124 
L 151.99279 303.242799 
L 153.742006 301.789779 
L 155.491223 300.898152 
L 156.803135 300.270712 
L 157.240439 299.544201 
L 158.115047 298.883737 
L 158.552351 298.685598 
L 162.925392 298.025134 
L 163.362696 297.826995 
L 166.423824 297.56281 
L 168.173041 297.133508 
L 171.671473 296.63816 
L 172.108777 296.406998 
L 172.546082 296.340951 
L 173.42069 296.043743 
L 176.481818 295.515372 
L 177.356426 295.251186 
L 181.292163 294.590722 
L 182.166771 294.392583 
L 183.041379 294.35956 
L 184.790596 293.930258 
L 185.2279 293.302817 
L 186.539812 292.774446 
L 187.851724 292.411191 
L 188.289028 292.180029 
L 189.163636 292.014913 
L 190.912853 291.486542 
L 191.787461 291.420495 
L 192.662069 291.189333 
L 194.411285 290.727008 
L 194.848589 290.693985 
L 195.723197 290.264684 
L 196.160502 290.198637 
L 196.597806 289.967475 
L 201.40815 289.141895 
L 203.157367 288.613524 
L 203.594671 288.316315 
L 205.781191 287.589805 
L 206.655799 286.962364 
L 207.967712 286.698178 
L 217.588401 283.825161 
L 218.025705 283.792137 
L 219.337618 283.395859 
L 219.774922 283.395859 
L 220.212226 283.19772 
L 221.086834 283.09865 
L 221.524138 282.933534 
L 223.273354 282.867488 
L 224.147962 282.702372 
L 225.022571 282.240047 
L 226.334483 281.744699 
L 227.209091 281.282375 
L 228.083699 280.82005 
L 228.958307 280.522841 
L 229.395611 280.390748 
L 230.270219 279.829354 
L 230.707524 279.334006 
L 231.582132 277.947032 
L 232.019436 277.814939 
L 232.45674 277.814939 
L 233.768652 277.022382 
L 234.205956 276.79122 
L 234.64326 276.69215 
L 235.080564 276.262849 
L 235.955172 275.899594 
L 236.829781 275.470292 
L 239.016301 272.597274 
L 241.640125 271.144254 
L 242.514734 270.417743 
L 242.952038 270.153558 
L 243.389342 269.526117 
L 243.826646 268.502398 
L 244.26395 267.808911 
L 244.701254 267.445656 
L 245.138558 267.247517 
L 248.636991 263.945197 
L 249.511599 263.119617 
L 252.135423 261.435434 
L 252.572727 261.270318 
L 254.321944 260.213576 
L 254.759248 260.015437 
L 256.945768 257.967999 
L 257.820376 257.604744 
L 258.694984 256.977303 
L 259.132288 256.713118 
L 259.569592 256.647071 
L 260.881505 255.887538 
L 261.318809 255.39219 
L 263.505329 254.170332 
L 263.942633 254.005216 
L 265.254545 253.080566 
L 271.814107 250.702896 
L 272.688715 249.877316 
L 274.000627 249.216852 
L 274.875235 248.655458 
L 275.749843 248.391272 
L 276.187147 248.094064 
L 276.624451 247.961971 
L 277.936364 247.070345 
L 280.122884 246.574997 
L 281.434796 245.78244 
L 282.746708 245.485231 
L 283.184013 245.386162 
L 284.495925 244.362443 
L 286.245141 243.867095 
L 286.682445 243.50384 
L 289.30627 242.57919 
L 290.180878 242.414074 
L 291.055486 242.050819 
L 294.116614 240.895007 
L 294.991223 240.762914 
L 296.303135 240.30059 
L 298.489655 239.210824 
L 300.238871 238.220128 
L 303.737304 236.734085 
L 304.174608 236.668038 
L 305.049216 236.106644 
L 305.923824 235.875482 
L 307.235737 235.34711 
L 308.984953 235.115948 
L 309.859561 234.653623 
L 310.296865 234.257345 
L 310.734169 233.464788 
L 312.483386 232.96944 
L 313.795298 232.275953 
L 314.669906 231.978745 
L 315.544514 231.51642 
L 318.168339 230.426654 
L 319.042947 230.228515 
L 319.917555 229.766191 
L 320.354859 229.568051 
L 320.792163 229.502005 
L 322.978683 228.41224 
L 323.853292 227.850845 
L 325.165204 227.58666 
L 327.351724 227.025265 
L 327.789028 226.66201 
L 328.663636 226.364801 
L 330.850157 225.473175 
L 331.287461 225.142943 
L 331.724765 224.977827 
L 332.599373 224.482479 
L 334.348589 223.921085 
L 335.223197 223.359691 
L 335.660502 222.897366 
L 336.097806 222.63318 
L 336.53511 222.534111 
L 337.409718 221.807601 
L 337.847022 221.741554 
L 338.284326 221.015044 
L 338.72163 220.816905 
L 339.158934 220.45365 
L 339.596238 220.387603 
L 340.470846 219.826209 
L 341.345455 219.529 
L 341.782759 219.198768 
L 342.220063 219.033652 
L 343.969279 217.844817 
L 345.281191 217.15133 
L 346.155799 216.920168 
L 347.030408 216.42482 
L 347.467712 215.665286 
L 348.34232 215.004822 
L 348.779624 214.905753 
L 351.403448 213.617848 
L 352.278056 213.254593 
L 353.152665 212.627152 
L 354.027273 211.735526 
L 357.963009 208.631346 
L 358.400313 208.268091 
L 359.274922 207.970882 
L 360.14953 207.376464 
L 361.461442 206.682977 
L 361.898746 206.616931 
L 363.210658 205.890421 
L 364.085266 205.329026 
L 368.458307 203.677867 
L 368.895611 203.314611 
L 370.644828 202.621124 
L 371.082132 202.489032 
L 371.95674 201.894614 
L 372.831348 201.531359 
L 373.705956 200.903918 
L 374.580564 199.120666 
L 375.455172 198.063923 
L 376.767085 197.370436 
L 377.641693 197.007181 
L 378.078997 196.941135 
L 378.516301 196.676949 
L 380.702821 195.950439 
L 381.140125 195.7523 
L 382.014734 195.157882 
L 383.326646 194.596488 
L 384.201254 194.10114 
L 385.075862 193.572769 
L 385.513166 193.27556 
L 385.95047 192.780212 
L 387.262382 192.020679 
L 387.699687 191.855563 
L 388.574295 191.327192 
L 390.323511 190.369519 
L 390.760815 190.270449 
L 391.198119 189.907194 
L 394.259248 188.883475 
L 394.696552 188.553243 
L 395.57116 188.289058 
L 396.445768 187.925803 
L 396.883072 187.562548 
L 398.632288 186.935107 
L 399.506897 186.307666 
L 400.381505 185.944411 
L 401.256113 185.250924 
L 402.130721 184.986738 
L 402.568025 184.59046 
L 403.005329 184.524414 
L 403.879937 183.830926 
L 404.754545 183.368602 
L 405.19185 183.170463 
L 405.629154 182.708138 
L 408.690282 181.453256 
L 409.56489 181.056978 
L 410.876803 180.627677 
L 411.751411 180.495584 
L 412.188715 180.297445 
L 412.626019 180.231398 
L 413.500627 179.83512 
L 413.937931 179.802097 
L 415.687147 179.141633 
L 416.99906 178.18396 
L 417.436364 178.018844 
L 418.310972 177.523496 
L 418.748276 177.391403 
L 421.3721 175.90536 
L 421.809404 175.80629 
L 423.121317 175.013733 
L 424.433229 174.551409 
L 425.307837 174.2542 
L 427.057053 173.659782 
L 427.931661 173.362574 
L 429.680878 172.999319 
L 430.118182 172.801179 
L 430.99279 172.570017 
L 431.430094 172.371878 
L 431.867398 172.305831 
L 432.304702 172.074669 
L 433.17931 171.909553 
L 434.491223 171.414205 
L 435.365831 171.315136 
L 436.677743 171.017927 
L 438.864263 170.621649 
L 450.234169 167.187236 
L 450.671473 166.724912 
L 453.295298 165.635146 
L 455.044514 165.040729 
L 455.481818 164.776543 
L 456.79373 164.380265 
L 457.668339 164.149102 
L 458.105643 163.851894 
L 458.542947 163.752824 
L 458.980251 163.356546 
L 460.292163 163.09236 
L 461.166771 162.663059 
L 461.604075 162.134687 
L 463.353292 161.705386 
L 466.41442 161.044922 
L 466.851724 161.044922 
L 467.289028 160.846783 
L 469.038245 160.516551 
L 469.475549 160.318412 
L 471.224765 159.98818 
L 472.099373 159.624925 
L 472.973981 159.459809 
L 475.160502 158.898414 
L 476.909718 158.33702 
L 477.347022 158.23795 
L 477.784326 158.006788 
L 478.658934 157.775626 
L 479.533542 157.412371 
L 480.40815 157.082139 
L 480.845455 156.78493 
L 481.720063 156.520744 
L 484.781191 155.364933 
L 486.530408 155.13377 
L 490.02884 153.845866 
L 490.466144 153.515634 
L 490.903448 153.416564 
L 491.340752 153.185402 
L 491.778056 153.152378 
L 496.588401 151.402149 
L 498.774922 150.807732 
L 499.64953 150.37843 
L 500.961442 150.081221 
L 502.710658 148.628201 
L 504.459875 147.868667 
L 505.334483 147.472389 
L 507.958307 146.44867 
L 508.395611 146.151461 
L 510.582132 145.424951 
L 511.894044 144.665417 
L 512.331348 144.566348 
L 514.080564 143.575652 
L 515.829781 142.783095 
L 516.267085 142.452863 
L 517.141693 142.155655 
L 519.328213 141.032866 
L 520.640125 140.570541 
L 522.389342 139.844031 
L 523.701254 139.348683 
L 524.138558 139.183567 
L 525.013166 139.051474 
L 525.45047 138.754265 
L 527.199687 138.39101 
L 528.074295 138.027755 
L 529.823511 137.202175 
L 535.945768 134.494273 
L 537.25768 134.064972 
L 537.694984 133.767763 
L 538.569592 133.668693 
L 539.006897 133.371485 
L 539.881505 133.206369 
L 540.756113 132.777067 
L 541.193417 132.578928 
L 542.068025 132.347766 
L 542.942633 132.08358 
L 544.254545 131.588232 
L 545.566458 131.158931 
L 546.87837 130.861722 
L 548.627586 130.135212 
L 549.502194 129.639864 
L 551.251411 128.748237 
L 552.126019 128.550098 
L 552.563323 128.285913 
L 553.000627 128.186843 
L 554.312539 127.42731 
L 555.187147 127.064055 
L 564.807837 123.332433 
L 566.557053 122.506854 
L 570.930094 120.789647 
L 571.804702 120.360346 
L 572.242006 120.261276 
L 572.67931 120.030114 
L 574.428527 119.534766 
L 576.177743 118.081746 
L 576.615047 117.949653 
L 577.052351 117.685467 
L 578.364263 117.322212 
L 578.801567 116.99198 
L 579.238871 116.89291 
L 580.550784 116.100354 
L 580.988088 115.803145 
L 582.3 115.307797 
L 582.737304 115.076635 
L 584.049216 114.779426 
L 586.235737 114.019893 
L 587.110345 113.722684 
L 588.422257 113.06222 
L 589.296865 112.632918 
L 590.171473 112.401756 
L 591.483386 111.774315 
L 595.419122 110.288272 
L 596.731034 109.462692 
L 597.168339 109.363622 
L 598.042947 108.934321 
L 598.917555 108.604089 
L 599.354859 108.20781 
L 600.229467 107.844555 
L 601.541379 107.38223 
L 601.978683 107.018975 
L 602.415987 106.985952 
L 603.290596 106.721766 
L 604.165204 106.424558 
L 604.602508 106.226419 
L 605.039812 106.160372 
L 606.351724 105.665024 
L 607.663636 105.169676 
L 609.412853 104.37712 
L 610.287461 104.145957 
L 610.724765 103.881772 
L 611.599373 103.650609 
L 612.911285 102.891076 
L 613.348589 102.858053 
L 614.660502 102.428751 
L 615.53511 102.362705 
L 615.972414 102.131542 
L 616.847022 101.90038 
L 617.284326 101.669218 
L 619.470846 101.239916 
L 620.345455 101.0748 
L 621.657367 100.579452 
L 622.969279 100.282243 
L 624.281191 99.588756 
L 624.718495 99.192478 
L 626.030408 98.399921 
L 626.467712 98.069689 
L 627.779624 97.640388 
L 628.654232 97.376202 
L 629.091536 97.14504 
L 629.52884 97.04597 
L 629.966144 96.682715 
L 632.589969 95.559927 
L 634.339185 95.097602 
L 635.213793 94.701324 
L 635.651097 94.470161 
L 636.525705 94.205976 
L 636.963009 93.94179 
L 637.837618 93.776674 
L 641.33605 92.257607 
L 641.773354 92.191561 
L 643.085266 91.332958 
L 643.522571 91.266911 
L 645.271787 90.573424 
L 647.021003 90.144123 
L 647.458307 90.078076 
L 647.895611 89.879937 
L 648.332915 89.846914 
L 649.207524 89.549705 
L 649.644828 89.516682 
L 650.95674 88.988311 
L 652.705956 88.492963 
L 653.580564 87.832499 
L 655.329781 86.841803 
L 656.641693 86.379478 
L 660.140125 84.695296 
L 660.577429 84.464133 
L 661.014734 84.067855 
L 663.201254 83.473437 
L 664.513166 82.87902 
L 665.387774 82.647857 
L 665.825078 82.416695 
L 666.262382 82.05344 
L 668.011599 81.591115 
L 668.448903 81.260883 
L 674.133856 79.180422 
L 675.008464 79.015306 
L 677.194984 78.321819 
L 678.069592 77.958564 
L 678.944201 77.628332 
L 679.818809 77.397169 
L 680.256113 77.19903 
L 680.693417 77.19903 
L 681.568025 76.835775 
L 682.442633 76.307404 
L 685.503762 75.283685 
L 687.252978 74.689267 
L 688.56489 74.392059 
L 689.876803 73.962757 
L 690.314107 73.863688 
L 690.751411 73.566479 
L 691.626019 73.36834 
L 693.375235 72.872992 
L 693.812539 72.839969 
L 694.687147 72.44369 
L 697.748276 71.684157 
L 698.622884 71.320902 
L 702.995925 70.330206 
L 704.307837 69.636719 
L 705.619749 69.24044 
L 709.99279 67.622304 
L 710.430094 67.292072 
L 711.742006 66.994863 
L 712.616614 66.730677 
L 713.491223 66.301376 
L 713.928527 65.938121 
L 714.803135 65.673935 
L 715.240439 65.40975 
L 716.115047 65.31068 
L 719.176176 64.452077 
L 720.488088 64.187891 
L 723.111912 63.329288 
L 724.861129 62.503709 
L 729.671473 60.720456 
L 730.546082 60.588363 
L 731.42069 60.423247 
L 731.857994 60.423247 
L 733.60721 59.861853 
L 734.044514 59.795807 
L 734.919122 59.432551 
L 736.231034 59.036273 
L 737.542947 58.606972 
L 739.729467 58.111624 
L 740.166771 57.847438 
L 741.041379 57.682322 
L 741.915987 57.583253 
L 742.353292 57.35209 
L 742.790596 57.319067 
L 743.665204 56.757673 
L 745.41442 56.361394 
L 746.289028 55.965116 
L 746.726332 55.8 
L 747.163636 55.8 
L 747.163636 55.8 
" clip-path="url(#p402c589331)" style="fill: none; stroke: #1f77b4; stroke-width: 1.5; stroke-linecap: square"/>
   </g>
   <g id="line2d_38">
    <path d="M 138.873668 307.8 
L 142.809404 307.70093 
L 146.307837 307.535814 
L 148.057053 307.535814 
L 148.494357 307.403722 
L 150.680878 307.304652 
L 153.304702 307.007443 
L 155.928527 306.908374 
L 156.803135 306.809304 
L 159.864263 306.677211 
L 162.925392 306.578142 
L 165.111912 306.512095 
L 170.796865 306.413026 
L 172.983386 306.346979 
L 176.919122 306.24791 
L 178.668339 306.214887 
L 183.041379 306.115817 
L 184.790596 305.950701 
L 186.539812 305.917678 
L 189.163636 305.818608 
L 190.912853 305.785585 
L 193.099373 305.719539 
L 194.848589 305.554423 
L 198.784326 305.455353 
L 199.658934 305.389307 
L 201.40815 305.290237 
L 204.031975 305.191168 
L 205.781191 305.092098 
L 213.652665 304.59675 
L 216.713793 304.497681 
L 218.025705 304.365588 
L 220.212226 304.266518 
L 224.585266 304.035356 
L 228.958307 303.969309 
L 230.707524 303.77117 
L 232.45674 303.672101 
L 237.267085 303.209776 
L 240.328213 302.846521 
L 241.640125 302.780474 
L 245.138558 302.31815 
L 247.762382 302.252103 
L 249.074295 302.12001 
L 250.386207 302.020941 
L 262.630721 301.063268 
L 263.505329 300.898152 
L 266.129154 300.799083 
L 273.126019 300.369781 
L 276.187147 300.270712 
L 277.936364 300.072572 
L 280.122884 299.973503 
L 282.746708 299.874433 
L 284.933229 299.775364 
L 286.682445 299.74234 
L 288.868966 299.676294 
L 289.743574 299.544201 
L 295.865831 299.445132 
L 296.740439 299.346062 
L 301.988088 299.246993 
L 305.923824 299.048853 
L 308.984953 298.949784 
L 310.734169 298.751645 
L 313.795298 298.652575 
L 314.669906 298.487459 
L 316.856426 298.421413 
L 321.229467 298.355366 
L 322.978683 298.19025 
L 324.7279 298.157227 
L 326.039812 298.058158 
L 327.789028 297.893042 
L 332.162069 297.661879 
L 336.53511 297.56281 
L 340.470846 297.36467 
L 341.782759 297.331647 
L 342.657367 297.199554 
L 344.843887 297.100485 
L 345.718495 297.034438 
L 346.593103 296.968392 
L 347.467712 296.902346 
L 351.403448 296.836299 
L 352.715361 296.73723 
L 364.522571 295.944673 
L 366.709091 295.845603 
L 368.895611 295.779557 
L 375.017868 295.680487 
L 375.892476 295.548395 
L 382.014734 295.449325 
L 386.387774 295.218163 
L 387.262382 295.18514 
L 388.136991 295.08607 
L 390.323511 294.987 
L 392.510031 294.920954 
L 394.696552 294.821884 
L 396.883072 294.755838 
L 400.818809 294.656768 
L 403.442633 294.557699 
L 409.56489 294.458629 
L 414.375235 294.194444 
L 416.124451 294.128397 
L 417.436364 294.029328 
L 423.558621 293.930258 
L 426.182445 293.831189 
L 434.053918 293.732119 
L 435.803135 293.699096 
L 441.050784 293.633049 
L 441.925392 293.567003 
L 448.047649 293.467933 
L 449.796865 293.43491 
L 461.166771 293.335841 
L 463.790596 293.236771 
L 482.157367 293.137701 
L 484.343887 293.071655 
L 495.713793 293.005609 
L 496.588401 292.939562 
L 498.774922 292.873516 
L 500.086834 292.741423 
L 502.710658 292.642354 
L 505.771787 292.510261 
L 509.707524 292.411191 
L 511.894044 292.345145 
L 514.955172 292.246075 
L 518.453605 292.080959 
L 520.640125 291.98189 
L 522.389342 291.948866 
L 526.325078 291.849797 
L 528.074295 291.816774 
L 533.759248 291.717704 
L 535.508464 291.684681 
L 537.694984 291.585611 
L 540.318809 291.486542 
L 543.379937 291.420495 
L 544.254545 291.354449 
L 554.749843 291.255379 
L 560.434796 290.925147 
L 562.621317 290.859101 
L 563.495925 290.760031 
L 564.370533 290.693985 
L 567.868966 290.594915 
L 570.49279 290.495846 
L 574.865831 290.396776 
L 577.052351 290.165614 
L 581.425392 290.066544 
L 582.3 289.967475 
L 586.673041 289.868405 
L 588.859561 289.802359 
L 593.669906 289.769336 
L 594.544514 289.670266 
L 599.354859 289.571196 
L 600.229467 289.50515 
L 609.850157 289.40608 
L 612.473981 289.307011 
L 619.033542 289.207941 
L 620.782759 289.174918 
L 624.718495 289.108872 
L 625.593103 289.009802 
L 631.278056 288.910733 
L 633.464577 288.844686 
L 641.33605 288.745617 
L 642.647962 288.646547 
L 643.959875 288.547477 
L 645.271787 288.448408 
L 651.831348 288.349338 
L 654.455172 288.250269 
L 666.262382 288.151199 
L 670.198119 287.95306 
L 675.445768 287.85399 
L 676.320376 287.787944 
L 682.879937 287.721898 
L 683.754545 287.655851 
L 688.56489 287.556782 
L 690.314107 287.523758 
L 696.436364 287.424689 
L 699.060188 287.325619 
L 706.494357 287.22655 
L 708.243574 287.193526 
L 712.17931 287.094457 
L 715.677743 286.929341 
L 720.488088 286.830271 
L 723.549216 286.698178 
L 727.484953 286.599109 
L 728.359561 286.533063 
L 737.105643 286.433993 
L 739.292163 286.367947 
L 741.915987 286.268877 
L 744.539812 286.169807 
L 747.163636 286.103761 
L 747.163636 286.103761 
" clip-path="url(#p402c589331)" style="fill: none; stroke: #ff7f0e; stroke-width: 1.5; stroke-linecap: square"/>
   </g>
   <g id="patch_3">
    <path d="M 108 320.4 
L 108 43.2 
" style="fill: none; stroke: #a9a9a9; stroke-width: 0.8; stroke-linejoin: miter; stroke-linecap: square"/>
   </g>
   <g id="patch_4">
    <path d="M 777.6 320.4 
L 777.6 43.2 
" style="fill: none"/>
   </g>
   <g id="patch_5">
    <path d="M 108 320.4 
L 777.6 320.4 
" style="fill: none; stroke: #a9a9a9; stroke-width: 0.8; stroke-linejoin: miter; stroke-linecap: square"/>
   </g>
   <g id="patch_6">
    <path d="M 108 43.2 
L 777.6 43.2 
" style="fill: none"/>
   </g>
   <g id="text_19">
    <!-- get_subscribe history -->
    <g style="fill: #a9a9a9" transform="translate(378.6075 37.2) scale(0.12 -0.12)">
     <defs>
      <path id="DejaVuSans-67" d="M 2906 1791 
Q 2906 2416 2648 2759 
Q 2391 3103 1925 3103 
Q 1463 3103 1205 2759 
Q 947 2416 947 1791 
Q 947 1169 1205 825 
Q 1463 481 1925 481 
Q 2391 481 2648 825 
Q 2906 1169 2906 1791 
z
M 3481 434 
Q 3481 -459 3084 -895 
Q 2688 -1331 1869 -1331 
Q 1566 -1331 1297 -1286 
Q 1028 -1241 775 -1147 
L 775 -588 
Q 1028 -725 1275 -790 
Q 1522 -856 1778 -856 
Q 2344 -856 2625 -561 
Q 2906 -266 2906 331 
L 2906 616 
Q 2728 306 2450 153 
Q 2172 0 1784 0 
Q 1141 0 747 490 
Q 353 981 353 1791 
Q 353 2603 747 3093 
Q 1141 3584 1784 3584 
Q 2172 3584 2450 3431 
Q 2728 3278 2906 2969 
L 2906 3500 
L 3481 3500 
L 3481 434 
z
" transform="scale(0.015625)"/>
      <path id="DejaVuSans-65" d="M 3597 1894 
L 3597 1613 
L 953 1613 
Q 991 1019 1311 708 
Q 1631 397 2203 397 
Q 2534 397 2845 478 
Q 3156 559 3463 722 
L 3463 178 
Q 3153 47 2828 -22 
Q 2503 -91 2169 -91 
Q 1331 -91 842 396 
Q 353 884 353 1716 
Q 353 2575 817 3079 
Q 1281 3584 2069 3584 
Q 2775 3584 3186 3129 
Q 3597 2675 3597 1894 
z
M 3022 2063 
Q 3016 2534 2758 2815 
Q 2500 3097 2075 3097 
Q 1594 3097 1305 2825 
Q 1016 2553 972 2059 
L 3022 2063 
z
" transform="scale(0.015625)"/>
      <path id="DejaVuSans-74" d="M 1172 4494 
L 1172 3500 
L 2356 3500 
L 2356 3053 
L 1172 3053 
L 1172 1153 
Q 1172 725 1289 603 
Q 1406 481 1766 481 
L 2356 481 
L 2356 0 
L 1766 0 
Q 1100 0 847 248 
Q 594 497 594 1153 
L 594 3053 
L 172 3053 
L 172 3500 
L 594 3500 
L 594 4494 
L 1172 4494 
z
" transform="scale(0.015625)"/>
      <path id="DejaVuSans-5f" d="M 3263 -1063 
L 3263 -1509 
L -63 -1509 
L -63 -1063 
L 3263 -1063 
z
" transform="scale(0.015625)"/>
      <path id="DejaVuSans-73" d="M 2834 3397 
L 2834 2853 
Q 2591 2978 2328 3040 
Q 2066 3103 1784 3103 
Q 1356 3103 1142 2972 
Q 928 2841 928 2578 
Q 928 2378 1081 2264 
Q 1234 2150 1697 2047 
L 1894 2003 
Q 2506 1872 2764 1633 
Q 3022 1394 3022 966 
Q 3022 478 2636 193 
Q 2250 -91 1575 -91 
Q 1294 -91 989 -36 
Q 684 19 347 128 
L 347 722 
Q 666 556 975 473 
Q 1284 391 1588 391 
Q 1994 391 2212 530 
Q 2431 669 2431 922 
Q 2431 1156 2273 1281 
Q 2116 1406 1581 1522 
L 1381 1569 
Q 847 1681 609 1914 
Q 372 2147 372 2553 
Q 372 3047 722 3315 
Q 1072 3584 1716 3584 
Q 2034 3584 2315 3537 
Q 2597 3491 2834 3397 
z
" transform="scale(0.015625)"/>
      <path id="DejaVuSans-75" d="M 544 1381 
L 544 3500 
L 1119 3500 
L 1119 1403 
Q 1119 906 1312 657 
Q 1506 409 1894 409 
Q 2359 409 2629 706 
Q 2900 1003 2900 1516 
L 2900 3500 
L 3475 3500 
L 3475 0 
L 2900 0 
L 2900 538 
Q 2691 219 2414 64 
Q 2138 -91 1772 -91 
Q 1169 -91 856 284 
Q 544 659 544 1381 
z
M 1991 3584 
L 1991 3584 
z
" transform="scale(0.015625)"/>
      <path id="DejaVuSans-62" d="M 3116 1747 
Q 3116 2381 2855 2742 
Q 2594 3103 2138 3103 
Q 1681 3103 1420 2742 
Q 1159 2381 1159 1747 
Q 1159 1113 1420 752 
Q 1681 391 2138 391 
Q 2594 391 2855 752 
Q 3116 1113 3116 1747 
z
M 1159 2969 
Q 1341 3281 1617 3432 
Q 1894 3584 2278 3584 
Q 2916 3584 3314 3078 
Q 3713 2572 3713 1747 
Q 3713 922 3314 415 
Q 2916 -91 2278 -91 
Q 1894 -91 1617 61 
Q 1341 213 1159 525 
L 1159 0 
L 581 0 
L 581 4863 
L 1159 4863 
L 1159 2969 
z
" transform="scale(0.015625)"/>
      <path id="DejaVuSans-63" d="M 3122 3366 
L 3122 2828 
Q 2878 2963 2633 3030 
Q 2388 3097 2138 3097 
Q 1578 3097 1268 2742 
Q 959 2388 959 1747 
Q 959 1106 1268 751 
Q 1578 397 2138 397 
Q 2388 397 2633 464 
Q 2878 531 3122 666 
L 3122 134 
Q 2881 22 2623 -34 
Q 2366 -91 2075 -91 
Q 1284 -91 818 406 
Q 353 903 353 1747 
Q 353 2603 823 3093 
Q 1294 3584 2113 3584 
Q 2378 3584 2631 3529 
Q 2884 3475 3122 3366 
z
" transform="scale(0.015625)"/>
      <path id="DejaVuSans-72" d="M 2631 2963 
Q 2534 3019 2420 3045 
Q 2306 3072 2169 3072 
Q 1681 3072 1420 2755 
Q 1159 2438 1159 1844 
L 1159 0 
L 581 0 
L 581 3500 
L 1159 3500 
L 1159 2956 
Q 1341 3275 1631 3429 
Q 1922 3584 2338 3584 
Q 2397 3584 2469 3576 
Q 2541 3569 2628 3553 
L 2631 2963 
z
" transform="scale(0.015625)"/>
      <path id="DejaVuSans-69" d="M 603 3500 
L 1178 3500 
L 1178 0 
L 603 0 
L 603 3500 
z
M 603 4863 
L 1178 4863 
L 1178 4134 
L 603 4134 
L 603 4863 
z
" transform="scale(0.015625)"/>
      <path id="DejaVuSans-20" transform="scale(0.015625)"/>
      <path id="DejaVuSans-68" d="M 3513 2113 
L 3513 0 
L 2938 0 
L 2938 2094 
Q 2938 2591 2744 2837 
Q 2550 3084 2163 3084 
Q 1697 3084 1428 2787 
Q 1159 2491 1159 1978 
L 1159 0 
L 581 0 
L 581 4863 
L 1159 4863 
L 1159 2956 
Q 1366 3272 1645 3428 
Q 1925 3584 2291 3584 
Q 2894 3584 3203 3211 
Q 3513 2838 3513 2113 
z
" transform="scale(0.015625)"/>
      <path id="DejaVuSans-6f" d="M 1959 3097 
Q 1497 3097 1228 2736 
Q 959 2375 959 1747 
Q 959 1119 1226 758 
Q 1494 397 1959 397 
Q 2419 397 2687 759 
Q 2956 1122 2956 1747 
Q 2956 2369 2687 2733 
Q 2419 3097 1959 3097 
z
M 1959 3584 
Q 2709 3584 3137 3096 
Q 3566 2609 3566 1747 
Q 3566 888 3137 398 
Q 2709 -91 1959 -91 
Q 1206 -91 779 398 
Q 353 888 353 1747 
Q 353 2609 779 3096 
Q 1206 3584 1959 3584 
z
" transform="scale(0.015625)"/>
      <path id="DejaVuSans-79" d="M 2059 -325 
Q 1816 -950 1584 -1140 
Q 1353 -1331 966 -1331 
L 506 -1331 
L 506 -850 
L 844 -850 
Q 1081 -850 1212 -737 
Q 1344 -625 1503 -206 
L 1606 56 
L 191 3500 
L 800 3500 
L 1894 763 
L 2988 3500 
L 3597 3500 
L 2059 -325 
z
" transform="scale(0.015625)"/>
     </defs>
     <use xlink:href="#DejaVuSans-67"/>
     <use xlink:href="#DejaVuSans-65" transform="translate(63.476562 0)"/>
     <use xlink:href="#DejaVuSans-74" transform="translate(125 0)"/>
     <use xlink:href="#DejaVuSans-5f" transform="translate(164.208984 0)"/>
     <use xlink:href="#DejaVuSans-73" transform="translate(214.208984 0)"/>
     <use xlink:href="#DejaVuSans-75" transform="translate(266.308594 0)"/>
     <use xlink:href="#DejaVuSans-62" transform="translate(329.6875 0)"/>
     <use xlink:href="#DejaVuSans-73" transform="translate(393.164062 0)"/>
     <use xlink:href="#DejaVuSans-63" transform="translate(445.263672 0)"/>
     <use xlink:href="#DejaVuSans-72" transform="translate(500.244141 0)"/>
     <use xlink:href="#DejaVuSans-69" transform="translate(541.357422 0)"/>
     <use xlink:href="#DejaVuSans-62" transform="translate(569.140625 0)"/>
     <use xlink:href="#DejaVuSans-65" transform="translate(632.617188 0)"/>
     <use xlink:href="#DejaVuSans-20" transform="translate(694.140625 0)"/>
     <use xlink:href="#DejaVuSans-68" transform="translate(725.927734 0)"/>
     <use xlink:href="#DejaVuSans-69" transform="translate(789.306641 0)"/>
     <use xlink:href="#DejaVuSans-73" transform="translate(817.089844 0)"/>
     <use xlink:href="#DejaVuSans-74" transform="translate(869.189453 0)"/>
     <use xlink:href="#DejaVuSans-6f" transform="translate(908.398438 0)"/>
     <use xlink:href="#DejaVuSans-72" transform="translate(969.580078 0)"/>
     <use xlink:href="#DejaVuSans-79" transform="translate(1010.693359 0)"/>
    </g>
   </g>
   <g id="legend_1">
    <g id="line2d_39">
     <path d="M 815.08 328.498438 
L 825.08 328.498438 
L 835.08 328.498438 
" style="fill: none; stroke: #1f77b4; stroke-width: 1.5; stroke-linecap: square"/>
    </g>
    <g id="text_20">
     <!-- star -->
     <g style="fill: #a9a9a9" transform="translate(843.08 331.998438) scale(0.1 -0.1)">
      <defs>
       <path id="DejaVuSans-61" d="M 2194 1759 
Q 1497 1759 1228 1600 
Q 959 1441 959 1056 
Q 959 750 1161 570 
Q 1363 391 1709 391 
Q 2188 391 2477 730 
Q 2766 1069 2766 1631 
L 2766 1759 
L 2194 1759 
z
M 3341 1997 
L 3341 0 
L 2766 0 
L 2766 531 
Q 2569 213 2275 61 
Q 1981 -91 1556 -91 
Q 1019 -91 701 211 
Q 384 513 384 1019 
Q 384 1609 779 1909 
Q 1175 2209 1959 2209 
L 2766 2209 
L 2766 2266 
Q 2766 2663 2505 2880 
Q 2244 3097 1772 3097 
Q 1472 3097 1187 3025 
Q 903 2953 641 2809 
L 641 3341 
Q 956 3463 1253 3523 
Q 1550 3584 1831 3584 
Q 2591 3584 2966 3190 
Q 3341 2797 3341 1997 
z
" transform="scale(0.015625)"/>
      </defs>
      <use xlink:href="#DejaVuSans-73"/>
      <use xlink:href="#DejaVuSans-74" transform="translate(52.099609 0)"/>
      <use xlink:href="#DejaVuSans-61" transform="translate(91.308594 0)"/>
      <use xlink:href="#DejaVuSans-72" transform="translate(152.587891 0)"/>
     </g>
    </g>
    <g id="line2d_40">
     <path d="M 815.08 343.176562 
L 825.08 343.176562 
L 835.08 343.176562 
" style="fill: none; stroke: #ff7f0e; stroke-width: 1.5; stroke-linecap: square"/>
    </g>
    <g id="text_21">
     <!-- fork -->
     <g style="fill: #a9a9a9" transform="translate(843.08 346.676562) scale(0.1 -0.1)">
      <defs>
       <path id="DejaVuSans-66" d="M 2375 4863 
L 2375 4384 
L 1825 4384 
Q 1516 4384 1395 4259 
Q 1275 4134 1275 3809 
L 1275 3500 
L 2222 3500 
L 2222 3053 
L 1275 3053 
L 1275 0 
L 697 0 
L 697 3053 
L 147 3053 
L 147 3500 
L 697 3500 
L 697 3744 
Q 697 4328 969 4595 
Q 1241 4863 1831 4863 
L 2375 4863 
z
" transform="scale(0.015625)"/>
       <path id="DejaVuSans-6b" d="M 581 4863 
L 1159 4863 
L 1159 1991 
L 2875 3500 
L 3609 3500 
L 1753 1863 
L 3688 0 
L 2938 0 
L 1159 1709 
L 1159 0 
L 581 0 
L 581 4863 
z
" transform="scale(0.015625)"/>
      </defs>
      <use xlink:href="#DejaVuSans-66"/>
      <use xlink:href="#DejaVuSans-6f" transform="translate(35.205078 0)"/>
      <use xlink:href="#DejaVuSans-72" transform="translate(96.386719 0)"/>
      <use xlink:href="#DejaVuSans-6b" transform="translate(137.5 0)"/>
     </g>
    </g>
   </g>
  </g>
 </g>
 <defs>
  <clipPath id="p402c589331">
   <rect x="108" y="43.2" width="669.6" height="277.2"/>
  </clipPath>
 </defs>
</svg>
